G04 #@! TF.FileFunction,Copper,L2,Bot,Signal*
%FSLAX46Y46*%
G04 Gerber Fmt 4.6, Leading zero omitted, Abs format (unit mm)*
G04 Created by KiCad (PCBNEW (2014-jul-16 BZR unknown)-product) date Ter 09 Dez 2014 19:06:22 BRST*
%MOMM*%
G01*
G04 APERTURE LIST*
%ADD10C,0.150000*%
%ADD11C,3.500000*%
%ADD12C,1.778000*%
%ADD13R,1.778000X1.778000*%
%ADD14C,1.600000*%
%ADD15R,1.600000X1.600000*%
%ADD16C,1.320800*%
%ADD17C,3.251200*%
%ADD18C,0.889000*%
%ADD19C,0.635000*%
%ADD20C,0.508000*%
%ADD21C,1.270000*%
%ADD22C,1.016000*%
%ADD23C,0.381000*%
%ADD24C,0.304800*%
%ADD25C,0.254000*%
G04 APERTURE END LIST*
D10*
D11*
X63632400Y-44450000D03*
D12*
X63652400Y-50800000D03*
X61112400Y-50800000D03*
X58572400Y-50800000D03*
D13*
X50952400Y-50800000D03*
D12*
X53492400Y-50800000D03*
X56032400Y-50800000D03*
X63652400Y-48260000D03*
X61112400Y-48260000D03*
X58572400Y-48260000D03*
D13*
X50952400Y-48260000D03*
D12*
X53492400Y-48260000D03*
X56032400Y-48260000D03*
D14*
X4673600Y-34629600D03*
D15*
X4673600Y-32629600D03*
D14*
X20005800Y-40640000D03*
D15*
X22005800Y-40640000D03*
D14*
X20929600Y-33975800D03*
D15*
X20929600Y-35975800D03*
D12*
X18948400Y-2540000D03*
X26568400Y-2540000D03*
X29108400Y-2540000D03*
X24028400Y-2540000D03*
X21488400Y-2540000D03*
X31648400Y-2540000D03*
X34188400Y-2540000D03*
D13*
X41808400Y-2540000D03*
D12*
X39268400Y-2540000D03*
X36728400Y-2540000D03*
X18948400Y-5080000D03*
X26568400Y-5080000D03*
X29108400Y-5080000D03*
X24028400Y-5080000D03*
X21488400Y-5080000D03*
X31648400Y-5080000D03*
X34188400Y-5080000D03*
D13*
X41808400Y-5080000D03*
D12*
X39268400Y-5080000D03*
X36728400Y-5080000D03*
X48412400Y-2540000D03*
X50952400Y-2540000D03*
X45872400Y-2540000D03*
X53492400Y-2540000D03*
X56032400Y-2540000D03*
D13*
X63652400Y-2540000D03*
D12*
X61112400Y-2540000D03*
X58572400Y-2540000D03*
X48412400Y-5080000D03*
X50952400Y-5080000D03*
X45872400Y-5080000D03*
X53492400Y-5080000D03*
X56032400Y-5080000D03*
D13*
X63652400Y-5080000D03*
D12*
X61112400Y-5080000D03*
X58572400Y-5080000D03*
D16*
X11582400Y-29413200D03*
X11582400Y-27127200D03*
X11582400Y-17983200D03*
X11582400Y-15697200D03*
X6756400Y-18999200D03*
X6756400Y-21031200D03*
X6756400Y-23063200D03*
X6756400Y-25095200D03*
X4978400Y-22047200D03*
X4978400Y-24079200D03*
X4978400Y-20015200D03*
X4978400Y-26111200D03*
D17*
X2438400Y-28905200D03*
X2438400Y-16205200D03*
D16*
X11582400Y-51562000D03*
X11582400Y-49276000D03*
X11582400Y-40132000D03*
X11582400Y-37846000D03*
X6756400Y-41148000D03*
X6756400Y-43180000D03*
X6756400Y-45212000D03*
X6756400Y-47244000D03*
X4978400Y-44196000D03*
X4978400Y-46228000D03*
X4978400Y-42164000D03*
X4978400Y-48260000D03*
D17*
X2438400Y-51054000D03*
X2438400Y-38354000D03*
D13*
X58572400Y-10922000D03*
D12*
X58572400Y-8382000D03*
X61112400Y-10922000D03*
X61112400Y-8382000D03*
X63652400Y-10922000D03*
X63652400Y-8382000D03*
X43332400Y-50800000D03*
X40792400Y-50800000D03*
X45872400Y-50800000D03*
X38252400Y-50800000D03*
X35712400Y-50800000D03*
D13*
X28092400Y-50800000D03*
D12*
X30632400Y-50800000D03*
X33172400Y-50800000D03*
X43332400Y-48260000D03*
X40792400Y-48260000D03*
X45872400Y-48260000D03*
X38252400Y-48260000D03*
X35712400Y-48260000D03*
D13*
X28092400Y-48260000D03*
D12*
X30632400Y-48260000D03*
X33172400Y-48260000D03*
D13*
X63652400Y-29210000D03*
X61112400Y-29210000D03*
X58572400Y-29210000D03*
X56032400Y-29210000D03*
X53492400Y-29210000D03*
X50952400Y-29210000D03*
X48412400Y-29210000D03*
X40792400Y-29210000D03*
X38252400Y-29210000D03*
X43332400Y-29210000D03*
X45872400Y-29210000D03*
X35712400Y-29210000D03*
X33172400Y-29210000D03*
X25552400Y-29210000D03*
X28092400Y-29210000D03*
X30632400Y-29210000D03*
X30632400Y-31750000D03*
X28092400Y-31750000D03*
X25552400Y-31750000D03*
X33172400Y-31750000D03*
X35712400Y-31750000D03*
X45872400Y-31750000D03*
X43332400Y-31750000D03*
X38252400Y-31750000D03*
X40792400Y-31750000D03*
X48412400Y-31750000D03*
X50952400Y-31750000D03*
X53492400Y-31750000D03*
X56032400Y-31750000D03*
X58572400Y-31750000D03*
X61112400Y-31750000D03*
X63652400Y-31750000D03*
X63652400Y-26670000D03*
X61112400Y-26670000D03*
X58572400Y-26670000D03*
X56032400Y-26670000D03*
X53492400Y-26670000D03*
X50952400Y-26670000D03*
X48412400Y-26670000D03*
X40792400Y-26670000D03*
X38252400Y-26670000D03*
X43332400Y-26670000D03*
X45872400Y-26670000D03*
X35712400Y-26670000D03*
X33172400Y-26670000D03*
X25552400Y-26670000D03*
X28092400Y-26670000D03*
X30632400Y-26670000D03*
X30632400Y-24130000D03*
X28092400Y-24130000D03*
X25552400Y-24130000D03*
X33172400Y-24130000D03*
X35712400Y-24130000D03*
X45872400Y-24130000D03*
X43332400Y-24130000D03*
X38252400Y-24130000D03*
X40792400Y-24130000D03*
X48412400Y-24130000D03*
X50952400Y-24130000D03*
X53492400Y-24130000D03*
X56032400Y-24130000D03*
X58572400Y-24130000D03*
X61112400Y-24130000D03*
X63652400Y-24130000D03*
X63652400Y-21590000D03*
X61112400Y-21590000D03*
X58572400Y-21590000D03*
X56032400Y-21590000D03*
X53492400Y-21590000D03*
X50952400Y-21590000D03*
X48412400Y-21590000D03*
X40792400Y-21590000D03*
X38252400Y-21590000D03*
X43332400Y-21590000D03*
X45872400Y-21590000D03*
X35712400Y-21590000D03*
X33172400Y-21590000D03*
X25552400Y-21590000D03*
X28092400Y-21590000D03*
X30632400Y-21590000D03*
X30632400Y-19050000D03*
X28092400Y-19050000D03*
X25552400Y-19050000D03*
X33172400Y-19050000D03*
X35712400Y-19050000D03*
X45872400Y-19050000D03*
X43332400Y-19050000D03*
X38252400Y-19050000D03*
X40792400Y-19050000D03*
X48412400Y-19050000D03*
X50952400Y-19050000D03*
X53492400Y-19050000D03*
X56032400Y-19050000D03*
X58572400Y-19050000D03*
X61112400Y-19050000D03*
X63652400Y-19050000D03*
X63652400Y-16510000D03*
X61112400Y-16510000D03*
X58572400Y-16510000D03*
X56032400Y-16510000D03*
X53492400Y-16510000D03*
X50952400Y-16510000D03*
X48412400Y-16510000D03*
X40792400Y-16510000D03*
X38252400Y-16510000D03*
X43332400Y-16510000D03*
X45872400Y-16510000D03*
X35712400Y-16510000D03*
X33172400Y-16510000D03*
X25552400Y-16510000D03*
X28092400Y-16510000D03*
X30632400Y-16510000D03*
X30632400Y-13970000D03*
X28092400Y-13970000D03*
X25552400Y-13970000D03*
X33172400Y-13970000D03*
X35712400Y-13970000D03*
X45872400Y-13970000D03*
X43332400Y-13970000D03*
X38252400Y-13970000D03*
X40792400Y-13970000D03*
X48412400Y-13970000D03*
X50952400Y-13970000D03*
X53492400Y-13970000D03*
X56032400Y-13970000D03*
X58572400Y-13970000D03*
X61112400Y-13970000D03*
X63652400Y-13970000D03*
X63652400Y-38100000D03*
X61112400Y-38100000D03*
X58572400Y-38100000D03*
X56032400Y-38100000D03*
X53492400Y-38100000D03*
X50952400Y-38100000D03*
X48412400Y-38100000D03*
X40792400Y-38100000D03*
X38252400Y-38100000D03*
X43332400Y-38100000D03*
X45872400Y-38100000D03*
X35712400Y-38100000D03*
X33172400Y-38100000D03*
X25552400Y-38100000D03*
X28092400Y-38100000D03*
X30632400Y-38100000D03*
X63652400Y-40640000D03*
X61112400Y-40640000D03*
X58572400Y-40640000D03*
X56032400Y-40640000D03*
X53492400Y-40640000D03*
X50952400Y-40640000D03*
X48412400Y-40640000D03*
X40792400Y-40640000D03*
X38252400Y-40640000D03*
X43332400Y-40640000D03*
X45872400Y-40640000D03*
X35712400Y-40640000D03*
X33172400Y-40640000D03*
X25552400Y-40640000D03*
X28092400Y-40640000D03*
X30632400Y-40640000D03*
X63652400Y-35560000D03*
X61112400Y-35560000D03*
X58572400Y-35560000D03*
X56032400Y-35560000D03*
X53492400Y-35560000D03*
X50952400Y-35560000D03*
X48412400Y-35560000D03*
X40792400Y-35560000D03*
X38252400Y-35560000D03*
X43332400Y-35560000D03*
X45872400Y-35560000D03*
X35712400Y-35560000D03*
X33172400Y-35560000D03*
X25552400Y-35560000D03*
X28092400Y-35560000D03*
X30632400Y-35560000D03*
X22992400Y-8120000D03*
D12*
X25532400Y-8120000D03*
D18*
X13742400Y-36170000D03*
X17043400Y-5207000D03*
X13852400Y-43770000D03*
X13852400Y-46990000D03*
X22021800Y-40640000D03*
X16982400Y-10680000D03*
X13432400Y-6780000D03*
X31038800Y-44754800D03*
X42926000Y-44754800D03*
X67208400Y-43637200D03*
X67208400Y-35204400D03*
X5994400Y-8128000D03*
D19*
X1689100Y-12446000D03*
D18*
X17662400Y-26040000D03*
X15354300Y-11460000D03*
X14802400Y-6780000D03*
X28802400Y-6770000D03*
X23502400Y-22280000D03*
X19562400Y-22280000D03*
X30882400Y-10970000D03*
X30882400Y-8830000D03*
D19*
X9677400Y-21031200D03*
D18*
X9142400Y-43180000D03*
X10462400Y-43980000D03*
X10462400Y-46840000D03*
D20*
X14624400Y-5588000D02*
X13432400Y-6780000D01*
X16662400Y-5588000D02*
X14624400Y-5588000D01*
X17043400Y-5207000D02*
X16662400Y-5588000D01*
X13852400Y-43770000D02*
X13852400Y-46990000D01*
D21*
X25552400Y-40640000D02*
X22021800Y-40640000D01*
D22*
X16982400Y-10680000D02*
X13432400Y-7130000D01*
X13432400Y-7130000D02*
X13432400Y-6780000D01*
D23*
X15354300Y-11460000D02*
X15352400Y-11460000D01*
D24*
X23502400Y-22280000D02*
X19562400Y-22280000D01*
X30882400Y-10970000D02*
X30882400Y-8830000D01*
X53492400Y-5842000D02*
X58572400Y-10922000D01*
X53492400Y-5080000D02*
X53492400Y-5842000D01*
D20*
X6756400Y-21031200D02*
X9677400Y-21031200D01*
X9142400Y-43180000D02*
X6756400Y-43180000D01*
X10462400Y-46840000D02*
X10462400Y-43980000D01*
D25*
G36*
X67997400Y-47955553D02*
X65895494Y-50057459D01*
X65895494Y-44027270D01*
X65561454Y-43193400D01*
X65531564Y-43148666D01*
X65214771Y-42957432D01*
X65188840Y-42983363D01*
X65188840Y-41529000D01*
X65188840Y-39751000D01*
X65141863Y-39508877D01*
X65050374Y-39369603D01*
X65138777Y-39238640D01*
X65188840Y-38989000D01*
X65188840Y-37211000D01*
X65188840Y-32639000D01*
X65188840Y-30861000D01*
X65141863Y-30618877D01*
X65050374Y-30479603D01*
X65138777Y-30348640D01*
X65188840Y-30099000D01*
X65188840Y-28321000D01*
X65141863Y-28078877D01*
X65050374Y-27939603D01*
X65138777Y-27808640D01*
X65188840Y-27559000D01*
X65188840Y-25781000D01*
X65141863Y-25538877D01*
X65050374Y-25399603D01*
X65138777Y-25268640D01*
X65188840Y-25019000D01*
X65188840Y-23241000D01*
X65141863Y-22998877D01*
X65050374Y-22859603D01*
X65138777Y-22728640D01*
X65188840Y-22479000D01*
X65188840Y-20701000D01*
X65141863Y-20458877D01*
X65050374Y-20319603D01*
X65138777Y-20188640D01*
X65188840Y-19939000D01*
X65188840Y-18161000D01*
X65141863Y-17918877D01*
X65050374Y-17779603D01*
X65138777Y-17648640D01*
X65188840Y-17399000D01*
X65188840Y-15621000D01*
X65141863Y-15378877D01*
X65050374Y-15239603D01*
X65138777Y-15108640D01*
X65188840Y-14859000D01*
X65188840Y-13081000D01*
X65141863Y-12838877D01*
X65002073Y-12626073D01*
X64791040Y-12483623D01*
X64541400Y-12433560D01*
X63984958Y-12433560D01*
X64514549Y-12214738D01*
X64943631Y-11786404D01*
X65176135Y-11226472D01*
X65176664Y-10620188D01*
X64945138Y-10059851D01*
X64537662Y-9651664D01*
X64943631Y-9246404D01*
X65176135Y-8686472D01*
X65176664Y-8080188D01*
X64945138Y-7519851D01*
X64516804Y-7090769D01*
X63956872Y-6858265D01*
X63350588Y-6857736D01*
X62790251Y-7089262D01*
X62382064Y-7496737D01*
X61976804Y-7090769D01*
X61416872Y-6858265D01*
X60810588Y-6857736D01*
X60250251Y-7089262D01*
X59842064Y-7496737D01*
X59436804Y-7090769D01*
X58876872Y-6858265D01*
X58270588Y-6857736D01*
X57710251Y-7089262D01*
X57281169Y-7517596D01*
X57048665Y-8077528D01*
X57048484Y-8284532D01*
X54745960Y-5982008D01*
X54762735Y-5965262D01*
X55167996Y-6371231D01*
X55727928Y-6603735D01*
X56334212Y-6604264D01*
X56894549Y-6372738D01*
X57302735Y-5965262D01*
X57707996Y-6371231D01*
X58267928Y-6603735D01*
X58874212Y-6604264D01*
X59434549Y-6372738D01*
X59842735Y-5965262D01*
X60247996Y-6371231D01*
X60807928Y-6603735D01*
X61414212Y-6604264D01*
X61974549Y-6372738D01*
X62158638Y-6188969D01*
X62162937Y-6211123D01*
X62302727Y-6423927D01*
X62513760Y-6566377D01*
X62763400Y-6616440D01*
X64541400Y-6616440D01*
X64783523Y-6569463D01*
X64996327Y-6429673D01*
X65138777Y-6218640D01*
X65188840Y-5969000D01*
X65188840Y-4191000D01*
X65141863Y-3948877D01*
X65050374Y-3809603D01*
X65138777Y-3678640D01*
X65188840Y-3429000D01*
X65188840Y-1651000D01*
X65141863Y-1408877D01*
X65002073Y-1196073D01*
X64791040Y-1053623D01*
X64541400Y-1003560D01*
X62763400Y-1003560D01*
X62521277Y-1050537D01*
X62308473Y-1190327D01*
X62166023Y-1401360D01*
X62159851Y-1432135D01*
X61976804Y-1248769D01*
X61416872Y-1016265D01*
X60810588Y-1015736D01*
X60250251Y-1247262D01*
X59842064Y-1654737D01*
X59436804Y-1248769D01*
X58876872Y-1016265D01*
X58270588Y-1015736D01*
X57710251Y-1247262D01*
X57302064Y-1654737D01*
X56896804Y-1248769D01*
X56336872Y-1016265D01*
X55730588Y-1015736D01*
X55170251Y-1247262D01*
X54762064Y-1654737D01*
X54356804Y-1248769D01*
X53796872Y-1016265D01*
X53190588Y-1015736D01*
X52630251Y-1247262D01*
X52222064Y-1654737D01*
X51816804Y-1248769D01*
X51256872Y-1016265D01*
X50650588Y-1015736D01*
X50090251Y-1247262D01*
X49682064Y-1654737D01*
X49276804Y-1248769D01*
X48716872Y-1016265D01*
X48110588Y-1015736D01*
X47550251Y-1247262D01*
X47142064Y-1654737D01*
X46736804Y-1248769D01*
X46176872Y-1016265D01*
X45570588Y-1015736D01*
X45010251Y-1247262D01*
X44581169Y-1675596D01*
X44348665Y-2235528D01*
X44348136Y-2841812D01*
X44579662Y-3402149D01*
X44987137Y-3810335D01*
X44581169Y-4215596D01*
X44348665Y-4775528D01*
X44348136Y-5381812D01*
X44579662Y-5942149D01*
X45007996Y-6371231D01*
X45567928Y-6603735D01*
X46174212Y-6604264D01*
X46734549Y-6372738D01*
X47142735Y-5965262D01*
X47547996Y-6371231D01*
X48107928Y-6603735D01*
X48714212Y-6604264D01*
X49274549Y-6372738D01*
X49682735Y-5965262D01*
X50087996Y-6371231D01*
X50647928Y-6603735D01*
X51254212Y-6604264D01*
X51814549Y-6372738D01*
X52222735Y-5965262D01*
X52627996Y-6371231D01*
X53106963Y-6570115D01*
X57035960Y-10499112D01*
X57035960Y-11811000D01*
X57082937Y-12053123D01*
X57222727Y-12265927D01*
X57433760Y-12408377D01*
X57620342Y-12445794D01*
X57441277Y-12480537D01*
X57302003Y-12572025D01*
X57171040Y-12483623D01*
X56921400Y-12433560D01*
X55143400Y-12433560D01*
X54901277Y-12480537D01*
X54762003Y-12572025D01*
X54631040Y-12483623D01*
X54381400Y-12433560D01*
X52603400Y-12433560D01*
X52361277Y-12480537D01*
X52222003Y-12572025D01*
X52091040Y-12483623D01*
X51841400Y-12433560D01*
X50063400Y-12433560D01*
X49821277Y-12480537D01*
X49682003Y-12572025D01*
X49551040Y-12483623D01*
X49301400Y-12433560D01*
X47523400Y-12433560D01*
X47281277Y-12480537D01*
X47142003Y-12572025D01*
X47011040Y-12483623D01*
X46761400Y-12433560D01*
X44983400Y-12433560D01*
X44741277Y-12480537D01*
X44602003Y-12572025D01*
X44471040Y-12483623D01*
X44221400Y-12433560D01*
X43344840Y-12433560D01*
X43344840Y-5969000D01*
X43344840Y-4191000D01*
X43297863Y-3948877D01*
X43206374Y-3809603D01*
X43294777Y-3678640D01*
X43344840Y-3429000D01*
X43344840Y-1651000D01*
X43297863Y-1408877D01*
X43158073Y-1196073D01*
X42947040Y-1053623D01*
X42697400Y-1003560D01*
X40919400Y-1003560D01*
X40677277Y-1050537D01*
X40464473Y-1190327D01*
X40322023Y-1401360D01*
X40315851Y-1432135D01*
X40132804Y-1248769D01*
X39572872Y-1016265D01*
X38966588Y-1015736D01*
X38406251Y-1247262D01*
X37998064Y-1654737D01*
X37592804Y-1248769D01*
X37032872Y-1016265D01*
X36426588Y-1015736D01*
X35866251Y-1247262D01*
X35458064Y-1654737D01*
X35052804Y-1248769D01*
X34492872Y-1016265D01*
X33886588Y-1015736D01*
X33326251Y-1247262D01*
X32918064Y-1654737D01*
X32512804Y-1248769D01*
X31952872Y-1016265D01*
X31346588Y-1015736D01*
X30786251Y-1247262D01*
X30378064Y-1654737D01*
X29972804Y-1248769D01*
X29412872Y-1016265D01*
X28806588Y-1015736D01*
X28246251Y-1247262D01*
X27817169Y-1675596D01*
X27770544Y-1787880D01*
X27756917Y-1754982D01*
X27529580Y-1668622D01*
X27439778Y-1758424D01*
X27439778Y-1578820D01*
X27353418Y-1351483D01*
X26838837Y-1141540D01*
X26283083Y-1144500D01*
X25783382Y-1351483D01*
X25697022Y-1578820D01*
X26568400Y-2450197D01*
X27439778Y-1578820D01*
X27439778Y-1758424D01*
X26658203Y-2540000D01*
X27529580Y-3411378D01*
X27756917Y-3325018D01*
X27770269Y-3292290D01*
X27815662Y-3402149D01*
X28223137Y-3810335D01*
X27817169Y-4215596D01*
X27770544Y-4327880D01*
X27756917Y-4294982D01*
X27529580Y-4208622D01*
X27439778Y-4298424D01*
X27439778Y-4118820D01*
X27353418Y-3891483D01*
X27155211Y-3810616D01*
X27353418Y-3728517D01*
X27439778Y-3501180D01*
X26568400Y-2629803D01*
X25697022Y-3501180D01*
X25783382Y-3728517D01*
X25981588Y-3809383D01*
X25783382Y-3891483D01*
X25697022Y-4118820D01*
X26568400Y-4990197D01*
X27439778Y-4118820D01*
X27439778Y-4298424D01*
X26658203Y-5080000D01*
X27529580Y-5951378D01*
X27756917Y-5865018D01*
X27770269Y-5832290D01*
X27815662Y-5942149D01*
X28243996Y-6371231D01*
X28803928Y-6603735D01*
X29410212Y-6604264D01*
X29970549Y-6372738D01*
X30378735Y-5965262D01*
X30783996Y-6371231D01*
X31343928Y-6603735D01*
X31950212Y-6604264D01*
X32510549Y-6372738D01*
X32918735Y-5965262D01*
X33323996Y-6371231D01*
X33883928Y-6603735D01*
X34490212Y-6604264D01*
X35050549Y-6372738D01*
X35458735Y-5965262D01*
X35863996Y-6371231D01*
X36423928Y-6603735D01*
X37030212Y-6604264D01*
X37590549Y-6372738D01*
X37998735Y-5965262D01*
X38403996Y-6371231D01*
X38963928Y-6603735D01*
X39570212Y-6604264D01*
X40130549Y-6372738D01*
X40314638Y-6188969D01*
X40318937Y-6211123D01*
X40458727Y-6423927D01*
X40669760Y-6566377D01*
X40919400Y-6616440D01*
X42697400Y-6616440D01*
X42939523Y-6569463D01*
X43152327Y-6429673D01*
X43294777Y-6218640D01*
X43344840Y-5969000D01*
X43344840Y-12433560D01*
X42443400Y-12433560D01*
X42201277Y-12480537D01*
X42062003Y-12572025D01*
X41931040Y-12483623D01*
X41681400Y-12433560D01*
X39903400Y-12433560D01*
X39661277Y-12480537D01*
X39522003Y-12572025D01*
X39391040Y-12483623D01*
X39141400Y-12433560D01*
X37363400Y-12433560D01*
X37121277Y-12480537D01*
X36982003Y-12572025D01*
X36851040Y-12483623D01*
X36601400Y-12433560D01*
X34823400Y-12433560D01*
X34581277Y-12480537D01*
X34442003Y-12572025D01*
X34311040Y-12483623D01*
X34061400Y-12433560D01*
X32283400Y-12433560D01*
X32041277Y-12480537D01*
X31962087Y-12532556D01*
X31962087Y-10756216D01*
X31798089Y-10359311D01*
X31669800Y-10230797D01*
X31669800Y-9569286D01*
X31797022Y-9442286D01*
X31961713Y-9045668D01*
X31962087Y-8616216D01*
X31798089Y-8219311D01*
X31494686Y-7915378D01*
X31098068Y-7750687D01*
X30668616Y-7750313D01*
X30271711Y-7914311D01*
X29967778Y-8217714D01*
X29803087Y-8614332D01*
X29802713Y-9043784D01*
X29966711Y-9440689D01*
X30095000Y-9569202D01*
X30095000Y-10230713D01*
X29967778Y-10357714D01*
X29803087Y-10754332D01*
X29802713Y-11183784D01*
X29966711Y-11580689D01*
X30270114Y-11884622D01*
X30666732Y-12049313D01*
X31096184Y-12049687D01*
X31493089Y-11885689D01*
X31797022Y-11582286D01*
X31961713Y-11185668D01*
X31962087Y-10756216D01*
X31962087Y-12532556D01*
X31902003Y-12572025D01*
X31771040Y-12483623D01*
X31521400Y-12433560D01*
X29743400Y-12433560D01*
X29501277Y-12480537D01*
X29362003Y-12572025D01*
X29231040Y-12483623D01*
X28981400Y-12433560D01*
X27439778Y-12433560D01*
X27439778Y-6041180D01*
X26568400Y-5169803D01*
X25697022Y-6041180D01*
X25783382Y-6268517D01*
X26297963Y-6478460D01*
X26853717Y-6475500D01*
X27353418Y-6268517D01*
X27439778Y-6041180D01*
X27439778Y-12433560D01*
X27203400Y-12433560D01*
X27056664Y-12462029D01*
X27056664Y-7818188D01*
X26825138Y-7257851D01*
X26396804Y-6828769D01*
X25836872Y-6596265D01*
X25230588Y-6595736D01*
X24670251Y-6827262D01*
X24486161Y-7011030D01*
X24481863Y-6988877D01*
X24342073Y-6776073D01*
X24131040Y-6633623D01*
X23983130Y-6603961D01*
X24330212Y-6604264D01*
X24890549Y-6372738D01*
X25319631Y-5944404D01*
X25366255Y-5832119D01*
X25379883Y-5865018D01*
X25607220Y-5951378D01*
X26478597Y-5080000D01*
X25607220Y-4208622D01*
X25379883Y-4294982D01*
X25366530Y-4327709D01*
X25321138Y-4217851D01*
X24913662Y-3809664D01*
X25319631Y-3404404D01*
X25366255Y-3292119D01*
X25379883Y-3325018D01*
X25607220Y-3411378D01*
X26478597Y-2540000D01*
X25607220Y-1668622D01*
X25379883Y-1754982D01*
X25366530Y-1787709D01*
X25321138Y-1677851D01*
X24892804Y-1248769D01*
X24332872Y-1016265D01*
X23726588Y-1015736D01*
X23166251Y-1247262D01*
X22758064Y-1654737D01*
X22352804Y-1248769D01*
X21792872Y-1016265D01*
X21186588Y-1015736D01*
X20626251Y-1247262D01*
X20218064Y-1654737D01*
X19812804Y-1248769D01*
X19252872Y-1016265D01*
X18646588Y-1015736D01*
X18086251Y-1247262D01*
X17657169Y-1675596D01*
X17424665Y-2235528D01*
X17424136Y-2841812D01*
X17655662Y-3402149D01*
X18063137Y-3810335D01*
X17657169Y-4215596D01*
X17629757Y-4281611D01*
X17259068Y-4127687D01*
X16829616Y-4127313D01*
X16432711Y-4291311D01*
X16128778Y-4594714D01*
X16085474Y-4699000D01*
X14624400Y-4699000D01*
X14284195Y-4766670D01*
X13995782Y-4959382D01*
X13289798Y-5665365D01*
X12994993Y-5724006D01*
X12624177Y-5971777D01*
X12376406Y-6342593D01*
X12289400Y-6780000D01*
X12289400Y-7130000D01*
X12376406Y-7567407D01*
X12624177Y-7938223D01*
X16174177Y-11488223D01*
X16544993Y-11735994D01*
X16982400Y-11823000D01*
X17419807Y-11735994D01*
X17790623Y-11488223D01*
X18038394Y-11117407D01*
X18125400Y-10680000D01*
X18038394Y-10242593D01*
X17790623Y-9871777D01*
X14694241Y-6775395D01*
X14992636Y-6477000D01*
X16662400Y-6477000D01*
X17002605Y-6409329D01*
X17002606Y-6409329D01*
X17186244Y-6286625D01*
X17257184Y-6286687D01*
X17654089Y-6122689D01*
X17745146Y-6031790D01*
X18083996Y-6371231D01*
X18643928Y-6603735D01*
X19250212Y-6604264D01*
X19810549Y-6372738D01*
X20218735Y-5965262D01*
X20623996Y-6371231D01*
X21183928Y-6603735D01*
X21790212Y-6604264D01*
X22350549Y-6372738D01*
X22758735Y-5965262D01*
X23163996Y-6371231D01*
X23675341Y-6583560D01*
X22103400Y-6583560D01*
X21861277Y-6630537D01*
X21648473Y-6770327D01*
X21506023Y-6981360D01*
X21455960Y-7231000D01*
X21455960Y-9009000D01*
X21502937Y-9251123D01*
X21642727Y-9463927D01*
X21853760Y-9606377D01*
X22103400Y-9656440D01*
X23881400Y-9656440D01*
X24123523Y-9609463D01*
X24336327Y-9469673D01*
X24478777Y-9258640D01*
X24484948Y-9227864D01*
X24667996Y-9411231D01*
X25227928Y-9643735D01*
X25834212Y-9644264D01*
X26394549Y-9412738D01*
X26823631Y-8984404D01*
X27056135Y-8424472D01*
X27056664Y-7818188D01*
X27056664Y-12462029D01*
X26961277Y-12480537D01*
X26822003Y-12572025D01*
X26691040Y-12483623D01*
X26441400Y-12433560D01*
X24663400Y-12433560D01*
X24421277Y-12480537D01*
X24208473Y-12620327D01*
X24066023Y-12831360D01*
X24015960Y-13081000D01*
X24015960Y-14859000D01*
X24062937Y-15101123D01*
X24154425Y-15240396D01*
X24066023Y-15371360D01*
X24015960Y-15621000D01*
X24015960Y-17399000D01*
X24062937Y-17641123D01*
X24154425Y-17780396D01*
X24066023Y-17911360D01*
X24015960Y-18161000D01*
X24015960Y-19939000D01*
X24062937Y-20181123D01*
X24154425Y-20320396D01*
X24066023Y-20451360D01*
X24015960Y-20701000D01*
X24015960Y-21324383D01*
X23718068Y-21200687D01*
X23288616Y-21200313D01*
X22891711Y-21364311D01*
X22763197Y-21492600D01*
X20301686Y-21492600D01*
X20174686Y-21365378D01*
X19778068Y-21200687D01*
X19348616Y-21200313D01*
X18951711Y-21364311D01*
X18647778Y-21667714D01*
X18483087Y-22064332D01*
X18482713Y-22493784D01*
X18646711Y-22890689D01*
X18950114Y-23194622D01*
X19346732Y-23359313D01*
X19776184Y-23359687D01*
X20173089Y-23195689D01*
X20301602Y-23067400D01*
X22763113Y-23067400D01*
X22890114Y-23194622D01*
X23286732Y-23359313D01*
X23716184Y-23359687D01*
X24017092Y-23235354D01*
X24015960Y-23241000D01*
X24015960Y-25019000D01*
X24062937Y-25261123D01*
X24154425Y-25400396D01*
X24066023Y-25531360D01*
X24015960Y-25781000D01*
X24015960Y-27559000D01*
X24062937Y-27801123D01*
X24154425Y-27940396D01*
X24066023Y-28071360D01*
X24015960Y-28321000D01*
X24015960Y-30099000D01*
X24062937Y-30341123D01*
X24154425Y-30480396D01*
X24066023Y-30611360D01*
X24015960Y-30861000D01*
X24015960Y-32639000D01*
X24062937Y-32881123D01*
X24202727Y-33093927D01*
X24413760Y-33236377D01*
X24663400Y-33286440D01*
X26441400Y-33286440D01*
X26683523Y-33239463D01*
X26822796Y-33147974D01*
X26953760Y-33236377D01*
X27203400Y-33286440D01*
X28981400Y-33286440D01*
X29223523Y-33239463D01*
X29362796Y-33147974D01*
X29493760Y-33236377D01*
X29743400Y-33286440D01*
X31521400Y-33286440D01*
X31763523Y-33239463D01*
X31902796Y-33147974D01*
X32033760Y-33236377D01*
X32283400Y-33286440D01*
X34061400Y-33286440D01*
X34303523Y-33239463D01*
X34442796Y-33147974D01*
X34573760Y-33236377D01*
X34823400Y-33286440D01*
X36601400Y-33286440D01*
X36843523Y-33239463D01*
X36982796Y-33147974D01*
X37113760Y-33236377D01*
X37363400Y-33286440D01*
X39141400Y-33286440D01*
X39383523Y-33239463D01*
X39522796Y-33147974D01*
X39653760Y-33236377D01*
X39903400Y-33286440D01*
X41681400Y-33286440D01*
X41923523Y-33239463D01*
X42062796Y-33147974D01*
X42193760Y-33236377D01*
X42443400Y-33286440D01*
X44221400Y-33286440D01*
X44463523Y-33239463D01*
X44602796Y-33147974D01*
X44733760Y-33236377D01*
X44983400Y-33286440D01*
X46761400Y-33286440D01*
X47003523Y-33239463D01*
X47142796Y-33147974D01*
X47273760Y-33236377D01*
X47523400Y-33286440D01*
X49301400Y-33286440D01*
X49543523Y-33239463D01*
X49682796Y-33147974D01*
X49813760Y-33236377D01*
X50063400Y-33286440D01*
X51841400Y-33286440D01*
X52083523Y-33239463D01*
X52222796Y-33147974D01*
X52353760Y-33236377D01*
X52603400Y-33286440D01*
X54381400Y-33286440D01*
X54623523Y-33239463D01*
X54762796Y-33147974D01*
X54893760Y-33236377D01*
X55143400Y-33286440D01*
X56921400Y-33286440D01*
X57163523Y-33239463D01*
X57302796Y-33147974D01*
X57433760Y-33236377D01*
X57683400Y-33286440D01*
X59461400Y-33286440D01*
X59703523Y-33239463D01*
X59842796Y-33147974D01*
X59973760Y-33236377D01*
X60223400Y-33286440D01*
X62001400Y-33286440D01*
X62243523Y-33239463D01*
X62382796Y-33147974D01*
X62513760Y-33236377D01*
X62763400Y-33286440D01*
X64541400Y-33286440D01*
X64783523Y-33239463D01*
X64996327Y-33099673D01*
X65138777Y-32888640D01*
X65188840Y-32639000D01*
X65188840Y-37211000D01*
X65141863Y-36968877D01*
X65002073Y-36756073D01*
X64972366Y-36736020D01*
X65049400Y-36550048D01*
X65049400Y-36347953D01*
X65049400Y-35750500D01*
X65049400Y-35369500D01*
X65049400Y-34772047D01*
X65049400Y-34569952D01*
X64972061Y-34383241D01*
X64829158Y-34240338D01*
X64642447Y-34163000D01*
X63842900Y-34163000D01*
X63715900Y-34290000D01*
X63715900Y-35496500D01*
X64922400Y-35496500D01*
X65049400Y-35369500D01*
X65049400Y-35750500D01*
X64922400Y-35623500D01*
X63715900Y-35623500D01*
X63715900Y-35643500D01*
X63588900Y-35643500D01*
X63588900Y-35623500D01*
X63588900Y-35496500D01*
X63588900Y-34290000D01*
X63461900Y-34163000D01*
X62662353Y-34163000D01*
X62475642Y-34240338D01*
X62382400Y-34333580D01*
X62289158Y-34240338D01*
X62102447Y-34163000D01*
X61302900Y-34163000D01*
X61175900Y-34290000D01*
X61175900Y-35496500D01*
X62382400Y-35496500D01*
X63588900Y-35496500D01*
X63588900Y-35623500D01*
X62382400Y-35623500D01*
X61175900Y-35623500D01*
X61175900Y-35643500D01*
X61048900Y-35643500D01*
X61048900Y-35623500D01*
X61048900Y-35496500D01*
X61048900Y-34290000D01*
X60921900Y-34163000D01*
X60122353Y-34163000D01*
X59935642Y-34240338D01*
X59842400Y-34333580D01*
X59749158Y-34240338D01*
X59562447Y-34163000D01*
X58762900Y-34163000D01*
X58635900Y-34290000D01*
X58635900Y-35496500D01*
X59842400Y-35496500D01*
X61048900Y-35496500D01*
X61048900Y-35623500D01*
X59842400Y-35623500D01*
X58635900Y-35623500D01*
X58635900Y-35643500D01*
X58508900Y-35643500D01*
X58508900Y-35623500D01*
X58508900Y-35496500D01*
X58508900Y-34290000D01*
X58381900Y-34163000D01*
X57582353Y-34163000D01*
X57395642Y-34240338D01*
X57302400Y-34333580D01*
X57209158Y-34240338D01*
X57022447Y-34163000D01*
X56222900Y-34163000D01*
X56095900Y-34290000D01*
X56095900Y-35496500D01*
X57302400Y-35496500D01*
X58508900Y-35496500D01*
X58508900Y-35623500D01*
X57302400Y-35623500D01*
X56095900Y-35623500D01*
X56095900Y-35643500D01*
X55968900Y-35643500D01*
X55968900Y-35623500D01*
X55968900Y-35496500D01*
X55968900Y-34290000D01*
X55841900Y-34163000D01*
X55042353Y-34163000D01*
X54855642Y-34240338D01*
X54762400Y-34333580D01*
X54669158Y-34240338D01*
X54482447Y-34163000D01*
X53682900Y-34163000D01*
X53555900Y-34290000D01*
X53555900Y-35496500D01*
X54762400Y-35496500D01*
X55968900Y-35496500D01*
X55968900Y-35623500D01*
X54762400Y-35623500D01*
X53555900Y-35623500D01*
X53555900Y-35643500D01*
X53428900Y-35643500D01*
X53428900Y-35623500D01*
X53428900Y-35496500D01*
X53428900Y-34290000D01*
X53301900Y-34163000D01*
X52502353Y-34163000D01*
X52315642Y-34240338D01*
X52222400Y-34333580D01*
X52129158Y-34240338D01*
X51942447Y-34163000D01*
X51142900Y-34163000D01*
X51015900Y-34290000D01*
X51015900Y-35496500D01*
X52222400Y-35496500D01*
X53428900Y-35496500D01*
X53428900Y-35623500D01*
X52222400Y-35623500D01*
X51015900Y-35623500D01*
X51015900Y-35643500D01*
X50888900Y-35643500D01*
X50888900Y-35623500D01*
X50888900Y-35496500D01*
X50888900Y-34290000D01*
X50761900Y-34163000D01*
X49962353Y-34163000D01*
X49775642Y-34240338D01*
X49682400Y-34333580D01*
X49589158Y-34240338D01*
X49402447Y-34163000D01*
X48602900Y-34163000D01*
X48475900Y-34290000D01*
X48475900Y-35496500D01*
X49682400Y-35496500D01*
X50888900Y-35496500D01*
X50888900Y-35623500D01*
X49682400Y-35623500D01*
X48475900Y-35623500D01*
X48475900Y-35643500D01*
X48348900Y-35643500D01*
X48348900Y-35623500D01*
X48348900Y-35496500D01*
X48348900Y-34290000D01*
X48221900Y-34163000D01*
X47422353Y-34163000D01*
X47235642Y-34240338D01*
X47142400Y-34333580D01*
X47049158Y-34240338D01*
X46862447Y-34163000D01*
X46062900Y-34163000D01*
X45935900Y-34290000D01*
X45935900Y-35496500D01*
X47142400Y-35496500D01*
X48348900Y-35496500D01*
X48348900Y-35623500D01*
X47142400Y-35623500D01*
X45935900Y-35623500D01*
X45935900Y-35643500D01*
X45808900Y-35643500D01*
X45808900Y-35623500D01*
X45808900Y-35496500D01*
X45808900Y-34290000D01*
X45681900Y-34163000D01*
X44882353Y-34163000D01*
X44695642Y-34240338D01*
X44602400Y-34333580D01*
X44509158Y-34240338D01*
X44322447Y-34163000D01*
X43522900Y-34163000D01*
X43395900Y-34290000D01*
X43395900Y-35496500D01*
X44602400Y-35496500D01*
X45808900Y-35496500D01*
X45808900Y-35623500D01*
X44602400Y-35623500D01*
X43395900Y-35623500D01*
X43395900Y-35643500D01*
X43268900Y-35643500D01*
X43268900Y-35623500D01*
X43268900Y-35496500D01*
X43268900Y-34290000D01*
X43141900Y-34163000D01*
X42342353Y-34163000D01*
X42155642Y-34240338D01*
X42062400Y-34333580D01*
X41969158Y-34240338D01*
X41782447Y-34163000D01*
X40982900Y-34163000D01*
X40855900Y-34290000D01*
X40855900Y-35496500D01*
X42062400Y-35496500D01*
X43268900Y-35496500D01*
X43268900Y-35623500D01*
X42062400Y-35623500D01*
X40855900Y-35623500D01*
X40855900Y-35643500D01*
X40728900Y-35643500D01*
X40728900Y-35623500D01*
X40728900Y-35496500D01*
X40728900Y-34290000D01*
X40601900Y-34163000D01*
X39802353Y-34163000D01*
X39615642Y-34240338D01*
X39522400Y-34333580D01*
X39429158Y-34240338D01*
X39242447Y-34163000D01*
X38442900Y-34163000D01*
X38315900Y-34290000D01*
X38315900Y-35496500D01*
X39522400Y-35496500D01*
X40728900Y-35496500D01*
X40728900Y-35623500D01*
X39522400Y-35623500D01*
X38315900Y-35623500D01*
X38315900Y-35643500D01*
X38188900Y-35643500D01*
X38188900Y-35623500D01*
X38188900Y-35496500D01*
X38188900Y-34290000D01*
X38061900Y-34163000D01*
X37262353Y-34163000D01*
X37075642Y-34240338D01*
X36982400Y-34333580D01*
X36889158Y-34240338D01*
X36702447Y-34163000D01*
X35902900Y-34163000D01*
X35775900Y-34290000D01*
X35775900Y-35496500D01*
X36982400Y-35496500D01*
X38188900Y-35496500D01*
X38188900Y-35623500D01*
X36982400Y-35623500D01*
X35775900Y-35623500D01*
X35775900Y-35643500D01*
X35648900Y-35643500D01*
X35648900Y-35623500D01*
X35648900Y-35496500D01*
X35648900Y-34290000D01*
X35521900Y-34163000D01*
X34722353Y-34163000D01*
X34535642Y-34240338D01*
X34442400Y-34333580D01*
X34349158Y-34240338D01*
X34162447Y-34163000D01*
X33362900Y-34163000D01*
X33235900Y-34290000D01*
X33235900Y-35496500D01*
X34442400Y-35496500D01*
X35648900Y-35496500D01*
X35648900Y-35623500D01*
X34442400Y-35623500D01*
X33235900Y-35623500D01*
X33235900Y-35643500D01*
X33108900Y-35643500D01*
X33108900Y-35623500D01*
X33108900Y-35496500D01*
X33108900Y-34290000D01*
X32981900Y-34163000D01*
X32182353Y-34163000D01*
X31995642Y-34240338D01*
X31902400Y-34333580D01*
X31809158Y-34240338D01*
X31622447Y-34163000D01*
X30822900Y-34163000D01*
X30695900Y-34290000D01*
X30695900Y-35496500D01*
X31902400Y-35496500D01*
X33108900Y-35496500D01*
X33108900Y-35623500D01*
X31902400Y-35623500D01*
X30695900Y-35623500D01*
X30695900Y-35643500D01*
X30568900Y-35643500D01*
X30568900Y-35623500D01*
X30568900Y-35496500D01*
X30568900Y-34290000D01*
X30441900Y-34163000D01*
X29642353Y-34163000D01*
X29455642Y-34240338D01*
X29362400Y-34333580D01*
X29269158Y-34240338D01*
X29082447Y-34163000D01*
X28282900Y-34163000D01*
X28155900Y-34290000D01*
X28155900Y-35496500D01*
X29362400Y-35496500D01*
X30568900Y-35496500D01*
X30568900Y-35623500D01*
X29362400Y-35623500D01*
X28155900Y-35623500D01*
X28155900Y-35643500D01*
X28028900Y-35643500D01*
X28028900Y-35623500D01*
X28028900Y-35496500D01*
X28028900Y-34290000D01*
X27901900Y-34163000D01*
X27102353Y-34163000D01*
X26915642Y-34240338D01*
X26822400Y-34333580D01*
X26729158Y-34240338D01*
X26542447Y-34163000D01*
X25742900Y-34163000D01*
X25615900Y-34290000D01*
X25615900Y-35496500D01*
X26822400Y-35496500D01*
X28028900Y-35496500D01*
X28028900Y-35623500D01*
X26822400Y-35623500D01*
X25615900Y-35623500D01*
X25615900Y-35643500D01*
X25488900Y-35643500D01*
X25488900Y-35623500D01*
X25488900Y-35496500D01*
X25488900Y-34290000D01*
X25361900Y-34163000D01*
X24562353Y-34163000D01*
X24375642Y-34240338D01*
X24232739Y-34383241D01*
X24155400Y-34569952D01*
X24155400Y-34772047D01*
X24155400Y-35369500D01*
X24282400Y-35496500D01*
X25488900Y-35496500D01*
X25488900Y-35623500D01*
X24282400Y-35623500D01*
X24155400Y-35750500D01*
X24155400Y-36347953D01*
X24155400Y-36550048D01*
X24231966Y-36734894D01*
X24208473Y-36750327D01*
X24066023Y-36961360D01*
X24015960Y-37211000D01*
X24015960Y-38989000D01*
X24062937Y-39231123D01*
X24154164Y-39370000D01*
X23244143Y-39370000D01*
X23055440Y-39242623D01*
X22805800Y-39192560D01*
X22377040Y-39192560D01*
X22377040Y-36775800D01*
X22377040Y-35175800D01*
X22330063Y-34933677D01*
X22190273Y-34720873D01*
X22071587Y-34640758D01*
X22239730Y-34225030D01*
X22235379Y-33704694D01*
X22044625Y-33244176D01*
X21826532Y-33168671D01*
X21736729Y-33258474D01*
X21736729Y-33078868D01*
X21661224Y-32860775D01*
X21178830Y-32665670D01*
X20658494Y-32670021D01*
X20197976Y-32860775D01*
X20122471Y-33078868D01*
X20929600Y-33885997D01*
X21736729Y-33078868D01*
X21736729Y-33258474D01*
X21019403Y-33975800D01*
X21033545Y-33989942D01*
X20943742Y-34079745D01*
X20929600Y-34065603D01*
X20915458Y-34079745D01*
X20825655Y-33989942D01*
X20839797Y-33975800D01*
X20032668Y-33168671D01*
X19814575Y-33244176D01*
X19619470Y-33726570D01*
X19623821Y-34246906D01*
X19787158Y-34641235D01*
X19674673Y-34715127D01*
X19532223Y-34926160D01*
X19482160Y-35175800D01*
X19482160Y-36775800D01*
X19529137Y-37017923D01*
X19668927Y-37230727D01*
X19879960Y-37373177D01*
X20129600Y-37423240D01*
X21729600Y-37423240D01*
X21971723Y-37376263D01*
X22184527Y-37236473D01*
X22326977Y-37025440D01*
X22377040Y-36775800D01*
X22377040Y-39192560D01*
X21205800Y-39192560D01*
X20963677Y-39239537D01*
X20750873Y-39379327D01*
X20670758Y-39498012D01*
X20255030Y-39329870D01*
X19734694Y-39334221D01*
X19274176Y-39524975D01*
X19198671Y-39743068D01*
X20005800Y-40550197D01*
X20019942Y-40536055D01*
X20109745Y-40625858D01*
X20095603Y-40640000D01*
X20109745Y-40654142D01*
X20019942Y-40743945D01*
X20005800Y-40729803D01*
X19915997Y-40819606D01*
X19915997Y-40640000D01*
X19108868Y-39832871D01*
X18890775Y-39908376D01*
X18695670Y-40390770D01*
X18700021Y-40911106D01*
X18890775Y-41371624D01*
X19108868Y-41447129D01*
X19915997Y-40640000D01*
X19915997Y-40819606D01*
X19198671Y-41536932D01*
X19274176Y-41755025D01*
X19756570Y-41950130D01*
X20276906Y-41945779D01*
X20671235Y-41782441D01*
X20745127Y-41894927D01*
X20956160Y-42037377D01*
X21205800Y-42087440D01*
X22805800Y-42087440D01*
X23047923Y-42040463D01*
X23246528Y-41910000D01*
X24154164Y-41910000D01*
X24202727Y-41983927D01*
X24413760Y-42126377D01*
X24663400Y-42176440D01*
X26441400Y-42176440D01*
X26683523Y-42129463D01*
X26822796Y-42037974D01*
X26953760Y-42126377D01*
X27203400Y-42176440D01*
X28981400Y-42176440D01*
X29223523Y-42129463D01*
X29362796Y-42037974D01*
X29493760Y-42126377D01*
X29743400Y-42176440D01*
X31521400Y-42176440D01*
X31763523Y-42129463D01*
X31902796Y-42037974D01*
X32033760Y-42126377D01*
X32283400Y-42176440D01*
X34061400Y-42176440D01*
X34303523Y-42129463D01*
X34442796Y-42037974D01*
X34573760Y-42126377D01*
X34823400Y-42176440D01*
X36601400Y-42176440D01*
X36843523Y-42129463D01*
X36982796Y-42037974D01*
X37113760Y-42126377D01*
X37363400Y-42176440D01*
X39141400Y-42176440D01*
X39383523Y-42129463D01*
X39522796Y-42037974D01*
X39653760Y-42126377D01*
X39903400Y-42176440D01*
X41681400Y-42176440D01*
X41923523Y-42129463D01*
X42062796Y-42037974D01*
X42193760Y-42126377D01*
X42443400Y-42176440D01*
X44221400Y-42176440D01*
X44463523Y-42129463D01*
X44602796Y-42037974D01*
X44733760Y-42126377D01*
X44983400Y-42176440D01*
X46761400Y-42176440D01*
X47003523Y-42129463D01*
X47142796Y-42037974D01*
X47273760Y-42126377D01*
X47523400Y-42176440D01*
X49301400Y-42176440D01*
X49543523Y-42129463D01*
X49682796Y-42037974D01*
X49813760Y-42126377D01*
X50063400Y-42176440D01*
X51841400Y-42176440D01*
X52083523Y-42129463D01*
X52222796Y-42037974D01*
X52353760Y-42126377D01*
X52603400Y-42176440D01*
X54381400Y-42176440D01*
X54623523Y-42129463D01*
X54762796Y-42037974D01*
X54893760Y-42126377D01*
X55143400Y-42176440D01*
X56921400Y-42176440D01*
X57163523Y-42129463D01*
X57302796Y-42037974D01*
X57433760Y-42126377D01*
X57683400Y-42176440D01*
X59461400Y-42176440D01*
X59703523Y-42129463D01*
X59842796Y-42037974D01*
X59973760Y-42126377D01*
X60223400Y-42176440D01*
X62001400Y-42176440D01*
X62243523Y-42129463D01*
X62382796Y-42037974D01*
X62513760Y-42126377D01*
X62763400Y-42176440D01*
X64541400Y-42176440D01*
X64783523Y-42129463D01*
X64996327Y-41989673D01*
X65138777Y-41778640D01*
X65188840Y-41529000D01*
X65188840Y-42983363D01*
X65124968Y-43047235D01*
X65124968Y-42867629D01*
X64933734Y-42550836D01*
X64107897Y-42197402D01*
X63209670Y-42186906D01*
X62375800Y-42520946D01*
X62331066Y-42550836D01*
X62139832Y-42867629D01*
X63632400Y-44360197D01*
X65124968Y-42867629D01*
X65124968Y-43047235D01*
X63722203Y-44450000D01*
X65214771Y-45942568D01*
X65531564Y-45751334D01*
X65884998Y-44925497D01*
X65895494Y-44027270D01*
X65895494Y-50057459D01*
X65672677Y-50280277D01*
X65513349Y-50518728D01*
X65457400Y-50800000D01*
X65457400Y-51997610D01*
X65403372Y-52269224D01*
X65290520Y-52438120D01*
X65176664Y-52514196D01*
X65176664Y-50498188D01*
X64945138Y-49937851D01*
X64537662Y-49529664D01*
X64943631Y-49124404D01*
X65176135Y-48564472D01*
X65176664Y-47958188D01*
X65124968Y-47833073D01*
X65124968Y-46032371D01*
X63632400Y-44539803D01*
X63542597Y-44629606D01*
X63542597Y-44450000D01*
X62050029Y-42957432D01*
X61733236Y-43148666D01*
X61379802Y-43974503D01*
X61369306Y-44872730D01*
X61703346Y-45706600D01*
X61733236Y-45751334D01*
X62050029Y-45942568D01*
X63542597Y-44450000D01*
X63542597Y-44629606D01*
X62139832Y-46032371D01*
X62331066Y-46349164D01*
X63156903Y-46702598D01*
X64055130Y-46713094D01*
X64889000Y-46379054D01*
X64933734Y-46349164D01*
X65124968Y-46032371D01*
X65124968Y-47833073D01*
X64945138Y-47397851D01*
X64516804Y-46968769D01*
X63956872Y-46736265D01*
X63350588Y-46735736D01*
X62790251Y-46967262D01*
X62382064Y-47374737D01*
X61976804Y-46968769D01*
X61416872Y-46736265D01*
X60810588Y-46735736D01*
X60250251Y-46967262D01*
X59842064Y-47374737D01*
X59436804Y-46968769D01*
X58876872Y-46736265D01*
X58270588Y-46735736D01*
X57710251Y-46967262D01*
X57302064Y-47374737D01*
X56896804Y-46968769D01*
X56336872Y-46736265D01*
X55730588Y-46735736D01*
X55170251Y-46967262D01*
X54762064Y-47374737D01*
X54356804Y-46968769D01*
X53796872Y-46736265D01*
X53190588Y-46735736D01*
X52630251Y-46967262D01*
X52446161Y-47151030D01*
X52441863Y-47128877D01*
X52302073Y-46916073D01*
X52091040Y-46773623D01*
X51841400Y-46723560D01*
X50063400Y-46723560D01*
X49821277Y-46770537D01*
X49608473Y-46910327D01*
X49466023Y-47121360D01*
X49415960Y-47371000D01*
X49415960Y-49149000D01*
X49462937Y-49391123D01*
X49554425Y-49530396D01*
X49466023Y-49661360D01*
X49415960Y-49911000D01*
X49415960Y-51689000D01*
X49462937Y-51931123D01*
X49602727Y-52143927D01*
X49813760Y-52286377D01*
X50063400Y-52336440D01*
X51841400Y-52336440D01*
X52083523Y-52289463D01*
X52296327Y-52149673D01*
X52438777Y-51938640D01*
X52444948Y-51907864D01*
X52627996Y-52091231D01*
X53187928Y-52323735D01*
X53794212Y-52324264D01*
X54354549Y-52092738D01*
X54762735Y-51685262D01*
X55167996Y-52091231D01*
X55727928Y-52323735D01*
X56334212Y-52324264D01*
X56894549Y-52092738D01*
X57302735Y-51685262D01*
X57707996Y-52091231D01*
X58267928Y-52323735D01*
X58874212Y-52324264D01*
X59434549Y-52092738D01*
X59842735Y-51685262D01*
X60247996Y-52091231D01*
X60807928Y-52323735D01*
X61414212Y-52324264D01*
X61974549Y-52092738D01*
X62382735Y-51685262D01*
X62787996Y-52091231D01*
X63347928Y-52323735D01*
X63954212Y-52324264D01*
X64514549Y-52092738D01*
X64943631Y-51664404D01*
X65176135Y-51104472D01*
X65176664Y-50498188D01*
X65176664Y-52514196D01*
X65121625Y-52550972D01*
X64835404Y-52607905D01*
X64820800Y-52605000D01*
X47396664Y-52605000D01*
X47396664Y-50498188D01*
X47165138Y-49937851D01*
X46757662Y-49529664D01*
X47163631Y-49124404D01*
X47396135Y-48564472D01*
X47396664Y-47958188D01*
X47165138Y-47397851D01*
X46736804Y-46968769D01*
X46176872Y-46736265D01*
X45570588Y-46735736D01*
X45010251Y-46967262D01*
X44581169Y-47395596D01*
X44534544Y-47507880D01*
X44520917Y-47474982D01*
X44293580Y-47388622D01*
X44203778Y-47478424D01*
X44203778Y-47298820D01*
X44117418Y-47071483D01*
X43602837Y-46861540D01*
X43047083Y-46864500D01*
X42547382Y-47071483D01*
X42461022Y-47298820D01*
X43332400Y-48170197D01*
X44203778Y-47298820D01*
X44203778Y-47478424D01*
X43422203Y-48260000D01*
X44293580Y-49131378D01*
X44520917Y-49045018D01*
X44534269Y-49012290D01*
X44579662Y-49122149D01*
X44987137Y-49530335D01*
X44581169Y-49935596D01*
X44534544Y-50047880D01*
X44520917Y-50014982D01*
X44293580Y-49928622D01*
X44203778Y-50018424D01*
X44203778Y-49838820D01*
X44117418Y-49611483D01*
X43919211Y-49530616D01*
X44117418Y-49448517D01*
X44203778Y-49221180D01*
X43332400Y-48349803D01*
X43242597Y-48439605D01*
X43242597Y-48260000D01*
X42371220Y-47388622D01*
X42143883Y-47474982D01*
X42063016Y-47673188D01*
X41980917Y-47474982D01*
X41753580Y-47388622D01*
X41663778Y-47478424D01*
X41663778Y-47298820D01*
X41577418Y-47071483D01*
X41062837Y-46861540D01*
X40507083Y-46864500D01*
X40007382Y-47071483D01*
X39921022Y-47298820D01*
X40792400Y-48170197D01*
X41663778Y-47298820D01*
X41663778Y-47478424D01*
X40882203Y-48260000D01*
X41753580Y-49131378D01*
X41980917Y-49045018D01*
X42061783Y-48846811D01*
X42143883Y-49045018D01*
X42371220Y-49131378D01*
X43242597Y-48260000D01*
X43242597Y-48439605D01*
X42461022Y-49221180D01*
X42547382Y-49448517D01*
X42745588Y-49529383D01*
X42547382Y-49611483D01*
X42461022Y-49838820D01*
X43332400Y-50710197D01*
X44203778Y-49838820D01*
X44203778Y-50018424D01*
X43422203Y-50800000D01*
X44293580Y-51671378D01*
X44520917Y-51585018D01*
X44534269Y-51552290D01*
X44579662Y-51662149D01*
X45007996Y-52091231D01*
X45567928Y-52323735D01*
X46174212Y-52324264D01*
X46734549Y-52092738D01*
X47163631Y-51664404D01*
X47396135Y-51104472D01*
X47396664Y-50498188D01*
X47396664Y-52605000D01*
X44203778Y-52605000D01*
X44203778Y-51761180D01*
X43332400Y-50889803D01*
X43242597Y-50979605D01*
X43242597Y-50800000D01*
X42371220Y-49928622D01*
X42143883Y-50014982D01*
X42063016Y-50213188D01*
X41980917Y-50014982D01*
X41753580Y-49928622D01*
X41663778Y-50018424D01*
X41663778Y-49838820D01*
X41577418Y-49611483D01*
X41379211Y-49530616D01*
X41577418Y-49448517D01*
X41663778Y-49221180D01*
X40792400Y-48349803D01*
X39921022Y-49221180D01*
X40007382Y-49448517D01*
X40205588Y-49529383D01*
X40007382Y-49611483D01*
X39921022Y-49838820D01*
X40792400Y-50710197D01*
X41663778Y-49838820D01*
X41663778Y-50018424D01*
X40882203Y-50800000D01*
X41753580Y-51671378D01*
X41980917Y-51585018D01*
X42061783Y-51386811D01*
X42143883Y-51585018D01*
X42371220Y-51671378D01*
X43242597Y-50800000D01*
X43242597Y-50979605D01*
X42461022Y-51761180D01*
X42547382Y-51988517D01*
X43061963Y-52198460D01*
X43617717Y-52195500D01*
X44117418Y-51988517D01*
X44203778Y-51761180D01*
X44203778Y-52605000D01*
X41663778Y-52605000D01*
X41663778Y-51761180D01*
X40792400Y-50889803D01*
X40702597Y-50979605D01*
X40702597Y-50800000D01*
X39831220Y-49928622D01*
X39603883Y-50014982D01*
X39590530Y-50047709D01*
X39545138Y-49937851D01*
X39137662Y-49529664D01*
X39543631Y-49124404D01*
X39590255Y-49012119D01*
X39603883Y-49045018D01*
X39831220Y-49131378D01*
X40702597Y-48260000D01*
X39831220Y-47388622D01*
X39603883Y-47474982D01*
X39590530Y-47507709D01*
X39545138Y-47397851D01*
X39116804Y-46968769D01*
X38556872Y-46736265D01*
X37950588Y-46735736D01*
X37390251Y-46967262D01*
X36982064Y-47374737D01*
X36576804Y-46968769D01*
X36016872Y-46736265D01*
X35410588Y-46735736D01*
X34850251Y-46967262D01*
X34442064Y-47374737D01*
X34036804Y-46968769D01*
X33476872Y-46736265D01*
X32870588Y-46735736D01*
X32310251Y-46967262D01*
X31902064Y-47374737D01*
X31496804Y-46968769D01*
X30936872Y-46736265D01*
X30330588Y-46735736D01*
X29770251Y-46967262D01*
X29586161Y-47151030D01*
X29581863Y-47128877D01*
X29442073Y-46916073D01*
X29231040Y-46773623D01*
X28981400Y-46723560D01*
X27203400Y-46723560D01*
X26961277Y-46770537D01*
X26748473Y-46910327D01*
X26606023Y-47121360D01*
X26555960Y-47371000D01*
X26555960Y-49149000D01*
X26602937Y-49391123D01*
X26694425Y-49530396D01*
X26606023Y-49661360D01*
X26555960Y-49911000D01*
X26555960Y-51689000D01*
X26602937Y-51931123D01*
X26742727Y-52143927D01*
X26953760Y-52286377D01*
X27203400Y-52336440D01*
X28981400Y-52336440D01*
X29223523Y-52289463D01*
X29436327Y-52149673D01*
X29578777Y-51938640D01*
X29584948Y-51907864D01*
X29767996Y-52091231D01*
X30327928Y-52323735D01*
X30934212Y-52324264D01*
X31494549Y-52092738D01*
X31902735Y-51685262D01*
X32307996Y-52091231D01*
X32867928Y-52323735D01*
X33474212Y-52324264D01*
X34034549Y-52092738D01*
X34442735Y-51685262D01*
X34847996Y-52091231D01*
X35407928Y-52323735D01*
X36014212Y-52324264D01*
X36574549Y-52092738D01*
X36982735Y-51685262D01*
X37387996Y-52091231D01*
X37947928Y-52323735D01*
X38554212Y-52324264D01*
X39114549Y-52092738D01*
X39543631Y-51664404D01*
X39590255Y-51552119D01*
X39603883Y-51585018D01*
X39831220Y-51671378D01*
X40702597Y-50800000D01*
X40702597Y-50979605D01*
X39921022Y-51761180D01*
X40007382Y-51988517D01*
X40521963Y-52198460D01*
X41077717Y-52195500D01*
X41577418Y-51988517D01*
X41663778Y-51761180D01*
X41663778Y-52605000D01*
X14932087Y-52605000D01*
X14932087Y-46776216D01*
X14768089Y-46379311D01*
X14741400Y-46352575D01*
X14741400Y-44407863D01*
X14767022Y-44382286D01*
X14931713Y-43985668D01*
X14932087Y-43556216D01*
X14822087Y-43289995D01*
X14822087Y-35956216D01*
X14658089Y-35559311D01*
X14354686Y-35255378D01*
X13958068Y-35090687D01*
X13528616Y-35090313D01*
X13131711Y-35254311D01*
X12878024Y-35507555D01*
X12878024Y-29156660D01*
X12681227Y-28680374D01*
X12317143Y-28315654D01*
X12207997Y-28270332D01*
X12315226Y-28226027D01*
X12679946Y-27861943D01*
X12877574Y-27386001D01*
X12878024Y-26870660D01*
X12878024Y-15440660D01*
X12681227Y-14964374D01*
X12317143Y-14599654D01*
X11841201Y-14402026D01*
X11325860Y-14401576D01*
X10849574Y-14598373D01*
X10484854Y-14962457D01*
X10287226Y-15438399D01*
X10286776Y-15953740D01*
X10483573Y-16430026D01*
X10847657Y-16794746D01*
X11118579Y-16907242D01*
X10934545Y-16983472D01*
X10876075Y-17187073D01*
X11582400Y-17893397D01*
X12288725Y-17187073D01*
X12230255Y-16983472D01*
X12042424Y-16908746D01*
X12315226Y-16796027D01*
X12679946Y-16431943D01*
X12877574Y-15956001D01*
X12878024Y-15440660D01*
X12878024Y-26870660D01*
X12753951Y-26570379D01*
X12753951Y-18199160D01*
X12747417Y-17734388D01*
X12582128Y-17335345D01*
X12378527Y-17276875D01*
X11672203Y-17983200D01*
X12378527Y-18689525D01*
X12582128Y-18631055D01*
X12753951Y-18199160D01*
X12753951Y-26570379D01*
X12681227Y-26394374D01*
X12317143Y-26029654D01*
X12288725Y-26017853D01*
X12288725Y-18779327D01*
X11582400Y-18073003D01*
X11492597Y-18162805D01*
X11492597Y-17983200D01*
X10786273Y-17276875D01*
X10582672Y-17335345D01*
X10410849Y-17767240D01*
X10417383Y-18232012D01*
X10582672Y-18631055D01*
X10786273Y-18689525D01*
X11492597Y-17983200D01*
X11492597Y-18162805D01*
X10876075Y-18779327D01*
X10934545Y-18982928D01*
X11366440Y-19154751D01*
X11831212Y-19148217D01*
X12230255Y-18982928D01*
X12288725Y-18779327D01*
X12288725Y-26017853D01*
X11841201Y-25832026D01*
X11325860Y-25831576D01*
X10849574Y-26028373D01*
X10630065Y-26247499D01*
X10630065Y-20842567D01*
X10485361Y-20492357D01*
X10217653Y-20224180D01*
X9867695Y-20078865D01*
X9488767Y-20078535D01*
X9334686Y-20142200D01*
X7927951Y-20142200D01*
X7927951Y-19215160D01*
X7921417Y-18750388D01*
X7756128Y-18351345D01*
X7552527Y-18292875D01*
X7462725Y-18382677D01*
X7462725Y-18203073D01*
X7404255Y-17999472D01*
X6972360Y-17827649D01*
X6507588Y-17834183D01*
X6108545Y-17999472D01*
X6050075Y-18203073D01*
X6756400Y-18909397D01*
X7462725Y-18203073D01*
X7462725Y-18382677D01*
X6846203Y-18999200D01*
X7552527Y-19705525D01*
X7756128Y-19647055D01*
X7927951Y-19215160D01*
X7927951Y-20142200D01*
X7699325Y-20142200D01*
X7491143Y-19933654D01*
X7430260Y-19908373D01*
X7462725Y-19795327D01*
X6756400Y-19089003D01*
X6742257Y-19103144D01*
X6652454Y-19013341D01*
X6666597Y-18999200D01*
X5960273Y-18292875D01*
X5756672Y-18351345D01*
X5584849Y-18783240D01*
X5587899Y-19000212D01*
X5194360Y-18843649D01*
X4729588Y-18850183D01*
X4330545Y-19015472D01*
X4272075Y-19219073D01*
X4978400Y-19925397D01*
X4992542Y-19911255D01*
X5082344Y-20001057D01*
X5068203Y-20015200D01*
X5082344Y-20029342D01*
X4992542Y-20119145D01*
X4978400Y-20105003D01*
X4888597Y-20194805D01*
X4888597Y-20015200D01*
X4182273Y-19308875D01*
X3978672Y-19367345D01*
X3806849Y-19799240D01*
X3813383Y-20264012D01*
X3978672Y-20663055D01*
X4182273Y-20721525D01*
X4888597Y-20015200D01*
X4888597Y-20194805D01*
X4272075Y-20811327D01*
X4304446Y-20924047D01*
X4245574Y-20948373D01*
X3880854Y-21312457D01*
X3683226Y-21788399D01*
X3682776Y-22303740D01*
X3879573Y-22780026D01*
X4162427Y-23063374D01*
X3880854Y-23344457D01*
X3683226Y-23820399D01*
X3682776Y-24335740D01*
X3879573Y-24812026D01*
X4162427Y-25095374D01*
X3880854Y-25376457D01*
X3683226Y-25852399D01*
X3682776Y-26367740D01*
X3879573Y-26844026D01*
X4243657Y-27208746D01*
X4719599Y-27406374D01*
X5234940Y-27406824D01*
X5711226Y-27210027D01*
X6075946Y-26845943D01*
X6273574Y-26370001D01*
X6273637Y-26297377D01*
X6497599Y-26390374D01*
X7012940Y-26390824D01*
X7489226Y-26194027D01*
X7853946Y-25829943D01*
X8051574Y-25354001D01*
X8052024Y-24838660D01*
X7855227Y-24362374D01*
X7572372Y-24079025D01*
X7853946Y-23797943D01*
X8051574Y-23322001D01*
X8052024Y-22806660D01*
X7855227Y-22330374D01*
X7572372Y-22047025D01*
X7699419Y-21920200D01*
X9334577Y-21920200D01*
X9487105Y-21983535D01*
X9866033Y-21983865D01*
X10216243Y-21839161D01*
X10484420Y-21571453D01*
X10629735Y-21221495D01*
X10630065Y-20842567D01*
X10630065Y-26247499D01*
X10484854Y-26392457D01*
X10287226Y-26868399D01*
X10286776Y-27383740D01*
X10483573Y-27860026D01*
X10847657Y-28224746D01*
X10956802Y-28270067D01*
X10849574Y-28314373D01*
X10484854Y-28678457D01*
X10287226Y-29154399D01*
X10286776Y-29669740D01*
X10483573Y-30146026D01*
X10847657Y-30510746D01*
X11323599Y-30708374D01*
X11838940Y-30708824D01*
X12315226Y-30512027D01*
X12679946Y-30147943D01*
X12877574Y-29672001D01*
X12878024Y-29156660D01*
X12878024Y-35507555D01*
X12827778Y-35557714D01*
X12663087Y-35954332D01*
X12662713Y-36383784D01*
X12826711Y-36780689D01*
X13130114Y-37084622D01*
X13526732Y-37249313D01*
X13956184Y-37249687D01*
X14353089Y-37085689D01*
X14657022Y-36782286D01*
X14821713Y-36385668D01*
X14822087Y-35956216D01*
X14822087Y-43289995D01*
X14768089Y-43159311D01*
X14464686Y-42855378D01*
X14068068Y-42690687D01*
X13638616Y-42690313D01*
X13241711Y-42854311D01*
X12937778Y-43157714D01*
X12878024Y-43301616D01*
X12878024Y-37589460D01*
X12681227Y-37113174D01*
X12317143Y-36748454D01*
X11841201Y-36550826D01*
X11325860Y-36550376D01*
X10849574Y-36747173D01*
X10484854Y-37111257D01*
X10287226Y-37587199D01*
X10286776Y-38102540D01*
X10483573Y-38578826D01*
X10847657Y-38943546D01*
X11118579Y-39056042D01*
X10934545Y-39132272D01*
X10876075Y-39335873D01*
X11582400Y-40042197D01*
X12288725Y-39335873D01*
X12230255Y-39132272D01*
X12042424Y-39057546D01*
X12315226Y-38944827D01*
X12679946Y-38580743D01*
X12877574Y-38104801D01*
X12878024Y-37589460D01*
X12878024Y-43301616D01*
X12773087Y-43554332D01*
X12772713Y-43983784D01*
X12936711Y-44380689D01*
X12963400Y-44407424D01*
X12963400Y-46352136D01*
X12937778Y-46377714D01*
X12773087Y-46774332D01*
X12772713Y-47203784D01*
X12936711Y-47600689D01*
X13240114Y-47904622D01*
X13636732Y-48069313D01*
X14066184Y-48069687D01*
X14463089Y-47905689D01*
X14767022Y-47602286D01*
X14931713Y-47205668D01*
X14932087Y-46776216D01*
X14932087Y-52605000D01*
X12371150Y-52605000D01*
X12679946Y-52296743D01*
X12877574Y-51820801D01*
X12878024Y-51305460D01*
X12681227Y-50829174D01*
X12317143Y-50464454D01*
X12207997Y-50419132D01*
X12315226Y-50374827D01*
X12679946Y-50010743D01*
X12877574Y-49534801D01*
X12878024Y-49019460D01*
X12753951Y-48719179D01*
X12753951Y-40347960D01*
X12747417Y-39883188D01*
X12582128Y-39484145D01*
X12378527Y-39425675D01*
X11672203Y-40132000D01*
X12378527Y-40838325D01*
X12582128Y-40779855D01*
X12753951Y-40347960D01*
X12753951Y-48719179D01*
X12681227Y-48543174D01*
X12317143Y-48178454D01*
X12288725Y-48166653D01*
X12288725Y-40928127D01*
X11582400Y-40221803D01*
X11492597Y-40311605D01*
X11492597Y-40132000D01*
X10786273Y-39425675D01*
X10582672Y-39484145D01*
X10410849Y-39916040D01*
X10417383Y-40380812D01*
X10582672Y-40779855D01*
X10786273Y-40838325D01*
X11492597Y-40132000D01*
X11492597Y-40311605D01*
X10876075Y-40928127D01*
X10934545Y-41131728D01*
X11366440Y-41303551D01*
X11831212Y-41297017D01*
X12230255Y-41131728D01*
X12288725Y-40928127D01*
X12288725Y-48166653D01*
X11841201Y-47980826D01*
X11542087Y-47980564D01*
X11542087Y-46626216D01*
X11378089Y-46229311D01*
X11351400Y-46202575D01*
X11351400Y-44617863D01*
X11377022Y-44592286D01*
X11541713Y-44195668D01*
X11542087Y-43766216D01*
X11378089Y-43369311D01*
X11074686Y-43065378D01*
X10678068Y-42900687D01*
X10248616Y-42900313D01*
X10202696Y-42919286D01*
X10058089Y-42569311D01*
X9754686Y-42265378D01*
X9358068Y-42100687D01*
X8928616Y-42100313D01*
X8531711Y-42264311D01*
X8504975Y-42291000D01*
X7927951Y-42291000D01*
X7927951Y-41363960D01*
X7921417Y-40899188D01*
X7756128Y-40500145D01*
X7552527Y-40441675D01*
X7462725Y-40531477D01*
X7462725Y-40351873D01*
X7404255Y-40148272D01*
X6972360Y-39976449D01*
X6507588Y-39982983D01*
X6121040Y-40143096D01*
X6121040Y-33429600D01*
X6121040Y-31829600D01*
X6074063Y-31587477D01*
X5934273Y-31374673D01*
X5723240Y-31232223D01*
X5473600Y-31182160D01*
X3873600Y-31182160D01*
X3631477Y-31229137D01*
X3418673Y-31368927D01*
X3276223Y-31579960D01*
X3226160Y-31829600D01*
X3226160Y-33429600D01*
X3273137Y-33671723D01*
X3412927Y-33884527D01*
X3531612Y-33964641D01*
X3363470Y-34380370D01*
X3367821Y-34900706D01*
X3558575Y-35361224D01*
X3776668Y-35436729D01*
X4583797Y-34629600D01*
X4569655Y-34615458D01*
X4659458Y-34525655D01*
X4673600Y-34539797D01*
X4687742Y-34525655D01*
X4777545Y-34615458D01*
X4763403Y-34629600D01*
X5570532Y-35436729D01*
X5788625Y-35361224D01*
X5983730Y-34878830D01*
X5979379Y-34358494D01*
X5816041Y-33964164D01*
X5928527Y-33890273D01*
X6070977Y-33679240D01*
X6121040Y-33429600D01*
X6121040Y-40143096D01*
X6108545Y-40148272D01*
X6050075Y-40351873D01*
X6756400Y-41058197D01*
X7462725Y-40351873D01*
X7462725Y-40531477D01*
X6846203Y-41148000D01*
X7552527Y-41854325D01*
X7756128Y-41795855D01*
X7927951Y-41363960D01*
X7927951Y-42291000D01*
X7699325Y-42291000D01*
X7491143Y-42082454D01*
X7430260Y-42057173D01*
X7462725Y-41944127D01*
X6756400Y-41237803D01*
X6742257Y-41251944D01*
X6652454Y-41162141D01*
X6666597Y-41148000D01*
X5960273Y-40441675D01*
X5756672Y-40500145D01*
X5584849Y-40932040D01*
X5587899Y-41149012D01*
X5480729Y-41106376D01*
X5480729Y-35526532D01*
X4673600Y-34719403D01*
X3866471Y-35526532D01*
X3941976Y-35744625D01*
X4424370Y-35939730D01*
X4944706Y-35935379D01*
X5405224Y-35744625D01*
X5480729Y-35526532D01*
X5480729Y-41106376D01*
X5194360Y-40992449D01*
X4729588Y-40998983D01*
X4330545Y-41164272D01*
X4272075Y-41367873D01*
X4978400Y-42074197D01*
X4992542Y-42060055D01*
X5082344Y-42149857D01*
X5068203Y-42164000D01*
X5082344Y-42178142D01*
X4992542Y-42267945D01*
X4978400Y-42253803D01*
X4888597Y-42343605D01*
X4888597Y-42164000D01*
X4182273Y-41457675D01*
X3978672Y-41516145D01*
X3806849Y-41948040D01*
X3813383Y-42412812D01*
X3978672Y-42811855D01*
X4182273Y-42870325D01*
X4888597Y-42164000D01*
X4888597Y-42343605D01*
X4272075Y-42960127D01*
X4304446Y-43072847D01*
X4245574Y-43097173D01*
X3880854Y-43461257D01*
X3683226Y-43937199D01*
X3682776Y-44452540D01*
X3879573Y-44928826D01*
X4162427Y-45212174D01*
X3880854Y-45493257D01*
X3683226Y-45969199D01*
X3682776Y-46484540D01*
X3879573Y-46960826D01*
X4162427Y-47244174D01*
X3880854Y-47525257D01*
X3683226Y-48001199D01*
X3682776Y-48516540D01*
X3879573Y-48992826D01*
X4243657Y-49357546D01*
X4719599Y-49555174D01*
X5234940Y-49555624D01*
X5711226Y-49358827D01*
X6075946Y-48994743D01*
X6273574Y-48518801D01*
X6273637Y-48446177D01*
X6497599Y-48539174D01*
X7012940Y-48539624D01*
X7489226Y-48342827D01*
X7853946Y-47978743D01*
X8051574Y-47502801D01*
X8052024Y-46987460D01*
X7855227Y-46511174D01*
X7572372Y-46227825D01*
X7853946Y-45946743D01*
X8051574Y-45470801D01*
X8052024Y-44955460D01*
X7855227Y-44479174D01*
X7572372Y-44195825D01*
X7699419Y-44069000D01*
X8504536Y-44069000D01*
X8530114Y-44094622D01*
X8926732Y-44259313D01*
X9356184Y-44259687D01*
X9402103Y-44240713D01*
X9546711Y-44590689D01*
X9573400Y-44617424D01*
X9573400Y-46202136D01*
X9547778Y-46227714D01*
X9383087Y-46624332D01*
X9382713Y-47053784D01*
X9546711Y-47450689D01*
X9850114Y-47754622D01*
X10246732Y-47919313D01*
X10676184Y-47919687D01*
X11073089Y-47755689D01*
X11377022Y-47452286D01*
X11541713Y-47055668D01*
X11542087Y-46626216D01*
X11542087Y-47980564D01*
X11325860Y-47980376D01*
X10849574Y-48177173D01*
X10484854Y-48541257D01*
X10287226Y-49017199D01*
X10286776Y-49532540D01*
X10483573Y-50008826D01*
X10847657Y-50373546D01*
X10956802Y-50418867D01*
X10849574Y-50463173D01*
X10484854Y-50827257D01*
X10287226Y-51303199D01*
X10286776Y-51818540D01*
X10483573Y-52294826D01*
X10793206Y-52605000D01*
X4084455Y-52605000D01*
X4353726Y-52336199D01*
X4698607Y-51505634D01*
X4699392Y-50606312D01*
X4355961Y-49775146D01*
X3720599Y-49138674D01*
X2890034Y-48793793D01*
X1990712Y-48793008D01*
X1159546Y-49136439D01*
X735000Y-49560244D01*
X735000Y-39847389D01*
X1156201Y-40269326D01*
X1986766Y-40614207D01*
X2886088Y-40614992D01*
X3717254Y-40271561D01*
X4353726Y-39636199D01*
X4698607Y-38805634D01*
X4699392Y-37906312D01*
X4355961Y-37075146D01*
X3720599Y-36438674D01*
X2890034Y-36093793D01*
X1990712Y-36093008D01*
X1159546Y-36436439D01*
X735000Y-36860244D01*
X735000Y-30398589D01*
X1156201Y-30820526D01*
X1986766Y-31165407D01*
X2886088Y-31166192D01*
X3717254Y-30822761D01*
X4353726Y-30187399D01*
X4698607Y-29356834D01*
X4699392Y-28457512D01*
X4355961Y-27626346D01*
X3720599Y-26989874D01*
X2890034Y-26644993D01*
X1990712Y-26644208D01*
X1159546Y-26987639D01*
X735000Y-27411444D01*
X735000Y-17698589D01*
X1156201Y-18120526D01*
X1986766Y-18465407D01*
X2886088Y-18466192D01*
X3717254Y-18122761D01*
X4353726Y-17487399D01*
X4698607Y-16656834D01*
X4699392Y-15757512D01*
X4355961Y-14926346D01*
X3720599Y-14289874D01*
X2890034Y-13944993D01*
X1990712Y-13944208D01*
X1159546Y-14287639D01*
X735000Y-14711444D01*
X735000Y-1342390D01*
X789027Y-1070774D01*
X901879Y-901879D01*
X1070775Y-789027D01*
X1342389Y-735000D01*
X64850009Y-735000D01*
X65121625Y-789027D01*
X65290520Y-901879D01*
X65403372Y-1070775D01*
X65457400Y-1342389D01*
X65457400Y-12700000D01*
X65513349Y-12981272D01*
X65672677Y-13219723D01*
X67997400Y-15544446D01*
X67997400Y-47955553D01*
X67997400Y-47955553D01*
G37*
X67997400Y-47955553D02*
X65895494Y-50057459D01*
X65895494Y-44027270D01*
X65561454Y-43193400D01*
X65531564Y-43148666D01*
X65214771Y-42957432D01*
X65188840Y-42983363D01*
X65188840Y-41529000D01*
X65188840Y-39751000D01*
X65141863Y-39508877D01*
X65050374Y-39369603D01*
X65138777Y-39238640D01*
X65188840Y-38989000D01*
X65188840Y-37211000D01*
X65188840Y-32639000D01*
X65188840Y-30861000D01*
X65141863Y-30618877D01*
X65050374Y-30479603D01*
X65138777Y-30348640D01*
X65188840Y-30099000D01*
X65188840Y-28321000D01*
X65141863Y-28078877D01*
X65050374Y-27939603D01*
X65138777Y-27808640D01*
X65188840Y-27559000D01*
X65188840Y-25781000D01*
X65141863Y-25538877D01*
X65050374Y-25399603D01*
X65138777Y-25268640D01*
X65188840Y-25019000D01*
X65188840Y-23241000D01*
X65141863Y-22998877D01*
X65050374Y-22859603D01*
X65138777Y-22728640D01*
X65188840Y-22479000D01*
X65188840Y-20701000D01*
X65141863Y-20458877D01*
X65050374Y-20319603D01*
X65138777Y-20188640D01*
X65188840Y-19939000D01*
X65188840Y-18161000D01*
X65141863Y-17918877D01*
X65050374Y-17779603D01*
X65138777Y-17648640D01*
X65188840Y-17399000D01*
X65188840Y-15621000D01*
X65141863Y-15378877D01*
X65050374Y-15239603D01*
X65138777Y-15108640D01*
X65188840Y-14859000D01*
X65188840Y-13081000D01*
X65141863Y-12838877D01*
X65002073Y-12626073D01*
X64791040Y-12483623D01*
X64541400Y-12433560D01*
X63984958Y-12433560D01*
X64514549Y-12214738D01*
X64943631Y-11786404D01*
X65176135Y-11226472D01*
X65176664Y-10620188D01*
X64945138Y-10059851D01*
X64537662Y-9651664D01*
X64943631Y-9246404D01*
X65176135Y-8686472D01*
X65176664Y-8080188D01*
X64945138Y-7519851D01*
X64516804Y-7090769D01*
X63956872Y-6858265D01*
X63350588Y-6857736D01*
X62790251Y-7089262D01*
X62382064Y-7496737D01*
X61976804Y-7090769D01*
X61416872Y-6858265D01*
X60810588Y-6857736D01*
X60250251Y-7089262D01*
X59842064Y-7496737D01*
X59436804Y-7090769D01*
X58876872Y-6858265D01*
X58270588Y-6857736D01*
X57710251Y-7089262D01*
X57281169Y-7517596D01*
X57048665Y-8077528D01*
X57048484Y-8284532D01*
X54745960Y-5982008D01*
X54762735Y-5965262D01*
X55167996Y-6371231D01*
X55727928Y-6603735D01*
X56334212Y-6604264D01*
X56894549Y-6372738D01*
X57302735Y-5965262D01*
X57707996Y-6371231D01*
X58267928Y-6603735D01*
X58874212Y-6604264D01*
X59434549Y-6372738D01*
X59842735Y-5965262D01*
X60247996Y-6371231D01*
X60807928Y-6603735D01*
X61414212Y-6604264D01*
X61974549Y-6372738D01*
X62158638Y-6188969D01*
X62162937Y-6211123D01*
X62302727Y-6423927D01*
X62513760Y-6566377D01*
X62763400Y-6616440D01*
X64541400Y-6616440D01*
X64783523Y-6569463D01*
X64996327Y-6429673D01*
X65138777Y-6218640D01*
X65188840Y-5969000D01*
X65188840Y-4191000D01*
X65141863Y-3948877D01*
X65050374Y-3809603D01*
X65138777Y-3678640D01*
X65188840Y-3429000D01*
X65188840Y-1651000D01*
X65141863Y-1408877D01*
X65002073Y-1196073D01*
X64791040Y-1053623D01*
X64541400Y-1003560D01*
X62763400Y-1003560D01*
X62521277Y-1050537D01*
X62308473Y-1190327D01*
X62166023Y-1401360D01*
X62159851Y-1432135D01*
X61976804Y-1248769D01*
X61416872Y-1016265D01*
X60810588Y-1015736D01*
X60250251Y-1247262D01*
X59842064Y-1654737D01*
X59436804Y-1248769D01*
X58876872Y-1016265D01*
X58270588Y-1015736D01*
X57710251Y-1247262D01*
X57302064Y-1654737D01*
X56896804Y-1248769D01*
X56336872Y-1016265D01*
X55730588Y-1015736D01*
X55170251Y-1247262D01*
X54762064Y-1654737D01*
X54356804Y-1248769D01*
X53796872Y-1016265D01*
X53190588Y-1015736D01*
X52630251Y-1247262D01*
X52222064Y-1654737D01*
X51816804Y-1248769D01*
X51256872Y-1016265D01*
X50650588Y-1015736D01*
X50090251Y-1247262D01*
X49682064Y-1654737D01*
X49276804Y-1248769D01*
X48716872Y-1016265D01*
X48110588Y-1015736D01*
X47550251Y-1247262D01*
X47142064Y-1654737D01*
X46736804Y-1248769D01*
X46176872Y-1016265D01*
X45570588Y-1015736D01*
X45010251Y-1247262D01*
X44581169Y-1675596D01*
X44348665Y-2235528D01*
X44348136Y-2841812D01*
X44579662Y-3402149D01*
X44987137Y-3810335D01*
X44581169Y-4215596D01*
X44348665Y-4775528D01*
X44348136Y-5381812D01*
X44579662Y-5942149D01*
X45007996Y-6371231D01*
X45567928Y-6603735D01*
X46174212Y-6604264D01*
X46734549Y-6372738D01*
X47142735Y-5965262D01*
X47547996Y-6371231D01*
X48107928Y-6603735D01*
X48714212Y-6604264D01*
X49274549Y-6372738D01*
X49682735Y-5965262D01*
X50087996Y-6371231D01*
X50647928Y-6603735D01*
X51254212Y-6604264D01*
X51814549Y-6372738D01*
X52222735Y-5965262D01*
X52627996Y-6371231D01*
X53106963Y-6570115D01*
X57035960Y-10499112D01*
X57035960Y-11811000D01*
X57082937Y-12053123D01*
X57222727Y-12265927D01*
X57433760Y-12408377D01*
X57620342Y-12445794D01*
X57441277Y-12480537D01*
X57302003Y-12572025D01*
X57171040Y-12483623D01*
X56921400Y-12433560D01*
X55143400Y-12433560D01*
X54901277Y-12480537D01*
X54762003Y-12572025D01*
X54631040Y-12483623D01*
X54381400Y-12433560D01*
X52603400Y-12433560D01*
X52361277Y-12480537D01*
X52222003Y-12572025D01*
X52091040Y-12483623D01*
X51841400Y-12433560D01*
X50063400Y-12433560D01*
X49821277Y-12480537D01*
X49682003Y-12572025D01*
X49551040Y-12483623D01*
X49301400Y-12433560D01*
X47523400Y-12433560D01*
X47281277Y-12480537D01*
X47142003Y-12572025D01*
X47011040Y-12483623D01*
X46761400Y-12433560D01*
X44983400Y-12433560D01*
X44741277Y-12480537D01*
X44602003Y-12572025D01*
X44471040Y-12483623D01*
X44221400Y-12433560D01*
X43344840Y-12433560D01*
X43344840Y-5969000D01*
X43344840Y-4191000D01*
X43297863Y-3948877D01*
X43206374Y-3809603D01*
X43294777Y-3678640D01*
X43344840Y-3429000D01*
X43344840Y-1651000D01*
X43297863Y-1408877D01*
X43158073Y-1196073D01*
X42947040Y-1053623D01*
X42697400Y-1003560D01*
X40919400Y-1003560D01*
X40677277Y-1050537D01*
X40464473Y-1190327D01*
X40322023Y-1401360D01*
X40315851Y-1432135D01*
X40132804Y-1248769D01*
X39572872Y-1016265D01*
X38966588Y-1015736D01*
X38406251Y-1247262D01*
X37998064Y-1654737D01*
X37592804Y-1248769D01*
X37032872Y-1016265D01*
X36426588Y-1015736D01*
X35866251Y-1247262D01*
X35458064Y-1654737D01*
X35052804Y-1248769D01*
X34492872Y-1016265D01*
X33886588Y-1015736D01*
X33326251Y-1247262D01*
X32918064Y-1654737D01*
X32512804Y-1248769D01*
X31952872Y-1016265D01*
X31346588Y-1015736D01*
X30786251Y-1247262D01*
X30378064Y-1654737D01*
X29972804Y-1248769D01*
X29412872Y-1016265D01*
X28806588Y-1015736D01*
X28246251Y-1247262D01*
X27817169Y-1675596D01*
X27770544Y-1787880D01*
X27756917Y-1754982D01*
X27529580Y-1668622D01*
X27439778Y-1758424D01*
X27439778Y-1578820D01*
X27353418Y-1351483D01*
X26838837Y-1141540D01*
X26283083Y-1144500D01*
X25783382Y-1351483D01*
X25697022Y-1578820D01*
X26568400Y-2450197D01*
X27439778Y-1578820D01*
X27439778Y-1758424D01*
X26658203Y-2540000D01*
X27529580Y-3411378D01*
X27756917Y-3325018D01*
X27770269Y-3292290D01*
X27815662Y-3402149D01*
X28223137Y-3810335D01*
X27817169Y-4215596D01*
X27770544Y-4327880D01*
X27756917Y-4294982D01*
X27529580Y-4208622D01*
X27439778Y-4298424D01*
X27439778Y-4118820D01*
X27353418Y-3891483D01*
X27155211Y-3810616D01*
X27353418Y-3728517D01*
X27439778Y-3501180D01*
X26568400Y-2629803D01*
X25697022Y-3501180D01*
X25783382Y-3728517D01*
X25981588Y-3809383D01*
X25783382Y-3891483D01*
X25697022Y-4118820D01*
X26568400Y-4990197D01*
X27439778Y-4118820D01*
X27439778Y-4298424D01*
X26658203Y-5080000D01*
X27529580Y-5951378D01*
X27756917Y-5865018D01*
X27770269Y-5832290D01*
X27815662Y-5942149D01*
X28243996Y-6371231D01*
X28803928Y-6603735D01*
X29410212Y-6604264D01*
X29970549Y-6372738D01*
X30378735Y-5965262D01*
X30783996Y-6371231D01*
X31343928Y-6603735D01*
X31950212Y-6604264D01*
X32510549Y-6372738D01*
X32918735Y-5965262D01*
X33323996Y-6371231D01*
X33883928Y-6603735D01*
X34490212Y-6604264D01*
X35050549Y-6372738D01*
X35458735Y-5965262D01*
X35863996Y-6371231D01*
X36423928Y-6603735D01*
X37030212Y-6604264D01*
X37590549Y-6372738D01*
X37998735Y-5965262D01*
X38403996Y-6371231D01*
X38963928Y-6603735D01*
X39570212Y-6604264D01*
X40130549Y-6372738D01*
X40314638Y-6188969D01*
X40318937Y-6211123D01*
X40458727Y-6423927D01*
X40669760Y-6566377D01*
X40919400Y-6616440D01*
X42697400Y-6616440D01*
X42939523Y-6569463D01*
X43152327Y-6429673D01*
X43294777Y-6218640D01*
X43344840Y-5969000D01*
X43344840Y-12433560D01*
X42443400Y-12433560D01*
X42201277Y-12480537D01*
X42062003Y-12572025D01*
X41931040Y-12483623D01*
X41681400Y-12433560D01*
X39903400Y-12433560D01*
X39661277Y-12480537D01*
X39522003Y-12572025D01*
X39391040Y-12483623D01*
X39141400Y-12433560D01*
X37363400Y-12433560D01*
X37121277Y-12480537D01*
X36982003Y-12572025D01*
X36851040Y-12483623D01*
X36601400Y-12433560D01*
X34823400Y-12433560D01*
X34581277Y-12480537D01*
X34442003Y-12572025D01*
X34311040Y-12483623D01*
X34061400Y-12433560D01*
X32283400Y-12433560D01*
X32041277Y-12480537D01*
X31962087Y-12532556D01*
X31962087Y-10756216D01*
X31798089Y-10359311D01*
X31669800Y-10230797D01*
X31669800Y-9569286D01*
X31797022Y-9442286D01*
X31961713Y-9045668D01*
X31962087Y-8616216D01*
X31798089Y-8219311D01*
X31494686Y-7915378D01*
X31098068Y-7750687D01*
X30668616Y-7750313D01*
X30271711Y-7914311D01*
X29967778Y-8217714D01*
X29803087Y-8614332D01*
X29802713Y-9043784D01*
X29966711Y-9440689D01*
X30095000Y-9569202D01*
X30095000Y-10230713D01*
X29967778Y-10357714D01*
X29803087Y-10754332D01*
X29802713Y-11183784D01*
X29966711Y-11580689D01*
X30270114Y-11884622D01*
X30666732Y-12049313D01*
X31096184Y-12049687D01*
X31493089Y-11885689D01*
X31797022Y-11582286D01*
X31961713Y-11185668D01*
X31962087Y-10756216D01*
X31962087Y-12532556D01*
X31902003Y-12572025D01*
X31771040Y-12483623D01*
X31521400Y-12433560D01*
X29743400Y-12433560D01*
X29501277Y-12480537D01*
X29362003Y-12572025D01*
X29231040Y-12483623D01*
X28981400Y-12433560D01*
X27439778Y-12433560D01*
X27439778Y-6041180D01*
X26568400Y-5169803D01*
X25697022Y-6041180D01*
X25783382Y-6268517D01*
X26297963Y-6478460D01*
X26853717Y-6475500D01*
X27353418Y-6268517D01*
X27439778Y-6041180D01*
X27439778Y-12433560D01*
X27203400Y-12433560D01*
X27056664Y-12462029D01*
X27056664Y-7818188D01*
X26825138Y-7257851D01*
X26396804Y-6828769D01*
X25836872Y-6596265D01*
X25230588Y-6595736D01*
X24670251Y-6827262D01*
X24486161Y-7011030D01*
X24481863Y-6988877D01*
X24342073Y-6776073D01*
X24131040Y-6633623D01*
X23983130Y-6603961D01*
X24330212Y-6604264D01*
X24890549Y-6372738D01*
X25319631Y-5944404D01*
X25366255Y-5832119D01*
X25379883Y-5865018D01*
X25607220Y-5951378D01*
X26478597Y-5080000D01*
X25607220Y-4208622D01*
X25379883Y-4294982D01*
X25366530Y-4327709D01*
X25321138Y-4217851D01*
X24913662Y-3809664D01*
X25319631Y-3404404D01*
X25366255Y-3292119D01*
X25379883Y-3325018D01*
X25607220Y-3411378D01*
X26478597Y-2540000D01*
X25607220Y-1668622D01*
X25379883Y-1754982D01*
X25366530Y-1787709D01*
X25321138Y-1677851D01*
X24892804Y-1248769D01*
X24332872Y-1016265D01*
X23726588Y-1015736D01*
X23166251Y-1247262D01*
X22758064Y-1654737D01*
X22352804Y-1248769D01*
X21792872Y-1016265D01*
X21186588Y-1015736D01*
X20626251Y-1247262D01*
X20218064Y-1654737D01*
X19812804Y-1248769D01*
X19252872Y-1016265D01*
X18646588Y-1015736D01*
X18086251Y-1247262D01*
X17657169Y-1675596D01*
X17424665Y-2235528D01*
X17424136Y-2841812D01*
X17655662Y-3402149D01*
X18063137Y-3810335D01*
X17657169Y-4215596D01*
X17629757Y-4281611D01*
X17259068Y-4127687D01*
X16829616Y-4127313D01*
X16432711Y-4291311D01*
X16128778Y-4594714D01*
X16085474Y-4699000D01*
X14624400Y-4699000D01*
X14284195Y-4766670D01*
X13995782Y-4959382D01*
X13289798Y-5665365D01*
X12994993Y-5724006D01*
X12624177Y-5971777D01*
X12376406Y-6342593D01*
X12289400Y-6780000D01*
X12289400Y-7130000D01*
X12376406Y-7567407D01*
X12624177Y-7938223D01*
X16174177Y-11488223D01*
X16544993Y-11735994D01*
X16982400Y-11823000D01*
X17419807Y-11735994D01*
X17790623Y-11488223D01*
X18038394Y-11117407D01*
X18125400Y-10680000D01*
X18038394Y-10242593D01*
X17790623Y-9871777D01*
X14694241Y-6775395D01*
X14992636Y-6477000D01*
X16662400Y-6477000D01*
X17002605Y-6409329D01*
X17002606Y-6409329D01*
X17186244Y-6286625D01*
X17257184Y-6286687D01*
X17654089Y-6122689D01*
X17745146Y-6031790D01*
X18083996Y-6371231D01*
X18643928Y-6603735D01*
X19250212Y-6604264D01*
X19810549Y-6372738D01*
X20218735Y-5965262D01*
X20623996Y-6371231D01*
X21183928Y-6603735D01*
X21790212Y-6604264D01*
X22350549Y-6372738D01*
X22758735Y-5965262D01*
X23163996Y-6371231D01*
X23675341Y-6583560D01*
X22103400Y-6583560D01*
X21861277Y-6630537D01*
X21648473Y-6770327D01*
X21506023Y-6981360D01*
X21455960Y-7231000D01*
X21455960Y-9009000D01*
X21502937Y-9251123D01*
X21642727Y-9463927D01*
X21853760Y-9606377D01*
X22103400Y-9656440D01*
X23881400Y-9656440D01*
X24123523Y-9609463D01*
X24336327Y-9469673D01*
X24478777Y-9258640D01*
X24484948Y-9227864D01*
X24667996Y-9411231D01*
X25227928Y-9643735D01*
X25834212Y-9644264D01*
X26394549Y-9412738D01*
X26823631Y-8984404D01*
X27056135Y-8424472D01*
X27056664Y-7818188D01*
X27056664Y-12462029D01*
X26961277Y-12480537D01*
X26822003Y-12572025D01*
X26691040Y-12483623D01*
X26441400Y-12433560D01*
X24663400Y-12433560D01*
X24421277Y-12480537D01*
X24208473Y-12620327D01*
X24066023Y-12831360D01*
X24015960Y-13081000D01*
X24015960Y-14859000D01*
X24062937Y-15101123D01*
X24154425Y-15240396D01*
X24066023Y-15371360D01*
X24015960Y-15621000D01*
X24015960Y-17399000D01*
X24062937Y-17641123D01*
X24154425Y-17780396D01*
X24066023Y-17911360D01*
X24015960Y-18161000D01*
X24015960Y-19939000D01*
X24062937Y-20181123D01*
X24154425Y-20320396D01*
X24066023Y-20451360D01*
X24015960Y-20701000D01*
X24015960Y-21324383D01*
X23718068Y-21200687D01*
X23288616Y-21200313D01*
X22891711Y-21364311D01*
X22763197Y-21492600D01*
X20301686Y-21492600D01*
X20174686Y-21365378D01*
X19778068Y-21200687D01*
X19348616Y-21200313D01*
X18951711Y-21364311D01*
X18647778Y-21667714D01*
X18483087Y-22064332D01*
X18482713Y-22493784D01*
X18646711Y-22890689D01*
X18950114Y-23194622D01*
X19346732Y-23359313D01*
X19776184Y-23359687D01*
X20173089Y-23195689D01*
X20301602Y-23067400D01*
X22763113Y-23067400D01*
X22890114Y-23194622D01*
X23286732Y-23359313D01*
X23716184Y-23359687D01*
X24017092Y-23235354D01*
X24015960Y-23241000D01*
X24015960Y-25019000D01*
X24062937Y-25261123D01*
X24154425Y-25400396D01*
X24066023Y-25531360D01*
X24015960Y-25781000D01*
X24015960Y-27559000D01*
X24062937Y-27801123D01*
X24154425Y-27940396D01*
X24066023Y-28071360D01*
X24015960Y-28321000D01*
X24015960Y-30099000D01*
X24062937Y-30341123D01*
X24154425Y-30480396D01*
X24066023Y-30611360D01*
X24015960Y-30861000D01*
X24015960Y-32639000D01*
X24062937Y-32881123D01*
X24202727Y-33093927D01*
X24413760Y-33236377D01*
X24663400Y-33286440D01*
X26441400Y-33286440D01*
X26683523Y-33239463D01*
X26822796Y-33147974D01*
X26953760Y-33236377D01*
X27203400Y-33286440D01*
X28981400Y-33286440D01*
X29223523Y-33239463D01*
X29362796Y-33147974D01*
X29493760Y-33236377D01*
X29743400Y-33286440D01*
X31521400Y-33286440D01*
X31763523Y-33239463D01*
X31902796Y-33147974D01*
X32033760Y-33236377D01*
X32283400Y-33286440D01*
X34061400Y-33286440D01*
X34303523Y-33239463D01*
X34442796Y-33147974D01*
X34573760Y-33236377D01*
X34823400Y-33286440D01*
X36601400Y-33286440D01*
X36843523Y-33239463D01*
X36982796Y-33147974D01*
X37113760Y-33236377D01*
X37363400Y-33286440D01*
X39141400Y-33286440D01*
X39383523Y-33239463D01*
X39522796Y-33147974D01*
X39653760Y-33236377D01*
X39903400Y-33286440D01*
X41681400Y-33286440D01*
X41923523Y-33239463D01*
X42062796Y-33147974D01*
X42193760Y-33236377D01*
X42443400Y-33286440D01*
X44221400Y-33286440D01*
X44463523Y-33239463D01*
X44602796Y-33147974D01*
X44733760Y-33236377D01*
X44983400Y-33286440D01*
X46761400Y-33286440D01*
X47003523Y-33239463D01*
X47142796Y-33147974D01*
X47273760Y-33236377D01*
X47523400Y-33286440D01*
X49301400Y-33286440D01*
X49543523Y-33239463D01*
X49682796Y-33147974D01*
X49813760Y-33236377D01*
X50063400Y-33286440D01*
X51841400Y-33286440D01*
X52083523Y-33239463D01*
X52222796Y-33147974D01*
X52353760Y-33236377D01*
X52603400Y-33286440D01*
X54381400Y-33286440D01*
X54623523Y-33239463D01*
X54762796Y-33147974D01*
X54893760Y-33236377D01*
X55143400Y-33286440D01*
X56921400Y-33286440D01*
X57163523Y-33239463D01*
X57302796Y-33147974D01*
X57433760Y-33236377D01*
X57683400Y-33286440D01*
X59461400Y-33286440D01*
X59703523Y-33239463D01*
X59842796Y-33147974D01*
X59973760Y-33236377D01*
X60223400Y-33286440D01*
X62001400Y-33286440D01*
X62243523Y-33239463D01*
X62382796Y-33147974D01*
X62513760Y-33236377D01*
X62763400Y-33286440D01*
X64541400Y-33286440D01*
X64783523Y-33239463D01*
X64996327Y-33099673D01*
X65138777Y-32888640D01*
X65188840Y-32639000D01*
X65188840Y-37211000D01*
X65141863Y-36968877D01*
X65002073Y-36756073D01*
X64972366Y-36736020D01*
X65049400Y-36550048D01*
X65049400Y-36347953D01*
X65049400Y-35750500D01*
X65049400Y-35369500D01*
X65049400Y-34772047D01*
X65049400Y-34569952D01*
X64972061Y-34383241D01*
X64829158Y-34240338D01*
X64642447Y-34163000D01*
X63842900Y-34163000D01*
X63715900Y-34290000D01*
X63715900Y-35496500D01*
X64922400Y-35496500D01*
X65049400Y-35369500D01*
X65049400Y-35750500D01*
X64922400Y-35623500D01*
X63715900Y-35623500D01*
X63715900Y-35643500D01*
X63588900Y-35643500D01*
X63588900Y-35623500D01*
X63588900Y-35496500D01*
X63588900Y-34290000D01*
X63461900Y-34163000D01*
X62662353Y-34163000D01*
X62475642Y-34240338D01*
X62382400Y-34333580D01*
X62289158Y-34240338D01*
X62102447Y-34163000D01*
X61302900Y-34163000D01*
X61175900Y-34290000D01*
X61175900Y-35496500D01*
X62382400Y-35496500D01*
X63588900Y-35496500D01*
X63588900Y-35623500D01*
X62382400Y-35623500D01*
X61175900Y-35623500D01*
X61175900Y-35643500D01*
X61048900Y-35643500D01*
X61048900Y-35623500D01*
X61048900Y-35496500D01*
X61048900Y-34290000D01*
X60921900Y-34163000D01*
X60122353Y-34163000D01*
X59935642Y-34240338D01*
X59842400Y-34333580D01*
X59749158Y-34240338D01*
X59562447Y-34163000D01*
X58762900Y-34163000D01*
X58635900Y-34290000D01*
X58635900Y-35496500D01*
X59842400Y-35496500D01*
X61048900Y-35496500D01*
X61048900Y-35623500D01*
X59842400Y-35623500D01*
X58635900Y-35623500D01*
X58635900Y-35643500D01*
X58508900Y-35643500D01*
X58508900Y-35623500D01*
X58508900Y-35496500D01*
X58508900Y-34290000D01*
X58381900Y-34163000D01*
X57582353Y-34163000D01*
X57395642Y-34240338D01*
X57302400Y-34333580D01*
X57209158Y-34240338D01*
X57022447Y-34163000D01*
X56222900Y-34163000D01*
X56095900Y-34290000D01*
X56095900Y-35496500D01*
X57302400Y-35496500D01*
X58508900Y-35496500D01*
X58508900Y-35623500D01*
X57302400Y-35623500D01*
X56095900Y-35623500D01*
X56095900Y-35643500D01*
X55968900Y-35643500D01*
X55968900Y-35623500D01*
X55968900Y-35496500D01*
X55968900Y-34290000D01*
X55841900Y-34163000D01*
X55042353Y-34163000D01*
X54855642Y-34240338D01*
X54762400Y-34333580D01*
X54669158Y-34240338D01*
X54482447Y-34163000D01*
X53682900Y-34163000D01*
X53555900Y-34290000D01*
X53555900Y-35496500D01*
X54762400Y-35496500D01*
X55968900Y-35496500D01*
X55968900Y-35623500D01*
X54762400Y-35623500D01*
X53555900Y-35623500D01*
X53555900Y-35643500D01*
X53428900Y-35643500D01*
X53428900Y-35623500D01*
X53428900Y-35496500D01*
X53428900Y-34290000D01*
X53301900Y-34163000D01*
X52502353Y-34163000D01*
X52315642Y-34240338D01*
X52222400Y-34333580D01*
X52129158Y-34240338D01*
X51942447Y-34163000D01*
X51142900Y-34163000D01*
X51015900Y-34290000D01*
X51015900Y-35496500D01*
X52222400Y-35496500D01*
X53428900Y-35496500D01*
X53428900Y-35623500D01*
X52222400Y-35623500D01*
X51015900Y-35623500D01*
X51015900Y-35643500D01*
X50888900Y-35643500D01*
X50888900Y-35623500D01*
X50888900Y-35496500D01*
X50888900Y-34290000D01*
X50761900Y-34163000D01*
X49962353Y-34163000D01*
X49775642Y-34240338D01*
X49682400Y-34333580D01*
X49589158Y-34240338D01*
X49402447Y-34163000D01*
X48602900Y-34163000D01*
X48475900Y-34290000D01*
X48475900Y-35496500D01*
X49682400Y-35496500D01*
X50888900Y-35496500D01*
X50888900Y-35623500D01*
X49682400Y-35623500D01*
X48475900Y-35623500D01*
X48475900Y-35643500D01*
X48348900Y-35643500D01*
X48348900Y-35623500D01*
X48348900Y-35496500D01*
X48348900Y-34290000D01*
X48221900Y-34163000D01*
X47422353Y-34163000D01*
X47235642Y-34240338D01*
X47142400Y-34333580D01*
X47049158Y-34240338D01*
X46862447Y-34163000D01*
X46062900Y-34163000D01*
X45935900Y-34290000D01*
X45935900Y-35496500D01*
X47142400Y-35496500D01*
X48348900Y-35496500D01*
X48348900Y-35623500D01*
X47142400Y-35623500D01*
X45935900Y-35623500D01*
X45935900Y-35643500D01*
X45808900Y-35643500D01*
X45808900Y-35623500D01*
X45808900Y-35496500D01*
X45808900Y-34290000D01*
X45681900Y-34163000D01*
X44882353Y-34163000D01*
X44695642Y-34240338D01*
X44602400Y-34333580D01*
X44509158Y-34240338D01*
X44322447Y-34163000D01*
X43522900Y-34163000D01*
X43395900Y-34290000D01*
X43395900Y-35496500D01*
X44602400Y-35496500D01*
X45808900Y-35496500D01*
X45808900Y-35623500D01*
X44602400Y-35623500D01*
X43395900Y-35623500D01*
X43395900Y-35643500D01*
X43268900Y-35643500D01*
X43268900Y-35623500D01*
X43268900Y-35496500D01*
X43268900Y-34290000D01*
X43141900Y-34163000D01*
X42342353Y-34163000D01*
X42155642Y-34240338D01*
X42062400Y-34333580D01*
X41969158Y-34240338D01*
X41782447Y-34163000D01*
X40982900Y-34163000D01*
X40855900Y-34290000D01*
X40855900Y-35496500D01*
X42062400Y-35496500D01*
X43268900Y-35496500D01*
X43268900Y-35623500D01*
X42062400Y-35623500D01*
X40855900Y-35623500D01*
X40855900Y-35643500D01*
X40728900Y-35643500D01*
X40728900Y-35623500D01*
X40728900Y-35496500D01*
X40728900Y-34290000D01*
X40601900Y-34163000D01*
X39802353Y-34163000D01*
X39615642Y-34240338D01*
X39522400Y-34333580D01*
X39429158Y-34240338D01*
X39242447Y-34163000D01*
X38442900Y-34163000D01*
X38315900Y-34290000D01*
X38315900Y-35496500D01*
X39522400Y-35496500D01*
X40728900Y-35496500D01*
X40728900Y-35623500D01*
X39522400Y-35623500D01*
X38315900Y-35623500D01*
X38315900Y-35643500D01*
X38188900Y-35643500D01*
X38188900Y-35623500D01*
X38188900Y-35496500D01*
X38188900Y-34290000D01*
X38061900Y-34163000D01*
X37262353Y-34163000D01*
X37075642Y-34240338D01*
X36982400Y-34333580D01*
X36889158Y-34240338D01*
X36702447Y-34163000D01*
X35902900Y-34163000D01*
X35775900Y-34290000D01*
X35775900Y-35496500D01*
X36982400Y-35496500D01*
X38188900Y-35496500D01*
X38188900Y-35623500D01*
X36982400Y-35623500D01*
X35775900Y-35623500D01*
X35775900Y-35643500D01*
X35648900Y-35643500D01*
X35648900Y-35623500D01*
X35648900Y-35496500D01*
X35648900Y-34290000D01*
X35521900Y-34163000D01*
X34722353Y-34163000D01*
X34535642Y-34240338D01*
X34442400Y-34333580D01*
X34349158Y-34240338D01*
X34162447Y-34163000D01*
X33362900Y-34163000D01*
X33235900Y-34290000D01*
X33235900Y-35496500D01*
X34442400Y-35496500D01*
X35648900Y-35496500D01*
X35648900Y-35623500D01*
X34442400Y-35623500D01*
X33235900Y-35623500D01*
X33235900Y-35643500D01*
X33108900Y-35643500D01*
X33108900Y-35623500D01*
X33108900Y-35496500D01*
X33108900Y-34290000D01*
X32981900Y-34163000D01*
X32182353Y-34163000D01*
X31995642Y-34240338D01*
X31902400Y-34333580D01*
X31809158Y-34240338D01*
X31622447Y-34163000D01*
X30822900Y-34163000D01*
X30695900Y-34290000D01*
X30695900Y-35496500D01*
X31902400Y-35496500D01*
X33108900Y-35496500D01*
X33108900Y-35623500D01*
X31902400Y-35623500D01*
X30695900Y-35623500D01*
X30695900Y-35643500D01*
X30568900Y-35643500D01*
X30568900Y-35623500D01*
X30568900Y-35496500D01*
X30568900Y-34290000D01*
X30441900Y-34163000D01*
X29642353Y-34163000D01*
X29455642Y-34240338D01*
X29362400Y-34333580D01*
X29269158Y-34240338D01*
X29082447Y-34163000D01*
X28282900Y-34163000D01*
X28155900Y-34290000D01*
X28155900Y-35496500D01*
X29362400Y-35496500D01*
X30568900Y-35496500D01*
X30568900Y-35623500D01*
X29362400Y-35623500D01*
X28155900Y-35623500D01*
X28155900Y-35643500D01*
X28028900Y-35643500D01*
X28028900Y-35623500D01*
X28028900Y-35496500D01*
X28028900Y-34290000D01*
X27901900Y-34163000D01*
X27102353Y-34163000D01*
X26915642Y-34240338D01*
X26822400Y-34333580D01*
X26729158Y-34240338D01*
X26542447Y-34163000D01*
X25742900Y-34163000D01*
X25615900Y-34290000D01*
X25615900Y-35496500D01*
X26822400Y-35496500D01*
X28028900Y-35496500D01*
X28028900Y-35623500D01*
X26822400Y-35623500D01*
X25615900Y-35623500D01*
X25615900Y-35643500D01*
X25488900Y-35643500D01*
X25488900Y-35623500D01*
X25488900Y-35496500D01*
X25488900Y-34290000D01*
X25361900Y-34163000D01*
X24562353Y-34163000D01*
X24375642Y-34240338D01*
X24232739Y-34383241D01*
X24155400Y-34569952D01*
X24155400Y-34772047D01*
X24155400Y-35369500D01*
X24282400Y-35496500D01*
X25488900Y-35496500D01*
X25488900Y-35623500D01*
X24282400Y-35623500D01*
X24155400Y-35750500D01*
X24155400Y-36347953D01*
X24155400Y-36550048D01*
X24231966Y-36734894D01*
X24208473Y-36750327D01*
X24066023Y-36961360D01*
X24015960Y-37211000D01*
X24015960Y-38989000D01*
X24062937Y-39231123D01*
X24154164Y-39370000D01*
X23244143Y-39370000D01*
X23055440Y-39242623D01*
X22805800Y-39192560D01*
X22377040Y-39192560D01*
X22377040Y-36775800D01*
X22377040Y-35175800D01*
X22330063Y-34933677D01*
X22190273Y-34720873D01*
X22071587Y-34640758D01*
X22239730Y-34225030D01*
X22235379Y-33704694D01*
X22044625Y-33244176D01*
X21826532Y-33168671D01*
X21736729Y-33258474D01*
X21736729Y-33078868D01*
X21661224Y-32860775D01*
X21178830Y-32665670D01*
X20658494Y-32670021D01*
X20197976Y-32860775D01*
X20122471Y-33078868D01*
X20929600Y-33885997D01*
X21736729Y-33078868D01*
X21736729Y-33258474D01*
X21019403Y-33975800D01*
X21033545Y-33989942D01*
X20943742Y-34079745D01*
X20929600Y-34065603D01*
X20915458Y-34079745D01*
X20825655Y-33989942D01*
X20839797Y-33975800D01*
X20032668Y-33168671D01*
X19814575Y-33244176D01*
X19619470Y-33726570D01*
X19623821Y-34246906D01*
X19787158Y-34641235D01*
X19674673Y-34715127D01*
X19532223Y-34926160D01*
X19482160Y-35175800D01*
X19482160Y-36775800D01*
X19529137Y-37017923D01*
X19668927Y-37230727D01*
X19879960Y-37373177D01*
X20129600Y-37423240D01*
X21729600Y-37423240D01*
X21971723Y-37376263D01*
X22184527Y-37236473D01*
X22326977Y-37025440D01*
X22377040Y-36775800D01*
X22377040Y-39192560D01*
X21205800Y-39192560D01*
X20963677Y-39239537D01*
X20750873Y-39379327D01*
X20670758Y-39498012D01*
X20255030Y-39329870D01*
X19734694Y-39334221D01*
X19274176Y-39524975D01*
X19198671Y-39743068D01*
X20005800Y-40550197D01*
X20019942Y-40536055D01*
X20109745Y-40625858D01*
X20095603Y-40640000D01*
X20109745Y-40654142D01*
X20019942Y-40743945D01*
X20005800Y-40729803D01*
X19915997Y-40819606D01*
X19915997Y-40640000D01*
X19108868Y-39832871D01*
X18890775Y-39908376D01*
X18695670Y-40390770D01*
X18700021Y-40911106D01*
X18890775Y-41371624D01*
X19108868Y-41447129D01*
X19915997Y-40640000D01*
X19915997Y-40819606D01*
X19198671Y-41536932D01*
X19274176Y-41755025D01*
X19756570Y-41950130D01*
X20276906Y-41945779D01*
X20671235Y-41782441D01*
X20745127Y-41894927D01*
X20956160Y-42037377D01*
X21205800Y-42087440D01*
X22805800Y-42087440D01*
X23047923Y-42040463D01*
X23246528Y-41910000D01*
X24154164Y-41910000D01*
X24202727Y-41983927D01*
X24413760Y-42126377D01*
X24663400Y-42176440D01*
X26441400Y-42176440D01*
X26683523Y-42129463D01*
X26822796Y-42037974D01*
X26953760Y-42126377D01*
X27203400Y-42176440D01*
X28981400Y-42176440D01*
X29223523Y-42129463D01*
X29362796Y-42037974D01*
X29493760Y-42126377D01*
X29743400Y-42176440D01*
X31521400Y-42176440D01*
X31763523Y-42129463D01*
X31902796Y-42037974D01*
X32033760Y-42126377D01*
X32283400Y-42176440D01*
X34061400Y-42176440D01*
X34303523Y-42129463D01*
X34442796Y-42037974D01*
X34573760Y-42126377D01*
X34823400Y-42176440D01*
X36601400Y-42176440D01*
X36843523Y-42129463D01*
X36982796Y-42037974D01*
X37113760Y-42126377D01*
X37363400Y-42176440D01*
X39141400Y-42176440D01*
X39383523Y-42129463D01*
X39522796Y-42037974D01*
X39653760Y-42126377D01*
X39903400Y-42176440D01*
X41681400Y-42176440D01*
X41923523Y-42129463D01*
X42062796Y-42037974D01*
X42193760Y-42126377D01*
X42443400Y-42176440D01*
X44221400Y-42176440D01*
X44463523Y-42129463D01*
X44602796Y-42037974D01*
X44733760Y-42126377D01*
X44983400Y-42176440D01*
X46761400Y-42176440D01*
X47003523Y-42129463D01*
X47142796Y-42037974D01*
X47273760Y-42126377D01*
X47523400Y-42176440D01*
X49301400Y-42176440D01*
X49543523Y-42129463D01*
X49682796Y-42037974D01*
X49813760Y-42126377D01*
X50063400Y-42176440D01*
X51841400Y-42176440D01*
X52083523Y-42129463D01*
X52222796Y-42037974D01*
X52353760Y-42126377D01*
X52603400Y-42176440D01*
X54381400Y-42176440D01*
X54623523Y-42129463D01*
X54762796Y-42037974D01*
X54893760Y-42126377D01*
X55143400Y-42176440D01*
X56921400Y-42176440D01*
X57163523Y-42129463D01*
X57302796Y-42037974D01*
X57433760Y-42126377D01*
X57683400Y-42176440D01*
X59461400Y-42176440D01*
X59703523Y-42129463D01*
X59842796Y-42037974D01*
X59973760Y-42126377D01*
X60223400Y-42176440D01*
X62001400Y-42176440D01*
X62243523Y-42129463D01*
X62382796Y-42037974D01*
X62513760Y-42126377D01*
X62763400Y-42176440D01*
X64541400Y-42176440D01*
X64783523Y-42129463D01*
X64996327Y-41989673D01*
X65138777Y-41778640D01*
X65188840Y-41529000D01*
X65188840Y-42983363D01*
X65124968Y-43047235D01*
X65124968Y-42867629D01*
X64933734Y-42550836D01*
X64107897Y-42197402D01*
X63209670Y-42186906D01*
X62375800Y-42520946D01*
X62331066Y-42550836D01*
X62139832Y-42867629D01*
X63632400Y-44360197D01*
X65124968Y-42867629D01*
X65124968Y-43047235D01*
X63722203Y-44450000D01*
X65214771Y-45942568D01*
X65531564Y-45751334D01*
X65884998Y-44925497D01*
X65895494Y-44027270D01*
X65895494Y-50057459D01*
X65672677Y-50280277D01*
X65513349Y-50518728D01*
X65457400Y-50800000D01*
X65457400Y-51997610D01*
X65403372Y-52269224D01*
X65290520Y-52438120D01*
X65176664Y-52514196D01*
X65176664Y-50498188D01*
X64945138Y-49937851D01*
X64537662Y-49529664D01*
X64943631Y-49124404D01*
X65176135Y-48564472D01*
X65176664Y-47958188D01*
X65124968Y-47833073D01*
X65124968Y-46032371D01*
X63632400Y-44539803D01*
X63542597Y-44629606D01*
X63542597Y-44450000D01*
X62050029Y-42957432D01*
X61733236Y-43148666D01*
X61379802Y-43974503D01*
X61369306Y-44872730D01*
X61703346Y-45706600D01*
X61733236Y-45751334D01*
X62050029Y-45942568D01*
X63542597Y-44450000D01*
X63542597Y-44629606D01*
X62139832Y-46032371D01*
X62331066Y-46349164D01*
X63156903Y-46702598D01*
X64055130Y-46713094D01*
X64889000Y-46379054D01*
X64933734Y-46349164D01*
X65124968Y-46032371D01*
X65124968Y-47833073D01*
X64945138Y-47397851D01*
X64516804Y-46968769D01*
X63956872Y-46736265D01*
X63350588Y-46735736D01*
X62790251Y-46967262D01*
X62382064Y-47374737D01*
X61976804Y-46968769D01*
X61416872Y-46736265D01*
X60810588Y-46735736D01*
X60250251Y-46967262D01*
X59842064Y-47374737D01*
X59436804Y-46968769D01*
X58876872Y-46736265D01*
X58270588Y-46735736D01*
X57710251Y-46967262D01*
X57302064Y-47374737D01*
X56896804Y-46968769D01*
X56336872Y-46736265D01*
X55730588Y-46735736D01*
X55170251Y-46967262D01*
X54762064Y-47374737D01*
X54356804Y-46968769D01*
X53796872Y-46736265D01*
X53190588Y-46735736D01*
X52630251Y-46967262D01*
X52446161Y-47151030D01*
X52441863Y-47128877D01*
X52302073Y-46916073D01*
X52091040Y-46773623D01*
X51841400Y-46723560D01*
X50063400Y-46723560D01*
X49821277Y-46770537D01*
X49608473Y-46910327D01*
X49466023Y-47121360D01*
X49415960Y-47371000D01*
X49415960Y-49149000D01*
X49462937Y-49391123D01*
X49554425Y-49530396D01*
X49466023Y-49661360D01*
X49415960Y-49911000D01*
X49415960Y-51689000D01*
X49462937Y-51931123D01*
X49602727Y-52143927D01*
X49813760Y-52286377D01*
X50063400Y-52336440D01*
X51841400Y-52336440D01*
X52083523Y-52289463D01*
X52296327Y-52149673D01*
X52438777Y-51938640D01*
X52444948Y-51907864D01*
X52627996Y-52091231D01*
X53187928Y-52323735D01*
X53794212Y-52324264D01*
X54354549Y-52092738D01*
X54762735Y-51685262D01*
X55167996Y-52091231D01*
X55727928Y-52323735D01*
X56334212Y-52324264D01*
X56894549Y-52092738D01*
X57302735Y-51685262D01*
X57707996Y-52091231D01*
X58267928Y-52323735D01*
X58874212Y-52324264D01*
X59434549Y-52092738D01*
X59842735Y-51685262D01*
X60247996Y-52091231D01*
X60807928Y-52323735D01*
X61414212Y-52324264D01*
X61974549Y-52092738D01*
X62382735Y-51685262D01*
X62787996Y-52091231D01*
X63347928Y-52323735D01*
X63954212Y-52324264D01*
X64514549Y-52092738D01*
X64943631Y-51664404D01*
X65176135Y-51104472D01*
X65176664Y-50498188D01*
X65176664Y-52514196D01*
X65121625Y-52550972D01*
X64835404Y-52607905D01*
X64820800Y-52605000D01*
X47396664Y-52605000D01*
X47396664Y-50498188D01*
X47165138Y-49937851D01*
X46757662Y-49529664D01*
X47163631Y-49124404D01*
X47396135Y-48564472D01*
X47396664Y-47958188D01*
X47165138Y-47397851D01*
X46736804Y-46968769D01*
X46176872Y-46736265D01*
X45570588Y-46735736D01*
X45010251Y-46967262D01*
X44581169Y-47395596D01*
X44534544Y-47507880D01*
X44520917Y-47474982D01*
X44293580Y-47388622D01*
X44203778Y-47478424D01*
X44203778Y-47298820D01*
X44117418Y-47071483D01*
X43602837Y-46861540D01*
X43047083Y-46864500D01*
X42547382Y-47071483D01*
X42461022Y-47298820D01*
X43332400Y-48170197D01*
X44203778Y-47298820D01*
X44203778Y-47478424D01*
X43422203Y-48260000D01*
X44293580Y-49131378D01*
X44520917Y-49045018D01*
X44534269Y-49012290D01*
X44579662Y-49122149D01*
X44987137Y-49530335D01*
X44581169Y-49935596D01*
X44534544Y-50047880D01*
X44520917Y-50014982D01*
X44293580Y-49928622D01*
X44203778Y-50018424D01*
X44203778Y-49838820D01*
X44117418Y-49611483D01*
X43919211Y-49530616D01*
X44117418Y-49448517D01*
X44203778Y-49221180D01*
X43332400Y-48349803D01*
X43242597Y-48439605D01*
X43242597Y-48260000D01*
X42371220Y-47388622D01*
X42143883Y-47474982D01*
X42063016Y-47673188D01*
X41980917Y-47474982D01*
X41753580Y-47388622D01*
X41663778Y-47478424D01*
X41663778Y-47298820D01*
X41577418Y-47071483D01*
X41062837Y-46861540D01*
X40507083Y-46864500D01*
X40007382Y-47071483D01*
X39921022Y-47298820D01*
X40792400Y-48170197D01*
X41663778Y-47298820D01*
X41663778Y-47478424D01*
X40882203Y-48260000D01*
X41753580Y-49131378D01*
X41980917Y-49045018D01*
X42061783Y-48846811D01*
X42143883Y-49045018D01*
X42371220Y-49131378D01*
X43242597Y-48260000D01*
X43242597Y-48439605D01*
X42461022Y-49221180D01*
X42547382Y-49448517D01*
X42745588Y-49529383D01*
X42547382Y-49611483D01*
X42461022Y-49838820D01*
X43332400Y-50710197D01*
X44203778Y-49838820D01*
X44203778Y-50018424D01*
X43422203Y-50800000D01*
X44293580Y-51671378D01*
X44520917Y-51585018D01*
X44534269Y-51552290D01*
X44579662Y-51662149D01*
X45007996Y-52091231D01*
X45567928Y-52323735D01*
X46174212Y-52324264D01*
X46734549Y-52092738D01*
X47163631Y-51664404D01*
X47396135Y-51104472D01*
X47396664Y-50498188D01*
X47396664Y-52605000D01*
X44203778Y-52605000D01*
X44203778Y-51761180D01*
X43332400Y-50889803D01*
X43242597Y-50979605D01*
X43242597Y-50800000D01*
X42371220Y-49928622D01*
X42143883Y-50014982D01*
X42063016Y-50213188D01*
X41980917Y-50014982D01*
X41753580Y-49928622D01*
X41663778Y-50018424D01*
X41663778Y-49838820D01*
X41577418Y-49611483D01*
X41379211Y-49530616D01*
X41577418Y-49448517D01*
X41663778Y-49221180D01*
X40792400Y-48349803D01*
X39921022Y-49221180D01*
X40007382Y-49448517D01*
X40205588Y-49529383D01*
X40007382Y-49611483D01*
X39921022Y-49838820D01*
X40792400Y-50710197D01*
X41663778Y-49838820D01*
X41663778Y-50018424D01*
X40882203Y-50800000D01*
X41753580Y-51671378D01*
X41980917Y-51585018D01*
X42061783Y-51386811D01*
X42143883Y-51585018D01*
X42371220Y-51671378D01*
X43242597Y-50800000D01*
X43242597Y-50979605D01*
X42461022Y-51761180D01*
X42547382Y-51988517D01*
X43061963Y-52198460D01*
X43617717Y-52195500D01*
X44117418Y-51988517D01*
X44203778Y-51761180D01*
X44203778Y-52605000D01*
X41663778Y-52605000D01*
X41663778Y-51761180D01*
X40792400Y-50889803D01*
X40702597Y-50979605D01*
X40702597Y-50800000D01*
X39831220Y-49928622D01*
X39603883Y-50014982D01*
X39590530Y-50047709D01*
X39545138Y-49937851D01*
X39137662Y-49529664D01*
X39543631Y-49124404D01*
X39590255Y-49012119D01*
X39603883Y-49045018D01*
X39831220Y-49131378D01*
X40702597Y-48260000D01*
X39831220Y-47388622D01*
X39603883Y-47474982D01*
X39590530Y-47507709D01*
X39545138Y-47397851D01*
X39116804Y-46968769D01*
X38556872Y-46736265D01*
X37950588Y-46735736D01*
X37390251Y-46967262D01*
X36982064Y-47374737D01*
X36576804Y-46968769D01*
X36016872Y-46736265D01*
X35410588Y-46735736D01*
X34850251Y-46967262D01*
X34442064Y-47374737D01*
X34036804Y-46968769D01*
X33476872Y-46736265D01*
X32870588Y-46735736D01*
X32310251Y-46967262D01*
X31902064Y-47374737D01*
X31496804Y-46968769D01*
X30936872Y-46736265D01*
X30330588Y-46735736D01*
X29770251Y-46967262D01*
X29586161Y-47151030D01*
X29581863Y-47128877D01*
X29442073Y-46916073D01*
X29231040Y-46773623D01*
X28981400Y-46723560D01*
X27203400Y-46723560D01*
X26961277Y-46770537D01*
X26748473Y-46910327D01*
X26606023Y-47121360D01*
X26555960Y-47371000D01*
X26555960Y-49149000D01*
X26602937Y-49391123D01*
X26694425Y-49530396D01*
X26606023Y-49661360D01*
X26555960Y-49911000D01*
X26555960Y-51689000D01*
X26602937Y-51931123D01*
X26742727Y-52143927D01*
X26953760Y-52286377D01*
X27203400Y-52336440D01*
X28981400Y-52336440D01*
X29223523Y-52289463D01*
X29436327Y-52149673D01*
X29578777Y-51938640D01*
X29584948Y-51907864D01*
X29767996Y-52091231D01*
X30327928Y-52323735D01*
X30934212Y-52324264D01*
X31494549Y-52092738D01*
X31902735Y-51685262D01*
X32307996Y-52091231D01*
X32867928Y-52323735D01*
X33474212Y-52324264D01*
X34034549Y-52092738D01*
X34442735Y-51685262D01*
X34847996Y-52091231D01*
X35407928Y-52323735D01*
X36014212Y-52324264D01*
X36574549Y-52092738D01*
X36982735Y-51685262D01*
X37387996Y-52091231D01*
X37947928Y-52323735D01*
X38554212Y-52324264D01*
X39114549Y-52092738D01*
X39543631Y-51664404D01*
X39590255Y-51552119D01*
X39603883Y-51585018D01*
X39831220Y-51671378D01*
X40702597Y-50800000D01*
X40702597Y-50979605D01*
X39921022Y-51761180D01*
X40007382Y-51988517D01*
X40521963Y-52198460D01*
X41077717Y-52195500D01*
X41577418Y-51988517D01*
X41663778Y-51761180D01*
X41663778Y-52605000D01*
X14932087Y-52605000D01*
X14932087Y-46776216D01*
X14768089Y-46379311D01*
X14741400Y-46352575D01*
X14741400Y-44407863D01*
X14767022Y-44382286D01*
X14931713Y-43985668D01*
X14932087Y-43556216D01*
X14822087Y-43289995D01*
X14822087Y-35956216D01*
X14658089Y-35559311D01*
X14354686Y-35255378D01*
X13958068Y-35090687D01*
X13528616Y-35090313D01*
X13131711Y-35254311D01*
X12878024Y-35507555D01*
X12878024Y-29156660D01*
X12681227Y-28680374D01*
X12317143Y-28315654D01*
X12207997Y-28270332D01*
X12315226Y-28226027D01*
X12679946Y-27861943D01*
X12877574Y-27386001D01*
X12878024Y-26870660D01*
X12878024Y-15440660D01*
X12681227Y-14964374D01*
X12317143Y-14599654D01*
X11841201Y-14402026D01*
X11325860Y-14401576D01*
X10849574Y-14598373D01*
X10484854Y-14962457D01*
X10287226Y-15438399D01*
X10286776Y-15953740D01*
X10483573Y-16430026D01*
X10847657Y-16794746D01*
X11118579Y-16907242D01*
X10934545Y-16983472D01*
X10876075Y-17187073D01*
X11582400Y-17893397D01*
X12288725Y-17187073D01*
X12230255Y-16983472D01*
X12042424Y-16908746D01*
X12315226Y-16796027D01*
X12679946Y-16431943D01*
X12877574Y-15956001D01*
X12878024Y-15440660D01*
X12878024Y-26870660D01*
X12753951Y-26570379D01*
X12753951Y-18199160D01*
X12747417Y-17734388D01*
X12582128Y-17335345D01*
X12378527Y-17276875D01*
X11672203Y-17983200D01*
X12378527Y-18689525D01*
X12582128Y-18631055D01*
X12753951Y-18199160D01*
X12753951Y-26570379D01*
X12681227Y-26394374D01*
X12317143Y-26029654D01*
X12288725Y-26017853D01*
X12288725Y-18779327D01*
X11582400Y-18073003D01*
X11492597Y-18162805D01*
X11492597Y-17983200D01*
X10786273Y-17276875D01*
X10582672Y-17335345D01*
X10410849Y-17767240D01*
X10417383Y-18232012D01*
X10582672Y-18631055D01*
X10786273Y-18689525D01*
X11492597Y-17983200D01*
X11492597Y-18162805D01*
X10876075Y-18779327D01*
X10934545Y-18982928D01*
X11366440Y-19154751D01*
X11831212Y-19148217D01*
X12230255Y-18982928D01*
X12288725Y-18779327D01*
X12288725Y-26017853D01*
X11841201Y-25832026D01*
X11325860Y-25831576D01*
X10849574Y-26028373D01*
X10630065Y-26247499D01*
X10630065Y-20842567D01*
X10485361Y-20492357D01*
X10217653Y-20224180D01*
X9867695Y-20078865D01*
X9488767Y-20078535D01*
X9334686Y-20142200D01*
X7927951Y-20142200D01*
X7927951Y-19215160D01*
X7921417Y-18750388D01*
X7756128Y-18351345D01*
X7552527Y-18292875D01*
X7462725Y-18382677D01*
X7462725Y-18203073D01*
X7404255Y-17999472D01*
X6972360Y-17827649D01*
X6507588Y-17834183D01*
X6108545Y-17999472D01*
X6050075Y-18203073D01*
X6756400Y-18909397D01*
X7462725Y-18203073D01*
X7462725Y-18382677D01*
X6846203Y-18999200D01*
X7552527Y-19705525D01*
X7756128Y-19647055D01*
X7927951Y-19215160D01*
X7927951Y-20142200D01*
X7699325Y-20142200D01*
X7491143Y-19933654D01*
X7430260Y-19908373D01*
X7462725Y-19795327D01*
X6756400Y-19089003D01*
X6742257Y-19103144D01*
X6652454Y-19013341D01*
X6666597Y-18999200D01*
X5960273Y-18292875D01*
X5756672Y-18351345D01*
X5584849Y-18783240D01*
X5587899Y-19000212D01*
X5194360Y-18843649D01*
X4729588Y-18850183D01*
X4330545Y-19015472D01*
X4272075Y-19219073D01*
X4978400Y-19925397D01*
X4992542Y-19911255D01*
X5082344Y-20001057D01*
X5068203Y-20015200D01*
X5082344Y-20029342D01*
X4992542Y-20119145D01*
X4978400Y-20105003D01*
X4888597Y-20194805D01*
X4888597Y-20015200D01*
X4182273Y-19308875D01*
X3978672Y-19367345D01*
X3806849Y-19799240D01*
X3813383Y-20264012D01*
X3978672Y-20663055D01*
X4182273Y-20721525D01*
X4888597Y-20015200D01*
X4888597Y-20194805D01*
X4272075Y-20811327D01*
X4304446Y-20924047D01*
X4245574Y-20948373D01*
X3880854Y-21312457D01*
X3683226Y-21788399D01*
X3682776Y-22303740D01*
X3879573Y-22780026D01*
X4162427Y-23063374D01*
X3880854Y-23344457D01*
X3683226Y-23820399D01*
X3682776Y-24335740D01*
X3879573Y-24812026D01*
X4162427Y-25095374D01*
X3880854Y-25376457D01*
X3683226Y-25852399D01*
X3682776Y-26367740D01*
X3879573Y-26844026D01*
X4243657Y-27208746D01*
X4719599Y-27406374D01*
X5234940Y-27406824D01*
X5711226Y-27210027D01*
X6075946Y-26845943D01*
X6273574Y-26370001D01*
X6273637Y-26297377D01*
X6497599Y-26390374D01*
X7012940Y-26390824D01*
X7489226Y-26194027D01*
X7853946Y-25829943D01*
X8051574Y-25354001D01*
X8052024Y-24838660D01*
X7855227Y-24362374D01*
X7572372Y-24079025D01*
X7853946Y-23797943D01*
X8051574Y-23322001D01*
X8052024Y-22806660D01*
X7855227Y-22330374D01*
X7572372Y-22047025D01*
X7699419Y-21920200D01*
X9334577Y-21920200D01*
X9487105Y-21983535D01*
X9866033Y-21983865D01*
X10216243Y-21839161D01*
X10484420Y-21571453D01*
X10629735Y-21221495D01*
X10630065Y-20842567D01*
X10630065Y-26247499D01*
X10484854Y-26392457D01*
X10287226Y-26868399D01*
X10286776Y-27383740D01*
X10483573Y-27860026D01*
X10847657Y-28224746D01*
X10956802Y-28270067D01*
X10849574Y-28314373D01*
X10484854Y-28678457D01*
X10287226Y-29154399D01*
X10286776Y-29669740D01*
X10483573Y-30146026D01*
X10847657Y-30510746D01*
X11323599Y-30708374D01*
X11838940Y-30708824D01*
X12315226Y-30512027D01*
X12679946Y-30147943D01*
X12877574Y-29672001D01*
X12878024Y-29156660D01*
X12878024Y-35507555D01*
X12827778Y-35557714D01*
X12663087Y-35954332D01*
X12662713Y-36383784D01*
X12826711Y-36780689D01*
X13130114Y-37084622D01*
X13526732Y-37249313D01*
X13956184Y-37249687D01*
X14353089Y-37085689D01*
X14657022Y-36782286D01*
X14821713Y-36385668D01*
X14822087Y-35956216D01*
X14822087Y-43289995D01*
X14768089Y-43159311D01*
X14464686Y-42855378D01*
X14068068Y-42690687D01*
X13638616Y-42690313D01*
X13241711Y-42854311D01*
X12937778Y-43157714D01*
X12878024Y-43301616D01*
X12878024Y-37589460D01*
X12681227Y-37113174D01*
X12317143Y-36748454D01*
X11841201Y-36550826D01*
X11325860Y-36550376D01*
X10849574Y-36747173D01*
X10484854Y-37111257D01*
X10287226Y-37587199D01*
X10286776Y-38102540D01*
X10483573Y-38578826D01*
X10847657Y-38943546D01*
X11118579Y-39056042D01*
X10934545Y-39132272D01*
X10876075Y-39335873D01*
X11582400Y-40042197D01*
X12288725Y-39335873D01*
X12230255Y-39132272D01*
X12042424Y-39057546D01*
X12315226Y-38944827D01*
X12679946Y-38580743D01*
X12877574Y-38104801D01*
X12878024Y-37589460D01*
X12878024Y-43301616D01*
X12773087Y-43554332D01*
X12772713Y-43983784D01*
X12936711Y-44380689D01*
X12963400Y-44407424D01*
X12963400Y-46352136D01*
X12937778Y-46377714D01*
X12773087Y-46774332D01*
X12772713Y-47203784D01*
X12936711Y-47600689D01*
X13240114Y-47904622D01*
X13636732Y-48069313D01*
X14066184Y-48069687D01*
X14463089Y-47905689D01*
X14767022Y-47602286D01*
X14931713Y-47205668D01*
X14932087Y-46776216D01*
X14932087Y-52605000D01*
X12371150Y-52605000D01*
X12679946Y-52296743D01*
X12877574Y-51820801D01*
X12878024Y-51305460D01*
X12681227Y-50829174D01*
X12317143Y-50464454D01*
X12207997Y-50419132D01*
X12315226Y-50374827D01*
X12679946Y-50010743D01*
X12877574Y-49534801D01*
X12878024Y-49019460D01*
X12753951Y-48719179D01*
X12753951Y-40347960D01*
X12747417Y-39883188D01*
X12582128Y-39484145D01*
X12378527Y-39425675D01*
X11672203Y-40132000D01*
X12378527Y-40838325D01*
X12582128Y-40779855D01*
X12753951Y-40347960D01*
X12753951Y-48719179D01*
X12681227Y-48543174D01*
X12317143Y-48178454D01*
X12288725Y-48166653D01*
X12288725Y-40928127D01*
X11582400Y-40221803D01*
X11492597Y-40311605D01*
X11492597Y-40132000D01*
X10786273Y-39425675D01*
X10582672Y-39484145D01*
X10410849Y-39916040D01*
X10417383Y-40380812D01*
X10582672Y-40779855D01*
X10786273Y-40838325D01*
X11492597Y-40132000D01*
X11492597Y-40311605D01*
X10876075Y-40928127D01*
X10934545Y-41131728D01*
X11366440Y-41303551D01*
X11831212Y-41297017D01*
X12230255Y-41131728D01*
X12288725Y-40928127D01*
X12288725Y-48166653D01*
X11841201Y-47980826D01*
X11542087Y-47980564D01*
X11542087Y-46626216D01*
X11378089Y-46229311D01*
X11351400Y-46202575D01*
X11351400Y-44617863D01*
X11377022Y-44592286D01*
X11541713Y-44195668D01*
X11542087Y-43766216D01*
X11378089Y-43369311D01*
X11074686Y-43065378D01*
X10678068Y-42900687D01*
X10248616Y-42900313D01*
X10202696Y-42919286D01*
X10058089Y-42569311D01*
X9754686Y-42265378D01*
X9358068Y-42100687D01*
X8928616Y-42100313D01*
X8531711Y-42264311D01*
X8504975Y-42291000D01*
X7927951Y-42291000D01*
X7927951Y-41363960D01*
X7921417Y-40899188D01*
X7756128Y-40500145D01*
X7552527Y-40441675D01*
X7462725Y-40531477D01*
X7462725Y-40351873D01*
X7404255Y-40148272D01*
X6972360Y-39976449D01*
X6507588Y-39982983D01*
X6121040Y-40143096D01*
X6121040Y-33429600D01*
X6121040Y-31829600D01*
X6074063Y-31587477D01*
X5934273Y-31374673D01*
X5723240Y-31232223D01*
X5473600Y-31182160D01*
X3873600Y-31182160D01*
X3631477Y-31229137D01*
X3418673Y-31368927D01*
X3276223Y-31579960D01*
X3226160Y-31829600D01*
X3226160Y-33429600D01*
X3273137Y-33671723D01*
X3412927Y-33884527D01*
X3531612Y-33964641D01*
X3363470Y-34380370D01*
X3367821Y-34900706D01*
X3558575Y-35361224D01*
X3776668Y-35436729D01*
X4583797Y-34629600D01*
X4569655Y-34615458D01*
X4659458Y-34525655D01*
X4673600Y-34539797D01*
X4687742Y-34525655D01*
X4777545Y-34615458D01*
X4763403Y-34629600D01*
X5570532Y-35436729D01*
X5788625Y-35361224D01*
X5983730Y-34878830D01*
X5979379Y-34358494D01*
X5816041Y-33964164D01*
X5928527Y-33890273D01*
X6070977Y-33679240D01*
X6121040Y-33429600D01*
X6121040Y-40143096D01*
X6108545Y-40148272D01*
X6050075Y-40351873D01*
X6756400Y-41058197D01*
X7462725Y-40351873D01*
X7462725Y-40531477D01*
X6846203Y-41148000D01*
X7552527Y-41854325D01*
X7756128Y-41795855D01*
X7927951Y-41363960D01*
X7927951Y-42291000D01*
X7699325Y-42291000D01*
X7491143Y-42082454D01*
X7430260Y-42057173D01*
X7462725Y-41944127D01*
X6756400Y-41237803D01*
X6742257Y-41251944D01*
X6652454Y-41162141D01*
X6666597Y-41148000D01*
X5960273Y-40441675D01*
X5756672Y-40500145D01*
X5584849Y-40932040D01*
X5587899Y-41149012D01*
X5480729Y-41106376D01*
X5480729Y-35526532D01*
X4673600Y-34719403D01*
X3866471Y-35526532D01*
X3941976Y-35744625D01*
X4424370Y-35939730D01*
X4944706Y-35935379D01*
X5405224Y-35744625D01*
X5480729Y-35526532D01*
X5480729Y-41106376D01*
X5194360Y-40992449D01*
X4729588Y-40998983D01*
X4330545Y-41164272D01*
X4272075Y-41367873D01*
X4978400Y-42074197D01*
X4992542Y-42060055D01*
X5082344Y-42149857D01*
X5068203Y-42164000D01*
X5082344Y-42178142D01*
X4992542Y-42267945D01*
X4978400Y-42253803D01*
X4888597Y-42343605D01*
X4888597Y-42164000D01*
X4182273Y-41457675D01*
X3978672Y-41516145D01*
X3806849Y-41948040D01*
X3813383Y-42412812D01*
X3978672Y-42811855D01*
X4182273Y-42870325D01*
X4888597Y-42164000D01*
X4888597Y-42343605D01*
X4272075Y-42960127D01*
X4304446Y-43072847D01*
X4245574Y-43097173D01*
X3880854Y-43461257D01*
X3683226Y-43937199D01*
X3682776Y-44452540D01*
X3879573Y-44928826D01*
X4162427Y-45212174D01*
X3880854Y-45493257D01*
X3683226Y-45969199D01*
X3682776Y-46484540D01*
X3879573Y-46960826D01*
X4162427Y-47244174D01*
X3880854Y-47525257D01*
X3683226Y-48001199D01*
X3682776Y-48516540D01*
X3879573Y-48992826D01*
X4243657Y-49357546D01*
X4719599Y-49555174D01*
X5234940Y-49555624D01*
X5711226Y-49358827D01*
X6075946Y-48994743D01*
X6273574Y-48518801D01*
X6273637Y-48446177D01*
X6497599Y-48539174D01*
X7012940Y-48539624D01*
X7489226Y-48342827D01*
X7853946Y-47978743D01*
X8051574Y-47502801D01*
X8052024Y-46987460D01*
X7855227Y-46511174D01*
X7572372Y-46227825D01*
X7853946Y-45946743D01*
X8051574Y-45470801D01*
X8052024Y-44955460D01*
X7855227Y-44479174D01*
X7572372Y-44195825D01*
X7699419Y-44069000D01*
X8504536Y-44069000D01*
X8530114Y-44094622D01*
X8926732Y-44259313D01*
X9356184Y-44259687D01*
X9402103Y-44240713D01*
X9546711Y-44590689D01*
X9573400Y-44617424D01*
X9573400Y-46202136D01*
X9547778Y-46227714D01*
X9383087Y-46624332D01*
X9382713Y-47053784D01*
X9546711Y-47450689D01*
X9850114Y-47754622D01*
X10246732Y-47919313D01*
X10676184Y-47919687D01*
X11073089Y-47755689D01*
X11377022Y-47452286D01*
X11541713Y-47055668D01*
X11542087Y-46626216D01*
X11542087Y-47980564D01*
X11325860Y-47980376D01*
X10849574Y-48177173D01*
X10484854Y-48541257D01*
X10287226Y-49017199D01*
X10286776Y-49532540D01*
X10483573Y-50008826D01*
X10847657Y-50373546D01*
X10956802Y-50418867D01*
X10849574Y-50463173D01*
X10484854Y-50827257D01*
X10287226Y-51303199D01*
X10286776Y-51818540D01*
X10483573Y-52294826D01*
X10793206Y-52605000D01*
X4084455Y-52605000D01*
X4353726Y-52336199D01*
X4698607Y-51505634D01*
X4699392Y-50606312D01*
X4355961Y-49775146D01*
X3720599Y-49138674D01*
X2890034Y-48793793D01*
X1990712Y-48793008D01*
X1159546Y-49136439D01*
X735000Y-49560244D01*
X735000Y-39847389D01*
X1156201Y-40269326D01*
X1986766Y-40614207D01*
X2886088Y-40614992D01*
X3717254Y-40271561D01*
X4353726Y-39636199D01*
X4698607Y-38805634D01*
X4699392Y-37906312D01*
X4355961Y-37075146D01*
X3720599Y-36438674D01*
X2890034Y-36093793D01*
X1990712Y-36093008D01*
X1159546Y-36436439D01*
X735000Y-36860244D01*
X735000Y-30398589D01*
X1156201Y-30820526D01*
X1986766Y-31165407D01*
X2886088Y-31166192D01*
X3717254Y-30822761D01*
X4353726Y-30187399D01*
X4698607Y-29356834D01*
X4699392Y-28457512D01*
X4355961Y-27626346D01*
X3720599Y-26989874D01*
X2890034Y-26644993D01*
X1990712Y-26644208D01*
X1159546Y-26987639D01*
X735000Y-27411444D01*
X735000Y-17698589D01*
X1156201Y-18120526D01*
X1986766Y-18465407D01*
X2886088Y-18466192D01*
X3717254Y-18122761D01*
X4353726Y-17487399D01*
X4698607Y-16656834D01*
X4699392Y-15757512D01*
X4355961Y-14926346D01*
X3720599Y-14289874D01*
X2890034Y-13944993D01*
X1990712Y-13944208D01*
X1159546Y-14287639D01*
X735000Y-14711444D01*
X735000Y-1342390D01*
X789027Y-1070774D01*
X901879Y-901879D01*
X1070775Y-789027D01*
X1342389Y-735000D01*
X64850009Y-735000D01*
X65121625Y-789027D01*
X65290520Y-901879D01*
X65403372Y-1070775D01*
X65457400Y-1342389D01*
X65457400Y-12700000D01*
X65513349Y-12981272D01*
X65672677Y-13219723D01*
X67997400Y-15544446D01*
X67997400Y-47955553D01*
M02*
