G04 #@! TF.FileFunction,Copper,L1,Top,Signal*
%FSLAX46Y46*%
G04 Gerber Fmt 4.6, Leading zero omitted, Abs format (unit mm)*
G04 Created by KiCad (PCBNEW (2014-jul-16 BZR unknown)-product) date Ter 09 Dez 2014 18:00:34 BRST*
%MOMM*%
G01*
G04 APERTURE LIST*
%ADD10C,0.150000*%
%ADD11C,3.500000*%
%ADD12C,1.778000*%
%ADD13R,1.778000X1.778000*%
%ADD14C,1.600000*%
%ADD15R,1.600000X1.600000*%
%ADD16R,1.397000X0.889000*%
%ADD17R,0.889000X1.397000*%
%ADD18R,1.500000X2.600000*%
%ADD19R,1.016000X0.850900*%
%ADD20C,1.320800*%
%ADD21C,3.251200*%
%ADD22R,0.800100X1.000760*%
%ADD23R,0.599440X1.399540*%
%ADD24R,2.540000X1.270000*%
%ADD25C,0.889000*%
%ADD26C,0.635000*%
%ADD27C,0.762000*%
%ADD28C,1.016000*%
%ADD29C,1.270000*%
%ADD30C,0.508000*%
%ADD31C,0.381000*%
%ADD32C,0.304800*%
%ADD33C,0.254000*%
G04 APERTURE END LIST*
D10*
D11*
X63632400Y-44450000D03*
D12*
X63652400Y-50800000D03*
X61112400Y-50800000D03*
X58572400Y-50800000D03*
D13*
X50952400Y-50800000D03*
D12*
X53492400Y-50800000D03*
X56032400Y-50800000D03*
X63652400Y-48260000D03*
X61112400Y-48260000D03*
X58572400Y-48260000D03*
D13*
X50952400Y-48260000D03*
D12*
X53492400Y-48260000D03*
X56032400Y-48260000D03*
D14*
X4673600Y-34629600D03*
D15*
X4673600Y-32629600D03*
D16*
X1041400Y-34556700D03*
X1041400Y-32651700D03*
X67208400Y-42608500D03*
X67208400Y-40703500D03*
D17*
X15354300Y-8255000D03*
X13449300Y-8255000D03*
D16*
X67208400Y-36258500D03*
X67208400Y-38163500D03*
D17*
X41770300Y-44754800D03*
X39865300Y-44754800D03*
D14*
X20005800Y-40640000D03*
D15*
X22005800Y-40640000D03*
D17*
X32194500Y-44754800D03*
X34099500Y-44754800D03*
D14*
X20929600Y-33975800D03*
D15*
X20929600Y-35975800D03*
D18*
X15712400Y-45440000D03*
X20212400Y-45440000D03*
D19*
X11734800Y-12446000D03*
X15290800Y-12446000D03*
X6146800Y-12446000D03*
X2590800Y-12446000D03*
D12*
X18948400Y-2540000D03*
X26568400Y-2540000D03*
X29108400Y-2540000D03*
X24028400Y-2540000D03*
X21488400Y-2540000D03*
X31648400Y-2540000D03*
X34188400Y-2540000D03*
D13*
X41808400Y-2540000D03*
D12*
X39268400Y-2540000D03*
X36728400Y-2540000D03*
X18948400Y-5080000D03*
X26568400Y-5080000D03*
X29108400Y-5080000D03*
X24028400Y-5080000D03*
X21488400Y-5080000D03*
X31648400Y-5080000D03*
X34188400Y-5080000D03*
D13*
X41808400Y-5080000D03*
D12*
X39268400Y-5080000D03*
X36728400Y-5080000D03*
X48412400Y-2540000D03*
X50952400Y-2540000D03*
X45872400Y-2540000D03*
X53492400Y-2540000D03*
X56032400Y-2540000D03*
D13*
X63652400Y-2540000D03*
D12*
X61112400Y-2540000D03*
X58572400Y-2540000D03*
X48412400Y-5080000D03*
X50952400Y-5080000D03*
X45872400Y-5080000D03*
X53492400Y-5080000D03*
X56032400Y-5080000D03*
D13*
X63652400Y-5080000D03*
D12*
X61112400Y-5080000D03*
X58572400Y-5080000D03*
D20*
X11582400Y-29413200D03*
X11582400Y-27127200D03*
X11582400Y-17983200D03*
X11582400Y-15697200D03*
X6756400Y-18999200D03*
X6756400Y-21031200D03*
X6756400Y-23063200D03*
X6756400Y-25095200D03*
X4978400Y-22047200D03*
X4978400Y-24079200D03*
X4978400Y-20015200D03*
X4978400Y-26111200D03*
D21*
X2438400Y-28905200D03*
X2438400Y-16205200D03*
D20*
X11582400Y-51562000D03*
X11582400Y-49276000D03*
X11582400Y-40132000D03*
X11582400Y-37846000D03*
X6756400Y-41148000D03*
X6756400Y-43180000D03*
X6756400Y-45212000D03*
X6756400Y-47244000D03*
X4978400Y-44196000D03*
X4978400Y-46228000D03*
X4978400Y-42164000D03*
X4978400Y-48260000D03*
D21*
X2438400Y-51054000D03*
X2438400Y-38354000D03*
D13*
X58572400Y-10922000D03*
D12*
X58572400Y-8382000D03*
X61112400Y-10922000D03*
X61112400Y-8382000D03*
X63652400Y-10922000D03*
X63652400Y-8382000D03*
X43332400Y-50800000D03*
X40792400Y-50800000D03*
X45872400Y-50800000D03*
X38252400Y-50800000D03*
X35712400Y-50800000D03*
D13*
X28092400Y-50800000D03*
D12*
X30632400Y-50800000D03*
X33172400Y-50800000D03*
X43332400Y-48260000D03*
X40792400Y-48260000D03*
X45872400Y-48260000D03*
X38252400Y-48260000D03*
X35712400Y-48260000D03*
D13*
X28092400Y-48260000D03*
D12*
X30632400Y-48260000D03*
X33172400Y-48260000D03*
D13*
X63652400Y-29210000D03*
X61112400Y-29210000D03*
X58572400Y-29210000D03*
X56032400Y-29210000D03*
X53492400Y-29210000D03*
X50952400Y-29210000D03*
X48412400Y-29210000D03*
X40792400Y-29210000D03*
X38252400Y-29210000D03*
X43332400Y-29210000D03*
X45872400Y-29210000D03*
X35712400Y-29210000D03*
X33172400Y-29210000D03*
X25552400Y-29210000D03*
X28092400Y-29210000D03*
X30632400Y-29210000D03*
X30632400Y-31750000D03*
X28092400Y-31750000D03*
X25552400Y-31750000D03*
X33172400Y-31750000D03*
X35712400Y-31750000D03*
X45872400Y-31750000D03*
X43332400Y-31750000D03*
X38252400Y-31750000D03*
X40792400Y-31750000D03*
X48412400Y-31750000D03*
X50952400Y-31750000D03*
X53492400Y-31750000D03*
X56032400Y-31750000D03*
X58572400Y-31750000D03*
X61112400Y-31750000D03*
X63652400Y-31750000D03*
X63652400Y-26670000D03*
X61112400Y-26670000D03*
X58572400Y-26670000D03*
X56032400Y-26670000D03*
X53492400Y-26670000D03*
X50952400Y-26670000D03*
X48412400Y-26670000D03*
X40792400Y-26670000D03*
X38252400Y-26670000D03*
X43332400Y-26670000D03*
X45872400Y-26670000D03*
X35712400Y-26670000D03*
X33172400Y-26670000D03*
X25552400Y-26670000D03*
X28092400Y-26670000D03*
X30632400Y-26670000D03*
X30632400Y-24130000D03*
X28092400Y-24130000D03*
X25552400Y-24130000D03*
X33172400Y-24130000D03*
X35712400Y-24130000D03*
X45872400Y-24130000D03*
X43332400Y-24130000D03*
X38252400Y-24130000D03*
X40792400Y-24130000D03*
X48412400Y-24130000D03*
X50952400Y-24130000D03*
X53492400Y-24130000D03*
X56032400Y-24130000D03*
X58572400Y-24130000D03*
X61112400Y-24130000D03*
X63652400Y-24130000D03*
X63652400Y-21590000D03*
X61112400Y-21590000D03*
X58572400Y-21590000D03*
X56032400Y-21590000D03*
X53492400Y-21590000D03*
X50952400Y-21590000D03*
X48412400Y-21590000D03*
X40792400Y-21590000D03*
X38252400Y-21590000D03*
X43332400Y-21590000D03*
X45872400Y-21590000D03*
X35712400Y-21590000D03*
X33172400Y-21590000D03*
X25552400Y-21590000D03*
X28092400Y-21590000D03*
X30632400Y-21590000D03*
X30632400Y-19050000D03*
X28092400Y-19050000D03*
X25552400Y-19050000D03*
X33172400Y-19050000D03*
X35712400Y-19050000D03*
X45872400Y-19050000D03*
X43332400Y-19050000D03*
X38252400Y-19050000D03*
X40792400Y-19050000D03*
X48412400Y-19050000D03*
X50952400Y-19050000D03*
X53492400Y-19050000D03*
X56032400Y-19050000D03*
X58572400Y-19050000D03*
X61112400Y-19050000D03*
X63652400Y-19050000D03*
X63652400Y-16510000D03*
X61112400Y-16510000D03*
X58572400Y-16510000D03*
X56032400Y-16510000D03*
X53492400Y-16510000D03*
X50952400Y-16510000D03*
X48412400Y-16510000D03*
X40792400Y-16510000D03*
X38252400Y-16510000D03*
X43332400Y-16510000D03*
X45872400Y-16510000D03*
X35712400Y-16510000D03*
X33172400Y-16510000D03*
X25552400Y-16510000D03*
X28092400Y-16510000D03*
X30632400Y-16510000D03*
X30632400Y-13970000D03*
X28092400Y-13970000D03*
X25552400Y-13970000D03*
X33172400Y-13970000D03*
X35712400Y-13970000D03*
X45872400Y-13970000D03*
X43332400Y-13970000D03*
X38252400Y-13970000D03*
X40792400Y-13970000D03*
X48412400Y-13970000D03*
X50952400Y-13970000D03*
X53492400Y-13970000D03*
X56032400Y-13970000D03*
X58572400Y-13970000D03*
X61112400Y-13970000D03*
X63652400Y-13970000D03*
X63652400Y-38100000D03*
X61112400Y-38100000D03*
X58572400Y-38100000D03*
X56032400Y-38100000D03*
X53492400Y-38100000D03*
X50952400Y-38100000D03*
X48412400Y-38100000D03*
X40792400Y-38100000D03*
X38252400Y-38100000D03*
X43332400Y-38100000D03*
X45872400Y-38100000D03*
X35712400Y-38100000D03*
X33172400Y-38100000D03*
X25552400Y-38100000D03*
X28092400Y-38100000D03*
X30632400Y-38100000D03*
X63652400Y-40640000D03*
X61112400Y-40640000D03*
X58572400Y-40640000D03*
X56032400Y-40640000D03*
X53492400Y-40640000D03*
X50952400Y-40640000D03*
X48412400Y-40640000D03*
X40792400Y-40640000D03*
X38252400Y-40640000D03*
X43332400Y-40640000D03*
X45872400Y-40640000D03*
X35712400Y-40640000D03*
X33172400Y-40640000D03*
X25552400Y-40640000D03*
X28092400Y-40640000D03*
X30632400Y-40640000D03*
X63652400Y-35560000D03*
X61112400Y-35560000D03*
X58572400Y-35560000D03*
X56032400Y-35560000D03*
X53492400Y-35560000D03*
X50952400Y-35560000D03*
X48412400Y-35560000D03*
X40792400Y-35560000D03*
X38252400Y-35560000D03*
X43332400Y-35560000D03*
X45872400Y-35560000D03*
X35712400Y-35560000D03*
X33172400Y-35560000D03*
X25552400Y-35560000D03*
X28092400Y-35560000D03*
X30632400Y-35560000D03*
D22*
X18612400Y-29449820D03*
X17659900Y-27250180D03*
X19564900Y-27250180D03*
D17*
X9893300Y-34036000D03*
X7988300Y-34036000D03*
D16*
X9956800Y-12001500D03*
X9956800Y-10096500D03*
X7924800Y-12001500D03*
X7924800Y-10096500D03*
D17*
X13449300Y-10160000D03*
X15354300Y-10160000D03*
X4305300Y-10033000D03*
X6210300Y-10033000D03*
D16*
X20632400Y-12687500D03*
X20632400Y-14592500D03*
X16182400Y-1387500D03*
X16182400Y-3292500D03*
X19562400Y-25282500D03*
X19562400Y-23377500D03*
D17*
X13679900Y-49280000D03*
X15584900Y-49280000D03*
X13679900Y-37850000D03*
X15584900Y-37850000D03*
X13679900Y-27130000D03*
X15584900Y-27130000D03*
X13679900Y-15700000D03*
X15584900Y-15700000D03*
X18729900Y-7590000D03*
X20634900Y-7590000D03*
X12409900Y-1400000D03*
X14314900Y-1400000D03*
X18729900Y-9610000D03*
X20634900Y-9610000D03*
D23*
X10845800Y-8128000D03*
X10845800Y-2794000D03*
X9575800Y-8128000D03*
X8305800Y-8128000D03*
X7035800Y-8128000D03*
X9575800Y-2794000D03*
X8305800Y-2794000D03*
X7035800Y-2794000D03*
D13*
X22992400Y-8120000D03*
D12*
X25532400Y-8120000D03*
D17*
X29764900Y-8120000D03*
X27859900Y-8120000D03*
D24*
X23292400Y-49124000D03*
X23292400Y-46076000D03*
D25*
X13742400Y-36170000D03*
X13852400Y-43770000D03*
X13852400Y-46990000D03*
X22021800Y-40640000D03*
X16982400Y-10680000D03*
X13432400Y-6780000D03*
X31038800Y-44754800D03*
X42926000Y-44754800D03*
X67208400Y-43637200D03*
X67208400Y-35204400D03*
X5994400Y-8128000D03*
D26*
X1689100Y-12446000D03*
D25*
X17662400Y-26040000D03*
X15354300Y-11460000D03*
X14802400Y-6780000D03*
X28802400Y-6770000D03*
X23502400Y-22280000D03*
X19562400Y-22280000D03*
X30882400Y-10970000D03*
X30882400Y-8830000D03*
D26*
X9677400Y-21031200D03*
D25*
X9142400Y-43180000D03*
X10462400Y-43980000D03*
X10462400Y-46840000D03*
X17082400Y-5380000D03*
X20962400Y-17980000D03*
X17542400Y-36780000D03*
X17542400Y-38960000D03*
X20962400Y-21460000D03*
X18232400Y-11270000D03*
D27*
X1041400Y-32651700D02*
X4651500Y-32651700D01*
X4651500Y-32651700D02*
X4673600Y-32629600D01*
D28*
X4673600Y-32629600D02*
X6400800Y-32629600D01*
X6400800Y-32629600D02*
X6400800Y-32613600D01*
D29*
X4978400Y-26111200D02*
X5740400Y-26111200D01*
X5740400Y-26111200D02*
X6400800Y-25450800D01*
X6400800Y-25450800D02*
X6756400Y-25095200D01*
X6400800Y-38252400D02*
X6400800Y-32613600D01*
X6400800Y-32613600D02*
X6400800Y-25450800D01*
X3149600Y-41503600D02*
X6400800Y-38252400D01*
X3149600Y-46939200D02*
X4470400Y-48260000D01*
X4978400Y-48260000D02*
X4470400Y-48260000D01*
X3149600Y-46939200D02*
X3149600Y-41503600D01*
X6400800Y-25450800D02*
X6756400Y-25095200D01*
D27*
X6756400Y-47244000D02*
X5994400Y-47244000D01*
X5994400Y-47244000D02*
X4978400Y-48260000D01*
D29*
X7388400Y-47244000D02*
X9192400Y-45440000D01*
X9192400Y-45440000D02*
X15712400Y-45440000D01*
X6756400Y-47244000D02*
X7388400Y-47244000D01*
D27*
X34099500Y-44754800D02*
X35712400Y-44754800D01*
X35712400Y-44754800D02*
X35712400Y-44856400D01*
D29*
X35712400Y-48260000D02*
X35712400Y-44856400D01*
X35712400Y-44856400D02*
X35712400Y-43865800D01*
X23698200Y-38125400D02*
X23723600Y-38100000D01*
X24587200Y-42875200D02*
X23698200Y-41986200D01*
X35712400Y-43865800D02*
X34721800Y-42875200D01*
X23698200Y-41986200D02*
X23698200Y-38125400D01*
X23822400Y-38100000D02*
X25552400Y-38100000D01*
X23723600Y-38100000D02*
X23822400Y-38100000D01*
D30*
X67208400Y-38163500D02*
X63715900Y-38163500D01*
X63715900Y-38163500D02*
X63652400Y-38100000D01*
D28*
X35775900Y-48196500D02*
X35712400Y-48260000D01*
D27*
X35775900Y-48196500D02*
X35712400Y-48260000D01*
D28*
X61112400Y-38100000D02*
X63652400Y-38100000D01*
X58572400Y-38100000D02*
X61112400Y-38100000D01*
X56032400Y-38100000D02*
X58572400Y-38100000D01*
X53492400Y-38100000D02*
X56032400Y-38100000D01*
X50952400Y-38100000D02*
X53492400Y-38100000D01*
X48412400Y-38100000D02*
X50952400Y-38100000D01*
X45872400Y-38100000D02*
X48412400Y-38100000D01*
X43332400Y-38100000D02*
X45872400Y-38100000D01*
X40792400Y-38100000D02*
X43332400Y-38100000D01*
X38252400Y-38100000D02*
X40792400Y-38100000D01*
X35712400Y-38100000D02*
X38252400Y-38100000D01*
X33172400Y-38100000D02*
X35712400Y-38100000D01*
X30632400Y-38100000D02*
X33172400Y-38100000D01*
X28092400Y-38100000D02*
X30632400Y-38100000D01*
X25552400Y-38100000D02*
X28092400Y-38100000D01*
D29*
X35712400Y-50800000D02*
X35712400Y-48260000D01*
X34721800Y-42875200D02*
X24587200Y-42875200D01*
D28*
X21698200Y-35975800D02*
X23822400Y-38100000D01*
X20929600Y-35975800D02*
X21698200Y-35975800D01*
D30*
X13449300Y-8255000D02*
X13462000Y-8255000D01*
X10845800Y-8128000D02*
X13322300Y-8128000D01*
X13322300Y-8128000D02*
X13449300Y-8255000D01*
X13322300Y-8128000D02*
X13449300Y-8255000D01*
X13852400Y-46990000D02*
X15584900Y-48722500D01*
X15584900Y-37850000D02*
X15584900Y-41437500D01*
X13852400Y-43170000D02*
X13852400Y-43770000D01*
X15584900Y-41437500D02*
X13852400Y-43170000D01*
X15584900Y-48722500D02*
X15584900Y-49280000D01*
D27*
X39865300Y-44754800D02*
X38252400Y-44754800D01*
D29*
X38252400Y-48260000D02*
X38252400Y-44754800D01*
X38252400Y-44754800D02*
X38252400Y-40640000D01*
D30*
X67208400Y-40703500D02*
X63715900Y-40703500D01*
X63715900Y-40703500D02*
X63652400Y-40640000D01*
D29*
X33172400Y-40640000D02*
X35712400Y-40640000D01*
X30632400Y-40640000D02*
X33172400Y-40640000D01*
X28092400Y-40640000D02*
X30632400Y-40640000D01*
X25552400Y-40640000D02*
X28092400Y-40640000D01*
X35712400Y-40640000D02*
X38252400Y-40640000D01*
D28*
X38252400Y-40640000D02*
X40792400Y-40640000D01*
X40792400Y-40640000D02*
X43332400Y-40640000D01*
X43332400Y-40640000D02*
X45872400Y-40640000D01*
X50952400Y-40640000D02*
X48412400Y-40640000D01*
X48412400Y-40640000D02*
X45872400Y-40640000D01*
X53492400Y-40640000D02*
X50952400Y-40640000D01*
X56032400Y-40640000D02*
X53492400Y-40640000D01*
X58572400Y-40640000D02*
X56032400Y-40640000D01*
X61112400Y-40640000D02*
X58572400Y-40640000D01*
D29*
X38252400Y-50800000D02*
X38252400Y-48260000D01*
D28*
X63652400Y-40640000D02*
X61112400Y-40640000D01*
D30*
X15584900Y-27130000D02*
X15584900Y-15700000D01*
X13432400Y-8238100D02*
X13449300Y-8255000D01*
D28*
X16982400Y-15760000D02*
X16982400Y-10680000D01*
X18952400Y-32970000D02*
X22322400Y-29600000D01*
X22322400Y-29600000D02*
X22322400Y-21100000D01*
X22322400Y-21100000D02*
X16982400Y-15760000D01*
D30*
X13432400Y-8238100D02*
X13432400Y-6780000D01*
D31*
X13358000Y-6705600D02*
X13432400Y-6780000D01*
X4305300Y-10033000D02*
X4305300Y-8089900D01*
X5689600Y-6705600D02*
X4305300Y-8089900D01*
X5689600Y-6705600D02*
X13358000Y-6705600D01*
D30*
X16922400Y-15700000D02*
X16982400Y-15760000D01*
X15584900Y-15700000D02*
X16922400Y-15700000D01*
D28*
X18952400Y-37110000D02*
X18952400Y-32970000D01*
X22005800Y-40163400D02*
X18952400Y-37110000D01*
X22005800Y-40640000D02*
X22005800Y-40163400D01*
D30*
X18852400Y-37110000D02*
X18112400Y-37850000D01*
X18112400Y-37850000D02*
X15584900Y-37850000D01*
X18952400Y-37110000D02*
X18852400Y-37110000D01*
D28*
X50952400Y-50800000D02*
X50952400Y-48260000D01*
X53492400Y-48260000D02*
X53492400Y-50800000D01*
X56032400Y-50800000D02*
X56032400Y-48260000D01*
X58572400Y-48260000D02*
X58572400Y-50800000D01*
X61112400Y-50800000D02*
X61112400Y-48260000D01*
X21488400Y-2540000D02*
X21488400Y-5080000D01*
X63652400Y-48260000D02*
X63652400Y-50800000D01*
X18948400Y-2540000D02*
X18948400Y-5080000D01*
X24028400Y-2540000D02*
X24028400Y-5080000D01*
D30*
X15354300Y-11460000D02*
X15354300Y-12278360D01*
X15354300Y-10160000D02*
X15354300Y-11460000D01*
X15354300Y-12278360D02*
X15186660Y-12446000D01*
D27*
X32194500Y-44754800D02*
X31038800Y-44754800D01*
X41770300Y-44754800D02*
X42926000Y-44754800D01*
X1041400Y-34556700D02*
X4600700Y-34556700D01*
X4600700Y-34556700D02*
X4673600Y-34629600D01*
X6756400Y-18999200D02*
X5994400Y-18999200D01*
X5994400Y-18999200D02*
X4978400Y-20015200D01*
D30*
X67208400Y-42608500D02*
X67208400Y-43637200D01*
X67208400Y-36258500D02*
X67208400Y-35204400D01*
D31*
X7035800Y-8128000D02*
X5994400Y-8128000D01*
D30*
X15354300Y-8255000D02*
X15354300Y-10160000D01*
D27*
X6756400Y-41148000D02*
X5994400Y-41148000D01*
X5994400Y-41148000D02*
X4978400Y-42164000D01*
D28*
X26568400Y-2540000D02*
X26568400Y-5080000D01*
D30*
X2694940Y-12446000D02*
X1689100Y-12446000D01*
X17659900Y-26042500D02*
X17662400Y-26040000D01*
X17659900Y-27250180D02*
X17659900Y-26042500D01*
X15354300Y-7331900D02*
X14802400Y-6780000D01*
X15354300Y-8255000D02*
X15354300Y-7331900D01*
X29764900Y-7732500D02*
X28802400Y-6770000D01*
D32*
X29764900Y-8120000D02*
X29764900Y-7732500D01*
D33*
X63652400Y-5080000D02*
X63652400Y-5842000D01*
D28*
X63652400Y-2540000D02*
X63652400Y-5080000D01*
D32*
X63652400Y-5080000D02*
X63652400Y-8382000D01*
D33*
X61112400Y-5080000D02*
X61112400Y-5842000D01*
D28*
X61112400Y-2540000D02*
X61112400Y-5080000D01*
D32*
X61112400Y-6120000D02*
X62372400Y-7380000D01*
X62372400Y-7380000D02*
X62372400Y-9642000D01*
X62372400Y-9642000D02*
X63652400Y-10922000D01*
X61112400Y-5080000D02*
X61112400Y-6120000D01*
D28*
X36728400Y-2540000D02*
X36728400Y-5080000D01*
X34188400Y-2540000D02*
X34188400Y-5080000D01*
X31648400Y-2540000D02*
X31648400Y-5080000D01*
X29108400Y-2540000D02*
X29108400Y-5080000D01*
D32*
X29108400Y-5080000D02*
X29108400Y-5106000D01*
X25262400Y-10970000D02*
X23502400Y-12730000D01*
X19562400Y-22280000D02*
X19562400Y-23377500D01*
X23502400Y-22280000D02*
X23502400Y-12730000D01*
X29108400Y-5106000D02*
X30882400Y-6880000D01*
X30882400Y-6880000D02*
X30882400Y-8830000D01*
X30882400Y-10970000D02*
X25262400Y-10970000D01*
D28*
X58572400Y-2540000D02*
X58572400Y-5080000D01*
D31*
X58572400Y-2540000D02*
X58562400Y-2540000D01*
X16169900Y-1400000D02*
X16182400Y-1387500D01*
X14314900Y-1400000D02*
X16169900Y-1400000D01*
X17912400Y-900000D02*
X17424900Y-1387500D01*
X17424900Y-1387500D02*
X16182400Y-1387500D01*
X58562400Y-2540000D02*
X56922400Y-900000D01*
X56922400Y-900000D02*
X17912400Y-900000D01*
D28*
X56032400Y-2540000D02*
X56032400Y-5080000D01*
D32*
X56032400Y-5842000D02*
X58572400Y-8382000D01*
X56032400Y-5080000D02*
X56032400Y-5842000D01*
D28*
X53492400Y-2540000D02*
X53492400Y-5080000D01*
X50952400Y-2540000D02*
X50952400Y-5080000D01*
X48412400Y-2540000D02*
X48412400Y-5080000D01*
X45872400Y-2540000D02*
X45872400Y-5080000D01*
X41808400Y-2540000D02*
X41808400Y-5080000D01*
X39268400Y-2540000D02*
X39268400Y-5080000D01*
D29*
X33172400Y-50800000D02*
X33172400Y-48260000D01*
D30*
X8178800Y-44297600D02*
X8178800Y-34226500D01*
X7264400Y-45212000D02*
X8178800Y-44297600D01*
X6756400Y-45212000D02*
X7264400Y-45212000D01*
X8178800Y-34226500D02*
X7988300Y-34036000D01*
X8178800Y-22758400D02*
X8178800Y-33845500D01*
X8178800Y-33845500D02*
X7988300Y-34036000D01*
X8153400Y-33870900D02*
X7988300Y-34036000D01*
X6756400Y-23063200D02*
X8153400Y-23063200D01*
X8153400Y-23063200D02*
X8178800Y-23037800D01*
X8178800Y-23037800D02*
X8178800Y-22758400D01*
X8178800Y-22758400D02*
X8178800Y-12255500D01*
X8178800Y-12255500D02*
X7924800Y-12001500D01*
X6756400Y-23063200D02*
X7035800Y-23063200D01*
D27*
X6756400Y-23063200D02*
X5994400Y-23063200D01*
X5994400Y-23063200D02*
X4978400Y-24079200D01*
D30*
X7988300Y-34036000D02*
X8178800Y-33845500D01*
X7823200Y-12103100D02*
X7924800Y-12001500D01*
X7924800Y-12001500D02*
X6487160Y-12001500D01*
X7937500Y-12014200D02*
X7924800Y-12001500D01*
D27*
X6756400Y-45212000D02*
X5994400Y-45212000D01*
X5994400Y-45212000D02*
X4978400Y-46228000D01*
D30*
X6487160Y-12001500D02*
X6042660Y-12446000D01*
X9677400Y-21031200D02*
X9702800Y-21031200D01*
D27*
X6756400Y-21031200D02*
X5994400Y-21031200D01*
X5994400Y-21031200D02*
X4978400Y-22047200D01*
D30*
X9702800Y-21031200D02*
X9702800Y-12255500D01*
X9702800Y-12255500D02*
X9956800Y-12001500D01*
X9702800Y-34226500D02*
X9893300Y-34036000D01*
X9702800Y-33845500D02*
X9893300Y-34036000D01*
X9842500Y-12115800D02*
X9956800Y-12001500D01*
D27*
X6756400Y-43180000D02*
X5994400Y-43180000D01*
X5994400Y-43180000D02*
X4978400Y-44196000D01*
D30*
X11290300Y-12001500D02*
X9956800Y-12001500D01*
X11838940Y-12446000D02*
X11734800Y-12446000D01*
X11734800Y-12446000D02*
X11290300Y-12001500D01*
X9702800Y-33845500D02*
X9893300Y-34036000D01*
X9702800Y-22402800D02*
X9702800Y-21031200D01*
X9702800Y-33845500D02*
X9702800Y-22402800D01*
X9702800Y-34226500D02*
X9893300Y-34036000D01*
X9702800Y-42619600D02*
X9142400Y-43180000D01*
X9702800Y-34226500D02*
X9702800Y-42619600D01*
D32*
X61112400Y-8382000D02*
X61112400Y-8570000D01*
X24522400Y-9650000D02*
X22992400Y-8120000D01*
X61112400Y-8570000D02*
X60032400Y-9650000D01*
X60032400Y-9650000D02*
X24522400Y-9650000D01*
X22462400Y-7590000D02*
X22992400Y-8120000D01*
X20634900Y-7590000D02*
X22462400Y-7590000D01*
X61112400Y-10922000D02*
X61110400Y-10922000D01*
D30*
X20634900Y-12685000D02*
X20632400Y-12687500D01*
X20634900Y-9610000D02*
X20634900Y-12685000D01*
D32*
X20634900Y-10007500D02*
X20634900Y-9610000D01*
X20484398Y-10158002D02*
X20634900Y-10007500D01*
X56952400Y-12260000D02*
X54850402Y-10158002D01*
X54850402Y-10158002D02*
X20484398Y-10158002D01*
X61110400Y-10922000D02*
X59772400Y-12260000D01*
X59772400Y-12260000D02*
X56952400Y-12260000D01*
D28*
X45872400Y-50800000D02*
X45872400Y-51155600D01*
D29*
X45872400Y-48260000D02*
X45872400Y-50800000D01*
X23296400Y-49128000D02*
X23292400Y-49124000D01*
X45872400Y-51830000D02*
X45872400Y-50800000D01*
X45142400Y-52560000D02*
X45872400Y-51830000D01*
X24472400Y-52560000D02*
X45142400Y-52560000D01*
X23296400Y-51384000D02*
X24472400Y-52560000D01*
X23296400Y-49128000D02*
X23296400Y-51384000D01*
X20248400Y-45476000D02*
X20212400Y-45440000D01*
X20212400Y-45892000D02*
X20212400Y-45440000D01*
X20396400Y-46076000D02*
X20212400Y-45892000D01*
X23292400Y-46076000D02*
X20396400Y-46076000D01*
D30*
X18575780Y-29413200D02*
X18612400Y-29449820D01*
X11582400Y-29413200D02*
X18575780Y-29413200D01*
X10462400Y-50442000D02*
X11582400Y-51562000D01*
X11582400Y-35081602D02*
X10462400Y-36201602D01*
X11582400Y-29413200D02*
X11582400Y-35081602D01*
X10462400Y-43980000D02*
X10462400Y-36201602D01*
X10462400Y-46840000D02*
X10462400Y-50442000D01*
X13677100Y-27127200D02*
X13679900Y-27130000D01*
X11582400Y-27127200D02*
X13677100Y-27127200D01*
X11607800Y-15722600D02*
X11582400Y-15697200D01*
X11585200Y-15700000D02*
X11582400Y-15697200D01*
X13679900Y-15700000D02*
X11585200Y-15700000D01*
X11586400Y-49280000D02*
X11582400Y-49276000D01*
X13679900Y-49280000D02*
X11586400Y-49280000D01*
X13675900Y-37846000D02*
X13679900Y-37850000D01*
X11582400Y-37846000D02*
X13675900Y-37846000D01*
D28*
X30695900Y-48196500D02*
X30632400Y-48260000D01*
D27*
X30695900Y-48196500D02*
X30632400Y-48260000D01*
D29*
X30632400Y-50800000D02*
X30632400Y-48260000D01*
D30*
X17082400Y-5380000D02*
X16182400Y-4480000D01*
X16182400Y-4480000D02*
X16182400Y-3292500D01*
X20962400Y-17980000D02*
X20962400Y-17970000D01*
X17542400Y-36780000D02*
X17542400Y-32680000D01*
X30632400Y-48260000D02*
X30632400Y-46680000D01*
X17542400Y-40730000D02*
X17542400Y-38960000D01*
X19582400Y-42770000D02*
X17542400Y-40730000D01*
X21832400Y-42770000D02*
X19582400Y-42770000D01*
X23432400Y-44370000D02*
X21832400Y-42770000D01*
X28322400Y-44370000D02*
X23432400Y-44370000D01*
X30632400Y-46680000D02*
X28322400Y-44370000D01*
D27*
X20972400Y-21470000D02*
X20962400Y-21460000D01*
D30*
X20972400Y-29250000D02*
X20972400Y-21470000D01*
X17542400Y-32680000D02*
X20972400Y-29250000D01*
X18232400Y-15240000D02*
X18232400Y-11270000D01*
X19552400Y-16560000D02*
X18232400Y-15240000D01*
X20962400Y-17970000D02*
X19552400Y-16560000D01*
X20632400Y-15480000D02*
X19552400Y-16560000D01*
X20632400Y-14592500D02*
X20632400Y-15480000D01*
X19562400Y-27247680D02*
X19564900Y-27250180D01*
X19562400Y-25282500D02*
X19562400Y-27247680D01*
X9956800Y-10096500D02*
X13385800Y-10096500D01*
X13385800Y-10096500D02*
X13449300Y-10160000D01*
X9575800Y-8128000D02*
X9575800Y-9715500D01*
X9575800Y-9715500D02*
X9956800Y-10096500D01*
X7924800Y-10096500D02*
X6273800Y-10096500D01*
X6273800Y-10096500D02*
X6210300Y-10033000D01*
X8305800Y-8128000D02*
X8305800Y-9715500D01*
X8305800Y-9715500D02*
X7924800Y-10096500D01*
D31*
X13266400Y-2794000D02*
X18062400Y-7590000D01*
X18062400Y-7590000D02*
X18729900Y-7590000D01*
X10845800Y-2794000D02*
X13266400Y-2794000D01*
X8305800Y-2794000D02*
X9575800Y-2794000D01*
X9575800Y-2794000D02*
X9575800Y-3253400D01*
X9575800Y-1986600D02*
X10162400Y-1400000D01*
X10162400Y-1400000D02*
X12409900Y-1400000D01*
X9575800Y-2794000D02*
X9575800Y-1986600D01*
X7035800Y-2794000D02*
X7035800Y-3473400D01*
X16732400Y-8270000D02*
X18072400Y-9610000D01*
X18072400Y-9610000D02*
X18729900Y-9610000D01*
X7035800Y-3473400D02*
X7962400Y-4400000D01*
X7962400Y-4400000D02*
X13812400Y-4400000D01*
X13812400Y-4400000D02*
X16732400Y-7320000D01*
X16732400Y-7320000D02*
X16732400Y-8270000D01*
D30*
X25532400Y-8120000D02*
X27859900Y-8120000D01*
M02*
