M48
;DRILL file {kicad (2014-jul-16 BZR unknown)-product} date Ter 09 Dez 2014 18:41:33 BRST
;FORMAT={-:-/ absolute / inch / decimal}
FMAT,2
INCH,TZ
T1C0.015
T2C0.025
T3C0.028
T4C0.035
T5C0.040
T6C0.118
T7C0.128
%
G90
G05
M72
T1
X3.8605Y-3.09
X4.175Y-3.428
T2
X4.03Y-2.92
X4.1539Y-4.3
X4.2059Y-4.3315
X4.2059Y-4.4441
X4.3228Y-2.8669
X4.335Y-4.024
X4.3394Y-4.3232
X4.3394Y-4.45
X4.3768Y-2.8669
X4.3985Y-3.0512
X4.4626Y-3.0205
X4.4665Y-2.8118
X4.4846Y-4.048
X4.4846Y-4.1339
X4.4894Y-3.6252
X4.5118Y-3.0437
X4.5642Y-3.4772
X4.6193Y-3.3079
X4.6193Y-3.4449
X4.661Y-4.2
X4.7193Y-3.4772
X4.928Y-2.8665
X5.0098Y-2.9476
X5.0098Y-3.0319
X5.016Y-4.362
X5.484Y-4.362
X6.44Y-3.986
X6.44Y-4.318
T3
X3.978Y-3.8846
X3.978Y-3.9634
X4.5816Y-4.2
X4.618Y-3.9376
X4.618Y-4.0164
X4.6604Y-4.2
T4
X3.99Y-3.388
X3.99Y-3.468
X3.99Y-3.548
X3.99Y-3.628
X3.99Y-4.26
X3.99Y-4.34
X3.99Y-4.42
X3.99Y-4.5
X4.06Y-3.348
X4.06Y-3.428
X4.06Y-3.508
X4.06Y-3.588
X4.06Y-4.22
X4.06Y-4.3
X4.06Y-4.38
X4.06Y-4.46
X4.25Y-3.218
X4.25Y-3.308
X4.25Y-3.668
X4.25Y-3.758
X4.25Y-4.09
X4.25Y-4.18
X4.25Y-4.54
X4.25Y-4.63
T5
X4.54Y-2.7
X4.54Y-2.8
X4.64Y-2.7
X4.64Y-2.8
X4.6992Y-2.9197
X4.74Y-2.7
X4.74Y-2.8
X4.7992Y-2.9197
X4.8Y-3.15
X4.8Y-3.25
X4.8Y-3.35
X4.8Y-3.45
X4.8Y-3.55
X4.8Y-3.65
X4.8Y-3.75
X4.8Y-3.85
X4.8Y-4.
X4.8Y-4.1
X4.8Y-4.2
X4.84Y-2.7
X4.84Y-2.8
X4.9Y-3.15
X4.9Y-3.25
X4.9Y-3.35
X4.9Y-3.45
X4.9Y-3.55
X4.9Y-3.65
X4.9Y-3.75
X4.9Y-3.85
X4.9Y-4.
X4.9Y-4.1
X4.9Y-4.2
X4.9Y-4.5
X4.9Y-4.6
X4.94Y-2.7
X4.94Y-2.8
X5.Y-3.15
X5.Y-3.25
X5.Y-3.35
X5.Y-3.45
X5.Y-3.55
X5.Y-3.65
X5.Y-3.75
X5.Y-3.85
X5.Y-4.
X5.Y-4.1
X5.Y-4.2
X5.Y-4.5
X5.Y-4.6
X5.04Y-2.7
X5.04Y-2.8
X5.1Y-3.15
X5.1Y-3.25
X5.1Y-3.35
X5.1Y-3.45
X5.1Y-3.55
X5.1Y-3.65
X5.1Y-3.75
X5.1Y-3.85
X5.1Y-4.
X5.1Y-4.1
X5.1Y-4.2
X5.1Y-4.5
X5.1Y-4.6
X5.14Y-2.7
X5.14Y-2.8
X5.2Y-3.15
X5.2Y-3.25
X5.2Y-3.35
X5.2Y-3.45
X5.2Y-3.55
X5.2Y-3.65
X5.2Y-3.75
X5.2Y-3.85
X5.2Y-4.
X5.2Y-4.1
X5.2Y-4.2
X5.2Y-4.5
X5.2Y-4.6
X5.24Y-2.7
X5.24Y-2.8
X5.3Y-3.15
X5.3Y-3.25
X5.3Y-3.35
X5.3Y-3.45
X5.3Y-3.55
X5.3Y-3.65
X5.3Y-3.75
X5.3Y-3.85
X5.3Y-4.
X5.3Y-4.1
X5.3Y-4.2
X5.3Y-4.5
X5.3Y-4.6
X5.34Y-2.7
X5.34Y-2.8
X5.4Y-3.15
X5.4Y-3.25
X5.4Y-3.35
X5.4Y-3.45
X5.4Y-3.55
X5.4Y-3.65
X5.4Y-3.75
X5.4Y-3.85
X5.4Y-4.
X5.4Y-4.1
X5.4Y-4.2
X5.4Y-4.5
X5.4Y-4.6
X5.44Y-2.7
X5.44Y-2.8
X5.5Y-3.15
X5.5Y-3.25
X5.5Y-3.35
X5.5Y-3.45
X5.5Y-3.55
X5.5Y-3.65
X5.5Y-3.75
X5.5Y-3.85
X5.5Y-4.
X5.5Y-4.1
X5.5Y-4.2
X5.5Y-4.5
X5.5Y-4.6
X5.6Y-2.7
X5.6Y-2.8
X5.6Y-3.15
X5.6Y-3.25
X5.6Y-3.35
X5.6Y-3.45
X5.6Y-3.55
X5.6Y-3.65
X5.6Y-3.75
X5.6Y-3.85
X5.6Y-4.
X5.6Y-4.1
X5.6Y-4.2
X5.6Y-4.5
X5.6Y-4.6
X5.7Y-2.7
X5.7Y-2.8
X5.7Y-3.15
X5.7Y-3.25
X5.7Y-3.35
X5.7Y-3.45
X5.7Y-3.55
X5.7Y-3.65
X5.7Y-3.75
X5.7Y-3.85
X5.7Y-4.
X5.7Y-4.1
X5.7Y-4.2
X5.8Y-2.7
X5.8Y-2.8
X5.8Y-3.15
X5.8Y-3.25
X5.8Y-3.35
X5.8Y-3.45
X5.8Y-3.55
X5.8Y-3.65
X5.8Y-3.75
X5.8Y-3.85
X5.8Y-4.
X5.8Y-4.1
X5.8Y-4.2
X5.8Y-4.5
X5.8Y-4.6
X5.9Y-2.7
X5.9Y-2.8
X5.9Y-3.15
X5.9Y-3.25
X5.9Y-3.35
X5.9Y-3.45
X5.9Y-3.55
X5.9Y-3.65
X5.9Y-3.75
X5.9Y-3.85
X5.9Y-4.
X5.9Y-4.1
X5.9Y-4.2
X5.9Y-4.5
X5.9Y-4.6
X6.Y-2.7
X6.Y-2.8
X6.Y-3.15
X6.Y-3.25
X6.Y-3.35
X6.Y-3.45
X6.Y-3.55
X6.Y-3.65
X6.Y-3.75
X6.Y-3.85
X6.Y-4.
X6.Y-4.1
X6.Y-4.2
X6.Y-4.5
X6.Y-4.6
X6.1Y-2.7
X6.1Y-2.8
X6.1Y-2.93
X6.1Y-3.03
X6.1Y-3.15
X6.1Y-3.25
X6.1Y-3.35
X6.1Y-3.45
X6.1Y-3.55
X6.1Y-3.65
X6.1Y-3.75
X6.1Y-3.85
X6.1Y-4.
X6.1Y-4.1
X6.1Y-4.2
X6.1Y-4.5
X6.1Y-4.6
X6.2Y-2.7
X6.2Y-2.8
X6.2Y-2.93
X6.2Y-3.03
X6.2Y-3.15
X6.2Y-3.25
X6.2Y-3.35
X6.2Y-3.45
X6.2Y-3.55
X6.2Y-3.65
X6.2Y-3.75
X6.2Y-3.85
X6.2Y-4.
X6.2Y-4.1
X6.2Y-4.2
X6.2Y-4.5
X6.2Y-4.6
X6.3Y-2.7
X6.3Y-2.8
X6.3Y-2.93
X6.3Y-3.03
X6.3Y-3.15
X6.3Y-3.25
X6.3Y-3.35
X6.3Y-3.45
X6.3Y-3.55
X6.3Y-3.65
X6.3Y-3.75
X6.3Y-3.85
X6.3Y-4.
X6.3Y-4.1
X6.3Y-4.2
X6.3Y-4.5
X6.3Y-4.6
T6
X6.2992Y-4.35
T7
X3.89Y-3.238
X3.89Y-3.738
X3.89Y-4.11
X3.89Y-4.61
T0
M30
