%FSLAX34Y34*%
G04 Gerber Fmt 3.4, Leading zero omitted, Abs format*
G04 (created by PCBNEW (2014-03-19 BZR 4756)-product) date Tue 16 Sep 2014 15:57:47 BRT*
%MOIN*%
G01*
G70*
G90*
G04 APERTURE LIST*
%ADD10C,0.005000*%
%ADD11C,0.007874*%
%ADD12C,0.011811*%
G04 APERTURE END LIST*
G54D10*
G54D11*
X500Y0D02*
X25570Y0D01*
X0Y-20500D02*
X0Y-500D01*
X25560Y-21000D02*
G75*
G03X26060Y-20500I0J500D01*
G74*
G01*
X26060Y-500D02*
G75*
G03X25560Y0I-500J0D01*
G74*
G01*
X26060Y-20000D02*
X26060Y-20500D01*
X27060Y-19000D02*
X26060Y-20000D01*
X27060Y-6000D02*
X27060Y-19000D01*
X26060Y-5000D02*
X27060Y-6000D01*
X26060Y-500D02*
X26060Y-5000D01*
X500Y0D02*
G75*
G03X0Y-500I0J-500D01*
G74*
G01*
X0Y-20500D02*
G75*
G03X500Y-21000I500J0D01*
G74*
G01*
X520Y-21000D02*
X25520Y-21000D01*
G54D11*
X590Y-4825D02*
X740Y-4975D01*
X740Y-4825D02*
X590Y-4975D01*
X3735Y-8205D02*
X3885Y-8355D01*
X3885Y-8205D02*
X3735Y-8355D01*
X2485Y-3200D02*
G75*
G03X2485Y-3200I-125J0D01*
G74*
G01*
X3724Y-17000D02*
G75*
G03X3724Y-17000I-125J0D01*
G74*
G01*
X4244Y-17314D02*
G75*
G03X4244Y-17314I-125J0D01*
G74*
G01*
X4244Y-18440D02*
G75*
G03X4244Y-18440I-125J0D01*
G74*
G01*
X5413Y-2669D02*
G75*
G03X5413Y-2669I-125J0D01*
G74*
G01*
X5535Y-14240D02*
G75*
G03X5535Y-14240I-125J0D01*
G74*
G01*
X5578Y-17232D02*
G75*
G03X5578Y-17232I-125J0D01*
G74*
G01*
X5578Y-18500D02*
G75*
G03X5578Y-18500I-125J0D01*
G74*
G01*
X5952Y-2669D02*
G75*
G03X5952Y-2669I-125J0D01*
G74*
G01*
X6170Y-4511D02*
G75*
G03X6170Y-4511I-125J0D01*
G74*
G01*
X6810Y-4204D02*
G75*
G03X6810Y-4204I-125J0D01*
G74*
G01*
X6850Y-2118D02*
G75*
G03X6850Y-2118I-125J0D01*
G74*
G01*
X7031Y-14480D02*
G75*
G03X7031Y-14480I-125J0D01*
G74*
G01*
X7031Y-15338D02*
G75*
G03X7031Y-15338I-125J0D01*
G74*
G01*
X7078Y-10251D02*
G75*
G03X7078Y-10251I-125J0D01*
G74*
G01*
X7303Y-4437D02*
G75*
G03X7303Y-4437I-125J0D01*
G74*
G01*
X7826Y-8771D02*
G75*
G03X7826Y-8771I-125J0D01*
G74*
G01*
X8377Y-7078D02*
G75*
G03X8377Y-7078I-125J0D01*
G74*
G01*
X8377Y-8448D02*
G75*
G03X8377Y-8448I-125J0D01*
G74*
G01*
X8795Y-16000D02*
G75*
G03X8795Y-16000I-125J0D01*
G74*
G01*
X9377Y-8771D02*
G75*
G03X9377Y-8771I-125J0D01*
G74*
G01*
X11464Y-2665D02*
G75*
G03X11464Y-2665I-125J0D01*
G74*
G01*
X12283Y-3476D02*
G75*
G03X12283Y-3476I-125J0D01*
G74*
G01*
X12283Y-4318D02*
G75*
G03X12283Y-4318I-125J0D01*
G74*
G01*
X12345Y-17620D02*
G75*
G03X12345Y-17620I-125J0D01*
G74*
G01*
X17025Y-17620D02*
G75*
G03X17025Y-17620I-125J0D01*
G74*
G01*
X26585Y-13860D02*
G75*
G03X26585Y-13860I-125J0D01*
G74*
G01*
X26585Y-17180D02*
G75*
G03X26585Y-17180I-125J0D01*
G74*
G01*
X1840Y-12708D02*
X1840Y-12984D01*
X1702Y-12846D02*
X1977Y-12846D01*
X1840Y-13495D02*
X1840Y-13771D01*
X1702Y-13633D02*
X1977Y-13633D01*
X7876Y-15862D02*
X7876Y-16137D01*
X7738Y-16000D02*
X8014Y-16000D01*
X8240Y-13238D02*
X8240Y-13514D01*
X8102Y-13376D02*
X8377Y-13376D01*
X8240Y-14025D02*
X8240Y-14301D01*
X8102Y-14163D02*
X8377Y-14163D01*
X8663Y-15862D02*
X8663Y-16137D01*
X8525Y-16000D02*
X8801Y-16000D01*
X2083Y-8003D02*
X2083Y-7756D01*
X1836Y-7756D01*
X1836Y-8003D01*
X2083Y-8003D01*
X2083Y-8803D02*
X2083Y-8556D01*
X1836Y-8556D01*
X1836Y-8803D01*
X2083Y-8803D01*
X2083Y-9603D02*
X2083Y-9356D01*
X1836Y-9356D01*
X1836Y-9603D01*
X2083Y-9603D01*
X2083Y-10403D02*
X2083Y-10156D01*
X1836Y-10156D01*
X1836Y-10403D01*
X2083Y-10403D01*
X2083Y-16723D02*
X2083Y-16476D01*
X1836Y-16476D01*
X1836Y-16723D01*
X2083Y-16723D01*
X2083Y-17523D02*
X2083Y-17276D01*
X1836Y-17276D01*
X1836Y-17523D01*
X2083Y-17523D01*
X2083Y-18323D02*
X2083Y-18076D01*
X1836Y-18076D01*
X1836Y-18323D01*
X2083Y-18323D01*
X2083Y-19123D02*
X2083Y-18876D01*
X1836Y-18876D01*
X1836Y-19123D01*
X2083Y-19123D01*
X2783Y-7603D02*
X2783Y-7356D01*
X2536Y-7356D01*
X2536Y-7603D01*
X2783Y-7603D01*
X2783Y-8403D02*
X2783Y-8156D01*
X2536Y-8156D01*
X2536Y-8403D01*
X2783Y-8403D01*
X2783Y-9203D02*
X2783Y-8956D01*
X2536Y-8956D01*
X2536Y-9203D01*
X2783Y-9203D01*
X2783Y-10003D02*
X2783Y-9756D01*
X2536Y-9756D01*
X2536Y-10003D01*
X2783Y-10003D01*
X2783Y-16323D02*
X2783Y-16076D01*
X2536Y-16076D01*
X2536Y-16323D01*
X2783Y-16323D01*
X2783Y-17123D02*
X2783Y-16876D01*
X2536Y-16876D01*
X2536Y-17123D01*
X2783Y-17123D01*
X2783Y-17923D02*
X2783Y-17676D01*
X2536Y-17676D01*
X2536Y-17923D01*
X2783Y-17923D01*
X2783Y-18723D02*
X2783Y-18476D01*
X2536Y-18476D01*
X2536Y-18723D01*
X2783Y-18723D01*
X4683Y-6303D02*
X4683Y-6056D01*
X4436Y-6056D01*
X4436Y-6303D01*
X4683Y-6303D01*
X4683Y-7203D02*
X4683Y-6956D01*
X4436Y-6956D01*
X4436Y-7203D01*
X4683Y-7203D01*
X4683Y-10803D02*
X4683Y-10556D01*
X4436Y-10556D01*
X4436Y-10803D01*
X4683Y-10803D01*
X4683Y-11703D02*
X4683Y-11456D01*
X4436Y-11456D01*
X4436Y-11703D01*
X4683Y-11703D01*
X4683Y-15023D02*
X4683Y-14776D01*
X4436Y-14776D01*
X4436Y-15023D01*
X4683Y-15023D01*
X4683Y-15923D02*
X4683Y-15676D01*
X4436Y-15676D01*
X4436Y-15923D01*
X4683Y-15923D01*
X4683Y-19523D02*
X4683Y-19276D01*
X4436Y-19276D01*
X4436Y-19523D01*
X4683Y-19523D01*
X4683Y-20423D02*
X4683Y-20176D01*
X4436Y-20176D01*
X4436Y-20423D01*
X4683Y-20423D01*
X7460Y-1200D02*
X7660Y-1000D01*
X7460Y-800D01*
X7260Y-1000D01*
X7460Y-1200D01*
X7460Y-2200D02*
X7660Y-2000D01*
X7460Y-1800D01*
X7260Y-2000D01*
X7460Y-2200D01*
X8460Y-1200D02*
X8660Y-1000D01*
X8460Y-800D01*
X8260Y-1000D01*
X8460Y-1200D01*
X8460Y-2200D02*
X8660Y-2000D01*
X8460Y-1800D01*
X8260Y-2000D01*
X8460Y-2200D01*
X9052Y-3396D02*
X9252Y-3196D01*
X9052Y-2996D01*
X8852Y-3196D01*
X9052Y-3396D01*
X9460Y-1200D02*
X9660Y-1000D01*
X9460Y-800D01*
X9260Y-1000D01*
X9460Y-1200D01*
X9460Y-2200D02*
X9660Y-2000D01*
X9460Y-1800D01*
X9260Y-2000D01*
X9460Y-2200D01*
X10052Y-3396D02*
X10252Y-3196D01*
X10052Y-2996D01*
X9852Y-3196D01*
X10052Y-3396D01*
X10060Y-5700D02*
X10260Y-5500D01*
X10060Y-5300D01*
X9860Y-5500D01*
X10060Y-5700D01*
X10060Y-6700D02*
X10260Y-6500D01*
X10060Y-6300D01*
X9860Y-6500D01*
X10060Y-6700D01*
X10060Y-7700D02*
X10260Y-7500D01*
X10060Y-7300D01*
X9860Y-7500D01*
X10060Y-7700D01*
X10060Y-8700D02*
X10260Y-8500D01*
X10060Y-8300D01*
X9860Y-8500D01*
X10060Y-8700D01*
X10060Y-9700D02*
X10260Y-9500D01*
X10060Y-9300D01*
X9860Y-9500D01*
X10060Y-9700D01*
X10060Y-10700D02*
X10260Y-10500D01*
X10060Y-10300D01*
X9860Y-10500D01*
X10060Y-10700D01*
X10060Y-11700D02*
X10260Y-11500D01*
X10060Y-11300D01*
X9860Y-11500D01*
X10060Y-11700D01*
X10060Y-12700D02*
X10260Y-12500D01*
X10060Y-12300D01*
X9860Y-12500D01*
X10060Y-12700D01*
X10060Y-14200D02*
X10260Y-14000D01*
X10060Y-13800D01*
X9860Y-14000D01*
X10060Y-14200D01*
X10060Y-15200D02*
X10260Y-15000D01*
X10060Y-14800D01*
X9860Y-15000D01*
X10060Y-15200D01*
X10060Y-16200D02*
X10260Y-16000D01*
X10060Y-15800D01*
X9860Y-16000D01*
X10060Y-16200D01*
X10460Y-1200D02*
X10660Y-1000D01*
X10460Y-800D01*
X10260Y-1000D01*
X10460Y-1200D01*
X10460Y-2200D02*
X10660Y-2000D01*
X10460Y-1800D01*
X10260Y-2000D01*
X10460Y-2200D01*
X11060Y-5700D02*
X11260Y-5500D01*
X11060Y-5300D01*
X10860Y-5500D01*
X11060Y-5700D01*
X11060Y-6700D02*
X11260Y-6500D01*
X11060Y-6300D01*
X10860Y-6500D01*
X11060Y-6700D01*
X11060Y-7700D02*
X11260Y-7500D01*
X11060Y-7300D01*
X10860Y-7500D01*
X11060Y-7700D01*
X11060Y-8700D02*
X11260Y-8500D01*
X11060Y-8300D01*
X10860Y-8500D01*
X11060Y-8700D01*
X11060Y-9700D02*
X11260Y-9500D01*
X11060Y-9300D01*
X10860Y-9500D01*
X11060Y-9700D01*
X11060Y-10700D02*
X11260Y-10500D01*
X11060Y-10300D01*
X10860Y-10500D01*
X11060Y-10700D01*
X11060Y-11700D02*
X11260Y-11500D01*
X11060Y-11300D01*
X10860Y-11500D01*
X11060Y-11700D01*
X11060Y-12700D02*
X11260Y-12500D01*
X11060Y-12300D01*
X10860Y-12500D01*
X11060Y-12700D01*
X11060Y-14200D02*
X11260Y-14000D01*
X11060Y-13800D01*
X10860Y-14000D01*
X11060Y-14200D01*
X11060Y-15200D02*
X11260Y-15000D01*
X11060Y-14800D01*
X10860Y-15000D01*
X11060Y-15200D01*
X11060Y-16200D02*
X11260Y-16000D01*
X11060Y-15800D01*
X10860Y-16000D01*
X11060Y-16200D01*
X11060Y-19200D02*
X11260Y-19000D01*
X11060Y-18800D01*
X10860Y-19000D01*
X11060Y-19200D01*
X11060Y-20200D02*
X11260Y-20000D01*
X11060Y-19800D01*
X10860Y-20000D01*
X11060Y-20200D01*
X11460Y-1200D02*
X11660Y-1000D01*
X11460Y-800D01*
X11260Y-1000D01*
X11460Y-1200D01*
X11460Y-2200D02*
X11660Y-2000D01*
X11460Y-1800D01*
X11260Y-2000D01*
X11460Y-2200D01*
X12060Y-5700D02*
X12260Y-5500D01*
X12060Y-5300D01*
X11860Y-5500D01*
X12060Y-5700D01*
X12060Y-6700D02*
X12260Y-6500D01*
X12060Y-6300D01*
X11860Y-6500D01*
X12060Y-6700D01*
X12060Y-7700D02*
X12260Y-7500D01*
X12060Y-7300D01*
X11860Y-7500D01*
X12060Y-7700D01*
X12060Y-8700D02*
X12260Y-8500D01*
X12060Y-8300D01*
X11860Y-8500D01*
X12060Y-8700D01*
X12060Y-9700D02*
X12260Y-9500D01*
X12060Y-9300D01*
X11860Y-9500D01*
X12060Y-9700D01*
X12060Y-10700D02*
X12260Y-10500D01*
X12060Y-10300D01*
X11860Y-10500D01*
X12060Y-10700D01*
X12060Y-11700D02*
X12260Y-11500D01*
X12060Y-11300D01*
X11860Y-11500D01*
X12060Y-11700D01*
X12060Y-12700D02*
X12260Y-12500D01*
X12060Y-12300D01*
X11860Y-12500D01*
X12060Y-12700D01*
X12060Y-14200D02*
X12260Y-14000D01*
X12060Y-13800D01*
X11860Y-14000D01*
X12060Y-14200D01*
X12060Y-15200D02*
X12260Y-15000D01*
X12060Y-14800D01*
X11860Y-15000D01*
X12060Y-15200D01*
X12060Y-16200D02*
X12260Y-16000D01*
X12060Y-15800D01*
X11860Y-16000D01*
X12060Y-16200D01*
X12060Y-19200D02*
X12260Y-19000D01*
X12060Y-18800D01*
X11860Y-19000D01*
X12060Y-19200D01*
X12060Y-20200D02*
X12260Y-20000D01*
X12060Y-19800D01*
X11860Y-20000D01*
X12060Y-20200D01*
X12460Y-1200D02*
X12660Y-1000D01*
X12460Y-800D01*
X12260Y-1000D01*
X12460Y-1200D01*
X12460Y-2200D02*
X12660Y-2000D01*
X12460Y-1800D01*
X12260Y-2000D01*
X12460Y-2200D01*
X13060Y-5700D02*
X13260Y-5500D01*
X13060Y-5300D01*
X12860Y-5500D01*
X13060Y-5700D01*
X13060Y-6700D02*
X13260Y-6500D01*
X13060Y-6300D01*
X12860Y-6500D01*
X13060Y-6700D01*
X13060Y-7700D02*
X13260Y-7500D01*
X13060Y-7300D01*
X12860Y-7500D01*
X13060Y-7700D01*
X13060Y-8700D02*
X13260Y-8500D01*
X13060Y-8300D01*
X12860Y-8500D01*
X13060Y-8700D01*
X13060Y-9700D02*
X13260Y-9500D01*
X13060Y-9300D01*
X12860Y-9500D01*
X13060Y-9700D01*
X13060Y-10700D02*
X13260Y-10500D01*
X13060Y-10300D01*
X12860Y-10500D01*
X13060Y-10700D01*
X13060Y-11700D02*
X13260Y-11500D01*
X13060Y-11300D01*
X12860Y-11500D01*
X13060Y-11700D01*
X13060Y-12700D02*
X13260Y-12500D01*
X13060Y-12300D01*
X12860Y-12500D01*
X13060Y-12700D01*
X13060Y-14200D02*
X13260Y-14000D01*
X13060Y-13800D01*
X12860Y-14000D01*
X13060Y-14200D01*
X13060Y-15200D02*
X13260Y-15000D01*
X13060Y-14800D01*
X12860Y-15000D01*
X13060Y-15200D01*
X13060Y-16200D02*
X13260Y-16000D01*
X13060Y-15800D01*
X12860Y-16000D01*
X13060Y-16200D01*
X13060Y-19200D02*
X13260Y-19000D01*
X13060Y-18800D01*
X12860Y-19000D01*
X13060Y-19200D01*
X13060Y-20200D02*
X13260Y-20000D01*
X13060Y-19800D01*
X12860Y-20000D01*
X13060Y-20200D01*
X13460Y-1200D02*
X13660Y-1000D01*
X13460Y-800D01*
X13260Y-1000D01*
X13460Y-1200D01*
X13460Y-2200D02*
X13660Y-2000D01*
X13460Y-1800D01*
X13260Y-2000D01*
X13460Y-2200D01*
X14060Y-5700D02*
X14260Y-5500D01*
X14060Y-5300D01*
X13860Y-5500D01*
X14060Y-5700D01*
X14060Y-6700D02*
X14260Y-6500D01*
X14060Y-6300D01*
X13860Y-6500D01*
X14060Y-6700D01*
X14060Y-7700D02*
X14260Y-7500D01*
X14060Y-7300D01*
X13860Y-7500D01*
X14060Y-7700D01*
X14060Y-8700D02*
X14260Y-8500D01*
X14060Y-8300D01*
X13860Y-8500D01*
X14060Y-8700D01*
X14060Y-9700D02*
X14260Y-9500D01*
X14060Y-9300D01*
X13860Y-9500D01*
X14060Y-9700D01*
X14060Y-10700D02*
X14260Y-10500D01*
X14060Y-10300D01*
X13860Y-10500D01*
X14060Y-10700D01*
X14060Y-11700D02*
X14260Y-11500D01*
X14060Y-11300D01*
X13860Y-11500D01*
X14060Y-11700D01*
X14060Y-12700D02*
X14260Y-12500D01*
X14060Y-12300D01*
X13860Y-12500D01*
X14060Y-12700D01*
X14060Y-14200D02*
X14260Y-14000D01*
X14060Y-13800D01*
X13860Y-14000D01*
X14060Y-14200D01*
X14060Y-15200D02*
X14260Y-15000D01*
X14060Y-14800D01*
X13860Y-15000D01*
X14060Y-15200D01*
X14060Y-16200D02*
X14260Y-16000D01*
X14060Y-15800D01*
X13860Y-16000D01*
X14060Y-16200D01*
X14060Y-19200D02*
X14260Y-19000D01*
X14060Y-18800D01*
X13860Y-19000D01*
X14060Y-19200D01*
X14060Y-20200D02*
X14260Y-20000D01*
X14060Y-19800D01*
X13860Y-20000D01*
X14060Y-20200D01*
X14460Y-1200D02*
X14660Y-1000D01*
X14460Y-800D01*
X14260Y-1000D01*
X14460Y-1200D01*
X14460Y-2200D02*
X14660Y-2000D01*
X14460Y-1800D01*
X14260Y-2000D01*
X14460Y-2200D01*
X15060Y-5700D02*
X15260Y-5500D01*
X15060Y-5300D01*
X14860Y-5500D01*
X15060Y-5700D01*
X15060Y-6700D02*
X15260Y-6500D01*
X15060Y-6300D01*
X14860Y-6500D01*
X15060Y-6700D01*
X15060Y-7700D02*
X15260Y-7500D01*
X15060Y-7300D01*
X14860Y-7500D01*
X15060Y-7700D01*
X15060Y-8700D02*
X15260Y-8500D01*
X15060Y-8300D01*
X14860Y-8500D01*
X15060Y-8700D01*
X15060Y-9700D02*
X15260Y-9500D01*
X15060Y-9300D01*
X14860Y-9500D01*
X15060Y-9700D01*
X15060Y-10700D02*
X15260Y-10500D01*
X15060Y-10300D01*
X14860Y-10500D01*
X15060Y-10700D01*
X15060Y-11700D02*
X15260Y-11500D01*
X15060Y-11300D01*
X14860Y-11500D01*
X15060Y-11700D01*
X15060Y-12700D02*
X15260Y-12500D01*
X15060Y-12300D01*
X14860Y-12500D01*
X15060Y-12700D01*
X15060Y-14200D02*
X15260Y-14000D01*
X15060Y-13800D01*
X14860Y-14000D01*
X15060Y-14200D01*
X15060Y-15200D02*
X15260Y-15000D01*
X15060Y-14800D01*
X14860Y-15000D01*
X15060Y-15200D01*
X15060Y-16200D02*
X15260Y-16000D01*
X15060Y-15800D01*
X14860Y-16000D01*
X15060Y-16200D01*
X15060Y-19200D02*
X15260Y-19000D01*
X15060Y-18800D01*
X14860Y-19000D01*
X15060Y-19200D01*
X15060Y-20200D02*
X15260Y-20000D01*
X15060Y-19800D01*
X14860Y-20000D01*
X15060Y-20200D01*
X15460Y-1200D02*
X15660Y-1000D01*
X15460Y-800D01*
X15260Y-1000D01*
X15460Y-1200D01*
X15460Y-2200D02*
X15660Y-2000D01*
X15460Y-1800D01*
X15260Y-2000D01*
X15460Y-2200D01*
X16060Y-5700D02*
X16260Y-5500D01*
X16060Y-5300D01*
X15860Y-5500D01*
X16060Y-5700D01*
X16060Y-6700D02*
X16260Y-6500D01*
X16060Y-6300D01*
X15860Y-6500D01*
X16060Y-6700D01*
X16060Y-7700D02*
X16260Y-7500D01*
X16060Y-7300D01*
X15860Y-7500D01*
X16060Y-7700D01*
X16060Y-8700D02*
X16260Y-8500D01*
X16060Y-8300D01*
X15860Y-8500D01*
X16060Y-8700D01*
X16060Y-9700D02*
X16260Y-9500D01*
X16060Y-9300D01*
X15860Y-9500D01*
X16060Y-9700D01*
X16060Y-10700D02*
X16260Y-10500D01*
X16060Y-10300D01*
X15860Y-10500D01*
X16060Y-10700D01*
X16060Y-11700D02*
X16260Y-11500D01*
X16060Y-11300D01*
X15860Y-11500D01*
X16060Y-11700D01*
X16060Y-12700D02*
X16260Y-12500D01*
X16060Y-12300D01*
X15860Y-12500D01*
X16060Y-12700D01*
X16060Y-14200D02*
X16260Y-14000D01*
X16060Y-13800D01*
X15860Y-14000D01*
X16060Y-14200D01*
X16060Y-15200D02*
X16260Y-15000D01*
X16060Y-14800D01*
X15860Y-15000D01*
X16060Y-15200D01*
X16060Y-16200D02*
X16260Y-16000D01*
X16060Y-15800D01*
X15860Y-16000D01*
X16060Y-16200D01*
X16060Y-19200D02*
X16260Y-19000D01*
X16060Y-18800D01*
X15860Y-19000D01*
X16060Y-19200D01*
X16060Y-20200D02*
X16260Y-20000D01*
X16060Y-19800D01*
X15860Y-20000D01*
X16060Y-20200D01*
X16460Y-1200D02*
X16660Y-1000D01*
X16460Y-800D01*
X16260Y-1000D01*
X16460Y-1200D01*
X16460Y-2200D02*
X16660Y-2000D01*
X16460Y-1800D01*
X16260Y-2000D01*
X16460Y-2200D01*
X17060Y-5700D02*
X17260Y-5500D01*
X17060Y-5300D01*
X16860Y-5500D01*
X17060Y-5700D01*
X17060Y-6700D02*
X17260Y-6500D01*
X17060Y-6300D01*
X16860Y-6500D01*
X17060Y-6700D01*
X17060Y-7700D02*
X17260Y-7500D01*
X17060Y-7300D01*
X16860Y-7500D01*
X17060Y-7700D01*
X17060Y-8700D02*
X17260Y-8500D01*
X17060Y-8300D01*
X16860Y-8500D01*
X17060Y-8700D01*
X17060Y-9700D02*
X17260Y-9500D01*
X17060Y-9300D01*
X16860Y-9500D01*
X17060Y-9700D01*
X17060Y-10700D02*
X17260Y-10500D01*
X17060Y-10300D01*
X16860Y-10500D01*
X17060Y-10700D01*
X17060Y-11700D02*
X17260Y-11500D01*
X17060Y-11300D01*
X16860Y-11500D01*
X17060Y-11700D01*
X17060Y-12700D02*
X17260Y-12500D01*
X17060Y-12300D01*
X16860Y-12500D01*
X17060Y-12700D01*
X17060Y-14200D02*
X17260Y-14000D01*
X17060Y-13800D01*
X16860Y-14000D01*
X17060Y-14200D01*
X17060Y-15200D02*
X17260Y-15000D01*
X17060Y-14800D01*
X16860Y-15000D01*
X17060Y-15200D01*
X17060Y-16200D02*
X17260Y-16000D01*
X17060Y-15800D01*
X16860Y-16000D01*
X17060Y-16200D01*
X17060Y-19200D02*
X17260Y-19000D01*
X17060Y-18800D01*
X16860Y-19000D01*
X17060Y-19200D01*
X17060Y-20200D02*
X17260Y-20000D01*
X17060Y-19800D01*
X16860Y-20000D01*
X17060Y-20200D01*
X18060Y-1200D02*
X18260Y-1000D01*
X18060Y-800D01*
X17860Y-1000D01*
X18060Y-1200D01*
X18060Y-2200D02*
X18260Y-2000D01*
X18060Y-1800D01*
X17860Y-2000D01*
X18060Y-2200D01*
X18060Y-5700D02*
X18260Y-5500D01*
X18060Y-5300D01*
X17860Y-5500D01*
X18060Y-5700D01*
X18060Y-6700D02*
X18260Y-6500D01*
X18060Y-6300D01*
X17860Y-6500D01*
X18060Y-6700D01*
X18060Y-7700D02*
X18260Y-7500D01*
X18060Y-7300D01*
X17860Y-7500D01*
X18060Y-7700D01*
X18060Y-8700D02*
X18260Y-8500D01*
X18060Y-8300D01*
X17860Y-8500D01*
X18060Y-8700D01*
X18060Y-9700D02*
X18260Y-9500D01*
X18060Y-9300D01*
X17860Y-9500D01*
X18060Y-9700D01*
X18060Y-10700D02*
X18260Y-10500D01*
X18060Y-10300D01*
X17860Y-10500D01*
X18060Y-10700D01*
X18060Y-11700D02*
X18260Y-11500D01*
X18060Y-11300D01*
X17860Y-11500D01*
X18060Y-11700D01*
X18060Y-12700D02*
X18260Y-12500D01*
X18060Y-12300D01*
X17860Y-12500D01*
X18060Y-12700D01*
X18060Y-14200D02*
X18260Y-14000D01*
X18060Y-13800D01*
X17860Y-14000D01*
X18060Y-14200D01*
X18060Y-15200D02*
X18260Y-15000D01*
X18060Y-14800D01*
X17860Y-15000D01*
X18060Y-15200D01*
X18060Y-16200D02*
X18260Y-16000D01*
X18060Y-15800D01*
X17860Y-16000D01*
X18060Y-16200D01*
X18060Y-19200D02*
X18260Y-19000D01*
X18060Y-18800D01*
X17860Y-19000D01*
X18060Y-19200D01*
X18060Y-20200D02*
X18260Y-20000D01*
X18060Y-19800D01*
X17860Y-20000D01*
X18060Y-20200D01*
X19060Y-1200D02*
X19260Y-1000D01*
X19060Y-800D01*
X18860Y-1000D01*
X19060Y-1200D01*
X19060Y-2200D02*
X19260Y-2000D01*
X19060Y-1800D01*
X18860Y-2000D01*
X19060Y-2200D01*
X19060Y-5700D02*
X19260Y-5500D01*
X19060Y-5300D01*
X18860Y-5500D01*
X19060Y-5700D01*
X19060Y-6700D02*
X19260Y-6500D01*
X19060Y-6300D01*
X18860Y-6500D01*
X19060Y-6700D01*
X19060Y-7700D02*
X19260Y-7500D01*
X19060Y-7300D01*
X18860Y-7500D01*
X19060Y-7700D01*
X19060Y-8700D02*
X19260Y-8500D01*
X19060Y-8300D01*
X18860Y-8500D01*
X19060Y-8700D01*
X19060Y-9700D02*
X19260Y-9500D01*
X19060Y-9300D01*
X18860Y-9500D01*
X19060Y-9700D01*
X19060Y-10700D02*
X19260Y-10500D01*
X19060Y-10300D01*
X18860Y-10500D01*
X19060Y-10700D01*
X19060Y-11700D02*
X19260Y-11500D01*
X19060Y-11300D01*
X18860Y-11500D01*
X19060Y-11700D01*
X19060Y-12700D02*
X19260Y-12500D01*
X19060Y-12300D01*
X18860Y-12500D01*
X19060Y-12700D01*
X19060Y-14200D02*
X19260Y-14000D01*
X19060Y-13800D01*
X18860Y-14000D01*
X19060Y-14200D01*
X19060Y-15200D02*
X19260Y-15000D01*
X19060Y-14800D01*
X18860Y-15000D01*
X19060Y-15200D01*
X19060Y-16200D02*
X19260Y-16000D01*
X19060Y-15800D01*
X18860Y-16000D01*
X19060Y-16200D01*
X20060Y-1200D02*
X20260Y-1000D01*
X20060Y-800D01*
X19860Y-1000D01*
X20060Y-1200D01*
X20060Y-2200D02*
X20260Y-2000D01*
X20060Y-1800D01*
X19860Y-2000D01*
X20060Y-2200D01*
X20060Y-5700D02*
X20260Y-5500D01*
X20060Y-5300D01*
X19860Y-5500D01*
X20060Y-5700D01*
X20060Y-6700D02*
X20260Y-6500D01*
X20060Y-6300D01*
X19860Y-6500D01*
X20060Y-6700D01*
X20060Y-7700D02*
X20260Y-7500D01*
X20060Y-7300D01*
X19860Y-7500D01*
X20060Y-7700D01*
X20060Y-8700D02*
X20260Y-8500D01*
X20060Y-8300D01*
X19860Y-8500D01*
X20060Y-8700D01*
X20060Y-9700D02*
X20260Y-9500D01*
X20060Y-9300D01*
X19860Y-9500D01*
X20060Y-9700D01*
X20060Y-10700D02*
X20260Y-10500D01*
X20060Y-10300D01*
X19860Y-10500D01*
X20060Y-10700D01*
X20060Y-11700D02*
X20260Y-11500D01*
X20060Y-11300D01*
X19860Y-11500D01*
X20060Y-11700D01*
X20060Y-12700D02*
X20260Y-12500D01*
X20060Y-12300D01*
X19860Y-12500D01*
X20060Y-12700D01*
X20060Y-14200D02*
X20260Y-14000D01*
X20060Y-13800D01*
X19860Y-14000D01*
X20060Y-14200D01*
X20060Y-15200D02*
X20260Y-15000D01*
X20060Y-14800D01*
X19860Y-15000D01*
X20060Y-15200D01*
X20060Y-16200D02*
X20260Y-16000D01*
X20060Y-15800D01*
X19860Y-16000D01*
X20060Y-16200D01*
X20060Y-19200D02*
X20260Y-19000D01*
X20060Y-18800D01*
X19860Y-19000D01*
X20060Y-19200D01*
X20060Y-20200D02*
X20260Y-20000D01*
X20060Y-19800D01*
X19860Y-20000D01*
X20060Y-20200D01*
X21060Y-1200D02*
X21260Y-1000D01*
X21060Y-800D01*
X20860Y-1000D01*
X21060Y-1200D01*
X21060Y-2200D02*
X21260Y-2000D01*
X21060Y-1800D01*
X20860Y-2000D01*
X21060Y-2200D01*
X21060Y-5700D02*
X21260Y-5500D01*
X21060Y-5300D01*
X20860Y-5500D01*
X21060Y-5700D01*
X21060Y-6700D02*
X21260Y-6500D01*
X21060Y-6300D01*
X20860Y-6500D01*
X21060Y-6700D01*
X21060Y-7700D02*
X21260Y-7500D01*
X21060Y-7300D01*
X20860Y-7500D01*
X21060Y-7700D01*
X21060Y-8700D02*
X21260Y-8500D01*
X21060Y-8300D01*
X20860Y-8500D01*
X21060Y-8700D01*
X21060Y-9700D02*
X21260Y-9500D01*
X21060Y-9300D01*
X20860Y-9500D01*
X21060Y-9700D01*
X21060Y-10700D02*
X21260Y-10500D01*
X21060Y-10300D01*
X20860Y-10500D01*
X21060Y-10700D01*
X21060Y-11700D02*
X21260Y-11500D01*
X21060Y-11300D01*
X20860Y-11500D01*
X21060Y-11700D01*
X21060Y-12700D02*
X21260Y-12500D01*
X21060Y-12300D01*
X20860Y-12500D01*
X21060Y-12700D01*
X21060Y-14200D02*
X21260Y-14000D01*
X21060Y-13800D01*
X20860Y-14000D01*
X21060Y-14200D01*
X21060Y-15200D02*
X21260Y-15000D01*
X21060Y-14800D01*
X20860Y-15000D01*
X21060Y-15200D01*
X21060Y-16200D02*
X21260Y-16000D01*
X21060Y-15800D01*
X20860Y-16000D01*
X21060Y-16200D01*
X21060Y-19200D02*
X21260Y-19000D01*
X21060Y-18800D01*
X20860Y-19000D01*
X21060Y-19200D01*
X21060Y-20200D02*
X21260Y-20000D01*
X21060Y-19800D01*
X20860Y-20000D01*
X21060Y-20200D01*
X22060Y-1200D02*
X22260Y-1000D01*
X22060Y-800D01*
X21860Y-1000D01*
X22060Y-1200D01*
X22060Y-2200D02*
X22260Y-2000D01*
X22060Y-1800D01*
X21860Y-2000D01*
X22060Y-2200D01*
X22060Y-5700D02*
X22260Y-5500D01*
X22060Y-5300D01*
X21860Y-5500D01*
X22060Y-5700D01*
X22060Y-6700D02*
X22260Y-6500D01*
X22060Y-6300D01*
X21860Y-6500D01*
X22060Y-6700D01*
X22060Y-7700D02*
X22260Y-7500D01*
X22060Y-7300D01*
X21860Y-7500D01*
X22060Y-7700D01*
X22060Y-8700D02*
X22260Y-8500D01*
X22060Y-8300D01*
X21860Y-8500D01*
X22060Y-8700D01*
X22060Y-9700D02*
X22260Y-9500D01*
X22060Y-9300D01*
X21860Y-9500D01*
X22060Y-9700D01*
X22060Y-10700D02*
X22260Y-10500D01*
X22060Y-10300D01*
X21860Y-10500D01*
X22060Y-10700D01*
X22060Y-11700D02*
X22260Y-11500D01*
X22060Y-11300D01*
X21860Y-11500D01*
X22060Y-11700D01*
X22060Y-12700D02*
X22260Y-12500D01*
X22060Y-12300D01*
X21860Y-12500D01*
X22060Y-12700D01*
X22060Y-14200D02*
X22260Y-14000D01*
X22060Y-13800D01*
X21860Y-14000D01*
X22060Y-14200D01*
X22060Y-15200D02*
X22260Y-15000D01*
X22060Y-14800D01*
X21860Y-15000D01*
X22060Y-15200D01*
X22060Y-16200D02*
X22260Y-16000D01*
X22060Y-15800D01*
X21860Y-16000D01*
X22060Y-16200D01*
X22060Y-19200D02*
X22260Y-19000D01*
X22060Y-18800D01*
X21860Y-19000D01*
X22060Y-19200D01*
X22060Y-20200D02*
X22260Y-20000D01*
X22060Y-19800D01*
X21860Y-20000D01*
X22060Y-20200D01*
X23060Y-1200D02*
X23260Y-1000D01*
X23060Y-800D01*
X22860Y-1000D01*
X23060Y-1200D01*
X23060Y-2200D02*
X23260Y-2000D01*
X23060Y-1800D01*
X22860Y-2000D01*
X23060Y-2200D01*
X23060Y-3500D02*
X23260Y-3300D01*
X23060Y-3100D01*
X22860Y-3300D01*
X23060Y-3500D01*
X23060Y-4500D02*
X23260Y-4300D01*
X23060Y-4100D01*
X22860Y-4300D01*
X23060Y-4500D01*
X23060Y-5700D02*
X23260Y-5500D01*
X23060Y-5300D01*
X22860Y-5500D01*
X23060Y-5700D01*
X23060Y-6700D02*
X23260Y-6500D01*
X23060Y-6300D01*
X22860Y-6500D01*
X23060Y-6700D01*
X23060Y-7700D02*
X23260Y-7500D01*
X23060Y-7300D01*
X22860Y-7500D01*
X23060Y-7700D01*
X23060Y-8700D02*
X23260Y-8500D01*
X23060Y-8300D01*
X22860Y-8500D01*
X23060Y-8700D01*
X23060Y-9700D02*
X23260Y-9500D01*
X23060Y-9300D01*
X22860Y-9500D01*
X23060Y-9700D01*
X23060Y-10700D02*
X23260Y-10500D01*
X23060Y-10300D01*
X22860Y-10500D01*
X23060Y-10700D01*
X23060Y-11700D02*
X23260Y-11500D01*
X23060Y-11300D01*
X22860Y-11500D01*
X23060Y-11700D01*
X23060Y-12700D02*
X23260Y-12500D01*
X23060Y-12300D01*
X22860Y-12500D01*
X23060Y-12700D01*
X23060Y-14200D02*
X23260Y-14000D01*
X23060Y-13800D01*
X22860Y-14000D01*
X23060Y-14200D01*
X23060Y-15200D02*
X23260Y-15000D01*
X23060Y-14800D01*
X22860Y-15000D01*
X23060Y-15200D01*
X23060Y-16200D02*
X23260Y-16000D01*
X23060Y-15800D01*
X22860Y-16000D01*
X23060Y-16200D01*
X23060Y-19200D02*
X23260Y-19000D01*
X23060Y-18800D01*
X22860Y-19000D01*
X23060Y-19200D01*
X23060Y-20200D02*
X23260Y-20000D01*
X23060Y-19800D01*
X22860Y-20000D01*
X23060Y-20200D01*
X24060Y-1200D02*
X24260Y-1000D01*
X24060Y-800D01*
X23860Y-1000D01*
X24060Y-1200D01*
X24060Y-2200D02*
X24260Y-2000D01*
X24060Y-1800D01*
X23860Y-2000D01*
X24060Y-2200D01*
X24060Y-3500D02*
X24260Y-3300D01*
X24060Y-3100D01*
X23860Y-3300D01*
X24060Y-3500D01*
X24060Y-4500D02*
X24260Y-4300D01*
X24060Y-4100D01*
X23860Y-4300D01*
X24060Y-4500D01*
X24060Y-5700D02*
X24260Y-5500D01*
X24060Y-5300D01*
X23860Y-5500D01*
X24060Y-5700D01*
X24060Y-6700D02*
X24260Y-6500D01*
X24060Y-6300D01*
X23860Y-6500D01*
X24060Y-6700D01*
X24060Y-7700D02*
X24260Y-7500D01*
X24060Y-7300D01*
X23860Y-7500D01*
X24060Y-7700D01*
X24060Y-8700D02*
X24260Y-8500D01*
X24060Y-8300D01*
X23860Y-8500D01*
X24060Y-8700D01*
X24060Y-9700D02*
X24260Y-9500D01*
X24060Y-9300D01*
X23860Y-9500D01*
X24060Y-9700D01*
X24060Y-10700D02*
X24260Y-10500D01*
X24060Y-10300D01*
X23860Y-10500D01*
X24060Y-10700D01*
X24060Y-11700D02*
X24260Y-11500D01*
X24060Y-11300D01*
X23860Y-11500D01*
X24060Y-11700D01*
X24060Y-12700D02*
X24260Y-12500D01*
X24060Y-12300D01*
X23860Y-12500D01*
X24060Y-12700D01*
X24060Y-14200D02*
X24260Y-14000D01*
X24060Y-13800D01*
X23860Y-14000D01*
X24060Y-14200D01*
X24060Y-15200D02*
X24260Y-15000D01*
X24060Y-14800D01*
X23860Y-15000D01*
X24060Y-15200D01*
X24060Y-16200D02*
X24260Y-16000D01*
X24060Y-15800D01*
X23860Y-16000D01*
X24060Y-16200D01*
X24060Y-19200D02*
X24260Y-19000D01*
X24060Y-18800D01*
X23860Y-19000D01*
X24060Y-19200D01*
X24060Y-20200D02*
X24260Y-20000D01*
X24060Y-19800D01*
X23860Y-20000D01*
X24060Y-20200D01*
X25060Y-1200D02*
X25260Y-1000D01*
X25060Y-800D01*
X24860Y-1000D01*
X25060Y-1200D01*
X25060Y-2200D02*
X25260Y-2000D01*
X25060Y-1800D01*
X24860Y-2000D01*
X25060Y-2200D01*
X25060Y-3500D02*
X25260Y-3300D01*
X25060Y-3100D01*
X24860Y-3300D01*
X25060Y-3500D01*
X25060Y-4500D02*
X25260Y-4300D01*
X25060Y-4100D01*
X24860Y-4300D01*
X25060Y-4500D01*
X25060Y-5700D02*
X25260Y-5500D01*
X25060Y-5300D01*
X24860Y-5500D01*
X25060Y-5700D01*
X25060Y-6700D02*
X25260Y-6500D01*
X25060Y-6300D01*
X24860Y-6500D01*
X25060Y-6700D01*
X25060Y-7700D02*
X25260Y-7500D01*
X25060Y-7300D01*
X24860Y-7500D01*
X25060Y-7700D01*
X25060Y-8700D02*
X25260Y-8500D01*
X25060Y-8300D01*
X24860Y-8500D01*
X25060Y-8700D01*
X25060Y-9700D02*
X25260Y-9500D01*
X25060Y-9300D01*
X24860Y-9500D01*
X25060Y-9700D01*
X25060Y-10700D02*
X25260Y-10500D01*
X25060Y-10300D01*
X24860Y-10500D01*
X25060Y-10700D01*
X25060Y-11700D02*
X25260Y-11500D01*
X25060Y-11300D01*
X24860Y-11500D01*
X25060Y-11700D01*
X25060Y-12700D02*
X25260Y-12500D01*
X25060Y-12300D01*
X24860Y-12500D01*
X25060Y-12700D01*
X25060Y-14200D02*
X25260Y-14000D01*
X25060Y-13800D01*
X24860Y-14000D01*
X25060Y-14200D01*
X25060Y-15200D02*
X25260Y-15000D01*
X25060Y-14800D01*
X24860Y-15000D01*
X25060Y-15200D01*
X25060Y-16200D02*
X25260Y-16000D01*
X25060Y-15800D01*
X24860Y-16000D01*
X25060Y-16200D01*
X25060Y-19200D02*
X25260Y-19000D01*
X25060Y-18800D01*
X24860Y-19000D01*
X25060Y-19200D01*
X25060Y-20200D02*
X25260Y-20000D01*
X25060Y-19800D01*
X24860Y-20000D01*
X25060Y-20200D01*
X24461Y-16909D02*
X25642Y-18090D01*
X25642Y-16909D02*
X24461Y-18090D01*
X25642Y-17500D02*
G75*
G03X25642Y-17500I-590J0D01*
G74*
G01*
X320Y-5740D02*
X1600Y-7020D01*
X1600Y-5740D02*
X320Y-7020D01*
X960Y-5740D02*
X960Y-7020D01*
X320Y-6380D02*
X1600Y-6380D01*
X320Y-10740D02*
X1600Y-12020D01*
X1600Y-10740D02*
X320Y-12020D01*
X960Y-10740D02*
X960Y-12020D01*
X320Y-11380D02*
X1600Y-11380D01*
X320Y-14460D02*
X1600Y-15740D01*
X1600Y-14460D02*
X320Y-15740D01*
X960Y-14460D02*
X960Y-15740D01*
X320Y-15100D02*
X1600Y-15100D01*
X320Y-19460D02*
X1600Y-20740D01*
X1600Y-19460D02*
X320Y-20740D01*
X960Y-19460D02*
X960Y-20740D01*
X320Y-20100D02*
X1600Y-20100D01*
G54D12*
X1029Y-22872D02*
X1029Y-21691D01*
X1310Y-21691D01*
X1479Y-21748D01*
X1591Y-21860D01*
X1647Y-21973D01*
X1704Y-22197D01*
X1704Y-22366D01*
X1647Y-22591D01*
X1591Y-22704D01*
X1479Y-22816D01*
X1310Y-22872D01*
X1029Y-22872D01*
X2210Y-22872D02*
X2210Y-22085D01*
X2210Y-22310D02*
X2266Y-22197D01*
X2322Y-22141D01*
X2435Y-22085D01*
X2547Y-22085D01*
X2941Y-22872D02*
X2941Y-22085D01*
X2941Y-21691D02*
X2885Y-21748D01*
X2941Y-21804D01*
X2997Y-21748D01*
X2941Y-21691D01*
X2941Y-21804D01*
X3672Y-22872D02*
X3560Y-22816D01*
X3503Y-22704D01*
X3503Y-21691D01*
X4291Y-22872D02*
X4178Y-22816D01*
X4122Y-22704D01*
X4122Y-21691D01*
X5641Y-22872D02*
X5641Y-21691D01*
X6034Y-22535D01*
X6428Y-21691D01*
X6428Y-22872D01*
X7497Y-22872D02*
X7497Y-22254D01*
X7440Y-22141D01*
X7328Y-22085D01*
X7103Y-22085D01*
X6991Y-22141D01*
X7497Y-22816D02*
X7384Y-22872D01*
X7103Y-22872D01*
X6991Y-22816D01*
X6934Y-22704D01*
X6934Y-22591D01*
X6991Y-22479D01*
X7103Y-22422D01*
X7384Y-22422D01*
X7497Y-22366D01*
X8059Y-22085D02*
X8059Y-23266D01*
X8059Y-22141D02*
X8172Y-22085D01*
X8397Y-22085D01*
X8509Y-22141D01*
X8565Y-22197D01*
X8622Y-22310D01*
X8622Y-22647D01*
X8565Y-22760D01*
X8509Y-22816D01*
X8397Y-22872D01*
X8172Y-22872D01*
X8059Y-22816D01*
X9128Y-22760D02*
X9184Y-22816D01*
X9128Y-22872D01*
X9071Y-22816D01*
X9128Y-22760D01*
X9128Y-22872D01*
X9128Y-22141D02*
X9184Y-22197D01*
X9128Y-22254D01*
X9071Y-22197D01*
X9128Y-22141D01*
X9128Y-22254D01*
X-189Y-24743D02*
X-39Y-24893D01*
X-39Y-24743D02*
X-189Y-24893D01*
X1254Y-24172D02*
X1366Y-24172D01*
X1479Y-24228D01*
X1535Y-24284D01*
X1591Y-24397D01*
X1647Y-24622D01*
X1647Y-24903D01*
X1591Y-25128D01*
X1535Y-25240D01*
X1479Y-25296D01*
X1366Y-25353D01*
X1254Y-25353D01*
X1141Y-25296D01*
X1085Y-25240D01*
X1029Y-25128D01*
X973Y-24903D01*
X973Y-24622D01*
X1029Y-24397D01*
X1085Y-24284D01*
X1141Y-24228D01*
X1254Y-24172D01*
X2154Y-25240D02*
X2210Y-25296D01*
X2154Y-25353D01*
X2097Y-25296D01*
X2154Y-25240D01*
X2154Y-25353D01*
X2604Y-24172D02*
X3335Y-24172D01*
X2941Y-24622D01*
X3110Y-24622D01*
X3222Y-24678D01*
X3278Y-24734D01*
X3335Y-24847D01*
X3335Y-25128D01*
X3278Y-25240D01*
X3222Y-25296D01*
X3110Y-25353D01*
X2772Y-25353D01*
X2660Y-25296D01*
X2604Y-25240D01*
X4010Y-24678D02*
X3897Y-24622D01*
X3841Y-24565D01*
X3785Y-24453D01*
X3785Y-24397D01*
X3841Y-24284D01*
X3897Y-24228D01*
X4010Y-24172D01*
X4235Y-24172D01*
X4347Y-24228D01*
X4403Y-24284D01*
X4460Y-24397D01*
X4460Y-24453D01*
X4403Y-24565D01*
X4347Y-24622D01*
X4235Y-24678D01*
X4010Y-24678D01*
X3897Y-24734D01*
X3841Y-24790D01*
X3785Y-24903D01*
X3785Y-25128D01*
X3841Y-25240D01*
X3897Y-25296D01*
X4010Y-25353D01*
X4235Y-25353D01*
X4347Y-25296D01*
X4403Y-25240D01*
X4460Y-25128D01*
X4460Y-24903D01*
X4403Y-24790D01*
X4347Y-24734D01*
X4235Y-24678D01*
X4966Y-25353D02*
X4966Y-24565D01*
X4966Y-24678D02*
X5022Y-24622D01*
X5134Y-24565D01*
X5303Y-24565D01*
X5416Y-24622D01*
X5472Y-24734D01*
X5472Y-25353D01*
X5472Y-24734D02*
X5528Y-24622D01*
X5641Y-24565D01*
X5809Y-24565D01*
X5922Y-24622D01*
X5978Y-24734D01*
X5978Y-25353D01*
X6541Y-25353D02*
X6541Y-24565D01*
X6541Y-24678D02*
X6597Y-24622D01*
X6709Y-24565D01*
X6878Y-24565D01*
X6991Y-24622D01*
X7047Y-24734D01*
X7047Y-25353D01*
X7047Y-24734D02*
X7103Y-24622D01*
X7215Y-24565D01*
X7384Y-24565D01*
X7497Y-24622D01*
X7553Y-24734D01*
X7553Y-25353D01*
X9859Y-24115D02*
X8847Y-25634D01*
X11377Y-24172D02*
X11490Y-24172D01*
X11602Y-24228D01*
X11659Y-24284D01*
X11715Y-24397D01*
X11771Y-24622D01*
X11771Y-24903D01*
X11715Y-25128D01*
X11659Y-25240D01*
X11602Y-25296D01*
X11490Y-25353D01*
X11377Y-25353D01*
X11265Y-25296D01*
X11209Y-25240D01*
X11152Y-25128D01*
X11096Y-24903D01*
X11096Y-24622D01*
X11152Y-24397D01*
X11209Y-24284D01*
X11265Y-24228D01*
X11377Y-24172D01*
X12277Y-25240D02*
X12334Y-25296D01*
X12277Y-25353D01*
X12221Y-25296D01*
X12277Y-25240D01*
X12277Y-25353D01*
X13065Y-24172D02*
X13177Y-24172D01*
X13290Y-24228D01*
X13346Y-24284D01*
X13402Y-24397D01*
X13458Y-24622D01*
X13458Y-24903D01*
X13402Y-25128D01*
X13346Y-25240D01*
X13290Y-25296D01*
X13177Y-25353D01*
X13065Y-25353D01*
X12952Y-25296D01*
X12896Y-25240D01*
X12840Y-25128D01*
X12784Y-24903D01*
X12784Y-24622D01*
X12840Y-24397D01*
X12896Y-24284D01*
X12952Y-24228D01*
X13065Y-24172D01*
X14583Y-25353D02*
X13908Y-25353D01*
X14246Y-25353D02*
X14246Y-24172D01*
X14133Y-24340D01*
X14021Y-24453D01*
X13908Y-24509D01*
X15652Y-24172D02*
X15089Y-24172D01*
X15033Y-24734D01*
X15089Y-24678D01*
X15202Y-24622D01*
X15483Y-24622D01*
X15596Y-24678D01*
X15652Y-24734D01*
X15708Y-24847D01*
X15708Y-25128D01*
X15652Y-25240D01*
X15596Y-25296D01*
X15483Y-25353D01*
X15202Y-25353D01*
X15089Y-25296D01*
X15033Y-25240D01*
X16158Y-24172D02*
X16158Y-24397D01*
X16608Y-24172D02*
X16608Y-24397D01*
X18352Y-25803D02*
X18295Y-25746D01*
X18183Y-25578D01*
X18127Y-25465D01*
X18070Y-25296D01*
X18014Y-25015D01*
X18014Y-24790D01*
X18070Y-24509D01*
X18127Y-24340D01*
X18183Y-24228D01*
X18295Y-24059D01*
X18352Y-24003D01*
X18745Y-24284D02*
X18802Y-24228D01*
X18914Y-24172D01*
X19195Y-24172D01*
X19308Y-24228D01*
X19364Y-24284D01*
X19420Y-24397D01*
X19420Y-24509D01*
X19364Y-24678D01*
X18689Y-25353D01*
X19420Y-25353D01*
X20826Y-25353D02*
X20826Y-24172D01*
X21332Y-25353D02*
X21332Y-24734D01*
X21276Y-24622D01*
X21164Y-24565D01*
X20995Y-24565D01*
X20883Y-24622D01*
X20826Y-24678D01*
X22064Y-25353D02*
X21951Y-25296D01*
X21895Y-25240D01*
X21839Y-25128D01*
X21839Y-24790D01*
X21895Y-24678D01*
X21951Y-24622D01*
X22064Y-24565D01*
X22232Y-24565D01*
X22345Y-24622D01*
X22401Y-24678D01*
X22457Y-24790D01*
X22457Y-25128D01*
X22401Y-25240D01*
X22345Y-25296D01*
X22232Y-25353D01*
X22064Y-25353D01*
X23132Y-25353D02*
X23020Y-25296D01*
X22964Y-25184D01*
X22964Y-24172D01*
X24032Y-25296D02*
X23920Y-25353D01*
X23695Y-25353D01*
X23582Y-25296D01*
X23526Y-25184D01*
X23526Y-24734D01*
X23582Y-24622D01*
X23695Y-24565D01*
X23920Y-24565D01*
X24032Y-24622D01*
X24088Y-24734D01*
X24088Y-24847D01*
X23526Y-24959D01*
X24538Y-25296D02*
X24651Y-25353D01*
X24876Y-25353D01*
X24988Y-25296D01*
X25044Y-25184D01*
X25044Y-25128D01*
X24988Y-25015D01*
X24876Y-24959D01*
X24707Y-24959D01*
X24595Y-24903D01*
X24538Y-24790D01*
X24538Y-24734D01*
X24595Y-24622D01*
X24707Y-24565D01*
X24876Y-24565D01*
X24988Y-24622D01*
X25438Y-25803D02*
X25494Y-25746D01*
X25607Y-25578D01*
X25663Y-25465D01*
X25719Y-25296D01*
X25776Y-25015D01*
X25776Y-24790D01*
X25719Y-24509D01*
X25663Y-24340D01*
X25607Y-24228D01*
X25494Y-24059D01*
X25438Y-24003D01*
G54D11*
X-39Y-26377D02*
G75*
G03X-39Y-26377I-124J0D01*
G74*
G01*
G54D12*
X1254Y-25731D02*
X1366Y-25731D01*
X1479Y-25787D01*
X1535Y-25843D01*
X1591Y-25956D01*
X1647Y-26181D01*
X1647Y-26462D01*
X1591Y-26687D01*
X1535Y-26799D01*
X1479Y-26856D01*
X1366Y-26912D01*
X1254Y-26912D01*
X1141Y-26856D01*
X1085Y-26799D01*
X1029Y-26687D01*
X973Y-26462D01*
X973Y-26181D01*
X1029Y-25956D01*
X1085Y-25843D01*
X1141Y-25787D01*
X1254Y-25731D01*
X2154Y-26799D02*
X2210Y-26856D01*
X2154Y-26912D01*
X2097Y-26856D01*
X2154Y-26799D01*
X2154Y-26912D01*
X3222Y-25731D02*
X2997Y-25731D01*
X2885Y-25787D01*
X2829Y-25843D01*
X2716Y-26012D01*
X2660Y-26237D01*
X2660Y-26687D01*
X2716Y-26799D01*
X2772Y-26856D01*
X2885Y-26912D01*
X3110Y-26912D01*
X3222Y-26856D01*
X3278Y-26799D01*
X3335Y-26687D01*
X3335Y-26406D01*
X3278Y-26293D01*
X3222Y-26237D01*
X3110Y-26181D01*
X2885Y-26181D01*
X2772Y-26237D01*
X2716Y-26293D01*
X2660Y-26406D01*
X4347Y-26124D02*
X4347Y-26912D01*
X4066Y-25674D02*
X3785Y-26518D01*
X4516Y-26518D01*
X4966Y-26912D02*
X4966Y-26124D01*
X4966Y-26237D02*
X5022Y-26181D01*
X5134Y-26124D01*
X5303Y-26124D01*
X5416Y-26181D01*
X5472Y-26293D01*
X5472Y-26912D01*
X5472Y-26293D02*
X5528Y-26181D01*
X5641Y-26124D01*
X5809Y-26124D01*
X5922Y-26181D01*
X5978Y-26293D01*
X5978Y-26912D01*
X6541Y-26912D02*
X6541Y-26124D01*
X6541Y-26237D02*
X6597Y-26181D01*
X6709Y-26124D01*
X6878Y-26124D01*
X6991Y-26181D01*
X7047Y-26293D01*
X7047Y-26912D01*
X7047Y-26293D02*
X7103Y-26181D01*
X7215Y-26124D01*
X7384Y-26124D01*
X7497Y-26181D01*
X7553Y-26293D01*
X7553Y-26912D01*
X9859Y-25674D02*
X8847Y-27193D01*
X11377Y-25731D02*
X11490Y-25731D01*
X11602Y-25787D01*
X11659Y-25843D01*
X11715Y-25956D01*
X11771Y-26181D01*
X11771Y-26462D01*
X11715Y-26687D01*
X11659Y-26799D01*
X11602Y-26856D01*
X11490Y-26912D01*
X11377Y-26912D01*
X11265Y-26856D01*
X11209Y-26799D01*
X11152Y-26687D01*
X11096Y-26462D01*
X11096Y-26181D01*
X11152Y-25956D01*
X11209Y-25843D01*
X11265Y-25787D01*
X11377Y-25731D01*
X12277Y-26799D02*
X12334Y-26856D01*
X12277Y-26912D01*
X12221Y-26856D01*
X12277Y-26799D01*
X12277Y-26912D01*
X13065Y-25731D02*
X13177Y-25731D01*
X13290Y-25787D01*
X13346Y-25843D01*
X13402Y-25956D01*
X13458Y-26181D01*
X13458Y-26462D01*
X13402Y-26687D01*
X13346Y-26799D01*
X13290Y-26856D01*
X13177Y-26912D01*
X13065Y-26912D01*
X12952Y-26856D01*
X12896Y-26799D01*
X12840Y-26687D01*
X12784Y-26462D01*
X12784Y-26181D01*
X12840Y-25956D01*
X12896Y-25843D01*
X12952Y-25787D01*
X13065Y-25731D01*
X13908Y-25843D02*
X13965Y-25787D01*
X14077Y-25731D01*
X14358Y-25731D01*
X14471Y-25787D01*
X14527Y-25843D01*
X14583Y-25956D01*
X14583Y-26068D01*
X14527Y-26237D01*
X13852Y-26912D01*
X14583Y-26912D01*
X15652Y-25731D02*
X15089Y-25731D01*
X15033Y-26293D01*
X15089Y-26237D01*
X15202Y-26181D01*
X15483Y-26181D01*
X15596Y-26237D01*
X15652Y-26293D01*
X15708Y-26406D01*
X15708Y-26687D01*
X15652Y-26799D01*
X15596Y-26856D01*
X15483Y-26912D01*
X15202Y-26912D01*
X15089Y-26856D01*
X15033Y-26799D01*
X16158Y-25731D02*
X16158Y-25956D01*
X16608Y-25731D02*
X16608Y-25956D01*
X18352Y-27362D02*
X18295Y-27305D01*
X18183Y-27137D01*
X18127Y-27024D01*
X18070Y-26856D01*
X18014Y-26574D01*
X18014Y-26349D01*
X18070Y-26068D01*
X18127Y-25899D01*
X18183Y-25787D01*
X18295Y-25618D01*
X18352Y-25562D01*
X18745Y-25843D02*
X18802Y-25787D01*
X18914Y-25731D01*
X19195Y-25731D01*
X19308Y-25787D01*
X19364Y-25843D01*
X19420Y-25956D01*
X19420Y-26068D01*
X19364Y-26237D01*
X18689Y-26912D01*
X19420Y-26912D01*
X20095Y-26237D02*
X19983Y-26181D01*
X19926Y-26124D01*
X19870Y-26012D01*
X19870Y-25956D01*
X19926Y-25843D01*
X19983Y-25787D01*
X20095Y-25731D01*
X20320Y-25731D01*
X20433Y-25787D01*
X20489Y-25843D01*
X20545Y-25956D01*
X20545Y-26012D01*
X20489Y-26124D01*
X20433Y-26181D01*
X20320Y-26237D01*
X20095Y-26237D01*
X19983Y-26293D01*
X19926Y-26349D01*
X19870Y-26462D01*
X19870Y-26687D01*
X19926Y-26799D01*
X19983Y-26856D01*
X20095Y-26912D01*
X20320Y-26912D01*
X20433Y-26856D01*
X20489Y-26799D01*
X20545Y-26687D01*
X20545Y-26462D01*
X20489Y-26349D01*
X20433Y-26293D01*
X20320Y-26237D01*
X21951Y-26912D02*
X21951Y-25731D01*
X22457Y-26912D02*
X22457Y-26293D01*
X22401Y-26181D01*
X22289Y-26124D01*
X22120Y-26124D01*
X22007Y-26181D01*
X21951Y-26237D01*
X23188Y-26912D02*
X23076Y-26856D01*
X23020Y-26799D01*
X22964Y-26687D01*
X22964Y-26349D01*
X23020Y-26237D01*
X23076Y-26181D01*
X23188Y-26124D01*
X23357Y-26124D01*
X23470Y-26181D01*
X23526Y-26237D01*
X23582Y-26349D01*
X23582Y-26687D01*
X23526Y-26799D01*
X23470Y-26856D01*
X23357Y-26912D01*
X23188Y-26912D01*
X24257Y-26912D02*
X24145Y-26856D01*
X24088Y-26743D01*
X24088Y-25731D01*
X25157Y-26856D02*
X25044Y-26912D01*
X24820Y-26912D01*
X24707Y-26856D01*
X24651Y-26743D01*
X24651Y-26293D01*
X24707Y-26181D01*
X24820Y-26124D01*
X25044Y-26124D01*
X25157Y-26181D01*
X25213Y-26293D01*
X25213Y-26406D01*
X24651Y-26518D01*
X25663Y-26856D02*
X25776Y-26912D01*
X26001Y-26912D01*
X26113Y-26856D01*
X26169Y-26743D01*
X26169Y-26687D01*
X26113Y-26574D01*
X26001Y-26518D01*
X25832Y-26518D01*
X25719Y-26462D01*
X25663Y-26349D01*
X25663Y-26293D01*
X25719Y-26181D01*
X25832Y-26124D01*
X26001Y-26124D01*
X26113Y-26181D01*
X26563Y-27362D02*
X26619Y-27305D01*
X26732Y-27137D01*
X26788Y-27024D01*
X26844Y-26856D01*
X26901Y-26574D01*
X26901Y-26349D01*
X26844Y-26068D01*
X26788Y-25899D01*
X26732Y-25787D01*
X26619Y-25618D01*
X26563Y-25562D01*
X-177Y-27799D02*
X-177Y-28074D01*
X-314Y-27937D02*
X-39Y-27937D01*
X1254Y-27290D02*
X1366Y-27290D01*
X1479Y-27346D01*
X1535Y-27402D01*
X1591Y-27515D01*
X1647Y-27740D01*
X1647Y-28021D01*
X1591Y-28246D01*
X1535Y-28358D01*
X1479Y-28415D01*
X1366Y-28471D01*
X1254Y-28471D01*
X1141Y-28415D01*
X1085Y-28358D01*
X1029Y-28246D01*
X973Y-28021D01*
X973Y-27740D01*
X1029Y-27515D01*
X1085Y-27402D01*
X1141Y-27346D01*
X1254Y-27290D01*
X2154Y-28358D02*
X2210Y-28415D01*
X2154Y-28471D01*
X2097Y-28415D01*
X2154Y-28358D01*
X2154Y-28471D01*
X2604Y-27290D02*
X3391Y-27290D01*
X2885Y-28471D01*
X4066Y-27290D02*
X4178Y-27290D01*
X4291Y-27346D01*
X4347Y-27402D01*
X4403Y-27515D01*
X4460Y-27740D01*
X4460Y-28021D01*
X4403Y-28246D01*
X4347Y-28358D01*
X4291Y-28415D01*
X4178Y-28471D01*
X4066Y-28471D01*
X3953Y-28415D01*
X3897Y-28358D01*
X3841Y-28246D01*
X3785Y-28021D01*
X3785Y-27740D01*
X3841Y-27515D01*
X3897Y-27402D01*
X3953Y-27346D01*
X4066Y-27290D01*
X4966Y-28471D02*
X4966Y-27683D01*
X4966Y-27796D02*
X5022Y-27740D01*
X5134Y-27683D01*
X5303Y-27683D01*
X5416Y-27740D01*
X5472Y-27852D01*
X5472Y-28471D01*
X5472Y-27852D02*
X5528Y-27740D01*
X5641Y-27683D01*
X5809Y-27683D01*
X5922Y-27740D01*
X5978Y-27852D01*
X5978Y-28471D01*
X6541Y-28471D02*
X6541Y-27683D01*
X6541Y-27796D02*
X6597Y-27740D01*
X6709Y-27683D01*
X6878Y-27683D01*
X6991Y-27740D01*
X7047Y-27852D01*
X7047Y-28471D01*
X7047Y-27852D02*
X7103Y-27740D01*
X7215Y-27683D01*
X7384Y-27683D01*
X7497Y-27740D01*
X7553Y-27852D01*
X7553Y-28471D01*
X9859Y-27233D02*
X8847Y-28752D01*
X11377Y-27290D02*
X11490Y-27290D01*
X11602Y-27346D01*
X11659Y-27402D01*
X11715Y-27515D01*
X11771Y-27740D01*
X11771Y-28021D01*
X11715Y-28246D01*
X11659Y-28358D01*
X11602Y-28415D01*
X11490Y-28471D01*
X11377Y-28471D01*
X11265Y-28415D01*
X11209Y-28358D01*
X11152Y-28246D01*
X11096Y-28021D01*
X11096Y-27740D01*
X11152Y-27515D01*
X11209Y-27402D01*
X11265Y-27346D01*
X11377Y-27290D01*
X12277Y-28358D02*
X12334Y-28415D01*
X12277Y-28471D01*
X12221Y-28415D01*
X12277Y-28358D01*
X12277Y-28471D01*
X13065Y-27290D02*
X13177Y-27290D01*
X13290Y-27346D01*
X13346Y-27402D01*
X13402Y-27515D01*
X13458Y-27740D01*
X13458Y-28021D01*
X13402Y-28246D01*
X13346Y-28358D01*
X13290Y-28415D01*
X13177Y-28471D01*
X13065Y-28471D01*
X12952Y-28415D01*
X12896Y-28358D01*
X12840Y-28246D01*
X12784Y-28021D01*
X12784Y-27740D01*
X12840Y-27515D01*
X12896Y-27402D01*
X12952Y-27346D01*
X13065Y-27290D01*
X13908Y-27402D02*
X13965Y-27346D01*
X14077Y-27290D01*
X14358Y-27290D01*
X14471Y-27346D01*
X14527Y-27402D01*
X14583Y-27515D01*
X14583Y-27627D01*
X14527Y-27796D01*
X13852Y-28471D01*
X14583Y-28471D01*
X15258Y-27796D02*
X15146Y-27740D01*
X15089Y-27683D01*
X15033Y-27571D01*
X15033Y-27515D01*
X15089Y-27402D01*
X15146Y-27346D01*
X15258Y-27290D01*
X15483Y-27290D01*
X15596Y-27346D01*
X15652Y-27402D01*
X15708Y-27515D01*
X15708Y-27571D01*
X15652Y-27683D01*
X15596Y-27740D01*
X15483Y-27796D01*
X15258Y-27796D01*
X15146Y-27852D01*
X15089Y-27908D01*
X15033Y-28021D01*
X15033Y-28246D01*
X15089Y-28358D01*
X15146Y-28415D01*
X15258Y-28471D01*
X15483Y-28471D01*
X15596Y-28415D01*
X15652Y-28358D01*
X15708Y-28246D01*
X15708Y-28021D01*
X15652Y-27908D01*
X15596Y-27852D01*
X15483Y-27796D01*
X16158Y-27290D02*
X16158Y-27515D01*
X16608Y-27290D02*
X16608Y-27515D01*
X18352Y-28921D02*
X18295Y-28865D01*
X18183Y-28696D01*
X18127Y-28583D01*
X18070Y-28415D01*
X18014Y-28133D01*
X18014Y-27908D01*
X18070Y-27627D01*
X18127Y-27458D01*
X18183Y-27346D01*
X18295Y-27177D01*
X18352Y-27121D01*
X19308Y-27290D02*
X19083Y-27290D01*
X18970Y-27346D01*
X18914Y-27402D01*
X18802Y-27571D01*
X18745Y-27796D01*
X18745Y-28246D01*
X18802Y-28358D01*
X18858Y-28415D01*
X18970Y-28471D01*
X19195Y-28471D01*
X19308Y-28415D01*
X19364Y-28358D01*
X19420Y-28246D01*
X19420Y-27965D01*
X19364Y-27852D01*
X19308Y-27796D01*
X19195Y-27740D01*
X18970Y-27740D01*
X18858Y-27796D01*
X18802Y-27852D01*
X18745Y-27965D01*
X20826Y-28471D02*
X20826Y-27290D01*
X21332Y-28471D02*
X21332Y-27852D01*
X21276Y-27740D01*
X21164Y-27683D01*
X20995Y-27683D01*
X20883Y-27740D01*
X20826Y-27796D01*
X22064Y-28471D02*
X21951Y-28415D01*
X21895Y-28358D01*
X21839Y-28246D01*
X21839Y-27908D01*
X21895Y-27796D01*
X21951Y-27740D01*
X22064Y-27683D01*
X22232Y-27683D01*
X22345Y-27740D01*
X22401Y-27796D01*
X22457Y-27908D01*
X22457Y-28246D01*
X22401Y-28358D01*
X22345Y-28415D01*
X22232Y-28471D01*
X22064Y-28471D01*
X23132Y-28471D02*
X23020Y-28415D01*
X22964Y-28302D01*
X22964Y-27290D01*
X24032Y-28415D02*
X23920Y-28471D01*
X23695Y-28471D01*
X23582Y-28415D01*
X23526Y-28302D01*
X23526Y-27852D01*
X23582Y-27740D01*
X23695Y-27683D01*
X23920Y-27683D01*
X24032Y-27740D01*
X24088Y-27852D01*
X24088Y-27965D01*
X23526Y-28077D01*
X24538Y-28415D02*
X24651Y-28471D01*
X24876Y-28471D01*
X24988Y-28415D01*
X25044Y-28302D01*
X25044Y-28246D01*
X24988Y-28133D01*
X24876Y-28077D01*
X24707Y-28077D01*
X24595Y-28021D01*
X24538Y-27908D01*
X24538Y-27852D01*
X24595Y-27740D01*
X24707Y-27683D01*
X24876Y-27683D01*
X24988Y-27740D01*
X25438Y-28921D02*
X25494Y-28865D01*
X25607Y-28696D01*
X25663Y-28583D01*
X25719Y-28415D01*
X25776Y-28133D01*
X25776Y-27908D01*
X25719Y-27627D01*
X25663Y-27458D01*
X25607Y-27346D01*
X25494Y-27177D01*
X25438Y-27121D01*
G54D11*
X-90Y-29619D02*
X-90Y-29372D01*
X-338Y-29372D01*
X-338Y-29619D01*
X-90Y-29619D01*
G54D12*
X1254Y-28849D02*
X1366Y-28849D01*
X1479Y-28905D01*
X1535Y-28961D01*
X1591Y-29074D01*
X1647Y-29299D01*
X1647Y-29580D01*
X1591Y-29805D01*
X1535Y-29917D01*
X1479Y-29974D01*
X1366Y-30030D01*
X1254Y-30030D01*
X1141Y-29974D01*
X1085Y-29917D01*
X1029Y-29805D01*
X973Y-29580D01*
X973Y-29299D01*
X1029Y-29074D01*
X1085Y-28961D01*
X1141Y-28905D01*
X1254Y-28849D01*
X2154Y-29917D02*
X2210Y-29974D01*
X2154Y-30030D01*
X2097Y-29974D01*
X2154Y-29917D01*
X2154Y-30030D01*
X2885Y-29355D02*
X2772Y-29299D01*
X2716Y-29242D01*
X2660Y-29130D01*
X2660Y-29074D01*
X2716Y-28961D01*
X2772Y-28905D01*
X2885Y-28849D01*
X3110Y-28849D01*
X3222Y-28905D01*
X3278Y-28961D01*
X3335Y-29074D01*
X3335Y-29130D01*
X3278Y-29242D01*
X3222Y-29299D01*
X3110Y-29355D01*
X2885Y-29355D01*
X2772Y-29411D01*
X2716Y-29467D01*
X2660Y-29580D01*
X2660Y-29805D01*
X2716Y-29917D01*
X2772Y-29974D01*
X2885Y-30030D01*
X3110Y-30030D01*
X3222Y-29974D01*
X3278Y-29917D01*
X3335Y-29805D01*
X3335Y-29580D01*
X3278Y-29467D01*
X3222Y-29411D01*
X3110Y-29355D01*
X3897Y-30030D02*
X4122Y-30030D01*
X4235Y-29974D01*
X4291Y-29917D01*
X4403Y-29749D01*
X4460Y-29524D01*
X4460Y-29074D01*
X4403Y-28961D01*
X4347Y-28905D01*
X4235Y-28849D01*
X4010Y-28849D01*
X3897Y-28905D01*
X3841Y-28961D01*
X3785Y-29074D01*
X3785Y-29355D01*
X3841Y-29467D01*
X3897Y-29524D01*
X4010Y-29580D01*
X4235Y-29580D01*
X4347Y-29524D01*
X4403Y-29467D01*
X4460Y-29355D01*
X4966Y-30030D02*
X4966Y-29242D01*
X4966Y-29355D02*
X5022Y-29299D01*
X5134Y-29242D01*
X5303Y-29242D01*
X5416Y-29299D01*
X5472Y-29411D01*
X5472Y-30030D01*
X5472Y-29411D02*
X5528Y-29299D01*
X5641Y-29242D01*
X5809Y-29242D01*
X5922Y-29299D01*
X5978Y-29411D01*
X5978Y-30030D01*
X6541Y-30030D02*
X6541Y-29242D01*
X6541Y-29355D02*
X6597Y-29299D01*
X6709Y-29242D01*
X6878Y-29242D01*
X6991Y-29299D01*
X7047Y-29411D01*
X7047Y-30030D01*
X7047Y-29411D02*
X7103Y-29299D01*
X7215Y-29242D01*
X7384Y-29242D01*
X7497Y-29299D01*
X7553Y-29411D01*
X7553Y-30030D01*
X9859Y-28793D02*
X8847Y-30311D01*
X11377Y-28849D02*
X11490Y-28849D01*
X11602Y-28905D01*
X11659Y-28961D01*
X11715Y-29074D01*
X11771Y-29299D01*
X11771Y-29580D01*
X11715Y-29805D01*
X11659Y-29917D01*
X11602Y-29974D01*
X11490Y-30030D01*
X11377Y-30030D01*
X11265Y-29974D01*
X11209Y-29917D01*
X11152Y-29805D01*
X11096Y-29580D01*
X11096Y-29299D01*
X11152Y-29074D01*
X11209Y-28961D01*
X11265Y-28905D01*
X11377Y-28849D01*
X12277Y-29917D02*
X12334Y-29974D01*
X12277Y-30030D01*
X12221Y-29974D01*
X12277Y-29917D01*
X12277Y-30030D01*
X13065Y-28849D02*
X13177Y-28849D01*
X13290Y-28905D01*
X13346Y-28961D01*
X13402Y-29074D01*
X13458Y-29299D01*
X13458Y-29580D01*
X13402Y-29805D01*
X13346Y-29917D01*
X13290Y-29974D01*
X13177Y-30030D01*
X13065Y-30030D01*
X12952Y-29974D01*
X12896Y-29917D01*
X12840Y-29805D01*
X12784Y-29580D01*
X12784Y-29299D01*
X12840Y-29074D01*
X12896Y-28961D01*
X12952Y-28905D01*
X13065Y-28849D01*
X13852Y-28849D02*
X14583Y-28849D01*
X14190Y-29299D01*
X14358Y-29299D01*
X14471Y-29355D01*
X14527Y-29411D01*
X14583Y-29524D01*
X14583Y-29805D01*
X14527Y-29917D01*
X14471Y-29974D01*
X14358Y-30030D01*
X14021Y-30030D01*
X13908Y-29974D01*
X13852Y-29917D01*
X15652Y-28849D02*
X15089Y-28849D01*
X15033Y-29411D01*
X15089Y-29355D01*
X15202Y-29299D01*
X15483Y-29299D01*
X15596Y-29355D01*
X15652Y-29411D01*
X15708Y-29524D01*
X15708Y-29805D01*
X15652Y-29917D01*
X15596Y-29974D01*
X15483Y-30030D01*
X15202Y-30030D01*
X15089Y-29974D01*
X15033Y-29917D01*
X16158Y-28849D02*
X16158Y-29074D01*
X16608Y-28849D02*
X16608Y-29074D01*
X18352Y-30480D02*
X18295Y-30424D01*
X18183Y-30255D01*
X18127Y-30142D01*
X18070Y-29974D01*
X18014Y-29692D01*
X18014Y-29467D01*
X18070Y-29186D01*
X18127Y-29017D01*
X18183Y-28905D01*
X18295Y-28736D01*
X18352Y-28680D01*
X18745Y-28961D02*
X18802Y-28905D01*
X18914Y-28849D01*
X19195Y-28849D01*
X19308Y-28905D01*
X19364Y-28961D01*
X19420Y-29074D01*
X19420Y-29186D01*
X19364Y-29355D01*
X18689Y-30030D01*
X19420Y-30030D01*
X20433Y-29242D02*
X20433Y-30030D01*
X20151Y-28793D02*
X19870Y-29636D01*
X20601Y-29636D01*
X21951Y-30030D02*
X21951Y-28849D01*
X22457Y-30030D02*
X22457Y-29411D01*
X22401Y-29299D01*
X22289Y-29242D01*
X22120Y-29242D01*
X22007Y-29299D01*
X21951Y-29355D01*
X23188Y-30030D02*
X23076Y-29974D01*
X23020Y-29917D01*
X22964Y-29805D01*
X22964Y-29467D01*
X23020Y-29355D01*
X23076Y-29299D01*
X23188Y-29242D01*
X23357Y-29242D01*
X23470Y-29299D01*
X23526Y-29355D01*
X23582Y-29467D01*
X23582Y-29805D01*
X23526Y-29917D01*
X23470Y-29974D01*
X23357Y-30030D01*
X23188Y-30030D01*
X24257Y-30030D02*
X24145Y-29974D01*
X24088Y-29861D01*
X24088Y-28849D01*
X25157Y-29974D02*
X25044Y-30030D01*
X24820Y-30030D01*
X24707Y-29974D01*
X24651Y-29861D01*
X24651Y-29411D01*
X24707Y-29299D01*
X24820Y-29242D01*
X25044Y-29242D01*
X25157Y-29299D01*
X25213Y-29411D01*
X25213Y-29524D01*
X24651Y-29636D01*
X25663Y-29974D02*
X25776Y-30030D01*
X26001Y-30030D01*
X26113Y-29974D01*
X26169Y-29861D01*
X26169Y-29805D01*
X26113Y-29692D01*
X26001Y-29636D01*
X25832Y-29636D01*
X25719Y-29580D01*
X25663Y-29467D01*
X25663Y-29411D01*
X25719Y-29299D01*
X25832Y-29242D01*
X26001Y-29242D01*
X26113Y-29299D01*
X26563Y-30480D02*
X26619Y-30424D01*
X26732Y-30255D01*
X26788Y-30142D01*
X26844Y-29974D01*
X26901Y-29692D01*
X26901Y-29467D01*
X26844Y-29186D01*
X26788Y-29017D01*
X26732Y-28905D01*
X26619Y-28736D01*
X26563Y-28680D01*
G54D11*
X-239Y-31255D02*
X-39Y-31055D01*
X-239Y-30855D01*
X-439Y-31055D01*
X-239Y-31255D01*
G54D12*
X1647Y-31589D02*
X973Y-31589D01*
X1310Y-31589D02*
X1310Y-30408D01*
X1197Y-30577D01*
X1085Y-30689D01*
X973Y-30745D01*
X2154Y-31476D02*
X2210Y-31533D01*
X2154Y-31589D01*
X2097Y-31533D01*
X2154Y-31476D01*
X2154Y-31589D01*
X2941Y-30408D02*
X3053Y-30408D01*
X3166Y-30464D01*
X3222Y-30520D01*
X3278Y-30633D01*
X3335Y-30858D01*
X3335Y-31139D01*
X3278Y-31364D01*
X3222Y-31476D01*
X3166Y-31533D01*
X3053Y-31589D01*
X2941Y-31589D01*
X2829Y-31533D01*
X2772Y-31476D01*
X2716Y-31364D01*
X2660Y-31139D01*
X2660Y-30858D01*
X2716Y-30633D01*
X2772Y-30520D01*
X2829Y-30464D01*
X2941Y-30408D01*
X3785Y-30520D02*
X3841Y-30464D01*
X3953Y-30408D01*
X4235Y-30408D01*
X4347Y-30464D01*
X4403Y-30520D01*
X4460Y-30633D01*
X4460Y-30745D01*
X4403Y-30914D01*
X3728Y-31589D01*
X4460Y-31589D01*
X4966Y-31589D02*
X4966Y-30802D01*
X4966Y-30914D02*
X5022Y-30858D01*
X5134Y-30802D01*
X5303Y-30802D01*
X5416Y-30858D01*
X5472Y-30970D01*
X5472Y-31589D01*
X5472Y-30970D02*
X5528Y-30858D01*
X5641Y-30802D01*
X5809Y-30802D01*
X5922Y-30858D01*
X5978Y-30970D01*
X5978Y-31589D01*
X6541Y-31589D02*
X6541Y-30802D01*
X6541Y-30914D02*
X6597Y-30858D01*
X6709Y-30802D01*
X6878Y-30802D01*
X6991Y-30858D01*
X7047Y-30970D01*
X7047Y-31589D01*
X7047Y-30970D02*
X7103Y-30858D01*
X7215Y-30802D01*
X7384Y-30802D01*
X7497Y-30858D01*
X7553Y-30970D01*
X7553Y-31589D01*
X9859Y-30352D02*
X8847Y-31870D01*
X11377Y-30408D02*
X11490Y-30408D01*
X11602Y-30464D01*
X11659Y-30520D01*
X11715Y-30633D01*
X11771Y-30858D01*
X11771Y-31139D01*
X11715Y-31364D01*
X11659Y-31476D01*
X11602Y-31533D01*
X11490Y-31589D01*
X11377Y-31589D01*
X11265Y-31533D01*
X11209Y-31476D01*
X11152Y-31364D01*
X11096Y-31139D01*
X11096Y-30858D01*
X11152Y-30633D01*
X11209Y-30520D01*
X11265Y-30464D01*
X11377Y-30408D01*
X12277Y-31476D02*
X12334Y-31533D01*
X12277Y-31589D01*
X12221Y-31533D01*
X12277Y-31476D01*
X12277Y-31589D01*
X13065Y-30408D02*
X13177Y-30408D01*
X13290Y-30464D01*
X13346Y-30520D01*
X13402Y-30633D01*
X13458Y-30858D01*
X13458Y-31139D01*
X13402Y-31364D01*
X13346Y-31476D01*
X13290Y-31533D01*
X13177Y-31589D01*
X13065Y-31589D01*
X12952Y-31533D01*
X12896Y-31476D01*
X12840Y-31364D01*
X12784Y-31139D01*
X12784Y-30858D01*
X12840Y-30633D01*
X12896Y-30520D01*
X12952Y-30464D01*
X13065Y-30408D01*
X14471Y-30802D02*
X14471Y-31589D01*
X14190Y-30352D02*
X13908Y-31195D01*
X14640Y-31195D01*
X15314Y-30408D02*
X15427Y-30408D01*
X15539Y-30464D01*
X15596Y-30520D01*
X15652Y-30633D01*
X15708Y-30858D01*
X15708Y-31139D01*
X15652Y-31364D01*
X15596Y-31476D01*
X15539Y-31533D01*
X15427Y-31589D01*
X15314Y-31589D01*
X15202Y-31533D01*
X15146Y-31476D01*
X15089Y-31364D01*
X15033Y-31139D01*
X15033Y-30858D01*
X15089Y-30633D01*
X15146Y-30520D01*
X15202Y-30464D01*
X15314Y-30408D01*
X16158Y-30408D02*
X16158Y-30633D01*
X16608Y-30408D02*
X16608Y-30633D01*
X18352Y-32039D02*
X18295Y-31983D01*
X18183Y-31814D01*
X18127Y-31701D01*
X18070Y-31533D01*
X18014Y-31251D01*
X18014Y-31026D01*
X18070Y-30745D01*
X18127Y-30577D01*
X18183Y-30464D01*
X18295Y-30295D01*
X18352Y-30239D01*
X18745Y-30520D02*
X18802Y-30464D01*
X18914Y-30408D01*
X19195Y-30408D01*
X19308Y-30464D01*
X19364Y-30520D01*
X19420Y-30633D01*
X19420Y-30745D01*
X19364Y-30914D01*
X18689Y-31589D01*
X19420Y-31589D01*
X20433Y-30802D02*
X20433Y-31589D01*
X20151Y-30352D02*
X19870Y-31195D01*
X20601Y-31195D01*
X21220Y-30914D02*
X21107Y-30858D01*
X21051Y-30802D01*
X20995Y-30689D01*
X20995Y-30633D01*
X21051Y-30520D01*
X21107Y-30464D01*
X21220Y-30408D01*
X21445Y-30408D01*
X21557Y-30464D01*
X21614Y-30520D01*
X21670Y-30633D01*
X21670Y-30689D01*
X21614Y-30802D01*
X21557Y-30858D01*
X21445Y-30914D01*
X21220Y-30914D01*
X21107Y-30970D01*
X21051Y-31026D01*
X20995Y-31139D01*
X20995Y-31364D01*
X21051Y-31476D01*
X21107Y-31533D01*
X21220Y-31589D01*
X21445Y-31589D01*
X21557Y-31533D01*
X21614Y-31476D01*
X21670Y-31364D01*
X21670Y-31139D01*
X21614Y-31026D01*
X21557Y-30970D01*
X21445Y-30914D01*
X23076Y-31589D02*
X23076Y-30408D01*
X23582Y-31589D02*
X23582Y-30970D01*
X23526Y-30858D01*
X23413Y-30802D01*
X23245Y-30802D01*
X23132Y-30858D01*
X23076Y-30914D01*
X24313Y-31589D02*
X24201Y-31533D01*
X24145Y-31476D01*
X24088Y-31364D01*
X24088Y-31026D01*
X24145Y-30914D01*
X24201Y-30858D01*
X24313Y-30802D01*
X24482Y-30802D01*
X24595Y-30858D01*
X24651Y-30914D01*
X24707Y-31026D01*
X24707Y-31364D01*
X24651Y-31476D01*
X24595Y-31533D01*
X24482Y-31589D01*
X24313Y-31589D01*
X25382Y-31589D02*
X25269Y-31533D01*
X25213Y-31420D01*
X25213Y-30408D01*
X26282Y-31533D02*
X26169Y-31589D01*
X25944Y-31589D01*
X25832Y-31533D01*
X25776Y-31420D01*
X25776Y-30970D01*
X25832Y-30858D01*
X25944Y-30802D01*
X26169Y-30802D01*
X26282Y-30858D01*
X26338Y-30970D01*
X26338Y-31083D01*
X25776Y-31195D01*
X26788Y-31533D02*
X26901Y-31589D01*
X27125Y-31589D01*
X27238Y-31533D01*
X27294Y-31420D01*
X27294Y-31364D01*
X27238Y-31251D01*
X27125Y-31195D01*
X26957Y-31195D01*
X26844Y-31139D01*
X26788Y-31026D01*
X26788Y-30970D01*
X26844Y-30858D01*
X26957Y-30802D01*
X27125Y-30802D01*
X27238Y-30858D01*
X27688Y-32039D02*
X27744Y-31983D01*
X27857Y-31814D01*
X27913Y-31701D01*
X27969Y-31533D01*
X28025Y-31251D01*
X28025Y-31026D01*
X27969Y-30745D01*
X27913Y-30577D01*
X27857Y-30464D01*
X27744Y-30295D01*
X27688Y-30239D01*
X-1220Y-32023D02*
X-39Y-33204D01*
X-39Y-32023D02*
X-1220Y-33204D01*
G54D11*
X-39Y-32614D02*
G75*
G03X-39Y-32614I-590J0D01*
G74*
G01*
G54D12*
X916Y-31967D02*
X1647Y-31967D01*
X1254Y-32417D01*
X1422Y-32417D01*
X1535Y-32473D01*
X1591Y-32529D01*
X1647Y-32642D01*
X1647Y-32923D01*
X1591Y-33035D01*
X1535Y-33092D01*
X1422Y-33148D01*
X1085Y-33148D01*
X973Y-33092D01*
X916Y-33035D01*
X2154Y-33035D02*
X2210Y-33092D01*
X2154Y-33148D01*
X2097Y-33092D01*
X2154Y-33035D01*
X2154Y-33148D01*
X2941Y-31967D02*
X3053Y-31967D01*
X3166Y-32023D01*
X3222Y-32079D01*
X3278Y-32192D01*
X3335Y-32417D01*
X3335Y-32698D01*
X3278Y-32923D01*
X3222Y-33035D01*
X3166Y-33092D01*
X3053Y-33148D01*
X2941Y-33148D01*
X2829Y-33092D01*
X2772Y-33035D01*
X2716Y-32923D01*
X2660Y-32698D01*
X2660Y-32417D01*
X2716Y-32192D01*
X2772Y-32079D01*
X2829Y-32023D01*
X2941Y-31967D01*
X4066Y-31967D02*
X4178Y-31967D01*
X4291Y-32023D01*
X4347Y-32079D01*
X4403Y-32192D01*
X4460Y-32417D01*
X4460Y-32698D01*
X4403Y-32923D01*
X4347Y-33035D01*
X4291Y-33092D01*
X4178Y-33148D01*
X4066Y-33148D01*
X3953Y-33092D01*
X3897Y-33035D01*
X3841Y-32923D01*
X3785Y-32698D01*
X3785Y-32417D01*
X3841Y-32192D01*
X3897Y-32079D01*
X3953Y-32023D01*
X4066Y-31967D01*
X4966Y-33148D02*
X4966Y-32361D01*
X4966Y-32473D02*
X5022Y-32417D01*
X5134Y-32361D01*
X5303Y-32361D01*
X5416Y-32417D01*
X5472Y-32529D01*
X5472Y-33148D01*
X5472Y-32529D02*
X5528Y-32417D01*
X5641Y-32361D01*
X5809Y-32361D01*
X5922Y-32417D01*
X5978Y-32529D01*
X5978Y-33148D01*
X6541Y-33148D02*
X6541Y-32361D01*
X6541Y-32473D02*
X6597Y-32417D01*
X6709Y-32361D01*
X6878Y-32361D01*
X6991Y-32417D01*
X7047Y-32529D01*
X7047Y-33148D01*
X7047Y-32529D02*
X7103Y-32417D01*
X7215Y-32361D01*
X7384Y-32361D01*
X7497Y-32417D01*
X7553Y-32529D01*
X7553Y-33148D01*
X9859Y-31911D02*
X8847Y-33429D01*
X11377Y-31967D02*
X11490Y-31967D01*
X11602Y-32023D01*
X11659Y-32079D01*
X11715Y-32192D01*
X11771Y-32417D01*
X11771Y-32698D01*
X11715Y-32923D01*
X11659Y-33035D01*
X11602Y-33092D01*
X11490Y-33148D01*
X11377Y-33148D01*
X11265Y-33092D01*
X11209Y-33035D01*
X11152Y-32923D01*
X11096Y-32698D01*
X11096Y-32417D01*
X11152Y-32192D01*
X11209Y-32079D01*
X11265Y-32023D01*
X11377Y-31967D01*
X12277Y-33035D02*
X12334Y-33092D01*
X12277Y-33148D01*
X12221Y-33092D01*
X12277Y-33035D01*
X12277Y-33148D01*
X13458Y-33148D02*
X12784Y-33148D01*
X13121Y-33148D02*
X13121Y-31967D01*
X13008Y-32136D01*
X12896Y-32248D01*
X12784Y-32304D01*
X14583Y-33148D02*
X13908Y-33148D01*
X14246Y-33148D02*
X14246Y-31967D01*
X14133Y-32136D01*
X14021Y-32248D01*
X13908Y-32304D01*
X15258Y-32473D02*
X15146Y-32417D01*
X15089Y-32361D01*
X15033Y-32248D01*
X15033Y-32192D01*
X15089Y-32079D01*
X15146Y-32023D01*
X15258Y-31967D01*
X15483Y-31967D01*
X15596Y-32023D01*
X15652Y-32079D01*
X15708Y-32192D01*
X15708Y-32248D01*
X15652Y-32361D01*
X15596Y-32417D01*
X15483Y-32473D01*
X15258Y-32473D01*
X15146Y-32529D01*
X15089Y-32586D01*
X15033Y-32698D01*
X15033Y-32923D01*
X15089Y-33035D01*
X15146Y-33092D01*
X15258Y-33148D01*
X15483Y-33148D01*
X15596Y-33092D01*
X15652Y-33035D01*
X15708Y-32923D01*
X15708Y-32698D01*
X15652Y-32586D01*
X15596Y-32529D01*
X15483Y-32473D01*
X16158Y-31967D02*
X16158Y-32192D01*
X16608Y-31967D02*
X16608Y-32192D01*
X18352Y-33598D02*
X18295Y-33542D01*
X18183Y-33373D01*
X18127Y-33260D01*
X18070Y-33092D01*
X18014Y-32811D01*
X18014Y-32586D01*
X18070Y-32304D01*
X18127Y-32136D01*
X18183Y-32023D01*
X18295Y-31854D01*
X18352Y-31798D01*
X19420Y-33148D02*
X18745Y-33148D01*
X19083Y-33148D02*
X19083Y-31967D01*
X18970Y-32136D01*
X18858Y-32248D01*
X18745Y-32304D01*
X20826Y-33148D02*
X20826Y-31967D01*
X21332Y-33148D02*
X21332Y-32529D01*
X21276Y-32417D01*
X21164Y-32361D01*
X20995Y-32361D01*
X20883Y-32417D01*
X20826Y-32473D01*
X22064Y-33148D02*
X21951Y-33092D01*
X21895Y-33035D01*
X21839Y-32923D01*
X21839Y-32586D01*
X21895Y-32473D01*
X21951Y-32417D01*
X22064Y-32361D01*
X22232Y-32361D01*
X22345Y-32417D01*
X22401Y-32473D01*
X22457Y-32586D01*
X22457Y-32923D01*
X22401Y-33035D01*
X22345Y-33092D01*
X22232Y-33148D01*
X22064Y-33148D01*
X23132Y-33148D02*
X23020Y-33092D01*
X22964Y-32979D01*
X22964Y-31967D01*
X24032Y-33092D02*
X23920Y-33148D01*
X23695Y-33148D01*
X23582Y-33092D01*
X23526Y-32979D01*
X23526Y-32529D01*
X23582Y-32417D01*
X23695Y-32361D01*
X23920Y-32361D01*
X24032Y-32417D01*
X24088Y-32529D01*
X24088Y-32642D01*
X23526Y-32754D01*
X24482Y-33598D02*
X24538Y-33542D01*
X24651Y-33373D01*
X24707Y-33260D01*
X24763Y-33092D01*
X24820Y-32811D01*
X24820Y-32586D01*
X24763Y-32304D01*
X24707Y-32136D01*
X24651Y-32023D01*
X24538Y-31854D01*
X24482Y-31798D01*
X-1319Y-33667D02*
X-39Y-34947D01*
X-39Y-33667D02*
X-1319Y-34947D01*
X-679Y-33667D02*
X-679Y-34947D01*
X-1319Y-34307D02*
X-39Y-34307D01*
X916Y-33660D02*
X1647Y-33660D01*
X1254Y-34110D01*
X1422Y-34110D01*
X1535Y-34166D01*
X1591Y-34222D01*
X1647Y-34335D01*
X1647Y-34616D01*
X1591Y-34728D01*
X1535Y-34785D01*
X1422Y-34841D01*
X1085Y-34841D01*
X973Y-34785D01*
X916Y-34728D01*
X2154Y-34728D02*
X2210Y-34785D01*
X2154Y-34841D01*
X2097Y-34785D01*
X2154Y-34728D01*
X2154Y-34841D01*
X2660Y-33772D02*
X2716Y-33716D01*
X2829Y-33660D01*
X3110Y-33660D01*
X3222Y-33716D01*
X3278Y-33772D01*
X3335Y-33885D01*
X3335Y-33997D01*
X3278Y-34166D01*
X2604Y-34841D01*
X3335Y-34841D01*
X4403Y-33660D02*
X3841Y-33660D01*
X3785Y-34222D01*
X3841Y-34166D01*
X3953Y-34110D01*
X4235Y-34110D01*
X4347Y-34166D01*
X4403Y-34222D01*
X4460Y-34335D01*
X4460Y-34616D01*
X4403Y-34728D01*
X4347Y-34785D01*
X4235Y-34841D01*
X3953Y-34841D01*
X3841Y-34785D01*
X3785Y-34728D01*
X4966Y-34841D02*
X4966Y-34053D01*
X4966Y-34166D02*
X5022Y-34110D01*
X5134Y-34053D01*
X5303Y-34053D01*
X5416Y-34110D01*
X5472Y-34222D01*
X5472Y-34841D01*
X5472Y-34222D02*
X5528Y-34110D01*
X5641Y-34053D01*
X5809Y-34053D01*
X5922Y-34110D01*
X5978Y-34222D01*
X5978Y-34841D01*
X6541Y-34841D02*
X6541Y-34053D01*
X6541Y-34166D02*
X6597Y-34110D01*
X6709Y-34053D01*
X6878Y-34053D01*
X6991Y-34110D01*
X7047Y-34222D01*
X7047Y-34841D01*
X7047Y-34222D02*
X7103Y-34110D01*
X7215Y-34053D01*
X7384Y-34053D01*
X7497Y-34110D01*
X7553Y-34222D01*
X7553Y-34841D01*
X9859Y-33604D02*
X8847Y-35122D01*
X11377Y-33660D02*
X11490Y-33660D01*
X11602Y-33716D01*
X11659Y-33772D01*
X11715Y-33885D01*
X11771Y-34110D01*
X11771Y-34391D01*
X11715Y-34616D01*
X11659Y-34728D01*
X11602Y-34785D01*
X11490Y-34841D01*
X11377Y-34841D01*
X11265Y-34785D01*
X11209Y-34728D01*
X11152Y-34616D01*
X11096Y-34391D01*
X11096Y-34110D01*
X11152Y-33885D01*
X11209Y-33772D01*
X11265Y-33716D01*
X11377Y-33660D01*
X12277Y-34728D02*
X12334Y-34785D01*
X12277Y-34841D01*
X12221Y-34785D01*
X12277Y-34728D01*
X12277Y-34841D01*
X13458Y-34841D02*
X12784Y-34841D01*
X13121Y-34841D02*
X13121Y-33660D01*
X13008Y-33829D01*
X12896Y-33941D01*
X12784Y-33997D01*
X13908Y-33772D02*
X13965Y-33716D01*
X14077Y-33660D01*
X14358Y-33660D01*
X14471Y-33716D01*
X14527Y-33772D01*
X14583Y-33885D01*
X14583Y-33997D01*
X14527Y-34166D01*
X13852Y-34841D01*
X14583Y-34841D01*
X15258Y-34166D02*
X15146Y-34110D01*
X15089Y-34053D01*
X15033Y-33941D01*
X15033Y-33885D01*
X15089Y-33772D01*
X15146Y-33716D01*
X15258Y-33660D01*
X15483Y-33660D01*
X15596Y-33716D01*
X15652Y-33772D01*
X15708Y-33885D01*
X15708Y-33941D01*
X15652Y-34053D01*
X15596Y-34110D01*
X15483Y-34166D01*
X15258Y-34166D01*
X15146Y-34222D01*
X15089Y-34278D01*
X15033Y-34391D01*
X15033Y-34616D01*
X15089Y-34728D01*
X15146Y-34785D01*
X15258Y-34841D01*
X15483Y-34841D01*
X15596Y-34785D01*
X15652Y-34728D01*
X15708Y-34616D01*
X15708Y-34391D01*
X15652Y-34278D01*
X15596Y-34222D01*
X15483Y-34166D01*
X16158Y-33660D02*
X16158Y-33885D01*
X16608Y-33660D02*
X16608Y-33885D01*
X18352Y-35291D02*
X18295Y-35235D01*
X18183Y-35066D01*
X18127Y-34953D01*
X18070Y-34785D01*
X18014Y-34503D01*
X18014Y-34278D01*
X18070Y-33997D01*
X18127Y-33829D01*
X18183Y-33716D01*
X18295Y-33547D01*
X18352Y-33491D01*
X19308Y-34053D02*
X19308Y-34841D01*
X19026Y-33604D02*
X18745Y-34447D01*
X19476Y-34447D01*
X20826Y-34841D02*
X20826Y-33660D01*
X21332Y-34841D02*
X21332Y-34222D01*
X21276Y-34110D01*
X21164Y-34053D01*
X20995Y-34053D01*
X20883Y-34110D01*
X20826Y-34166D01*
X22064Y-34841D02*
X21951Y-34785D01*
X21895Y-34728D01*
X21839Y-34616D01*
X21839Y-34278D01*
X21895Y-34166D01*
X21951Y-34110D01*
X22064Y-34053D01*
X22232Y-34053D01*
X22345Y-34110D01*
X22401Y-34166D01*
X22457Y-34278D01*
X22457Y-34616D01*
X22401Y-34728D01*
X22345Y-34785D01*
X22232Y-34841D01*
X22064Y-34841D01*
X23132Y-34841D02*
X23020Y-34785D01*
X22964Y-34672D01*
X22964Y-33660D01*
X24032Y-34785D02*
X23920Y-34841D01*
X23695Y-34841D01*
X23582Y-34785D01*
X23526Y-34672D01*
X23526Y-34222D01*
X23582Y-34110D01*
X23695Y-34053D01*
X23920Y-34053D01*
X24032Y-34110D01*
X24088Y-34222D01*
X24088Y-34335D01*
X23526Y-34447D01*
X24538Y-34785D02*
X24651Y-34841D01*
X24876Y-34841D01*
X24988Y-34785D01*
X25044Y-34672D01*
X25044Y-34616D01*
X24988Y-34503D01*
X24876Y-34447D01*
X24707Y-34447D01*
X24595Y-34391D01*
X24538Y-34278D01*
X24538Y-34222D01*
X24595Y-34110D01*
X24707Y-34053D01*
X24876Y-34053D01*
X24988Y-34110D01*
X25438Y-35291D02*
X25494Y-35235D01*
X25607Y-35066D01*
X25663Y-34953D01*
X25719Y-34785D01*
X25776Y-34503D01*
X25776Y-34278D01*
X25719Y-33997D01*
X25663Y-33829D01*
X25607Y-33716D01*
X25494Y-33547D01*
X25438Y-33491D01*
M02*
