%FSLAX34Y34*%
G04 Gerber Fmt 3.4, Leading zero omitted, Abs format*
G04 (created by PCBNEW (2014-03-19 BZR 4756)-product) date Tue 16 Sep 2014 15:57:37 BRT*
%MOIN*%
G01*
G70*
G90*
G04 APERTURE LIST*
%ADD10C,0.005906*%
%ADD11C,0.137795*%
%ADD12C,0.070000*%
%ADD13R,0.070000X0.070000*%
%ADD14C,0.062992*%
%ADD15R,0.062992X0.062992*%
%ADD16C,0.052000*%
%ADD17C,0.128000*%
%ADD18C,0.035000*%
%ADD19C,0.025000*%
%ADD20C,0.040000*%
%ADD21C,0.050000*%
%ADD22C,0.020000*%
%ADD23C,0.015000*%
%ADD24C,0.012000*%
%ADD25C,0.010000*%
G04 APERTURE END LIST*
G54D10*
G54D11*
X25052Y-17500D03*
G54D12*
X25060Y-20000D03*
X24060Y-20000D03*
X23060Y-20000D03*
G54D13*
X20060Y-20000D03*
G54D12*
X21060Y-20000D03*
X22060Y-20000D03*
X25060Y-19000D03*
X24060Y-19000D03*
X23060Y-19000D03*
G54D13*
X20060Y-19000D03*
G54D12*
X21060Y-19000D03*
X22060Y-19000D03*
G54D14*
X1840Y-13633D03*
G54D15*
X1840Y-12846D03*
G54D14*
X7876Y-16000D03*
G54D15*
X8663Y-16000D03*
G54D14*
X8240Y-13376D03*
G54D15*
X8240Y-14163D03*
G54D12*
X7460Y-1000D03*
X10460Y-1000D03*
X11460Y-1000D03*
X9460Y-1000D03*
X8460Y-1000D03*
X12460Y-1000D03*
X13460Y-1000D03*
G54D13*
X16460Y-1000D03*
G54D12*
X15460Y-1000D03*
X14460Y-1000D03*
X7460Y-2000D03*
X10460Y-2000D03*
X11460Y-2000D03*
X9460Y-2000D03*
X8460Y-2000D03*
X12460Y-2000D03*
X13460Y-2000D03*
G54D13*
X16460Y-2000D03*
G54D12*
X15460Y-2000D03*
X14460Y-2000D03*
X19060Y-1000D03*
X20060Y-1000D03*
X18060Y-1000D03*
X21060Y-1000D03*
X22060Y-1000D03*
G54D13*
X25060Y-1000D03*
G54D12*
X24060Y-1000D03*
X23060Y-1000D03*
X19060Y-2000D03*
X20060Y-2000D03*
X18060Y-2000D03*
X21060Y-2000D03*
X22060Y-2000D03*
G54D13*
X25060Y-2000D03*
G54D12*
X24060Y-2000D03*
X23060Y-2000D03*
G54D16*
X4560Y-11580D03*
X4560Y-10680D03*
X4560Y-7080D03*
X4560Y-6180D03*
X2660Y-7480D03*
X2660Y-8280D03*
X2660Y-9080D03*
X2660Y-9880D03*
X1960Y-8680D03*
X1960Y-9480D03*
X1960Y-7880D03*
X1960Y-10280D03*
G54D17*
X960Y-11380D03*
X960Y-6380D03*
G54D16*
X4560Y-20300D03*
X4560Y-19400D03*
X4560Y-15800D03*
X4560Y-14900D03*
X2660Y-16200D03*
X2660Y-17000D03*
X2660Y-17800D03*
X2660Y-18600D03*
X1960Y-17400D03*
X1960Y-18200D03*
X1960Y-16600D03*
X1960Y-19000D03*
G54D17*
X960Y-20100D03*
X960Y-15100D03*
G54D13*
X23060Y-4300D03*
G54D12*
X23060Y-3300D03*
X24060Y-4300D03*
X24060Y-3300D03*
X25060Y-4300D03*
X25060Y-3300D03*
X17060Y-20000D03*
X16060Y-20000D03*
X18060Y-20000D03*
X15060Y-20000D03*
X14060Y-20000D03*
G54D13*
X11060Y-20000D03*
G54D12*
X12060Y-20000D03*
X13060Y-20000D03*
X17060Y-19000D03*
X16060Y-19000D03*
X18060Y-19000D03*
X15060Y-19000D03*
X14060Y-19000D03*
G54D13*
X11060Y-19000D03*
G54D12*
X12060Y-19000D03*
X13060Y-19000D03*
G54D13*
X25060Y-11500D03*
X24060Y-11500D03*
X23060Y-11500D03*
X22060Y-11500D03*
X21060Y-11500D03*
X20060Y-11500D03*
X19060Y-11500D03*
X16060Y-11500D03*
X15060Y-11500D03*
X17060Y-11500D03*
X18060Y-11500D03*
X14060Y-11500D03*
X13060Y-11500D03*
X10060Y-11500D03*
X11060Y-11500D03*
X12060Y-11500D03*
X12060Y-12500D03*
X11060Y-12500D03*
X10060Y-12500D03*
X13060Y-12500D03*
X14060Y-12500D03*
X18060Y-12500D03*
X17060Y-12500D03*
X15060Y-12500D03*
X16060Y-12500D03*
X19060Y-12500D03*
X20060Y-12500D03*
X21060Y-12500D03*
X22060Y-12500D03*
X23060Y-12500D03*
X24060Y-12500D03*
X25060Y-12500D03*
X25060Y-10500D03*
X24060Y-10500D03*
X23060Y-10500D03*
X22060Y-10500D03*
X21060Y-10500D03*
X20060Y-10500D03*
X19060Y-10500D03*
X16060Y-10500D03*
X15060Y-10500D03*
X17060Y-10500D03*
X18060Y-10500D03*
X14060Y-10500D03*
X13060Y-10500D03*
X10060Y-10500D03*
X11060Y-10500D03*
X12060Y-10500D03*
X12060Y-9500D03*
X11060Y-9500D03*
X10060Y-9500D03*
X13060Y-9500D03*
X14060Y-9500D03*
X18060Y-9500D03*
X17060Y-9500D03*
X15060Y-9500D03*
X16060Y-9500D03*
X19060Y-9500D03*
X20060Y-9500D03*
X21060Y-9500D03*
X22060Y-9500D03*
X23060Y-9500D03*
X24060Y-9500D03*
X25060Y-9500D03*
X25060Y-8500D03*
X24060Y-8500D03*
X23060Y-8500D03*
X22060Y-8500D03*
X21060Y-8500D03*
X20060Y-8500D03*
X19060Y-8500D03*
X16060Y-8500D03*
X15060Y-8500D03*
X17060Y-8500D03*
X18060Y-8500D03*
X14060Y-8500D03*
X13060Y-8500D03*
X10060Y-8500D03*
X11060Y-8500D03*
X12060Y-8500D03*
X12060Y-7500D03*
X11060Y-7500D03*
X10060Y-7500D03*
X13060Y-7500D03*
X14060Y-7500D03*
X18060Y-7500D03*
X17060Y-7500D03*
X15060Y-7500D03*
X16060Y-7500D03*
X19060Y-7500D03*
X20060Y-7500D03*
X21060Y-7500D03*
X22060Y-7500D03*
X23060Y-7500D03*
X24060Y-7500D03*
X25060Y-7500D03*
X25060Y-6500D03*
X24060Y-6500D03*
X23060Y-6500D03*
X22060Y-6500D03*
X21060Y-6500D03*
X20060Y-6500D03*
X19060Y-6500D03*
X16060Y-6500D03*
X15060Y-6500D03*
X17060Y-6500D03*
X18060Y-6500D03*
X14060Y-6500D03*
X13060Y-6500D03*
X10060Y-6500D03*
X11060Y-6500D03*
X12060Y-6500D03*
X12060Y-5500D03*
X11060Y-5500D03*
X10060Y-5500D03*
X13060Y-5500D03*
X14060Y-5500D03*
X18060Y-5500D03*
X17060Y-5500D03*
X15060Y-5500D03*
X16060Y-5500D03*
X19060Y-5500D03*
X20060Y-5500D03*
X21060Y-5500D03*
X22060Y-5500D03*
X23060Y-5500D03*
X24060Y-5500D03*
X25060Y-5500D03*
X25060Y-15000D03*
X24060Y-15000D03*
X23060Y-15000D03*
X22060Y-15000D03*
X21060Y-15000D03*
X20060Y-15000D03*
X19060Y-15000D03*
X16060Y-15000D03*
X15060Y-15000D03*
X17060Y-15000D03*
X18060Y-15000D03*
X14060Y-15000D03*
X13060Y-15000D03*
X10060Y-15000D03*
X11060Y-15000D03*
X12060Y-15000D03*
X25060Y-16000D03*
X24060Y-16000D03*
X23060Y-16000D03*
X22060Y-16000D03*
X21060Y-16000D03*
X20060Y-16000D03*
X19060Y-16000D03*
X16060Y-16000D03*
X15060Y-16000D03*
X17060Y-16000D03*
X18060Y-16000D03*
X14060Y-16000D03*
X13060Y-16000D03*
X10060Y-16000D03*
X11060Y-16000D03*
X12060Y-16000D03*
X25060Y-14000D03*
X24060Y-14000D03*
X23060Y-14000D03*
X22060Y-14000D03*
X21060Y-14000D03*
X20060Y-14000D03*
X19060Y-14000D03*
X16060Y-14000D03*
X15060Y-14000D03*
X17060Y-14000D03*
X18060Y-14000D03*
X14060Y-14000D03*
X13060Y-14000D03*
X10060Y-14000D03*
X11060Y-14000D03*
X12060Y-14000D03*
X9052Y-3196D03*
G54D12*
X10052Y-3196D03*
G54D18*
X5410Y-14240D03*
X5288Y-2669D03*
X6685Y-4204D03*
X8670Y-16000D03*
X5453Y-18500D03*
X5453Y-17232D03*
X11339Y-2665D03*
X5827Y-2669D03*
X6045Y-4511D03*
X6953Y-10251D03*
G54D19*
X665Y-4900D03*
G54D18*
X2360Y-3200D03*
X26460Y-13860D03*
X26460Y-17180D03*
X16900Y-17620D03*
X12220Y-17620D03*
X12158Y-3476D03*
X12158Y-4318D03*
X7701Y-8771D03*
X9252Y-8771D03*
X3599Y-17000D03*
G54D19*
X3810Y-8280D03*
G54D18*
X4119Y-18440D03*
X4119Y-17314D03*
X7178Y-4437D03*
X8252Y-8448D03*
X6906Y-15338D03*
X6906Y-14480D03*
X8252Y-7078D03*
X6725Y-2118D03*
G54D20*
X5288Y-2807D02*
X5288Y-2669D01*
X6685Y-4204D02*
X5288Y-2807D01*
G54D21*
X10060Y-16000D02*
X8670Y-16000D01*
G54D22*
X5453Y-17232D02*
X5453Y-18500D01*
G54D23*
X6045Y-4511D02*
X6044Y-4511D01*
G54D24*
X12158Y-4318D02*
X12158Y-3476D01*
X9252Y-8771D02*
X7701Y-8771D01*
X21060Y-2000D02*
X21060Y-2300D01*
X21060Y-2300D02*
X23060Y-4300D01*
G54D22*
X3599Y-17000D02*
X2660Y-17000D01*
X2660Y-8280D02*
X3810Y-8280D01*
X4119Y-18440D02*
X4119Y-17314D01*
X7178Y-4437D02*
X7178Y-2570D01*
X8252Y-8448D02*
X8252Y-7078D01*
X6906Y-15338D02*
X6906Y-14480D01*
X7178Y-2570D02*
X6725Y-2118D01*
G54D10*
G36*
X26770Y-18880D02*
X25943Y-19707D01*
X25943Y-17333D01*
X25811Y-17005D01*
X25799Y-16987D01*
X25675Y-16912D01*
X25660Y-16927D01*
X25660Y-4181D01*
X25568Y-3960D01*
X25408Y-3799D01*
X25568Y-3640D01*
X25659Y-3419D01*
X25660Y-3181D01*
X25568Y-2960D01*
X25400Y-2791D01*
X25179Y-2700D01*
X24941Y-2699D01*
X24720Y-2791D01*
X24559Y-2951D01*
X24400Y-2791D01*
X24179Y-2700D01*
X23941Y-2699D01*
X23720Y-2791D01*
X23559Y-2951D01*
X23400Y-2791D01*
X23179Y-2700D01*
X22941Y-2699D01*
X22720Y-2791D01*
X22551Y-2959D01*
X22460Y-3180D01*
X22460Y-3261D01*
X21553Y-2355D01*
X21560Y-2348D01*
X21719Y-2508D01*
X21940Y-2599D01*
X22178Y-2600D01*
X22399Y-2508D01*
X22560Y-2348D01*
X22719Y-2508D01*
X22940Y-2599D01*
X23178Y-2600D01*
X23399Y-2508D01*
X23560Y-2348D01*
X23719Y-2508D01*
X23940Y-2599D01*
X24178Y-2600D01*
X24399Y-2508D01*
X24474Y-2434D01*
X24498Y-2491D01*
X24568Y-2561D01*
X24660Y-2600D01*
X24759Y-2600D01*
X25459Y-2600D01*
X25551Y-2561D01*
X25621Y-2491D01*
X25660Y-2399D01*
X25660Y-2300D01*
X25660Y-1600D01*
X25621Y-1508D01*
X25613Y-1500D01*
X25621Y-1491D01*
X25660Y-1399D01*
X25660Y-1300D01*
X25660Y-600D01*
X25621Y-508D01*
X25551Y-438D01*
X25459Y-400D01*
X25360Y-400D01*
X24660Y-400D01*
X24568Y-438D01*
X24498Y-508D01*
X24474Y-565D01*
X24400Y-491D01*
X24179Y-400D01*
X23941Y-399D01*
X23720Y-491D01*
X23559Y-651D01*
X23400Y-491D01*
X23179Y-400D01*
X22941Y-399D01*
X22720Y-491D01*
X22559Y-651D01*
X22400Y-491D01*
X22179Y-400D01*
X21941Y-399D01*
X21720Y-491D01*
X21559Y-651D01*
X21400Y-491D01*
X21179Y-400D01*
X20941Y-399D01*
X20720Y-491D01*
X20559Y-651D01*
X20400Y-491D01*
X20179Y-400D01*
X19941Y-399D01*
X19720Y-491D01*
X19559Y-651D01*
X19400Y-491D01*
X19179Y-400D01*
X18941Y-399D01*
X18720Y-491D01*
X18559Y-651D01*
X18400Y-491D01*
X18179Y-400D01*
X17941Y-399D01*
X17720Y-491D01*
X17551Y-659D01*
X17460Y-880D01*
X17459Y-1118D01*
X17551Y-1339D01*
X17711Y-1500D01*
X17551Y-1659D01*
X17460Y-1880D01*
X17459Y-2118D01*
X17551Y-2339D01*
X17719Y-2508D01*
X17940Y-2599D01*
X18178Y-2600D01*
X18399Y-2508D01*
X18560Y-2348D01*
X18719Y-2508D01*
X18940Y-2599D01*
X19178Y-2600D01*
X19399Y-2508D01*
X19560Y-2348D01*
X19719Y-2508D01*
X19940Y-2599D01*
X20178Y-2600D01*
X20399Y-2508D01*
X20560Y-2348D01*
X20719Y-2508D01*
X20908Y-2586D01*
X22460Y-4138D01*
X22460Y-4699D01*
X22498Y-4791D01*
X22568Y-4861D01*
X22660Y-4900D01*
X22568Y-4938D01*
X22560Y-4946D01*
X22551Y-4938D01*
X22459Y-4900D01*
X22360Y-4900D01*
X21660Y-4900D01*
X21568Y-4938D01*
X21560Y-4946D01*
X21551Y-4938D01*
X21459Y-4900D01*
X21360Y-4900D01*
X20660Y-4900D01*
X20568Y-4938D01*
X20560Y-4946D01*
X20551Y-4938D01*
X20459Y-4900D01*
X20360Y-4900D01*
X19660Y-4900D01*
X19568Y-4938D01*
X19560Y-4946D01*
X19551Y-4938D01*
X19459Y-4900D01*
X19360Y-4900D01*
X18660Y-4900D01*
X18568Y-4938D01*
X18560Y-4946D01*
X18551Y-4938D01*
X18459Y-4900D01*
X18360Y-4900D01*
X17660Y-4900D01*
X17568Y-4938D01*
X17560Y-4946D01*
X17551Y-4938D01*
X17459Y-4900D01*
X17360Y-4900D01*
X17060Y-4900D01*
X17060Y-2399D01*
X17060Y-2300D01*
X17060Y-1600D01*
X17021Y-1508D01*
X17013Y-1500D01*
X17021Y-1491D01*
X17060Y-1399D01*
X17060Y-1300D01*
X17060Y-600D01*
X17021Y-508D01*
X16951Y-438D01*
X16859Y-400D01*
X16760Y-400D01*
X16060Y-400D01*
X15968Y-438D01*
X15898Y-508D01*
X15874Y-565D01*
X15800Y-491D01*
X15579Y-400D01*
X15341Y-399D01*
X15120Y-491D01*
X14959Y-651D01*
X14800Y-491D01*
X14579Y-400D01*
X14341Y-399D01*
X14120Y-491D01*
X13959Y-651D01*
X13800Y-491D01*
X13579Y-400D01*
X13341Y-399D01*
X13120Y-491D01*
X12959Y-651D01*
X12800Y-491D01*
X12579Y-400D01*
X12341Y-399D01*
X12120Y-491D01*
X11959Y-651D01*
X11800Y-491D01*
X11579Y-400D01*
X11341Y-399D01*
X11120Y-491D01*
X10951Y-659D01*
X10933Y-703D01*
X10927Y-690D01*
X10838Y-656D01*
X10803Y-692D01*
X10803Y-621D01*
X10769Y-532D01*
X10566Y-449D01*
X10347Y-450D01*
X10150Y-532D01*
X10116Y-621D01*
X10460Y-964D01*
X10803Y-621D01*
X10803Y-692D01*
X10495Y-1000D01*
X10838Y-1343D01*
X10927Y-1309D01*
X10933Y-1296D01*
X10951Y-1339D01*
X11111Y-1500D01*
X10951Y-1659D01*
X10933Y-1703D01*
X10927Y-1690D01*
X10838Y-1656D01*
X10803Y-1692D01*
X10803Y-1621D01*
X10769Y-1532D01*
X10691Y-1500D01*
X10769Y-1467D01*
X10803Y-1378D01*
X10460Y-1035D01*
X10116Y-1378D01*
X10150Y-1467D01*
X10228Y-1499D01*
X10150Y-1532D01*
X10116Y-1621D01*
X10460Y-1964D01*
X10803Y-1621D01*
X10803Y-1692D01*
X10495Y-2000D01*
X10838Y-2343D01*
X10927Y-2309D01*
X10933Y-2296D01*
X10951Y-2339D01*
X11119Y-2508D01*
X11340Y-2599D01*
X11578Y-2600D01*
X11799Y-2508D01*
X11960Y-2348D01*
X12119Y-2508D01*
X12340Y-2599D01*
X12578Y-2600D01*
X12799Y-2508D01*
X12960Y-2348D01*
X13119Y-2508D01*
X13340Y-2599D01*
X13578Y-2600D01*
X13799Y-2508D01*
X13960Y-2348D01*
X14119Y-2508D01*
X14340Y-2599D01*
X14578Y-2600D01*
X14799Y-2508D01*
X14960Y-2348D01*
X15119Y-2508D01*
X15340Y-2599D01*
X15578Y-2600D01*
X15799Y-2508D01*
X15874Y-2434D01*
X15898Y-2491D01*
X15968Y-2561D01*
X16060Y-2600D01*
X16159Y-2600D01*
X16859Y-2600D01*
X16951Y-2561D01*
X17021Y-2491D01*
X17060Y-2399D01*
X17060Y-4900D01*
X16660Y-4900D01*
X16568Y-4938D01*
X16560Y-4946D01*
X16551Y-4938D01*
X16459Y-4900D01*
X16360Y-4900D01*
X15660Y-4900D01*
X15568Y-4938D01*
X15560Y-4946D01*
X15551Y-4938D01*
X15459Y-4900D01*
X15360Y-4900D01*
X14660Y-4900D01*
X14568Y-4938D01*
X14560Y-4946D01*
X14551Y-4938D01*
X14459Y-4900D01*
X14360Y-4900D01*
X13660Y-4900D01*
X13568Y-4938D01*
X13560Y-4946D01*
X13551Y-4938D01*
X13459Y-4900D01*
X13360Y-4900D01*
X12660Y-4900D01*
X12583Y-4931D01*
X12583Y-4234D01*
X12518Y-4078D01*
X12468Y-4027D01*
X12468Y-3767D01*
X12518Y-3717D01*
X12583Y-3561D01*
X12583Y-3392D01*
X12518Y-3235D01*
X12399Y-3116D01*
X12243Y-3051D01*
X12074Y-3051D01*
X11917Y-3115D01*
X11798Y-3235D01*
X11733Y-3391D01*
X11733Y-3560D01*
X11797Y-3716D01*
X11848Y-3767D01*
X11848Y-4027D01*
X11798Y-4077D01*
X11733Y-4233D01*
X11733Y-4403D01*
X11797Y-4559D01*
X11917Y-4678D01*
X12073Y-4743D01*
X12242Y-4743D01*
X12398Y-4679D01*
X12518Y-4559D01*
X12583Y-4403D01*
X12583Y-4234D01*
X12583Y-4931D01*
X12568Y-4938D01*
X12560Y-4946D01*
X12551Y-4938D01*
X12459Y-4900D01*
X12360Y-4900D01*
X11660Y-4900D01*
X11568Y-4938D01*
X11560Y-4946D01*
X11551Y-4938D01*
X11459Y-4900D01*
X11360Y-4900D01*
X10803Y-4900D01*
X10803Y-2378D01*
X10460Y-2035D01*
X10116Y-2378D01*
X10150Y-2467D01*
X10353Y-2550D01*
X10572Y-2549D01*
X10769Y-2467D01*
X10803Y-2378D01*
X10803Y-4900D01*
X10660Y-4900D01*
X10652Y-4903D01*
X10652Y-3078D01*
X10561Y-2857D01*
X10392Y-2688D01*
X10171Y-2596D01*
X9933Y-2596D01*
X9712Y-2687D01*
X9637Y-2762D01*
X9614Y-2705D01*
X9543Y-2634D01*
X9459Y-2599D01*
X9578Y-2600D01*
X9799Y-2508D01*
X9968Y-2340D01*
X9986Y-2296D01*
X9992Y-2309D01*
X10081Y-2343D01*
X10424Y-2000D01*
X10081Y-1656D01*
X9992Y-1690D01*
X9986Y-1703D01*
X9968Y-1660D01*
X9808Y-1499D01*
X9968Y-1340D01*
X9986Y-1296D01*
X9992Y-1309D01*
X10081Y-1343D01*
X10424Y-1000D01*
X10081Y-656D01*
X9992Y-690D01*
X9986Y-703D01*
X9968Y-660D01*
X9800Y-491D01*
X9579Y-400D01*
X9341Y-399D01*
X9120Y-491D01*
X8959Y-651D01*
X8800Y-491D01*
X8579Y-400D01*
X8341Y-399D01*
X8120Y-491D01*
X7959Y-651D01*
X7800Y-491D01*
X7579Y-400D01*
X7341Y-399D01*
X7120Y-491D01*
X6951Y-659D01*
X6860Y-880D01*
X6859Y-1118D01*
X6951Y-1339D01*
X7111Y-1500D01*
X6951Y-1659D01*
X6918Y-1738D01*
X6810Y-1693D01*
X6641Y-1693D01*
X6484Y-1757D01*
X6365Y-1877D01*
X6300Y-2033D01*
X6300Y-2202D01*
X6364Y-2358D01*
X6484Y-2478D01*
X6640Y-2543D01*
X6655Y-2543D01*
X6828Y-2715D01*
X6828Y-3710D01*
X5726Y-2608D01*
X5704Y-2497D01*
X5606Y-2351D01*
X5460Y-2253D01*
X5288Y-2219D01*
X5116Y-2253D01*
X4970Y-2351D01*
X4872Y-2497D01*
X4838Y-2669D01*
X4838Y-2807D01*
X4872Y-2979D01*
X4970Y-3125D01*
X6367Y-4522D01*
X6513Y-4620D01*
X6685Y-4654D01*
X6798Y-4632D01*
X6817Y-4677D01*
X6937Y-4797D01*
X7093Y-4861D01*
X7262Y-4862D01*
X7418Y-4797D01*
X7538Y-4678D01*
X7603Y-4521D01*
X7603Y-4352D01*
X7538Y-4196D01*
X7528Y-4186D01*
X7528Y-2600D01*
X7578Y-2600D01*
X7799Y-2508D01*
X7960Y-2348D01*
X8119Y-2508D01*
X8340Y-2599D01*
X8578Y-2600D01*
X8799Y-2508D01*
X8960Y-2348D01*
X9119Y-2508D01*
X9332Y-2596D01*
X8652Y-2596D01*
X8560Y-2634D01*
X8490Y-2705D01*
X8452Y-2797D01*
X8452Y-2896D01*
X8452Y-3596D01*
X8490Y-3688D01*
X8560Y-3758D01*
X8652Y-3796D01*
X8751Y-3796D01*
X9451Y-3796D01*
X9543Y-3758D01*
X9614Y-3688D01*
X9637Y-3631D01*
X9711Y-3705D01*
X9932Y-3796D01*
X10170Y-3796D01*
X10391Y-3705D01*
X10560Y-3537D01*
X10652Y-3316D01*
X10652Y-3078D01*
X10652Y-4903D01*
X10568Y-4938D01*
X10560Y-4946D01*
X10551Y-4938D01*
X10459Y-4900D01*
X10360Y-4900D01*
X9660Y-4900D01*
X9568Y-4938D01*
X9498Y-5008D01*
X9460Y-5100D01*
X9460Y-5199D01*
X9460Y-5899D01*
X9498Y-5991D01*
X9506Y-5999D01*
X9498Y-6008D01*
X9460Y-6100D01*
X9460Y-6199D01*
X9460Y-6899D01*
X9498Y-6991D01*
X9506Y-6999D01*
X9498Y-7008D01*
X9460Y-7100D01*
X9460Y-7199D01*
X9460Y-7899D01*
X9498Y-7991D01*
X9506Y-7999D01*
X9498Y-8008D01*
X9460Y-8100D01*
X9460Y-8199D01*
X9460Y-8397D01*
X9337Y-8346D01*
X9168Y-8346D01*
X9012Y-8411D01*
X8961Y-8461D01*
X8677Y-8461D01*
X8677Y-8364D01*
X8613Y-8208D01*
X8602Y-8197D01*
X8602Y-7329D01*
X8613Y-7319D01*
X8677Y-7163D01*
X8677Y-6994D01*
X8613Y-6838D01*
X8493Y-6718D01*
X8337Y-6653D01*
X8168Y-6653D01*
X8012Y-6718D01*
X7892Y-6837D01*
X7827Y-6993D01*
X7827Y-7162D01*
X7892Y-7319D01*
X7902Y-7329D01*
X7902Y-8197D01*
X7892Y-8207D01*
X7827Y-8363D01*
X7786Y-8346D01*
X7617Y-8346D01*
X7461Y-8411D01*
X7341Y-8530D01*
X7276Y-8686D01*
X7276Y-8855D01*
X7341Y-9012D01*
X7460Y-9131D01*
X7616Y-9196D01*
X7785Y-9196D01*
X7942Y-9132D01*
X7992Y-9081D01*
X8961Y-9081D01*
X9011Y-9131D01*
X9168Y-9196D01*
X9337Y-9196D01*
X9460Y-9145D01*
X9460Y-9199D01*
X9460Y-9899D01*
X9498Y-9991D01*
X9506Y-9999D01*
X9498Y-10008D01*
X9460Y-10100D01*
X9460Y-10199D01*
X9460Y-10899D01*
X9498Y-10991D01*
X9506Y-10999D01*
X9498Y-11008D01*
X9460Y-11100D01*
X9460Y-11199D01*
X9460Y-11899D01*
X9498Y-11991D01*
X9506Y-11999D01*
X9498Y-12008D01*
X9460Y-12100D01*
X9460Y-12199D01*
X9460Y-12899D01*
X9498Y-12991D01*
X9568Y-13061D01*
X9660Y-13100D01*
X9759Y-13100D01*
X10459Y-13100D01*
X10551Y-13061D01*
X10559Y-13053D01*
X10568Y-13061D01*
X10660Y-13100D01*
X10759Y-13100D01*
X11459Y-13100D01*
X11551Y-13061D01*
X11559Y-13053D01*
X11568Y-13061D01*
X11660Y-13100D01*
X11759Y-13100D01*
X12459Y-13100D01*
X12551Y-13061D01*
X12559Y-13053D01*
X12568Y-13061D01*
X12660Y-13100D01*
X12759Y-13100D01*
X13459Y-13100D01*
X13551Y-13061D01*
X13559Y-13053D01*
X13568Y-13061D01*
X13660Y-13100D01*
X13759Y-13100D01*
X14459Y-13100D01*
X14551Y-13061D01*
X14559Y-13053D01*
X14568Y-13061D01*
X14660Y-13100D01*
X14759Y-13100D01*
X15459Y-13100D01*
X15551Y-13061D01*
X15559Y-13053D01*
X15568Y-13061D01*
X15660Y-13100D01*
X15759Y-13100D01*
X16459Y-13100D01*
X16551Y-13061D01*
X16559Y-13053D01*
X16568Y-13061D01*
X16660Y-13100D01*
X16759Y-13100D01*
X17459Y-13100D01*
X17551Y-13061D01*
X17559Y-13053D01*
X17568Y-13061D01*
X17660Y-13100D01*
X17759Y-13100D01*
X18459Y-13100D01*
X18551Y-13061D01*
X18559Y-13053D01*
X18568Y-13061D01*
X18660Y-13100D01*
X18759Y-13100D01*
X19459Y-13100D01*
X19551Y-13061D01*
X19559Y-13053D01*
X19568Y-13061D01*
X19660Y-13100D01*
X19759Y-13100D01*
X20459Y-13100D01*
X20551Y-13061D01*
X20559Y-13053D01*
X20568Y-13061D01*
X20660Y-13100D01*
X20759Y-13100D01*
X21459Y-13100D01*
X21551Y-13061D01*
X21559Y-13053D01*
X21568Y-13061D01*
X21660Y-13100D01*
X21759Y-13100D01*
X22459Y-13100D01*
X22551Y-13061D01*
X22559Y-13053D01*
X22568Y-13061D01*
X22660Y-13100D01*
X22759Y-13100D01*
X23459Y-13100D01*
X23551Y-13061D01*
X23559Y-13053D01*
X23568Y-13061D01*
X23660Y-13100D01*
X23759Y-13100D01*
X24459Y-13100D01*
X24551Y-13061D01*
X24559Y-13053D01*
X24568Y-13061D01*
X24660Y-13100D01*
X24759Y-13100D01*
X25459Y-13100D01*
X25551Y-13061D01*
X25621Y-12991D01*
X25660Y-12899D01*
X25660Y-12800D01*
X25660Y-12100D01*
X25621Y-12008D01*
X25613Y-12000D01*
X25621Y-11991D01*
X25660Y-11899D01*
X25660Y-11800D01*
X25660Y-11100D01*
X25621Y-11008D01*
X25613Y-11000D01*
X25621Y-10991D01*
X25660Y-10899D01*
X25660Y-10800D01*
X25660Y-10100D01*
X25621Y-10008D01*
X25613Y-10000D01*
X25621Y-9991D01*
X25660Y-9899D01*
X25660Y-9800D01*
X25660Y-9100D01*
X25621Y-9008D01*
X25613Y-9000D01*
X25621Y-8991D01*
X25660Y-8899D01*
X25660Y-8800D01*
X25660Y-8100D01*
X25621Y-8008D01*
X25613Y-8000D01*
X25621Y-7991D01*
X25660Y-7899D01*
X25660Y-7800D01*
X25660Y-7100D01*
X25621Y-7008D01*
X25613Y-7000D01*
X25621Y-6991D01*
X25660Y-6899D01*
X25660Y-6800D01*
X25660Y-6100D01*
X25621Y-6008D01*
X25613Y-6000D01*
X25621Y-5991D01*
X25660Y-5899D01*
X25660Y-5800D01*
X25660Y-5100D01*
X25621Y-5008D01*
X25551Y-4938D01*
X25459Y-4900D01*
X25360Y-4900D01*
X25179Y-4900D01*
X25399Y-4808D01*
X25568Y-4640D01*
X25659Y-4419D01*
X25660Y-4181D01*
X25660Y-16927D01*
X25660Y-16927D01*
X25660Y-16399D01*
X25660Y-16300D01*
X25660Y-15600D01*
X25621Y-15508D01*
X25613Y-15500D01*
X25621Y-15491D01*
X25660Y-15399D01*
X25660Y-15300D01*
X25660Y-14600D01*
X25621Y-14508D01*
X25578Y-14464D01*
X25579Y-14463D01*
X25610Y-14389D01*
X25610Y-14310D01*
X25610Y-14075D01*
X25610Y-13925D01*
X25610Y-13689D01*
X25610Y-13610D01*
X25579Y-13536D01*
X25523Y-13480D01*
X25449Y-13450D01*
X25135Y-13450D01*
X25085Y-13500D01*
X25085Y-13975D01*
X25560Y-13975D01*
X25610Y-13925D01*
X25610Y-14075D01*
X25560Y-14025D01*
X25085Y-14025D01*
X25085Y-14032D01*
X25035Y-14032D01*
X25035Y-14025D01*
X25035Y-13975D01*
X25035Y-13500D01*
X24985Y-13450D01*
X24670Y-13450D01*
X24596Y-13480D01*
X24560Y-13517D01*
X24523Y-13480D01*
X24449Y-13450D01*
X24135Y-13450D01*
X24085Y-13500D01*
X24085Y-13975D01*
X24560Y-13975D01*
X25035Y-13975D01*
X25035Y-14025D01*
X24560Y-14025D01*
X24085Y-14025D01*
X24085Y-14032D01*
X24035Y-14032D01*
X24035Y-14025D01*
X24035Y-13975D01*
X24035Y-13500D01*
X23985Y-13450D01*
X23670Y-13450D01*
X23596Y-13480D01*
X23560Y-13517D01*
X23523Y-13480D01*
X23449Y-13450D01*
X23135Y-13450D01*
X23085Y-13500D01*
X23085Y-13975D01*
X23560Y-13975D01*
X24035Y-13975D01*
X24035Y-14025D01*
X23560Y-14025D01*
X23085Y-14025D01*
X23085Y-14032D01*
X23035Y-14032D01*
X23035Y-14025D01*
X23035Y-13975D01*
X23035Y-13500D01*
X22985Y-13450D01*
X22670Y-13450D01*
X22596Y-13480D01*
X22560Y-13517D01*
X22523Y-13480D01*
X22449Y-13450D01*
X22135Y-13450D01*
X22085Y-13500D01*
X22085Y-13975D01*
X22560Y-13975D01*
X23035Y-13975D01*
X23035Y-14025D01*
X22560Y-14025D01*
X22085Y-14025D01*
X22085Y-14032D01*
X22035Y-14032D01*
X22035Y-14025D01*
X22035Y-13975D01*
X22035Y-13500D01*
X21985Y-13450D01*
X21670Y-13450D01*
X21596Y-13480D01*
X21560Y-13517D01*
X21523Y-13480D01*
X21449Y-13450D01*
X21135Y-13450D01*
X21085Y-13500D01*
X21085Y-13975D01*
X21560Y-13975D01*
X22035Y-13975D01*
X22035Y-14025D01*
X21560Y-14025D01*
X21085Y-14025D01*
X21085Y-14032D01*
X21035Y-14032D01*
X21035Y-14025D01*
X21035Y-13975D01*
X21035Y-13500D01*
X20985Y-13450D01*
X20670Y-13450D01*
X20596Y-13480D01*
X20560Y-13517D01*
X20523Y-13480D01*
X20449Y-13450D01*
X20135Y-13450D01*
X20085Y-13500D01*
X20085Y-13975D01*
X20560Y-13975D01*
X21035Y-13975D01*
X21035Y-14025D01*
X20560Y-14025D01*
X20085Y-14025D01*
X20085Y-14032D01*
X20035Y-14032D01*
X20035Y-14025D01*
X20035Y-13975D01*
X20035Y-13500D01*
X19985Y-13450D01*
X19670Y-13450D01*
X19596Y-13480D01*
X19560Y-13517D01*
X19523Y-13480D01*
X19449Y-13450D01*
X19135Y-13450D01*
X19085Y-13500D01*
X19085Y-13975D01*
X19560Y-13975D01*
X20035Y-13975D01*
X20035Y-14025D01*
X19560Y-14025D01*
X19085Y-14025D01*
X19085Y-14032D01*
X19035Y-14032D01*
X19035Y-14025D01*
X19035Y-13975D01*
X19035Y-13500D01*
X18985Y-13450D01*
X18670Y-13450D01*
X18596Y-13480D01*
X18560Y-13517D01*
X18523Y-13480D01*
X18449Y-13450D01*
X18135Y-13450D01*
X18085Y-13500D01*
X18085Y-13975D01*
X18560Y-13975D01*
X19035Y-13975D01*
X19035Y-14025D01*
X18560Y-14025D01*
X18085Y-14025D01*
X18085Y-14032D01*
X18035Y-14032D01*
X18035Y-14025D01*
X18035Y-13975D01*
X18035Y-13500D01*
X17985Y-13450D01*
X17670Y-13450D01*
X17596Y-13480D01*
X17560Y-13517D01*
X17523Y-13480D01*
X17449Y-13450D01*
X17135Y-13450D01*
X17085Y-13500D01*
X17085Y-13975D01*
X17560Y-13975D01*
X18035Y-13975D01*
X18035Y-14025D01*
X17560Y-14025D01*
X17085Y-14025D01*
X17085Y-14032D01*
X17035Y-14032D01*
X17035Y-14025D01*
X17035Y-13975D01*
X17035Y-13500D01*
X16985Y-13450D01*
X16670Y-13450D01*
X16596Y-13480D01*
X16560Y-13517D01*
X16523Y-13480D01*
X16449Y-13450D01*
X16135Y-13450D01*
X16085Y-13500D01*
X16085Y-13975D01*
X16560Y-13975D01*
X17035Y-13975D01*
X17035Y-14025D01*
X16560Y-14025D01*
X16085Y-14025D01*
X16085Y-14032D01*
X16035Y-14032D01*
X16035Y-14025D01*
X16035Y-13975D01*
X16035Y-13500D01*
X15985Y-13450D01*
X15670Y-13450D01*
X15596Y-13480D01*
X15560Y-13517D01*
X15523Y-13480D01*
X15449Y-13450D01*
X15135Y-13450D01*
X15085Y-13500D01*
X15085Y-13975D01*
X15560Y-13975D01*
X16035Y-13975D01*
X16035Y-14025D01*
X15560Y-14025D01*
X15085Y-14025D01*
X15085Y-14032D01*
X15035Y-14032D01*
X15035Y-14025D01*
X15035Y-13975D01*
X15035Y-13500D01*
X14985Y-13450D01*
X14670Y-13450D01*
X14596Y-13480D01*
X14560Y-13517D01*
X14523Y-13480D01*
X14449Y-13450D01*
X14135Y-13450D01*
X14085Y-13500D01*
X14085Y-13975D01*
X14560Y-13975D01*
X15035Y-13975D01*
X15035Y-14025D01*
X14560Y-14025D01*
X14085Y-14025D01*
X14085Y-14032D01*
X14035Y-14032D01*
X14035Y-14025D01*
X14035Y-13975D01*
X14035Y-13500D01*
X13985Y-13450D01*
X13670Y-13450D01*
X13596Y-13480D01*
X13560Y-13517D01*
X13523Y-13480D01*
X13449Y-13450D01*
X13135Y-13450D01*
X13085Y-13500D01*
X13085Y-13975D01*
X13560Y-13975D01*
X14035Y-13975D01*
X14035Y-14025D01*
X13560Y-14025D01*
X13085Y-14025D01*
X13085Y-14032D01*
X13035Y-14032D01*
X13035Y-14025D01*
X13035Y-13975D01*
X13035Y-13500D01*
X12985Y-13450D01*
X12670Y-13450D01*
X12596Y-13480D01*
X12560Y-13517D01*
X12523Y-13480D01*
X12449Y-13450D01*
X12135Y-13450D01*
X12085Y-13500D01*
X12085Y-13975D01*
X12560Y-13975D01*
X13035Y-13975D01*
X13035Y-14025D01*
X12560Y-14025D01*
X12085Y-14025D01*
X12085Y-14032D01*
X12035Y-14032D01*
X12035Y-14025D01*
X12035Y-13975D01*
X12035Y-13500D01*
X11985Y-13450D01*
X11670Y-13450D01*
X11596Y-13480D01*
X11560Y-13517D01*
X11523Y-13480D01*
X11449Y-13450D01*
X11135Y-13450D01*
X11085Y-13500D01*
X11085Y-13975D01*
X11560Y-13975D01*
X12035Y-13975D01*
X12035Y-14025D01*
X11560Y-14025D01*
X11085Y-14025D01*
X11085Y-14032D01*
X11035Y-14032D01*
X11035Y-14025D01*
X11035Y-13975D01*
X11035Y-13500D01*
X10985Y-13450D01*
X10670Y-13450D01*
X10596Y-13480D01*
X10560Y-13517D01*
X10523Y-13480D01*
X10449Y-13450D01*
X10135Y-13450D01*
X10085Y-13500D01*
X10085Y-13975D01*
X10560Y-13975D01*
X11035Y-13975D01*
X11035Y-14025D01*
X10560Y-14025D01*
X10085Y-14025D01*
X10085Y-14032D01*
X10035Y-14032D01*
X10035Y-14025D01*
X10035Y-13975D01*
X10035Y-13500D01*
X9985Y-13450D01*
X9670Y-13450D01*
X9596Y-13480D01*
X9540Y-13536D01*
X9510Y-13610D01*
X9510Y-13689D01*
X9510Y-13925D01*
X9560Y-13975D01*
X10035Y-13975D01*
X10035Y-14025D01*
X9560Y-14025D01*
X9510Y-14075D01*
X9510Y-14310D01*
X9510Y-14389D01*
X9540Y-14463D01*
X9541Y-14464D01*
X9498Y-14508D01*
X9460Y-14600D01*
X9460Y-14699D01*
X9460Y-15399D01*
X9498Y-15491D01*
X9506Y-15499D01*
X9506Y-15500D01*
X9147Y-15500D01*
X9120Y-15473D01*
X9028Y-15435D01*
X8928Y-15435D01*
X8804Y-15435D01*
X8804Y-14528D01*
X8804Y-14428D01*
X8804Y-13799D01*
X8766Y-13707D01*
X8696Y-13636D01*
X8691Y-13634D01*
X8755Y-13474D01*
X8754Y-13269D01*
X8678Y-13088D01*
X8593Y-13058D01*
X8557Y-13093D01*
X8557Y-13023D01*
X8528Y-12937D01*
X8338Y-12860D01*
X8133Y-12862D01*
X7951Y-12937D01*
X7922Y-13023D01*
X8240Y-13340D01*
X8557Y-13023D01*
X8557Y-13093D01*
X8275Y-13376D01*
X8280Y-13381D01*
X8245Y-13417D01*
X8240Y-13411D01*
X8234Y-13417D01*
X8199Y-13381D01*
X8204Y-13376D01*
X7886Y-13058D01*
X7801Y-13088D01*
X7724Y-13278D01*
X7725Y-13483D01*
X7788Y-13634D01*
X7783Y-13636D01*
X7713Y-13707D01*
X7675Y-13799D01*
X7675Y-13898D01*
X7675Y-14528D01*
X7713Y-14620D01*
X7783Y-14690D01*
X7875Y-14728D01*
X7974Y-14728D01*
X8604Y-14728D01*
X8696Y-14690D01*
X8766Y-14620D01*
X8804Y-14528D01*
X8804Y-15435D01*
X8299Y-15435D01*
X8207Y-15473D01*
X8136Y-15543D01*
X8134Y-15548D01*
X7974Y-15484D01*
X7769Y-15485D01*
X7588Y-15561D01*
X7558Y-15646D01*
X7876Y-15964D01*
X7881Y-15959D01*
X7917Y-15994D01*
X7911Y-16000D01*
X7917Y-16005D01*
X7881Y-16040D01*
X7876Y-16035D01*
X7840Y-16070D01*
X7840Y-16000D01*
X7523Y-15682D01*
X7437Y-15711D01*
X7360Y-15901D01*
X7362Y-16106D01*
X7437Y-16288D01*
X7523Y-16317D01*
X7840Y-16000D01*
X7840Y-16070D01*
X7558Y-16353D01*
X7588Y-16438D01*
X7778Y-16515D01*
X7983Y-16514D01*
X8134Y-16451D01*
X8136Y-16456D01*
X8207Y-16526D01*
X8299Y-16564D01*
X8398Y-16564D01*
X9028Y-16564D01*
X9120Y-16526D01*
X9147Y-16500D01*
X9506Y-16500D01*
X9568Y-16561D01*
X9660Y-16600D01*
X9759Y-16600D01*
X10459Y-16600D01*
X10551Y-16561D01*
X10559Y-16553D01*
X10568Y-16561D01*
X10660Y-16600D01*
X10759Y-16600D01*
X11459Y-16600D01*
X11551Y-16561D01*
X11559Y-16553D01*
X11568Y-16561D01*
X11660Y-16600D01*
X11759Y-16600D01*
X12459Y-16600D01*
X12551Y-16561D01*
X12559Y-16553D01*
X12568Y-16561D01*
X12660Y-16600D01*
X12759Y-16600D01*
X13459Y-16600D01*
X13551Y-16561D01*
X13559Y-16553D01*
X13568Y-16561D01*
X13660Y-16600D01*
X13759Y-16600D01*
X14459Y-16600D01*
X14551Y-16561D01*
X14559Y-16553D01*
X14568Y-16561D01*
X14660Y-16600D01*
X14759Y-16600D01*
X15459Y-16600D01*
X15551Y-16561D01*
X15559Y-16553D01*
X15568Y-16561D01*
X15660Y-16600D01*
X15759Y-16600D01*
X16459Y-16600D01*
X16551Y-16561D01*
X16559Y-16553D01*
X16568Y-16561D01*
X16660Y-16600D01*
X16759Y-16600D01*
X17459Y-16600D01*
X17551Y-16561D01*
X17559Y-16553D01*
X17568Y-16561D01*
X17660Y-16600D01*
X17759Y-16600D01*
X18459Y-16600D01*
X18551Y-16561D01*
X18559Y-16553D01*
X18568Y-16561D01*
X18660Y-16600D01*
X18759Y-16600D01*
X19459Y-16600D01*
X19551Y-16561D01*
X19559Y-16553D01*
X19568Y-16561D01*
X19660Y-16600D01*
X19759Y-16600D01*
X20459Y-16600D01*
X20551Y-16561D01*
X20559Y-16553D01*
X20568Y-16561D01*
X20660Y-16600D01*
X20759Y-16600D01*
X21459Y-16600D01*
X21551Y-16561D01*
X21559Y-16553D01*
X21568Y-16561D01*
X21660Y-16600D01*
X21759Y-16600D01*
X22459Y-16600D01*
X22551Y-16561D01*
X22559Y-16553D01*
X22568Y-16561D01*
X22660Y-16600D01*
X22759Y-16600D01*
X23459Y-16600D01*
X23551Y-16561D01*
X23559Y-16553D01*
X23568Y-16561D01*
X23660Y-16600D01*
X23759Y-16600D01*
X24459Y-16600D01*
X24551Y-16561D01*
X24559Y-16553D01*
X24568Y-16561D01*
X24660Y-16600D01*
X24759Y-16600D01*
X25459Y-16600D01*
X25551Y-16561D01*
X25621Y-16491D01*
X25660Y-16399D01*
X25660Y-16927D01*
X25639Y-16947D01*
X25639Y-16877D01*
X25564Y-16752D01*
X25239Y-16613D01*
X24885Y-16609D01*
X24557Y-16740D01*
X24539Y-16752D01*
X24464Y-16877D01*
X25052Y-17464D01*
X25639Y-16877D01*
X25639Y-16947D01*
X25087Y-17500D01*
X25675Y-18087D01*
X25799Y-18012D01*
X25938Y-17687D01*
X25943Y-17333D01*
X25943Y-19707D01*
X25855Y-19795D01*
X25792Y-19889D01*
X25770Y-20000D01*
X25770Y-20471D01*
X25749Y-20578D01*
X25704Y-20644D01*
X25660Y-20674D01*
X25660Y-19881D01*
X25568Y-19660D01*
X25408Y-19499D01*
X25568Y-19340D01*
X25659Y-19119D01*
X25660Y-18881D01*
X25639Y-18831D01*
X25639Y-18122D01*
X25052Y-17535D01*
X25016Y-17570D01*
X25016Y-17500D01*
X24429Y-16912D01*
X24304Y-16987D01*
X24165Y-17312D01*
X24161Y-17666D01*
X24292Y-17994D01*
X24304Y-18012D01*
X24429Y-18087D01*
X25016Y-17500D01*
X25016Y-17570D01*
X24464Y-18122D01*
X24539Y-18247D01*
X24864Y-18386D01*
X25218Y-18390D01*
X25546Y-18259D01*
X25564Y-18247D01*
X25639Y-18122D01*
X25639Y-18831D01*
X25568Y-18660D01*
X25400Y-18491D01*
X25179Y-18400D01*
X24941Y-18399D01*
X24720Y-18491D01*
X24559Y-18651D01*
X24400Y-18491D01*
X24179Y-18400D01*
X23941Y-18399D01*
X23720Y-18491D01*
X23559Y-18651D01*
X23400Y-18491D01*
X23179Y-18400D01*
X22941Y-18399D01*
X22720Y-18491D01*
X22559Y-18651D01*
X22400Y-18491D01*
X22179Y-18400D01*
X21941Y-18399D01*
X21720Y-18491D01*
X21559Y-18651D01*
X21400Y-18491D01*
X21179Y-18400D01*
X20941Y-18399D01*
X20720Y-18491D01*
X20645Y-18565D01*
X20621Y-18508D01*
X20551Y-18438D01*
X20459Y-18400D01*
X20360Y-18400D01*
X19660Y-18400D01*
X19568Y-18438D01*
X19498Y-18508D01*
X19460Y-18600D01*
X19460Y-18699D01*
X19460Y-19399D01*
X19498Y-19491D01*
X19506Y-19499D01*
X19498Y-19508D01*
X19460Y-19600D01*
X19460Y-19699D01*
X19460Y-20399D01*
X19498Y-20491D01*
X19568Y-20561D01*
X19660Y-20600D01*
X19759Y-20600D01*
X20459Y-20600D01*
X20551Y-20561D01*
X20621Y-20491D01*
X20645Y-20434D01*
X20719Y-20508D01*
X20940Y-20599D01*
X21178Y-20600D01*
X21399Y-20508D01*
X21560Y-20348D01*
X21719Y-20508D01*
X21940Y-20599D01*
X22178Y-20600D01*
X22399Y-20508D01*
X22560Y-20348D01*
X22719Y-20508D01*
X22940Y-20599D01*
X23178Y-20600D01*
X23399Y-20508D01*
X23560Y-20348D01*
X23719Y-20508D01*
X23940Y-20599D01*
X24178Y-20600D01*
X24399Y-20508D01*
X24560Y-20348D01*
X24719Y-20508D01*
X24940Y-20599D01*
X25178Y-20600D01*
X25399Y-20508D01*
X25568Y-20340D01*
X25659Y-20119D01*
X25660Y-19881D01*
X25660Y-20674D01*
X25638Y-20689D01*
X25525Y-20711D01*
X25520Y-20710D01*
X18660Y-20710D01*
X18660Y-19881D01*
X18568Y-19660D01*
X18408Y-19499D01*
X18568Y-19340D01*
X18659Y-19119D01*
X18660Y-18881D01*
X18568Y-18660D01*
X18400Y-18491D01*
X18179Y-18400D01*
X17941Y-18399D01*
X17720Y-18491D01*
X17551Y-18659D01*
X17533Y-18703D01*
X17527Y-18690D01*
X17438Y-18656D01*
X17403Y-18692D01*
X17403Y-18621D01*
X17369Y-18532D01*
X17166Y-18449D01*
X16947Y-18450D01*
X16750Y-18532D01*
X16716Y-18621D01*
X17060Y-18964D01*
X17403Y-18621D01*
X17403Y-18692D01*
X17095Y-19000D01*
X17438Y-19343D01*
X17527Y-19309D01*
X17533Y-19296D01*
X17551Y-19339D01*
X17711Y-19500D01*
X17551Y-19659D01*
X17533Y-19703D01*
X17527Y-19690D01*
X17438Y-19656D01*
X17403Y-19692D01*
X17403Y-19621D01*
X17369Y-19532D01*
X17291Y-19500D01*
X17369Y-19467D01*
X17403Y-19378D01*
X17060Y-19035D01*
X17024Y-19070D01*
X17024Y-19000D01*
X16681Y-18656D01*
X16592Y-18690D01*
X16560Y-18768D01*
X16527Y-18690D01*
X16438Y-18656D01*
X16403Y-18692D01*
X16403Y-18621D01*
X16369Y-18532D01*
X16166Y-18449D01*
X15947Y-18450D01*
X15750Y-18532D01*
X15716Y-18621D01*
X16060Y-18964D01*
X16403Y-18621D01*
X16403Y-18692D01*
X16095Y-19000D01*
X16438Y-19343D01*
X16527Y-19309D01*
X16559Y-19231D01*
X16592Y-19309D01*
X16681Y-19343D01*
X17024Y-19000D01*
X17024Y-19070D01*
X16716Y-19378D01*
X16750Y-19467D01*
X16828Y-19499D01*
X16750Y-19532D01*
X16716Y-19621D01*
X17060Y-19964D01*
X17403Y-19621D01*
X17403Y-19692D01*
X17095Y-20000D01*
X17438Y-20343D01*
X17527Y-20309D01*
X17533Y-20296D01*
X17551Y-20339D01*
X17719Y-20508D01*
X17940Y-20599D01*
X18178Y-20600D01*
X18399Y-20508D01*
X18568Y-20340D01*
X18659Y-20119D01*
X18660Y-19881D01*
X18660Y-20710D01*
X17403Y-20710D01*
X17403Y-20378D01*
X17060Y-20035D01*
X17024Y-20070D01*
X17024Y-20000D01*
X16681Y-19656D01*
X16592Y-19690D01*
X16560Y-19768D01*
X16527Y-19690D01*
X16438Y-19656D01*
X16403Y-19692D01*
X16403Y-19621D01*
X16369Y-19532D01*
X16291Y-19500D01*
X16369Y-19467D01*
X16403Y-19378D01*
X16060Y-19035D01*
X15716Y-19378D01*
X15750Y-19467D01*
X15828Y-19499D01*
X15750Y-19532D01*
X15716Y-19621D01*
X16060Y-19964D01*
X16403Y-19621D01*
X16403Y-19692D01*
X16095Y-20000D01*
X16438Y-20343D01*
X16527Y-20309D01*
X16559Y-20231D01*
X16592Y-20309D01*
X16681Y-20343D01*
X17024Y-20000D01*
X17024Y-20070D01*
X16716Y-20378D01*
X16750Y-20467D01*
X16953Y-20550D01*
X17172Y-20549D01*
X17369Y-20467D01*
X17403Y-20378D01*
X17403Y-20710D01*
X16403Y-20710D01*
X16403Y-20378D01*
X16060Y-20035D01*
X16024Y-20070D01*
X16024Y-20000D01*
X15681Y-19656D01*
X15592Y-19690D01*
X15586Y-19703D01*
X15568Y-19660D01*
X15408Y-19499D01*
X15568Y-19340D01*
X15586Y-19296D01*
X15592Y-19309D01*
X15681Y-19343D01*
X16024Y-19000D01*
X15681Y-18656D01*
X15592Y-18690D01*
X15586Y-18703D01*
X15568Y-18660D01*
X15400Y-18491D01*
X15179Y-18400D01*
X14941Y-18399D01*
X14720Y-18491D01*
X14559Y-18651D01*
X14400Y-18491D01*
X14179Y-18400D01*
X13941Y-18399D01*
X13720Y-18491D01*
X13559Y-18651D01*
X13400Y-18491D01*
X13179Y-18400D01*
X12941Y-18399D01*
X12720Y-18491D01*
X12559Y-18651D01*
X12400Y-18491D01*
X12179Y-18400D01*
X11941Y-18399D01*
X11720Y-18491D01*
X11645Y-18565D01*
X11621Y-18508D01*
X11551Y-18438D01*
X11459Y-18400D01*
X11360Y-18400D01*
X10660Y-18400D01*
X10568Y-18438D01*
X10498Y-18508D01*
X10460Y-18600D01*
X10460Y-18699D01*
X10460Y-19399D01*
X10498Y-19491D01*
X10506Y-19499D01*
X10498Y-19508D01*
X10460Y-19600D01*
X10460Y-19699D01*
X10460Y-20399D01*
X10498Y-20491D01*
X10568Y-20561D01*
X10660Y-20600D01*
X10759Y-20600D01*
X11459Y-20600D01*
X11551Y-20561D01*
X11621Y-20491D01*
X11645Y-20434D01*
X11719Y-20508D01*
X11940Y-20599D01*
X12178Y-20600D01*
X12399Y-20508D01*
X12560Y-20348D01*
X12719Y-20508D01*
X12940Y-20599D01*
X13178Y-20600D01*
X13399Y-20508D01*
X13560Y-20348D01*
X13719Y-20508D01*
X13940Y-20599D01*
X14178Y-20600D01*
X14399Y-20508D01*
X14560Y-20348D01*
X14719Y-20508D01*
X14940Y-20599D01*
X15178Y-20600D01*
X15399Y-20508D01*
X15568Y-20340D01*
X15586Y-20296D01*
X15592Y-20309D01*
X15681Y-20343D01*
X16024Y-20000D01*
X16024Y-20070D01*
X15716Y-20378D01*
X15750Y-20467D01*
X15953Y-20550D01*
X16172Y-20549D01*
X16369Y-20467D01*
X16403Y-20378D01*
X16403Y-20710D01*
X7331Y-20710D01*
X7331Y-15254D01*
X7266Y-15098D01*
X7256Y-15087D01*
X7256Y-14731D01*
X7266Y-14721D01*
X7331Y-14565D01*
X7331Y-14396D01*
X7266Y-14239D01*
X7147Y-14120D01*
X6991Y-14055D01*
X6822Y-14055D01*
X6666Y-14119D01*
X6546Y-14239D01*
X6481Y-14395D01*
X6481Y-14564D01*
X6545Y-14720D01*
X6556Y-14731D01*
X6556Y-15087D01*
X6546Y-15097D01*
X6481Y-15253D01*
X6481Y-15422D01*
X6545Y-15579D01*
X6665Y-15698D01*
X6821Y-15763D01*
X6990Y-15763D01*
X7146Y-15699D01*
X7266Y-15579D01*
X7331Y-15423D01*
X7331Y-15254D01*
X7331Y-20710D01*
X5878Y-20710D01*
X5878Y-18415D01*
X5814Y-18259D01*
X5803Y-18249D01*
X5803Y-17483D01*
X5813Y-17473D01*
X5878Y-17317D01*
X5878Y-17148D01*
X5835Y-17043D01*
X5835Y-14155D01*
X5770Y-13999D01*
X5651Y-13880D01*
X5495Y-13815D01*
X5326Y-13815D01*
X5169Y-13879D01*
X5070Y-13979D01*
X5070Y-11479D01*
X4992Y-11291D01*
X4849Y-11147D01*
X4806Y-11130D01*
X4848Y-11112D01*
X4992Y-10969D01*
X5069Y-10781D01*
X5070Y-10579D01*
X5070Y-6079D01*
X4992Y-5891D01*
X4849Y-5747D01*
X4661Y-5670D01*
X4459Y-5669D01*
X4271Y-5747D01*
X4127Y-5890D01*
X4050Y-6078D01*
X4049Y-6281D01*
X4127Y-6468D01*
X4270Y-6612D01*
X4377Y-6656D01*
X4304Y-6686D01*
X4281Y-6766D01*
X4560Y-7044D01*
X4838Y-6766D01*
X4815Y-6686D01*
X4741Y-6656D01*
X4848Y-6612D01*
X4992Y-6469D01*
X5069Y-6281D01*
X5070Y-6079D01*
X5070Y-10579D01*
X5021Y-10460D01*
X5021Y-7165D01*
X5018Y-6982D01*
X4953Y-6824D01*
X4873Y-6801D01*
X4595Y-7080D01*
X4873Y-7358D01*
X4953Y-7335D01*
X5021Y-7165D01*
X5021Y-10460D01*
X4992Y-10391D01*
X4849Y-10247D01*
X4838Y-10243D01*
X4838Y-7393D01*
X4560Y-7115D01*
X4524Y-7150D01*
X4524Y-7080D01*
X4246Y-6801D01*
X4166Y-6824D01*
X4098Y-6994D01*
X4101Y-7177D01*
X4166Y-7335D01*
X4246Y-7358D01*
X4524Y-7080D01*
X4524Y-7150D01*
X4281Y-7393D01*
X4304Y-7473D01*
X4474Y-7541D01*
X4657Y-7538D01*
X4815Y-7473D01*
X4838Y-7393D01*
X4838Y-10243D01*
X4661Y-10170D01*
X4459Y-10169D01*
X4271Y-10247D01*
X4185Y-10333D01*
X4185Y-8205D01*
X4128Y-8067D01*
X4022Y-7962D01*
X3884Y-7905D01*
X3735Y-7904D01*
X3675Y-7930D01*
X3121Y-7930D01*
X3121Y-7565D01*
X3118Y-7382D01*
X3053Y-7224D01*
X2973Y-7201D01*
X2938Y-7237D01*
X2938Y-7166D01*
X2915Y-7086D01*
X2745Y-7018D01*
X2562Y-7021D01*
X2404Y-7086D01*
X2381Y-7166D01*
X2660Y-7444D01*
X2938Y-7166D01*
X2938Y-7237D01*
X2695Y-7480D01*
X2973Y-7758D01*
X3053Y-7735D01*
X3121Y-7565D01*
X3121Y-7930D01*
X3031Y-7930D01*
X2949Y-7847D01*
X2925Y-7837D01*
X2938Y-7793D01*
X2660Y-7515D01*
X2654Y-7520D01*
X2619Y-7485D01*
X2624Y-7480D01*
X2346Y-7201D01*
X2266Y-7224D01*
X2198Y-7394D01*
X2199Y-7480D01*
X2045Y-7418D01*
X1862Y-7421D01*
X1704Y-7486D01*
X1681Y-7566D01*
X1960Y-7844D01*
X1965Y-7839D01*
X2000Y-7874D01*
X1995Y-7880D01*
X2000Y-7885D01*
X1965Y-7920D01*
X1960Y-7915D01*
X1924Y-7950D01*
X1924Y-7880D01*
X1646Y-7601D01*
X1566Y-7624D01*
X1498Y-7794D01*
X1501Y-7977D01*
X1566Y-8135D01*
X1646Y-8158D01*
X1924Y-7880D01*
X1924Y-7950D01*
X1681Y-8193D01*
X1694Y-8237D01*
X1671Y-8247D01*
X1527Y-8390D01*
X1450Y-8578D01*
X1449Y-8781D01*
X1527Y-8968D01*
X1638Y-9080D01*
X1527Y-9190D01*
X1450Y-9378D01*
X1449Y-9581D01*
X1527Y-9768D01*
X1638Y-9880D01*
X1527Y-9990D01*
X1450Y-10178D01*
X1449Y-10381D01*
X1527Y-10568D01*
X1670Y-10712D01*
X1858Y-10789D01*
X2061Y-10790D01*
X2248Y-10712D01*
X2392Y-10569D01*
X2469Y-10381D01*
X2469Y-10353D01*
X2558Y-10389D01*
X2761Y-10390D01*
X2948Y-10312D01*
X3092Y-10169D01*
X3169Y-9981D01*
X3170Y-9779D01*
X3092Y-9591D01*
X2981Y-9479D01*
X3092Y-9369D01*
X3169Y-9181D01*
X3170Y-8979D01*
X3092Y-8791D01*
X2981Y-8679D01*
X3031Y-8630D01*
X3675Y-8630D01*
X3735Y-8654D01*
X3884Y-8655D01*
X4022Y-8598D01*
X4127Y-8492D01*
X4184Y-8354D01*
X4185Y-8205D01*
X4185Y-10333D01*
X4127Y-10390D01*
X4050Y-10578D01*
X4049Y-10781D01*
X4127Y-10968D01*
X4270Y-11112D01*
X4313Y-11129D01*
X4271Y-11147D01*
X4127Y-11290D01*
X4050Y-11478D01*
X4049Y-11681D01*
X4127Y-11868D01*
X4270Y-12012D01*
X4458Y-12089D01*
X4661Y-12090D01*
X4848Y-12012D01*
X4992Y-11869D01*
X5069Y-11681D01*
X5070Y-11479D01*
X5070Y-13979D01*
X5050Y-13999D01*
X4985Y-14155D01*
X4985Y-14324D01*
X5049Y-14480D01*
X5169Y-14600D01*
X5325Y-14665D01*
X5494Y-14665D01*
X5650Y-14600D01*
X5770Y-14481D01*
X5835Y-14325D01*
X5835Y-14155D01*
X5835Y-17043D01*
X5814Y-16991D01*
X5694Y-16872D01*
X5538Y-16807D01*
X5369Y-16807D01*
X5213Y-16871D01*
X5093Y-16991D01*
X5070Y-17047D01*
X5070Y-14799D01*
X4992Y-14611D01*
X4849Y-14467D01*
X4661Y-14390D01*
X4459Y-14389D01*
X4271Y-14467D01*
X4127Y-14610D01*
X4050Y-14798D01*
X4049Y-15001D01*
X4127Y-15188D01*
X4270Y-15332D01*
X4377Y-15376D01*
X4304Y-15406D01*
X4281Y-15486D01*
X4560Y-15764D01*
X4838Y-15486D01*
X4815Y-15406D01*
X4741Y-15376D01*
X4848Y-15332D01*
X4992Y-15189D01*
X5069Y-15001D01*
X5070Y-14799D01*
X5070Y-17047D01*
X5028Y-17147D01*
X5028Y-17316D01*
X5093Y-17472D01*
X5103Y-17483D01*
X5103Y-18248D01*
X5093Y-18258D01*
X5028Y-18415D01*
X5028Y-18584D01*
X5093Y-18740D01*
X5212Y-18860D01*
X5368Y-18924D01*
X5537Y-18925D01*
X5694Y-18860D01*
X5813Y-18741D01*
X5878Y-18584D01*
X5878Y-18415D01*
X5878Y-20710D01*
X4870Y-20710D01*
X4992Y-20589D01*
X5069Y-20401D01*
X5070Y-20199D01*
X4992Y-20011D01*
X4849Y-19867D01*
X4806Y-19850D01*
X4848Y-19832D01*
X4992Y-19689D01*
X5069Y-19501D01*
X5070Y-19299D01*
X5021Y-19180D01*
X5021Y-15885D01*
X5018Y-15702D01*
X4953Y-15544D01*
X4873Y-15521D01*
X4595Y-15800D01*
X4873Y-16078D01*
X4953Y-16055D01*
X5021Y-15885D01*
X5021Y-19180D01*
X4992Y-19111D01*
X4849Y-18967D01*
X4838Y-18963D01*
X4838Y-16113D01*
X4560Y-15835D01*
X4524Y-15870D01*
X4524Y-15800D01*
X4246Y-15521D01*
X4166Y-15544D01*
X4098Y-15714D01*
X4101Y-15897D01*
X4166Y-16055D01*
X4246Y-16078D01*
X4524Y-15800D01*
X4524Y-15870D01*
X4281Y-16113D01*
X4304Y-16193D01*
X4474Y-16261D01*
X4657Y-16258D01*
X4815Y-16193D01*
X4838Y-16113D01*
X4838Y-18963D01*
X4661Y-18890D01*
X4544Y-18889D01*
X4544Y-18356D01*
X4479Y-18200D01*
X4469Y-18189D01*
X4469Y-17566D01*
X4479Y-17556D01*
X4543Y-17399D01*
X4544Y-17230D01*
X4479Y-17074D01*
X4360Y-16954D01*
X4203Y-16890D01*
X4034Y-16889D01*
X4016Y-16897D01*
X3959Y-16759D01*
X3840Y-16639D01*
X3684Y-16575D01*
X3515Y-16574D01*
X3358Y-16639D01*
X3348Y-16650D01*
X3121Y-16650D01*
X3121Y-16285D01*
X3118Y-16102D01*
X3053Y-15944D01*
X2973Y-15921D01*
X2938Y-15957D01*
X2938Y-15886D01*
X2915Y-15806D01*
X2745Y-15738D01*
X2562Y-15741D01*
X2404Y-15806D01*
X2404Y-13210D01*
X2404Y-13111D01*
X2404Y-12481D01*
X2366Y-12389D01*
X2296Y-12319D01*
X2204Y-12281D01*
X2105Y-12281D01*
X1475Y-12281D01*
X1383Y-12319D01*
X1313Y-12389D01*
X1275Y-12481D01*
X1275Y-12581D01*
X1275Y-13210D01*
X1313Y-13302D01*
X1383Y-13373D01*
X1388Y-13375D01*
X1324Y-13535D01*
X1325Y-13740D01*
X1401Y-13921D01*
X1486Y-13951D01*
X1804Y-13633D01*
X1799Y-13628D01*
X1834Y-13592D01*
X1840Y-13598D01*
X1845Y-13592D01*
X1880Y-13628D01*
X1875Y-13633D01*
X2193Y-13951D01*
X2278Y-13921D01*
X2355Y-13731D01*
X2354Y-13526D01*
X2291Y-13375D01*
X2296Y-13373D01*
X2366Y-13302D01*
X2404Y-13210D01*
X2404Y-15806D01*
X2404Y-15806D01*
X2381Y-15886D01*
X2660Y-16164D01*
X2938Y-15886D01*
X2938Y-15957D01*
X2695Y-16200D01*
X2973Y-16478D01*
X3053Y-16455D01*
X3121Y-16285D01*
X3121Y-16650D01*
X3031Y-16650D01*
X2949Y-16567D01*
X2925Y-16557D01*
X2938Y-16513D01*
X2660Y-16235D01*
X2654Y-16240D01*
X2619Y-16205D01*
X2624Y-16200D01*
X2346Y-15921D01*
X2266Y-15944D01*
X2198Y-16114D01*
X2199Y-16200D01*
X2157Y-16183D01*
X2157Y-13986D01*
X1840Y-13669D01*
X1522Y-13986D01*
X1551Y-14072D01*
X1741Y-14149D01*
X1946Y-14147D01*
X2128Y-14072D01*
X2157Y-13986D01*
X2157Y-16183D01*
X2045Y-16138D01*
X1862Y-16141D01*
X1704Y-16206D01*
X1681Y-16286D01*
X1960Y-16564D01*
X1965Y-16559D01*
X2000Y-16594D01*
X1995Y-16600D01*
X2000Y-16605D01*
X1965Y-16640D01*
X1960Y-16635D01*
X1924Y-16670D01*
X1924Y-16600D01*
X1646Y-16321D01*
X1566Y-16344D01*
X1498Y-16514D01*
X1501Y-16697D01*
X1566Y-16855D01*
X1646Y-16878D01*
X1924Y-16600D01*
X1924Y-16670D01*
X1681Y-16913D01*
X1694Y-16957D01*
X1671Y-16967D01*
X1527Y-17110D01*
X1450Y-17298D01*
X1449Y-17501D01*
X1527Y-17688D01*
X1638Y-17800D01*
X1527Y-17910D01*
X1450Y-18098D01*
X1449Y-18301D01*
X1527Y-18488D01*
X1638Y-18600D01*
X1527Y-18710D01*
X1450Y-18898D01*
X1449Y-19101D01*
X1527Y-19288D01*
X1670Y-19432D01*
X1858Y-19509D01*
X2061Y-19510D01*
X2248Y-19432D01*
X2392Y-19289D01*
X2469Y-19101D01*
X2469Y-19073D01*
X2558Y-19109D01*
X2761Y-19110D01*
X2948Y-19032D01*
X3092Y-18889D01*
X3169Y-18701D01*
X3170Y-18499D01*
X3092Y-18311D01*
X2981Y-18199D01*
X3092Y-18089D01*
X3169Y-17901D01*
X3170Y-17699D01*
X3092Y-17511D01*
X2981Y-17399D01*
X3031Y-17350D01*
X3348Y-17350D01*
X3358Y-17360D01*
X3514Y-17424D01*
X3683Y-17425D01*
X3701Y-17417D01*
X3758Y-17555D01*
X3769Y-17565D01*
X3769Y-18189D01*
X3758Y-18199D01*
X3694Y-18356D01*
X3693Y-18525D01*
X3758Y-18681D01*
X3877Y-18801D01*
X4034Y-18865D01*
X4203Y-18866D01*
X4359Y-18801D01*
X4479Y-18682D01*
X4543Y-18525D01*
X4544Y-18356D01*
X4544Y-18889D01*
X4459Y-18889D01*
X4271Y-18967D01*
X4127Y-19110D01*
X4050Y-19298D01*
X4049Y-19501D01*
X4127Y-19688D01*
X4270Y-19832D01*
X4313Y-19849D01*
X4271Y-19867D01*
X4127Y-20010D01*
X4050Y-20198D01*
X4049Y-20401D01*
X4127Y-20588D01*
X4249Y-20710D01*
X1608Y-20710D01*
X1714Y-20604D01*
X1849Y-20277D01*
X1850Y-19923D01*
X1714Y-19596D01*
X1464Y-19345D01*
X1137Y-19210D01*
X783Y-19209D01*
X456Y-19345D01*
X289Y-19511D01*
X289Y-15687D01*
X455Y-15854D01*
X782Y-15989D01*
X1136Y-15990D01*
X1463Y-15854D01*
X1714Y-15604D01*
X1849Y-15277D01*
X1850Y-14923D01*
X1714Y-14596D01*
X1464Y-14345D01*
X1137Y-14210D01*
X783Y-14209D01*
X456Y-14345D01*
X289Y-14511D01*
X289Y-11967D01*
X455Y-12134D01*
X782Y-12269D01*
X1136Y-12270D01*
X1463Y-12134D01*
X1714Y-11884D01*
X1849Y-11557D01*
X1850Y-11203D01*
X1714Y-10876D01*
X1464Y-10625D01*
X1137Y-10490D01*
X783Y-10489D01*
X456Y-10625D01*
X289Y-10791D01*
X289Y-6967D01*
X455Y-7134D01*
X782Y-7269D01*
X1136Y-7270D01*
X1463Y-7134D01*
X1714Y-6884D01*
X1849Y-6557D01*
X1850Y-6203D01*
X1714Y-5876D01*
X1464Y-5625D01*
X1137Y-5490D01*
X783Y-5489D01*
X456Y-5625D01*
X289Y-5791D01*
X289Y-528D01*
X310Y-421D01*
X355Y-355D01*
X421Y-310D01*
X528Y-289D01*
X25531Y-289D01*
X25638Y-310D01*
X25704Y-355D01*
X25749Y-421D01*
X25770Y-528D01*
X25770Y-5000D01*
X25792Y-5110D01*
X25855Y-5204D01*
X26770Y-6119D01*
X26770Y-18880D01*
X26770Y-18880D01*
G37*
G54D25*
X26770Y-18880D02*
X25943Y-19707D01*
X25943Y-17333D01*
X25811Y-17005D01*
X25799Y-16987D01*
X25675Y-16912D01*
X25660Y-16927D01*
X25660Y-4181D01*
X25568Y-3960D01*
X25408Y-3799D01*
X25568Y-3640D01*
X25659Y-3419D01*
X25660Y-3181D01*
X25568Y-2960D01*
X25400Y-2791D01*
X25179Y-2700D01*
X24941Y-2699D01*
X24720Y-2791D01*
X24559Y-2951D01*
X24400Y-2791D01*
X24179Y-2700D01*
X23941Y-2699D01*
X23720Y-2791D01*
X23559Y-2951D01*
X23400Y-2791D01*
X23179Y-2700D01*
X22941Y-2699D01*
X22720Y-2791D01*
X22551Y-2959D01*
X22460Y-3180D01*
X22460Y-3261D01*
X21553Y-2355D01*
X21560Y-2348D01*
X21719Y-2508D01*
X21940Y-2599D01*
X22178Y-2600D01*
X22399Y-2508D01*
X22560Y-2348D01*
X22719Y-2508D01*
X22940Y-2599D01*
X23178Y-2600D01*
X23399Y-2508D01*
X23560Y-2348D01*
X23719Y-2508D01*
X23940Y-2599D01*
X24178Y-2600D01*
X24399Y-2508D01*
X24474Y-2434D01*
X24498Y-2491D01*
X24568Y-2561D01*
X24660Y-2600D01*
X24759Y-2600D01*
X25459Y-2600D01*
X25551Y-2561D01*
X25621Y-2491D01*
X25660Y-2399D01*
X25660Y-2300D01*
X25660Y-1600D01*
X25621Y-1508D01*
X25613Y-1500D01*
X25621Y-1491D01*
X25660Y-1399D01*
X25660Y-1300D01*
X25660Y-600D01*
X25621Y-508D01*
X25551Y-438D01*
X25459Y-400D01*
X25360Y-400D01*
X24660Y-400D01*
X24568Y-438D01*
X24498Y-508D01*
X24474Y-565D01*
X24400Y-491D01*
X24179Y-400D01*
X23941Y-399D01*
X23720Y-491D01*
X23559Y-651D01*
X23400Y-491D01*
X23179Y-400D01*
X22941Y-399D01*
X22720Y-491D01*
X22559Y-651D01*
X22400Y-491D01*
X22179Y-400D01*
X21941Y-399D01*
X21720Y-491D01*
X21559Y-651D01*
X21400Y-491D01*
X21179Y-400D01*
X20941Y-399D01*
X20720Y-491D01*
X20559Y-651D01*
X20400Y-491D01*
X20179Y-400D01*
X19941Y-399D01*
X19720Y-491D01*
X19559Y-651D01*
X19400Y-491D01*
X19179Y-400D01*
X18941Y-399D01*
X18720Y-491D01*
X18559Y-651D01*
X18400Y-491D01*
X18179Y-400D01*
X17941Y-399D01*
X17720Y-491D01*
X17551Y-659D01*
X17460Y-880D01*
X17459Y-1118D01*
X17551Y-1339D01*
X17711Y-1500D01*
X17551Y-1659D01*
X17460Y-1880D01*
X17459Y-2118D01*
X17551Y-2339D01*
X17719Y-2508D01*
X17940Y-2599D01*
X18178Y-2600D01*
X18399Y-2508D01*
X18560Y-2348D01*
X18719Y-2508D01*
X18940Y-2599D01*
X19178Y-2600D01*
X19399Y-2508D01*
X19560Y-2348D01*
X19719Y-2508D01*
X19940Y-2599D01*
X20178Y-2600D01*
X20399Y-2508D01*
X20560Y-2348D01*
X20719Y-2508D01*
X20908Y-2586D01*
X22460Y-4138D01*
X22460Y-4699D01*
X22498Y-4791D01*
X22568Y-4861D01*
X22660Y-4900D01*
X22568Y-4938D01*
X22560Y-4946D01*
X22551Y-4938D01*
X22459Y-4900D01*
X22360Y-4900D01*
X21660Y-4900D01*
X21568Y-4938D01*
X21560Y-4946D01*
X21551Y-4938D01*
X21459Y-4900D01*
X21360Y-4900D01*
X20660Y-4900D01*
X20568Y-4938D01*
X20560Y-4946D01*
X20551Y-4938D01*
X20459Y-4900D01*
X20360Y-4900D01*
X19660Y-4900D01*
X19568Y-4938D01*
X19560Y-4946D01*
X19551Y-4938D01*
X19459Y-4900D01*
X19360Y-4900D01*
X18660Y-4900D01*
X18568Y-4938D01*
X18560Y-4946D01*
X18551Y-4938D01*
X18459Y-4900D01*
X18360Y-4900D01*
X17660Y-4900D01*
X17568Y-4938D01*
X17560Y-4946D01*
X17551Y-4938D01*
X17459Y-4900D01*
X17360Y-4900D01*
X17060Y-4900D01*
X17060Y-2399D01*
X17060Y-2300D01*
X17060Y-1600D01*
X17021Y-1508D01*
X17013Y-1500D01*
X17021Y-1491D01*
X17060Y-1399D01*
X17060Y-1300D01*
X17060Y-600D01*
X17021Y-508D01*
X16951Y-438D01*
X16859Y-400D01*
X16760Y-400D01*
X16060Y-400D01*
X15968Y-438D01*
X15898Y-508D01*
X15874Y-565D01*
X15800Y-491D01*
X15579Y-400D01*
X15341Y-399D01*
X15120Y-491D01*
X14959Y-651D01*
X14800Y-491D01*
X14579Y-400D01*
X14341Y-399D01*
X14120Y-491D01*
X13959Y-651D01*
X13800Y-491D01*
X13579Y-400D01*
X13341Y-399D01*
X13120Y-491D01*
X12959Y-651D01*
X12800Y-491D01*
X12579Y-400D01*
X12341Y-399D01*
X12120Y-491D01*
X11959Y-651D01*
X11800Y-491D01*
X11579Y-400D01*
X11341Y-399D01*
X11120Y-491D01*
X10951Y-659D01*
X10933Y-703D01*
X10927Y-690D01*
X10838Y-656D01*
X10803Y-692D01*
X10803Y-621D01*
X10769Y-532D01*
X10566Y-449D01*
X10347Y-450D01*
X10150Y-532D01*
X10116Y-621D01*
X10460Y-964D01*
X10803Y-621D01*
X10803Y-692D01*
X10495Y-1000D01*
X10838Y-1343D01*
X10927Y-1309D01*
X10933Y-1296D01*
X10951Y-1339D01*
X11111Y-1500D01*
X10951Y-1659D01*
X10933Y-1703D01*
X10927Y-1690D01*
X10838Y-1656D01*
X10803Y-1692D01*
X10803Y-1621D01*
X10769Y-1532D01*
X10691Y-1500D01*
X10769Y-1467D01*
X10803Y-1378D01*
X10460Y-1035D01*
X10116Y-1378D01*
X10150Y-1467D01*
X10228Y-1499D01*
X10150Y-1532D01*
X10116Y-1621D01*
X10460Y-1964D01*
X10803Y-1621D01*
X10803Y-1692D01*
X10495Y-2000D01*
X10838Y-2343D01*
X10927Y-2309D01*
X10933Y-2296D01*
X10951Y-2339D01*
X11119Y-2508D01*
X11340Y-2599D01*
X11578Y-2600D01*
X11799Y-2508D01*
X11960Y-2348D01*
X12119Y-2508D01*
X12340Y-2599D01*
X12578Y-2600D01*
X12799Y-2508D01*
X12960Y-2348D01*
X13119Y-2508D01*
X13340Y-2599D01*
X13578Y-2600D01*
X13799Y-2508D01*
X13960Y-2348D01*
X14119Y-2508D01*
X14340Y-2599D01*
X14578Y-2600D01*
X14799Y-2508D01*
X14960Y-2348D01*
X15119Y-2508D01*
X15340Y-2599D01*
X15578Y-2600D01*
X15799Y-2508D01*
X15874Y-2434D01*
X15898Y-2491D01*
X15968Y-2561D01*
X16060Y-2600D01*
X16159Y-2600D01*
X16859Y-2600D01*
X16951Y-2561D01*
X17021Y-2491D01*
X17060Y-2399D01*
X17060Y-4900D01*
X16660Y-4900D01*
X16568Y-4938D01*
X16560Y-4946D01*
X16551Y-4938D01*
X16459Y-4900D01*
X16360Y-4900D01*
X15660Y-4900D01*
X15568Y-4938D01*
X15560Y-4946D01*
X15551Y-4938D01*
X15459Y-4900D01*
X15360Y-4900D01*
X14660Y-4900D01*
X14568Y-4938D01*
X14560Y-4946D01*
X14551Y-4938D01*
X14459Y-4900D01*
X14360Y-4900D01*
X13660Y-4900D01*
X13568Y-4938D01*
X13560Y-4946D01*
X13551Y-4938D01*
X13459Y-4900D01*
X13360Y-4900D01*
X12660Y-4900D01*
X12583Y-4931D01*
X12583Y-4234D01*
X12518Y-4078D01*
X12468Y-4027D01*
X12468Y-3767D01*
X12518Y-3717D01*
X12583Y-3561D01*
X12583Y-3392D01*
X12518Y-3235D01*
X12399Y-3116D01*
X12243Y-3051D01*
X12074Y-3051D01*
X11917Y-3115D01*
X11798Y-3235D01*
X11733Y-3391D01*
X11733Y-3560D01*
X11797Y-3716D01*
X11848Y-3767D01*
X11848Y-4027D01*
X11798Y-4077D01*
X11733Y-4233D01*
X11733Y-4403D01*
X11797Y-4559D01*
X11917Y-4678D01*
X12073Y-4743D01*
X12242Y-4743D01*
X12398Y-4679D01*
X12518Y-4559D01*
X12583Y-4403D01*
X12583Y-4234D01*
X12583Y-4931D01*
X12568Y-4938D01*
X12560Y-4946D01*
X12551Y-4938D01*
X12459Y-4900D01*
X12360Y-4900D01*
X11660Y-4900D01*
X11568Y-4938D01*
X11560Y-4946D01*
X11551Y-4938D01*
X11459Y-4900D01*
X11360Y-4900D01*
X10803Y-4900D01*
X10803Y-2378D01*
X10460Y-2035D01*
X10116Y-2378D01*
X10150Y-2467D01*
X10353Y-2550D01*
X10572Y-2549D01*
X10769Y-2467D01*
X10803Y-2378D01*
X10803Y-4900D01*
X10660Y-4900D01*
X10652Y-4903D01*
X10652Y-3078D01*
X10561Y-2857D01*
X10392Y-2688D01*
X10171Y-2596D01*
X9933Y-2596D01*
X9712Y-2687D01*
X9637Y-2762D01*
X9614Y-2705D01*
X9543Y-2634D01*
X9459Y-2599D01*
X9578Y-2600D01*
X9799Y-2508D01*
X9968Y-2340D01*
X9986Y-2296D01*
X9992Y-2309D01*
X10081Y-2343D01*
X10424Y-2000D01*
X10081Y-1656D01*
X9992Y-1690D01*
X9986Y-1703D01*
X9968Y-1660D01*
X9808Y-1499D01*
X9968Y-1340D01*
X9986Y-1296D01*
X9992Y-1309D01*
X10081Y-1343D01*
X10424Y-1000D01*
X10081Y-656D01*
X9992Y-690D01*
X9986Y-703D01*
X9968Y-660D01*
X9800Y-491D01*
X9579Y-400D01*
X9341Y-399D01*
X9120Y-491D01*
X8959Y-651D01*
X8800Y-491D01*
X8579Y-400D01*
X8341Y-399D01*
X8120Y-491D01*
X7959Y-651D01*
X7800Y-491D01*
X7579Y-400D01*
X7341Y-399D01*
X7120Y-491D01*
X6951Y-659D01*
X6860Y-880D01*
X6859Y-1118D01*
X6951Y-1339D01*
X7111Y-1500D01*
X6951Y-1659D01*
X6918Y-1738D01*
X6810Y-1693D01*
X6641Y-1693D01*
X6484Y-1757D01*
X6365Y-1877D01*
X6300Y-2033D01*
X6300Y-2202D01*
X6364Y-2358D01*
X6484Y-2478D01*
X6640Y-2543D01*
X6655Y-2543D01*
X6828Y-2715D01*
X6828Y-3710D01*
X5726Y-2608D01*
X5704Y-2497D01*
X5606Y-2351D01*
X5460Y-2253D01*
X5288Y-2219D01*
X5116Y-2253D01*
X4970Y-2351D01*
X4872Y-2497D01*
X4838Y-2669D01*
X4838Y-2807D01*
X4872Y-2979D01*
X4970Y-3125D01*
X6367Y-4522D01*
X6513Y-4620D01*
X6685Y-4654D01*
X6798Y-4632D01*
X6817Y-4677D01*
X6937Y-4797D01*
X7093Y-4861D01*
X7262Y-4862D01*
X7418Y-4797D01*
X7538Y-4678D01*
X7603Y-4521D01*
X7603Y-4352D01*
X7538Y-4196D01*
X7528Y-4186D01*
X7528Y-2600D01*
X7578Y-2600D01*
X7799Y-2508D01*
X7960Y-2348D01*
X8119Y-2508D01*
X8340Y-2599D01*
X8578Y-2600D01*
X8799Y-2508D01*
X8960Y-2348D01*
X9119Y-2508D01*
X9332Y-2596D01*
X8652Y-2596D01*
X8560Y-2634D01*
X8490Y-2705D01*
X8452Y-2797D01*
X8452Y-2896D01*
X8452Y-3596D01*
X8490Y-3688D01*
X8560Y-3758D01*
X8652Y-3796D01*
X8751Y-3796D01*
X9451Y-3796D01*
X9543Y-3758D01*
X9614Y-3688D01*
X9637Y-3631D01*
X9711Y-3705D01*
X9932Y-3796D01*
X10170Y-3796D01*
X10391Y-3705D01*
X10560Y-3537D01*
X10652Y-3316D01*
X10652Y-3078D01*
X10652Y-4903D01*
X10568Y-4938D01*
X10560Y-4946D01*
X10551Y-4938D01*
X10459Y-4900D01*
X10360Y-4900D01*
X9660Y-4900D01*
X9568Y-4938D01*
X9498Y-5008D01*
X9460Y-5100D01*
X9460Y-5199D01*
X9460Y-5899D01*
X9498Y-5991D01*
X9506Y-5999D01*
X9498Y-6008D01*
X9460Y-6100D01*
X9460Y-6199D01*
X9460Y-6899D01*
X9498Y-6991D01*
X9506Y-6999D01*
X9498Y-7008D01*
X9460Y-7100D01*
X9460Y-7199D01*
X9460Y-7899D01*
X9498Y-7991D01*
X9506Y-7999D01*
X9498Y-8008D01*
X9460Y-8100D01*
X9460Y-8199D01*
X9460Y-8397D01*
X9337Y-8346D01*
X9168Y-8346D01*
X9012Y-8411D01*
X8961Y-8461D01*
X8677Y-8461D01*
X8677Y-8364D01*
X8613Y-8208D01*
X8602Y-8197D01*
X8602Y-7329D01*
X8613Y-7319D01*
X8677Y-7163D01*
X8677Y-6994D01*
X8613Y-6838D01*
X8493Y-6718D01*
X8337Y-6653D01*
X8168Y-6653D01*
X8012Y-6718D01*
X7892Y-6837D01*
X7827Y-6993D01*
X7827Y-7162D01*
X7892Y-7319D01*
X7902Y-7329D01*
X7902Y-8197D01*
X7892Y-8207D01*
X7827Y-8363D01*
X7786Y-8346D01*
X7617Y-8346D01*
X7461Y-8411D01*
X7341Y-8530D01*
X7276Y-8686D01*
X7276Y-8855D01*
X7341Y-9012D01*
X7460Y-9131D01*
X7616Y-9196D01*
X7785Y-9196D01*
X7942Y-9132D01*
X7992Y-9081D01*
X8961Y-9081D01*
X9011Y-9131D01*
X9168Y-9196D01*
X9337Y-9196D01*
X9460Y-9145D01*
X9460Y-9199D01*
X9460Y-9899D01*
X9498Y-9991D01*
X9506Y-9999D01*
X9498Y-10008D01*
X9460Y-10100D01*
X9460Y-10199D01*
X9460Y-10899D01*
X9498Y-10991D01*
X9506Y-10999D01*
X9498Y-11008D01*
X9460Y-11100D01*
X9460Y-11199D01*
X9460Y-11899D01*
X9498Y-11991D01*
X9506Y-11999D01*
X9498Y-12008D01*
X9460Y-12100D01*
X9460Y-12199D01*
X9460Y-12899D01*
X9498Y-12991D01*
X9568Y-13061D01*
X9660Y-13100D01*
X9759Y-13100D01*
X10459Y-13100D01*
X10551Y-13061D01*
X10559Y-13053D01*
X10568Y-13061D01*
X10660Y-13100D01*
X10759Y-13100D01*
X11459Y-13100D01*
X11551Y-13061D01*
X11559Y-13053D01*
X11568Y-13061D01*
X11660Y-13100D01*
X11759Y-13100D01*
X12459Y-13100D01*
X12551Y-13061D01*
X12559Y-13053D01*
X12568Y-13061D01*
X12660Y-13100D01*
X12759Y-13100D01*
X13459Y-13100D01*
X13551Y-13061D01*
X13559Y-13053D01*
X13568Y-13061D01*
X13660Y-13100D01*
X13759Y-13100D01*
X14459Y-13100D01*
X14551Y-13061D01*
X14559Y-13053D01*
X14568Y-13061D01*
X14660Y-13100D01*
X14759Y-13100D01*
X15459Y-13100D01*
X15551Y-13061D01*
X15559Y-13053D01*
X15568Y-13061D01*
X15660Y-13100D01*
X15759Y-13100D01*
X16459Y-13100D01*
X16551Y-13061D01*
X16559Y-13053D01*
X16568Y-13061D01*
X16660Y-13100D01*
X16759Y-13100D01*
X17459Y-13100D01*
X17551Y-13061D01*
X17559Y-13053D01*
X17568Y-13061D01*
X17660Y-13100D01*
X17759Y-13100D01*
X18459Y-13100D01*
X18551Y-13061D01*
X18559Y-13053D01*
X18568Y-13061D01*
X18660Y-13100D01*
X18759Y-13100D01*
X19459Y-13100D01*
X19551Y-13061D01*
X19559Y-13053D01*
X19568Y-13061D01*
X19660Y-13100D01*
X19759Y-13100D01*
X20459Y-13100D01*
X20551Y-13061D01*
X20559Y-13053D01*
X20568Y-13061D01*
X20660Y-13100D01*
X20759Y-13100D01*
X21459Y-13100D01*
X21551Y-13061D01*
X21559Y-13053D01*
X21568Y-13061D01*
X21660Y-13100D01*
X21759Y-13100D01*
X22459Y-13100D01*
X22551Y-13061D01*
X22559Y-13053D01*
X22568Y-13061D01*
X22660Y-13100D01*
X22759Y-13100D01*
X23459Y-13100D01*
X23551Y-13061D01*
X23559Y-13053D01*
X23568Y-13061D01*
X23660Y-13100D01*
X23759Y-13100D01*
X24459Y-13100D01*
X24551Y-13061D01*
X24559Y-13053D01*
X24568Y-13061D01*
X24660Y-13100D01*
X24759Y-13100D01*
X25459Y-13100D01*
X25551Y-13061D01*
X25621Y-12991D01*
X25660Y-12899D01*
X25660Y-12800D01*
X25660Y-12100D01*
X25621Y-12008D01*
X25613Y-12000D01*
X25621Y-11991D01*
X25660Y-11899D01*
X25660Y-11800D01*
X25660Y-11100D01*
X25621Y-11008D01*
X25613Y-11000D01*
X25621Y-10991D01*
X25660Y-10899D01*
X25660Y-10800D01*
X25660Y-10100D01*
X25621Y-10008D01*
X25613Y-10000D01*
X25621Y-9991D01*
X25660Y-9899D01*
X25660Y-9800D01*
X25660Y-9100D01*
X25621Y-9008D01*
X25613Y-9000D01*
X25621Y-8991D01*
X25660Y-8899D01*
X25660Y-8800D01*
X25660Y-8100D01*
X25621Y-8008D01*
X25613Y-8000D01*
X25621Y-7991D01*
X25660Y-7899D01*
X25660Y-7800D01*
X25660Y-7100D01*
X25621Y-7008D01*
X25613Y-7000D01*
X25621Y-6991D01*
X25660Y-6899D01*
X25660Y-6800D01*
X25660Y-6100D01*
X25621Y-6008D01*
X25613Y-6000D01*
X25621Y-5991D01*
X25660Y-5899D01*
X25660Y-5800D01*
X25660Y-5100D01*
X25621Y-5008D01*
X25551Y-4938D01*
X25459Y-4900D01*
X25360Y-4900D01*
X25179Y-4900D01*
X25399Y-4808D01*
X25568Y-4640D01*
X25659Y-4419D01*
X25660Y-4181D01*
X25660Y-16927D01*
X25660Y-16927D01*
X25660Y-16399D01*
X25660Y-16300D01*
X25660Y-15600D01*
X25621Y-15508D01*
X25613Y-15500D01*
X25621Y-15491D01*
X25660Y-15399D01*
X25660Y-15300D01*
X25660Y-14600D01*
X25621Y-14508D01*
X25578Y-14464D01*
X25579Y-14463D01*
X25610Y-14389D01*
X25610Y-14310D01*
X25610Y-14075D01*
X25610Y-13925D01*
X25610Y-13689D01*
X25610Y-13610D01*
X25579Y-13536D01*
X25523Y-13480D01*
X25449Y-13450D01*
X25135Y-13450D01*
X25085Y-13500D01*
X25085Y-13975D01*
X25560Y-13975D01*
X25610Y-13925D01*
X25610Y-14075D01*
X25560Y-14025D01*
X25085Y-14025D01*
X25085Y-14032D01*
X25035Y-14032D01*
X25035Y-14025D01*
X25035Y-13975D01*
X25035Y-13500D01*
X24985Y-13450D01*
X24670Y-13450D01*
X24596Y-13480D01*
X24560Y-13517D01*
X24523Y-13480D01*
X24449Y-13450D01*
X24135Y-13450D01*
X24085Y-13500D01*
X24085Y-13975D01*
X24560Y-13975D01*
X25035Y-13975D01*
X25035Y-14025D01*
X24560Y-14025D01*
X24085Y-14025D01*
X24085Y-14032D01*
X24035Y-14032D01*
X24035Y-14025D01*
X24035Y-13975D01*
X24035Y-13500D01*
X23985Y-13450D01*
X23670Y-13450D01*
X23596Y-13480D01*
X23560Y-13517D01*
X23523Y-13480D01*
X23449Y-13450D01*
X23135Y-13450D01*
X23085Y-13500D01*
X23085Y-13975D01*
X23560Y-13975D01*
X24035Y-13975D01*
X24035Y-14025D01*
X23560Y-14025D01*
X23085Y-14025D01*
X23085Y-14032D01*
X23035Y-14032D01*
X23035Y-14025D01*
X23035Y-13975D01*
X23035Y-13500D01*
X22985Y-13450D01*
X22670Y-13450D01*
X22596Y-13480D01*
X22560Y-13517D01*
X22523Y-13480D01*
X22449Y-13450D01*
X22135Y-13450D01*
X22085Y-13500D01*
X22085Y-13975D01*
X22560Y-13975D01*
X23035Y-13975D01*
X23035Y-14025D01*
X22560Y-14025D01*
X22085Y-14025D01*
X22085Y-14032D01*
X22035Y-14032D01*
X22035Y-14025D01*
X22035Y-13975D01*
X22035Y-13500D01*
X21985Y-13450D01*
X21670Y-13450D01*
X21596Y-13480D01*
X21560Y-13517D01*
X21523Y-13480D01*
X21449Y-13450D01*
X21135Y-13450D01*
X21085Y-13500D01*
X21085Y-13975D01*
X21560Y-13975D01*
X22035Y-13975D01*
X22035Y-14025D01*
X21560Y-14025D01*
X21085Y-14025D01*
X21085Y-14032D01*
X21035Y-14032D01*
X21035Y-14025D01*
X21035Y-13975D01*
X21035Y-13500D01*
X20985Y-13450D01*
X20670Y-13450D01*
X20596Y-13480D01*
X20560Y-13517D01*
X20523Y-13480D01*
X20449Y-13450D01*
X20135Y-13450D01*
X20085Y-13500D01*
X20085Y-13975D01*
X20560Y-13975D01*
X21035Y-13975D01*
X21035Y-14025D01*
X20560Y-14025D01*
X20085Y-14025D01*
X20085Y-14032D01*
X20035Y-14032D01*
X20035Y-14025D01*
X20035Y-13975D01*
X20035Y-13500D01*
X19985Y-13450D01*
X19670Y-13450D01*
X19596Y-13480D01*
X19560Y-13517D01*
X19523Y-13480D01*
X19449Y-13450D01*
X19135Y-13450D01*
X19085Y-13500D01*
X19085Y-13975D01*
X19560Y-13975D01*
X20035Y-13975D01*
X20035Y-14025D01*
X19560Y-14025D01*
X19085Y-14025D01*
X19085Y-14032D01*
X19035Y-14032D01*
X19035Y-14025D01*
X19035Y-13975D01*
X19035Y-13500D01*
X18985Y-13450D01*
X18670Y-13450D01*
X18596Y-13480D01*
X18560Y-13517D01*
X18523Y-13480D01*
X18449Y-13450D01*
X18135Y-13450D01*
X18085Y-13500D01*
X18085Y-13975D01*
X18560Y-13975D01*
X19035Y-13975D01*
X19035Y-14025D01*
X18560Y-14025D01*
X18085Y-14025D01*
X18085Y-14032D01*
X18035Y-14032D01*
X18035Y-14025D01*
X18035Y-13975D01*
X18035Y-13500D01*
X17985Y-13450D01*
X17670Y-13450D01*
X17596Y-13480D01*
X17560Y-13517D01*
X17523Y-13480D01*
X17449Y-13450D01*
X17135Y-13450D01*
X17085Y-13500D01*
X17085Y-13975D01*
X17560Y-13975D01*
X18035Y-13975D01*
X18035Y-14025D01*
X17560Y-14025D01*
X17085Y-14025D01*
X17085Y-14032D01*
X17035Y-14032D01*
X17035Y-14025D01*
X17035Y-13975D01*
X17035Y-13500D01*
X16985Y-13450D01*
X16670Y-13450D01*
X16596Y-13480D01*
X16560Y-13517D01*
X16523Y-13480D01*
X16449Y-13450D01*
X16135Y-13450D01*
X16085Y-13500D01*
X16085Y-13975D01*
X16560Y-13975D01*
X17035Y-13975D01*
X17035Y-14025D01*
X16560Y-14025D01*
X16085Y-14025D01*
X16085Y-14032D01*
X16035Y-14032D01*
X16035Y-14025D01*
X16035Y-13975D01*
X16035Y-13500D01*
X15985Y-13450D01*
X15670Y-13450D01*
X15596Y-13480D01*
X15560Y-13517D01*
X15523Y-13480D01*
X15449Y-13450D01*
X15135Y-13450D01*
X15085Y-13500D01*
X15085Y-13975D01*
X15560Y-13975D01*
X16035Y-13975D01*
X16035Y-14025D01*
X15560Y-14025D01*
X15085Y-14025D01*
X15085Y-14032D01*
X15035Y-14032D01*
X15035Y-14025D01*
X15035Y-13975D01*
X15035Y-13500D01*
X14985Y-13450D01*
X14670Y-13450D01*
X14596Y-13480D01*
X14560Y-13517D01*
X14523Y-13480D01*
X14449Y-13450D01*
X14135Y-13450D01*
X14085Y-13500D01*
X14085Y-13975D01*
X14560Y-13975D01*
X15035Y-13975D01*
X15035Y-14025D01*
X14560Y-14025D01*
X14085Y-14025D01*
X14085Y-14032D01*
X14035Y-14032D01*
X14035Y-14025D01*
X14035Y-13975D01*
X14035Y-13500D01*
X13985Y-13450D01*
X13670Y-13450D01*
X13596Y-13480D01*
X13560Y-13517D01*
X13523Y-13480D01*
X13449Y-13450D01*
X13135Y-13450D01*
X13085Y-13500D01*
X13085Y-13975D01*
X13560Y-13975D01*
X14035Y-13975D01*
X14035Y-14025D01*
X13560Y-14025D01*
X13085Y-14025D01*
X13085Y-14032D01*
X13035Y-14032D01*
X13035Y-14025D01*
X13035Y-13975D01*
X13035Y-13500D01*
X12985Y-13450D01*
X12670Y-13450D01*
X12596Y-13480D01*
X12560Y-13517D01*
X12523Y-13480D01*
X12449Y-13450D01*
X12135Y-13450D01*
X12085Y-13500D01*
X12085Y-13975D01*
X12560Y-13975D01*
X13035Y-13975D01*
X13035Y-14025D01*
X12560Y-14025D01*
X12085Y-14025D01*
X12085Y-14032D01*
X12035Y-14032D01*
X12035Y-14025D01*
X12035Y-13975D01*
X12035Y-13500D01*
X11985Y-13450D01*
X11670Y-13450D01*
X11596Y-13480D01*
X11560Y-13517D01*
X11523Y-13480D01*
X11449Y-13450D01*
X11135Y-13450D01*
X11085Y-13500D01*
X11085Y-13975D01*
X11560Y-13975D01*
X12035Y-13975D01*
X12035Y-14025D01*
X11560Y-14025D01*
X11085Y-14025D01*
X11085Y-14032D01*
X11035Y-14032D01*
X11035Y-14025D01*
X11035Y-13975D01*
X11035Y-13500D01*
X10985Y-13450D01*
X10670Y-13450D01*
X10596Y-13480D01*
X10560Y-13517D01*
X10523Y-13480D01*
X10449Y-13450D01*
X10135Y-13450D01*
X10085Y-13500D01*
X10085Y-13975D01*
X10560Y-13975D01*
X11035Y-13975D01*
X11035Y-14025D01*
X10560Y-14025D01*
X10085Y-14025D01*
X10085Y-14032D01*
X10035Y-14032D01*
X10035Y-14025D01*
X10035Y-13975D01*
X10035Y-13500D01*
X9985Y-13450D01*
X9670Y-13450D01*
X9596Y-13480D01*
X9540Y-13536D01*
X9510Y-13610D01*
X9510Y-13689D01*
X9510Y-13925D01*
X9560Y-13975D01*
X10035Y-13975D01*
X10035Y-14025D01*
X9560Y-14025D01*
X9510Y-14075D01*
X9510Y-14310D01*
X9510Y-14389D01*
X9540Y-14463D01*
X9541Y-14464D01*
X9498Y-14508D01*
X9460Y-14600D01*
X9460Y-14699D01*
X9460Y-15399D01*
X9498Y-15491D01*
X9506Y-15499D01*
X9506Y-15500D01*
X9147Y-15500D01*
X9120Y-15473D01*
X9028Y-15435D01*
X8928Y-15435D01*
X8804Y-15435D01*
X8804Y-14528D01*
X8804Y-14428D01*
X8804Y-13799D01*
X8766Y-13707D01*
X8696Y-13636D01*
X8691Y-13634D01*
X8755Y-13474D01*
X8754Y-13269D01*
X8678Y-13088D01*
X8593Y-13058D01*
X8557Y-13093D01*
X8557Y-13023D01*
X8528Y-12937D01*
X8338Y-12860D01*
X8133Y-12862D01*
X7951Y-12937D01*
X7922Y-13023D01*
X8240Y-13340D01*
X8557Y-13023D01*
X8557Y-13093D01*
X8275Y-13376D01*
X8280Y-13381D01*
X8245Y-13417D01*
X8240Y-13411D01*
X8234Y-13417D01*
X8199Y-13381D01*
X8204Y-13376D01*
X7886Y-13058D01*
X7801Y-13088D01*
X7724Y-13278D01*
X7725Y-13483D01*
X7788Y-13634D01*
X7783Y-13636D01*
X7713Y-13707D01*
X7675Y-13799D01*
X7675Y-13898D01*
X7675Y-14528D01*
X7713Y-14620D01*
X7783Y-14690D01*
X7875Y-14728D01*
X7974Y-14728D01*
X8604Y-14728D01*
X8696Y-14690D01*
X8766Y-14620D01*
X8804Y-14528D01*
X8804Y-15435D01*
X8299Y-15435D01*
X8207Y-15473D01*
X8136Y-15543D01*
X8134Y-15548D01*
X7974Y-15484D01*
X7769Y-15485D01*
X7588Y-15561D01*
X7558Y-15646D01*
X7876Y-15964D01*
X7881Y-15959D01*
X7917Y-15994D01*
X7911Y-16000D01*
X7917Y-16005D01*
X7881Y-16040D01*
X7876Y-16035D01*
X7840Y-16070D01*
X7840Y-16000D01*
X7523Y-15682D01*
X7437Y-15711D01*
X7360Y-15901D01*
X7362Y-16106D01*
X7437Y-16288D01*
X7523Y-16317D01*
X7840Y-16000D01*
X7840Y-16070D01*
X7558Y-16353D01*
X7588Y-16438D01*
X7778Y-16515D01*
X7983Y-16514D01*
X8134Y-16451D01*
X8136Y-16456D01*
X8207Y-16526D01*
X8299Y-16564D01*
X8398Y-16564D01*
X9028Y-16564D01*
X9120Y-16526D01*
X9147Y-16500D01*
X9506Y-16500D01*
X9568Y-16561D01*
X9660Y-16600D01*
X9759Y-16600D01*
X10459Y-16600D01*
X10551Y-16561D01*
X10559Y-16553D01*
X10568Y-16561D01*
X10660Y-16600D01*
X10759Y-16600D01*
X11459Y-16600D01*
X11551Y-16561D01*
X11559Y-16553D01*
X11568Y-16561D01*
X11660Y-16600D01*
X11759Y-16600D01*
X12459Y-16600D01*
X12551Y-16561D01*
X12559Y-16553D01*
X12568Y-16561D01*
X12660Y-16600D01*
X12759Y-16600D01*
X13459Y-16600D01*
X13551Y-16561D01*
X13559Y-16553D01*
X13568Y-16561D01*
X13660Y-16600D01*
X13759Y-16600D01*
X14459Y-16600D01*
X14551Y-16561D01*
X14559Y-16553D01*
X14568Y-16561D01*
X14660Y-16600D01*
X14759Y-16600D01*
X15459Y-16600D01*
X15551Y-16561D01*
X15559Y-16553D01*
X15568Y-16561D01*
X15660Y-16600D01*
X15759Y-16600D01*
X16459Y-16600D01*
X16551Y-16561D01*
X16559Y-16553D01*
X16568Y-16561D01*
X16660Y-16600D01*
X16759Y-16600D01*
X17459Y-16600D01*
X17551Y-16561D01*
X17559Y-16553D01*
X17568Y-16561D01*
X17660Y-16600D01*
X17759Y-16600D01*
X18459Y-16600D01*
X18551Y-16561D01*
X18559Y-16553D01*
X18568Y-16561D01*
X18660Y-16600D01*
X18759Y-16600D01*
X19459Y-16600D01*
X19551Y-16561D01*
X19559Y-16553D01*
X19568Y-16561D01*
X19660Y-16600D01*
X19759Y-16600D01*
X20459Y-16600D01*
X20551Y-16561D01*
X20559Y-16553D01*
X20568Y-16561D01*
X20660Y-16600D01*
X20759Y-16600D01*
X21459Y-16600D01*
X21551Y-16561D01*
X21559Y-16553D01*
X21568Y-16561D01*
X21660Y-16600D01*
X21759Y-16600D01*
X22459Y-16600D01*
X22551Y-16561D01*
X22559Y-16553D01*
X22568Y-16561D01*
X22660Y-16600D01*
X22759Y-16600D01*
X23459Y-16600D01*
X23551Y-16561D01*
X23559Y-16553D01*
X23568Y-16561D01*
X23660Y-16600D01*
X23759Y-16600D01*
X24459Y-16600D01*
X24551Y-16561D01*
X24559Y-16553D01*
X24568Y-16561D01*
X24660Y-16600D01*
X24759Y-16600D01*
X25459Y-16600D01*
X25551Y-16561D01*
X25621Y-16491D01*
X25660Y-16399D01*
X25660Y-16927D01*
X25639Y-16947D01*
X25639Y-16877D01*
X25564Y-16752D01*
X25239Y-16613D01*
X24885Y-16609D01*
X24557Y-16740D01*
X24539Y-16752D01*
X24464Y-16877D01*
X25052Y-17464D01*
X25639Y-16877D01*
X25639Y-16947D01*
X25087Y-17500D01*
X25675Y-18087D01*
X25799Y-18012D01*
X25938Y-17687D01*
X25943Y-17333D01*
X25943Y-19707D01*
X25855Y-19795D01*
X25792Y-19889D01*
X25770Y-20000D01*
X25770Y-20471D01*
X25749Y-20578D01*
X25704Y-20644D01*
X25660Y-20674D01*
X25660Y-19881D01*
X25568Y-19660D01*
X25408Y-19499D01*
X25568Y-19340D01*
X25659Y-19119D01*
X25660Y-18881D01*
X25639Y-18831D01*
X25639Y-18122D01*
X25052Y-17535D01*
X25016Y-17570D01*
X25016Y-17500D01*
X24429Y-16912D01*
X24304Y-16987D01*
X24165Y-17312D01*
X24161Y-17666D01*
X24292Y-17994D01*
X24304Y-18012D01*
X24429Y-18087D01*
X25016Y-17500D01*
X25016Y-17570D01*
X24464Y-18122D01*
X24539Y-18247D01*
X24864Y-18386D01*
X25218Y-18390D01*
X25546Y-18259D01*
X25564Y-18247D01*
X25639Y-18122D01*
X25639Y-18831D01*
X25568Y-18660D01*
X25400Y-18491D01*
X25179Y-18400D01*
X24941Y-18399D01*
X24720Y-18491D01*
X24559Y-18651D01*
X24400Y-18491D01*
X24179Y-18400D01*
X23941Y-18399D01*
X23720Y-18491D01*
X23559Y-18651D01*
X23400Y-18491D01*
X23179Y-18400D01*
X22941Y-18399D01*
X22720Y-18491D01*
X22559Y-18651D01*
X22400Y-18491D01*
X22179Y-18400D01*
X21941Y-18399D01*
X21720Y-18491D01*
X21559Y-18651D01*
X21400Y-18491D01*
X21179Y-18400D01*
X20941Y-18399D01*
X20720Y-18491D01*
X20645Y-18565D01*
X20621Y-18508D01*
X20551Y-18438D01*
X20459Y-18400D01*
X20360Y-18400D01*
X19660Y-18400D01*
X19568Y-18438D01*
X19498Y-18508D01*
X19460Y-18600D01*
X19460Y-18699D01*
X19460Y-19399D01*
X19498Y-19491D01*
X19506Y-19499D01*
X19498Y-19508D01*
X19460Y-19600D01*
X19460Y-19699D01*
X19460Y-20399D01*
X19498Y-20491D01*
X19568Y-20561D01*
X19660Y-20600D01*
X19759Y-20600D01*
X20459Y-20600D01*
X20551Y-20561D01*
X20621Y-20491D01*
X20645Y-20434D01*
X20719Y-20508D01*
X20940Y-20599D01*
X21178Y-20600D01*
X21399Y-20508D01*
X21560Y-20348D01*
X21719Y-20508D01*
X21940Y-20599D01*
X22178Y-20600D01*
X22399Y-20508D01*
X22560Y-20348D01*
X22719Y-20508D01*
X22940Y-20599D01*
X23178Y-20600D01*
X23399Y-20508D01*
X23560Y-20348D01*
X23719Y-20508D01*
X23940Y-20599D01*
X24178Y-20600D01*
X24399Y-20508D01*
X24560Y-20348D01*
X24719Y-20508D01*
X24940Y-20599D01*
X25178Y-20600D01*
X25399Y-20508D01*
X25568Y-20340D01*
X25659Y-20119D01*
X25660Y-19881D01*
X25660Y-20674D01*
X25638Y-20689D01*
X25525Y-20711D01*
X25520Y-20710D01*
X18660Y-20710D01*
X18660Y-19881D01*
X18568Y-19660D01*
X18408Y-19499D01*
X18568Y-19340D01*
X18659Y-19119D01*
X18660Y-18881D01*
X18568Y-18660D01*
X18400Y-18491D01*
X18179Y-18400D01*
X17941Y-18399D01*
X17720Y-18491D01*
X17551Y-18659D01*
X17533Y-18703D01*
X17527Y-18690D01*
X17438Y-18656D01*
X17403Y-18692D01*
X17403Y-18621D01*
X17369Y-18532D01*
X17166Y-18449D01*
X16947Y-18450D01*
X16750Y-18532D01*
X16716Y-18621D01*
X17060Y-18964D01*
X17403Y-18621D01*
X17403Y-18692D01*
X17095Y-19000D01*
X17438Y-19343D01*
X17527Y-19309D01*
X17533Y-19296D01*
X17551Y-19339D01*
X17711Y-19500D01*
X17551Y-19659D01*
X17533Y-19703D01*
X17527Y-19690D01*
X17438Y-19656D01*
X17403Y-19692D01*
X17403Y-19621D01*
X17369Y-19532D01*
X17291Y-19500D01*
X17369Y-19467D01*
X17403Y-19378D01*
X17060Y-19035D01*
X17024Y-19070D01*
X17024Y-19000D01*
X16681Y-18656D01*
X16592Y-18690D01*
X16560Y-18768D01*
X16527Y-18690D01*
X16438Y-18656D01*
X16403Y-18692D01*
X16403Y-18621D01*
X16369Y-18532D01*
X16166Y-18449D01*
X15947Y-18450D01*
X15750Y-18532D01*
X15716Y-18621D01*
X16060Y-18964D01*
X16403Y-18621D01*
X16403Y-18692D01*
X16095Y-19000D01*
X16438Y-19343D01*
X16527Y-19309D01*
X16559Y-19231D01*
X16592Y-19309D01*
X16681Y-19343D01*
X17024Y-19000D01*
X17024Y-19070D01*
X16716Y-19378D01*
X16750Y-19467D01*
X16828Y-19499D01*
X16750Y-19532D01*
X16716Y-19621D01*
X17060Y-19964D01*
X17403Y-19621D01*
X17403Y-19692D01*
X17095Y-20000D01*
X17438Y-20343D01*
X17527Y-20309D01*
X17533Y-20296D01*
X17551Y-20339D01*
X17719Y-20508D01*
X17940Y-20599D01*
X18178Y-20600D01*
X18399Y-20508D01*
X18568Y-20340D01*
X18659Y-20119D01*
X18660Y-19881D01*
X18660Y-20710D01*
X17403Y-20710D01*
X17403Y-20378D01*
X17060Y-20035D01*
X17024Y-20070D01*
X17024Y-20000D01*
X16681Y-19656D01*
X16592Y-19690D01*
X16560Y-19768D01*
X16527Y-19690D01*
X16438Y-19656D01*
X16403Y-19692D01*
X16403Y-19621D01*
X16369Y-19532D01*
X16291Y-19500D01*
X16369Y-19467D01*
X16403Y-19378D01*
X16060Y-19035D01*
X15716Y-19378D01*
X15750Y-19467D01*
X15828Y-19499D01*
X15750Y-19532D01*
X15716Y-19621D01*
X16060Y-19964D01*
X16403Y-19621D01*
X16403Y-19692D01*
X16095Y-20000D01*
X16438Y-20343D01*
X16527Y-20309D01*
X16559Y-20231D01*
X16592Y-20309D01*
X16681Y-20343D01*
X17024Y-20000D01*
X17024Y-20070D01*
X16716Y-20378D01*
X16750Y-20467D01*
X16953Y-20550D01*
X17172Y-20549D01*
X17369Y-20467D01*
X17403Y-20378D01*
X17403Y-20710D01*
X16403Y-20710D01*
X16403Y-20378D01*
X16060Y-20035D01*
X16024Y-20070D01*
X16024Y-20000D01*
X15681Y-19656D01*
X15592Y-19690D01*
X15586Y-19703D01*
X15568Y-19660D01*
X15408Y-19499D01*
X15568Y-19340D01*
X15586Y-19296D01*
X15592Y-19309D01*
X15681Y-19343D01*
X16024Y-19000D01*
X15681Y-18656D01*
X15592Y-18690D01*
X15586Y-18703D01*
X15568Y-18660D01*
X15400Y-18491D01*
X15179Y-18400D01*
X14941Y-18399D01*
X14720Y-18491D01*
X14559Y-18651D01*
X14400Y-18491D01*
X14179Y-18400D01*
X13941Y-18399D01*
X13720Y-18491D01*
X13559Y-18651D01*
X13400Y-18491D01*
X13179Y-18400D01*
X12941Y-18399D01*
X12720Y-18491D01*
X12559Y-18651D01*
X12400Y-18491D01*
X12179Y-18400D01*
X11941Y-18399D01*
X11720Y-18491D01*
X11645Y-18565D01*
X11621Y-18508D01*
X11551Y-18438D01*
X11459Y-18400D01*
X11360Y-18400D01*
X10660Y-18400D01*
X10568Y-18438D01*
X10498Y-18508D01*
X10460Y-18600D01*
X10460Y-18699D01*
X10460Y-19399D01*
X10498Y-19491D01*
X10506Y-19499D01*
X10498Y-19508D01*
X10460Y-19600D01*
X10460Y-19699D01*
X10460Y-20399D01*
X10498Y-20491D01*
X10568Y-20561D01*
X10660Y-20600D01*
X10759Y-20600D01*
X11459Y-20600D01*
X11551Y-20561D01*
X11621Y-20491D01*
X11645Y-20434D01*
X11719Y-20508D01*
X11940Y-20599D01*
X12178Y-20600D01*
X12399Y-20508D01*
X12560Y-20348D01*
X12719Y-20508D01*
X12940Y-20599D01*
X13178Y-20600D01*
X13399Y-20508D01*
X13560Y-20348D01*
X13719Y-20508D01*
X13940Y-20599D01*
X14178Y-20600D01*
X14399Y-20508D01*
X14560Y-20348D01*
X14719Y-20508D01*
X14940Y-20599D01*
X15178Y-20600D01*
X15399Y-20508D01*
X15568Y-20340D01*
X15586Y-20296D01*
X15592Y-20309D01*
X15681Y-20343D01*
X16024Y-20000D01*
X16024Y-20070D01*
X15716Y-20378D01*
X15750Y-20467D01*
X15953Y-20550D01*
X16172Y-20549D01*
X16369Y-20467D01*
X16403Y-20378D01*
X16403Y-20710D01*
X7331Y-20710D01*
X7331Y-15254D01*
X7266Y-15098D01*
X7256Y-15087D01*
X7256Y-14731D01*
X7266Y-14721D01*
X7331Y-14565D01*
X7331Y-14396D01*
X7266Y-14239D01*
X7147Y-14120D01*
X6991Y-14055D01*
X6822Y-14055D01*
X6666Y-14119D01*
X6546Y-14239D01*
X6481Y-14395D01*
X6481Y-14564D01*
X6545Y-14720D01*
X6556Y-14731D01*
X6556Y-15087D01*
X6546Y-15097D01*
X6481Y-15253D01*
X6481Y-15422D01*
X6545Y-15579D01*
X6665Y-15698D01*
X6821Y-15763D01*
X6990Y-15763D01*
X7146Y-15699D01*
X7266Y-15579D01*
X7331Y-15423D01*
X7331Y-15254D01*
X7331Y-20710D01*
X5878Y-20710D01*
X5878Y-18415D01*
X5814Y-18259D01*
X5803Y-18249D01*
X5803Y-17483D01*
X5813Y-17473D01*
X5878Y-17317D01*
X5878Y-17148D01*
X5835Y-17043D01*
X5835Y-14155D01*
X5770Y-13999D01*
X5651Y-13880D01*
X5495Y-13815D01*
X5326Y-13815D01*
X5169Y-13879D01*
X5070Y-13979D01*
X5070Y-11479D01*
X4992Y-11291D01*
X4849Y-11147D01*
X4806Y-11130D01*
X4848Y-11112D01*
X4992Y-10969D01*
X5069Y-10781D01*
X5070Y-10579D01*
X5070Y-6079D01*
X4992Y-5891D01*
X4849Y-5747D01*
X4661Y-5670D01*
X4459Y-5669D01*
X4271Y-5747D01*
X4127Y-5890D01*
X4050Y-6078D01*
X4049Y-6281D01*
X4127Y-6468D01*
X4270Y-6612D01*
X4377Y-6656D01*
X4304Y-6686D01*
X4281Y-6766D01*
X4560Y-7044D01*
X4838Y-6766D01*
X4815Y-6686D01*
X4741Y-6656D01*
X4848Y-6612D01*
X4992Y-6469D01*
X5069Y-6281D01*
X5070Y-6079D01*
X5070Y-10579D01*
X5021Y-10460D01*
X5021Y-7165D01*
X5018Y-6982D01*
X4953Y-6824D01*
X4873Y-6801D01*
X4595Y-7080D01*
X4873Y-7358D01*
X4953Y-7335D01*
X5021Y-7165D01*
X5021Y-10460D01*
X4992Y-10391D01*
X4849Y-10247D01*
X4838Y-10243D01*
X4838Y-7393D01*
X4560Y-7115D01*
X4524Y-7150D01*
X4524Y-7080D01*
X4246Y-6801D01*
X4166Y-6824D01*
X4098Y-6994D01*
X4101Y-7177D01*
X4166Y-7335D01*
X4246Y-7358D01*
X4524Y-7080D01*
X4524Y-7150D01*
X4281Y-7393D01*
X4304Y-7473D01*
X4474Y-7541D01*
X4657Y-7538D01*
X4815Y-7473D01*
X4838Y-7393D01*
X4838Y-10243D01*
X4661Y-10170D01*
X4459Y-10169D01*
X4271Y-10247D01*
X4185Y-10333D01*
X4185Y-8205D01*
X4128Y-8067D01*
X4022Y-7962D01*
X3884Y-7905D01*
X3735Y-7904D01*
X3675Y-7930D01*
X3121Y-7930D01*
X3121Y-7565D01*
X3118Y-7382D01*
X3053Y-7224D01*
X2973Y-7201D01*
X2938Y-7237D01*
X2938Y-7166D01*
X2915Y-7086D01*
X2745Y-7018D01*
X2562Y-7021D01*
X2404Y-7086D01*
X2381Y-7166D01*
X2660Y-7444D01*
X2938Y-7166D01*
X2938Y-7237D01*
X2695Y-7480D01*
X2973Y-7758D01*
X3053Y-7735D01*
X3121Y-7565D01*
X3121Y-7930D01*
X3031Y-7930D01*
X2949Y-7847D01*
X2925Y-7837D01*
X2938Y-7793D01*
X2660Y-7515D01*
X2654Y-7520D01*
X2619Y-7485D01*
X2624Y-7480D01*
X2346Y-7201D01*
X2266Y-7224D01*
X2198Y-7394D01*
X2199Y-7480D01*
X2045Y-7418D01*
X1862Y-7421D01*
X1704Y-7486D01*
X1681Y-7566D01*
X1960Y-7844D01*
X1965Y-7839D01*
X2000Y-7874D01*
X1995Y-7880D01*
X2000Y-7885D01*
X1965Y-7920D01*
X1960Y-7915D01*
X1924Y-7950D01*
X1924Y-7880D01*
X1646Y-7601D01*
X1566Y-7624D01*
X1498Y-7794D01*
X1501Y-7977D01*
X1566Y-8135D01*
X1646Y-8158D01*
X1924Y-7880D01*
X1924Y-7950D01*
X1681Y-8193D01*
X1694Y-8237D01*
X1671Y-8247D01*
X1527Y-8390D01*
X1450Y-8578D01*
X1449Y-8781D01*
X1527Y-8968D01*
X1638Y-9080D01*
X1527Y-9190D01*
X1450Y-9378D01*
X1449Y-9581D01*
X1527Y-9768D01*
X1638Y-9880D01*
X1527Y-9990D01*
X1450Y-10178D01*
X1449Y-10381D01*
X1527Y-10568D01*
X1670Y-10712D01*
X1858Y-10789D01*
X2061Y-10790D01*
X2248Y-10712D01*
X2392Y-10569D01*
X2469Y-10381D01*
X2469Y-10353D01*
X2558Y-10389D01*
X2761Y-10390D01*
X2948Y-10312D01*
X3092Y-10169D01*
X3169Y-9981D01*
X3170Y-9779D01*
X3092Y-9591D01*
X2981Y-9479D01*
X3092Y-9369D01*
X3169Y-9181D01*
X3170Y-8979D01*
X3092Y-8791D01*
X2981Y-8679D01*
X3031Y-8630D01*
X3675Y-8630D01*
X3735Y-8654D01*
X3884Y-8655D01*
X4022Y-8598D01*
X4127Y-8492D01*
X4184Y-8354D01*
X4185Y-8205D01*
X4185Y-10333D01*
X4127Y-10390D01*
X4050Y-10578D01*
X4049Y-10781D01*
X4127Y-10968D01*
X4270Y-11112D01*
X4313Y-11129D01*
X4271Y-11147D01*
X4127Y-11290D01*
X4050Y-11478D01*
X4049Y-11681D01*
X4127Y-11868D01*
X4270Y-12012D01*
X4458Y-12089D01*
X4661Y-12090D01*
X4848Y-12012D01*
X4992Y-11869D01*
X5069Y-11681D01*
X5070Y-11479D01*
X5070Y-13979D01*
X5050Y-13999D01*
X4985Y-14155D01*
X4985Y-14324D01*
X5049Y-14480D01*
X5169Y-14600D01*
X5325Y-14665D01*
X5494Y-14665D01*
X5650Y-14600D01*
X5770Y-14481D01*
X5835Y-14325D01*
X5835Y-14155D01*
X5835Y-17043D01*
X5814Y-16991D01*
X5694Y-16872D01*
X5538Y-16807D01*
X5369Y-16807D01*
X5213Y-16871D01*
X5093Y-16991D01*
X5070Y-17047D01*
X5070Y-14799D01*
X4992Y-14611D01*
X4849Y-14467D01*
X4661Y-14390D01*
X4459Y-14389D01*
X4271Y-14467D01*
X4127Y-14610D01*
X4050Y-14798D01*
X4049Y-15001D01*
X4127Y-15188D01*
X4270Y-15332D01*
X4377Y-15376D01*
X4304Y-15406D01*
X4281Y-15486D01*
X4560Y-15764D01*
X4838Y-15486D01*
X4815Y-15406D01*
X4741Y-15376D01*
X4848Y-15332D01*
X4992Y-15189D01*
X5069Y-15001D01*
X5070Y-14799D01*
X5070Y-17047D01*
X5028Y-17147D01*
X5028Y-17316D01*
X5093Y-17472D01*
X5103Y-17483D01*
X5103Y-18248D01*
X5093Y-18258D01*
X5028Y-18415D01*
X5028Y-18584D01*
X5093Y-18740D01*
X5212Y-18860D01*
X5368Y-18924D01*
X5537Y-18925D01*
X5694Y-18860D01*
X5813Y-18741D01*
X5878Y-18584D01*
X5878Y-18415D01*
X5878Y-20710D01*
X4870Y-20710D01*
X4992Y-20589D01*
X5069Y-20401D01*
X5070Y-20199D01*
X4992Y-20011D01*
X4849Y-19867D01*
X4806Y-19850D01*
X4848Y-19832D01*
X4992Y-19689D01*
X5069Y-19501D01*
X5070Y-19299D01*
X5021Y-19180D01*
X5021Y-15885D01*
X5018Y-15702D01*
X4953Y-15544D01*
X4873Y-15521D01*
X4595Y-15800D01*
X4873Y-16078D01*
X4953Y-16055D01*
X5021Y-15885D01*
X5021Y-19180D01*
X4992Y-19111D01*
X4849Y-18967D01*
X4838Y-18963D01*
X4838Y-16113D01*
X4560Y-15835D01*
X4524Y-15870D01*
X4524Y-15800D01*
X4246Y-15521D01*
X4166Y-15544D01*
X4098Y-15714D01*
X4101Y-15897D01*
X4166Y-16055D01*
X4246Y-16078D01*
X4524Y-15800D01*
X4524Y-15870D01*
X4281Y-16113D01*
X4304Y-16193D01*
X4474Y-16261D01*
X4657Y-16258D01*
X4815Y-16193D01*
X4838Y-16113D01*
X4838Y-18963D01*
X4661Y-18890D01*
X4544Y-18889D01*
X4544Y-18356D01*
X4479Y-18200D01*
X4469Y-18189D01*
X4469Y-17566D01*
X4479Y-17556D01*
X4543Y-17399D01*
X4544Y-17230D01*
X4479Y-17074D01*
X4360Y-16954D01*
X4203Y-16890D01*
X4034Y-16889D01*
X4016Y-16897D01*
X3959Y-16759D01*
X3840Y-16639D01*
X3684Y-16575D01*
X3515Y-16574D01*
X3358Y-16639D01*
X3348Y-16650D01*
X3121Y-16650D01*
X3121Y-16285D01*
X3118Y-16102D01*
X3053Y-15944D01*
X2973Y-15921D01*
X2938Y-15957D01*
X2938Y-15886D01*
X2915Y-15806D01*
X2745Y-15738D01*
X2562Y-15741D01*
X2404Y-15806D01*
X2404Y-13210D01*
X2404Y-13111D01*
X2404Y-12481D01*
X2366Y-12389D01*
X2296Y-12319D01*
X2204Y-12281D01*
X2105Y-12281D01*
X1475Y-12281D01*
X1383Y-12319D01*
X1313Y-12389D01*
X1275Y-12481D01*
X1275Y-12581D01*
X1275Y-13210D01*
X1313Y-13302D01*
X1383Y-13373D01*
X1388Y-13375D01*
X1324Y-13535D01*
X1325Y-13740D01*
X1401Y-13921D01*
X1486Y-13951D01*
X1804Y-13633D01*
X1799Y-13628D01*
X1834Y-13592D01*
X1840Y-13598D01*
X1845Y-13592D01*
X1880Y-13628D01*
X1875Y-13633D01*
X2193Y-13951D01*
X2278Y-13921D01*
X2355Y-13731D01*
X2354Y-13526D01*
X2291Y-13375D01*
X2296Y-13373D01*
X2366Y-13302D01*
X2404Y-13210D01*
X2404Y-15806D01*
X2404Y-15806D01*
X2381Y-15886D01*
X2660Y-16164D01*
X2938Y-15886D01*
X2938Y-15957D01*
X2695Y-16200D01*
X2973Y-16478D01*
X3053Y-16455D01*
X3121Y-16285D01*
X3121Y-16650D01*
X3031Y-16650D01*
X2949Y-16567D01*
X2925Y-16557D01*
X2938Y-16513D01*
X2660Y-16235D01*
X2654Y-16240D01*
X2619Y-16205D01*
X2624Y-16200D01*
X2346Y-15921D01*
X2266Y-15944D01*
X2198Y-16114D01*
X2199Y-16200D01*
X2157Y-16183D01*
X2157Y-13986D01*
X1840Y-13669D01*
X1522Y-13986D01*
X1551Y-14072D01*
X1741Y-14149D01*
X1946Y-14147D01*
X2128Y-14072D01*
X2157Y-13986D01*
X2157Y-16183D01*
X2045Y-16138D01*
X1862Y-16141D01*
X1704Y-16206D01*
X1681Y-16286D01*
X1960Y-16564D01*
X1965Y-16559D01*
X2000Y-16594D01*
X1995Y-16600D01*
X2000Y-16605D01*
X1965Y-16640D01*
X1960Y-16635D01*
X1924Y-16670D01*
X1924Y-16600D01*
X1646Y-16321D01*
X1566Y-16344D01*
X1498Y-16514D01*
X1501Y-16697D01*
X1566Y-16855D01*
X1646Y-16878D01*
X1924Y-16600D01*
X1924Y-16670D01*
X1681Y-16913D01*
X1694Y-16957D01*
X1671Y-16967D01*
X1527Y-17110D01*
X1450Y-17298D01*
X1449Y-17501D01*
X1527Y-17688D01*
X1638Y-17800D01*
X1527Y-17910D01*
X1450Y-18098D01*
X1449Y-18301D01*
X1527Y-18488D01*
X1638Y-18600D01*
X1527Y-18710D01*
X1450Y-18898D01*
X1449Y-19101D01*
X1527Y-19288D01*
X1670Y-19432D01*
X1858Y-19509D01*
X2061Y-19510D01*
X2248Y-19432D01*
X2392Y-19289D01*
X2469Y-19101D01*
X2469Y-19073D01*
X2558Y-19109D01*
X2761Y-19110D01*
X2948Y-19032D01*
X3092Y-18889D01*
X3169Y-18701D01*
X3170Y-18499D01*
X3092Y-18311D01*
X2981Y-18199D01*
X3092Y-18089D01*
X3169Y-17901D01*
X3170Y-17699D01*
X3092Y-17511D01*
X2981Y-17399D01*
X3031Y-17350D01*
X3348Y-17350D01*
X3358Y-17360D01*
X3514Y-17424D01*
X3683Y-17425D01*
X3701Y-17417D01*
X3758Y-17555D01*
X3769Y-17565D01*
X3769Y-18189D01*
X3758Y-18199D01*
X3694Y-18356D01*
X3693Y-18525D01*
X3758Y-18681D01*
X3877Y-18801D01*
X4034Y-18865D01*
X4203Y-18866D01*
X4359Y-18801D01*
X4479Y-18682D01*
X4543Y-18525D01*
X4544Y-18356D01*
X4544Y-18889D01*
X4459Y-18889D01*
X4271Y-18967D01*
X4127Y-19110D01*
X4050Y-19298D01*
X4049Y-19501D01*
X4127Y-19688D01*
X4270Y-19832D01*
X4313Y-19849D01*
X4271Y-19867D01*
X4127Y-20010D01*
X4050Y-20198D01*
X4049Y-20401D01*
X4127Y-20588D01*
X4249Y-20710D01*
X1608Y-20710D01*
X1714Y-20604D01*
X1849Y-20277D01*
X1850Y-19923D01*
X1714Y-19596D01*
X1464Y-19345D01*
X1137Y-19210D01*
X783Y-19209D01*
X456Y-19345D01*
X289Y-19511D01*
X289Y-15687D01*
X455Y-15854D01*
X782Y-15989D01*
X1136Y-15990D01*
X1463Y-15854D01*
X1714Y-15604D01*
X1849Y-15277D01*
X1850Y-14923D01*
X1714Y-14596D01*
X1464Y-14345D01*
X1137Y-14210D01*
X783Y-14209D01*
X456Y-14345D01*
X289Y-14511D01*
X289Y-11967D01*
X455Y-12134D01*
X782Y-12269D01*
X1136Y-12270D01*
X1463Y-12134D01*
X1714Y-11884D01*
X1849Y-11557D01*
X1850Y-11203D01*
X1714Y-10876D01*
X1464Y-10625D01*
X1137Y-10490D01*
X783Y-10489D01*
X456Y-10625D01*
X289Y-10791D01*
X289Y-6967D01*
X455Y-7134D01*
X782Y-7269D01*
X1136Y-7270D01*
X1463Y-7134D01*
X1714Y-6884D01*
X1849Y-6557D01*
X1850Y-6203D01*
X1714Y-5876D01*
X1464Y-5625D01*
X1137Y-5490D01*
X783Y-5489D01*
X456Y-5625D01*
X289Y-5791D01*
X289Y-528D01*
X310Y-421D01*
X355Y-355D01*
X421Y-310D01*
X528Y-289D01*
X25531Y-289D01*
X25638Y-310D01*
X25704Y-355D01*
X25749Y-421D01*
X25770Y-528D01*
X25770Y-5000D01*
X25792Y-5110D01*
X25855Y-5204D01*
X26770Y-6119D01*
X26770Y-18880D01*
M02*
