G04 #@! TF.FileFunction,Legend,Top*
%FSLAX46Y46*%
G04 Gerber Fmt 4.6, Leading zero omitted, Abs format (unit mm)*
G04 Created by KiCad (PCBNEW (2014-jul-16 BZR unknown)-product) date Ter 09 Dez 2014 18:00:34 BRST*
%MOMM*%
G01*
G04 APERTURE LIST*
%ADD10C,0.150000*%
%ADD11C,0.152400*%
%ADD12C,0.508000*%
%ADD13C,0.177800*%
%ADD14C,0.254000*%
%ADD15C,0.099060*%
%ADD16C,0.200000*%
%ADD17C,0.190500*%
%ADD18C,0.203200*%
%ADD19C,0.078740*%
%ADD20C,0.127000*%
%ADD21C,0.010000*%
G04 APERTURE END LIST*
D10*
D11*
X62737115Y-52857000D02*
X63099972Y-52857000D01*
X62664543Y-53074714D02*
X62918543Y-52312714D01*
X63172543Y-53074714D01*
X63426544Y-53074714D02*
X63426544Y-52312714D01*
X63607972Y-52312714D01*
X63716829Y-52349000D01*
X63789401Y-52421571D01*
X63825686Y-52494143D01*
X63861972Y-52639286D01*
X63861972Y-52748143D01*
X63825686Y-52893286D01*
X63789401Y-52965857D01*
X63716829Y-53038429D01*
X63607972Y-53074714D01*
X63426544Y-53074714D01*
X64551401Y-52312714D02*
X64188544Y-52312714D01*
X64152258Y-52675571D01*
X64188544Y-52639286D01*
X64261115Y-52603000D01*
X64442544Y-52603000D01*
X64515115Y-52639286D01*
X64551401Y-52675571D01*
X64587686Y-52748143D01*
X64587686Y-52929571D01*
X64551401Y-53002143D01*
X64515115Y-53038429D01*
X64442544Y-53074714D01*
X64261115Y-53074714D01*
X64188544Y-53038429D01*
X64152258Y-53002143D01*
X60187115Y-52857000D02*
X60549972Y-52857000D01*
X60114543Y-53074714D02*
X60368543Y-52312714D01*
X60622543Y-53074714D01*
X60876544Y-53074714D02*
X60876544Y-52312714D01*
X61057972Y-52312714D01*
X61166829Y-52349000D01*
X61239401Y-52421571D01*
X61275686Y-52494143D01*
X61311972Y-52639286D01*
X61311972Y-52748143D01*
X61275686Y-52893286D01*
X61239401Y-52965857D01*
X61166829Y-53038429D01*
X61057972Y-53074714D01*
X60876544Y-53074714D01*
X61965115Y-52566714D02*
X61965115Y-53074714D01*
X61783686Y-52276429D02*
X61602258Y-52820714D01*
X62073972Y-52820714D01*
X57647115Y-52857000D02*
X58009972Y-52857000D01*
X57574543Y-53074714D02*
X57828543Y-52312714D01*
X58082543Y-53074714D01*
X58336544Y-53074714D02*
X58336544Y-52312714D01*
X58517972Y-52312714D01*
X58626829Y-52349000D01*
X58699401Y-52421571D01*
X58735686Y-52494143D01*
X58771972Y-52639286D01*
X58771972Y-52748143D01*
X58735686Y-52893286D01*
X58699401Y-52965857D01*
X58626829Y-53038429D01*
X58517972Y-53074714D01*
X58336544Y-53074714D01*
X59025972Y-52312714D02*
X59497686Y-52312714D01*
X59243686Y-52603000D01*
X59352544Y-52603000D01*
X59425115Y-52639286D01*
X59461401Y-52675571D01*
X59497686Y-52748143D01*
X59497686Y-52929571D01*
X59461401Y-53002143D01*
X59425115Y-53038429D01*
X59352544Y-53074714D01*
X59134829Y-53074714D01*
X59062258Y-53038429D01*
X59025972Y-53002143D01*
X55117115Y-52857000D02*
X55479972Y-52857000D01*
X55044543Y-53074714D02*
X55298543Y-52312714D01*
X55552543Y-53074714D01*
X55806544Y-53074714D02*
X55806544Y-52312714D01*
X55987972Y-52312714D01*
X56096829Y-52349000D01*
X56169401Y-52421571D01*
X56205686Y-52494143D01*
X56241972Y-52639286D01*
X56241972Y-52748143D01*
X56205686Y-52893286D01*
X56169401Y-52965857D01*
X56096829Y-53038429D01*
X55987972Y-53074714D01*
X55806544Y-53074714D01*
X56532258Y-52385286D02*
X56568544Y-52349000D01*
X56641115Y-52312714D01*
X56822544Y-52312714D01*
X56895115Y-52349000D01*
X56931401Y-52385286D01*
X56967686Y-52457857D01*
X56967686Y-52530429D01*
X56931401Y-52639286D01*
X56495972Y-53074714D01*
X56967686Y-53074714D01*
X52567115Y-52857000D02*
X52929972Y-52857000D01*
X52494543Y-53074714D02*
X52748543Y-52312714D01*
X53002543Y-53074714D01*
X53256544Y-53074714D02*
X53256544Y-52312714D01*
X53437972Y-52312714D01*
X53546829Y-52349000D01*
X53619401Y-52421571D01*
X53655686Y-52494143D01*
X53691972Y-52639286D01*
X53691972Y-52748143D01*
X53655686Y-52893286D01*
X53619401Y-52965857D01*
X53546829Y-53038429D01*
X53437972Y-53074714D01*
X53256544Y-53074714D01*
X54417686Y-53074714D02*
X53982258Y-53074714D01*
X54199972Y-53074714D02*
X54199972Y-52312714D01*
X54127401Y-52421571D01*
X54054829Y-52494143D01*
X53982258Y-52530429D01*
X49997115Y-52857000D02*
X50359972Y-52857000D01*
X49924543Y-53074714D02*
X50178543Y-52312714D01*
X50432543Y-53074714D01*
X50686544Y-53074714D02*
X50686544Y-52312714D01*
X50867972Y-52312714D01*
X50976829Y-52349000D01*
X51049401Y-52421571D01*
X51085686Y-52494143D01*
X51121972Y-52639286D01*
X51121972Y-52748143D01*
X51085686Y-52893286D01*
X51049401Y-52965857D01*
X50976829Y-53038429D01*
X50867972Y-53074714D01*
X50686544Y-53074714D01*
X51593686Y-52312714D02*
X51666258Y-52312714D01*
X51738829Y-52349000D01*
X51775115Y-52385286D01*
X51811401Y-52457857D01*
X51847686Y-52603000D01*
X51847686Y-52784429D01*
X51811401Y-52929571D01*
X51775115Y-53002143D01*
X51738829Y-53038429D01*
X51666258Y-53074714D01*
X51593686Y-53074714D01*
X51521115Y-53038429D01*
X51484829Y-53002143D01*
X51448544Y-52929571D01*
X51412258Y-52784429D01*
X51412258Y-52603000D01*
X51448544Y-52457857D01*
X51484829Y-52385286D01*
X51521115Y-52349000D01*
X51593686Y-52312714D01*
X45057828Y-52312714D02*
X45311828Y-53074714D01*
X45565828Y-52312714D01*
X45819829Y-53074714D02*
X45819829Y-52312714D01*
X46182686Y-53074714D02*
X46182686Y-52312714D01*
X46618114Y-53074714D01*
X46618114Y-52312714D01*
X42761828Y-52349000D02*
X42689257Y-52312714D01*
X42580400Y-52312714D01*
X42471543Y-52349000D01*
X42398971Y-52421571D01*
X42362686Y-52494143D01*
X42326400Y-52639286D01*
X42326400Y-52748143D01*
X42362686Y-52893286D01*
X42398971Y-52965857D01*
X42471543Y-53038429D01*
X42580400Y-53074714D01*
X42652971Y-53074714D01*
X42761828Y-53038429D01*
X42798114Y-53002143D01*
X42798114Y-52748143D01*
X42652971Y-52748143D01*
X43124686Y-53074714D02*
X43124686Y-52312714D01*
X43560114Y-53074714D01*
X43560114Y-52312714D01*
X43922972Y-53074714D02*
X43922972Y-52312714D01*
X44104400Y-52312714D01*
X44213257Y-52349000D01*
X44285829Y-52421571D01*
X44322114Y-52494143D01*
X44358400Y-52639286D01*
X44358400Y-52748143D01*
X44322114Y-52893286D01*
X44285829Y-52965857D01*
X44213257Y-53038429D01*
X44104400Y-53074714D01*
X43922972Y-53074714D01*
X40201828Y-52349000D02*
X40129257Y-52312714D01*
X40020400Y-52312714D01*
X39911543Y-52349000D01*
X39838971Y-52421571D01*
X39802686Y-52494143D01*
X39766400Y-52639286D01*
X39766400Y-52748143D01*
X39802686Y-52893286D01*
X39838971Y-52965857D01*
X39911543Y-53038429D01*
X40020400Y-53074714D01*
X40092971Y-53074714D01*
X40201828Y-53038429D01*
X40238114Y-53002143D01*
X40238114Y-52748143D01*
X40092971Y-52748143D01*
X40564686Y-53074714D02*
X40564686Y-52312714D01*
X41000114Y-53074714D01*
X41000114Y-52312714D01*
X41362972Y-53074714D02*
X41362972Y-52312714D01*
X41544400Y-52312714D01*
X41653257Y-52349000D01*
X41725829Y-52421571D01*
X41762114Y-52494143D01*
X41798400Y-52639286D01*
X41798400Y-52748143D01*
X41762114Y-52893286D01*
X41725829Y-52965857D01*
X41653257Y-53038429D01*
X41544400Y-53074714D01*
X41362972Y-53074714D01*
X38107258Y-52312714D02*
X37744401Y-52312714D01*
X37708115Y-52675571D01*
X37744401Y-52639286D01*
X37816972Y-52603000D01*
X37998401Y-52603000D01*
X38070972Y-52639286D01*
X38107258Y-52675571D01*
X38143543Y-52748143D01*
X38143543Y-52929571D01*
X38107258Y-53002143D01*
X38070972Y-53038429D01*
X37998401Y-53074714D01*
X37816972Y-53074714D01*
X37744401Y-53038429D01*
X37708115Y-53002143D01*
X38361257Y-52312714D02*
X38615257Y-53074714D01*
X38869257Y-52312714D01*
X34597543Y-52312714D02*
X35069257Y-52312714D01*
X34815257Y-52603000D01*
X34924115Y-52603000D01*
X34996686Y-52639286D01*
X35032972Y-52675571D01*
X35069257Y-52748143D01*
X35069257Y-52929571D01*
X35032972Y-53002143D01*
X34996686Y-53038429D01*
X34924115Y-53074714D01*
X34706400Y-53074714D01*
X34633829Y-53038429D01*
X34597543Y-53002143D01*
X35395829Y-53002143D02*
X35432114Y-53038429D01*
X35395829Y-53074714D01*
X35359543Y-53038429D01*
X35395829Y-53002143D01*
X35395829Y-53074714D01*
X35686114Y-52312714D02*
X36157828Y-52312714D01*
X35903828Y-52603000D01*
X36012686Y-52603000D01*
X36085257Y-52639286D01*
X36121543Y-52675571D01*
X36157828Y-52748143D01*
X36157828Y-52929571D01*
X36121543Y-53002143D01*
X36085257Y-53038429D01*
X36012686Y-53074714D01*
X35794971Y-53074714D01*
X35722400Y-53038429D01*
X35686114Y-53002143D01*
X36375542Y-52312714D02*
X36629542Y-53074714D01*
X36883542Y-52312714D01*
X32765115Y-53074714D02*
X32511115Y-52711857D01*
X32329687Y-53074714D02*
X32329687Y-52312714D01*
X32619972Y-52312714D01*
X32692544Y-52349000D01*
X32728829Y-52385286D01*
X32765115Y-52457857D01*
X32765115Y-52566714D01*
X32728829Y-52639286D01*
X32692544Y-52675571D01*
X32619972Y-52711857D01*
X32329687Y-52711857D01*
X33055401Y-53038429D02*
X33164258Y-53074714D01*
X33345687Y-53074714D01*
X33418258Y-53038429D01*
X33454544Y-53002143D01*
X33490829Y-52929571D01*
X33490829Y-52857000D01*
X33454544Y-52784429D01*
X33418258Y-52748143D01*
X33345687Y-52711857D01*
X33200544Y-52675571D01*
X33127972Y-52639286D01*
X33091687Y-52603000D01*
X33055401Y-52530429D01*
X33055401Y-52457857D01*
X33091687Y-52385286D01*
X33127972Y-52349000D01*
X33200544Y-52312714D01*
X33381972Y-52312714D01*
X33490829Y-52349000D01*
X33708543Y-52312714D02*
X34143972Y-52312714D01*
X33926258Y-53074714D02*
X33926258Y-52312714D01*
X28635828Y-52312714D02*
X28889828Y-53074714D01*
X29143828Y-52312714D01*
X29833257Y-53002143D02*
X29796971Y-53038429D01*
X29688114Y-53074714D01*
X29615543Y-53074714D01*
X29506686Y-53038429D01*
X29434114Y-52965857D01*
X29397829Y-52893286D01*
X29361543Y-52748143D01*
X29361543Y-52639286D01*
X29397829Y-52494143D01*
X29434114Y-52421571D01*
X29506686Y-52349000D01*
X29615543Y-52312714D01*
X29688114Y-52312714D01*
X29796971Y-52349000D01*
X29833257Y-52385286D01*
X30595257Y-53002143D02*
X30558971Y-53038429D01*
X30450114Y-53074714D01*
X30377543Y-53074714D01*
X30268686Y-53038429D01*
X30196114Y-52965857D01*
X30159829Y-52893286D01*
X30123543Y-52748143D01*
X30123543Y-52639286D01*
X30159829Y-52494143D01*
X30196114Y-52421571D01*
X30268686Y-52349000D01*
X30377543Y-52312714D01*
X30450114Y-52312714D01*
X30558971Y-52349000D01*
X30595257Y-52385286D01*
X30921829Y-53074714D02*
X30921829Y-52312714D01*
X31429828Y-52312714D02*
X31574971Y-52312714D01*
X31647543Y-52349000D01*
X31720114Y-52421571D01*
X31756400Y-52566714D01*
X31756400Y-52820714D01*
X31720114Y-52965857D01*
X31647543Y-53038429D01*
X31574971Y-53074714D01*
X31429828Y-53074714D01*
X31357257Y-53038429D01*
X31284686Y-52965857D01*
X31248400Y-52820714D01*
X31248400Y-52566714D01*
X31284686Y-52421571D01*
X31357257Y-52349000D01*
X31429828Y-52312714D01*
X63565400Y-1004714D02*
X63311400Y-641857D01*
X63129972Y-1004714D02*
X63129972Y-242714D01*
X63420257Y-242714D01*
X63492829Y-279000D01*
X63529114Y-315286D01*
X63565400Y-387857D01*
X63565400Y-496714D01*
X63529114Y-569286D01*
X63492829Y-605571D01*
X63420257Y-641857D01*
X63129972Y-641857D01*
X63819400Y-242714D02*
X64327400Y-1004714D01*
X64327400Y-242714D02*
X63819400Y-1004714D01*
X60541829Y-242714D02*
X60977258Y-242714D01*
X60759544Y-1004714D02*
X60759544Y-242714D01*
X61158686Y-242714D02*
X61666686Y-1004714D01*
X61666686Y-242714D02*
X61158686Y-1004714D01*
X57800401Y-1004714D02*
X57800401Y-242714D01*
X58308400Y-242714D02*
X58453543Y-242714D01*
X58526115Y-279000D01*
X58598686Y-351571D01*
X58634972Y-496714D01*
X58634972Y-750714D01*
X58598686Y-895857D01*
X58526115Y-968429D01*
X58453543Y-1004714D01*
X58308400Y-1004714D01*
X58235829Y-968429D01*
X58163258Y-895857D01*
X58126972Y-750714D01*
X58126972Y-496714D01*
X58163258Y-351571D01*
X58235829Y-279000D01*
X58308400Y-242714D01*
X58888972Y-242714D02*
X59360686Y-242714D01*
X59106686Y-533000D01*
X59215544Y-533000D01*
X59288115Y-569286D01*
X59324401Y-605571D01*
X59360686Y-678143D01*
X59360686Y-859571D01*
X59324401Y-932143D01*
X59288115Y-968429D01*
X59215544Y-1004714D01*
X58997829Y-1004714D01*
X58925258Y-968429D01*
X58888972Y-932143D01*
X55270401Y-1004714D02*
X55270401Y-242714D01*
X55778400Y-242714D02*
X55923543Y-242714D01*
X55996115Y-279000D01*
X56068686Y-351571D01*
X56104972Y-496714D01*
X56104972Y-750714D01*
X56068686Y-895857D01*
X55996115Y-968429D01*
X55923543Y-1004714D01*
X55778400Y-1004714D01*
X55705829Y-968429D01*
X55633258Y-895857D01*
X55596972Y-750714D01*
X55596972Y-496714D01*
X55633258Y-351571D01*
X55705829Y-279000D01*
X55778400Y-242714D01*
X56758115Y-496714D02*
X56758115Y-1004714D01*
X56576686Y-206429D02*
X56395258Y-750714D01*
X56866972Y-750714D01*
X52740401Y-1004714D02*
X52740401Y-242714D01*
X53248400Y-242714D02*
X53393543Y-242714D01*
X53466115Y-279000D01*
X53538686Y-351571D01*
X53574972Y-496714D01*
X53574972Y-750714D01*
X53538686Y-895857D01*
X53466115Y-968429D01*
X53393543Y-1004714D01*
X53248400Y-1004714D01*
X53175829Y-968429D01*
X53103258Y-895857D01*
X53066972Y-750714D01*
X53066972Y-496714D01*
X53103258Y-351571D01*
X53175829Y-279000D01*
X53248400Y-242714D01*
X54264401Y-242714D02*
X53901544Y-242714D01*
X53865258Y-605571D01*
X53901544Y-569286D01*
X53974115Y-533000D01*
X54155544Y-533000D01*
X54228115Y-569286D01*
X54264401Y-605571D01*
X54300686Y-678143D01*
X54300686Y-859571D01*
X54264401Y-932143D01*
X54228115Y-968429D01*
X54155544Y-1004714D01*
X53974115Y-1004714D01*
X53901544Y-968429D01*
X53865258Y-932143D01*
X50190401Y-1004714D02*
X50190401Y-242714D01*
X50698400Y-242714D02*
X50843543Y-242714D01*
X50916115Y-279000D01*
X50988686Y-351571D01*
X51024972Y-496714D01*
X51024972Y-750714D01*
X50988686Y-895857D01*
X50916115Y-968429D01*
X50843543Y-1004714D01*
X50698400Y-1004714D01*
X50625829Y-968429D01*
X50553258Y-895857D01*
X50516972Y-750714D01*
X50516972Y-496714D01*
X50553258Y-351571D01*
X50625829Y-279000D01*
X50698400Y-242714D01*
X51714401Y-242714D02*
X51351544Y-242714D01*
X51315258Y-605571D01*
X51351544Y-569286D01*
X51424115Y-533000D01*
X51605544Y-533000D01*
X51678115Y-569286D01*
X51714401Y-605571D01*
X51750686Y-678143D01*
X51750686Y-859571D01*
X51714401Y-932143D01*
X51678115Y-968429D01*
X51605544Y-1004714D01*
X51424115Y-1004714D01*
X51351544Y-968429D01*
X51315258Y-932143D01*
X47670401Y-1004714D02*
X47670401Y-242714D01*
X48178400Y-242714D02*
X48323543Y-242714D01*
X48396115Y-279000D01*
X48468686Y-351571D01*
X48504972Y-496714D01*
X48504972Y-750714D01*
X48468686Y-895857D01*
X48396115Y-968429D01*
X48323543Y-1004714D01*
X48178400Y-1004714D01*
X48105829Y-968429D01*
X48033258Y-895857D01*
X47996972Y-750714D01*
X47996972Y-496714D01*
X48033258Y-351571D01*
X48105829Y-279000D01*
X48178400Y-242714D01*
X49158115Y-242714D02*
X49012972Y-242714D01*
X48940401Y-279000D01*
X48904115Y-315286D01*
X48831544Y-424143D01*
X48795258Y-569286D01*
X48795258Y-859571D01*
X48831544Y-932143D01*
X48867829Y-968429D01*
X48940401Y-1004714D01*
X49085544Y-1004714D01*
X49158115Y-968429D01*
X49194401Y-932143D01*
X49230686Y-859571D01*
X49230686Y-678143D01*
X49194401Y-605571D01*
X49158115Y-569286D01*
X49085544Y-533000D01*
X48940401Y-533000D01*
X48867829Y-569286D01*
X48831544Y-605571D01*
X48795258Y-678143D01*
X45110401Y-1004714D02*
X45110401Y-242714D01*
X45618400Y-242714D02*
X45763543Y-242714D01*
X45836115Y-279000D01*
X45908686Y-351571D01*
X45944972Y-496714D01*
X45944972Y-750714D01*
X45908686Y-895857D01*
X45836115Y-968429D01*
X45763543Y-1004714D01*
X45618400Y-1004714D01*
X45545829Y-968429D01*
X45473258Y-895857D01*
X45436972Y-750714D01*
X45436972Y-496714D01*
X45473258Y-351571D01*
X45545829Y-279000D01*
X45618400Y-242714D01*
X46198972Y-242714D02*
X46706972Y-242714D01*
X46380401Y-1004714D01*
X41070401Y-1014714D02*
X41070401Y-252714D01*
X41578400Y-252714D02*
X41723543Y-252714D01*
X41796115Y-289000D01*
X41868686Y-361571D01*
X41904972Y-506714D01*
X41904972Y-760714D01*
X41868686Y-905857D01*
X41796115Y-978429D01*
X41723543Y-1014714D01*
X41578400Y-1014714D01*
X41505829Y-978429D01*
X41433258Y-905857D01*
X41396972Y-760714D01*
X41396972Y-506714D01*
X41433258Y-361571D01*
X41505829Y-289000D01*
X41578400Y-252714D01*
X42340401Y-579286D02*
X42267829Y-543000D01*
X42231544Y-506714D01*
X42195258Y-434143D01*
X42195258Y-397857D01*
X42231544Y-325286D01*
X42267829Y-289000D01*
X42340401Y-252714D01*
X42485544Y-252714D01*
X42558115Y-289000D01*
X42594401Y-325286D01*
X42630686Y-397857D01*
X42630686Y-434143D01*
X42594401Y-506714D01*
X42558115Y-543000D01*
X42485544Y-579286D01*
X42340401Y-579286D01*
X42267829Y-615571D01*
X42231544Y-651857D01*
X42195258Y-724429D01*
X42195258Y-869571D01*
X42231544Y-942143D01*
X42267829Y-978429D01*
X42340401Y-1014714D01*
X42485544Y-1014714D01*
X42558115Y-978429D01*
X42594401Y-942143D01*
X42630686Y-869571D01*
X42630686Y-724429D01*
X42594401Y-651857D01*
X42558115Y-615571D01*
X42485544Y-579286D01*
X38510401Y-1004714D02*
X38510401Y-242714D01*
X39018400Y-242714D02*
X39163543Y-242714D01*
X39236115Y-279000D01*
X39308686Y-351571D01*
X39344972Y-496714D01*
X39344972Y-750714D01*
X39308686Y-895857D01*
X39236115Y-968429D01*
X39163543Y-1004714D01*
X39018400Y-1004714D01*
X38945829Y-968429D01*
X38873258Y-895857D01*
X38836972Y-750714D01*
X38836972Y-496714D01*
X38873258Y-351571D01*
X38945829Y-279000D01*
X39018400Y-242714D01*
X39707829Y-1004714D02*
X39852972Y-1004714D01*
X39925544Y-968429D01*
X39961829Y-932143D01*
X40034401Y-823286D01*
X40070686Y-678143D01*
X40070686Y-387857D01*
X40034401Y-315286D01*
X39998115Y-279000D01*
X39925544Y-242714D01*
X39780401Y-242714D01*
X39707829Y-279000D01*
X39671544Y-315286D01*
X39635258Y-387857D01*
X39635258Y-569286D01*
X39671544Y-641857D01*
X39707829Y-678143D01*
X39780401Y-714429D01*
X39925544Y-714429D01*
X39998115Y-678143D01*
X40034401Y-641857D01*
X40070686Y-569286D01*
X36461829Y-978429D02*
X36570686Y-1014714D01*
X36752115Y-1014714D01*
X36824686Y-978429D01*
X36860972Y-942143D01*
X36897257Y-869571D01*
X36897257Y-797000D01*
X36860972Y-724429D01*
X36824686Y-688143D01*
X36752115Y-651857D01*
X36606972Y-615571D01*
X36534400Y-579286D01*
X36498115Y-543000D01*
X36461829Y-470429D01*
X36461829Y-397857D01*
X36498115Y-325286D01*
X36534400Y-289000D01*
X36606972Y-252714D01*
X36788400Y-252714D01*
X36897257Y-289000D01*
X37187543Y-978429D02*
X37296400Y-1014714D01*
X37477829Y-1014714D01*
X37550400Y-978429D01*
X37586686Y-942143D01*
X37622971Y-869571D01*
X37622971Y-797000D01*
X37586686Y-724429D01*
X37550400Y-688143D01*
X37477829Y-651857D01*
X37332686Y-615571D01*
X37260114Y-579286D01*
X37223829Y-543000D01*
X37187543Y-470429D01*
X37187543Y-397857D01*
X37223829Y-325286D01*
X37260114Y-289000D01*
X37332686Y-252714D01*
X37514114Y-252714D01*
X37622971Y-289000D01*
X33524972Y-1004714D02*
X33524972Y-242714D01*
X33778972Y-787000D01*
X34032972Y-242714D01*
X34032972Y-1004714D01*
X34540971Y-242714D02*
X34686114Y-242714D01*
X34758686Y-279000D01*
X34831257Y-351571D01*
X34867543Y-496714D01*
X34867543Y-750714D01*
X34831257Y-895857D01*
X34758686Y-968429D01*
X34686114Y-1004714D01*
X34540971Y-1004714D01*
X34468400Y-968429D01*
X34395829Y-895857D01*
X34359543Y-750714D01*
X34359543Y-496714D01*
X34395829Y-351571D01*
X34468400Y-279000D01*
X34540971Y-242714D01*
X35157829Y-968429D02*
X35266686Y-1004714D01*
X35448115Y-1004714D01*
X35520686Y-968429D01*
X35556972Y-932143D01*
X35593257Y-859571D01*
X35593257Y-787000D01*
X35556972Y-714429D01*
X35520686Y-678143D01*
X35448115Y-641857D01*
X35302972Y-605571D01*
X35230400Y-569286D01*
X35194115Y-533000D01*
X35157829Y-460429D01*
X35157829Y-387857D01*
X35194115Y-315286D01*
X35230400Y-279000D01*
X35302972Y-242714D01*
X35484400Y-242714D01*
X35593257Y-279000D01*
X35919829Y-1004714D02*
X35919829Y-242714D01*
X30524972Y-1014714D02*
X30524972Y-252714D01*
X30778972Y-797000D01*
X31032972Y-252714D01*
X31032972Y-1014714D01*
X31395829Y-1014714D02*
X31395829Y-252714D01*
X31722400Y-978429D02*
X31831257Y-1014714D01*
X32012686Y-1014714D01*
X32085257Y-978429D01*
X32121543Y-942143D01*
X32157828Y-869571D01*
X32157828Y-797000D01*
X32121543Y-724429D01*
X32085257Y-688143D01*
X32012686Y-651857D01*
X31867543Y-615571D01*
X31794971Y-579286D01*
X31758686Y-543000D01*
X31722400Y-470429D01*
X31722400Y-397857D01*
X31758686Y-325286D01*
X31794971Y-289000D01*
X31867543Y-252714D01*
X32048971Y-252714D01*
X32157828Y-289000D01*
X32629542Y-252714D02*
X32774685Y-252714D01*
X32847257Y-289000D01*
X32919828Y-361571D01*
X32956114Y-506714D01*
X32956114Y-760714D01*
X32919828Y-905857D01*
X32847257Y-978429D01*
X32774685Y-1014714D01*
X32629542Y-1014714D01*
X32556971Y-978429D01*
X32484400Y-905857D01*
X32448114Y-760714D01*
X32448114Y-506714D01*
X32484400Y-361571D01*
X32556971Y-289000D01*
X32629542Y-252714D01*
X28022686Y-968429D02*
X28131543Y-1004714D01*
X28312972Y-1004714D01*
X28385543Y-968429D01*
X28421829Y-932143D01*
X28458114Y-859571D01*
X28458114Y-787000D01*
X28421829Y-714429D01*
X28385543Y-678143D01*
X28312972Y-641857D01*
X28167829Y-605571D01*
X28095257Y-569286D01*
X28058972Y-533000D01*
X28022686Y-460429D01*
X28022686Y-387857D01*
X28058972Y-315286D01*
X28095257Y-279000D01*
X28167829Y-242714D01*
X28349257Y-242714D01*
X28458114Y-279000D01*
X29220114Y-932143D02*
X29183828Y-968429D01*
X29074971Y-1004714D01*
X29002400Y-1004714D01*
X28893543Y-968429D01*
X28820971Y-895857D01*
X28784686Y-823286D01*
X28748400Y-678143D01*
X28748400Y-569286D01*
X28784686Y-424143D01*
X28820971Y-351571D01*
X28893543Y-279000D01*
X29002400Y-242714D01*
X29074971Y-242714D01*
X29183828Y-279000D01*
X29220114Y-315286D01*
X29546686Y-1004714D02*
X29546686Y-242714D01*
X29982114Y-1004714D02*
X29655543Y-569286D01*
X29982114Y-242714D02*
X29546686Y-678143D01*
X25981828Y-279000D02*
X25909257Y-242714D01*
X25800400Y-242714D01*
X25691543Y-279000D01*
X25618971Y-351571D01*
X25582686Y-424143D01*
X25546400Y-569286D01*
X25546400Y-678143D01*
X25582686Y-823286D01*
X25618971Y-895857D01*
X25691543Y-968429D01*
X25800400Y-1004714D01*
X25872971Y-1004714D01*
X25981828Y-968429D01*
X26018114Y-932143D01*
X26018114Y-678143D01*
X25872971Y-678143D01*
X26344686Y-1004714D02*
X26344686Y-242714D01*
X26780114Y-1004714D01*
X26780114Y-242714D01*
X27142972Y-1004714D02*
X27142972Y-242714D01*
X27324400Y-242714D01*
X27433257Y-279000D01*
X27505829Y-351571D01*
X27542114Y-424143D01*
X27578400Y-569286D01*
X27578400Y-678143D01*
X27542114Y-823286D01*
X27505829Y-895857D01*
X27433257Y-968429D01*
X27324400Y-1004714D01*
X27142972Y-1004714D01*
X22578686Y-787000D02*
X22941543Y-787000D01*
X22506114Y-1004714D02*
X22760114Y-242714D01*
X23014114Y-1004714D01*
X23703543Y-1004714D02*
X23449543Y-641857D01*
X23268115Y-1004714D02*
X23268115Y-242714D01*
X23558400Y-242714D01*
X23630972Y-279000D01*
X23667257Y-315286D01*
X23703543Y-387857D01*
X23703543Y-496714D01*
X23667257Y-569286D01*
X23630972Y-605571D01*
X23558400Y-641857D01*
X23268115Y-641857D01*
X24030115Y-605571D02*
X24284115Y-605571D01*
X24392972Y-1004714D02*
X24030115Y-1004714D01*
X24030115Y-242714D01*
X24392972Y-242714D01*
X24973544Y-605571D02*
X24719544Y-605571D01*
X24719544Y-1004714D02*
X24719544Y-242714D01*
X25082401Y-242714D01*
X20117115Y-968429D02*
X20225972Y-1004714D01*
X20407401Y-1004714D01*
X20479972Y-968429D01*
X20516258Y-932143D01*
X20552543Y-859571D01*
X20552543Y-787000D01*
X20516258Y-714429D01*
X20479972Y-678143D01*
X20407401Y-641857D01*
X20262258Y-605571D01*
X20189686Y-569286D01*
X20153401Y-533000D01*
X20117115Y-460429D01*
X20117115Y-387857D01*
X20153401Y-315286D01*
X20189686Y-279000D01*
X20262258Y-242714D01*
X20443686Y-242714D01*
X20552543Y-279000D01*
X20879115Y-1004714D02*
X20879115Y-242714D01*
X21060543Y-242714D01*
X21169400Y-279000D01*
X21241972Y-351571D01*
X21278257Y-424143D01*
X21314543Y-569286D01*
X21314543Y-678143D01*
X21278257Y-823286D01*
X21241972Y-895857D01*
X21169400Y-968429D01*
X21060543Y-1004714D01*
X20879115Y-1004714D01*
X21604829Y-787000D02*
X21967686Y-787000D01*
X21532257Y-1004714D02*
X21786257Y-242714D01*
X22040257Y-1004714D01*
X17735258Y-968429D02*
X17844115Y-1004714D01*
X18025544Y-1004714D01*
X18098115Y-968429D01*
X18134401Y-932143D01*
X18170686Y-859571D01*
X18170686Y-787000D01*
X18134401Y-714429D01*
X18098115Y-678143D01*
X18025544Y-641857D01*
X17880401Y-605571D01*
X17807829Y-569286D01*
X17771544Y-533000D01*
X17735258Y-460429D01*
X17735258Y-387857D01*
X17771544Y-315286D01*
X17807829Y-279000D01*
X17880401Y-242714D01*
X18061829Y-242714D01*
X18170686Y-279000D01*
X18932686Y-932143D02*
X18896400Y-968429D01*
X18787543Y-1004714D01*
X18714972Y-1004714D01*
X18606115Y-968429D01*
X18533543Y-895857D01*
X18497258Y-823286D01*
X18460972Y-678143D01*
X18460972Y-569286D01*
X18497258Y-424143D01*
X18533543Y-351571D01*
X18606115Y-279000D01*
X18714972Y-242714D01*
X18787543Y-242714D01*
X18896400Y-279000D01*
X18932686Y-315286D01*
X19622115Y-1004714D02*
X19259258Y-1004714D01*
X19259258Y-242714D01*
D12*
X57456383Y-12293600D02*
G75*
G03X57456383Y-12293600I-255583J0D01*
G01*
X11926567Y-3492500D02*
G75*
G03X11926567Y-3492500I-255267J0D01*
G01*
X65303400Y-1143000D02*
G75*
G03X65303400Y-1143000I-254000J0D01*
G01*
X43467217Y-1143000D02*
G75*
G03X43467217Y-1143000I-261817J0D01*
G01*
X26945561Y-52197000D02*
G75*
G03X26945561Y-52197000I-250161J0D01*
G01*
X49810983Y-52197000D02*
G75*
G03X49810983Y-52197000I-255583J0D01*
G01*
D13*
X32195105Y-8994019D02*
X32195105Y-7978019D01*
X32630533Y-8994019D02*
X32630533Y-8461829D01*
X32582152Y-8365067D01*
X32485390Y-8316686D01*
X32340248Y-8316686D01*
X32243486Y-8365067D01*
X32195105Y-8413448D01*
X32969200Y-8316686D02*
X33356248Y-8316686D01*
X33114343Y-7978019D02*
X33114343Y-8848876D01*
X33162724Y-8945638D01*
X33259486Y-8994019D01*
X33356248Y-8994019D01*
X33549771Y-8316686D02*
X33936819Y-8316686D01*
X33694914Y-7978019D02*
X33694914Y-8848876D01*
X33743295Y-8945638D01*
X33840057Y-8994019D01*
X33936819Y-8994019D01*
X34275485Y-8316686D02*
X34275485Y-9332686D01*
X34275485Y-8365067D02*
X34372247Y-8316686D01*
X34565770Y-8316686D01*
X34662532Y-8365067D01*
X34710913Y-8413448D01*
X34759294Y-8510210D01*
X34759294Y-8800495D01*
X34710913Y-8897257D01*
X34662532Y-8945638D01*
X34565770Y-8994019D01*
X34372247Y-8994019D01*
X34275485Y-8945638D01*
X35146342Y-8945638D02*
X35243104Y-8994019D01*
X35436628Y-8994019D01*
X35533389Y-8945638D01*
X35581770Y-8848876D01*
X35581770Y-8800495D01*
X35533389Y-8703733D01*
X35436628Y-8655352D01*
X35291485Y-8655352D01*
X35194723Y-8606971D01*
X35146342Y-8510210D01*
X35146342Y-8461829D01*
X35194723Y-8365067D01*
X35291485Y-8316686D01*
X35436628Y-8316686D01*
X35533389Y-8365067D01*
X36017199Y-8897257D02*
X36065580Y-8945638D01*
X36017199Y-8994019D01*
X35968818Y-8945638D01*
X36017199Y-8897257D01*
X36017199Y-8994019D01*
X36017199Y-8365067D02*
X36065580Y-8413448D01*
X36017199Y-8461829D01*
X35968818Y-8413448D01*
X36017199Y-8365067D01*
X36017199Y-8461829D01*
X37226723Y-7929638D02*
X36355866Y-9235924D01*
X38291104Y-7929638D02*
X37420247Y-9235924D01*
X39065199Y-8316686D02*
X39065199Y-9139162D01*
X39016818Y-9235924D01*
X38968437Y-9284305D01*
X38871676Y-9332686D01*
X38726533Y-9332686D01*
X38629771Y-9284305D01*
X39065199Y-8945638D02*
X38968437Y-8994019D01*
X38774914Y-8994019D01*
X38678152Y-8945638D01*
X38629771Y-8897257D01*
X38581390Y-8800495D01*
X38581390Y-8510210D01*
X38629771Y-8413448D01*
X38678152Y-8365067D01*
X38774914Y-8316686D01*
X38968437Y-8316686D01*
X39065199Y-8365067D01*
X39549009Y-8994019D02*
X39549009Y-8316686D01*
X39549009Y-7978019D02*
X39500628Y-8026400D01*
X39549009Y-8074781D01*
X39597390Y-8026400D01*
X39549009Y-7978019D01*
X39549009Y-8074781D01*
X39887676Y-8316686D02*
X40274724Y-8316686D01*
X40032819Y-7978019D02*
X40032819Y-8848876D01*
X40081200Y-8945638D01*
X40177962Y-8994019D01*
X40274724Y-8994019D01*
X40613390Y-8994019D02*
X40613390Y-7978019D01*
X41048818Y-8994019D02*
X41048818Y-8461829D01*
X41000437Y-8365067D01*
X40903675Y-8316686D01*
X40758533Y-8316686D01*
X40661771Y-8365067D01*
X40613390Y-8413448D01*
X41968056Y-8316686D02*
X41968056Y-8994019D01*
X41532628Y-8316686D02*
X41532628Y-8848876D01*
X41581009Y-8945638D01*
X41677771Y-8994019D01*
X41822913Y-8994019D01*
X41919675Y-8945638D01*
X41968056Y-8897257D01*
X42451866Y-8994019D02*
X42451866Y-7978019D01*
X42451866Y-8365067D02*
X42548628Y-8316686D01*
X42742151Y-8316686D01*
X42838913Y-8365067D01*
X42887294Y-8413448D01*
X42935675Y-8510210D01*
X42935675Y-8800495D01*
X42887294Y-8897257D01*
X42838913Y-8945638D01*
X42742151Y-8994019D01*
X42548628Y-8994019D01*
X42451866Y-8945638D01*
X43371104Y-8897257D02*
X43419485Y-8945638D01*
X43371104Y-8994019D01*
X43322723Y-8945638D01*
X43371104Y-8897257D01*
X43371104Y-8994019D01*
X44290342Y-8945638D02*
X44193580Y-8994019D01*
X44000057Y-8994019D01*
X43903295Y-8945638D01*
X43854914Y-8897257D01*
X43806533Y-8800495D01*
X43806533Y-8510210D01*
X43854914Y-8413448D01*
X43903295Y-8365067D01*
X44000057Y-8316686D01*
X44193580Y-8316686D01*
X44290342Y-8365067D01*
X44870914Y-8994019D02*
X44774152Y-8945638D01*
X44725771Y-8897257D01*
X44677390Y-8800495D01*
X44677390Y-8510210D01*
X44725771Y-8413448D01*
X44774152Y-8365067D01*
X44870914Y-8316686D01*
X45016056Y-8316686D01*
X45112818Y-8365067D01*
X45161199Y-8413448D01*
X45209580Y-8510210D01*
X45209580Y-8800495D01*
X45161199Y-8897257D01*
X45112818Y-8945638D01*
X45016056Y-8994019D01*
X44870914Y-8994019D01*
X45645009Y-8994019D02*
X45645009Y-8316686D01*
X45645009Y-8413448D02*
X45693390Y-8365067D01*
X45790152Y-8316686D01*
X45935294Y-8316686D01*
X46032056Y-8365067D01*
X46080437Y-8461829D01*
X46080437Y-8994019D01*
X46080437Y-8461829D02*
X46128818Y-8365067D01*
X46225580Y-8316686D01*
X46370723Y-8316686D01*
X46467485Y-8365067D01*
X46515866Y-8461829D01*
X46515866Y-8994019D01*
X47725390Y-7929638D02*
X46854533Y-9235924D01*
X48064057Y-8316686D02*
X48064057Y-9332686D01*
X48064057Y-8365067D02*
X48160819Y-8316686D01*
X48354342Y-8316686D01*
X48451104Y-8365067D01*
X48499485Y-8413448D01*
X48547866Y-8510210D01*
X48547866Y-8800495D01*
X48499485Y-8897257D01*
X48451104Y-8945638D01*
X48354342Y-8994019D01*
X48160819Y-8994019D01*
X48064057Y-8945638D01*
X49128438Y-8994019D02*
X49031676Y-8945638D01*
X48983295Y-8897257D01*
X48934914Y-8800495D01*
X48934914Y-8510210D01*
X48983295Y-8413448D01*
X49031676Y-8365067D01*
X49128438Y-8316686D01*
X49273580Y-8316686D01*
X49370342Y-8365067D01*
X49418723Y-8413448D01*
X49467104Y-8510210D01*
X49467104Y-8800495D01*
X49418723Y-8897257D01*
X49370342Y-8945638D01*
X49273580Y-8994019D01*
X49128438Y-8994019D01*
X49902533Y-8994019D02*
X49902533Y-8316686D01*
X49902533Y-8510210D02*
X49950914Y-8413448D01*
X49999295Y-8365067D01*
X50096057Y-8316686D01*
X50192818Y-8316686D01*
X50386342Y-8316686D02*
X50773390Y-8316686D01*
X50531485Y-7978019D02*
X50531485Y-8848876D01*
X50579866Y-8945638D01*
X50676628Y-8994019D01*
X50773390Y-8994019D01*
X51547484Y-8994019D02*
X51547484Y-8461829D01*
X51499103Y-8365067D01*
X51402341Y-8316686D01*
X51208818Y-8316686D01*
X51112056Y-8365067D01*
X51547484Y-8945638D02*
X51450722Y-8994019D01*
X51208818Y-8994019D01*
X51112056Y-8945638D01*
X51063675Y-8848876D01*
X51063675Y-8752114D01*
X51112056Y-8655352D01*
X51208818Y-8606971D01*
X51450722Y-8606971D01*
X51547484Y-8558590D01*
X52176437Y-8994019D02*
X52079675Y-8945638D01*
X52031294Y-8848876D01*
X52031294Y-7978019D01*
X52563484Y-8994019D02*
X52563484Y-8316686D01*
X52563484Y-8413448D02*
X52611865Y-8365067D01*
X52708627Y-8316686D01*
X52853769Y-8316686D01*
X52950531Y-8365067D01*
X52998912Y-8461829D01*
X52998912Y-8994019D01*
X52998912Y-8461829D02*
X53047293Y-8365067D01*
X53144055Y-8316686D01*
X53289198Y-8316686D01*
X53385960Y-8365067D01*
X53434341Y-8461829D01*
X53434341Y-8994019D01*
X54063294Y-8994019D02*
X53966532Y-8945638D01*
X53918151Y-8897257D01*
X53869770Y-8800495D01*
X53869770Y-8510210D01*
X53918151Y-8413448D01*
X53966532Y-8365067D01*
X54063294Y-8316686D01*
X54208436Y-8316686D01*
X54305198Y-8365067D01*
X54353579Y-8413448D01*
X54401960Y-8510210D01*
X54401960Y-8800495D01*
X54353579Y-8897257D01*
X54305198Y-8945638D01*
X54208436Y-8994019D01*
X54063294Y-8994019D01*
X55272817Y-8994019D02*
X55272817Y-7978019D01*
X55272817Y-8945638D02*
X55176055Y-8994019D01*
X54982532Y-8994019D01*
X54885770Y-8945638D01*
X54837389Y-8897257D01*
X54789008Y-8800495D01*
X54789008Y-8510210D01*
X54837389Y-8413448D01*
X54885770Y-8365067D01*
X54982532Y-8316686D01*
X55176055Y-8316686D01*
X55272817Y-8365067D01*
X56482341Y-7929638D02*
X55611484Y-9235924D01*
X32195105Y-10594219D02*
X32195105Y-9916886D01*
X32195105Y-10013648D02*
X32243486Y-9965267D01*
X32340248Y-9916886D01*
X32485390Y-9916886D01*
X32582152Y-9965267D01*
X32630533Y-10062029D01*
X32630533Y-10594219D01*
X32630533Y-10062029D02*
X32678914Y-9965267D01*
X32775676Y-9916886D01*
X32920819Y-9916886D01*
X33017581Y-9965267D01*
X33065962Y-10062029D01*
X33065962Y-10594219D01*
X33694915Y-10594219D02*
X33598153Y-10545838D01*
X33549772Y-10497457D01*
X33501391Y-10400695D01*
X33501391Y-10110410D01*
X33549772Y-10013648D01*
X33598153Y-9965267D01*
X33694915Y-9916886D01*
X33840057Y-9916886D01*
X33936819Y-9965267D01*
X33985200Y-10013648D01*
X34033581Y-10110410D01*
X34033581Y-10400695D01*
X33985200Y-10497457D01*
X33936819Y-10545838D01*
X33840057Y-10594219D01*
X33694915Y-10594219D01*
X34904438Y-10594219D02*
X34904438Y-9578219D01*
X34904438Y-10545838D02*
X34807676Y-10594219D01*
X34614153Y-10594219D01*
X34517391Y-10545838D01*
X34469010Y-10497457D01*
X34420629Y-10400695D01*
X34420629Y-10110410D01*
X34469010Y-10013648D01*
X34517391Y-9965267D01*
X34614153Y-9916886D01*
X34807676Y-9916886D01*
X34904438Y-9965267D01*
X35388248Y-10207171D02*
X36162343Y-10207171D01*
X37081581Y-10594219D02*
X37081581Y-10062029D01*
X37033200Y-9965267D01*
X36936438Y-9916886D01*
X36742915Y-9916886D01*
X36646153Y-9965267D01*
X37081581Y-10545838D02*
X36984819Y-10594219D01*
X36742915Y-10594219D01*
X36646153Y-10545838D01*
X36597772Y-10449076D01*
X36597772Y-10352314D01*
X36646153Y-10255552D01*
X36742915Y-10207171D01*
X36984819Y-10207171D01*
X37081581Y-10158790D01*
X37565391Y-10594219D02*
X37565391Y-9916886D01*
X37565391Y-10110410D02*
X37613772Y-10013648D01*
X37662153Y-9965267D01*
X37758915Y-9916886D01*
X37855676Y-9916886D01*
X38629771Y-10594219D02*
X38629771Y-9578219D01*
X38629771Y-10545838D02*
X38533009Y-10594219D01*
X38339486Y-10594219D01*
X38242724Y-10545838D01*
X38194343Y-10497457D01*
X38145962Y-10400695D01*
X38145962Y-10110410D01*
X38194343Y-10013648D01*
X38242724Y-9965267D01*
X38339486Y-9916886D01*
X38533009Y-9916886D01*
X38629771Y-9965267D01*
X39549009Y-9916886D02*
X39549009Y-10594219D01*
X39113581Y-9916886D02*
X39113581Y-10449076D01*
X39161962Y-10545838D01*
X39258724Y-10594219D01*
X39403866Y-10594219D01*
X39500628Y-10545838D01*
X39549009Y-10497457D01*
X40032819Y-10594219D02*
X40032819Y-9916886D01*
X40032819Y-9578219D02*
X39984438Y-9626600D01*
X40032819Y-9674981D01*
X40081200Y-9626600D01*
X40032819Y-9578219D01*
X40032819Y-9674981D01*
X40516629Y-9916886D02*
X40516629Y-10594219D01*
X40516629Y-10013648D02*
X40565010Y-9965267D01*
X40661772Y-9916886D01*
X40806914Y-9916886D01*
X40903676Y-9965267D01*
X40952057Y-10062029D01*
X40952057Y-10594219D01*
X41581010Y-10594219D02*
X41484248Y-10545838D01*
X41435867Y-10497457D01*
X41387486Y-10400695D01*
X41387486Y-10110410D01*
X41435867Y-10013648D01*
X41484248Y-9965267D01*
X41581010Y-9916886D01*
X41726152Y-9916886D01*
X41822914Y-9965267D01*
X41871295Y-10013648D01*
X41919676Y-10110410D01*
X41919676Y-10400695D01*
X41871295Y-10497457D01*
X41822914Y-10545838D01*
X41726152Y-10594219D01*
X41581010Y-10594219D01*
X42355105Y-10207171D02*
X43129200Y-10207171D01*
X43564629Y-10545838D02*
X43661391Y-10594219D01*
X43854915Y-10594219D01*
X43951676Y-10545838D01*
X44000057Y-10449076D01*
X44000057Y-10400695D01*
X43951676Y-10303933D01*
X43854915Y-10255552D01*
X43709772Y-10255552D01*
X43613010Y-10207171D01*
X43564629Y-10110410D01*
X43564629Y-10062029D01*
X43613010Y-9965267D01*
X43709772Y-9916886D01*
X43854915Y-9916886D01*
X43951676Y-9965267D01*
X44435486Y-10594219D02*
X44435486Y-9578219D01*
X44870914Y-10594219D02*
X44870914Y-10062029D01*
X44822533Y-9965267D01*
X44725771Y-9916886D01*
X44580629Y-9916886D01*
X44483867Y-9965267D01*
X44435486Y-10013648D01*
X45354724Y-10594219D02*
X45354724Y-9916886D01*
X45354724Y-9578219D02*
X45306343Y-9626600D01*
X45354724Y-9674981D01*
X45403105Y-9626600D01*
X45354724Y-9578219D01*
X45354724Y-9674981D01*
X46225581Y-10545838D02*
X46128819Y-10594219D01*
X45935296Y-10594219D01*
X45838534Y-10545838D01*
X45790153Y-10449076D01*
X45790153Y-10062029D01*
X45838534Y-9965267D01*
X45935296Y-9916886D01*
X46128819Y-9916886D01*
X46225581Y-9965267D01*
X46273962Y-10062029D01*
X46273962Y-10158790D01*
X45790153Y-10255552D01*
X46854534Y-10594219D02*
X46757772Y-10545838D01*
X46709391Y-10449076D01*
X46709391Y-9578219D01*
X47677009Y-10594219D02*
X47677009Y-9578219D01*
X47677009Y-10545838D02*
X47580247Y-10594219D01*
X47386724Y-10594219D01*
X47289962Y-10545838D01*
X47241581Y-10497457D01*
X47193200Y-10400695D01*
X47193200Y-10110410D01*
X47241581Y-10013648D01*
X47289962Y-9965267D01*
X47386724Y-9916886D01*
X47580247Y-9916886D01*
X47677009Y-9965267D01*
X32049962Y-11178419D02*
X32388629Y-12194419D01*
X32727295Y-11178419D01*
X33017581Y-11275181D02*
X33065962Y-11226800D01*
X33162724Y-11178419D01*
X33404628Y-11178419D01*
X33501390Y-11226800D01*
X33549771Y-11275181D01*
X33598152Y-11371943D01*
X33598152Y-11468705D01*
X33549771Y-11613848D01*
X32969200Y-12194419D01*
X33598152Y-12194419D01*
X34033581Y-12097657D02*
X34081962Y-12146038D01*
X34033581Y-12194419D01*
X33985200Y-12146038D01*
X34033581Y-12097657D01*
X34033581Y-12194419D01*
X34710915Y-11178419D02*
X34807676Y-11178419D01*
X34904438Y-11226800D01*
X34952819Y-11275181D01*
X35001200Y-11371943D01*
X35049581Y-11565467D01*
X35049581Y-11807371D01*
X35001200Y-12000895D01*
X34952819Y-12097657D01*
X34904438Y-12146038D01*
X34807676Y-12194419D01*
X34710915Y-12194419D01*
X34614153Y-12146038D01*
X34565772Y-12097657D01*
X34517391Y-12000895D01*
X34469010Y-11807371D01*
X34469010Y-11565467D01*
X34517391Y-11371943D01*
X34565772Y-11275181D01*
X34614153Y-11226800D01*
X34710915Y-11178419D01*
X36210724Y-11275181D02*
X36259105Y-11226800D01*
X36355867Y-11178419D01*
X36597771Y-11178419D01*
X36694533Y-11226800D01*
X36742914Y-11275181D01*
X36791295Y-11371943D01*
X36791295Y-11468705D01*
X36742914Y-11613848D01*
X36162343Y-12194419D01*
X36791295Y-12194419D01*
X37420248Y-11178419D02*
X37517009Y-11178419D01*
X37613771Y-11226800D01*
X37662152Y-11275181D01*
X37710533Y-11371943D01*
X37758914Y-11565467D01*
X37758914Y-11807371D01*
X37710533Y-12000895D01*
X37662152Y-12097657D01*
X37613771Y-12146038D01*
X37517009Y-12194419D01*
X37420248Y-12194419D01*
X37323486Y-12146038D01*
X37275105Y-12097657D01*
X37226724Y-12000895D01*
X37178343Y-11807371D01*
X37178343Y-11565467D01*
X37226724Y-11371943D01*
X37275105Y-11275181D01*
X37323486Y-11226800D01*
X37420248Y-11178419D01*
X38726533Y-12194419D02*
X38145962Y-12194419D01*
X38436248Y-12194419D02*
X38436248Y-11178419D01*
X38339486Y-11323562D01*
X38242724Y-11420324D01*
X38145962Y-11468705D01*
X39597390Y-11517086D02*
X39597390Y-12194419D01*
X39355486Y-11130038D02*
X39113581Y-11855752D01*
X39742533Y-11855752D01*
X40855295Y-11130038D02*
X39984438Y-12436324D01*
X41726152Y-12194419D02*
X41145581Y-12194419D01*
X41435867Y-12194419D02*
X41435867Y-11178419D01*
X41339105Y-11323562D01*
X41242343Y-11420324D01*
X41145581Y-11468705D01*
X42113200Y-11275181D02*
X42161581Y-11226800D01*
X42258343Y-11178419D01*
X42500247Y-11178419D01*
X42597009Y-11226800D01*
X42645390Y-11275181D01*
X42693771Y-11371943D01*
X42693771Y-11468705D01*
X42645390Y-11613848D01*
X42064819Y-12194419D01*
X42693771Y-12194419D01*
X44483866Y-12097657D02*
X44435485Y-12146038D01*
X44290342Y-12194419D01*
X44193580Y-12194419D01*
X44048438Y-12146038D01*
X43951676Y-12049276D01*
X43903295Y-11952514D01*
X43854914Y-11758990D01*
X43854914Y-11613848D01*
X43903295Y-11420324D01*
X43951676Y-11323562D01*
X44048438Y-11226800D01*
X44193580Y-11178419D01*
X44290342Y-11178419D01*
X44435485Y-11226800D01*
X44483866Y-11275181D01*
X45499866Y-12097657D02*
X45451485Y-12146038D01*
X45306342Y-12194419D01*
X45209580Y-12194419D01*
X45064438Y-12146038D01*
X44967676Y-12049276D01*
X44919295Y-11952514D01*
X44870914Y-11758990D01*
X44870914Y-11613848D01*
X44919295Y-11420324D01*
X44967676Y-11323562D01*
X45064438Y-11226800D01*
X45209580Y-11178419D01*
X45306342Y-11178419D01*
X45451485Y-11226800D01*
X45499866Y-11275181D01*
X47048056Y-11662229D02*
X47193199Y-11710610D01*
X47241580Y-11758990D01*
X47289961Y-11855752D01*
X47289961Y-12000895D01*
X47241580Y-12097657D01*
X47193199Y-12146038D01*
X47096437Y-12194419D01*
X46709390Y-12194419D01*
X46709390Y-11178419D01*
X47048056Y-11178419D01*
X47144818Y-11226800D01*
X47193199Y-11275181D01*
X47241580Y-11371943D01*
X47241580Y-11468705D01*
X47193199Y-11565467D01*
X47144818Y-11613848D01*
X47048056Y-11662229D01*
X46709390Y-11662229D01*
X47918914Y-11710610D02*
X47918914Y-12194419D01*
X47580247Y-11178419D02*
X47918914Y-11710610D01*
X48257580Y-11178419D01*
X48596247Y-11807371D02*
X49370342Y-11807371D01*
X49805771Y-12146038D02*
X49950914Y-12194419D01*
X50192818Y-12194419D01*
X50289580Y-12146038D01*
X50337961Y-12097657D01*
X50386342Y-12000895D01*
X50386342Y-11904133D01*
X50337961Y-11807371D01*
X50289580Y-11758990D01*
X50192818Y-11710610D01*
X49999295Y-11662229D01*
X49902533Y-11613848D01*
X49854152Y-11565467D01*
X49805771Y-11468705D01*
X49805771Y-11371943D01*
X49854152Y-11275181D01*
X49902533Y-11226800D01*
X49999295Y-11178419D01*
X50241199Y-11178419D01*
X50386342Y-11226800D01*
X50773390Y-11904133D02*
X51257199Y-11904133D01*
X50676628Y-12194419D02*
X51015295Y-11178419D01*
X51353961Y-12194419D01*
D11*
X45074829Y-7594714D02*
X45074829Y-6832714D01*
X45582828Y-6832714D02*
X45727971Y-6832714D01*
X45800543Y-6869000D01*
X45873114Y-6941571D01*
X45909400Y-7086714D01*
X45909400Y-7340714D01*
X45873114Y-7485857D01*
X45800543Y-7558429D01*
X45727971Y-7594714D01*
X45582828Y-7594714D01*
X45510257Y-7558429D01*
X45437686Y-7485857D01*
X45401400Y-7340714D01*
X45401400Y-7086714D01*
X45437686Y-6941571D01*
X45510257Y-6869000D01*
X45582828Y-6832714D01*
X46598829Y-7594714D02*
X46235972Y-7594714D01*
X46235972Y-6832714D01*
X41024115Y-7574714D02*
X41024115Y-6812714D01*
X41532114Y-6812714D02*
X41677257Y-6812714D01*
X41749829Y-6849000D01*
X41822400Y-6921571D01*
X41858686Y-7066714D01*
X41858686Y-7320714D01*
X41822400Y-7465857D01*
X41749829Y-7538429D01*
X41677257Y-7574714D01*
X41532114Y-7574714D01*
X41459543Y-7538429D01*
X41386972Y-7465857D01*
X41350686Y-7320714D01*
X41350686Y-7066714D01*
X41386972Y-6921571D01*
X41459543Y-6849000D01*
X41532114Y-6812714D01*
X42185258Y-7574714D02*
X42185258Y-6812714D01*
X42185258Y-7175571D02*
X42620686Y-7175571D01*
X42620686Y-7574714D02*
X42620686Y-6812714D01*
X50349972Y-46447000D02*
X50712829Y-46447000D01*
X50277400Y-46664714D02*
X50531400Y-45902714D01*
X50785400Y-46664714D01*
X51039401Y-46664714D02*
X51039401Y-45902714D01*
X51220829Y-45902714D01*
X51329686Y-45939000D01*
X51402258Y-46011571D01*
X51438543Y-46084143D01*
X51474829Y-46229286D01*
X51474829Y-46338143D01*
X51438543Y-46483286D01*
X51402258Y-46555857D01*
X51329686Y-46628429D01*
X51220829Y-46664714D01*
X51039401Y-46664714D01*
X43372543Y-46664714D02*
X43372543Y-45902714D01*
X43662828Y-45902714D01*
X43735400Y-45939000D01*
X43771685Y-45975286D01*
X43807971Y-46047857D01*
X43807971Y-46156714D01*
X43771685Y-46229286D01*
X43735400Y-46265571D01*
X43662828Y-46301857D01*
X43372543Y-46301857D01*
X44279685Y-45902714D02*
X44424828Y-45902714D01*
X44497400Y-45939000D01*
X44569971Y-46011571D01*
X44606257Y-46156714D01*
X44606257Y-46410714D01*
X44569971Y-46555857D01*
X44497400Y-46628429D01*
X44424828Y-46664714D01*
X44279685Y-46664714D01*
X44207114Y-46628429D01*
X44134543Y-46555857D01*
X44098257Y-46410714D01*
X44098257Y-46156714D01*
X44134543Y-46011571D01*
X44207114Y-45939000D01*
X44279685Y-45902714D01*
X44860257Y-45902714D02*
X45041686Y-46664714D01*
X45186829Y-46120429D01*
X45331971Y-46664714D01*
X45513400Y-45902714D01*
X45803686Y-46265571D02*
X46057686Y-46265571D01*
X46166543Y-46664714D02*
X45803686Y-46664714D01*
X45803686Y-45902714D01*
X46166543Y-45902714D01*
X46928543Y-46664714D02*
X46674543Y-46301857D01*
X46493115Y-46664714D02*
X46493115Y-45902714D01*
X46783400Y-45902714D01*
X46855972Y-45939000D01*
X46892257Y-45975286D01*
X46928543Y-46047857D01*
X46928543Y-46156714D01*
X46892257Y-46229286D01*
X46855972Y-46265571D01*
X46783400Y-46301857D01*
X46493115Y-46301857D01*
X65303400Y-36013572D02*
X65267114Y-36086143D01*
X65267114Y-36195000D01*
X65303400Y-36303857D01*
X65375971Y-36376429D01*
X65448543Y-36412714D01*
X65593686Y-36449000D01*
X65702543Y-36449000D01*
X65847686Y-36412714D01*
X65920257Y-36376429D01*
X65992829Y-36303857D01*
X66029114Y-36195000D01*
X66029114Y-36122429D01*
X65992829Y-36013572D01*
X65956543Y-35977286D01*
X65702543Y-35977286D01*
X65702543Y-36122429D01*
X66029114Y-35650714D02*
X65267114Y-35650714D01*
X66029114Y-35215286D01*
X65267114Y-35215286D01*
X66029114Y-34852428D02*
X65267114Y-34852428D01*
X65267114Y-34671000D01*
X65303400Y-34562143D01*
X65375971Y-34489571D01*
X65448543Y-34453286D01*
X65593686Y-34417000D01*
X65702543Y-34417000D01*
X65847686Y-34453286D01*
X65920257Y-34489571D01*
X65992829Y-34562143D01*
X66029114Y-34671000D01*
X66029114Y-34852428D01*
X65267114Y-39224857D02*
X65267114Y-38753143D01*
X65557400Y-39007143D01*
X65557400Y-38898285D01*
X65593686Y-38825714D01*
X65629971Y-38789428D01*
X65702543Y-38753143D01*
X65883971Y-38753143D01*
X65956543Y-38789428D01*
X65992829Y-38825714D01*
X66029114Y-38898285D01*
X66029114Y-39116000D01*
X65992829Y-39188571D01*
X65956543Y-39224857D01*
X65956543Y-38426571D02*
X65992829Y-38390286D01*
X66029114Y-38426571D01*
X65992829Y-38462857D01*
X65956543Y-38426571D01*
X66029114Y-38426571D01*
X65267114Y-38136286D02*
X65267114Y-37664572D01*
X65557400Y-37918572D01*
X65557400Y-37809714D01*
X65593686Y-37737143D01*
X65629971Y-37700857D01*
X65702543Y-37664572D01*
X65883971Y-37664572D01*
X65956543Y-37700857D01*
X65992829Y-37737143D01*
X66029114Y-37809714D01*
X66029114Y-38027429D01*
X65992829Y-38100000D01*
X65956543Y-38136286D01*
X65267114Y-37446858D02*
X66029114Y-37192858D01*
X65267114Y-36938858D01*
X65267114Y-40785142D02*
X65267114Y-41147999D01*
X65629971Y-41184285D01*
X65593686Y-41147999D01*
X65557400Y-41075428D01*
X65557400Y-40893999D01*
X65593686Y-40821428D01*
X65629971Y-40785142D01*
X65702543Y-40748857D01*
X65883971Y-40748857D01*
X65956543Y-40785142D01*
X65992829Y-40821428D01*
X66029114Y-40893999D01*
X66029114Y-41075428D01*
X65992829Y-41147999D01*
X65956543Y-41184285D01*
X65267114Y-40531143D02*
X66029114Y-40277143D01*
X65267114Y-40023143D01*
D14*
X64922400Y-52070000D02*
X49682400Y-52070000D01*
X49682400Y-49530000D02*
X64922400Y-49530000D01*
X49682400Y-52070000D02*
X49682400Y-49530000D01*
X64922400Y-49530000D02*
X64922400Y-52070000D01*
X52222400Y-49530000D02*
X52222400Y-52070000D01*
X64922400Y-49530000D02*
X49682400Y-49530000D01*
X49682400Y-46990000D02*
X64922400Y-46990000D01*
X49682400Y-49530000D02*
X49682400Y-46990000D01*
X64922400Y-46990000D02*
X64922400Y-49530000D01*
X52222400Y-46990000D02*
X52222400Y-49530000D01*
D15*
X3973600Y-36029600D02*
X5373600Y-36029600D01*
X3673600Y-35929600D02*
X5673600Y-35929600D01*
X3473600Y-35829600D02*
X5973600Y-35829600D01*
X3373600Y-35729600D02*
X6073600Y-35729600D01*
D14*
X7173600Y-33629600D02*
G75*
G03X7173600Y-33629600I-2500000J0D01*
G01*
D15*
X1803400Y-34112200D02*
X1803400Y-33096200D01*
X279400Y-34112200D02*
X279400Y-33070800D01*
X1930400Y-35255200D02*
G75*
G03X1930400Y-35255200I-127000J0D01*
G01*
X1803400Y-34112200D02*
X1803400Y-35128200D01*
X1803400Y-35128200D02*
X279400Y-35128200D01*
X279400Y-35128200D02*
X279400Y-34112200D01*
X279400Y-33096200D02*
X279400Y-32080200D01*
X279400Y-32080200D02*
X1803400Y-32080200D01*
X1803400Y-32080200D02*
X1803400Y-33096200D01*
X67970400Y-42164000D02*
X67970400Y-41148000D01*
X66446400Y-42164000D02*
X66446400Y-41122600D01*
X68097400Y-43307000D02*
G75*
G03X68097400Y-43307000I-127000J0D01*
G01*
X67970400Y-42164000D02*
X67970400Y-43180000D01*
X67970400Y-43180000D02*
X66446400Y-43180000D01*
X66446400Y-43180000D02*
X66446400Y-42164000D01*
X66446400Y-41148000D02*
X66446400Y-40132000D01*
X66446400Y-40132000D02*
X67970400Y-40132000D01*
X67970400Y-40132000D02*
X67970400Y-41148000D01*
X14909800Y-7493000D02*
X13893800Y-7493000D01*
X14909800Y-9017000D02*
X13868400Y-9017000D01*
X16179800Y-7493000D02*
G75*
G03X16179800Y-7493000I-127000J0D01*
G01*
X14909800Y-7493000D02*
X15925800Y-7493000D01*
X15925800Y-7493000D02*
X15925800Y-9017000D01*
X15925800Y-9017000D02*
X14909800Y-9017000D01*
X13893800Y-9017000D02*
X12877800Y-9017000D01*
X12877800Y-9017000D02*
X12877800Y-7493000D01*
X12877800Y-7493000D02*
X13893800Y-7493000D01*
X66446400Y-36703000D02*
X66446400Y-37719000D01*
X67970400Y-36703000D02*
X67970400Y-37744400D01*
X66573400Y-35560000D02*
G75*
G03X66573400Y-35560000I-127000J0D01*
G01*
X66446400Y-36703000D02*
X66446400Y-35687000D01*
X66446400Y-35687000D02*
X67970400Y-35687000D01*
X67970400Y-35687000D02*
X67970400Y-36703000D01*
X67970400Y-37719000D02*
X67970400Y-38735000D01*
X67970400Y-38735000D02*
X66446400Y-38735000D01*
X66446400Y-38735000D02*
X66446400Y-37719000D01*
X41325800Y-43992800D02*
X40309800Y-43992800D01*
X41325800Y-45516800D02*
X40284400Y-45516800D01*
X42595800Y-43992800D02*
G75*
G03X42595800Y-43992800I-127000J0D01*
G01*
X41325800Y-43992800D02*
X42341800Y-43992800D01*
X42341800Y-43992800D02*
X42341800Y-45516800D01*
X42341800Y-45516800D02*
X41325800Y-45516800D01*
X40309800Y-45516800D02*
X39293800Y-45516800D01*
X39293800Y-45516800D02*
X39293800Y-43992800D01*
X39293800Y-43992800D02*
X40309800Y-43992800D01*
X18605800Y-39940000D02*
X18605800Y-41340000D01*
X18705800Y-39640000D02*
X18705800Y-41640000D01*
X18805800Y-39440000D02*
X18805800Y-41940000D01*
X18905800Y-39340000D02*
X18905800Y-42040000D01*
D14*
X23505800Y-40640000D02*
G75*
G03X23505800Y-40640000I-2500000J0D01*
G01*
D15*
X32639000Y-45516800D02*
X33655000Y-45516800D01*
X32639000Y-43992800D02*
X33680400Y-43992800D01*
X31623000Y-45516800D02*
G75*
G03X31623000Y-45516800I-127000J0D01*
G01*
X32639000Y-45516800D02*
X31623000Y-45516800D01*
X31623000Y-45516800D02*
X31623000Y-43992800D01*
X31623000Y-43992800D02*
X32639000Y-43992800D01*
X33655000Y-43992800D02*
X34671000Y-43992800D01*
X34671000Y-43992800D02*
X34671000Y-45516800D01*
X34671000Y-45516800D02*
X33655000Y-45516800D01*
X21629600Y-32575800D02*
X20229600Y-32575800D01*
X21929600Y-32675800D02*
X19929600Y-32675800D01*
X22129600Y-32775800D02*
X19629600Y-32775800D01*
X22229600Y-32875800D02*
X19529600Y-32875800D01*
D14*
X23429600Y-34975800D02*
G75*
G03X23429600Y-34975800I-2500000J0D01*
G01*
D11*
X18012400Y-45440000D02*
X18812400Y-45440000D01*
X17312400Y-45440000D02*
X16612400Y-45440000D01*
X18812400Y-44040000D02*
X18812400Y-46840000D01*
X19212400Y-44040000D02*
X19212400Y-46840000D01*
D16*
X20212400Y-46840000D02*
X15712400Y-46840000D01*
X15712400Y-44040000D02*
X20212400Y-44040000D01*
D11*
X17985400Y-45440000D02*
X17350400Y-44965020D01*
X17350400Y-44965020D02*
X17350400Y-45440000D01*
X17350400Y-45440000D02*
X17350400Y-45914980D01*
X17350400Y-45914980D02*
X17985400Y-45440000D01*
X17985400Y-45440000D02*
X17985400Y-45122500D01*
X17985400Y-45122500D02*
X17827920Y-44965020D01*
X17985400Y-45440000D02*
X17985400Y-45757500D01*
X17985400Y-45757500D02*
X18142880Y-45914980D01*
D17*
X14861540Y-13220700D02*
X12164060Y-13220700D01*
X12164060Y-11671300D02*
X14861540Y-11671300D01*
X12913360Y-11671300D02*
X12913360Y-13220700D01*
X12913360Y-12446000D02*
X13515340Y-11846560D01*
X13515340Y-11846560D02*
X13515340Y-13045440D01*
X13515340Y-13045440D02*
X12913360Y-12446000D01*
X3020060Y-11671300D02*
X5717540Y-11671300D01*
X5717540Y-13220700D02*
X3020060Y-13220700D01*
X4968240Y-13220700D02*
X4968240Y-11671300D01*
X4968240Y-12446000D02*
X4366260Y-13045440D01*
X4366260Y-13045440D02*
X4366260Y-11846560D01*
X4366260Y-11846560D02*
X4968240Y-12446000D01*
D14*
X17678400Y-1270000D02*
X43078400Y-1270000D01*
X43078400Y-3810000D02*
X17678400Y-3810000D01*
X43078400Y-1270000D02*
X43078400Y-3810000D01*
X17678400Y-3810000D02*
X17678400Y-1270000D01*
X40538400Y-3810000D02*
X40538400Y-1270000D01*
X17678400Y-3810000D02*
X43078400Y-3810000D01*
X43078400Y-6350000D02*
X17678400Y-6350000D01*
X43078400Y-3810000D02*
X43078400Y-6350000D01*
X17678400Y-6350000D02*
X17678400Y-3810000D01*
X40538400Y-6350000D02*
X40538400Y-3810000D01*
X64922400Y-1270000D02*
X44602400Y-1270000D01*
X44602400Y-3810000D02*
X64922400Y-3810000D01*
X64922400Y-1270000D02*
X64922400Y-3810000D01*
X44602400Y-3810000D02*
X44602400Y-1270000D01*
X62382400Y-3810000D02*
X62382400Y-1270000D01*
X64922400Y-3810000D02*
X44602400Y-3810000D01*
X44602400Y-6350000D02*
X64922400Y-6350000D01*
X64922400Y-3810000D02*
X64922400Y-6350000D01*
X44602400Y-6350000D02*
X44602400Y-3810000D01*
X62382400Y-6350000D02*
X62382400Y-3810000D01*
X12598400Y-14427200D02*
X571500Y-14427200D01*
X571500Y-30683200D02*
X12598400Y-30683200D01*
X12598400Y-14427200D02*
X12598400Y-30683200D01*
X12598400Y-36576000D02*
X571500Y-36576000D01*
X571500Y-52832000D02*
X12598400Y-52832000D01*
X12598400Y-36576000D02*
X12598400Y-52832000D01*
D18*
X64922400Y-12192000D02*
X57302400Y-12192000D01*
X57302400Y-7112000D02*
X64922400Y-7112000D01*
X64922400Y-7112000D02*
X64922400Y-12192000D01*
X57302400Y-12192000D02*
X57302400Y-7112000D01*
D14*
X26822400Y-52070000D02*
X47142400Y-52070000D01*
X47142400Y-49530000D02*
X26822400Y-49530000D01*
X26822400Y-52070000D02*
X26822400Y-49530000D01*
X47142400Y-49530000D02*
X47142400Y-52070000D01*
X29362400Y-49530000D02*
X29362400Y-52070000D01*
X26822400Y-49530000D02*
X47142400Y-49530000D01*
X47142400Y-46990000D02*
X26822400Y-46990000D01*
X26822400Y-49530000D02*
X26822400Y-46990000D01*
X47142400Y-46990000D02*
X47142400Y-49530000D01*
X29362400Y-46990000D02*
X29362400Y-49530000D01*
X24282400Y-30480000D02*
X64922400Y-30480000D01*
X64922400Y-30480000D02*
X24282400Y-30480000D01*
X24282400Y-30480000D02*
X24282400Y-27940000D01*
X64922400Y-27940000D02*
X64922400Y-30480000D01*
X64922400Y-30480000D02*
X64922400Y-33020000D01*
X24282400Y-33020000D02*
X24282400Y-30480000D01*
X64922400Y-33020000D02*
X24282400Y-33020000D01*
X24282400Y-33020000D02*
X64922400Y-33020000D01*
X24282400Y-27940000D02*
X64922400Y-27940000D01*
X64922400Y-27940000D02*
X24282400Y-27940000D01*
X24282400Y-27940000D02*
X24282400Y-25400000D01*
X64922400Y-25400000D02*
X64922400Y-27940000D01*
X64922400Y-22860000D02*
X64922400Y-25400000D01*
X24282400Y-25400000D02*
X24282400Y-22860000D01*
X64922400Y-25400000D02*
X24282400Y-25400000D01*
X24282400Y-25400000D02*
X64922400Y-25400000D01*
X24282400Y-22860000D02*
X64922400Y-22860000D01*
X64922400Y-22860000D02*
X24282400Y-22860000D01*
X24282400Y-22860000D02*
X24282400Y-20320000D01*
X64922400Y-20320000D02*
X64922400Y-22860000D01*
X64922400Y-17780000D02*
X64922400Y-20320000D01*
X24282400Y-20320000D02*
X24282400Y-17780000D01*
X64922400Y-20320000D02*
X24282400Y-20320000D01*
X24282400Y-20320000D02*
X64922400Y-20320000D01*
X24282400Y-17780000D02*
X64922400Y-17780000D01*
X64922400Y-17780000D02*
X24282400Y-17780000D01*
X24282400Y-17780000D02*
X24282400Y-15240000D01*
X64922400Y-15240000D02*
X64922400Y-17780000D01*
X64922400Y-12700000D02*
X64922400Y-15240000D01*
X24282400Y-15240000D02*
X24282400Y-12700000D01*
X24282400Y-12700000D02*
X64922400Y-12700000D01*
X64922400Y-15240000D02*
X24282400Y-15240000D01*
X24282400Y-15240000D02*
X64922400Y-15240000D01*
X64922400Y-39370000D02*
X24282400Y-39370000D01*
X24282400Y-36830000D02*
X64922400Y-36830000D01*
X24282400Y-39370000D02*
X24282400Y-36830000D01*
X64922400Y-36830000D02*
X64922400Y-39370000D01*
X64922400Y-41910000D02*
X24282400Y-41910000D01*
X24282400Y-39370000D02*
X64922400Y-39370000D01*
X24282400Y-41910000D02*
X24282400Y-39370000D01*
X64922400Y-39370000D02*
X64922400Y-41910000D01*
X64922400Y-36830000D02*
X24282400Y-36830000D01*
X24282400Y-34290000D02*
X64922400Y-34290000D01*
X24282400Y-36830000D02*
X24282400Y-34290000D01*
X64922400Y-34290000D02*
X64922400Y-36830000D01*
D19*
X19947490Y-27999480D02*
G75*
G03X19947490Y-27999480I-159070J0D01*
G01*
X17342400Y-28858000D02*
X17342400Y-27842000D01*
X19945900Y-28858000D02*
X19945900Y-27842000D01*
X17342400Y-27842000D02*
X19945900Y-27842000D01*
X19945900Y-28858000D02*
X17342400Y-28858000D01*
D15*
X9448800Y-33274000D02*
X8432800Y-33274000D01*
X9448800Y-34798000D02*
X8407400Y-34798000D01*
X10718800Y-33274000D02*
G75*
G03X10718800Y-33274000I-127000J0D01*
G01*
X9448800Y-33274000D02*
X10464800Y-33274000D01*
X10464800Y-33274000D02*
X10464800Y-34798000D01*
X10464800Y-34798000D02*
X9448800Y-34798000D01*
X8432800Y-34798000D02*
X7416800Y-34798000D01*
X7416800Y-34798000D02*
X7416800Y-33274000D01*
X7416800Y-33274000D02*
X8432800Y-33274000D01*
X10718800Y-11557000D02*
X10718800Y-10541000D01*
X9194800Y-11557000D02*
X9194800Y-10515600D01*
X10845800Y-12700000D02*
G75*
G03X10845800Y-12700000I-127000J0D01*
G01*
X10718800Y-11557000D02*
X10718800Y-12573000D01*
X10718800Y-12573000D02*
X9194800Y-12573000D01*
X9194800Y-12573000D02*
X9194800Y-11557000D01*
X9194800Y-10541000D02*
X9194800Y-9525000D01*
X9194800Y-9525000D02*
X10718800Y-9525000D01*
X10718800Y-9525000D02*
X10718800Y-10541000D01*
X8686800Y-11557000D02*
X8686800Y-10541000D01*
X7162800Y-11557000D02*
X7162800Y-10515600D01*
X8813800Y-12700000D02*
G75*
G03X8813800Y-12700000I-127000J0D01*
G01*
X8686800Y-11557000D02*
X8686800Y-12573000D01*
X8686800Y-12573000D02*
X7162800Y-12573000D01*
X7162800Y-12573000D02*
X7162800Y-11557000D01*
X7162800Y-10541000D02*
X7162800Y-9525000D01*
X7162800Y-9525000D02*
X8686800Y-9525000D01*
X8686800Y-9525000D02*
X8686800Y-10541000D01*
X13893800Y-10922000D02*
X14909800Y-10922000D01*
X13893800Y-9398000D02*
X14935200Y-9398000D01*
X12877800Y-10922000D02*
G75*
G03X12877800Y-10922000I-127000J0D01*
G01*
X13893800Y-10922000D02*
X12877800Y-10922000D01*
X12877800Y-10922000D02*
X12877800Y-9398000D01*
X12877800Y-9398000D02*
X13893800Y-9398000D01*
X14909800Y-9398000D02*
X15925800Y-9398000D01*
X15925800Y-9398000D02*
X15925800Y-10922000D01*
X15925800Y-10922000D02*
X14909800Y-10922000D01*
X4749800Y-10795000D02*
X5765800Y-10795000D01*
X4749800Y-9271000D02*
X5791200Y-9271000D01*
X3733800Y-10795000D02*
G75*
G03X3733800Y-10795000I-127000J0D01*
G01*
X4749800Y-10795000D02*
X3733800Y-10795000D01*
X3733800Y-10795000D02*
X3733800Y-9271000D01*
X3733800Y-9271000D02*
X4749800Y-9271000D01*
X5765800Y-9271000D02*
X6781800Y-9271000D01*
X6781800Y-9271000D02*
X6781800Y-10795000D01*
X6781800Y-10795000D02*
X5765800Y-10795000D01*
X19870400Y-13132000D02*
X19870400Y-14148000D01*
X21394400Y-13132000D02*
X21394400Y-14173400D01*
X19997400Y-11989000D02*
G75*
G03X19997400Y-11989000I-127000J0D01*
G01*
X19870400Y-13132000D02*
X19870400Y-12116000D01*
X19870400Y-12116000D02*
X21394400Y-12116000D01*
X21394400Y-12116000D02*
X21394400Y-13132000D01*
X21394400Y-14148000D02*
X21394400Y-15164000D01*
X21394400Y-15164000D02*
X19870400Y-15164000D01*
X19870400Y-15164000D02*
X19870400Y-14148000D01*
X15420400Y-1832000D02*
X15420400Y-2848000D01*
X16944400Y-1832000D02*
X16944400Y-2873400D01*
X15547400Y-689000D02*
G75*
G03X15547400Y-689000I-127000J0D01*
G01*
X15420400Y-1832000D02*
X15420400Y-816000D01*
X15420400Y-816000D02*
X16944400Y-816000D01*
X16944400Y-816000D02*
X16944400Y-1832000D01*
X16944400Y-2848000D02*
X16944400Y-3864000D01*
X16944400Y-3864000D02*
X15420400Y-3864000D01*
X15420400Y-3864000D02*
X15420400Y-2848000D01*
X20324400Y-24838000D02*
X20324400Y-23822000D01*
X18800400Y-24838000D02*
X18800400Y-23796600D01*
X20451400Y-25981000D02*
G75*
G03X20451400Y-25981000I-127000J0D01*
G01*
X20324400Y-24838000D02*
X20324400Y-25854000D01*
X20324400Y-25854000D02*
X18800400Y-25854000D01*
X18800400Y-25854000D02*
X18800400Y-24838000D01*
X18800400Y-23822000D02*
X18800400Y-22806000D01*
X18800400Y-22806000D02*
X20324400Y-22806000D01*
X20324400Y-22806000D02*
X20324400Y-23822000D01*
X14124400Y-50042000D02*
X15140400Y-50042000D01*
X14124400Y-48518000D02*
X15165800Y-48518000D01*
X13108400Y-50042000D02*
G75*
G03X13108400Y-50042000I-127000J0D01*
G01*
X14124400Y-50042000D02*
X13108400Y-50042000D01*
X13108400Y-50042000D02*
X13108400Y-48518000D01*
X13108400Y-48518000D02*
X14124400Y-48518000D01*
X15140400Y-48518000D02*
X16156400Y-48518000D01*
X16156400Y-48518000D02*
X16156400Y-50042000D01*
X16156400Y-50042000D02*
X15140400Y-50042000D01*
X14124400Y-38612000D02*
X15140400Y-38612000D01*
X14124400Y-37088000D02*
X15165800Y-37088000D01*
X13108400Y-38612000D02*
G75*
G03X13108400Y-38612000I-127000J0D01*
G01*
X14124400Y-38612000D02*
X13108400Y-38612000D01*
X13108400Y-38612000D02*
X13108400Y-37088000D01*
X13108400Y-37088000D02*
X14124400Y-37088000D01*
X15140400Y-37088000D02*
X16156400Y-37088000D01*
X16156400Y-37088000D02*
X16156400Y-38612000D01*
X16156400Y-38612000D02*
X15140400Y-38612000D01*
X14124400Y-27892000D02*
X15140400Y-27892000D01*
X14124400Y-26368000D02*
X15165800Y-26368000D01*
X13108400Y-27892000D02*
G75*
G03X13108400Y-27892000I-127000J0D01*
G01*
X14124400Y-27892000D02*
X13108400Y-27892000D01*
X13108400Y-27892000D02*
X13108400Y-26368000D01*
X13108400Y-26368000D02*
X14124400Y-26368000D01*
X15140400Y-26368000D02*
X16156400Y-26368000D01*
X16156400Y-26368000D02*
X16156400Y-27892000D01*
X16156400Y-27892000D02*
X15140400Y-27892000D01*
X14124400Y-16462000D02*
X15140400Y-16462000D01*
X14124400Y-14938000D02*
X15165800Y-14938000D01*
X13108400Y-16462000D02*
G75*
G03X13108400Y-16462000I-127000J0D01*
G01*
X14124400Y-16462000D02*
X13108400Y-16462000D01*
X13108400Y-16462000D02*
X13108400Y-14938000D01*
X13108400Y-14938000D02*
X14124400Y-14938000D01*
X15140400Y-14938000D02*
X16156400Y-14938000D01*
X16156400Y-14938000D02*
X16156400Y-16462000D01*
X16156400Y-16462000D02*
X15140400Y-16462000D01*
X19174400Y-8352000D02*
X20190400Y-8352000D01*
X19174400Y-6828000D02*
X20215800Y-6828000D01*
X18158400Y-8352000D02*
G75*
G03X18158400Y-8352000I-127000J0D01*
G01*
X19174400Y-8352000D02*
X18158400Y-8352000D01*
X18158400Y-8352000D02*
X18158400Y-6828000D01*
X18158400Y-6828000D02*
X19174400Y-6828000D01*
X20190400Y-6828000D02*
X21206400Y-6828000D01*
X21206400Y-6828000D02*
X21206400Y-8352000D01*
X21206400Y-8352000D02*
X20190400Y-8352000D01*
X12854400Y-2162000D02*
X13870400Y-2162000D01*
X12854400Y-638000D02*
X13895800Y-638000D01*
X11838400Y-2162000D02*
G75*
G03X11838400Y-2162000I-127000J0D01*
G01*
X12854400Y-2162000D02*
X11838400Y-2162000D01*
X11838400Y-2162000D02*
X11838400Y-638000D01*
X11838400Y-638000D02*
X12854400Y-638000D01*
X13870400Y-638000D02*
X14886400Y-638000D01*
X14886400Y-638000D02*
X14886400Y-2162000D01*
X14886400Y-2162000D02*
X13870400Y-2162000D01*
X19174400Y-10372000D02*
X20190400Y-10372000D01*
X19174400Y-8848000D02*
X20215800Y-8848000D01*
X18158400Y-10372000D02*
G75*
G03X18158400Y-10372000I-127000J0D01*
G01*
X19174400Y-10372000D02*
X18158400Y-10372000D01*
X18158400Y-10372000D02*
X18158400Y-8848000D01*
X18158400Y-8848000D02*
X19174400Y-8848000D01*
X20190400Y-8848000D02*
X21206400Y-8848000D01*
X21206400Y-8848000D02*
X21206400Y-10372000D01*
X21206400Y-10372000D02*
X20190400Y-10372000D01*
D20*
X11607800Y-3683000D02*
X11607800Y-3556000D01*
X11607800Y-3556000D02*
X6273800Y-3556000D01*
X6273800Y-7366000D02*
X11607800Y-7366000D01*
X11607800Y-7366000D02*
X11607800Y-3683000D01*
X11607800Y-5969000D02*
X11099800Y-5969000D01*
X11099800Y-5969000D02*
X11099800Y-4953000D01*
X11099800Y-4953000D02*
X11607800Y-4953000D01*
X6273800Y-7366000D02*
X6273800Y-3556000D01*
D14*
X26802400Y-9390000D02*
X21722400Y-9390000D01*
X21722400Y-6850000D02*
X26802400Y-6850000D01*
X21722400Y-9390000D02*
X21722400Y-6850000D01*
X26802400Y-6850000D02*
X26802400Y-9390000D01*
X24262400Y-6850000D02*
X24262400Y-9390000D01*
D15*
X29320400Y-7358000D02*
X28304400Y-7358000D01*
X29320400Y-8882000D02*
X28279000Y-8882000D01*
X30590400Y-7358000D02*
G75*
G03X30590400Y-7358000I-127000J0D01*
G01*
X29320400Y-7358000D02*
X30336400Y-7358000D01*
X30336400Y-7358000D02*
X30336400Y-8882000D01*
X30336400Y-8882000D02*
X29320400Y-8882000D01*
X28304400Y-8882000D02*
X27288400Y-8882000D01*
X27288400Y-8882000D02*
X27288400Y-7358000D01*
X27288400Y-7358000D02*
X28304400Y-7358000D01*
D20*
X24689400Y-48387400D02*
X24689400Y-46736400D01*
X21895400Y-48362000D02*
X21895400Y-46787200D01*
X24996005Y-50013000D02*
G75*
G03X24996005Y-50013000I-179605J0D01*
G01*
X21895400Y-48362000D02*
X21895400Y-49886000D01*
X21895400Y-49886000D02*
X24689400Y-49886000D01*
X24689400Y-49886000D02*
X24689400Y-48362000D01*
X24689400Y-46838000D02*
X24689400Y-45314000D01*
X24689400Y-45314000D02*
X21895400Y-45314000D01*
X21895400Y-45314000D02*
X21895400Y-46838000D01*
D21*
G36*
X5863656Y-3740371D02*
X5862595Y-3818084D01*
X5860236Y-3889761D01*
X5856579Y-3950824D01*
X5854922Y-3969561D01*
X5826639Y-4170407D01*
X5781985Y-4367717D01*
X5721282Y-4560704D01*
X5644851Y-4748582D01*
X5553013Y-4930563D01*
X5483010Y-5045329D01*
X5483010Y-3743508D01*
X5482829Y-3668419D01*
X5481177Y-3596440D01*
X5478054Y-3532563D01*
X5474729Y-3492808D01*
X5446605Y-3306486D01*
X5402394Y-3124870D01*
X5342457Y-2948712D01*
X5267157Y-2778764D01*
X5176854Y-2615779D01*
X5071909Y-2460509D01*
X4952685Y-2313705D01*
X4862180Y-2217638D01*
X4721664Y-2088760D01*
X4572162Y-1973913D01*
X4414425Y-1873458D01*
X4249207Y-1787756D01*
X4077259Y-1717168D01*
X3899333Y-1662056D01*
X3716181Y-1622781D01*
X3587010Y-1605089D01*
X3532534Y-1600858D01*
X3466197Y-1598097D01*
X3392988Y-1596808D01*
X3317899Y-1596989D01*
X3245920Y-1598641D01*
X3182043Y-1601764D01*
X3142288Y-1605089D01*
X2955966Y-1633213D01*
X2774350Y-1677425D01*
X2598192Y-1737361D01*
X2428244Y-1812661D01*
X2265259Y-1902964D01*
X2109989Y-2007909D01*
X1963185Y-2127133D01*
X1867118Y-2217638D01*
X1738240Y-2358154D01*
X1623393Y-2507656D01*
X1522938Y-2665393D01*
X1437236Y-2830611D01*
X1366648Y-3002560D01*
X1311536Y-3180486D01*
X1272261Y-3363637D01*
X1254569Y-3492808D01*
X1250338Y-3547284D01*
X1247577Y-3613622D01*
X1246288Y-3686830D01*
X1246469Y-3761919D01*
X1248121Y-3833898D01*
X1251244Y-3897775D01*
X1254569Y-3937530D01*
X1282693Y-4123853D01*
X1326905Y-4305469D01*
X1386841Y-4481626D01*
X1462141Y-4651574D01*
X1552444Y-4814559D01*
X1657389Y-4969829D01*
X1776613Y-5116633D01*
X1867118Y-5212700D01*
X2008169Y-5342142D01*
X2157926Y-5457273D01*
X2315792Y-5557800D01*
X2481170Y-5643431D01*
X2653460Y-5713872D01*
X2832066Y-5768828D01*
X3016389Y-5808008D01*
X3106674Y-5821118D01*
X3159257Y-5826039D01*
X3224112Y-5829652D01*
X3296642Y-5831918D01*
X3372249Y-5832796D01*
X3446337Y-5832248D01*
X3514310Y-5830234D01*
X3571569Y-5826714D01*
X3587010Y-5825249D01*
X3773333Y-5797125D01*
X3954949Y-5752914D01*
X4131106Y-5692977D01*
X4301054Y-5617677D01*
X4464039Y-5527374D01*
X4619309Y-5422429D01*
X4766113Y-5303205D01*
X4862180Y-5212700D01*
X4991058Y-5072184D01*
X5105905Y-4922682D01*
X5206360Y-4764945D01*
X5292062Y-4599727D01*
X5362650Y-4427779D01*
X5417762Y-4249853D01*
X5457037Y-4066701D01*
X5474729Y-3937530D01*
X5478960Y-3883054D01*
X5481721Y-3816717D01*
X5483010Y-3743508D01*
X5483010Y-5045329D01*
X5446088Y-5105862D01*
X5324399Y-5273691D01*
X5320819Y-5278228D01*
X5276969Y-5330635D01*
X5223221Y-5390066D01*
X5162991Y-5453105D01*
X5099694Y-5516337D01*
X5036745Y-5576347D01*
X4977559Y-5629719D01*
X4927708Y-5671339D01*
X4760097Y-5793434D01*
X4584994Y-5900772D01*
X4403187Y-5993033D01*
X4215463Y-6069895D01*
X4022607Y-6131038D01*
X3825406Y-6176140D01*
X3624647Y-6204881D01*
X3619041Y-6205442D01*
X3573646Y-6208715D01*
X3515431Y-6211094D01*
X3448359Y-6212583D01*
X3376391Y-6213185D01*
X3303490Y-6212903D01*
X3233617Y-6211741D01*
X3170737Y-6209702D01*
X3118809Y-6206788D01*
X3098216Y-6205008D01*
X2902482Y-6176669D01*
X2708732Y-6131934D01*
X2518187Y-6071305D01*
X2332067Y-5995283D01*
X2151593Y-5904372D01*
X1977985Y-5799074D01*
X1812465Y-5679891D01*
X1801591Y-5671339D01*
X1749183Y-5627489D01*
X1689752Y-5573741D01*
X1626713Y-5513511D01*
X1563481Y-5450214D01*
X1503472Y-5387265D01*
X1450099Y-5328079D01*
X1408479Y-5278228D01*
X1286384Y-5110617D01*
X1179046Y-4935514D01*
X1086786Y-4753707D01*
X1009923Y-4565983D01*
X948780Y-4373127D01*
X903678Y-4175926D01*
X874937Y-3975167D01*
X874376Y-3969561D01*
X870246Y-3913512D01*
X867413Y-3845176D01*
X865879Y-3769134D01*
X865642Y-3689967D01*
X866703Y-3612255D01*
X869062Y-3540577D01*
X872719Y-3479514D01*
X874376Y-3460777D01*
X902659Y-3259931D01*
X947313Y-3062621D01*
X1008016Y-2869634D01*
X1084447Y-2681756D01*
X1176285Y-2499775D01*
X1283210Y-2324476D01*
X1404900Y-2156647D01*
X1408479Y-2152111D01*
X1452329Y-2099703D01*
X1506077Y-2040272D01*
X1566307Y-1977233D01*
X1629604Y-1914001D01*
X1692553Y-1853992D01*
X1751739Y-1800619D01*
X1801591Y-1758999D01*
X1969202Y-1636904D01*
X2144304Y-1529566D01*
X2326111Y-1437306D01*
X2513836Y-1360443D01*
X2706692Y-1299300D01*
X2903892Y-1254198D01*
X3104651Y-1225457D01*
X3110257Y-1224896D01*
X3166307Y-1220766D01*
X3234642Y-1217933D01*
X3310684Y-1216399D01*
X3389851Y-1216162D01*
X3467564Y-1217223D01*
X3539241Y-1219582D01*
X3600304Y-1223239D01*
X3619041Y-1224896D01*
X3819887Y-1253179D01*
X4017197Y-1297833D01*
X4210184Y-1358536D01*
X4398062Y-1434967D01*
X4580043Y-1526805D01*
X4755342Y-1633730D01*
X4923171Y-1755420D01*
X4927708Y-1758999D01*
X4980115Y-1802849D01*
X5039546Y-1856597D01*
X5102585Y-1916827D01*
X5165817Y-1980124D01*
X5225827Y-2043073D01*
X5279199Y-2102259D01*
X5320819Y-2152111D01*
X5442914Y-2319722D01*
X5550252Y-2494824D01*
X5642513Y-2676631D01*
X5719375Y-2864356D01*
X5780518Y-3057212D01*
X5825620Y-3254412D01*
X5854361Y-3455171D01*
X5854922Y-3460777D01*
X5859052Y-3516827D01*
X5861885Y-3585162D01*
X5863420Y-3661204D01*
X5863656Y-3740371D01*
X5863656Y-3740371D01*
X5863656Y-3740371D01*
G37*
X5863656Y-3740371D02*
X5862595Y-3818084D01*
X5860236Y-3889761D01*
X5856579Y-3950824D01*
X5854922Y-3969561D01*
X5826639Y-4170407D01*
X5781985Y-4367717D01*
X5721282Y-4560704D01*
X5644851Y-4748582D01*
X5553013Y-4930563D01*
X5483010Y-5045329D01*
X5483010Y-3743508D01*
X5482829Y-3668419D01*
X5481177Y-3596440D01*
X5478054Y-3532563D01*
X5474729Y-3492808D01*
X5446605Y-3306486D01*
X5402394Y-3124870D01*
X5342457Y-2948712D01*
X5267157Y-2778764D01*
X5176854Y-2615779D01*
X5071909Y-2460509D01*
X4952685Y-2313705D01*
X4862180Y-2217638D01*
X4721664Y-2088760D01*
X4572162Y-1973913D01*
X4414425Y-1873458D01*
X4249207Y-1787756D01*
X4077259Y-1717168D01*
X3899333Y-1662056D01*
X3716181Y-1622781D01*
X3587010Y-1605089D01*
X3532534Y-1600858D01*
X3466197Y-1598097D01*
X3392988Y-1596808D01*
X3317899Y-1596989D01*
X3245920Y-1598641D01*
X3182043Y-1601764D01*
X3142288Y-1605089D01*
X2955966Y-1633213D01*
X2774350Y-1677425D01*
X2598192Y-1737361D01*
X2428244Y-1812661D01*
X2265259Y-1902964D01*
X2109989Y-2007909D01*
X1963185Y-2127133D01*
X1867118Y-2217638D01*
X1738240Y-2358154D01*
X1623393Y-2507656D01*
X1522938Y-2665393D01*
X1437236Y-2830611D01*
X1366648Y-3002560D01*
X1311536Y-3180486D01*
X1272261Y-3363637D01*
X1254569Y-3492808D01*
X1250338Y-3547284D01*
X1247577Y-3613622D01*
X1246288Y-3686830D01*
X1246469Y-3761919D01*
X1248121Y-3833898D01*
X1251244Y-3897775D01*
X1254569Y-3937530D01*
X1282693Y-4123853D01*
X1326905Y-4305469D01*
X1386841Y-4481626D01*
X1462141Y-4651574D01*
X1552444Y-4814559D01*
X1657389Y-4969829D01*
X1776613Y-5116633D01*
X1867118Y-5212700D01*
X2008169Y-5342142D01*
X2157926Y-5457273D01*
X2315792Y-5557800D01*
X2481170Y-5643431D01*
X2653460Y-5713872D01*
X2832066Y-5768828D01*
X3016389Y-5808008D01*
X3106674Y-5821118D01*
X3159257Y-5826039D01*
X3224112Y-5829652D01*
X3296642Y-5831918D01*
X3372249Y-5832796D01*
X3446337Y-5832248D01*
X3514310Y-5830234D01*
X3571569Y-5826714D01*
X3587010Y-5825249D01*
X3773333Y-5797125D01*
X3954949Y-5752914D01*
X4131106Y-5692977D01*
X4301054Y-5617677D01*
X4464039Y-5527374D01*
X4619309Y-5422429D01*
X4766113Y-5303205D01*
X4862180Y-5212700D01*
X4991058Y-5072184D01*
X5105905Y-4922682D01*
X5206360Y-4764945D01*
X5292062Y-4599727D01*
X5362650Y-4427779D01*
X5417762Y-4249853D01*
X5457037Y-4066701D01*
X5474729Y-3937530D01*
X5478960Y-3883054D01*
X5481721Y-3816717D01*
X5483010Y-3743508D01*
X5483010Y-5045329D01*
X5446088Y-5105862D01*
X5324399Y-5273691D01*
X5320819Y-5278228D01*
X5276969Y-5330635D01*
X5223221Y-5390066D01*
X5162991Y-5453105D01*
X5099694Y-5516337D01*
X5036745Y-5576347D01*
X4977559Y-5629719D01*
X4927708Y-5671339D01*
X4760097Y-5793434D01*
X4584994Y-5900772D01*
X4403187Y-5993033D01*
X4215463Y-6069895D01*
X4022607Y-6131038D01*
X3825406Y-6176140D01*
X3624647Y-6204881D01*
X3619041Y-6205442D01*
X3573646Y-6208715D01*
X3515431Y-6211094D01*
X3448359Y-6212583D01*
X3376391Y-6213185D01*
X3303490Y-6212903D01*
X3233617Y-6211741D01*
X3170737Y-6209702D01*
X3118809Y-6206788D01*
X3098216Y-6205008D01*
X2902482Y-6176669D01*
X2708732Y-6131934D01*
X2518187Y-6071305D01*
X2332067Y-5995283D01*
X2151593Y-5904372D01*
X1977985Y-5799074D01*
X1812465Y-5679891D01*
X1801591Y-5671339D01*
X1749183Y-5627489D01*
X1689752Y-5573741D01*
X1626713Y-5513511D01*
X1563481Y-5450214D01*
X1503472Y-5387265D01*
X1450099Y-5328079D01*
X1408479Y-5278228D01*
X1286384Y-5110617D01*
X1179046Y-4935514D01*
X1086786Y-4753707D01*
X1009923Y-4565983D01*
X948780Y-4373127D01*
X903678Y-4175926D01*
X874937Y-3975167D01*
X874376Y-3969561D01*
X870246Y-3913512D01*
X867413Y-3845176D01*
X865879Y-3769134D01*
X865642Y-3689967D01*
X866703Y-3612255D01*
X869062Y-3540577D01*
X872719Y-3479514D01*
X874376Y-3460777D01*
X902659Y-3259931D01*
X947313Y-3062621D01*
X1008016Y-2869634D01*
X1084447Y-2681756D01*
X1176285Y-2499775D01*
X1283210Y-2324476D01*
X1404900Y-2156647D01*
X1408479Y-2152111D01*
X1452329Y-2099703D01*
X1506077Y-2040272D01*
X1566307Y-1977233D01*
X1629604Y-1914001D01*
X1692553Y-1853992D01*
X1751739Y-1800619D01*
X1801591Y-1758999D01*
X1969202Y-1636904D01*
X2144304Y-1529566D01*
X2326111Y-1437306D01*
X2513836Y-1360443D01*
X2706692Y-1299300D01*
X2903892Y-1254198D01*
X3104651Y-1225457D01*
X3110257Y-1224896D01*
X3166307Y-1220766D01*
X3234642Y-1217933D01*
X3310684Y-1216399D01*
X3389851Y-1216162D01*
X3467564Y-1217223D01*
X3539241Y-1219582D01*
X3600304Y-1223239D01*
X3619041Y-1224896D01*
X3819887Y-1253179D01*
X4017197Y-1297833D01*
X4210184Y-1358536D01*
X4398062Y-1434967D01*
X4580043Y-1526805D01*
X4755342Y-1633730D01*
X4923171Y-1755420D01*
X4927708Y-1758999D01*
X4980115Y-1802849D01*
X5039546Y-1856597D01*
X5102585Y-1916827D01*
X5165817Y-1980124D01*
X5225827Y-2043073D01*
X5279199Y-2102259D01*
X5320819Y-2152111D01*
X5442914Y-2319722D01*
X5550252Y-2494824D01*
X5642513Y-2676631D01*
X5719375Y-2864356D01*
X5780518Y-3057212D01*
X5825620Y-3254412D01*
X5854361Y-3455171D01*
X5854922Y-3460777D01*
X5859052Y-3516827D01*
X5861885Y-3585162D01*
X5863420Y-3661204D01*
X5863656Y-3740371D01*
X5863656Y-3740371D01*
G36*
X4464216Y-4950068D02*
X4444408Y-5004971D01*
X4415568Y-5068304D01*
X4377647Y-5121418D01*
X4328954Y-5165745D01*
X4267796Y-5202718D01*
X4192482Y-5233768D01*
X4162585Y-5243465D01*
X4151361Y-5246840D01*
X4140446Y-5249793D01*
X4137601Y-5250411D01*
X4137601Y-4619649D01*
X4137398Y-4537923D01*
X4136994Y-4441254D01*
X4136765Y-4394553D01*
X4136237Y-4292428D01*
X4135728Y-4205855D01*
X4135185Y-4133473D01*
X4134552Y-4073918D01*
X4133777Y-4025828D01*
X4132803Y-3987838D01*
X4131577Y-3958586D01*
X4130044Y-3936708D01*
X4128150Y-3920843D01*
X4125840Y-3909627D01*
X4123060Y-3901696D01*
X4119755Y-3895687D01*
X4116652Y-3891290D01*
X4079072Y-3854566D01*
X4029975Y-3829383D01*
X4000109Y-3821124D01*
X3982430Y-3819116D01*
X3950111Y-3817433D01*
X3902857Y-3816070D01*
X3840371Y-3815027D01*
X3762359Y-3814298D01*
X3668525Y-3813881D01*
X3558574Y-3813774D01*
X3432210Y-3813972D01*
X3334546Y-3814289D01*
X2713367Y-3816668D01*
X2673250Y-3836425D01*
X2645651Y-3853436D01*
X2621756Y-3873866D01*
X2614042Y-3882945D01*
X2594952Y-3909708D01*
X2592359Y-4391826D01*
X2591885Y-4510541D01*
X2591817Y-4614288D01*
X2592151Y-4702770D01*
X2592884Y-4775685D01*
X2594012Y-4832734D01*
X2595531Y-4873618D01*
X2597439Y-4898036D01*
X2598514Y-4903899D01*
X2611002Y-4930657D01*
X2629501Y-4955120D01*
X2630963Y-4956560D01*
X2639893Y-4965104D01*
X2648426Y-4972551D01*
X2657728Y-4978979D01*
X2668961Y-4984463D01*
X2683291Y-4989080D01*
X2701880Y-4992906D01*
X2725894Y-4996018D01*
X2756496Y-4998491D01*
X2794850Y-5000403D01*
X2842121Y-5001829D01*
X2899472Y-5002846D01*
X2968067Y-5003530D01*
X3049071Y-5003958D01*
X3143648Y-5004206D01*
X3252962Y-5004350D01*
X3361272Y-5004450D01*
X3493971Y-5004485D01*
X3610384Y-5004320D01*
X3711138Y-5003948D01*
X3796864Y-5003360D01*
X3868190Y-5002547D01*
X3925744Y-5001500D01*
X3970156Y-5000212D01*
X4002055Y-4998674D01*
X4022068Y-4996878D01*
X4029471Y-4995420D01*
X4074694Y-4972919D01*
X4108622Y-4940430D01*
X4125438Y-4910037D01*
X4128396Y-4900808D01*
X4130883Y-4889035D01*
X4132927Y-4873339D01*
X4134559Y-4852343D01*
X4135810Y-4824670D01*
X4136709Y-4788941D01*
X4137287Y-4743780D01*
X4137575Y-4687808D01*
X4137601Y-4619649D01*
X4137601Y-5250411D01*
X4128676Y-5252352D01*
X4114890Y-5254551D01*
X4097923Y-5256418D01*
X4076614Y-5257987D01*
X4049798Y-5259288D01*
X4016314Y-5260351D01*
X3974999Y-5261209D01*
X3924689Y-5261891D01*
X3864222Y-5262430D01*
X3792435Y-5262856D01*
X3708164Y-5263200D01*
X3610248Y-5263493D01*
X3497523Y-5263767D01*
X3394253Y-5263997D01*
X3285127Y-5264147D01*
X3179947Y-5264118D01*
X3080073Y-5263920D01*
X2986866Y-5263564D01*
X2901688Y-5263061D01*
X2825897Y-5262421D01*
X2760856Y-5261655D01*
X2707925Y-5260774D01*
X2668464Y-5259788D01*
X2643835Y-5258707D01*
X2637243Y-5258097D01*
X2556383Y-5240330D01*
X2481721Y-5212383D01*
X2415561Y-5175642D01*
X2360206Y-5131494D01*
X2317959Y-5081325D01*
X2304033Y-5057538D01*
X2295532Y-5040306D01*
X2288233Y-5023488D01*
X2282043Y-5005703D01*
X2276871Y-4985567D01*
X2272626Y-4961698D01*
X2269215Y-4932714D01*
X2266546Y-4897232D01*
X2264530Y-4853870D01*
X2263072Y-4801246D01*
X2262083Y-4737976D01*
X2261469Y-4662678D01*
X2261140Y-4573970D01*
X2261004Y-4470470D01*
X2260978Y-4408405D01*
X2260980Y-4297647D01*
X2261110Y-4202401D01*
X2261464Y-4121263D01*
X2262139Y-4052829D01*
X2263233Y-3995694D01*
X2264841Y-3948454D01*
X2267062Y-3909706D01*
X2269991Y-3878044D01*
X2273726Y-3852065D01*
X2278364Y-3830364D01*
X2284001Y-3811538D01*
X2290734Y-3794181D01*
X2298661Y-3776890D01*
X2305508Y-3762998D01*
X2328805Y-3727975D01*
X2363179Y-3690697D01*
X2404059Y-3655335D01*
X2446873Y-3626060D01*
X2467895Y-3614857D01*
X2492460Y-3603705D01*
X2516939Y-3593870D01*
X2542494Y-3585277D01*
X2570287Y-3577853D01*
X2601483Y-3571522D01*
X2637244Y-3566211D01*
X2678733Y-3561846D01*
X2727112Y-3558353D01*
X2783544Y-3555657D01*
X2849194Y-3553683D01*
X2925222Y-3552359D01*
X3012793Y-3551610D01*
X3113068Y-3551360D01*
X3227212Y-3551538D01*
X3356386Y-3552067D01*
X3444551Y-3552539D01*
X3568407Y-3553257D01*
X3676619Y-3553969D01*
X3770462Y-3554772D01*
X3851208Y-3555763D01*
X3920131Y-3557035D01*
X3978503Y-3558686D01*
X4027598Y-3560810D01*
X4068688Y-3563505D01*
X4103048Y-3566864D01*
X4131950Y-3570985D01*
X4156668Y-3575963D01*
X4178474Y-3581894D01*
X4198641Y-3588874D01*
X4218444Y-3596997D01*
X4239154Y-3606361D01*
X4254332Y-3613452D01*
X4323120Y-3653256D01*
X4377976Y-3702121D01*
X4419904Y-3761161D01*
X4449513Y-3830266D01*
X4452513Y-3840756D01*
X4455079Y-3853077D01*
X4457245Y-3868555D01*
X4459043Y-3888513D01*
X4460507Y-3914277D01*
X4461670Y-3947171D01*
X4462567Y-3988520D01*
X4463229Y-4039648D01*
X4463692Y-4101880D01*
X4463987Y-4176540D01*
X4464150Y-4264953D01*
X4464212Y-4368444D01*
X4464216Y-4412971D01*
X4464216Y-4950068D01*
X4464216Y-4950068D01*
X4464216Y-4950068D01*
G37*
X4464216Y-4950068D02*
X4444408Y-5004971D01*
X4415568Y-5068304D01*
X4377647Y-5121418D01*
X4328954Y-5165745D01*
X4267796Y-5202718D01*
X4192482Y-5233768D01*
X4162585Y-5243465D01*
X4151361Y-5246840D01*
X4140446Y-5249793D01*
X4137601Y-5250411D01*
X4137601Y-4619649D01*
X4137398Y-4537923D01*
X4136994Y-4441254D01*
X4136765Y-4394553D01*
X4136237Y-4292428D01*
X4135728Y-4205855D01*
X4135185Y-4133473D01*
X4134552Y-4073918D01*
X4133777Y-4025828D01*
X4132803Y-3987838D01*
X4131577Y-3958586D01*
X4130044Y-3936708D01*
X4128150Y-3920843D01*
X4125840Y-3909627D01*
X4123060Y-3901696D01*
X4119755Y-3895687D01*
X4116652Y-3891290D01*
X4079072Y-3854566D01*
X4029975Y-3829383D01*
X4000109Y-3821124D01*
X3982430Y-3819116D01*
X3950111Y-3817433D01*
X3902857Y-3816070D01*
X3840371Y-3815027D01*
X3762359Y-3814298D01*
X3668525Y-3813881D01*
X3558574Y-3813774D01*
X3432210Y-3813972D01*
X3334546Y-3814289D01*
X2713367Y-3816668D01*
X2673250Y-3836425D01*
X2645651Y-3853436D01*
X2621756Y-3873866D01*
X2614042Y-3882945D01*
X2594952Y-3909708D01*
X2592359Y-4391826D01*
X2591885Y-4510541D01*
X2591817Y-4614288D01*
X2592151Y-4702770D01*
X2592884Y-4775685D01*
X2594012Y-4832734D01*
X2595531Y-4873618D01*
X2597439Y-4898036D01*
X2598514Y-4903899D01*
X2611002Y-4930657D01*
X2629501Y-4955120D01*
X2630963Y-4956560D01*
X2639893Y-4965104D01*
X2648426Y-4972551D01*
X2657728Y-4978979D01*
X2668961Y-4984463D01*
X2683291Y-4989080D01*
X2701880Y-4992906D01*
X2725894Y-4996018D01*
X2756496Y-4998491D01*
X2794850Y-5000403D01*
X2842121Y-5001829D01*
X2899472Y-5002846D01*
X2968067Y-5003530D01*
X3049071Y-5003958D01*
X3143648Y-5004206D01*
X3252962Y-5004350D01*
X3361272Y-5004450D01*
X3493971Y-5004485D01*
X3610384Y-5004320D01*
X3711138Y-5003948D01*
X3796864Y-5003360D01*
X3868190Y-5002547D01*
X3925744Y-5001500D01*
X3970156Y-5000212D01*
X4002055Y-4998674D01*
X4022068Y-4996878D01*
X4029471Y-4995420D01*
X4074694Y-4972919D01*
X4108622Y-4940430D01*
X4125438Y-4910037D01*
X4128396Y-4900808D01*
X4130883Y-4889035D01*
X4132927Y-4873339D01*
X4134559Y-4852343D01*
X4135810Y-4824670D01*
X4136709Y-4788941D01*
X4137287Y-4743780D01*
X4137575Y-4687808D01*
X4137601Y-4619649D01*
X4137601Y-5250411D01*
X4128676Y-5252352D01*
X4114890Y-5254551D01*
X4097923Y-5256418D01*
X4076614Y-5257987D01*
X4049798Y-5259288D01*
X4016314Y-5260351D01*
X3974999Y-5261209D01*
X3924689Y-5261891D01*
X3864222Y-5262430D01*
X3792435Y-5262856D01*
X3708164Y-5263200D01*
X3610248Y-5263493D01*
X3497523Y-5263767D01*
X3394253Y-5263997D01*
X3285127Y-5264147D01*
X3179947Y-5264118D01*
X3080073Y-5263920D01*
X2986866Y-5263564D01*
X2901688Y-5263061D01*
X2825897Y-5262421D01*
X2760856Y-5261655D01*
X2707925Y-5260774D01*
X2668464Y-5259788D01*
X2643835Y-5258707D01*
X2637243Y-5258097D01*
X2556383Y-5240330D01*
X2481721Y-5212383D01*
X2415561Y-5175642D01*
X2360206Y-5131494D01*
X2317959Y-5081325D01*
X2304033Y-5057538D01*
X2295532Y-5040306D01*
X2288233Y-5023488D01*
X2282043Y-5005703D01*
X2276871Y-4985567D01*
X2272626Y-4961698D01*
X2269215Y-4932714D01*
X2266546Y-4897232D01*
X2264530Y-4853870D01*
X2263072Y-4801246D01*
X2262083Y-4737976D01*
X2261469Y-4662678D01*
X2261140Y-4573970D01*
X2261004Y-4470470D01*
X2260978Y-4408405D01*
X2260980Y-4297647D01*
X2261110Y-4202401D01*
X2261464Y-4121263D01*
X2262139Y-4052829D01*
X2263233Y-3995694D01*
X2264841Y-3948454D01*
X2267062Y-3909706D01*
X2269991Y-3878044D01*
X2273726Y-3852065D01*
X2278364Y-3830364D01*
X2284001Y-3811538D01*
X2290734Y-3794181D01*
X2298661Y-3776890D01*
X2305508Y-3762998D01*
X2328805Y-3727975D01*
X2363179Y-3690697D01*
X2404059Y-3655335D01*
X2446873Y-3626060D01*
X2467895Y-3614857D01*
X2492460Y-3603705D01*
X2516939Y-3593870D01*
X2542494Y-3585277D01*
X2570287Y-3577853D01*
X2601483Y-3571522D01*
X2637244Y-3566211D01*
X2678733Y-3561846D01*
X2727112Y-3558353D01*
X2783544Y-3555657D01*
X2849194Y-3553683D01*
X2925222Y-3552359D01*
X3012793Y-3551610D01*
X3113068Y-3551360D01*
X3227212Y-3551538D01*
X3356386Y-3552067D01*
X3444551Y-3552539D01*
X3568407Y-3553257D01*
X3676619Y-3553969D01*
X3770462Y-3554772D01*
X3851208Y-3555763D01*
X3920131Y-3557035D01*
X3978503Y-3558686D01*
X4027598Y-3560810D01*
X4068688Y-3563505D01*
X4103048Y-3566864D01*
X4131950Y-3570985D01*
X4156668Y-3575963D01*
X4178474Y-3581894D01*
X4198641Y-3588874D01*
X4218444Y-3596997D01*
X4239154Y-3606361D01*
X4254332Y-3613452D01*
X4323120Y-3653256D01*
X4377976Y-3702121D01*
X4419904Y-3761161D01*
X4449513Y-3830266D01*
X4452513Y-3840756D01*
X4455079Y-3853077D01*
X4457245Y-3868555D01*
X4459043Y-3888513D01*
X4460507Y-3914277D01*
X4461670Y-3947171D01*
X4462567Y-3988520D01*
X4463229Y-4039648D01*
X4463692Y-4101880D01*
X4463987Y-4176540D01*
X4464150Y-4264953D01*
X4464212Y-4368444D01*
X4464216Y-4412971D01*
X4464216Y-4950068D01*
X4464216Y-4950068D01*
G36*
X4227386Y-3173844D02*
X4207247Y-3224593D01*
X4176924Y-3280373D01*
X4133471Y-3327228D01*
X4076230Y-3365676D01*
X4052971Y-3375590D01*
X4052971Y-2789280D01*
X4041889Y-2760864D01*
X4018878Y-2738539D01*
X4002686Y-2730861D01*
X3969677Y-2726370D01*
X3941657Y-2735075D01*
X3920094Y-2753622D01*
X3906460Y-2778659D01*
X3902227Y-2806835D01*
X3908865Y-2834797D01*
X3927845Y-2859193D01*
X3942134Y-2868851D01*
X3966496Y-2879516D01*
X3986706Y-2879706D01*
X4011463Y-2869472D01*
X4011871Y-2869261D01*
X4038240Y-2847658D01*
X4051847Y-2819605D01*
X4052971Y-2789280D01*
X4052971Y-3375590D01*
X4004544Y-3396234D01*
X3979678Y-3404072D01*
X3968249Y-3406985D01*
X3954427Y-3409488D01*
X3936890Y-3411619D01*
X3914317Y-3413413D01*
X3885390Y-3414905D01*
X3848786Y-3416131D01*
X3803186Y-3417127D01*
X3747269Y-3417928D01*
X3679715Y-3418571D01*
X3599203Y-3419091D01*
X3504414Y-3419523D01*
X3394253Y-3419903D01*
X3299926Y-3420141D01*
X3210216Y-3420263D01*
X3126620Y-3420274D01*
X3050634Y-3420178D01*
X2983755Y-3419980D01*
X2927479Y-3419686D01*
X2883303Y-3419299D01*
X2852724Y-3418825D01*
X2837237Y-3418267D01*
X2836011Y-3418135D01*
X2767562Y-3405606D01*
X2712836Y-3391976D01*
X2668640Y-3376019D01*
X2631783Y-3356507D01*
X2599070Y-3332213D01*
X2588883Y-3323161D01*
X2546662Y-3273270D01*
X2517847Y-3213525D01*
X2505578Y-3166212D01*
X2503360Y-3144710D01*
X2501585Y-3107098D01*
X2500264Y-3054179D01*
X2499408Y-2986753D01*
X2499027Y-2905623D01*
X2499132Y-2811589D01*
X2499633Y-2719068D01*
X2500351Y-2620991D01*
X2501124Y-2538264D01*
X2502167Y-2469318D01*
X2503692Y-2412589D01*
X2505915Y-2366509D01*
X2509049Y-2329511D01*
X2513309Y-2300030D01*
X2518907Y-2276498D01*
X2526059Y-2257350D01*
X2534977Y-2241017D01*
X2545877Y-2225934D01*
X2558972Y-2210534D01*
X2570907Y-2197228D01*
X2617318Y-2155748D01*
X2674163Y-2123506D01*
X2742501Y-2100171D01*
X2823390Y-2085413D01*
X2917890Y-2078902D01*
X2950941Y-2078506D01*
X3055924Y-2078506D01*
X3055924Y-2281342D01*
X3055924Y-2484177D01*
X3032664Y-2489255D01*
X2980347Y-2507720D01*
X2940082Y-2537280D01*
X2912705Y-2577209D01*
X2904185Y-2600569D01*
X2901491Y-2618645D01*
X2899124Y-2650557D01*
X2897214Y-2693226D01*
X2895892Y-2743572D01*
X2895289Y-2798516D01*
X2895266Y-2810595D01*
X2895324Y-2870081D01*
X2895703Y-2915305D01*
X2896655Y-2948922D01*
X2898435Y-2973585D01*
X2901293Y-2991948D01*
X2905484Y-3006666D01*
X2911261Y-3020392D01*
X2916220Y-3030508D01*
X2936743Y-3062334D01*
X2961656Y-3088375D01*
X2968464Y-3093491D01*
X2979967Y-3100891D01*
X2991219Y-3106326D01*
X3004937Y-3110099D01*
X3023840Y-3112513D01*
X3050645Y-3113871D01*
X3088070Y-3114477D01*
X3138833Y-3114632D01*
X3158133Y-3114636D01*
X3316559Y-3114636D01*
X3349062Y-3088660D01*
X3367351Y-3073384D01*
X3381648Y-3058734D01*
X3392442Y-3042451D01*
X3400225Y-3022276D01*
X3405488Y-2995948D01*
X3408721Y-2961208D01*
X3410416Y-2915796D01*
X3411063Y-2857453D01*
X3411156Y-2802834D01*
X3411092Y-2738990D01*
X3410765Y-2689709D01*
X3409985Y-2652638D01*
X3408563Y-2625426D01*
X3406311Y-2605718D01*
X3403039Y-2591161D01*
X3398558Y-2579404D01*
X3392680Y-2568093D01*
X3392229Y-2567290D01*
X3366673Y-2535925D01*
X3330323Y-2509193D01*
X3289301Y-2491417D01*
X3282182Y-2489568D01*
X3258921Y-2484177D01*
X3258921Y-2281342D01*
X3258921Y-2078506D01*
X3571131Y-2078506D01*
X3665091Y-2078698D01*
X3744024Y-2079401D01*
X3809812Y-2080807D01*
X3864343Y-2083107D01*
X3909501Y-2086493D01*
X3947171Y-2091156D01*
X3979239Y-2097288D01*
X4007589Y-2105080D01*
X4034106Y-2114723D01*
X4060676Y-2126409D01*
X4065554Y-2128717D01*
X4124491Y-2165678D01*
X4171379Y-2214196D01*
X4205283Y-2273285D01*
X4207213Y-2277960D01*
X4227386Y-2328023D01*
X4227386Y-2750933D01*
X4227386Y-3173844D01*
X4227386Y-3173844D01*
X4227386Y-3173844D01*
G37*
X4227386Y-3173844D02*
X4207247Y-3224593D01*
X4176924Y-3280373D01*
X4133471Y-3327228D01*
X4076230Y-3365676D01*
X4052971Y-3375590D01*
X4052971Y-2789280D01*
X4041889Y-2760864D01*
X4018878Y-2738539D01*
X4002686Y-2730861D01*
X3969677Y-2726370D01*
X3941657Y-2735075D01*
X3920094Y-2753622D01*
X3906460Y-2778659D01*
X3902227Y-2806835D01*
X3908865Y-2834797D01*
X3927845Y-2859193D01*
X3942134Y-2868851D01*
X3966496Y-2879516D01*
X3986706Y-2879706D01*
X4011463Y-2869472D01*
X4011871Y-2869261D01*
X4038240Y-2847658D01*
X4051847Y-2819605D01*
X4052971Y-2789280D01*
X4052971Y-3375590D01*
X4004544Y-3396234D01*
X3979678Y-3404072D01*
X3968249Y-3406985D01*
X3954427Y-3409488D01*
X3936890Y-3411619D01*
X3914317Y-3413413D01*
X3885390Y-3414905D01*
X3848786Y-3416131D01*
X3803186Y-3417127D01*
X3747269Y-3417928D01*
X3679715Y-3418571D01*
X3599203Y-3419091D01*
X3504414Y-3419523D01*
X3394253Y-3419903D01*
X3299926Y-3420141D01*
X3210216Y-3420263D01*
X3126620Y-3420274D01*
X3050634Y-3420178D01*
X2983755Y-3419980D01*
X2927479Y-3419686D01*
X2883303Y-3419299D01*
X2852724Y-3418825D01*
X2837237Y-3418267D01*
X2836011Y-3418135D01*
X2767562Y-3405606D01*
X2712836Y-3391976D01*
X2668640Y-3376019D01*
X2631783Y-3356507D01*
X2599070Y-3332213D01*
X2588883Y-3323161D01*
X2546662Y-3273270D01*
X2517847Y-3213525D01*
X2505578Y-3166212D01*
X2503360Y-3144710D01*
X2501585Y-3107098D01*
X2500264Y-3054179D01*
X2499408Y-2986753D01*
X2499027Y-2905623D01*
X2499132Y-2811589D01*
X2499633Y-2719068D01*
X2500351Y-2620991D01*
X2501124Y-2538264D01*
X2502167Y-2469318D01*
X2503692Y-2412589D01*
X2505915Y-2366509D01*
X2509049Y-2329511D01*
X2513309Y-2300030D01*
X2518907Y-2276498D01*
X2526059Y-2257350D01*
X2534977Y-2241017D01*
X2545877Y-2225934D01*
X2558972Y-2210534D01*
X2570907Y-2197228D01*
X2617318Y-2155748D01*
X2674163Y-2123506D01*
X2742501Y-2100171D01*
X2823390Y-2085413D01*
X2917890Y-2078902D01*
X2950941Y-2078506D01*
X3055924Y-2078506D01*
X3055924Y-2281342D01*
X3055924Y-2484177D01*
X3032664Y-2489255D01*
X2980347Y-2507720D01*
X2940082Y-2537280D01*
X2912705Y-2577209D01*
X2904185Y-2600569D01*
X2901491Y-2618645D01*
X2899124Y-2650557D01*
X2897214Y-2693226D01*
X2895892Y-2743572D01*
X2895289Y-2798516D01*
X2895266Y-2810595D01*
X2895324Y-2870081D01*
X2895703Y-2915305D01*
X2896655Y-2948922D01*
X2898435Y-2973585D01*
X2901293Y-2991948D01*
X2905484Y-3006666D01*
X2911261Y-3020392D01*
X2916220Y-3030508D01*
X2936743Y-3062334D01*
X2961656Y-3088375D01*
X2968464Y-3093491D01*
X2979967Y-3100891D01*
X2991219Y-3106326D01*
X3004937Y-3110099D01*
X3023840Y-3112513D01*
X3050645Y-3113871D01*
X3088070Y-3114477D01*
X3138833Y-3114632D01*
X3158133Y-3114636D01*
X3316559Y-3114636D01*
X3349062Y-3088660D01*
X3367351Y-3073384D01*
X3381648Y-3058734D01*
X3392442Y-3042451D01*
X3400225Y-3022276D01*
X3405488Y-2995948D01*
X3408721Y-2961208D01*
X3410416Y-2915796D01*
X3411063Y-2857453D01*
X3411156Y-2802834D01*
X3411092Y-2738990D01*
X3410765Y-2689709D01*
X3409985Y-2652638D01*
X3408563Y-2625426D01*
X3406311Y-2605718D01*
X3403039Y-2591161D01*
X3398558Y-2579404D01*
X3392680Y-2568093D01*
X3392229Y-2567290D01*
X3366673Y-2535925D01*
X3330323Y-2509193D01*
X3289301Y-2491417D01*
X3282182Y-2489568D01*
X3258921Y-2484177D01*
X3258921Y-2281342D01*
X3258921Y-2078506D01*
X3571131Y-2078506D01*
X3665091Y-2078698D01*
X3744024Y-2079401D01*
X3809812Y-2080807D01*
X3864343Y-2083107D01*
X3909501Y-2086493D01*
X3947171Y-2091156D01*
X3979239Y-2097288D01*
X4007589Y-2105080D01*
X4034106Y-2114723D01*
X4060676Y-2126409D01*
X4065554Y-2128717D01*
X4124491Y-2165678D01*
X4171379Y-2214196D01*
X4205283Y-2273285D01*
X4207213Y-2277960D01*
X4227386Y-2328023D01*
X4227386Y-2750933D01*
X4227386Y-3173844D01*
X4227386Y-3173844D01*
G36*
X3335045Y-4419150D02*
X3335020Y-4511003D01*
X3334905Y-4587460D01*
X3334637Y-4650041D01*
X3334157Y-4700268D01*
X3333402Y-4739660D01*
X3332312Y-4769738D01*
X3330825Y-4792023D01*
X3328881Y-4808035D01*
X3326418Y-4819295D01*
X3323376Y-4827322D01*
X3319692Y-4833638D01*
X3318296Y-4835648D01*
X3298780Y-4857227D01*
X3274141Y-4872100D01*
X3241291Y-4881231D01*
X3197145Y-4885584D01*
X3156145Y-4886300D01*
X3107681Y-4884828D01*
X3069251Y-4881031D01*
X3044087Y-4875245D01*
X3042360Y-4874541D01*
X3019905Y-4859840D01*
X2998708Y-4838500D01*
X2995840Y-4834696D01*
X2975572Y-4806278D01*
X2975572Y-4421061D01*
X2975564Y-4326958D01*
X2975671Y-4248264D01*
X2976086Y-4183472D01*
X2977002Y-4131076D01*
X2978613Y-4089568D01*
X2981112Y-4057443D01*
X2984693Y-4033192D01*
X2989548Y-4015308D01*
X2995873Y-4002286D01*
X3003859Y-3992618D01*
X3013701Y-3984798D01*
X3025592Y-3977317D01*
X3033124Y-3972772D01*
X3048149Y-3965276D01*
X3066328Y-3960395D01*
X3091478Y-3957617D01*
X3127418Y-3956426D01*
X3155728Y-3956260D01*
X3207197Y-3957250D01*
X3245235Y-3960927D01*
X3273244Y-3968290D01*
X3294623Y-3980335D01*
X3312776Y-3998063D01*
X3317382Y-4003720D01*
X3321504Y-4009362D01*
X3324929Y-4015877D01*
X3327722Y-4024783D01*
X3329947Y-4037596D01*
X3331669Y-4055832D01*
X3332952Y-4081008D01*
X3333860Y-4114640D01*
X3334459Y-4158244D01*
X3334812Y-4213337D01*
X3334985Y-4281435D01*
X3335041Y-4364055D01*
X3335045Y-4419150D01*
X3335045Y-4419150D01*
X3335045Y-4419150D01*
G37*
X3335045Y-4419150D02*
X3335020Y-4511003D01*
X3334905Y-4587460D01*
X3334637Y-4650041D01*
X3334157Y-4700268D01*
X3333402Y-4739660D01*
X3332312Y-4769738D01*
X3330825Y-4792023D01*
X3328881Y-4808035D01*
X3326418Y-4819295D01*
X3323376Y-4827322D01*
X3319692Y-4833638D01*
X3318296Y-4835648D01*
X3298780Y-4857227D01*
X3274141Y-4872100D01*
X3241291Y-4881231D01*
X3197145Y-4885584D01*
X3156145Y-4886300D01*
X3107681Y-4884828D01*
X3069251Y-4881031D01*
X3044087Y-4875245D01*
X3042360Y-4874541D01*
X3019905Y-4859840D01*
X2998708Y-4838500D01*
X2995840Y-4834696D01*
X2975572Y-4806278D01*
X2975572Y-4421061D01*
X2975564Y-4326958D01*
X2975671Y-4248264D01*
X2976086Y-4183472D01*
X2977002Y-4131076D01*
X2978613Y-4089568D01*
X2981112Y-4057443D01*
X2984693Y-4033192D01*
X2989548Y-4015308D01*
X2995873Y-4002286D01*
X3003859Y-3992618D01*
X3013701Y-3984798D01*
X3025592Y-3977317D01*
X3033124Y-3972772D01*
X3048149Y-3965276D01*
X3066328Y-3960395D01*
X3091478Y-3957617D01*
X3127418Y-3956426D01*
X3155728Y-3956260D01*
X3207197Y-3957250D01*
X3245235Y-3960927D01*
X3273244Y-3968290D01*
X3294623Y-3980335D01*
X3312776Y-3998063D01*
X3317382Y-4003720D01*
X3321504Y-4009362D01*
X3324929Y-4015877D01*
X3327722Y-4024783D01*
X3329947Y-4037596D01*
X3331669Y-4055832D01*
X3332952Y-4081008D01*
X3333860Y-4114640D01*
X3334459Y-4158244D01*
X3334812Y-4213337D01*
X3334985Y-4281435D01*
X3335041Y-4364055D01*
X3335045Y-4419150D01*
X3335045Y-4419150D01*
D11*
X7603067Y-31982857D02*
X7554686Y-32031238D01*
X7409543Y-32079619D01*
X7312781Y-32079619D01*
X7167639Y-32031238D01*
X7070877Y-31934476D01*
X7022496Y-31837714D01*
X6974115Y-31644190D01*
X6974115Y-31499048D01*
X7022496Y-31305524D01*
X7070877Y-31208762D01*
X7167639Y-31112000D01*
X7312781Y-31063619D01*
X7409543Y-31063619D01*
X7554686Y-31112000D01*
X7603067Y-31160381D01*
X8570686Y-32079619D02*
X7990115Y-32079619D01*
X8280401Y-32079619D02*
X8280401Y-31063619D01*
X8183639Y-31208762D01*
X8086877Y-31305524D01*
X7990115Y-31353905D01*
X873067Y-31832857D02*
X824686Y-31881238D01*
X679543Y-31929619D01*
X582781Y-31929619D01*
X437639Y-31881238D01*
X340877Y-31784476D01*
X292496Y-31687714D01*
X244115Y-31494190D01*
X244115Y-31349048D01*
X292496Y-31155524D01*
X340877Y-31058762D01*
X437639Y-30962000D01*
X582781Y-30913619D01*
X679543Y-30913619D01*
X824686Y-30962000D01*
X873067Y-31010381D01*
X1260115Y-31010381D02*
X1308496Y-30962000D01*
X1405258Y-30913619D01*
X1647162Y-30913619D01*
X1743924Y-30962000D01*
X1792305Y-31010381D01*
X1840686Y-31107143D01*
X1840686Y-31203905D01*
X1792305Y-31349048D01*
X1211734Y-31929619D01*
X1840686Y-31929619D01*
X67043067Y-45112857D02*
X66994686Y-45161238D01*
X66849543Y-45209619D01*
X66752781Y-45209619D01*
X66607639Y-45161238D01*
X66510877Y-45064476D01*
X66462496Y-44967714D01*
X66414115Y-44774190D01*
X66414115Y-44629048D01*
X66462496Y-44435524D01*
X66510877Y-44338762D01*
X66607639Y-44242000D01*
X66752781Y-44193619D01*
X66849543Y-44193619D01*
X66994686Y-44242000D01*
X67043067Y-44290381D01*
X67381734Y-44193619D02*
X68010686Y-44193619D01*
X67672020Y-44580667D01*
X67817162Y-44580667D01*
X67913924Y-44629048D01*
X67962305Y-44677429D01*
X68010686Y-44774190D01*
X68010686Y-45016095D01*
X67962305Y-45112857D01*
X67913924Y-45161238D01*
X67817162Y-45209619D01*
X67526877Y-45209619D01*
X67430115Y-45161238D01*
X67381734Y-45112857D01*
X12615257Y-8469333D02*
X12663638Y-8517714D01*
X12712019Y-8662857D01*
X12712019Y-8759619D01*
X12663638Y-8904761D01*
X12566876Y-9001523D01*
X12470114Y-9049904D01*
X12276590Y-9098285D01*
X12131448Y-9098285D01*
X11937924Y-9049904D01*
X11841162Y-9001523D01*
X11744400Y-8904761D01*
X11696019Y-8759619D01*
X11696019Y-8662857D01*
X11744400Y-8517714D01*
X11792781Y-8469333D01*
X12034686Y-7598476D02*
X12712019Y-7598476D01*
X11647638Y-7840380D02*
X12373352Y-8082285D01*
X12373352Y-7453333D01*
X67053067Y-34622857D02*
X67004686Y-34671238D01*
X66859543Y-34719619D01*
X66762781Y-34719619D01*
X66617639Y-34671238D01*
X66520877Y-34574476D01*
X66472496Y-34477714D01*
X66424115Y-34284190D01*
X66424115Y-34139048D01*
X66472496Y-33945524D01*
X66520877Y-33848762D01*
X66617639Y-33752000D01*
X66762781Y-33703619D01*
X66859543Y-33703619D01*
X67004686Y-33752000D01*
X67053067Y-33800381D01*
X67972305Y-33703619D02*
X67488496Y-33703619D01*
X67440115Y-34187429D01*
X67488496Y-34139048D01*
X67585258Y-34090667D01*
X67827162Y-34090667D01*
X67923924Y-34139048D01*
X67972305Y-34187429D01*
X68020686Y-34284190D01*
X68020686Y-34526095D01*
X67972305Y-34622857D01*
X67923924Y-34671238D01*
X67827162Y-34719619D01*
X67585258Y-34719619D01*
X67488496Y-34671238D01*
X67440115Y-34622857D01*
X40603067Y-43542857D02*
X40554686Y-43591238D01*
X40409543Y-43639619D01*
X40312781Y-43639619D01*
X40167639Y-43591238D01*
X40070877Y-43494476D01*
X40022496Y-43397714D01*
X39974115Y-43204190D01*
X39974115Y-43059048D01*
X40022496Y-42865524D01*
X40070877Y-42768762D01*
X40167639Y-42672000D01*
X40312781Y-42623619D01*
X40409543Y-42623619D01*
X40554686Y-42672000D01*
X40603067Y-42720381D01*
X41473924Y-42623619D02*
X41280401Y-42623619D01*
X41183639Y-42672000D01*
X41135258Y-42720381D01*
X41038496Y-42865524D01*
X40990115Y-43059048D01*
X40990115Y-43446095D01*
X41038496Y-43542857D01*
X41086877Y-43591238D01*
X41183639Y-43639619D01*
X41377162Y-43639619D01*
X41473924Y-43591238D01*
X41522305Y-43542857D01*
X41570686Y-43446095D01*
X41570686Y-43204190D01*
X41522305Y-43107429D01*
X41473924Y-43059048D01*
X41377162Y-43010667D01*
X41183639Y-43010667D01*
X41086877Y-43059048D01*
X41038496Y-43107429D01*
X40990115Y-43204190D01*
X18045257Y-40729333D02*
X18093638Y-40777714D01*
X18142019Y-40922857D01*
X18142019Y-41019619D01*
X18093638Y-41164761D01*
X17996876Y-41261523D01*
X17900114Y-41309904D01*
X17706590Y-41358285D01*
X17561448Y-41358285D01*
X17367924Y-41309904D01*
X17271162Y-41261523D01*
X17174400Y-41164761D01*
X17126019Y-41019619D01*
X17126019Y-40922857D01*
X17174400Y-40777714D01*
X17222781Y-40729333D01*
X17126019Y-40390666D02*
X17126019Y-39713333D01*
X18142019Y-40148761D01*
X32977667Y-43617657D02*
X32929286Y-43666038D01*
X32784143Y-43714419D01*
X32687381Y-43714419D01*
X32542239Y-43666038D01*
X32445477Y-43569276D01*
X32397096Y-43472514D01*
X32348715Y-43278990D01*
X32348715Y-43133848D01*
X32397096Y-42940324D01*
X32445477Y-42843562D01*
X32542239Y-42746800D01*
X32687381Y-42698419D01*
X32784143Y-42698419D01*
X32929286Y-42746800D01*
X32977667Y-42795181D01*
X33558239Y-43133848D02*
X33461477Y-43085467D01*
X33413096Y-43037086D01*
X33364715Y-42940324D01*
X33364715Y-42891943D01*
X33413096Y-42795181D01*
X33461477Y-42746800D01*
X33558239Y-42698419D01*
X33751762Y-42698419D01*
X33848524Y-42746800D01*
X33896905Y-42795181D01*
X33945286Y-42891943D01*
X33945286Y-42940324D01*
X33896905Y-43037086D01*
X33848524Y-43085467D01*
X33751762Y-43133848D01*
X33558239Y-43133848D01*
X33461477Y-43182229D01*
X33413096Y-43230610D01*
X33364715Y-43327371D01*
X33364715Y-43520895D01*
X33413096Y-43617657D01*
X33461477Y-43666038D01*
X33558239Y-43714419D01*
X33751762Y-43714419D01*
X33848524Y-43666038D01*
X33896905Y-43617657D01*
X33945286Y-43520895D01*
X33945286Y-43327371D01*
X33896905Y-43230610D01*
X33848524Y-43182229D01*
X33751762Y-43133848D01*
X17975257Y-35099333D02*
X18023638Y-35147714D01*
X18072019Y-35292857D01*
X18072019Y-35389619D01*
X18023638Y-35534761D01*
X17926876Y-35631523D01*
X17830114Y-35679904D01*
X17636590Y-35728285D01*
X17491448Y-35728285D01*
X17297924Y-35679904D01*
X17201162Y-35631523D01*
X17104400Y-35534761D01*
X17056019Y-35389619D01*
X17056019Y-35292857D01*
X17104400Y-35147714D01*
X17152781Y-35099333D01*
X18072019Y-34615523D02*
X18072019Y-34421999D01*
X18023638Y-34325238D01*
X17975257Y-34276857D01*
X17830114Y-34180095D01*
X17636590Y-34131714D01*
X17249543Y-34131714D01*
X17152781Y-34180095D01*
X17104400Y-34228476D01*
X17056019Y-34325238D01*
X17056019Y-34518761D01*
X17104400Y-34615523D01*
X17152781Y-34663904D01*
X17249543Y-34712285D01*
X17491448Y-34712285D01*
X17588210Y-34663904D01*
X17636590Y-34615523D01*
X17684971Y-34518761D01*
X17684971Y-34325238D01*
X17636590Y-34228476D01*
X17588210Y-34180095D01*
X17491448Y-34131714D01*
X17212496Y-43789619D02*
X17212496Y-42773619D01*
X17454401Y-42773619D01*
X17599543Y-42822000D01*
X17696305Y-42918762D01*
X17744686Y-43015524D01*
X17793067Y-43209048D01*
X17793067Y-43354190D01*
X17744686Y-43547714D01*
X17696305Y-43644476D01*
X17599543Y-43741238D01*
X17454401Y-43789619D01*
X17212496Y-43789619D01*
X18760686Y-43789619D02*
X18180115Y-43789619D01*
X18470401Y-43789619D02*
X18470401Y-42773619D01*
X18373639Y-42918762D01*
X18276877Y-43015524D01*
X18180115Y-43063905D01*
X16162496Y-12879619D02*
X16162496Y-11863619D01*
X16404401Y-11863619D01*
X16549543Y-11912000D01*
X16646305Y-12008762D01*
X16694686Y-12105524D01*
X16743067Y-12299048D01*
X16743067Y-12444190D01*
X16694686Y-12637714D01*
X16646305Y-12734476D01*
X16549543Y-12831238D01*
X16404401Y-12879619D01*
X16162496Y-12879619D01*
X17130115Y-11960381D02*
X17178496Y-11912000D01*
X17275258Y-11863619D01*
X17517162Y-11863619D01*
X17613924Y-11912000D01*
X17662305Y-11960381D01*
X17710686Y-12057143D01*
X17710686Y-12153905D01*
X17662305Y-12299048D01*
X17081734Y-12879619D01*
X17710686Y-12879619D01*
X1182496Y-11599619D02*
X1182496Y-10583619D01*
X1424401Y-10583619D01*
X1569543Y-10632000D01*
X1666305Y-10728762D01*
X1714686Y-10825524D01*
X1763067Y-11019048D01*
X1763067Y-11164190D01*
X1714686Y-11357714D01*
X1666305Y-11454476D01*
X1569543Y-11551238D01*
X1424401Y-11599619D01*
X1182496Y-11599619D01*
X2101734Y-10583619D02*
X2730686Y-10583619D01*
X2392020Y-10970667D01*
X2537162Y-10970667D01*
X2633924Y-11019048D01*
X2682305Y-11067429D01*
X2730686Y-11164190D01*
X2730686Y-11406095D01*
X2682305Y-11502857D01*
X2633924Y-11551238D01*
X2537162Y-11599619D01*
X2246877Y-11599619D01*
X2150115Y-11551238D01*
X2101734Y-11502857D01*
X12866019Y-23058667D02*
X13591733Y-23058667D01*
X13736876Y-23107047D01*
X13833638Y-23203809D01*
X13882019Y-23348952D01*
X13882019Y-23445714D01*
X13882019Y-22042667D02*
X13882019Y-22623238D01*
X13882019Y-22332952D02*
X12866019Y-22332952D01*
X13011162Y-22429714D01*
X13107924Y-22526476D01*
X13156305Y-22623238D01*
X12866019Y-45048667D02*
X13591733Y-45048667D01*
X13736876Y-45097047D01*
X13833638Y-45193809D01*
X13882019Y-45338952D01*
X13882019Y-45435714D01*
X12962781Y-44613238D02*
X12914400Y-44564857D01*
X12866019Y-44468095D01*
X12866019Y-44226191D01*
X12914400Y-44129429D01*
X12962781Y-44081048D01*
X13059543Y-44032667D01*
X13156305Y-44032667D01*
X13301448Y-44081048D01*
X13882019Y-44661619D01*
X13882019Y-44032667D01*
X55450619Y-12042987D02*
X56176333Y-12042987D01*
X56321476Y-12091367D01*
X56418238Y-12188129D01*
X56466619Y-12333272D01*
X56466619Y-12430034D01*
X56466619Y-11559177D02*
X55450619Y-11559177D01*
X55450619Y-11172130D01*
X55499000Y-11075368D01*
X55547381Y-11026987D01*
X55644143Y-10978606D01*
X55789286Y-10978606D01*
X55886048Y-11026987D01*
X55934429Y-11075368D01*
X55982810Y-11172130D01*
X55982810Y-11559177D01*
X56466619Y-10010987D02*
X56466619Y-10591558D01*
X56466619Y-10301272D02*
X55450619Y-10301272D01*
X55595762Y-10398034D01*
X55692524Y-10494796D01*
X55740905Y-10591558D01*
X66423419Y-28060952D02*
X65407419Y-28060952D01*
X65407419Y-27673905D01*
X65455800Y-27577143D01*
X65504181Y-27528762D01*
X65600943Y-27480381D01*
X65746086Y-27480381D01*
X65842848Y-27528762D01*
X65891229Y-27577143D01*
X65939610Y-27673905D01*
X65939610Y-28060952D01*
X66423419Y-26464381D02*
X65939610Y-26803047D01*
X66423419Y-27044952D02*
X65407419Y-27044952D01*
X65407419Y-26657905D01*
X65455800Y-26561143D01*
X65504181Y-26512762D01*
X65600943Y-26464381D01*
X65746086Y-26464381D01*
X65842848Y-26512762D01*
X65891229Y-26561143D01*
X65939610Y-26657905D01*
X65939610Y-27044952D01*
X65407419Y-25835428D02*
X65407419Y-25641905D01*
X65455800Y-25545143D01*
X65552562Y-25448381D01*
X65746086Y-25400000D01*
X66084752Y-25400000D01*
X66278276Y-25448381D01*
X66375038Y-25545143D01*
X66423419Y-25641905D01*
X66423419Y-25835428D01*
X66375038Y-25932190D01*
X66278276Y-26028952D01*
X66084752Y-26077333D01*
X65746086Y-26077333D01*
X65552562Y-26028952D01*
X65455800Y-25932190D01*
X65407419Y-25835428D01*
X65407419Y-25109714D02*
X65407419Y-24529143D01*
X66423419Y-24819428D02*
X65407419Y-24819428D01*
X65407419Y-23996952D02*
X65407419Y-23803429D01*
X65455800Y-23706667D01*
X65552562Y-23609905D01*
X65746086Y-23561524D01*
X66084752Y-23561524D01*
X66278276Y-23609905D01*
X66375038Y-23706667D01*
X66423419Y-23803429D01*
X66423419Y-23996952D01*
X66375038Y-24093714D01*
X66278276Y-24190476D01*
X66084752Y-24238857D01*
X65746086Y-24238857D01*
X65552562Y-24190476D01*
X65455800Y-24093714D01*
X65407419Y-23996952D01*
X65891229Y-22787429D02*
X65939610Y-22642286D01*
X65987990Y-22593905D01*
X66084752Y-22545524D01*
X66229895Y-22545524D01*
X66326657Y-22593905D01*
X66375038Y-22642286D01*
X66423419Y-22739048D01*
X66423419Y-23126095D01*
X65407419Y-23126095D01*
X65407419Y-22787429D01*
X65455800Y-22690667D01*
X65504181Y-22642286D01*
X65600943Y-22593905D01*
X65697705Y-22593905D01*
X65794467Y-22642286D01*
X65842848Y-22690667D01*
X65891229Y-22787429D01*
X65891229Y-23126095D01*
X65407419Y-21916571D02*
X65407419Y-21723048D01*
X65455800Y-21626286D01*
X65552562Y-21529524D01*
X65746086Y-21481143D01*
X66084752Y-21481143D01*
X66278276Y-21529524D01*
X66375038Y-21626286D01*
X66423419Y-21723048D01*
X66423419Y-21916571D01*
X66375038Y-22013333D01*
X66278276Y-22110095D01*
X66084752Y-22158476D01*
X65746086Y-22158476D01*
X65552562Y-22110095D01*
X65455800Y-22013333D01*
X65407419Y-21916571D01*
X66133133Y-21094095D02*
X66133133Y-20610286D01*
X66423419Y-21190857D02*
X65407419Y-20852190D01*
X66423419Y-20513524D01*
X66423419Y-19594286D02*
X65939610Y-19932952D01*
X66423419Y-20174857D02*
X65407419Y-20174857D01*
X65407419Y-19787810D01*
X65455800Y-19691048D01*
X65504181Y-19642667D01*
X65600943Y-19594286D01*
X65746086Y-19594286D01*
X65842848Y-19642667D01*
X65891229Y-19691048D01*
X65939610Y-19787810D01*
X65939610Y-20174857D01*
X66423419Y-19158857D02*
X65407419Y-19158857D01*
X65407419Y-18916952D01*
X65455800Y-18771810D01*
X65552562Y-18675048D01*
X65649324Y-18626667D01*
X65842848Y-18578286D01*
X65987990Y-18578286D01*
X66181514Y-18626667D01*
X66278276Y-18675048D01*
X66375038Y-18771810D01*
X66423419Y-18916952D01*
X66423419Y-19158857D01*
X66423419Y-17610667D02*
X66423419Y-18191238D01*
X66423419Y-17900952D02*
X65407419Y-17900952D01*
X65552562Y-17997714D01*
X65649324Y-18094476D01*
X65697705Y-18191238D01*
X18535638Y-31466381D02*
X18438876Y-31418000D01*
X18342114Y-31321238D01*
X18196971Y-31176095D01*
X18100210Y-31127714D01*
X18003448Y-31127714D01*
X18051829Y-31369619D02*
X17955067Y-31321238D01*
X17858305Y-31224476D01*
X17809924Y-31030952D01*
X17809924Y-30692286D01*
X17858305Y-30498762D01*
X17955067Y-30402000D01*
X18051829Y-30353619D01*
X18245352Y-30353619D01*
X18342114Y-30402000D01*
X18438876Y-30498762D01*
X18487257Y-30692286D01*
X18487257Y-31030952D01*
X18438876Y-31224476D01*
X18342114Y-31321238D01*
X18245352Y-31369619D01*
X18051829Y-31369619D01*
X19454876Y-31369619D02*
X18874305Y-31369619D01*
X19164591Y-31369619D02*
X19164591Y-30353619D01*
X19067829Y-30498762D01*
X18971067Y-30595524D01*
X18874305Y-30643905D01*
X8771467Y-35995619D02*
X8432801Y-35511810D01*
X8190896Y-35995619D02*
X8190896Y-34979619D01*
X8577943Y-34979619D01*
X8674705Y-35028000D01*
X8723086Y-35076381D01*
X8771467Y-35173143D01*
X8771467Y-35318286D01*
X8723086Y-35415048D01*
X8674705Y-35463429D01*
X8577943Y-35511810D01*
X8190896Y-35511810D01*
X9739086Y-35995619D02*
X9158515Y-35995619D01*
X9448801Y-35995619D02*
X9448801Y-34979619D01*
X9352039Y-35124762D01*
X9255277Y-35221524D01*
X9158515Y-35269905D01*
X9783067Y-13979619D02*
X9444401Y-13495810D01*
X9202496Y-13979619D02*
X9202496Y-12963619D01*
X9589543Y-12963619D01*
X9686305Y-13012000D01*
X9734686Y-13060381D01*
X9783067Y-13157143D01*
X9783067Y-13302286D01*
X9734686Y-13399048D01*
X9686305Y-13447429D01*
X9589543Y-13495810D01*
X9202496Y-13495810D01*
X10170115Y-13060381D02*
X10218496Y-13012000D01*
X10315258Y-12963619D01*
X10557162Y-12963619D01*
X10653924Y-13012000D01*
X10702305Y-13060381D01*
X10750686Y-13157143D01*
X10750686Y-13253905D01*
X10702305Y-13399048D01*
X10121734Y-13979619D01*
X10750686Y-13979619D01*
X7803067Y-13999619D02*
X7464401Y-13515810D01*
X7222496Y-13999619D02*
X7222496Y-12983619D01*
X7609543Y-12983619D01*
X7706305Y-13032000D01*
X7754686Y-13080381D01*
X7803067Y-13177143D01*
X7803067Y-13322286D01*
X7754686Y-13419048D01*
X7706305Y-13467429D01*
X7609543Y-13515810D01*
X7222496Y-13515810D01*
X8141734Y-12983619D02*
X8770686Y-12983619D01*
X8432020Y-13370667D01*
X8577162Y-13370667D01*
X8673924Y-13419048D01*
X8722305Y-13467429D01*
X8770686Y-13564190D01*
X8770686Y-13806095D01*
X8722305Y-13902857D01*
X8673924Y-13951238D01*
X8577162Y-13999619D01*
X8286877Y-13999619D01*
X8190115Y-13951238D01*
X8141734Y-13902857D01*
X11753067Y-10699619D02*
X11414401Y-10215810D01*
X11172496Y-10699619D02*
X11172496Y-9683619D01*
X11559543Y-9683619D01*
X11656305Y-9732000D01*
X11704686Y-9780381D01*
X11753067Y-9877143D01*
X11753067Y-10022286D01*
X11704686Y-10119048D01*
X11656305Y-10167429D01*
X11559543Y-10215810D01*
X11172496Y-10215810D01*
X12623924Y-10022286D02*
X12623924Y-10699619D01*
X12382020Y-9635238D02*
X12140115Y-10360952D01*
X12769067Y-10360952D01*
X4333067Y-8969619D02*
X3994401Y-8485810D01*
X3752496Y-8969619D02*
X3752496Y-7953619D01*
X4139543Y-7953619D01*
X4236305Y-8002000D01*
X4284686Y-8050381D01*
X4333067Y-8147143D01*
X4333067Y-8292286D01*
X4284686Y-8389048D01*
X4236305Y-8437429D01*
X4139543Y-8485810D01*
X3752496Y-8485810D01*
X5252305Y-7953619D02*
X4768496Y-7953619D01*
X4720115Y-8437429D01*
X4768496Y-8389048D01*
X4865258Y-8340667D01*
X5107162Y-8340667D01*
X5203924Y-8389048D01*
X5252305Y-8437429D01*
X5300686Y-8534190D01*
X5300686Y-8776095D01*
X5252305Y-8872857D01*
X5203924Y-8921238D01*
X5107162Y-8969619D01*
X4865258Y-8969619D01*
X4768496Y-8921238D01*
X4720115Y-8872857D01*
X20428067Y-16430219D02*
X20089401Y-15946410D01*
X19847496Y-16430219D02*
X19847496Y-15414219D01*
X20234543Y-15414219D01*
X20331305Y-15462600D01*
X20379686Y-15510981D01*
X20428067Y-15607743D01*
X20428067Y-15752886D01*
X20379686Y-15849648D01*
X20331305Y-15898029D01*
X20234543Y-15946410D01*
X19847496Y-15946410D01*
X21298924Y-15414219D02*
X21105401Y-15414219D01*
X21008639Y-15462600D01*
X20960258Y-15510981D01*
X20863496Y-15656124D01*
X20815115Y-15849648D01*
X20815115Y-16236695D01*
X20863496Y-16333457D01*
X20911877Y-16381838D01*
X21008639Y-16430219D01*
X21202162Y-16430219D01*
X21298924Y-16381838D01*
X21347305Y-16333457D01*
X21395686Y-16236695D01*
X21395686Y-15994790D01*
X21347305Y-15898029D01*
X21298924Y-15849648D01*
X21202162Y-15801267D01*
X21008639Y-15801267D01*
X20911877Y-15849648D01*
X20863496Y-15898029D01*
X20815115Y-15994790D01*
X15903067Y-5100219D02*
X15564401Y-4616410D01*
X15322496Y-5100219D02*
X15322496Y-4084219D01*
X15709543Y-4084219D01*
X15806305Y-4132600D01*
X15854686Y-4180981D01*
X15903067Y-4277743D01*
X15903067Y-4422886D01*
X15854686Y-4519648D01*
X15806305Y-4568029D01*
X15709543Y-4616410D01*
X15322496Y-4616410D01*
X16241734Y-4084219D02*
X16919067Y-4084219D01*
X16483639Y-5100219D01*
X18522019Y-24499333D02*
X18038210Y-24837999D01*
X18522019Y-25079904D02*
X17506019Y-25079904D01*
X17506019Y-24692857D01*
X17554400Y-24596095D01*
X17602781Y-24547714D01*
X17699543Y-24499333D01*
X17844686Y-24499333D01*
X17941448Y-24547714D01*
X17989829Y-24596095D01*
X18038210Y-24692857D01*
X18038210Y-25079904D01*
X18522019Y-24015523D02*
X18522019Y-23821999D01*
X18473638Y-23725238D01*
X18425257Y-23676857D01*
X18280114Y-23580095D01*
X18086590Y-23531714D01*
X17699543Y-23531714D01*
X17602781Y-23580095D01*
X17554400Y-23628476D01*
X17506019Y-23725238D01*
X17506019Y-23918761D01*
X17554400Y-24015523D01*
X17602781Y-24063904D01*
X17699543Y-24112285D01*
X17941448Y-24112285D01*
X18038210Y-24063904D01*
X18086590Y-24015523D01*
X18134971Y-23918761D01*
X18134971Y-23725238D01*
X18086590Y-23628476D01*
X18038210Y-23580095D01*
X17941448Y-23531714D01*
X13999257Y-51339619D02*
X13660591Y-50855810D01*
X13418686Y-51339619D02*
X13418686Y-50323619D01*
X13805733Y-50323619D01*
X13902495Y-50372000D01*
X13950876Y-50420381D01*
X13999257Y-50517143D01*
X13999257Y-50662286D01*
X13950876Y-50759048D01*
X13902495Y-50807429D01*
X13805733Y-50855810D01*
X13418686Y-50855810D01*
X14966876Y-51339619D02*
X14386305Y-51339619D01*
X14676591Y-51339619D02*
X14676591Y-50323619D01*
X14579829Y-50468762D01*
X14483067Y-50565524D01*
X14386305Y-50613905D01*
X15595829Y-50323619D02*
X15692590Y-50323619D01*
X15789352Y-50372000D01*
X15837733Y-50420381D01*
X15886114Y-50517143D01*
X15934495Y-50710667D01*
X15934495Y-50952571D01*
X15886114Y-51146095D01*
X15837733Y-51242857D01*
X15789352Y-51291238D01*
X15692590Y-51339619D01*
X15595829Y-51339619D01*
X15499067Y-51291238D01*
X15450686Y-51242857D01*
X15402305Y-51146095D01*
X15353924Y-50952571D01*
X15353924Y-50710667D01*
X15402305Y-50517143D01*
X15450686Y-50420381D01*
X15499067Y-50372000D01*
X15595829Y-50323619D01*
X14889257Y-36729619D02*
X14550591Y-36245810D01*
X14308686Y-36729619D02*
X14308686Y-35713619D01*
X14695733Y-35713619D01*
X14792495Y-35762000D01*
X14840876Y-35810381D01*
X14889257Y-35907143D01*
X14889257Y-36052286D01*
X14840876Y-36149048D01*
X14792495Y-36197429D01*
X14695733Y-36245810D01*
X14308686Y-36245810D01*
X15856876Y-36729619D02*
X15276305Y-36729619D01*
X15566591Y-36729619D02*
X15566591Y-35713619D01*
X15469829Y-35858762D01*
X15373067Y-35955524D01*
X15276305Y-36003905D01*
X16824495Y-36729619D02*
X16243924Y-36729619D01*
X16534210Y-36729619D02*
X16534210Y-35713619D01*
X16437448Y-35858762D01*
X16340686Y-35955524D01*
X16243924Y-36003905D01*
X13979257Y-26089619D02*
X13640591Y-25605810D01*
X13398686Y-26089619D02*
X13398686Y-25073619D01*
X13785733Y-25073619D01*
X13882495Y-25122000D01*
X13930876Y-25170381D01*
X13979257Y-25267143D01*
X13979257Y-25412286D01*
X13930876Y-25509048D01*
X13882495Y-25557429D01*
X13785733Y-25605810D01*
X13398686Y-25605810D01*
X14946876Y-26089619D02*
X14366305Y-26089619D01*
X14656591Y-26089619D02*
X14656591Y-25073619D01*
X14559829Y-25218762D01*
X14463067Y-25315524D01*
X14366305Y-25363905D01*
X15333924Y-25170381D02*
X15382305Y-25122000D01*
X15479067Y-25073619D01*
X15720971Y-25073619D01*
X15817733Y-25122000D01*
X15866114Y-25170381D01*
X15914495Y-25267143D01*
X15914495Y-25363905D01*
X15866114Y-25509048D01*
X15285543Y-26089619D01*
X15914495Y-26089619D01*
X13979257Y-14659619D02*
X13640591Y-14175810D01*
X13398686Y-14659619D02*
X13398686Y-13643619D01*
X13785733Y-13643619D01*
X13882495Y-13692000D01*
X13930876Y-13740381D01*
X13979257Y-13837143D01*
X13979257Y-13982286D01*
X13930876Y-14079048D01*
X13882495Y-14127429D01*
X13785733Y-14175810D01*
X13398686Y-14175810D01*
X14946876Y-14659619D02*
X14366305Y-14659619D01*
X14656591Y-14659619D02*
X14656591Y-13643619D01*
X14559829Y-13788762D01*
X14463067Y-13885524D01*
X14366305Y-13933905D01*
X15285543Y-13643619D02*
X15914495Y-13643619D01*
X15575829Y-14030667D01*
X15720971Y-14030667D01*
X15817733Y-14079048D01*
X15866114Y-14127429D01*
X15914495Y-14224190D01*
X15914495Y-14466095D01*
X15866114Y-14562857D01*
X15817733Y-14611238D01*
X15720971Y-14659619D01*
X15430686Y-14659619D01*
X15333924Y-14611238D01*
X15285543Y-14562857D01*
X17532019Y-8343143D02*
X17048210Y-8681809D01*
X17532019Y-8923714D02*
X16516019Y-8923714D01*
X16516019Y-8536667D01*
X16564400Y-8439905D01*
X16612781Y-8391524D01*
X16709543Y-8343143D01*
X16854686Y-8343143D01*
X16951448Y-8391524D01*
X16999829Y-8439905D01*
X17048210Y-8536667D01*
X17048210Y-8923714D01*
X17532019Y-7375524D02*
X17532019Y-7956095D01*
X17532019Y-7665809D02*
X16516019Y-7665809D01*
X16661162Y-7762571D01*
X16757924Y-7859333D01*
X16806305Y-7956095D01*
X16854686Y-6504667D02*
X17532019Y-6504667D01*
X16467638Y-6746571D02*
X17193352Y-6988476D01*
X17193352Y-6359524D01*
X12719257Y-3369619D02*
X12380591Y-2885810D01*
X12138686Y-3369619D02*
X12138686Y-2353619D01*
X12525733Y-2353619D01*
X12622495Y-2402000D01*
X12670876Y-2450381D01*
X12719257Y-2547143D01*
X12719257Y-2692286D01*
X12670876Y-2789048D01*
X12622495Y-2837429D01*
X12525733Y-2885810D01*
X12138686Y-2885810D01*
X13686876Y-3369619D02*
X13106305Y-3369619D01*
X13396591Y-3369619D02*
X13396591Y-2353619D01*
X13299829Y-2498762D01*
X13203067Y-2595524D01*
X13106305Y-2643905D01*
X14606114Y-2353619D02*
X14122305Y-2353619D01*
X14073924Y-2837429D01*
X14122305Y-2789048D01*
X14219067Y-2740667D01*
X14460971Y-2740667D01*
X14557733Y-2789048D01*
X14606114Y-2837429D01*
X14654495Y-2934190D01*
X14654495Y-3176095D01*
X14606114Y-3272857D01*
X14557733Y-3321238D01*
X14460971Y-3369619D01*
X14219067Y-3369619D01*
X14122305Y-3321238D01*
X14073924Y-3272857D01*
X19389257Y-11639619D02*
X19050591Y-11155810D01*
X18808686Y-11639619D02*
X18808686Y-10623619D01*
X19195733Y-10623619D01*
X19292495Y-10672000D01*
X19340876Y-10720381D01*
X19389257Y-10817143D01*
X19389257Y-10962286D01*
X19340876Y-11059048D01*
X19292495Y-11107429D01*
X19195733Y-11155810D01*
X18808686Y-11155810D01*
X20356876Y-11639619D02*
X19776305Y-11639619D01*
X20066591Y-11639619D02*
X20066591Y-10623619D01*
X19969829Y-10768762D01*
X19873067Y-10865524D01*
X19776305Y-10913905D01*
X21227733Y-10623619D02*
X21034210Y-10623619D01*
X20937448Y-10672000D01*
X20889067Y-10720381D01*
X20792305Y-10865524D01*
X20743924Y-11059048D01*
X20743924Y-11446095D01*
X20792305Y-11542857D01*
X20840686Y-11591238D01*
X20937448Y-11639619D01*
X21130971Y-11639619D01*
X21227733Y-11591238D01*
X21276114Y-11542857D01*
X21324495Y-11446095D01*
X21324495Y-11204190D01*
X21276114Y-11107429D01*
X21227733Y-11059048D01*
X21130971Y-11010667D01*
X20937448Y-11010667D01*
X20840686Y-11059048D01*
X20792305Y-11107429D01*
X20743924Y-11204190D01*
X8166705Y-704619D02*
X8166705Y-1527095D01*
X8215086Y-1623857D01*
X8263467Y-1672238D01*
X8360229Y-1720619D01*
X8553752Y-1720619D01*
X8650514Y-1672238D01*
X8698895Y-1623857D01*
X8747276Y-1527095D01*
X8747276Y-704619D01*
X9763276Y-1720619D02*
X9182705Y-1720619D01*
X9472991Y-1720619D02*
X9472991Y-704619D01*
X9376229Y-849762D01*
X9279467Y-946524D01*
X9182705Y-994905D01*
X23405733Y-9653619D02*
X23405733Y-10379333D01*
X23357353Y-10524476D01*
X23260591Y-10621238D01*
X23115448Y-10669619D01*
X23018686Y-10669619D01*
X23889543Y-10669619D02*
X23889543Y-9653619D01*
X24276590Y-9653619D01*
X24373352Y-9702000D01*
X24421733Y-9750381D01*
X24470114Y-9847143D01*
X24470114Y-9992286D01*
X24421733Y-10089048D01*
X24373352Y-10137429D01*
X24276590Y-10185810D01*
X23889543Y-10185810D01*
X24857162Y-9750381D02*
X24905543Y-9702000D01*
X25002305Y-9653619D01*
X25244209Y-9653619D01*
X25340971Y-9702000D01*
X25389352Y-9750381D01*
X25437733Y-9847143D01*
X25437733Y-9943905D01*
X25389352Y-10089048D01*
X24808781Y-10669619D01*
X25437733Y-10669619D01*
X28643067Y-10079619D02*
X28304401Y-9595810D01*
X28062496Y-10079619D02*
X28062496Y-9063619D01*
X28449543Y-9063619D01*
X28546305Y-9112000D01*
X28594686Y-9160381D01*
X28643067Y-9257143D01*
X28643067Y-9402286D01*
X28594686Y-9499048D01*
X28546305Y-9547429D01*
X28449543Y-9595810D01*
X28062496Y-9595810D01*
X29223639Y-9499048D02*
X29126877Y-9450667D01*
X29078496Y-9402286D01*
X29030115Y-9305524D01*
X29030115Y-9257143D01*
X29078496Y-9160381D01*
X29126877Y-9112000D01*
X29223639Y-9063619D01*
X29417162Y-9063619D01*
X29513924Y-9112000D01*
X29562305Y-9160381D01*
X29610686Y-9257143D01*
X29610686Y-9305524D01*
X29562305Y-9402286D01*
X29513924Y-9450667D01*
X29417162Y-9499048D01*
X29223639Y-9499048D01*
X29126877Y-9547429D01*
X29078496Y-9595810D01*
X29030115Y-9692571D01*
X29030115Y-9886095D01*
X29078496Y-9982857D01*
X29126877Y-10031238D01*
X29223639Y-10079619D01*
X29417162Y-10079619D01*
X29513924Y-10031238D01*
X29562305Y-9982857D01*
X29610686Y-9886095D01*
X29610686Y-9692571D01*
X29562305Y-9595810D01*
X29513924Y-9547429D01*
X29417162Y-9499048D01*
D20*
X21737114Y-48017285D02*
X21374257Y-48271285D01*
X21737114Y-48452713D02*
X20975114Y-48452713D01*
X20975114Y-48162428D01*
X21011400Y-48089856D01*
X21047686Y-48053571D01*
X21120257Y-48017285D01*
X21229114Y-48017285D01*
X21301686Y-48053571D01*
X21337971Y-48089856D01*
X21374257Y-48162428D01*
X21374257Y-48452713D01*
X20975114Y-47799571D02*
X20975114Y-47364142D01*
X21737114Y-47581856D02*
X20975114Y-47581856D01*
X21737114Y-46711000D02*
X21737114Y-47146428D01*
X21737114Y-46928714D02*
X20975114Y-46928714D01*
X21083971Y-47001285D01*
X21156543Y-47073857D01*
X21192829Y-47146428D01*
M02*
