%FSLAX34Y34*%
G04 Gerber Fmt 3.4, Leading zero omitted, Abs format*
G04 (created by PCBNEW (2014-03-19 BZR 4756)-product) date Tue 16 Sep 2014 15:57:37 BRT*
%MOIN*%
G01*
G70*
G90*
G04 APERTURE LIST*
%ADD10C,0.005906*%
%ADD11C,0.137795*%
%ADD12C,0.070000*%
%ADD13R,0.070000X0.070000*%
%ADD14C,0.062992*%
%ADD15R,0.062992X0.062992*%
%ADD16R,0.055000X0.035000*%
%ADD17R,0.035000X0.055000*%
%ADD18R,0.059055X0.102362*%
%ADD19R,0.040000X0.033500*%
%ADD20C,0.052000*%
%ADD21C,0.128000*%
%ADD22R,0.031500X0.039400*%
%ADD23R,0.023600X0.055100*%
%ADD24R,0.100000X0.050000*%
%ADD25C,0.035000*%
%ADD26C,0.025000*%
%ADD27C,0.050000*%
%ADD28C,0.030000*%
%ADD29C,0.040000*%
%ADD30C,0.020000*%
%ADD31C,0.015000*%
%ADD32C,0.012000*%
%ADD33C,0.010000*%
G04 APERTURE END LIST*
G54D10*
G54D11*
X25052Y-17500D03*
G54D12*
X25060Y-20000D03*
X24060Y-20000D03*
X23060Y-20000D03*
G54D13*
X20060Y-20000D03*
G54D12*
X21060Y-20000D03*
X22060Y-20000D03*
X25060Y-19000D03*
X24060Y-19000D03*
X23060Y-19000D03*
G54D13*
X20060Y-19000D03*
G54D12*
X21060Y-19000D03*
X22060Y-19000D03*
G54D14*
X1840Y-13633D03*
G54D15*
X1840Y-12846D03*
G54D16*
X410Y-13605D03*
X410Y-12855D03*
X26460Y-16775D03*
X26460Y-16025D03*
G54D17*
X6045Y-3250D03*
X5295Y-3250D03*
G54D16*
X26460Y-14275D03*
X26460Y-15025D03*
G54D17*
X16445Y-17620D03*
X15695Y-17620D03*
G54D14*
X7876Y-16000D03*
G54D15*
X8663Y-16000D03*
G54D17*
X12675Y-17620D03*
X13425Y-17620D03*
G54D14*
X8240Y-13376D03*
G54D15*
X8240Y-14163D03*
G54D18*
X6185Y-17889D03*
X7957Y-17889D03*
G54D19*
X4620Y-4900D03*
X6020Y-4900D03*
X2420Y-4900D03*
X1020Y-4900D03*
G54D12*
X7460Y-1000D03*
X10460Y-1000D03*
X11460Y-1000D03*
X9460Y-1000D03*
X8460Y-1000D03*
X12460Y-1000D03*
X13460Y-1000D03*
G54D13*
X16460Y-1000D03*
G54D12*
X15460Y-1000D03*
X14460Y-1000D03*
X7460Y-2000D03*
X10460Y-2000D03*
X11460Y-2000D03*
X9460Y-2000D03*
X8460Y-2000D03*
X12460Y-2000D03*
X13460Y-2000D03*
G54D13*
X16460Y-2000D03*
G54D12*
X15460Y-2000D03*
X14460Y-2000D03*
X19060Y-1000D03*
X20060Y-1000D03*
X18060Y-1000D03*
X21060Y-1000D03*
X22060Y-1000D03*
G54D13*
X25060Y-1000D03*
G54D12*
X24060Y-1000D03*
X23060Y-1000D03*
X19060Y-2000D03*
X20060Y-2000D03*
X18060Y-2000D03*
X21060Y-2000D03*
X22060Y-2000D03*
G54D13*
X25060Y-2000D03*
G54D12*
X24060Y-2000D03*
X23060Y-2000D03*
G54D20*
X4560Y-11580D03*
X4560Y-10680D03*
X4560Y-7080D03*
X4560Y-6180D03*
X2660Y-7480D03*
X2660Y-8280D03*
X2660Y-9080D03*
X2660Y-9880D03*
X1960Y-8680D03*
X1960Y-9480D03*
X1960Y-7880D03*
X1960Y-10280D03*
G54D21*
X960Y-11380D03*
X960Y-6380D03*
G54D20*
X4560Y-20300D03*
X4560Y-19400D03*
X4560Y-15800D03*
X4560Y-14900D03*
X2660Y-16200D03*
X2660Y-17000D03*
X2660Y-17800D03*
X2660Y-18600D03*
X1960Y-17400D03*
X1960Y-18200D03*
X1960Y-16600D03*
X1960Y-19000D03*
G54D21*
X960Y-20100D03*
X960Y-15100D03*
G54D13*
X23060Y-4300D03*
G54D12*
X23060Y-3300D03*
X24060Y-4300D03*
X24060Y-3300D03*
X25060Y-4300D03*
X25060Y-3300D03*
X17060Y-20000D03*
X16060Y-20000D03*
X18060Y-20000D03*
X15060Y-20000D03*
X14060Y-20000D03*
G54D13*
X11060Y-20000D03*
G54D12*
X12060Y-20000D03*
X13060Y-20000D03*
X17060Y-19000D03*
X16060Y-19000D03*
X18060Y-19000D03*
X15060Y-19000D03*
X14060Y-19000D03*
G54D13*
X11060Y-19000D03*
G54D12*
X12060Y-19000D03*
X13060Y-19000D03*
G54D13*
X25060Y-11500D03*
X24060Y-11500D03*
X23060Y-11500D03*
X22060Y-11500D03*
X21060Y-11500D03*
X20060Y-11500D03*
X19060Y-11500D03*
X16060Y-11500D03*
X15060Y-11500D03*
X17060Y-11500D03*
X18060Y-11500D03*
X14060Y-11500D03*
X13060Y-11500D03*
X10060Y-11500D03*
X11060Y-11500D03*
X12060Y-11500D03*
X12060Y-12500D03*
X11060Y-12500D03*
X10060Y-12500D03*
X13060Y-12500D03*
X14060Y-12500D03*
X18060Y-12500D03*
X17060Y-12500D03*
X15060Y-12500D03*
X16060Y-12500D03*
X19060Y-12500D03*
X20060Y-12500D03*
X21060Y-12500D03*
X22060Y-12500D03*
X23060Y-12500D03*
X24060Y-12500D03*
X25060Y-12500D03*
X25060Y-10500D03*
X24060Y-10500D03*
X23060Y-10500D03*
X22060Y-10500D03*
X21060Y-10500D03*
X20060Y-10500D03*
X19060Y-10500D03*
X16060Y-10500D03*
X15060Y-10500D03*
X17060Y-10500D03*
X18060Y-10500D03*
X14060Y-10500D03*
X13060Y-10500D03*
X10060Y-10500D03*
X11060Y-10500D03*
X12060Y-10500D03*
X12060Y-9500D03*
X11060Y-9500D03*
X10060Y-9500D03*
X13060Y-9500D03*
X14060Y-9500D03*
X18060Y-9500D03*
X17060Y-9500D03*
X15060Y-9500D03*
X16060Y-9500D03*
X19060Y-9500D03*
X20060Y-9500D03*
X21060Y-9500D03*
X22060Y-9500D03*
X23060Y-9500D03*
X24060Y-9500D03*
X25060Y-9500D03*
X25060Y-8500D03*
X24060Y-8500D03*
X23060Y-8500D03*
X22060Y-8500D03*
X21060Y-8500D03*
X20060Y-8500D03*
X19060Y-8500D03*
X16060Y-8500D03*
X15060Y-8500D03*
X17060Y-8500D03*
X18060Y-8500D03*
X14060Y-8500D03*
X13060Y-8500D03*
X10060Y-8500D03*
X11060Y-8500D03*
X12060Y-8500D03*
X12060Y-7500D03*
X11060Y-7500D03*
X10060Y-7500D03*
X13060Y-7500D03*
X14060Y-7500D03*
X18060Y-7500D03*
X17060Y-7500D03*
X15060Y-7500D03*
X16060Y-7500D03*
X19060Y-7500D03*
X20060Y-7500D03*
X21060Y-7500D03*
X22060Y-7500D03*
X23060Y-7500D03*
X24060Y-7500D03*
X25060Y-7500D03*
X25060Y-6500D03*
X24060Y-6500D03*
X23060Y-6500D03*
X22060Y-6500D03*
X21060Y-6500D03*
X20060Y-6500D03*
X19060Y-6500D03*
X16060Y-6500D03*
X15060Y-6500D03*
X17060Y-6500D03*
X18060Y-6500D03*
X14060Y-6500D03*
X13060Y-6500D03*
X10060Y-6500D03*
X11060Y-6500D03*
X12060Y-6500D03*
X12060Y-5500D03*
X11060Y-5500D03*
X10060Y-5500D03*
X13060Y-5500D03*
X14060Y-5500D03*
X18060Y-5500D03*
X17060Y-5500D03*
X15060Y-5500D03*
X16060Y-5500D03*
X19060Y-5500D03*
X20060Y-5500D03*
X21060Y-5500D03*
X22060Y-5500D03*
X23060Y-5500D03*
X24060Y-5500D03*
X25060Y-5500D03*
X25060Y-15000D03*
X24060Y-15000D03*
X23060Y-15000D03*
X22060Y-15000D03*
X21060Y-15000D03*
X20060Y-15000D03*
X19060Y-15000D03*
X16060Y-15000D03*
X15060Y-15000D03*
X17060Y-15000D03*
X18060Y-15000D03*
X14060Y-15000D03*
X13060Y-15000D03*
X10060Y-15000D03*
X11060Y-15000D03*
X12060Y-15000D03*
X25060Y-16000D03*
X24060Y-16000D03*
X23060Y-16000D03*
X22060Y-16000D03*
X21060Y-16000D03*
X20060Y-16000D03*
X19060Y-16000D03*
X16060Y-16000D03*
X15060Y-16000D03*
X17060Y-16000D03*
X18060Y-16000D03*
X14060Y-16000D03*
X13060Y-16000D03*
X10060Y-16000D03*
X11060Y-16000D03*
X12060Y-16000D03*
X25060Y-14000D03*
X24060Y-14000D03*
X23060Y-14000D03*
X22060Y-14000D03*
X21060Y-14000D03*
X20060Y-14000D03*
X19060Y-14000D03*
X16060Y-14000D03*
X15060Y-14000D03*
X17060Y-14000D03*
X18060Y-14000D03*
X14060Y-14000D03*
X13060Y-14000D03*
X10060Y-14000D03*
X11060Y-14000D03*
X12060Y-14000D03*
G54D22*
X7327Y-11594D03*
X6952Y-10728D03*
X7702Y-10728D03*
G54D17*
X3895Y-13400D03*
X3145Y-13400D03*
G54D16*
X3920Y-4725D03*
X3920Y-3975D03*
X3120Y-4725D03*
X3120Y-3975D03*
G54D17*
X5295Y-4000D03*
X6045Y-4000D03*
X1695Y-3950D03*
X2445Y-3950D03*
G54D16*
X8122Y-4995D03*
X8122Y-5745D03*
X6371Y-546D03*
X6371Y-1296D03*
X7701Y-9953D03*
X7701Y-9203D03*
G54D17*
X5385Y-19401D03*
X6135Y-19401D03*
X5385Y-14901D03*
X6135Y-14901D03*
X5385Y-10681D03*
X6135Y-10681D03*
X5385Y-6181D03*
X6135Y-6181D03*
X7373Y-2988D03*
X8123Y-2988D03*
X4885Y-551D03*
X5635Y-551D03*
X7373Y-3783D03*
X8123Y-3783D03*
G54D23*
X4270Y-3200D03*
X4270Y-1100D03*
X3770Y-3200D03*
X3270Y-3200D03*
X2770Y-3200D03*
X3770Y-1100D03*
X3270Y-1100D03*
X2770Y-1100D03*
G54D13*
X9052Y-3196D03*
G54D12*
X10052Y-3196D03*
G54D17*
X11718Y-3196D03*
X10968Y-3196D03*
G54D24*
X9170Y-19340D03*
X9170Y-18140D03*
G54D25*
X5410Y-14240D03*
X5288Y-2669D03*
X6685Y-4204D03*
X8670Y-16000D03*
X5453Y-18500D03*
X5453Y-17232D03*
X11339Y-2665D03*
X5827Y-2669D03*
X6045Y-4511D03*
X6953Y-10251D03*
G54D26*
X665Y-4900D03*
G54D25*
X2360Y-3200D03*
X26460Y-13860D03*
X26460Y-17180D03*
X16900Y-17620D03*
X12220Y-17620D03*
X12158Y-3476D03*
X12158Y-4318D03*
X7701Y-8771D03*
X9252Y-8771D03*
X3599Y-17000D03*
G54D26*
X3810Y-8280D03*
G54D25*
X4119Y-18440D03*
X4119Y-17314D03*
X7178Y-4437D03*
X8252Y-8448D03*
X6906Y-15338D03*
X6906Y-14480D03*
X8252Y-7078D03*
X6725Y-2118D03*
G54D27*
X2660Y-18600D02*
X2908Y-18600D01*
X3619Y-17889D02*
X6185Y-17889D01*
X2908Y-18600D02*
X3619Y-17889D01*
G54D28*
X2360Y-18600D02*
X1960Y-19000D01*
X2660Y-18600D02*
X2360Y-18600D01*
G54D27*
X2520Y-10020D02*
X2660Y-9880D01*
X1240Y-18480D02*
X1240Y-16340D01*
X1960Y-19000D02*
X1760Y-19000D01*
X1240Y-18480D02*
X1760Y-19000D01*
X1240Y-16340D02*
X2520Y-15060D01*
X2520Y-12840D02*
X2520Y-10020D01*
X2520Y-15060D02*
X2520Y-12840D01*
X2520Y-10020D02*
X2660Y-9880D01*
X2260Y-10280D02*
X2520Y-10020D01*
X1960Y-10280D02*
X2260Y-10280D01*
G54D29*
X2520Y-12846D02*
X2520Y-12840D01*
X1840Y-12846D02*
X2520Y-12846D01*
G54D28*
X1831Y-12855D02*
X1840Y-12846D01*
X410Y-12855D02*
X1831Y-12855D01*
G54D29*
X8240Y-14163D02*
X8542Y-14163D01*
X8542Y-14163D02*
X9378Y-15000D01*
G54D27*
X13670Y-16880D02*
X9680Y-16880D01*
X14060Y-20000D02*
X14060Y-19000D01*
G54D29*
X10060Y-15000D02*
X11060Y-15000D01*
X11060Y-15000D02*
X12060Y-15000D01*
X12060Y-15000D02*
X13060Y-15000D01*
X13060Y-15000D02*
X14060Y-15000D01*
X14060Y-15000D02*
X15060Y-15000D01*
X15060Y-15000D02*
X16060Y-15000D01*
X16060Y-15000D02*
X17060Y-15000D01*
X17060Y-15000D02*
X18060Y-15000D01*
X18060Y-15000D02*
X19060Y-15000D01*
X19060Y-15000D02*
X20060Y-15000D01*
X20060Y-15000D02*
X21060Y-15000D01*
X21060Y-15000D02*
X22060Y-15000D01*
X22060Y-15000D02*
X23060Y-15000D01*
X23060Y-15000D02*
X24060Y-15000D01*
X24060Y-15000D02*
X25060Y-15000D01*
G54D28*
X14085Y-18975D02*
X14060Y-19000D01*
G54D29*
X14085Y-18975D02*
X14060Y-19000D01*
G54D30*
X25085Y-15025D02*
X25060Y-15000D01*
X26460Y-15025D02*
X25085Y-15025D01*
G54D27*
X9340Y-15000D02*
X9378Y-15000D01*
X9378Y-15000D02*
X10060Y-15000D01*
X9330Y-16530D02*
X9330Y-15010D01*
X14060Y-17270D02*
X13670Y-16880D01*
X9680Y-16880D02*
X9330Y-16530D01*
X9330Y-15010D02*
X9340Y-15000D01*
X14060Y-17660D02*
X14060Y-17270D01*
X14060Y-19000D02*
X14060Y-17660D01*
G54D28*
X14060Y-17620D02*
X14060Y-17660D01*
X13425Y-17620D02*
X14060Y-17620D01*
G54D30*
X7461Y-14610D02*
X7422Y-14610D01*
X7130Y-14901D02*
X6135Y-14901D01*
X7422Y-14610D02*
X7130Y-14901D01*
G54D29*
X8663Y-16000D02*
X8663Y-15812D01*
X8663Y-15812D02*
X7461Y-14610D01*
X7461Y-14610D02*
X7461Y-12980D01*
G54D30*
X6135Y-6181D02*
X6662Y-6181D01*
X6662Y-6181D02*
X6685Y-6204D01*
G54D31*
X2240Y-2640D02*
X5259Y-2640D01*
X2240Y-2640D02*
X1695Y-3185D01*
X1695Y-3950D02*
X1695Y-3185D01*
X5259Y-2640D02*
X5288Y-2669D01*
G54D30*
X5288Y-3243D02*
X5288Y-2669D01*
G54D29*
X8788Y-8307D02*
X6685Y-6204D01*
X8788Y-11653D02*
X8788Y-8307D01*
X7461Y-12980D02*
X8788Y-11653D01*
X6685Y-6204D02*
X6685Y-4204D01*
G54D30*
X5288Y-3243D02*
X5295Y-3250D01*
X6135Y-10681D02*
X6135Y-6181D01*
G54D29*
X25060Y-16000D02*
X24060Y-16000D01*
G54D27*
X15060Y-20000D02*
X15060Y-19000D01*
G54D29*
X24060Y-16000D02*
X23060Y-16000D01*
X23060Y-16000D02*
X22060Y-16000D01*
X22060Y-16000D02*
X21060Y-16000D01*
X21060Y-16000D02*
X20060Y-16000D01*
X19060Y-16000D02*
X18060Y-16000D01*
X20060Y-16000D02*
X19060Y-16000D01*
X17060Y-16000D02*
X18060Y-16000D01*
X16060Y-16000D02*
X17060Y-16000D01*
X15060Y-16000D02*
X16060Y-16000D01*
G54D27*
X14060Y-16000D02*
X15060Y-16000D01*
X10060Y-16000D02*
X11060Y-16000D01*
X11060Y-16000D02*
X12060Y-16000D01*
X12060Y-16000D02*
X13060Y-16000D01*
X13060Y-16000D02*
X14060Y-16000D01*
G54D30*
X25085Y-16025D02*
X25060Y-16000D01*
X26460Y-16025D02*
X25085Y-16025D01*
G54D27*
X15060Y-17620D02*
X15060Y-16000D01*
X15060Y-19000D02*
X15060Y-17620D01*
G54D28*
X15695Y-17620D02*
X15060Y-17620D01*
G54D30*
X6135Y-19182D02*
X6135Y-19401D01*
X6135Y-16313D02*
X5453Y-16996D01*
X5453Y-16996D02*
X5453Y-17232D01*
X6135Y-14901D02*
X6135Y-16313D01*
X5453Y-18500D02*
X6135Y-19182D01*
X5245Y-3200D02*
X5295Y-3250D01*
X5245Y-3200D02*
X5295Y-3250D01*
X4270Y-3200D02*
X5245Y-3200D01*
X5295Y-3250D02*
X5300Y-3250D01*
G54D29*
X20060Y-20000D02*
X20060Y-19000D01*
X21060Y-19000D02*
X21060Y-20000D01*
X22060Y-20000D02*
X22060Y-19000D01*
X23060Y-19000D02*
X23060Y-20000D01*
X8460Y-1000D02*
X8460Y-2000D01*
X24060Y-20000D02*
X24060Y-19000D01*
X7460Y-1000D02*
X7460Y-2000D01*
X25060Y-19000D02*
X25060Y-20000D01*
X9460Y-1000D02*
X9460Y-2000D01*
G54D32*
X11718Y-3196D02*
X11718Y-3044D01*
G54D30*
X11718Y-3044D02*
X11339Y-2665D01*
X6045Y-3250D02*
X6045Y-2886D01*
X6045Y-2886D02*
X5827Y-2669D01*
X6952Y-10728D02*
X6952Y-10252D01*
X6952Y-10252D02*
X6953Y-10251D01*
X1061Y-4900D02*
X665Y-4900D01*
G54D29*
X10460Y-1000D02*
X10460Y-2000D01*
G54D28*
X2360Y-16200D02*
X1960Y-16600D01*
X2660Y-16200D02*
X2360Y-16200D01*
G54D30*
X6045Y-3250D02*
X6045Y-4000D01*
G54D31*
X2770Y-3200D02*
X2360Y-3200D01*
G54D30*
X26460Y-14275D02*
X26460Y-13860D01*
X26460Y-16775D02*
X26460Y-17180D01*
G54D28*
X2360Y-7480D02*
X1960Y-7880D01*
X2660Y-7480D02*
X2360Y-7480D01*
X1811Y-13605D02*
X1840Y-13633D01*
X410Y-13605D02*
X1811Y-13605D01*
X16445Y-17620D02*
X16900Y-17620D01*
X12675Y-17620D02*
X12220Y-17620D01*
G54D30*
X6045Y-4834D02*
X5979Y-4900D01*
X6045Y-4000D02*
X6045Y-4511D01*
X6045Y-4511D02*
X6045Y-4834D01*
G54D32*
X25060Y-2000D02*
X25060Y-3300D01*
G54D29*
X25060Y-1000D02*
X25060Y-2000D01*
G54D33*
X25060Y-2000D02*
X25060Y-2300D01*
G54D32*
X24060Y-2000D02*
X24060Y-2409D01*
X24556Y-3796D02*
X25060Y-4300D01*
X24556Y-2905D02*
X24556Y-3796D01*
X24060Y-2409D02*
X24556Y-2905D01*
G54D29*
X24060Y-1000D02*
X24060Y-2000D01*
G54D33*
X24060Y-2000D02*
X24060Y-2300D01*
G54D29*
X14460Y-1000D02*
X14460Y-2000D01*
X13460Y-1000D02*
X13460Y-2000D01*
X12460Y-1000D02*
X12460Y-2000D01*
G54D32*
X12158Y-4318D02*
X9945Y-4318D01*
X12158Y-2708D02*
X12158Y-3476D01*
X11460Y-2010D02*
X12158Y-2708D01*
X9252Y-8771D02*
X9252Y-5011D01*
X7701Y-8771D02*
X7701Y-9203D01*
X9945Y-4318D02*
X9252Y-5011D01*
X11460Y-2000D02*
X11460Y-2010D01*
G54D29*
X11460Y-1000D02*
X11460Y-2000D01*
G54D31*
X22410Y-354D02*
X7052Y-354D01*
X23056Y-1000D02*
X22410Y-354D01*
X6860Y-546D02*
X6371Y-546D01*
X7052Y-354D02*
X6860Y-546D01*
X5635Y-551D02*
X6366Y-551D01*
X6366Y-551D02*
X6371Y-546D01*
X23060Y-1000D02*
X23056Y-1000D01*
G54D29*
X23060Y-1000D02*
X23060Y-2000D01*
G54D32*
X22060Y-2000D02*
X22060Y-2300D01*
X22060Y-2300D02*
X23060Y-3300D01*
G54D29*
X22060Y-1000D02*
X22060Y-2000D01*
X21060Y-1000D02*
X21060Y-2000D01*
X20060Y-1000D02*
X20060Y-2000D01*
X19060Y-1000D02*
X19060Y-2000D01*
X18060Y-1000D02*
X18060Y-2000D01*
X16460Y-1000D02*
X16460Y-2000D01*
X15460Y-1000D02*
X15460Y-2000D01*
G54D27*
X13060Y-20000D02*
X13060Y-19000D01*
G54D30*
X2554Y-4725D02*
X2379Y-4900D01*
G54D28*
X2360Y-17800D02*
X1960Y-18200D01*
X2660Y-17800D02*
X2360Y-17800D01*
G54D30*
X3125Y-4730D02*
X3120Y-4725D01*
X3120Y-4725D02*
X2554Y-4725D01*
X3080Y-4765D02*
X3120Y-4725D01*
X3145Y-13400D02*
X3220Y-13325D01*
G54D28*
X2360Y-9080D02*
X1960Y-9480D01*
X2660Y-9080D02*
X2360Y-9080D01*
G54D30*
X2660Y-9080D02*
X2770Y-9080D01*
X3220Y-4825D02*
X3120Y-4725D01*
X3220Y-8960D02*
X3220Y-4825D01*
X3220Y-9070D02*
X3220Y-8960D01*
X3210Y-9080D02*
X3220Y-9070D01*
X2660Y-9080D02*
X3210Y-9080D01*
X3210Y-13335D02*
X3145Y-13400D01*
X3220Y-13325D02*
X3145Y-13400D01*
X3220Y-8960D02*
X3220Y-13325D01*
X3220Y-13475D02*
X3145Y-13400D01*
X2660Y-17800D02*
X2860Y-17800D01*
X2860Y-17800D02*
X3220Y-17440D01*
X3220Y-17440D02*
X3220Y-13475D01*
X3820Y-13475D02*
X3820Y-16779D01*
X3820Y-16779D02*
X3599Y-17000D01*
X3820Y-13475D02*
X3895Y-13400D01*
X3820Y-13325D02*
X3820Y-8820D01*
X3820Y-8820D02*
X3820Y-8280D01*
X3820Y-13325D02*
X3895Y-13400D01*
X4620Y-4900D02*
X4445Y-4725D01*
X4661Y-4900D02*
X4620Y-4900D01*
X4445Y-4725D02*
X3920Y-4725D01*
G54D28*
X2360Y-17000D02*
X1960Y-17400D01*
X2660Y-17000D02*
X2360Y-17000D01*
G54D30*
X3875Y-4770D02*
X3920Y-4725D01*
X3820Y-13325D02*
X3895Y-13400D01*
X3820Y-13475D02*
X3895Y-13400D01*
X3820Y-4825D02*
X3920Y-4725D01*
X3820Y-8280D02*
X3820Y-4825D01*
G54D28*
X2360Y-8280D02*
X1960Y-8680D01*
X2660Y-8280D02*
X2360Y-8280D01*
G54D30*
X3810Y-8280D02*
X3820Y-8280D01*
G54D32*
X8123Y-2988D02*
X8843Y-2988D01*
X8843Y-2988D02*
X9052Y-3196D01*
X23634Y-3799D02*
X9654Y-3799D01*
X24060Y-3374D02*
X23634Y-3799D01*
X9654Y-3799D02*
X9052Y-3196D01*
X24060Y-3300D02*
X24060Y-3374D01*
X23532Y-4826D02*
X22422Y-4826D01*
X24059Y-4300D02*
X23532Y-4826D01*
X21594Y-3999D02*
X8064Y-3999D01*
X22422Y-4826D02*
X21594Y-3999D01*
X8064Y-3999D02*
X8123Y-3939D01*
X8123Y-3939D02*
X8123Y-3783D01*
G54D30*
X8123Y-3783D02*
X8123Y-4994D01*
X8123Y-4994D02*
X8122Y-4995D01*
G54D32*
X24060Y-4300D02*
X24059Y-4300D01*
G54D27*
X9171Y-19341D02*
X9171Y-20229D01*
X9171Y-20229D02*
X9634Y-20692D01*
X9634Y-20692D02*
X17772Y-20692D01*
X17772Y-20692D02*
X18060Y-20405D01*
X18060Y-20405D02*
X18060Y-20000D01*
X9171Y-19341D02*
X9170Y-19340D01*
X18060Y-19000D02*
X18060Y-20000D01*
G54D29*
X18060Y-20000D02*
X18060Y-20140D01*
G54D27*
X9170Y-18140D02*
X8030Y-18140D01*
X8030Y-18140D02*
X7957Y-18067D01*
X7957Y-18067D02*
X7957Y-17889D01*
X7971Y-17903D02*
X7957Y-17889D01*
G54D30*
X4119Y-18440D02*
X4119Y-19859D01*
X4119Y-17314D02*
X4119Y-14252D01*
X4560Y-11580D02*
X4560Y-13811D01*
X4560Y-13811D02*
X4119Y-14252D01*
X4119Y-19859D02*
X4560Y-20300D01*
X4560Y-11580D02*
X7313Y-11580D01*
X7313Y-11580D02*
X7327Y-11594D01*
X4560Y-10680D02*
X5384Y-10680D01*
X5384Y-10680D02*
X5385Y-10681D01*
X5385Y-6181D02*
X4561Y-6181D01*
X4561Y-6181D02*
X4560Y-6180D01*
X4570Y-6190D02*
X4560Y-6180D01*
X5385Y-19401D02*
X4561Y-19401D01*
X4561Y-19401D02*
X4560Y-19400D01*
X4560Y-14900D02*
X5384Y-14900D01*
X5384Y-14900D02*
X5385Y-14901D01*
X8122Y-5745D02*
X8122Y-6094D01*
X8122Y-6094D02*
X7697Y-6519D01*
X8252Y-7074D02*
X7697Y-6519D01*
X7697Y-6519D02*
X7178Y-6000D01*
X7178Y-6000D02*
X7178Y-4437D01*
X6906Y-12866D02*
X8256Y-11515D01*
X8256Y-11515D02*
X8256Y-8452D01*
G54D28*
X8256Y-8452D02*
X8252Y-8448D01*
G54D30*
X12060Y-18377D02*
X11150Y-17468D01*
X11150Y-17468D02*
X9225Y-17468D01*
X9225Y-17468D02*
X8595Y-16838D01*
X8595Y-16838D02*
X7709Y-16838D01*
X7709Y-16838D02*
X6906Y-16035D01*
X6906Y-16035D02*
X6906Y-15338D01*
X12060Y-19000D02*
X12060Y-18377D01*
X6906Y-14480D02*
X6906Y-12866D01*
X8252Y-7078D02*
X8252Y-7074D01*
X6371Y-1763D02*
X6371Y-1296D01*
X6725Y-2118D02*
X6371Y-1763D01*
G54D27*
X12060Y-20000D02*
X12060Y-19000D01*
G54D28*
X12085Y-18975D02*
X12060Y-19000D01*
G54D29*
X12085Y-18975D02*
X12060Y-19000D01*
G54D30*
X7701Y-9953D02*
X7701Y-10727D01*
X7701Y-10727D02*
X7702Y-10728D01*
X3770Y-3825D02*
X3920Y-3975D01*
X3770Y-3200D02*
X3770Y-3825D01*
X5270Y-3975D02*
X5295Y-4000D01*
X3920Y-3975D02*
X5270Y-3975D01*
X3270Y-3825D02*
X3120Y-3975D01*
X3270Y-3200D02*
X3270Y-3825D01*
X2470Y-3975D02*
X2445Y-3950D01*
X3120Y-3975D02*
X2470Y-3975D01*
G54D31*
X4270Y-1100D02*
X5222Y-1100D01*
X7111Y-2988D02*
X7373Y-2988D01*
X5222Y-1100D02*
X7111Y-2988D01*
X3770Y-1100D02*
X3770Y-782D01*
X4000Y-551D02*
X4885Y-551D01*
X3770Y-782D02*
X4000Y-551D01*
X3770Y-1100D02*
X3770Y-1280D01*
X3270Y-1100D02*
X3770Y-1100D01*
X6587Y-2881D02*
X6587Y-3255D01*
X5437Y-1732D02*
X6587Y-2881D01*
X3134Y-1732D02*
X5437Y-1732D01*
X2770Y-1367D02*
X3134Y-1732D01*
X7115Y-3783D02*
X7373Y-3783D01*
X6587Y-3255D02*
X7115Y-3783D01*
X2770Y-1100D02*
X2770Y-1367D01*
G54D30*
X10052Y-3196D02*
X10968Y-3196D01*
M02*
