%FSLAX34Y34*%
G04 Gerber Fmt 3.4, Leading zero omitted, Abs format*
G04 (created by PCBNEW (2014-03-19 BZR 4756)-product) date Tue 16 Sep 2014 15:57:37 BRT*
%MOIN*%
G01*
G70*
G90*
G04 APERTURE LIST*
%ADD10C,0.005906*%
%ADD11C,0.157795*%
%ADD12C,0.090000*%
%ADD13R,0.090000X0.090000*%
%ADD14C,0.082992*%
%ADD15R,0.082992X0.082992*%
%ADD16C,0.072000*%
%ADD17C,0.148000*%
G04 APERTURE END LIST*
G54D10*
G54D11*
X25052Y-17500D03*
G54D12*
X25060Y-20000D03*
X24060Y-20000D03*
X23060Y-20000D03*
G54D13*
X20060Y-20000D03*
G54D12*
X21060Y-20000D03*
X22060Y-20000D03*
X25060Y-19000D03*
X24060Y-19000D03*
X23060Y-19000D03*
G54D13*
X20060Y-19000D03*
G54D12*
X21060Y-19000D03*
X22060Y-19000D03*
G54D14*
X1840Y-13633D03*
G54D15*
X1840Y-12846D03*
G54D14*
X7876Y-16000D03*
G54D15*
X8663Y-16000D03*
G54D14*
X8240Y-13376D03*
G54D15*
X8240Y-14163D03*
G54D12*
X7460Y-1000D03*
X10460Y-1000D03*
X11460Y-1000D03*
X9460Y-1000D03*
X8460Y-1000D03*
X12460Y-1000D03*
X13460Y-1000D03*
G54D13*
X16460Y-1000D03*
G54D12*
X15460Y-1000D03*
X14460Y-1000D03*
X7460Y-2000D03*
X10460Y-2000D03*
X11460Y-2000D03*
X9460Y-2000D03*
X8460Y-2000D03*
X12460Y-2000D03*
X13460Y-2000D03*
G54D13*
X16460Y-2000D03*
G54D12*
X15460Y-2000D03*
X14460Y-2000D03*
X19060Y-1000D03*
X20060Y-1000D03*
X18060Y-1000D03*
X21060Y-1000D03*
X22060Y-1000D03*
G54D13*
X25060Y-1000D03*
G54D12*
X24060Y-1000D03*
X23060Y-1000D03*
X19060Y-2000D03*
X20060Y-2000D03*
X18060Y-2000D03*
X21060Y-2000D03*
X22060Y-2000D03*
G54D13*
X25060Y-2000D03*
G54D12*
X24060Y-2000D03*
X23060Y-2000D03*
G54D16*
X4560Y-11580D03*
X4560Y-10680D03*
X4560Y-7080D03*
X4560Y-6180D03*
X2660Y-7480D03*
X2660Y-8280D03*
X2660Y-9080D03*
X2660Y-9880D03*
X1960Y-8680D03*
X1960Y-9480D03*
X1960Y-7880D03*
X1960Y-10280D03*
G54D17*
X960Y-11380D03*
X960Y-6380D03*
G54D16*
X4560Y-20300D03*
X4560Y-19400D03*
X4560Y-15800D03*
X4560Y-14900D03*
X2660Y-16200D03*
X2660Y-17000D03*
X2660Y-17800D03*
X2660Y-18600D03*
X1960Y-17400D03*
X1960Y-18200D03*
X1960Y-16600D03*
X1960Y-19000D03*
G54D17*
X960Y-20100D03*
X960Y-15100D03*
G54D13*
X23060Y-4300D03*
G54D12*
X23060Y-3300D03*
X24060Y-4300D03*
X24060Y-3300D03*
X25060Y-4300D03*
X25060Y-3300D03*
X17060Y-20000D03*
X16060Y-20000D03*
X18060Y-20000D03*
X15060Y-20000D03*
X14060Y-20000D03*
G54D13*
X11060Y-20000D03*
G54D12*
X12060Y-20000D03*
X13060Y-20000D03*
X17060Y-19000D03*
X16060Y-19000D03*
X18060Y-19000D03*
X15060Y-19000D03*
X14060Y-19000D03*
G54D13*
X11060Y-19000D03*
G54D12*
X12060Y-19000D03*
X13060Y-19000D03*
G54D13*
X25060Y-11500D03*
X24060Y-11500D03*
X23060Y-11500D03*
X22060Y-11500D03*
X21060Y-11500D03*
X20060Y-11500D03*
X19060Y-11500D03*
X16060Y-11500D03*
X15060Y-11500D03*
X17060Y-11500D03*
X18060Y-11500D03*
X14060Y-11500D03*
X13060Y-11500D03*
X10060Y-11500D03*
X11060Y-11500D03*
X12060Y-11500D03*
X12060Y-12500D03*
X11060Y-12500D03*
X10060Y-12500D03*
X13060Y-12500D03*
X14060Y-12500D03*
X18060Y-12500D03*
X17060Y-12500D03*
X15060Y-12500D03*
X16060Y-12500D03*
X19060Y-12500D03*
X20060Y-12500D03*
X21060Y-12500D03*
X22060Y-12500D03*
X23060Y-12500D03*
X24060Y-12500D03*
X25060Y-12500D03*
X25060Y-10500D03*
X24060Y-10500D03*
X23060Y-10500D03*
X22060Y-10500D03*
X21060Y-10500D03*
X20060Y-10500D03*
X19060Y-10500D03*
X16060Y-10500D03*
X15060Y-10500D03*
X17060Y-10500D03*
X18060Y-10500D03*
X14060Y-10500D03*
X13060Y-10500D03*
X10060Y-10500D03*
X11060Y-10500D03*
X12060Y-10500D03*
X12060Y-9500D03*
X11060Y-9500D03*
X10060Y-9500D03*
X13060Y-9500D03*
X14060Y-9500D03*
X18060Y-9500D03*
X17060Y-9500D03*
X15060Y-9500D03*
X16060Y-9500D03*
X19060Y-9500D03*
X20060Y-9500D03*
X21060Y-9500D03*
X22060Y-9500D03*
X23060Y-9500D03*
X24060Y-9500D03*
X25060Y-9500D03*
X25060Y-8500D03*
X24060Y-8500D03*
X23060Y-8500D03*
X22060Y-8500D03*
X21060Y-8500D03*
X20060Y-8500D03*
X19060Y-8500D03*
X16060Y-8500D03*
X15060Y-8500D03*
X17060Y-8500D03*
X18060Y-8500D03*
X14060Y-8500D03*
X13060Y-8500D03*
X10060Y-8500D03*
X11060Y-8500D03*
X12060Y-8500D03*
X12060Y-7500D03*
X11060Y-7500D03*
X10060Y-7500D03*
X13060Y-7500D03*
X14060Y-7500D03*
X18060Y-7500D03*
X17060Y-7500D03*
X15060Y-7500D03*
X16060Y-7500D03*
X19060Y-7500D03*
X20060Y-7500D03*
X21060Y-7500D03*
X22060Y-7500D03*
X23060Y-7500D03*
X24060Y-7500D03*
X25060Y-7500D03*
X25060Y-6500D03*
X24060Y-6500D03*
X23060Y-6500D03*
X22060Y-6500D03*
X21060Y-6500D03*
X20060Y-6500D03*
X19060Y-6500D03*
X16060Y-6500D03*
X15060Y-6500D03*
X17060Y-6500D03*
X18060Y-6500D03*
X14060Y-6500D03*
X13060Y-6500D03*
X10060Y-6500D03*
X11060Y-6500D03*
X12060Y-6500D03*
X12060Y-5500D03*
X11060Y-5500D03*
X10060Y-5500D03*
X13060Y-5500D03*
X14060Y-5500D03*
X18060Y-5500D03*
X17060Y-5500D03*
X15060Y-5500D03*
X16060Y-5500D03*
X19060Y-5500D03*
X20060Y-5500D03*
X21060Y-5500D03*
X22060Y-5500D03*
X23060Y-5500D03*
X24060Y-5500D03*
X25060Y-5500D03*
X25060Y-15000D03*
X24060Y-15000D03*
X23060Y-15000D03*
X22060Y-15000D03*
X21060Y-15000D03*
X20060Y-15000D03*
X19060Y-15000D03*
X16060Y-15000D03*
X15060Y-15000D03*
X17060Y-15000D03*
X18060Y-15000D03*
X14060Y-15000D03*
X13060Y-15000D03*
X10060Y-15000D03*
X11060Y-15000D03*
X12060Y-15000D03*
X25060Y-16000D03*
X24060Y-16000D03*
X23060Y-16000D03*
X22060Y-16000D03*
X21060Y-16000D03*
X20060Y-16000D03*
X19060Y-16000D03*
X16060Y-16000D03*
X15060Y-16000D03*
X17060Y-16000D03*
X18060Y-16000D03*
X14060Y-16000D03*
X13060Y-16000D03*
X10060Y-16000D03*
X11060Y-16000D03*
X12060Y-16000D03*
X25060Y-14000D03*
X24060Y-14000D03*
X23060Y-14000D03*
X22060Y-14000D03*
X21060Y-14000D03*
X20060Y-14000D03*
X19060Y-14000D03*
X16060Y-14000D03*
X15060Y-14000D03*
X17060Y-14000D03*
X18060Y-14000D03*
X14060Y-14000D03*
X13060Y-14000D03*
X10060Y-14000D03*
X11060Y-14000D03*
X12060Y-14000D03*
X9052Y-3196D03*
G54D12*
X10052Y-3196D03*
M02*
