M48
;DRILL file {Pcbnew (2014-03-19 BZR 4756)-product} date Tue 16 Sep 2014 15:57:46 BRT
;FORMAT={-:-/ absolute / inch / decimal}
FMAT,2
INCH,TZ
T1C0.015
T2C0.025
T3C0.028
T4C0.035
T5C0.040
T6C0.118
T7C0.128
%
G90
G05
M72
T1
X0.0665Y-0.49
X0.381Y-0.828
T2
X0.236Y-0.32
X0.3599Y-1.7
X0.4119Y-1.7315
X0.4119Y-1.8441
X0.5288Y-0.2669
X0.541Y-1.424
X0.5454Y-1.7232
X0.5454Y-1.85
X0.5828Y-0.2669
X0.6045Y-0.4512
X0.6686Y-0.4205
X0.6725Y-0.2118
X0.6906Y-1.448
X0.6906Y-1.5339
X0.6954Y-1.0252
X0.7178Y-0.4437
X0.7702Y-0.8772
X0.8253Y-0.7079
X0.8253Y-0.8449
X0.867Y-1.6
X0.9253Y-0.8772
X1.134Y-0.2665
X1.2158Y-0.3476
X1.2158Y-0.4319
X1.222Y-1.762
X1.69Y-1.762
X2.646Y-1.386
X2.646Y-1.718
T3
X0.184Y-1.2846
X0.184Y-1.3634
X0.7876Y-1.6
X0.824Y-1.3376
X0.824Y-1.4164
X0.8664Y-1.6
T4
X0.196Y-0.788
X0.196Y-0.868
X0.196Y-0.948
X0.196Y-1.028
X0.196Y-1.66
X0.196Y-1.74
X0.196Y-1.82
X0.196Y-1.9
X0.266Y-0.748
X0.266Y-0.828
X0.266Y-0.908
X0.266Y-0.988
X0.266Y-1.62
X0.266Y-1.7
X0.266Y-1.78
X0.266Y-1.86
X0.456Y-0.618
X0.456Y-0.708
X0.456Y-1.068
X0.456Y-1.158
X0.456Y-1.49
X0.456Y-1.58
X0.456Y-1.94
X0.456Y-2.03
T5
X0.746Y-0.1
X0.746Y-0.2
X0.846Y-0.1
X0.846Y-0.2
X0.9052Y-0.3197
X0.946Y-0.1
X0.946Y-0.2
X1.0052Y-0.3197
X1.006Y-0.55
X1.006Y-0.65
X1.006Y-0.75
X1.006Y-0.85
X1.006Y-0.95
X1.006Y-1.05
X1.006Y-1.15
X1.006Y-1.25
X1.006Y-1.4
X1.006Y-1.5
X1.006Y-1.6
X1.046Y-0.1
X1.046Y-0.2
X1.106Y-0.55
X1.106Y-0.65
X1.106Y-0.75
X1.106Y-0.85
X1.106Y-0.95
X1.106Y-1.05
X1.106Y-1.15
X1.106Y-1.25
X1.106Y-1.4
X1.106Y-1.5
X1.106Y-1.6
X1.106Y-1.9
X1.106Y-2.
X1.146Y-0.1
X1.146Y-0.2
X1.206Y-0.55
X1.206Y-0.65
X1.206Y-0.75
X1.206Y-0.85
X1.206Y-0.95
X1.206Y-1.05
X1.206Y-1.15
X1.206Y-1.25
X1.206Y-1.4
X1.206Y-1.5
X1.206Y-1.6
X1.206Y-1.9
X1.206Y-2.
X1.246Y-0.1
X1.246Y-0.2
X1.306Y-0.55
X1.306Y-0.65
X1.306Y-0.75
X1.306Y-0.85
X1.306Y-0.95
X1.306Y-1.05
X1.306Y-1.15
X1.306Y-1.25
X1.306Y-1.4
X1.306Y-1.5
X1.306Y-1.6
X1.306Y-1.9
X1.306Y-2.
X1.346Y-0.1
X1.346Y-0.2
X1.406Y-0.55
X1.406Y-0.65
X1.406Y-0.75
X1.406Y-0.85
X1.406Y-0.95
X1.406Y-1.05
X1.406Y-1.15
X1.406Y-1.25
X1.406Y-1.4
X1.406Y-1.5
X1.406Y-1.6
X1.406Y-1.9
X1.406Y-2.
X1.446Y-0.1
X1.446Y-0.2
X1.506Y-0.55
X1.506Y-0.65
X1.506Y-0.75
X1.506Y-0.85
X1.506Y-0.95
X1.506Y-1.05
X1.506Y-1.15
X1.506Y-1.25
X1.506Y-1.4
X1.506Y-1.5
X1.506Y-1.6
X1.506Y-1.9
X1.506Y-2.
X1.546Y-0.1
X1.546Y-0.2
X1.606Y-0.55
X1.606Y-0.65
X1.606Y-0.75
X1.606Y-0.85
X1.606Y-0.95
X1.606Y-1.05
X1.606Y-1.15
X1.606Y-1.25
X1.606Y-1.4
X1.606Y-1.5
X1.606Y-1.6
X1.606Y-1.9
X1.606Y-2.
X1.646Y-0.1
X1.646Y-0.2
X1.706Y-0.55
X1.706Y-0.65
X1.706Y-0.75
X1.706Y-0.85
X1.706Y-0.95
X1.706Y-1.05
X1.706Y-1.15
X1.706Y-1.25
X1.706Y-1.4
X1.706Y-1.5
X1.706Y-1.6
X1.706Y-1.9
X1.706Y-2.
X1.806Y-0.1
X1.806Y-0.2
X1.806Y-0.55
X1.806Y-0.65
X1.806Y-0.75
X1.806Y-0.85
X1.806Y-0.95
X1.806Y-1.05
X1.806Y-1.15
X1.806Y-1.25
X1.806Y-1.4
X1.806Y-1.5
X1.806Y-1.6
X1.806Y-1.9
X1.806Y-2.
X1.906Y-0.1
X1.906Y-0.2
X1.906Y-0.55
X1.906Y-0.65
X1.906Y-0.75
X1.906Y-0.85
X1.906Y-0.95
X1.906Y-1.05
X1.906Y-1.15
X1.906Y-1.25
X1.906Y-1.4
X1.906Y-1.5
X1.906Y-1.6
X2.006Y-0.1
X2.006Y-0.2
X2.006Y-0.55
X2.006Y-0.65
X2.006Y-0.75
X2.006Y-0.85
X2.006Y-0.95
X2.006Y-1.05
X2.006Y-1.15
X2.006Y-1.25
X2.006Y-1.4
X2.006Y-1.5
X2.006Y-1.6
X2.006Y-1.9
X2.006Y-2.
X2.106Y-0.1
X2.106Y-0.2
X2.106Y-0.55
X2.106Y-0.65
X2.106Y-0.75
X2.106Y-0.85
X2.106Y-0.95
X2.106Y-1.05
X2.106Y-1.15
X2.106Y-1.25
X2.106Y-1.4
X2.106Y-1.5
X2.106Y-1.6
X2.106Y-1.9
X2.106Y-2.
X2.206Y-0.1
X2.206Y-0.2
X2.206Y-0.55
X2.206Y-0.65
X2.206Y-0.75
X2.206Y-0.85
X2.206Y-0.95
X2.206Y-1.05
X2.206Y-1.15
X2.206Y-1.25
X2.206Y-1.4
X2.206Y-1.5
X2.206Y-1.6
X2.206Y-1.9
X2.206Y-2.
X2.306Y-0.1
X2.306Y-0.2
X2.306Y-0.33
X2.306Y-0.43
X2.306Y-0.55
X2.306Y-0.65
X2.306Y-0.75
X2.306Y-0.85
X2.306Y-0.95
X2.306Y-1.05
X2.306Y-1.15
X2.306Y-1.25
X2.306Y-1.4
X2.306Y-1.5
X2.306Y-1.6
X2.306Y-1.9
X2.306Y-2.
X2.406Y-0.1
X2.406Y-0.2
X2.406Y-0.33
X2.406Y-0.43
X2.406Y-0.55
X2.406Y-0.65
X2.406Y-0.75
X2.406Y-0.85
X2.406Y-0.95
X2.406Y-1.05
X2.406Y-1.15
X2.406Y-1.25
X2.406Y-1.4
X2.406Y-1.5
X2.406Y-1.6
X2.406Y-1.9
X2.406Y-2.
X2.506Y-0.1
X2.506Y-0.2
X2.506Y-0.33
X2.506Y-0.43
X2.506Y-0.55
X2.506Y-0.65
X2.506Y-0.75
X2.506Y-0.85
X2.506Y-0.95
X2.506Y-1.05
X2.506Y-1.15
X2.506Y-1.25
X2.506Y-1.4
X2.506Y-1.5
X2.506Y-1.6
X2.506Y-1.9
X2.506Y-2.
T6
X2.5052Y-1.75
T7
X0.096Y-0.638
X0.096Y-1.138
X0.096Y-1.51
X0.096Y-2.01
T0
M30
