G04 #@! TF.FileFunction,Profile,NP*
%FSLAX46Y46*%
G04 Gerber Fmt 4.6, Leading zero omitted, Abs format (unit mm)*
G04 Created by KiCad (PCBNEW no-vcs-found-product) date Sat 17 Oct 2015 02:13:17 PM BRT*
%MOMM*%
G01*
G04 APERTURE LIST*
%ADD10C,0.100000*%
%ADD11C,0.254000*%
G04 APERTURE END LIST*
D10*
D11*
X78729840Y-66040000D02*
X78729840Y-63500000D01*
X78729840Y-63500000D02*
X81269840Y-60960000D01*
X81269840Y-28194000D02*
X78729840Y-25654000D01*
X78729840Y-25654000D02*
X78729840Y-14224000D01*
X78729840Y-14224000D02*
X77205840Y-12700000D01*
X78729840Y-70063995D02*
X77205840Y-68539995D01*
X78729840Y-81493995D02*
X78729840Y-70063995D01*
X81269840Y-84033995D02*
X78729840Y-81493995D01*
X78729840Y-119339995D02*
X81269840Y-116799995D01*
X78729840Y-121879995D02*
X78729840Y-119339995D01*
X78729840Y-125903990D02*
X77205840Y-124379990D01*
X78729840Y-137333990D02*
X78729840Y-125903990D01*
X81269840Y-139873990D02*
X78729840Y-137333990D01*
X78729840Y-175179990D02*
X81269840Y-172639990D01*
X78729840Y-177719990D02*
X78729840Y-175179990D01*
X149809835Y-14224000D02*
X148285835Y-12700000D01*
X149809835Y-25654000D02*
X149809835Y-14224000D01*
X152349835Y-28194000D02*
X149809835Y-25654000D01*
X149809835Y-63500000D02*
X152349835Y-60960000D01*
X149809835Y-66040000D02*
X149809835Y-63500000D01*
X149809835Y-70063995D02*
X148285835Y-68539995D01*
X149809835Y-81493995D02*
X149809835Y-70063995D01*
X152349835Y-84033995D02*
X149809835Y-81493995D01*
X149809835Y-119339995D02*
X152349835Y-116799995D01*
X149809835Y-121879995D02*
X149809835Y-119339995D01*
X149809835Y-125903990D02*
X148285835Y-124379990D01*
X149809835Y-137333990D02*
X149809835Y-125903990D01*
X152349835Y-139873990D02*
X149809835Y-137333990D01*
X149809835Y-175179990D02*
X152349835Y-172639990D01*
X149809835Y-177719990D02*
X149809835Y-175179990D01*
X12689840Y-12700000D02*
X77205840Y-12700000D01*
X78729840Y-177718720D02*
X12689840Y-177718720D01*
X12689840Y-12700000D02*
X12689840Y-66040000D01*
X12689840Y-68539360D02*
X12689840Y-121879360D01*
X12689840Y-124378720D02*
X12689840Y-177718720D01*
X152349200Y-116799360D02*
X152349200Y-84033360D01*
X152349200Y-172638720D02*
X152349200Y-139872720D01*
X148285200Y-12700000D02*
X83769200Y-12700000D01*
X83769200Y-12700000D02*
X83769200Y-38267640D01*
X83769200Y-38267640D02*
X81269840Y-38267640D01*
X83769200Y-40446960D02*
X83769200Y-66040000D01*
X83769200Y-40446960D02*
X81269840Y-40446960D01*
X81269840Y-28194000D02*
X81269840Y-38267640D01*
X81269840Y-60960000D02*
X81269840Y-40446960D01*
X152349200Y-28194000D02*
X152349200Y-60960000D01*
X81269840Y-116794280D02*
X81269840Y-96281240D01*
X81269840Y-84028280D02*
X81269840Y-94101920D01*
X83769200Y-96281240D02*
X81269840Y-96281240D01*
X83769200Y-96281240D02*
X83769200Y-121874280D01*
X83769200Y-94101920D02*
X81269840Y-94101920D01*
X83769200Y-68534280D02*
X83769200Y-94101920D01*
X83759040Y-124378720D02*
X83759040Y-149946360D01*
X83759040Y-149946360D02*
X81269840Y-149946360D01*
X83759040Y-152125680D02*
X83759040Y-177718720D01*
X83759040Y-152125680D02*
X81269840Y-152125680D01*
X81269840Y-139872720D02*
X81269840Y-149946360D01*
X81269840Y-172638720D02*
X81269840Y-152125680D01*
X83759040Y-177718720D02*
X149809200Y-177718720D01*
X12689840Y-66040000D02*
X48249840Y-66040000D01*
X48249840Y-66040000D02*
X48249840Y-68539360D01*
X12689840Y-68539360D02*
X48249840Y-68539360D01*
X50434240Y-66040000D02*
X50434240Y-68539360D01*
X50434240Y-66040000D02*
X78729840Y-66040000D01*
X77205840Y-68539360D02*
X50434240Y-68539360D01*
X148285200Y-68539360D02*
X121513600Y-68539360D01*
X121513600Y-66040000D02*
X149809200Y-66040000D01*
X121513600Y-66040000D02*
X121513600Y-68539360D01*
X83769200Y-68539360D02*
X119329200Y-68539360D01*
X119329200Y-66040000D02*
X119329200Y-68539360D01*
X83769200Y-66040000D02*
X119329200Y-66040000D01*
X83769200Y-121879360D02*
X119329200Y-121879360D01*
X119329200Y-121879360D02*
X119329200Y-124378720D01*
X83769200Y-124378720D02*
X119329200Y-124378720D01*
X121513600Y-121879360D02*
X121513600Y-124378720D01*
X121513600Y-121879360D02*
X149809200Y-121879360D01*
X148285200Y-124378720D02*
X121513600Y-124378720D01*
X77205840Y-124378720D02*
X50434240Y-124378720D01*
X50434240Y-121879360D02*
X78729840Y-121879360D01*
X50434240Y-121879360D02*
X50434240Y-124378720D01*
X12689840Y-124378720D02*
X48249840Y-124378720D01*
X48249840Y-121879360D02*
X48249840Y-124378720D01*
X12689840Y-121879360D02*
X48249840Y-121879360D01*
M02*
