G04 #@! TF.FileFunction,Soldermask,Bot*
%FSLAX46Y46*%
G04 Gerber Fmt 4.6, Leading zero omitted, Abs format (unit mm)*
G04 Created by KiCad (PCBNEW no-vcs-found-product) date Sat 17 Oct 2015 02:13:17 PM BRT*
%MOMM*%
G01*
G04 APERTURE LIST*
%ADD10C,0.100000*%
%ADD11C,3.251200*%
%ADD12R,1.930400X2.235200*%
%ADD13O,1.930400X2.235200*%
%ADD14C,2.203200*%
%ADD15C,1.704340*%
%ADD16C,3.503200*%
G04 APERTURE END LIST*
D10*
D11*
X97749995Y-175179990D03*
X149819995Y-170099990D03*
X99019995Y-126919990D03*
X149819995Y-142159990D03*
D12*
X110500795Y-141601190D03*
D13*
X113040795Y-141601190D03*
X115580795Y-141601190D03*
X118120795Y-141601190D03*
X120660795Y-141601190D03*
X123200795Y-141601190D03*
X125740795Y-141601190D03*
X128280795Y-141601190D03*
X130820795Y-141601190D03*
X133360795Y-141601190D03*
X135900795Y-141601190D03*
X138440795Y-141601190D03*
X140980795Y-141601190D03*
X143520795Y-141601190D03*
D12*
X110500795Y-145106390D03*
D13*
X113040795Y-145106390D03*
X115580795Y-145106390D03*
X118120795Y-145106390D03*
X120660795Y-145106390D03*
X123200795Y-145106390D03*
X125740795Y-145106390D03*
X128280795Y-145106390D03*
X130820795Y-145106390D03*
X133360795Y-145106390D03*
X135900795Y-145106390D03*
X138440795Y-145106390D03*
X140980795Y-145106390D03*
X143520795Y-145106390D03*
D12*
X110500795Y-148611590D03*
D13*
X113040795Y-148611590D03*
X115580795Y-148611590D03*
X118120795Y-148611590D03*
X120660795Y-148611590D03*
X123200795Y-148611590D03*
X125740795Y-148611590D03*
X128280795Y-148611590D03*
X130820795Y-148611590D03*
X133360795Y-148611590D03*
X135900795Y-148611590D03*
X138440795Y-148611590D03*
X140980795Y-148611590D03*
X143520795Y-148611590D03*
X129499995Y-130018790D03*
X132039995Y-130018790D03*
X134579995Y-130018790D03*
X137119995Y-130018790D03*
X139659995Y-130018790D03*
X142199995Y-130018790D03*
X144739995Y-130018790D03*
X147279995Y-130018790D03*
X102575995Y-130006090D03*
X105115995Y-130006090D03*
X107655995Y-130006090D03*
X110195995Y-130006090D03*
X112735995Y-130006090D03*
X115275995Y-130006090D03*
X117815995Y-130006090D03*
X120355995Y-130006090D03*
X122895995Y-130006090D03*
X125435995Y-130006090D03*
X134579995Y-172081190D03*
X137119995Y-172081190D03*
X139659995Y-172081190D03*
X142199995Y-172081190D03*
X144739995Y-172081190D03*
X147279995Y-172081190D03*
X111719995Y-172081190D03*
X114259995Y-172081190D03*
X116799995Y-172081190D03*
X119339995Y-172081190D03*
X121879995Y-172081190D03*
X124419995Y-172081190D03*
X126959995Y-172081190D03*
X129499995Y-172081190D03*
D12*
X110500795Y-155621990D03*
D13*
X113040795Y-155621990D03*
X115580795Y-155621990D03*
X118120795Y-155621990D03*
X120660795Y-155621990D03*
X123200795Y-155621990D03*
X125740795Y-155621990D03*
X128280795Y-155621990D03*
X130820795Y-155621990D03*
X133360795Y-155621990D03*
X135900795Y-155621990D03*
X138440795Y-155621990D03*
X140980795Y-155621990D03*
X143520795Y-155621990D03*
D12*
X110500795Y-152116790D03*
D13*
X113040795Y-152116790D03*
X115580795Y-152116790D03*
X118120795Y-152116790D03*
X120660795Y-152116790D03*
X123200795Y-152116790D03*
X125740795Y-152116790D03*
X128280795Y-152116790D03*
X130820795Y-152116790D03*
X133360795Y-152116790D03*
X135900795Y-152116790D03*
X138440795Y-152116790D03*
X140980795Y-152116790D03*
X143520795Y-152116790D03*
D12*
X110500795Y-138095990D03*
D13*
X113040795Y-138095990D03*
X115580795Y-138095990D03*
X118120795Y-138095990D03*
X120660795Y-138095990D03*
X123200795Y-138095990D03*
X125740795Y-138095990D03*
X128280795Y-138095990D03*
X130820795Y-138095990D03*
X133360795Y-138095990D03*
X135900795Y-138095990D03*
X138440795Y-138095990D03*
X140980795Y-138095990D03*
X143520795Y-138095990D03*
D12*
X110500795Y-166137590D03*
D13*
X113040795Y-166137590D03*
X115580795Y-166137590D03*
X118120795Y-166137590D03*
X120660795Y-166137590D03*
X123200795Y-166137590D03*
X125740795Y-166137590D03*
X128280795Y-166137590D03*
X130820795Y-166137590D03*
X133360795Y-166137590D03*
X135900795Y-166137590D03*
X138440795Y-166137590D03*
X140980795Y-166137590D03*
X143520795Y-166137590D03*
D12*
X110500795Y-162632390D03*
D13*
X113040795Y-162632390D03*
X115580795Y-162632390D03*
X118120795Y-162632390D03*
X120660795Y-162632390D03*
X123200795Y-162632390D03*
X125740795Y-162632390D03*
X128280795Y-162632390D03*
X130820795Y-162632390D03*
X133360795Y-162632390D03*
X135900795Y-162632390D03*
X138440795Y-162632390D03*
X140980795Y-162632390D03*
X143520795Y-162632390D03*
D12*
X110500795Y-159127190D03*
D13*
X113040795Y-159127190D03*
X115580795Y-159127190D03*
X118120795Y-159127190D03*
X120660795Y-159127190D03*
X123200795Y-159127190D03*
X125740795Y-159127190D03*
X128280795Y-159127190D03*
X130820795Y-159127190D03*
X133360795Y-159127190D03*
X135900795Y-159127190D03*
X138440795Y-159127190D03*
X140980795Y-159127190D03*
X143520795Y-159127190D03*
D14*
X91323795Y-132477990D03*
D15*
X97038795Y-147463990D03*
X97038795Y-145177990D03*
X97038795Y-136033990D03*
X97038795Y-133747990D03*
X92212795Y-137049990D03*
X92212795Y-139081990D03*
X92212795Y-141113990D03*
X92212795Y-143145990D03*
X90434795Y-140097990D03*
X90434795Y-142129990D03*
X90434795Y-138065990D03*
X90434795Y-144161990D03*
D16*
X87894795Y-146955990D03*
X87894795Y-134255990D03*
D14*
X91323795Y-148733990D03*
X91323795Y-153365990D03*
D15*
X97038795Y-168351990D03*
X97038795Y-166065990D03*
X97038795Y-156921990D03*
X97038795Y-154635990D03*
X92212795Y-157937990D03*
X92212795Y-159969990D03*
X92212795Y-162001990D03*
X92212795Y-164033990D03*
X90434795Y-160985990D03*
X90434795Y-163017990D03*
X90434795Y-158953990D03*
X90434795Y-165049990D03*
D16*
X87894795Y-167843990D03*
X87894795Y-155143990D03*
D14*
X91323795Y-169621990D03*
D13*
X129499995Y-126919990D03*
X132039995Y-126919990D03*
X134579995Y-126919990D03*
X137119995Y-126919990D03*
X139659995Y-126919990D03*
X142199995Y-126919990D03*
X144739995Y-126919990D03*
X147279995Y-126919990D03*
X102575995Y-126932690D03*
X105115995Y-126932690D03*
X107655995Y-126932690D03*
X110195995Y-126932690D03*
X112735995Y-126932690D03*
X115275995Y-126932690D03*
X117815995Y-126932690D03*
X120355995Y-126932690D03*
X122895995Y-126932690D03*
X125435995Y-126932690D03*
X134579995Y-175179990D03*
X137119995Y-175179990D03*
X139659995Y-175179990D03*
X142199995Y-175179990D03*
X144739995Y-175179990D03*
X147279995Y-175179990D03*
X111719995Y-175179990D03*
X114259995Y-175179990D03*
X116799995Y-175179990D03*
X119339995Y-175179990D03*
X121879995Y-175179990D03*
X124419995Y-175179990D03*
X126959995Y-175179990D03*
X129499995Y-175179990D03*
D11*
X97749995Y-119339995D03*
X149819995Y-114259995D03*
X99019995Y-71079995D03*
X149819995Y-86319995D03*
D12*
X110500795Y-85761195D03*
D13*
X113040795Y-85761195D03*
X115580795Y-85761195D03*
X118120795Y-85761195D03*
X120660795Y-85761195D03*
X123200795Y-85761195D03*
X125740795Y-85761195D03*
X128280795Y-85761195D03*
X130820795Y-85761195D03*
X133360795Y-85761195D03*
X135900795Y-85761195D03*
X138440795Y-85761195D03*
X140980795Y-85761195D03*
X143520795Y-85761195D03*
D12*
X110500795Y-89266395D03*
D13*
X113040795Y-89266395D03*
X115580795Y-89266395D03*
X118120795Y-89266395D03*
X120660795Y-89266395D03*
X123200795Y-89266395D03*
X125740795Y-89266395D03*
X128280795Y-89266395D03*
X130820795Y-89266395D03*
X133360795Y-89266395D03*
X135900795Y-89266395D03*
X138440795Y-89266395D03*
X140980795Y-89266395D03*
X143520795Y-89266395D03*
D12*
X110500795Y-92771595D03*
D13*
X113040795Y-92771595D03*
X115580795Y-92771595D03*
X118120795Y-92771595D03*
X120660795Y-92771595D03*
X123200795Y-92771595D03*
X125740795Y-92771595D03*
X128280795Y-92771595D03*
X130820795Y-92771595D03*
X133360795Y-92771595D03*
X135900795Y-92771595D03*
X138440795Y-92771595D03*
X140980795Y-92771595D03*
X143520795Y-92771595D03*
X129499995Y-74178795D03*
X132039995Y-74178795D03*
X134579995Y-74178795D03*
X137119995Y-74178795D03*
X139659995Y-74178795D03*
X142199995Y-74178795D03*
X144739995Y-74178795D03*
X147279995Y-74178795D03*
X102575995Y-74166095D03*
X105115995Y-74166095D03*
X107655995Y-74166095D03*
X110195995Y-74166095D03*
X112735995Y-74166095D03*
X115275995Y-74166095D03*
X117815995Y-74166095D03*
X120355995Y-74166095D03*
X122895995Y-74166095D03*
X125435995Y-74166095D03*
X134579995Y-116241195D03*
X137119995Y-116241195D03*
X139659995Y-116241195D03*
X142199995Y-116241195D03*
X144739995Y-116241195D03*
X147279995Y-116241195D03*
X111719995Y-116241195D03*
X114259995Y-116241195D03*
X116799995Y-116241195D03*
X119339995Y-116241195D03*
X121879995Y-116241195D03*
X124419995Y-116241195D03*
X126959995Y-116241195D03*
X129499995Y-116241195D03*
D12*
X110500795Y-99781995D03*
D13*
X113040795Y-99781995D03*
X115580795Y-99781995D03*
X118120795Y-99781995D03*
X120660795Y-99781995D03*
X123200795Y-99781995D03*
X125740795Y-99781995D03*
X128280795Y-99781995D03*
X130820795Y-99781995D03*
X133360795Y-99781995D03*
X135900795Y-99781995D03*
X138440795Y-99781995D03*
X140980795Y-99781995D03*
X143520795Y-99781995D03*
D12*
X110500795Y-96276795D03*
D13*
X113040795Y-96276795D03*
X115580795Y-96276795D03*
X118120795Y-96276795D03*
X120660795Y-96276795D03*
X123200795Y-96276795D03*
X125740795Y-96276795D03*
X128280795Y-96276795D03*
X130820795Y-96276795D03*
X133360795Y-96276795D03*
X135900795Y-96276795D03*
X138440795Y-96276795D03*
X140980795Y-96276795D03*
X143520795Y-96276795D03*
D12*
X110500795Y-82255995D03*
D13*
X113040795Y-82255995D03*
X115580795Y-82255995D03*
X118120795Y-82255995D03*
X120660795Y-82255995D03*
X123200795Y-82255995D03*
X125740795Y-82255995D03*
X128280795Y-82255995D03*
X130820795Y-82255995D03*
X133360795Y-82255995D03*
X135900795Y-82255995D03*
X138440795Y-82255995D03*
X140980795Y-82255995D03*
X143520795Y-82255995D03*
D12*
X110500795Y-110297595D03*
D13*
X113040795Y-110297595D03*
X115580795Y-110297595D03*
X118120795Y-110297595D03*
X120660795Y-110297595D03*
X123200795Y-110297595D03*
X125740795Y-110297595D03*
X128280795Y-110297595D03*
X130820795Y-110297595D03*
X133360795Y-110297595D03*
X135900795Y-110297595D03*
X138440795Y-110297595D03*
X140980795Y-110297595D03*
X143520795Y-110297595D03*
D12*
X110500795Y-106792395D03*
D13*
X113040795Y-106792395D03*
X115580795Y-106792395D03*
X118120795Y-106792395D03*
X120660795Y-106792395D03*
X123200795Y-106792395D03*
X125740795Y-106792395D03*
X128280795Y-106792395D03*
X130820795Y-106792395D03*
X133360795Y-106792395D03*
X135900795Y-106792395D03*
X138440795Y-106792395D03*
X140980795Y-106792395D03*
X143520795Y-106792395D03*
D12*
X110500795Y-103287195D03*
D13*
X113040795Y-103287195D03*
X115580795Y-103287195D03*
X118120795Y-103287195D03*
X120660795Y-103287195D03*
X123200795Y-103287195D03*
X125740795Y-103287195D03*
X128280795Y-103287195D03*
X130820795Y-103287195D03*
X133360795Y-103287195D03*
X135900795Y-103287195D03*
X138440795Y-103287195D03*
X140980795Y-103287195D03*
X143520795Y-103287195D03*
D14*
X91323795Y-76637995D03*
D15*
X97038795Y-91623995D03*
X97038795Y-89337995D03*
X97038795Y-80193995D03*
X97038795Y-77907995D03*
X92212795Y-81209995D03*
X92212795Y-83241995D03*
X92212795Y-85273995D03*
X92212795Y-87305995D03*
X90434795Y-84257995D03*
X90434795Y-86289995D03*
X90434795Y-82225995D03*
X90434795Y-88321995D03*
D16*
X87894795Y-91115995D03*
X87894795Y-78415995D03*
D14*
X91323795Y-92893995D03*
X91323795Y-97525995D03*
D15*
X97038795Y-112511995D03*
X97038795Y-110225995D03*
X97038795Y-101081995D03*
X97038795Y-98795995D03*
X92212795Y-102097995D03*
X92212795Y-104129995D03*
X92212795Y-106161995D03*
X92212795Y-108193995D03*
X90434795Y-105145995D03*
X90434795Y-107177995D03*
X90434795Y-103113995D03*
X90434795Y-109209995D03*
D16*
X87894795Y-112003995D03*
X87894795Y-99303995D03*
D14*
X91323795Y-113781995D03*
D13*
X129499995Y-71079995D03*
X132039995Y-71079995D03*
X134579995Y-71079995D03*
X137119995Y-71079995D03*
X139659995Y-71079995D03*
X142199995Y-71079995D03*
X144739995Y-71079995D03*
X147279995Y-71079995D03*
X102575995Y-71092695D03*
X105115995Y-71092695D03*
X107655995Y-71092695D03*
X110195995Y-71092695D03*
X112735995Y-71092695D03*
X115275995Y-71092695D03*
X117815995Y-71092695D03*
X120355995Y-71092695D03*
X122895995Y-71092695D03*
X125435995Y-71092695D03*
X134579995Y-119339995D03*
X137119995Y-119339995D03*
X139659995Y-119339995D03*
X142199995Y-119339995D03*
X144739995Y-119339995D03*
X147279995Y-119339995D03*
X111719995Y-119339995D03*
X114259995Y-119339995D03*
X116799995Y-119339995D03*
X119339995Y-119339995D03*
X121879995Y-119339995D03*
X124419995Y-119339995D03*
X126959995Y-119339995D03*
X129499995Y-119339995D03*
D11*
X97749995Y-63500000D03*
X149819995Y-58420000D03*
X99019995Y-15240000D03*
X149819995Y-30480000D03*
D12*
X110500795Y-29921200D03*
D13*
X113040795Y-29921200D03*
X115580795Y-29921200D03*
X118120795Y-29921200D03*
X120660795Y-29921200D03*
X123200795Y-29921200D03*
X125740795Y-29921200D03*
X128280795Y-29921200D03*
X130820795Y-29921200D03*
X133360795Y-29921200D03*
X135900795Y-29921200D03*
X138440795Y-29921200D03*
X140980795Y-29921200D03*
X143520795Y-29921200D03*
D12*
X110500795Y-33426400D03*
D13*
X113040795Y-33426400D03*
X115580795Y-33426400D03*
X118120795Y-33426400D03*
X120660795Y-33426400D03*
X123200795Y-33426400D03*
X125740795Y-33426400D03*
X128280795Y-33426400D03*
X130820795Y-33426400D03*
X133360795Y-33426400D03*
X135900795Y-33426400D03*
X138440795Y-33426400D03*
X140980795Y-33426400D03*
X143520795Y-33426400D03*
D12*
X110500795Y-36931600D03*
D13*
X113040795Y-36931600D03*
X115580795Y-36931600D03*
X118120795Y-36931600D03*
X120660795Y-36931600D03*
X123200795Y-36931600D03*
X125740795Y-36931600D03*
X128280795Y-36931600D03*
X130820795Y-36931600D03*
X133360795Y-36931600D03*
X135900795Y-36931600D03*
X138440795Y-36931600D03*
X140980795Y-36931600D03*
X143520795Y-36931600D03*
X129499995Y-18338800D03*
X132039995Y-18338800D03*
X134579995Y-18338800D03*
X137119995Y-18338800D03*
X139659995Y-18338800D03*
X142199995Y-18338800D03*
X144739995Y-18338800D03*
X147279995Y-18338800D03*
X102575995Y-18326100D03*
X105115995Y-18326100D03*
X107655995Y-18326100D03*
X110195995Y-18326100D03*
X112735995Y-18326100D03*
X115275995Y-18326100D03*
X117815995Y-18326100D03*
X120355995Y-18326100D03*
X122895995Y-18326100D03*
X125435995Y-18326100D03*
X134579995Y-60401200D03*
X137119995Y-60401200D03*
X139659995Y-60401200D03*
X142199995Y-60401200D03*
X144739995Y-60401200D03*
X147279995Y-60401200D03*
X111719995Y-60401200D03*
X114259995Y-60401200D03*
X116799995Y-60401200D03*
X119339995Y-60401200D03*
X121879995Y-60401200D03*
X124419995Y-60401200D03*
X126959995Y-60401200D03*
X129499995Y-60401200D03*
D12*
X110500795Y-43942000D03*
D13*
X113040795Y-43942000D03*
X115580795Y-43942000D03*
X118120795Y-43942000D03*
X120660795Y-43942000D03*
X123200795Y-43942000D03*
X125740795Y-43942000D03*
X128280795Y-43942000D03*
X130820795Y-43942000D03*
X133360795Y-43942000D03*
X135900795Y-43942000D03*
X138440795Y-43942000D03*
X140980795Y-43942000D03*
X143520795Y-43942000D03*
D12*
X110500795Y-40436800D03*
D13*
X113040795Y-40436800D03*
X115580795Y-40436800D03*
X118120795Y-40436800D03*
X120660795Y-40436800D03*
X123200795Y-40436800D03*
X125740795Y-40436800D03*
X128280795Y-40436800D03*
X130820795Y-40436800D03*
X133360795Y-40436800D03*
X135900795Y-40436800D03*
X138440795Y-40436800D03*
X140980795Y-40436800D03*
X143520795Y-40436800D03*
D12*
X110500795Y-26416000D03*
D13*
X113040795Y-26416000D03*
X115580795Y-26416000D03*
X118120795Y-26416000D03*
X120660795Y-26416000D03*
X123200795Y-26416000D03*
X125740795Y-26416000D03*
X128280795Y-26416000D03*
X130820795Y-26416000D03*
X133360795Y-26416000D03*
X135900795Y-26416000D03*
X138440795Y-26416000D03*
X140980795Y-26416000D03*
X143520795Y-26416000D03*
D12*
X110500795Y-54457600D03*
D13*
X113040795Y-54457600D03*
X115580795Y-54457600D03*
X118120795Y-54457600D03*
X120660795Y-54457600D03*
X123200795Y-54457600D03*
X125740795Y-54457600D03*
X128280795Y-54457600D03*
X130820795Y-54457600D03*
X133360795Y-54457600D03*
X135900795Y-54457600D03*
X138440795Y-54457600D03*
X140980795Y-54457600D03*
X143520795Y-54457600D03*
D12*
X110500795Y-50952400D03*
D13*
X113040795Y-50952400D03*
X115580795Y-50952400D03*
X118120795Y-50952400D03*
X120660795Y-50952400D03*
X123200795Y-50952400D03*
X125740795Y-50952400D03*
X128280795Y-50952400D03*
X130820795Y-50952400D03*
X133360795Y-50952400D03*
X135900795Y-50952400D03*
X138440795Y-50952400D03*
X140980795Y-50952400D03*
X143520795Y-50952400D03*
D12*
X110500795Y-47447200D03*
D13*
X113040795Y-47447200D03*
X115580795Y-47447200D03*
X118120795Y-47447200D03*
X120660795Y-47447200D03*
X123200795Y-47447200D03*
X125740795Y-47447200D03*
X128280795Y-47447200D03*
X130820795Y-47447200D03*
X133360795Y-47447200D03*
X135900795Y-47447200D03*
X138440795Y-47447200D03*
X140980795Y-47447200D03*
X143520795Y-47447200D03*
D14*
X91323795Y-20798000D03*
D15*
X97038795Y-35784000D03*
X97038795Y-33498000D03*
X97038795Y-24354000D03*
X97038795Y-22068000D03*
X92212795Y-25370000D03*
X92212795Y-27402000D03*
X92212795Y-29434000D03*
X92212795Y-31466000D03*
X90434795Y-28418000D03*
X90434795Y-30450000D03*
X90434795Y-26386000D03*
X90434795Y-32482000D03*
D16*
X87894795Y-35276000D03*
X87894795Y-22576000D03*
D14*
X91323795Y-37054000D03*
X91323795Y-41686000D03*
D15*
X97038795Y-56672000D03*
X97038795Y-54386000D03*
X97038795Y-45242000D03*
X97038795Y-42956000D03*
X92212795Y-46258000D03*
X92212795Y-48290000D03*
X92212795Y-50322000D03*
X92212795Y-52354000D03*
X90434795Y-49306000D03*
X90434795Y-51338000D03*
X90434795Y-47274000D03*
X90434795Y-53370000D03*
D16*
X87894795Y-56164000D03*
X87894795Y-43464000D03*
D14*
X91323795Y-57942000D03*
D13*
X129499995Y-15240000D03*
X132039995Y-15240000D03*
X134579995Y-15240000D03*
X137119995Y-15240000D03*
X139659995Y-15240000D03*
X142199995Y-15240000D03*
X144739995Y-15240000D03*
X147279995Y-15240000D03*
X102575995Y-15252700D03*
X105115995Y-15252700D03*
X107655995Y-15252700D03*
X110195995Y-15252700D03*
X112735995Y-15252700D03*
X115275995Y-15252700D03*
X117815995Y-15252700D03*
X120355995Y-15252700D03*
X122895995Y-15252700D03*
X125435995Y-15252700D03*
X134579995Y-63500000D03*
X137119995Y-63500000D03*
X139659995Y-63500000D03*
X142199995Y-63500000D03*
X144739995Y-63500000D03*
X147279995Y-63500000D03*
X111719995Y-63500000D03*
X114259995Y-63500000D03*
X116799995Y-63500000D03*
X119339995Y-63500000D03*
X121879995Y-63500000D03*
X124419995Y-63500000D03*
X126959995Y-63500000D03*
X129499995Y-63500000D03*
D11*
X26670000Y-175179990D03*
X78740000Y-170099990D03*
X27940000Y-126919990D03*
X78740000Y-142159990D03*
D12*
X39420800Y-141601190D03*
D13*
X41960800Y-141601190D03*
X44500800Y-141601190D03*
X47040800Y-141601190D03*
X49580800Y-141601190D03*
X52120800Y-141601190D03*
X54660800Y-141601190D03*
X57200800Y-141601190D03*
X59740800Y-141601190D03*
X62280800Y-141601190D03*
X64820800Y-141601190D03*
X67360800Y-141601190D03*
X69900800Y-141601190D03*
X72440800Y-141601190D03*
D12*
X39420800Y-145106390D03*
D13*
X41960800Y-145106390D03*
X44500800Y-145106390D03*
X47040800Y-145106390D03*
X49580800Y-145106390D03*
X52120800Y-145106390D03*
X54660800Y-145106390D03*
X57200800Y-145106390D03*
X59740800Y-145106390D03*
X62280800Y-145106390D03*
X64820800Y-145106390D03*
X67360800Y-145106390D03*
X69900800Y-145106390D03*
X72440800Y-145106390D03*
D12*
X39420800Y-148611590D03*
D13*
X41960800Y-148611590D03*
X44500800Y-148611590D03*
X47040800Y-148611590D03*
X49580800Y-148611590D03*
X52120800Y-148611590D03*
X54660800Y-148611590D03*
X57200800Y-148611590D03*
X59740800Y-148611590D03*
X62280800Y-148611590D03*
X64820800Y-148611590D03*
X67360800Y-148611590D03*
X69900800Y-148611590D03*
X72440800Y-148611590D03*
X58420000Y-130018790D03*
X60960000Y-130018790D03*
X63500000Y-130018790D03*
X66040000Y-130018790D03*
X68580000Y-130018790D03*
X71120000Y-130018790D03*
X73660000Y-130018790D03*
X76200000Y-130018790D03*
X31496000Y-130006090D03*
X34036000Y-130006090D03*
X36576000Y-130006090D03*
X39116000Y-130006090D03*
X41656000Y-130006090D03*
X44196000Y-130006090D03*
X46736000Y-130006090D03*
X49276000Y-130006090D03*
X51816000Y-130006090D03*
X54356000Y-130006090D03*
X63500000Y-172081190D03*
X66040000Y-172081190D03*
X68580000Y-172081190D03*
X71120000Y-172081190D03*
X73660000Y-172081190D03*
X76200000Y-172081190D03*
X40640000Y-172081190D03*
X43180000Y-172081190D03*
X45720000Y-172081190D03*
X48260000Y-172081190D03*
X50800000Y-172081190D03*
X53340000Y-172081190D03*
X55880000Y-172081190D03*
X58420000Y-172081190D03*
D12*
X39420800Y-155621990D03*
D13*
X41960800Y-155621990D03*
X44500800Y-155621990D03*
X47040800Y-155621990D03*
X49580800Y-155621990D03*
X52120800Y-155621990D03*
X54660800Y-155621990D03*
X57200800Y-155621990D03*
X59740800Y-155621990D03*
X62280800Y-155621990D03*
X64820800Y-155621990D03*
X67360800Y-155621990D03*
X69900800Y-155621990D03*
X72440800Y-155621990D03*
D12*
X39420800Y-152116790D03*
D13*
X41960800Y-152116790D03*
X44500800Y-152116790D03*
X47040800Y-152116790D03*
X49580800Y-152116790D03*
X52120800Y-152116790D03*
X54660800Y-152116790D03*
X57200800Y-152116790D03*
X59740800Y-152116790D03*
X62280800Y-152116790D03*
X64820800Y-152116790D03*
X67360800Y-152116790D03*
X69900800Y-152116790D03*
X72440800Y-152116790D03*
D12*
X39420800Y-138095990D03*
D13*
X41960800Y-138095990D03*
X44500800Y-138095990D03*
X47040800Y-138095990D03*
X49580800Y-138095990D03*
X52120800Y-138095990D03*
X54660800Y-138095990D03*
X57200800Y-138095990D03*
X59740800Y-138095990D03*
X62280800Y-138095990D03*
X64820800Y-138095990D03*
X67360800Y-138095990D03*
X69900800Y-138095990D03*
X72440800Y-138095990D03*
D12*
X39420800Y-166137590D03*
D13*
X41960800Y-166137590D03*
X44500800Y-166137590D03*
X47040800Y-166137590D03*
X49580800Y-166137590D03*
X52120800Y-166137590D03*
X54660800Y-166137590D03*
X57200800Y-166137590D03*
X59740800Y-166137590D03*
X62280800Y-166137590D03*
X64820800Y-166137590D03*
X67360800Y-166137590D03*
X69900800Y-166137590D03*
X72440800Y-166137590D03*
D12*
X39420800Y-162632390D03*
D13*
X41960800Y-162632390D03*
X44500800Y-162632390D03*
X47040800Y-162632390D03*
X49580800Y-162632390D03*
X52120800Y-162632390D03*
X54660800Y-162632390D03*
X57200800Y-162632390D03*
X59740800Y-162632390D03*
X62280800Y-162632390D03*
X64820800Y-162632390D03*
X67360800Y-162632390D03*
X69900800Y-162632390D03*
X72440800Y-162632390D03*
D12*
X39420800Y-159127190D03*
D13*
X41960800Y-159127190D03*
X44500800Y-159127190D03*
X47040800Y-159127190D03*
X49580800Y-159127190D03*
X52120800Y-159127190D03*
X54660800Y-159127190D03*
X57200800Y-159127190D03*
X59740800Y-159127190D03*
X62280800Y-159127190D03*
X64820800Y-159127190D03*
X67360800Y-159127190D03*
X69900800Y-159127190D03*
X72440800Y-159127190D03*
D14*
X20243800Y-132477990D03*
D15*
X25958800Y-147463990D03*
X25958800Y-145177990D03*
X25958800Y-136033990D03*
X25958800Y-133747990D03*
X21132800Y-137049990D03*
X21132800Y-139081990D03*
X21132800Y-141113990D03*
X21132800Y-143145990D03*
X19354800Y-140097990D03*
X19354800Y-142129990D03*
X19354800Y-138065990D03*
X19354800Y-144161990D03*
D16*
X16814800Y-146955990D03*
X16814800Y-134255990D03*
D14*
X20243800Y-148733990D03*
X20243800Y-153365990D03*
D15*
X25958800Y-168351990D03*
X25958800Y-166065990D03*
X25958800Y-156921990D03*
X25958800Y-154635990D03*
X21132800Y-157937990D03*
X21132800Y-159969990D03*
X21132800Y-162001990D03*
X21132800Y-164033990D03*
X19354800Y-160985990D03*
X19354800Y-163017990D03*
X19354800Y-158953990D03*
X19354800Y-165049990D03*
D16*
X16814800Y-167843990D03*
X16814800Y-155143990D03*
D14*
X20243800Y-169621990D03*
D13*
X58420000Y-126919990D03*
X60960000Y-126919990D03*
X63500000Y-126919990D03*
X66040000Y-126919990D03*
X68580000Y-126919990D03*
X71120000Y-126919990D03*
X73660000Y-126919990D03*
X76200000Y-126919990D03*
X31496000Y-126932690D03*
X34036000Y-126932690D03*
X36576000Y-126932690D03*
X39116000Y-126932690D03*
X41656000Y-126932690D03*
X44196000Y-126932690D03*
X46736000Y-126932690D03*
X49276000Y-126932690D03*
X51816000Y-126932690D03*
X54356000Y-126932690D03*
X63500000Y-175179990D03*
X66040000Y-175179990D03*
X68580000Y-175179990D03*
X71120000Y-175179990D03*
X73660000Y-175179990D03*
X76200000Y-175179990D03*
X40640000Y-175179990D03*
X43180000Y-175179990D03*
X45720000Y-175179990D03*
X48260000Y-175179990D03*
X50800000Y-175179990D03*
X53340000Y-175179990D03*
X55880000Y-175179990D03*
X58420000Y-175179990D03*
D11*
X26670000Y-119339995D03*
X78740000Y-114259995D03*
X27940000Y-71079995D03*
X78740000Y-86319995D03*
D12*
X39420800Y-85761195D03*
D13*
X41960800Y-85761195D03*
X44500800Y-85761195D03*
X47040800Y-85761195D03*
X49580800Y-85761195D03*
X52120800Y-85761195D03*
X54660800Y-85761195D03*
X57200800Y-85761195D03*
X59740800Y-85761195D03*
X62280800Y-85761195D03*
X64820800Y-85761195D03*
X67360800Y-85761195D03*
X69900800Y-85761195D03*
X72440800Y-85761195D03*
D12*
X39420800Y-89266395D03*
D13*
X41960800Y-89266395D03*
X44500800Y-89266395D03*
X47040800Y-89266395D03*
X49580800Y-89266395D03*
X52120800Y-89266395D03*
X54660800Y-89266395D03*
X57200800Y-89266395D03*
X59740800Y-89266395D03*
X62280800Y-89266395D03*
X64820800Y-89266395D03*
X67360800Y-89266395D03*
X69900800Y-89266395D03*
X72440800Y-89266395D03*
D12*
X39420800Y-92771595D03*
D13*
X41960800Y-92771595D03*
X44500800Y-92771595D03*
X47040800Y-92771595D03*
X49580800Y-92771595D03*
X52120800Y-92771595D03*
X54660800Y-92771595D03*
X57200800Y-92771595D03*
X59740800Y-92771595D03*
X62280800Y-92771595D03*
X64820800Y-92771595D03*
X67360800Y-92771595D03*
X69900800Y-92771595D03*
X72440800Y-92771595D03*
X58420000Y-74178795D03*
X60960000Y-74178795D03*
X63500000Y-74178795D03*
X66040000Y-74178795D03*
X68580000Y-74178795D03*
X71120000Y-74178795D03*
X73660000Y-74178795D03*
X76200000Y-74178795D03*
X31496000Y-74166095D03*
X34036000Y-74166095D03*
X36576000Y-74166095D03*
X39116000Y-74166095D03*
X41656000Y-74166095D03*
X44196000Y-74166095D03*
X46736000Y-74166095D03*
X49276000Y-74166095D03*
X51816000Y-74166095D03*
X54356000Y-74166095D03*
X63500000Y-116241195D03*
X66040000Y-116241195D03*
X68580000Y-116241195D03*
X71120000Y-116241195D03*
X73660000Y-116241195D03*
X76200000Y-116241195D03*
X40640000Y-116241195D03*
X43180000Y-116241195D03*
X45720000Y-116241195D03*
X48260000Y-116241195D03*
X50800000Y-116241195D03*
X53340000Y-116241195D03*
X55880000Y-116241195D03*
X58420000Y-116241195D03*
D12*
X39420800Y-99781995D03*
D13*
X41960800Y-99781995D03*
X44500800Y-99781995D03*
X47040800Y-99781995D03*
X49580800Y-99781995D03*
X52120800Y-99781995D03*
X54660800Y-99781995D03*
X57200800Y-99781995D03*
X59740800Y-99781995D03*
X62280800Y-99781995D03*
X64820800Y-99781995D03*
X67360800Y-99781995D03*
X69900800Y-99781995D03*
X72440800Y-99781995D03*
D12*
X39420800Y-96276795D03*
D13*
X41960800Y-96276795D03*
X44500800Y-96276795D03*
X47040800Y-96276795D03*
X49580800Y-96276795D03*
X52120800Y-96276795D03*
X54660800Y-96276795D03*
X57200800Y-96276795D03*
X59740800Y-96276795D03*
X62280800Y-96276795D03*
X64820800Y-96276795D03*
X67360800Y-96276795D03*
X69900800Y-96276795D03*
X72440800Y-96276795D03*
D12*
X39420800Y-82255995D03*
D13*
X41960800Y-82255995D03*
X44500800Y-82255995D03*
X47040800Y-82255995D03*
X49580800Y-82255995D03*
X52120800Y-82255995D03*
X54660800Y-82255995D03*
X57200800Y-82255995D03*
X59740800Y-82255995D03*
X62280800Y-82255995D03*
X64820800Y-82255995D03*
X67360800Y-82255995D03*
X69900800Y-82255995D03*
X72440800Y-82255995D03*
D12*
X39420800Y-110297595D03*
D13*
X41960800Y-110297595D03*
X44500800Y-110297595D03*
X47040800Y-110297595D03*
X49580800Y-110297595D03*
X52120800Y-110297595D03*
X54660800Y-110297595D03*
X57200800Y-110297595D03*
X59740800Y-110297595D03*
X62280800Y-110297595D03*
X64820800Y-110297595D03*
X67360800Y-110297595D03*
X69900800Y-110297595D03*
X72440800Y-110297595D03*
D12*
X39420800Y-106792395D03*
D13*
X41960800Y-106792395D03*
X44500800Y-106792395D03*
X47040800Y-106792395D03*
X49580800Y-106792395D03*
X52120800Y-106792395D03*
X54660800Y-106792395D03*
X57200800Y-106792395D03*
X59740800Y-106792395D03*
X62280800Y-106792395D03*
X64820800Y-106792395D03*
X67360800Y-106792395D03*
X69900800Y-106792395D03*
X72440800Y-106792395D03*
D12*
X39420800Y-103287195D03*
D13*
X41960800Y-103287195D03*
X44500800Y-103287195D03*
X47040800Y-103287195D03*
X49580800Y-103287195D03*
X52120800Y-103287195D03*
X54660800Y-103287195D03*
X57200800Y-103287195D03*
X59740800Y-103287195D03*
X62280800Y-103287195D03*
X64820800Y-103287195D03*
X67360800Y-103287195D03*
X69900800Y-103287195D03*
X72440800Y-103287195D03*
D14*
X20243800Y-76637995D03*
D15*
X25958800Y-91623995D03*
X25958800Y-89337995D03*
X25958800Y-80193995D03*
X25958800Y-77907995D03*
X21132800Y-81209995D03*
X21132800Y-83241995D03*
X21132800Y-85273995D03*
X21132800Y-87305995D03*
X19354800Y-84257995D03*
X19354800Y-86289995D03*
X19354800Y-82225995D03*
X19354800Y-88321995D03*
D16*
X16814800Y-91115995D03*
X16814800Y-78415995D03*
D14*
X20243800Y-92893995D03*
X20243800Y-97525995D03*
D15*
X25958800Y-112511995D03*
X25958800Y-110225995D03*
X25958800Y-101081995D03*
X25958800Y-98795995D03*
X21132800Y-102097995D03*
X21132800Y-104129995D03*
X21132800Y-106161995D03*
X21132800Y-108193995D03*
X19354800Y-105145995D03*
X19354800Y-107177995D03*
X19354800Y-103113995D03*
X19354800Y-109209995D03*
D16*
X16814800Y-112003995D03*
X16814800Y-99303995D03*
D14*
X20243800Y-113781995D03*
D13*
X58420000Y-71079995D03*
X60960000Y-71079995D03*
X63500000Y-71079995D03*
X66040000Y-71079995D03*
X68580000Y-71079995D03*
X71120000Y-71079995D03*
X73660000Y-71079995D03*
X76200000Y-71079995D03*
X31496000Y-71092695D03*
X34036000Y-71092695D03*
X36576000Y-71092695D03*
X39116000Y-71092695D03*
X41656000Y-71092695D03*
X44196000Y-71092695D03*
X46736000Y-71092695D03*
X49276000Y-71092695D03*
X51816000Y-71092695D03*
X54356000Y-71092695D03*
X63500000Y-119339995D03*
X66040000Y-119339995D03*
X68580000Y-119339995D03*
X71120000Y-119339995D03*
X73660000Y-119339995D03*
X76200000Y-119339995D03*
X40640000Y-119339995D03*
X43180000Y-119339995D03*
X45720000Y-119339995D03*
X48260000Y-119339995D03*
X50800000Y-119339995D03*
X53340000Y-119339995D03*
X55880000Y-119339995D03*
X58420000Y-119339995D03*
X40640000Y-63500000D03*
X43180000Y-63500000D03*
X45720000Y-63500000D03*
X48260000Y-63500000D03*
X50800000Y-63500000D03*
X53340000Y-63500000D03*
X55880000Y-63500000D03*
X58420000Y-63500000D03*
X63500000Y-63500000D03*
X66040000Y-63500000D03*
X68580000Y-63500000D03*
X71120000Y-63500000D03*
X73660000Y-63500000D03*
X76200000Y-63500000D03*
X31496000Y-15252700D03*
X34036000Y-15252700D03*
X36576000Y-15252700D03*
X39116000Y-15252700D03*
X41656000Y-15252700D03*
X44196000Y-15252700D03*
X46736000Y-15252700D03*
X49276000Y-15252700D03*
X51816000Y-15252700D03*
X54356000Y-15252700D03*
X58420000Y-15240000D03*
X60960000Y-15240000D03*
X63500000Y-15240000D03*
X66040000Y-15240000D03*
X68580000Y-15240000D03*
X71120000Y-15240000D03*
X73660000Y-15240000D03*
X76200000Y-15240000D03*
D14*
X20243800Y-41686000D03*
D15*
X25958800Y-56672000D03*
X25958800Y-54386000D03*
X25958800Y-45242000D03*
X25958800Y-42956000D03*
X21132800Y-46258000D03*
X21132800Y-48290000D03*
X21132800Y-50322000D03*
X21132800Y-52354000D03*
X19354800Y-49306000D03*
X19354800Y-51338000D03*
X19354800Y-47274000D03*
X19354800Y-53370000D03*
D16*
X16814800Y-56164000D03*
X16814800Y-43464000D03*
D14*
X20243800Y-57942000D03*
X20243800Y-20798000D03*
D15*
X25958800Y-35784000D03*
X25958800Y-33498000D03*
X25958800Y-24354000D03*
X25958800Y-22068000D03*
X21132800Y-25370000D03*
X21132800Y-27402000D03*
X21132800Y-29434000D03*
X21132800Y-31466000D03*
X19354800Y-28418000D03*
X19354800Y-30450000D03*
X19354800Y-26386000D03*
X19354800Y-32482000D03*
D16*
X16814800Y-35276000D03*
X16814800Y-22576000D03*
D14*
X20243800Y-37054000D03*
D12*
X39420800Y-47447200D03*
D13*
X41960800Y-47447200D03*
X44500800Y-47447200D03*
X47040800Y-47447200D03*
X49580800Y-47447200D03*
X52120800Y-47447200D03*
X54660800Y-47447200D03*
X57200800Y-47447200D03*
X59740800Y-47447200D03*
X62280800Y-47447200D03*
X64820800Y-47447200D03*
X67360800Y-47447200D03*
X69900800Y-47447200D03*
X72440800Y-47447200D03*
D12*
X39420800Y-50952400D03*
D13*
X41960800Y-50952400D03*
X44500800Y-50952400D03*
X47040800Y-50952400D03*
X49580800Y-50952400D03*
X52120800Y-50952400D03*
X54660800Y-50952400D03*
X57200800Y-50952400D03*
X59740800Y-50952400D03*
X62280800Y-50952400D03*
X64820800Y-50952400D03*
X67360800Y-50952400D03*
X69900800Y-50952400D03*
X72440800Y-50952400D03*
D12*
X39420800Y-54457600D03*
D13*
X41960800Y-54457600D03*
X44500800Y-54457600D03*
X47040800Y-54457600D03*
X49580800Y-54457600D03*
X52120800Y-54457600D03*
X54660800Y-54457600D03*
X57200800Y-54457600D03*
X59740800Y-54457600D03*
X62280800Y-54457600D03*
X64820800Y-54457600D03*
X67360800Y-54457600D03*
X69900800Y-54457600D03*
X72440800Y-54457600D03*
D12*
X39420800Y-26416000D03*
D13*
X41960800Y-26416000D03*
X44500800Y-26416000D03*
X47040800Y-26416000D03*
X49580800Y-26416000D03*
X52120800Y-26416000D03*
X54660800Y-26416000D03*
X57200800Y-26416000D03*
X59740800Y-26416000D03*
X62280800Y-26416000D03*
X64820800Y-26416000D03*
X67360800Y-26416000D03*
X69900800Y-26416000D03*
X72440800Y-26416000D03*
D12*
X39420800Y-40436800D03*
D13*
X41960800Y-40436800D03*
X44500800Y-40436800D03*
X47040800Y-40436800D03*
X49580800Y-40436800D03*
X52120800Y-40436800D03*
X54660800Y-40436800D03*
X57200800Y-40436800D03*
X59740800Y-40436800D03*
X62280800Y-40436800D03*
X64820800Y-40436800D03*
X67360800Y-40436800D03*
X69900800Y-40436800D03*
X72440800Y-40436800D03*
D12*
X39420800Y-43942000D03*
D13*
X41960800Y-43942000D03*
X44500800Y-43942000D03*
X47040800Y-43942000D03*
X49580800Y-43942000D03*
X52120800Y-43942000D03*
X54660800Y-43942000D03*
X57200800Y-43942000D03*
X59740800Y-43942000D03*
X62280800Y-43942000D03*
X64820800Y-43942000D03*
X67360800Y-43942000D03*
X69900800Y-43942000D03*
X72440800Y-43942000D03*
X40640000Y-60401200D03*
X43180000Y-60401200D03*
X45720000Y-60401200D03*
X48260000Y-60401200D03*
X50800000Y-60401200D03*
X53340000Y-60401200D03*
X55880000Y-60401200D03*
X58420000Y-60401200D03*
X63500000Y-60401200D03*
X66040000Y-60401200D03*
X68580000Y-60401200D03*
X71120000Y-60401200D03*
X73660000Y-60401200D03*
X76200000Y-60401200D03*
X31496000Y-18326100D03*
X34036000Y-18326100D03*
X36576000Y-18326100D03*
X39116000Y-18326100D03*
X41656000Y-18326100D03*
X44196000Y-18326100D03*
X46736000Y-18326100D03*
X49276000Y-18326100D03*
X51816000Y-18326100D03*
X54356000Y-18326100D03*
X58420000Y-18338800D03*
X60960000Y-18338800D03*
X63500000Y-18338800D03*
X66040000Y-18338800D03*
X68580000Y-18338800D03*
X71120000Y-18338800D03*
X73660000Y-18338800D03*
X76200000Y-18338800D03*
D12*
X39420800Y-36931600D03*
D13*
X41960800Y-36931600D03*
X44500800Y-36931600D03*
X47040800Y-36931600D03*
X49580800Y-36931600D03*
X52120800Y-36931600D03*
X54660800Y-36931600D03*
X57200800Y-36931600D03*
X59740800Y-36931600D03*
X62280800Y-36931600D03*
X64820800Y-36931600D03*
X67360800Y-36931600D03*
X69900800Y-36931600D03*
X72440800Y-36931600D03*
D12*
X39420800Y-33426400D03*
D13*
X41960800Y-33426400D03*
X44500800Y-33426400D03*
X47040800Y-33426400D03*
X49580800Y-33426400D03*
X52120800Y-33426400D03*
X54660800Y-33426400D03*
X57200800Y-33426400D03*
X59740800Y-33426400D03*
X62280800Y-33426400D03*
X64820800Y-33426400D03*
X67360800Y-33426400D03*
X69900800Y-33426400D03*
X72440800Y-33426400D03*
D12*
X39420800Y-29921200D03*
D13*
X41960800Y-29921200D03*
X44500800Y-29921200D03*
X47040800Y-29921200D03*
X49580800Y-29921200D03*
X52120800Y-29921200D03*
X54660800Y-29921200D03*
X57200800Y-29921200D03*
X59740800Y-29921200D03*
X62280800Y-29921200D03*
X64820800Y-29921200D03*
X67360800Y-29921200D03*
X69900800Y-29921200D03*
X72440800Y-29921200D03*
D11*
X78740000Y-30480000D03*
X27940000Y-15240000D03*
X78740000Y-58420000D03*
X26670000Y-63500000D03*
M02*
