G04 #@! TF.FileFunction,Other,User*
%FSLAX46Y46*%
G04 Gerber Fmt 4.6, Leading zero omitted, Abs format (unit mm)*
G04 Created by KiCad (PCBNEW 4.0.1-stable) date Tue 12 Jul 2016 11:05:00 AM CEST*
%MOMM*%
G01*
G04 APERTURE LIST*
%ADD10C,0.100000*%
%ADD11C,0.050000*%
G04 APERTURE END LIST*
D10*
D11*
X26190000Y4290000D02*
X26190000Y790000D01*
X47490000Y4290000D02*
X47490000Y790000D01*
X26190000Y4290000D02*
X47490000Y4290000D01*
X26190000Y790000D02*
X47490000Y790000D01*
X49050000Y4290000D02*
X49050000Y790000D01*
X65250000Y4290000D02*
X65250000Y790000D01*
X49050000Y4290000D02*
X65250000Y4290000D01*
X49050000Y790000D02*
X65250000Y790000D01*
X17046000Y52537300D02*
X17046000Y49037300D01*
X43446000Y52537300D02*
X43446000Y49037300D01*
X17046000Y52537300D02*
X43446000Y52537300D01*
X17046000Y49037300D02*
X43446000Y49037300D01*
X43970000Y52550000D02*
X43970000Y49050000D01*
X65270000Y52550000D02*
X65270000Y49050000D01*
X43970000Y52550000D02*
X65270000Y52550000D01*
X43970000Y49050000D02*
X65270000Y49050000D01*
X22011300Y18242060D02*
X19111300Y18242060D01*
X22011300Y19742060D02*
X19111300Y19742060D01*
X22011300Y18242060D02*
X22011300Y19742060D01*
X19111300Y18242060D02*
X19111300Y19742060D01*
X17944400Y41831600D02*
X17944400Y44731600D01*
X19444400Y41831600D02*
X19444400Y44731600D01*
X17944400Y41831600D02*
X19444400Y41831600D01*
X17944400Y44731600D02*
X19444400Y44731600D01*
X14855440Y12837280D02*
X14855440Y19837280D01*
X14855440Y19837280D02*
X18855440Y19837280D01*
X18855440Y19837280D02*
X18855440Y12837280D01*
X18855440Y12837280D02*
X14855440Y12837280D01*
X14756000Y43469600D02*
X17756000Y43469600D01*
X17756000Y43469600D02*
X17756000Y41569600D01*
X14756000Y41569600D02*
X17756000Y41569600D01*
X14756000Y43469600D02*
X14756000Y41569600D01*
X22315040Y39588480D02*
X25315040Y39588480D01*
X25315040Y39588480D02*
X25315040Y37688480D01*
X22315040Y37688480D02*
X25315040Y37688480D01*
X22315040Y39588480D02*
X22315040Y37688480D01*
X11533140Y46663020D02*
X8233140Y46663020D01*
X8233140Y46663020D02*
X8233140Y49863020D01*
X8233140Y49863020D02*
X11533140Y49863020D01*
X11533140Y49863020D02*
X11533140Y46663020D01*
X19583600Y41784000D02*
X19583600Y45084000D01*
X19583600Y45084000D02*
X22783600Y45084000D01*
X22783600Y45084000D02*
X22783600Y41784000D01*
X22783600Y41784000D02*
X19583600Y41784000D01*
X34005040Y43122160D02*
X31405040Y43122160D01*
X34005040Y44722160D02*
X31405040Y44722160D01*
X34005040Y43122160D02*
X34005040Y44722160D01*
X31405040Y43122160D02*
X31405040Y44722160D01*
X14752800Y45199200D02*
X17352800Y45199200D01*
X14752800Y43599200D02*
X17352800Y43599200D01*
X14752800Y45199200D02*
X14752800Y43599200D01*
X17352800Y45199200D02*
X17352800Y43599200D01*
X24891240Y45029400D02*
X24891240Y41829400D01*
X22891240Y45029400D02*
X22891240Y41829400D01*
X24891240Y45029400D02*
X22891240Y45029400D01*
X24891240Y41829400D02*
X22891240Y41829400D01*
X14938220Y31960720D02*
X17538220Y31960720D01*
X14938220Y30360720D02*
X17538220Y30360720D01*
X14938220Y31960720D02*
X14938220Y30360720D01*
X17538220Y31960720D02*
X17538220Y30360720D01*
X22469320Y41333800D02*
X25069320Y41333800D01*
X22469320Y39733800D02*
X25069320Y39733800D01*
X22469320Y41333800D02*
X22469320Y39733800D01*
X25069320Y41333800D02*
X25069320Y39733800D01*
X19060360Y13584040D02*
X19060360Y17984040D01*
X22260360Y13584040D02*
X22260360Y17984040D01*
X19060360Y13584040D02*
X22260360Y13584040D01*
X19060360Y17984040D02*
X22260360Y17984040D01*
X14740400Y41378400D02*
X14740400Y32078400D01*
X22140400Y41378400D02*
X22140400Y32078400D01*
X14740400Y41378400D02*
X22140400Y41378400D01*
X14740400Y32078400D02*
X22140400Y32078400D01*
X26190000Y10548680D02*
X62740000Y10548680D01*
X26190000Y14048680D02*
X62740000Y14048680D01*
X26190000Y10548680D02*
X26190000Y14048680D01*
X62740000Y10548680D02*
X62740000Y14048680D01*
X26190000Y39852660D02*
X62740000Y39852660D01*
X26190000Y43352660D02*
X62740000Y43352660D01*
X26190000Y39852660D02*
X26190000Y43352660D01*
X62740000Y39852660D02*
X62740000Y43352660D01*
X26190000Y25201940D02*
X62740000Y25201940D01*
X26190000Y28701940D02*
X62740000Y28701940D01*
X26190000Y25201940D02*
X26190000Y28701940D01*
X62740000Y25201940D02*
X62740000Y28701940D01*
X26190000Y7388800D02*
X26190000Y3888800D01*
X47490000Y7388800D02*
X47490000Y3888800D01*
X26190000Y7388800D02*
X47490000Y7388800D01*
X26190000Y3888800D02*
X47490000Y3888800D01*
X49050000Y7388800D02*
X49050000Y3888800D01*
X65250000Y7388800D02*
X65250000Y3888800D01*
X49050000Y7388800D02*
X65250000Y7388800D01*
X49050000Y3888800D02*
X65250000Y3888800D01*
X17046000Y49463900D02*
X17046000Y45963900D01*
X43446000Y49463900D02*
X43446000Y45963900D01*
X17046000Y49463900D02*
X43446000Y49463900D01*
X17046000Y45963900D02*
X43446000Y45963900D01*
X43970000Y49451200D02*
X43970000Y45951200D01*
X65270000Y49451200D02*
X65270000Y45951200D01*
X43970000Y49451200D02*
X65270000Y49451200D01*
X43970000Y45951200D02*
X65270000Y45951200D01*
X26190000Y25201340D02*
X62740000Y25201340D01*
X26190000Y14051340D02*
X62740000Y14051340D01*
X26190000Y14051340D02*
X26190000Y25201340D01*
X62740000Y14051340D02*
X62740000Y25201340D01*
X26190000Y39854600D02*
X62740000Y39854600D01*
X26190000Y28704600D02*
X62740000Y28704600D01*
X26190000Y28704600D02*
X26190000Y39854600D01*
X62740000Y28704600D02*
X62740000Y39854600D01*
X14359060Y7373580D02*
X-3990940Y7373580D01*
X14359060Y23173580D02*
X-3990940Y23173580D01*
X-3990940Y23173580D02*
X-3990940Y7373580D01*
X14359060Y23173580D02*
X14359060Y7373580D01*
X14371760Y30157380D02*
X-3978240Y30157380D01*
X14371760Y45957380D02*
X-3978240Y45957380D01*
X-3978240Y45957380D02*
X-3978240Y30157380D01*
X14371760Y45957380D02*
X14371760Y30157380D01*
M02*
