G04 #@! TF.FileFunction,Legend,Top*
%FSLAX46Y46*%
G04 Gerber Fmt 4.6, Leading zero omitted, Abs format (unit mm)*
G04 Created by KiCad (PCBNEW 4.0.1-stable) date Tue 12 Jul 2016 11:05:00 AM CEST*
%MOMM*%
G01*
G04 APERTURE LIST*
%ADD10C,0.100000*%
%ADD11C,0.300000*%
%ADD12C,0.254000*%
%ADD13C,0.150000*%
G04 APERTURE END LIST*
D10*
X35121905Y7241526D02*
X35121905Y7736764D01*
X35426667Y7470097D01*
X35426667Y7584383D01*
X35464762Y7660573D01*
X35502857Y7698669D01*
X35579048Y7736764D01*
X35769524Y7736764D01*
X35845714Y7698669D01*
X35883810Y7660573D01*
X35921905Y7584383D01*
X35921905Y7355811D01*
X35883810Y7279621D01*
X35845714Y7241526D01*
X35845714Y8079621D02*
X35883810Y8117716D01*
X35921905Y8079621D01*
X35883810Y8041526D01*
X35845714Y8079621D01*
X35921905Y8079621D01*
X35121905Y8384383D02*
X35121905Y8879621D01*
X35426667Y8612954D01*
X35426667Y8727240D01*
X35464762Y8803430D01*
X35502857Y8841526D01*
X35579048Y8879621D01*
X35769524Y8879621D01*
X35845714Y8841526D01*
X35883810Y8803430D01*
X35921905Y8727240D01*
X35921905Y8498668D01*
X35883810Y8422478D01*
X35845714Y8384383D01*
X35121905Y9108192D02*
X35921905Y9374859D01*
X35121905Y9641526D01*
X37661905Y7698669D02*
X37661905Y7317716D01*
X38042857Y7279621D01*
X38004762Y7317716D01*
X37966667Y7393907D01*
X37966667Y7584383D01*
X38004762Y7660573D01*
X38042857Y7698669D01*
X38119048Y7736764D01*
X38309524Y7736764D01*
X38385714Y7698669D01*
X38423810Y7660573D01*
X38461905Y7584383D01*
X38461905Y7393907D01*
X38423810Y7317716D01*
X38385714Y7279621D01*
X37661905Y7965335D02*
X38461905Y8232002D01*
X37661905Y8498669D01*
X45281905Y7203430D02*
X46081905Y7470097D01*
X45281905Y7736764D01*
X46081905Y8003430D02*
X45548571Y8003430D01*
X45281905Y8003430D02*
X45320000Y7965335D01*
X45358095Y8003430D01*
X45320000Y8041525D01*
X45281905Y8003430D01*
X45358095Y8003430D01*
X45548571Y8384382D02*
X46081905Y8384382D01*
X45624762Y8384382D02*
X45586667Y8422477D01*
X45548571Y8498668D01*
X45548571Y8612954D01*
X45586667Y8689144D01*
X45662857Y8727239D01*
X46081905Y8727239D01*
X40240000Y7736764D02*
X40201905Y7660573D01*
X40201905Y7546288D01*
X40240000Y7432002D01*
X40316190Y7355811D01*
X40392381Y7317716D01*
X40544762Y7279621D01*
X40659048Y7279621D01*
X40811429Y7317716D01*
X40887619Y7355811D01*
X40963810Y7432002D01*
X41001905Y7546288D01*
X41001905Y7622478D01*
X40963810Y7736764D01*
X40925714Y7774859D01*
X40659048Y7774859D01*
X40659048Y7622478D01*
X41001905Y8117716D02*
X40201905Y8117716D01*
X41001905Y8574859D01*
X40201905Y8574859D01*
X41001905Y8955811D02*
X40201905Y8955811D01*
X40201905Y9146287D01*
X40240000Y9260573D01*
X40316190Y9336764D01*
X40392381Y9374859D01*
X40544762Y9412954D01*
X40659048Y9412954D01*
X40811429Y9374859D01*
X40887619Y9336764D01*
X40963810Y9260573D01*
X41001905Y9146287D01*
X41001905Y8955811D01*
X42780000Y7736764D02*
X42741905Y7660573D01*
X42741905Y7546288D01*
X42780000Y7432002D01*
X42856190Y7355811D01*
X42932381Y7317716D01*
X43084762Y7279621D01*
X43199048Y7279621D01*
X43351429Y7317716D01*
X43427619Y7355811D01*
X43503810Y7432002D01*
X43541905Y7546288D01*
X43541905Y7622478D01*
X43503810Y7736764D01*
X43465714Y7774859D01*
X43199048Y7774859D01*
X43199048Y7622478D01*
X43541905Y8117716D02*
X42741905Y8117716D01*
X43541905Y8574859D01*
X42741905Y8574859D01*
X43541905Y8955811D02*
X42741905Y8955811D01*
X42741905Y9146287D01*
X42780000Y9260573D01*
X42856190Y9336764D01*
X42932381Y9374859D01*
X43084762Y9412954D01*
X43199048Y9412954D01*
X43351429Y9374859D01*
X43427619Y9336764D01*
X43503810Y9260573D01*
X43541905Y9146287D01*
X43541905Y8955811D01*
D11*
X4788291Y47787383D02*
X3288291Y47787383D01*
X4788291Y48644526D01*
X3288291Y48644526D01*
X4002577Y49358812D02*
X4002577Y49858812D01*
X4788291Y50073098D02*
X4788291Y49358812D01*
X3288291Y49358812D01*
X3288291Y50073098D01*
X3288291Y50573098D02*
X4788291Y51573098D01*
X3288291Y51573098D02*
X4788291Y50573098D01*
X3288291Y51930240D02*
X3288291Y52787383D01*
X4788291Y52358812D02*
X3288291Y52358812D01*
D12*
X4116070Y46066710D02*
X4959350Y46909990D01*
X4959350Y46909990D02*
X3272790Y46909990D01*
X3272790Y46909990D02*
X4116070Y46066710D01*
X4945380Y6121400D02*
X4102100Y6964680D01*
X3258820Y6121400D02*
X4945380Y6121400D01*
X4102100Y6964680D02*
X3258820Y6121400D01*
D11*
X4790831Y762766D02*
X3290831Y762766D01*
X4362260Y1262766D01*
X3290831Y1762766D01*
X4790831Y1762766D01*
X4362260Y2405623D02*
X4362260Y3119909D01*
X4790831Y2262766D02*
X3290831Y2762766D01*
X4790831Y3262766D01*
X4790831Y3762766D02*
X3290831Y3762766D01*
X4790831Y4477052D02*
X3290831Y4477052D01*
X4790831Y5334195D01*
X3290831Y5334195D01*
D10*
X50933333Y7696181D02*
X50933333Y8077133D01*
X51161905Y7619990D02*
X50361905Y7886657D01*
X51161905Y8153324D01*
X50361905Y8572371D02*
X50361905Y8648562D01*
X50400000Y8724752D01*
X50438095Y8762847D01*
X50514286Y8800943D01*
X50666667Y8839038D01*
X50857143Y8839038D01*
X51009524Y8800943D01*
X51085714Y8762847D01*
X51123810Y8724752D01*
X51161905Y8648562D01*
X51161905Y8572371D01*
X51123810Y8496181D01*
X51085714Y8458085D01*
X51009524Y8419990D01*
X50857143Y8381895D01*
X50666667Y8381895D01*
X50514286Y8419990D01*
X50438095Y8458085D01*
X50400000Y8496181D01*
X50361905Y8572371D01*
X53473333Y7696181D02*
X53473333Y8077133D01*
X53701905Y7619990D02*
X52901905Y7886657D01*
X53701905Y8153324D01*
X53701905Y8839038D02*
X53701905Y8381895D01*
X53701905Y8610466D02*
X52901905Y8610466D01*
X53016190Y8534276D01*
X53092381Y8458085D01*
X53130476Y8381895D01*
X56013333Y7696181D02*
X56013333Y8077133D01*
X56241905Y7619990D02*
X55441905Y7886657D01*
X56241905Y8153324D01*
X55518095Y8381895D02*
X55480000Y8419990D01*
X55441905Y8496181D01*
X55441905Y8686657D01*
X55480000Y8762847D01*
X55518095Y8800943D01*
X55594286Y8839038D01*
X55670476Y8839038D01*
X55784762Y8800943D01*
X56241905Y8343800D01*
X56241905Y8839038D01*
X58553333Y7696181D02*
X58553333Y8077133D01*
X58781905Y7619990D02*
X57981905Y7886657D01*
X58781905Y8153324D01*
X57981905Y8343800D02*
X57981905Y8839038D01*
X58286667Y8572371D01*
X58286667Y8686657D01*
X58324762Y8762847D01*
X58362857Y8800943D01*
X58439048Y8839038D01*
X58629524Y8839038D01*
X58705714Y8800943D01*
X58743810Y8762847D01*
X58781905Y8686657D01*
X58781905Y8458085D01*
X58743810Y8381895D01*
X58705714Y8343800D01*
X61093333Y7696181D02*
X61093333Y8077133D01*
X61321905Y7619990D02*
X60521905Y7886657D01*
X61321905Y8153324D01*
X60788571Y8762847D02*
X61321905Y8762847D01*
X60483810Y8572371D02*
X61055238Y8381895D01*
X61055238Y8877133D01*
X63633333Y7696181D02*
X63633333Y8077133D01*
X63861905Y7619990D02*
X63061905Y7886657D01*
X63861905Y8153324D01*
X63061905Y8800943D02*
X63061905Y8419990D01*
X63442857Y8381895D01*
X63404762Y8419990D01*
X63366667Y8496181D01*
X63366667Y8686657D01*
X63404762Y8762847D01*
X63442857Y8800943D01*
X63519048Y8839038D01*
X63709524Y8839038D01*
X63785714Y8800943D01*
X63823810Y8762847D01*
X63861905Y8686657D01*
X63861905Y8496181D01*
X63823810Y8419990D01*
X63785714Y8381895D01*
X29297585Y45250714D02*
X29297585Y44793571D01*
X29297585Y45022142D02*
X28497585Y45022142D01*
X28611870Y44945952D01*
X28688061Y44869761D01*
X28726156Y44793571D01*
X28497585Y45517381D02*
X28497585Y46012619D01*
X28802347Y45745952D01*
X28802347Y45860238D01*
X28840442Y45936428D01*
X28878537Y45974524D01*
X28954728Y46012619D01*
X29145204Y46012619D01*
X29221394Y45974524D01*
X29259490Y45936428D01*
X29297585Y45860238D01*
X29297585Y45631666D01*
X29259490Y45555476D01*
X29221394Y45517381D01*
X32023005Y45250714D02*
X32023005Y44793571D01*
X32023005Y45022142D02*
X31223005Y45022142D01*
X31337290Y44945952D01*
X31413481Y44869761D01*
X31451576Y44793571D01*
X31299195Y45555476D02*
X31261100Y45593571D01*
X31223005Y45669762D01*
X31223005Y45860238D01*
X31261100Y45936428D01*
X31299195Y45974524D01*
X31375386Y46012619D01*
X31451576Y46012619D01*
X31565862Y45974524D01*
X32023005Y45517381D01*
X32023005Y46012619D01*
X34067743Y44145951D02*
X34029648Y44184047D01*
X33991552Y44260237D01*
X34067743Y44412618D01*
X34029648Y44488809D01*
X33991552Y44526904D01*
X34372505Y45250714D02*
X34372505Y44793571D01*
X34372505Y45022142D02*
X33572505Y45022142D01*
X33686790Y44945952D01*
X33762981Y44869761D01*
X33801076Y44793571D01*
X34372505Y46012619D02*
X34372505Y45555476D01*
X34372505Y45784047D02*
X33572505Y45784047D01*
X33686790Y45707857D01*
X33762981Y45631666D01*
X33801076Y45555476D01*
X36887143Y43815251D02*
X36849048Y43853347D01*
X36810952Y43929537D01*
X36887143Y44081918D01*
X36849048Y44158109D01*
X36810952Y44196204D01*
X37191905Y44920014D02*
X37191905Y44462871D01*
X37191905Y44691442D02*
X36391905Y44691442D01*
X36506190Y44615252D01*
X36582381Y44539061D01*
X36620476Y44462871D01*
X36391905Y45415252D02*
X36391905Y45491443D01*
X36430000Y45567633D01*
X36468095Y45605728D01*
X36544286Y45643824D01*
X36696667Y45681919D01*
X36887143Y45681919D01*
X37039524Y45643824D01*
X37115714Y45605728D01*
X37153810Y45567633D01*
X37191905Y45491443D01*
X37191905Y45415252D01*
X37153810Y45339062D01*
X37115714Y45300966D01*
X37039524Y45262871D01*
X36887143Y45224776D01*
X36696667Y45224776D01*
X36544286Y45262871D01*
X36468095Y45300966D01*
X36430000Y45339062D01*
X36391905Y45415252D01*
X39185843Y44577156D02*
X39147748Y44615252D01*
X39109652Y44691442D01*
X39185843Y44843823D01*
X39147748Y44920014D01*
X39109652Y44958109D01*
X39490605Y45300966D02*
X39490605Y45453347D01*
X39452510Y45529538D01*
X39414414Y45567633D01*
X39300129Y45643824D01*
X39147748Y45681919D01*
X38842986Y45681919D01*
X38766795Y45643824D01*
X38728700Y45605728D01*
X38690605Y45529538D01*
X38690605Y45377157D01*
X38728700Y45300966D01*
X38766795Y45262871D01*
X38842986Y45224776D01*
X39033462Y45224776D01*
X39109652Y45262871D01*
X39147748Y45300966D01*
X39185843Y45377157D01*
X39185843Y45529538D01*
X39147748Y45605728D01*
X39109652Y45643824D01*
X39033462Y45681919D01*
X41560762Y45377157D02*
X41522667Y45300966D01*
X41484571Y45262871D01*
X41408381Y45224776D01*
X41370286Y45224776D01*
X41294095Y45262871D01*
X41256000Y45300966D01*
X41217905Y45377157D01*
X41217905Y45529538D01*
X41256000Y45605728D01*
X41294095Y45643824D01*
X41370286Y45681919D01*
X41408381Y45681919D01*
X41484571Y45643824D01*
X41522667Y45605728D01*
X41560762Y45529538D01*
X41560762Y45377157D01*
X41598857Y45300966D01*
X41636952Y45262871D01*
X41713143Y45224776D01*
X41865524Y45224776D01*
X41941714Y45262871D01*
X41979810Y45300966D01*
X42017905Y45377157D01*
X42017905Y45529538D01*
X41979810Y45605728D01*
X41941714Y45643824D01*
X41865524Y45681919D01*
X41713143Y45681919D01*
X41636952Y45643824D01*
X41598857Y45605728D01*
X41560762Y45529538D01*
X45294605Y45186681D02*
X45294605Y45720014D01*
X46094605Y45377157D01*
X48317143Y44577156D02*
X48279048Y44615252D01*
X48240952Y44691442D01*
X48317143Y44843823D01*
X48279048Y44920014D01*
X48240952Y44958109D01*
X47821905Y45605728D02*
X47821905Y45453347D01*
X47860000Y45377157D01*
X47898095Y45339062D01*
X48012381Y45262871D01*
X48164762Y45224776D01*
X48469524Y45224776D01*
X48545714Y45262871D01*
X48583810Y45300966D01*
X48621905Y45377157D01*
X48621905Y45529538D01*
X48583810Y45605728D01*
X48545714Y45643824D01*
X48469524Y45681919D01*
X48279048Y45681919D01*
X48202857Y45643824D01*
X48164762Y45605728D01*
X48126667Y45529538D01*
X48126667Y45377157D01*
X48164762Y45300966D01*
X48202857Y45262871D01*
X48279048Y45224776D01*
X50857143Y44577156D02*
X50819048Y44615252D01*
X50780952Y44691442D01*
X50857143Y44843823D01*
X50819048Y44920014D01*
X50780952Y44958109D01*
X50361905Y45643824D02*
X50361905Y45262871D01*
X50742857Y45224776D01*
X50704762Y45262871D01*
X50666667Y45339062D01*
X50666667Y45529538D01*
X50704762Y45605728D01*
X50742857Y45643824D01*
X50819048Y45681919D01*
X51009524Y45681919D01*
X51085714Y45643824D01*
X51123810Y45605728D01*
X51161905Y45529538D01*
X51161905Y45339062D01*
X51123810Y45262871D01*
X51085714Y45224776D01*
X53168571Y45605728D02*
X53701905Y45605728D01*
X52863810Y45415252D02*
X53435238Y45224776D01*
X53435238Y45720014D01*
X55937143Y44577156D02*
X55899048Y44615252D01*
X55860952Y44691442D01*
X55937143Y44843823D01*
X55899048Y44920014D01*
X55860952Y44958109D01*
X55441905Y45186681D02*
X55441905Y45681919D01*
X55746667Y45415252D01*
X55746667Y45529538D01*
X55784762Y45605728D01*
X55822857Y45643824D01*
X55899048Y45681919D01*
X56089524Y45681919D01*
X56165714Y45643824D01*
X56203810Y45605728D01*
X56241905Y45529538D01*
X56241905Y45300966D01*
X56203810Y45224776D01*
X56165714Y45186681D01*
X58058095Y45224776D02*
X58020000Y45262871D01*
X57981905Y45339062D01*
X57981905Y45529538D01*
X58020000Y45605728D01*
X58058095Y45643824D01*
X58134286Y45681919D01*
X58210476Y45681919D01*
X58324762Y45643824D01*
X58781905Y45186681D01*
X58781905Y45681919D01*
X60521905Y44539061D02*
X60521905Y44996204D01*
X61321905Y44767633D02*
X60521905Y44767633D01*
X60521905Y45186681D02*
X61321905Y45720014D01*
X60521905Y45720014D02*
X61321905Y45186681D01*
X63861905Y44920014D02*
X63480952Y44653347D01*
X63861905Y44462871D02*
X63061905Y44462871D01*
X63061905Y44767633D01*
X63100000Y44843824D01*
X63138095Y44881919D01*
X63214286Y44920014D01*
X63328571Y44920014D01*
X63404762Y44881919D01*
X63442857Y44843824D01*
X63480952Y44767633D01*
X63480952Y44462871D01*
X63061905Y45186681D02*
X63861905Y45720014D01*
X63061905Y45720014D02*
X63861905Y45186681D01*
X62882766Y12744395D02*
X63378004Y12744395D01*
X63111337Y12439633D01*
X63225623Y12439633D01*
X63301813Y12401538D01*
X63339909Y12363443D01*
X63378004Y12287252D01*
X63378004Y12096776D01*
X63339909Y12020586D01*
X63301813Y11982490D01*
X63225623Y11944395D01*
X62997051Y11944395D01*
X62920861Y11982490D01*
X62882766Y12020586D01*
X63720861Y12020586D02*
X63758956Y11982490D01*
X63720861Y11944395D01*
X63682766Y11982490D01*
X63720861Y12020586D01*
X63720861Y11944395D01*
X64025623Y12744395D02*
X64520861Y12744395D01*
X64254194Y12439633D01*
X64368480Y12439633D01*
X64444670Y12401538D01*
X64482766Y12363443D01*
X64520861Y12287252D01*
X64520861Y12096776D01*
X64482766Y12020586D01*
X64444670Y11982490D01*
X64368480Y11944395D01*
X64139908Y11944395D01*
X64063718Y11982490D01*
X64025623Y12020586D01*
X64749432Y12744395D02*
X65016099Y11944395D01*
X65282766Y12744395D01*
X63360224Y27341780D02*
X63284033Y27379875D01*
X63169748Y27379875D01*
X63055462Y27341780D01*
X62979271Y27265590D01*
X62941176Y27189399D01*
X62903081Y27037018D01*
X62903081Y26922732D01*
X62941176Y26770351D01*
X62979271Y26694161D01*
X63055462Y26617970D01*
X63169748Y26579875D01*
X63245938Y26579875D01*
X63360224Y26617970D01*
X63398319Y26656066D01*
X63398319Y26922732D01*
X63245938Y26922732D01*
X63741176Y26579875D02*
X63741176Y27379875D01*
X64198319Y26579875D01*
X64198319Y27379875D01*
X64579271Y26579875D02*
X64579271Y27379875D01*
X64769747Y27379875D01*
X64884033Y27341780D01*
X64960224Y27265590D01*
X64998319Y27189399D01*
X65036414Y27037018D01*
X65036414Y26922732D01*
X64998319Y26770351D01*
X64960224Y26694161D01*
X64884033Y26617970D01*
X64769747Y26579875D01*
X64579271Y26579875D01*
X63332289Y42045835D02*
X62951336Y42045835D01*
X62913241Y41664883D01*
X62951336Y41702978D01*
X63027527Y41741073D01*
X63218003Y41741073D01*
X63294193Y41702978D01*
X63332289Y41664883D01*
X63370384Y41588692D01*
X63370384Y41398216D01*
X63332289Y41322026D01*
X63294193Y41283930D01*
X63218003Y41245835D01*
X63027527Y41245835D01*
X62951336Y41283930D01*
X62913241Y41322026D01*
X63598955Y42045835D02*
X63865622Y41245835D01*
X64132289Y42045835D01*
D13*
X16553180Y23594540D02*
X16553180Y22197540D01*
X16680180Y23848540D02*
X16680180Y22070540D01*
X16807180Y24229540D02*
X16807180Y21689540D01*
X16934180Y21562540D02*
X16934180Y24356540D01*
X17061180Y24483540D02*
X17061180Y21435540D01*
X17188180Y21308540D02*
X17188180Y24610540D01*
X17315180Y24737540D02*
X17315180Y21181540D01*
X21252180Y22959540D02*
G75*
G03X21252180Y22959540I-2413000J0D01*
G01*
X16172180Y25626540D02*
X20744180Y25626540D01*
X20744180Y25626540D02*
X21506180Y24864540D01*
X21506180Y24864540D02*
X21506180Y21054540D01*
X21506180Y21054540D02*
X20744180Y20292540D01*
X20744180Y20292540D02*
X16172180Y20292540D01*
X16172180Y20292540D02*
X16172180Y25626540D01*
X20998180Y22959540D02*
X20236180Y22959540D01*
X20617180Y23340540D02*
X20617180Y22578540D01*
X29210000Y1270000D02*
X46990000Y1270000D01*
X46990000Y1270000D02*
X46990000Y3810000D01*
X46990000Y3810000D02*
X29210000Y3810000D01*
X26390000Y990000D02*
X27940000Y990000D01*
X29210000Y1270000D02*
X29210000Y3810000D01*
X27940000Y4090000D02*
X26390000Y4090000D01*
X26390000Y4090000D02*
X26390000Y990000D01*
X52070000Y1270000D02*
X64770000Y1270000D01*
X64770000Y1270000D02*
X64770000Y3810000D01*
X64770000Y3810000D02*
X52070000Y3810000D01*
X49250000Y990000D02*
X50800000Y990000D01*
X52070000Y1270000D02*
X52070000Y3810000D01*
X50800000Y4090000D02*
X49250000Y4090000D01*
X49250000Y4090000D02*
X49250000Y990000D01*
X20066000Y49517300D02*
X42926000Y49517300D01*
X42926000Y49517300D02*
X42926000Y52057300D01*
X42926000Y52057300D02*
X20066000Y52057300D01*
X17246000Y49237300D02*
X18796000Y49237300D01*
X20066000Y49517300D02*
X20066000Y52057300D01*
X18796000Y52337300D02*
X17246000Y52337300D01*
X17246000Y52337300D02*
X17246000Y49237300D01*
X46990000Y49530000D02*
X64770000Y49530000D01*
X64770000Y49530000D02*
X64770000Y52070000D01*
X64770000Y52070000D02*
X46990000Y52070000D01*
X44170000Y49250000D02*
X45720000Y49250000D01*
X46990000Y49530000D02*
X46990000Y52070000D01*
X45720000Y52350000D02*
X44170000Y52350000D01*
X44170000Y52350000D02*
X44170000Y49250000D01*
X20911300Y18392060D02*
X20211300Y18392060D01*
X20211300Y19592060D02*
X20911300Y19592060D01*
X18094400Y42931600D02*
X18094400Y43631600D01*
X19294400Y43631600D02*
X19294400Y42931600D01*
X18605500Y14538140D02*
X18254980Y14538140D01*
X15105380Y14538140D02*
X15455900Y14538140D01*
X18605500Y18587720D02*
X18254980Y18587720D01*
X18605500Y14086840D02*
X18254980Y14086840D01*
X15105380Y14086840D02*
X15455900Y14086840D01*
X15105380Y18587720D02*
X15455900Y18587720D01*
X18605500Y14086840D02*
X18605500Y18587720D01*
X15105380Y14086840D02*
X15105380Y18587720D01*
X29354780Y44371740D02*
X29354780Y43472580D01*
X29354780Y43472580D02*
X28956000Y43472580D01*
X28956000Y44371740D02*
X28956000Y43472580D01*
X29354780Y44371740D02*
X28956000Y44371740D01*
X30652720Y44371740D02*
X30652720Y43472580D01*
X30652720Y43472580D02*
X30253940Y43472580D01*
X30253940Y44371740D02*
X30253940Y43472580D01*
X30652720Y44371740D02*
X30253940Y44371740D01*
X29804360Y44371740D02*
X29804360Y44221880D01*
X29804360Y44221880D02*
X29504640Y44221880D01*
X29504640Y44371740D02*
X29504640Y44221880D01*
X29804360Y44371740D02*
X29504640Y44371740D01*
X29804360Y43622440D02*
X29804360Y43472580D01*
X29804360Y43472580D02*
X29504640Y43472580D01*
X29504640Y43622440D02*
X29504640Y43472580D01*
X29804360Y43622440D02*
X29504640Y43622440D01*
X29804360Y44072020D02*
X29804360Y43772300D01*
X29804360Y43772300D02*
X29504640Y43772300D01*
X29504640Y44072020D02*
X29504640Y43772300D01*
X29804360Y44072020D02*
X29504640Y44072020D01*
X29354780Y44320940D02*
X30253940Y44320940D01*
X29354780Y43523380D02*
X30253940Y43523380D01*
X16506000Y42519600D02*
X16756000Y42519600D01*
X16006000Y42519600D02*
X15756000Y42519600D01*
X16006000Y42519600D02*
X16506000Y42869600D01*
X16506000Y42869600D02*
X16506000Y42169600D01*
X16506000Y42169600D02*
X16006000Y42519600D01*
X16006000Y42869600D02*
X16006000Y42169600D01*
X14956000Y41719600D02*
X17356000Y41719600D01*
X14956000Y43319600D02*
X17356000Y43319600D01*
X24065040Y38638480D02*
X24315040Y38638480D01*
X23565040Y38638480D02*
X23315040Y38638480D01*
X23565040Y38638480D02*
X24065040Y38988480D01*
X24065040Y38988480D02*
X24065040Y38288480D01*
X24065040Y38288480D02*
X23565040Y38638480D01*
X23565040Y38988480D02*
X23565040Y38288480D01*
X22515040Y37838480D02*
X24915040Y37838480D01*
X22515040Y39438480D02*
X24915040Y39438480D01*
X8583980Y47612780D02*
X8632240Y47612780D01*
X11382960Y48313820D02*
X11382960Y47612780D01*
X11382960Y47612780D02*
X11134040Y47612780D01*
X8583980Y47612780D02*
X8383320Y47612780D01*
X8383320Y47612780D02*
X8383320Y48313820D01*
X20533360Y44733160D02*
X20533360Y44684900D01*
X21234400Y41934180D02*
X20533360Y41934180D01*
X20533360Y41934180D02*
X20533360Y42183100D01*
X20533360Y44733160D02*
X20533360Y44933820D01*
X20533360Y44933820D02*
X21234400Y44933820D01*
X32205040Y44597160D02*
X33205040Y44597160D01*
X33205040Y43247160D02*
X32205040Y43247160D01*
X16552800Y43724200D02*
X15552800Y43724200D01*
X15552800Y45074200D02*
X16552800Y45074200D01*
X23016240Y42829400D02*
X23016240Y44029400D01*
X24766240Y44029400D02*
X24766240Y42829400D01*
X16738220Y30485720D02*
X15738220Y30485720D01*
X15738220Y31835720D02*
X16738220Y31835720D01*
X24269320Y39858800D02*
X23269320Y39858800D01*
X23269320Y41208800D02*
X24269320Y41208800D01*
X22135360Y16784040D02*
X22135360Y14784040D01*
X19185360Y14784040D02*
X19185360Y16784040D01*
X16365400Y41178400D02*
X16365400Y41063400D01*
X20515400Y41178400D02*
X20515400Y41063400D01*
X20515400Y32278400D02*
X20515400Y32393400D01*
X16365400Y32278400D02*
X16365400Y32393400D01*
X16365400Y41178400D02*
X20515400Y41178400D01*
X16365400Y32278400D02*
X20515400Y32278400D01*
X16365400Y41063400D02*
X14990400Y41063400D01*
X29210000Y11028680D02*
X62230000Y11028680D01*
X62230000Y11028680D02*
X62230000Y13568680D01*
X62230000Y13568680D02*
X29210000Y13568680D01*
X26390000Y13848680D02*
X27940000Y13848680D01*
X29210000Y13568680D02*
X29210000Y11028680D01*
X27940000Y10748680D02*
X26390000Y10748680D01*
X26390000Y10748680D02*
X26390000Y13848680D01*
X29210000Y40332660D02*
X62230000Y40332660D01*
X62230000Y40332660D02*
X62230000Y42872660D01*
X62230000Y42872660D02*
X29210000Y42872660D01*
X26390000Y43152660D02*
X27940000Y43152660D01*
X29210000Y42872660D02*
X29210000Y40332660D01*
X27940000Y40052660D02*
X26390000Y40052660D01*
X26390000Y40052660D02*
X26390000Y43152660D01*
X29210000Y25681940D02*
X62230000Y25681940D01*
X62230000Y25681940D02*
X62230000Y28221940D01*
X62230000Y28221940D02*
X29210000Y28221940D01*
X26390000Y28501940D02*
X27940000Y28501940D01*
X29210000Y28221940D02*
X29210000Y25681940D01*
X27940000Y25401940D02*
X26390000Y25401940D01*
X26390000Y25401940D02*
X26390000Y28501940D01*
X29210000Y4368800D02*
X46990000Y4368800D01*
X46990000Y4368800D02*
X46990000Y6908800D01*
X46990000Y6908800D02*
X29210000Y6908800D01*
X26390000Y4088800D02*
X27940000Y4088800D01*
X29210000Y4368800D02*
X29210000Y6908800D01*
X27940000Y7188800D02*
X26390000Y7188800D01*
X26390000Y7188800D02*
X26390000Y4088800D01*
X52070000Y4368800D02*
X64770000Y4368800D01*
X64770000Y4368800D02*
X64770000Y6908800D01*
X64770000Y6908800D02*
X52070000Y6908800D01*
X49250000Y4088800D02*
X50800000Y4088800D01*
X52070000Y4368800D02*
X52070000Y6908800D01*
X50800000Y7188800D02*
X49250000Y7188800D01*
X49250000Y7188800D02*
X49250000Y4088800D01*
X20066000Y46443900D02*
X42926000Y46443900D01*
X42926000Y46443900D02*
X42926000Y48983900D01*
X42926000Y48983900D02*
X20066000Y48983900D01*
X17246000Y46163900D02*
X18796000Y46163900D01*
X20066000Y46443900D02*
X20066000Y48983900D01*
X18796000Y49263900D02*
X17246000Y49263900D01*
X17246000Y49263900D02*
X17246000Y46163900D01*
X46990000Y46431200D02*
X64770000Y46431200D01*
X64770000Y46431200D02*
X64770000Y48971200D01*
X64770000Y48971200D02*
X46990000Y48971200D01*
X44170000Y46151200D02*
X45720000Y46151200D01*
X46990000Y46431200D02*
X46990000Y48971200D01*
X45720000Y49251200D02*
X44170000Y49251200D01*
X44170000Y49251200D02*
X44170000Y46151200D01*
X27940000Y14251340D02*
X26390000Y14251340D01*
X26390000Y14251340D02*
X26390000Y17351340D01*
X27940000Y28904600D02*
X26390000Y28904600D01*
X26390000Y28904600D02*
X26390000Y32004600D01*
X-3710940Y22898580D02*
X-3710940Y7658580D01*
X14069060Y7658580D02*
X-3710940Y7658580D01*
X14069060Y7658580D02*
X14069060Y22898580D01*
X14069060Y22898580D02*
X-3710940Y22898580D01*
X-3698240Y45682380D02*
X-3698240Y30442380D01*
X14081760Y30442380D02*
X-3698240Y30442380D01*
X14081760Y30442380D02*
X14081760Y45682380D01*
X14081760Y45682380D02*
X-3698240Y45682380D01*
X12402227Y9120599D02*
X12402227Y8406313D01*
X12354607Y8263456D01*
X12259369Y8168218D01*
X12116512Y8120599D01*
X12021274Y8120599D01*
X13402227Y8120599D02*
X12830798Y8120599D01*
X13116512Y8120599D02*
X13116512Y9120599D01*
X13021274Y8977742D01*
X12926036Y8882504D01*
X12830798Y8834885D01*
X12503827Y31866299D02*
X12503827Y31152013D01*
X12456207Y31009156D01*
X12360969Y30913918D01*
X12218112Y30866299D01*
X12122874Y30866299D01*
X12932398Y31771061D02*
X12980017Y31818680D01*
X13075255Y31866299D01*
X13313351Y31866299D01*
X13408589Y31818680D01*
X13456208Y31771061D01*
X13503827Y31675823D01*
X13503827Y31580585D01*
X13456208Y31437728D01*
X12884779Y30866299D01*
X13503827Y30866299D01*
M02*
