G04 #@! TF.FileFunction,Copper,L1,Top,Signal*
%FSLAX46Y46*%
G04 Gerber Fmt 4.6, Leading zero omitted, Abs format (unit mm)*
G04 Created by KiCad (PCBNEW 4.0.7) date Fri May 18 16:22:30 2018*
%MOMM*%
%LPD*%
G01*
G04 APERTURE LIST*
%ADD10C,0.100000*%
%ADD11R,0.500000X0.900000*%
%ADD12R,2.999740X1.600200*%
%ADD13R,0.800000X0.750000*%
%ADD14R,0.750000X0.800000*%
%ADD15R,1.800860X2.499360*%
%ADD16R,0.797560X0.797560*%
%ADD17R,0.590000X0.450000*%
%ADD18R,0.800100X0.800100*%
%ADD19R,0.900000X0.500000*%
%ADD20R,1.300000X0.700000*%
%ADD21R,2.500000X0.900000*%
%ADD22R,1.500000X0.600000*%
%ADD23C,3.048000*%
%ADD24C,2.032000*%
%ADD25O,1.727200X2.032000*%
%ADD26C,3.300000*%
%ADD27C,3.200000*%
%ADD28R,1.501140X1.501140*%
%ADD29C,1.501140*%
%ADD30R,1.727200X2.032000*%
%ADD31C,0.750000*%
%ADD32C,0.600000*%
%ADD33C,0.900000*%
%ADD34C,0.508000*%
%ADD35C,0.304800*%
%ADD36C,0.203200*%
%ADD37C,0.381000*%
%ADD38C,0.254000*%
G04 APERTURE END LIST*
D10*
D11*
X24661560Y36652680D03*
X23161560Y36652680D03*
D12*
X21038820Y22959540D03*
X16639540Y22959540D03*
D13*
X21311300Y18992060D03*
X19811300Y18992060D03*
D14*
X18694400Y42531600D03*
X18694400Y44031600D03*
D15*
X16855440Y14338300D03*
X16855440Y18336260D03*
D16*
X19936460Y28461180D03*
X19936460Y26962580D03*
D17*
X15201000Y42519600D03*
X17311000Y42519600D03*
X22760040Y38638480D03*
X24870040Y38638480D03*
D18*
X18168660Y28966640D03*
X16268660Y28966640D03*
X17218660Y26967660D03*
X22184360Y42484000D03*
X22184360Y44384000D03*
X20185380Y43434000D03*
D19*
X19936460Y31141580D03*
X19936460Y29641580D03*
D11*
X15302800Y44399200D03*
X16802800Y44399200D03*
D20*
X23891240Y44379400D03*
X23891240Y42479400D03*
D11*
X15488220Y31160720D03*
X16988220Y31160720D03*
X23019320Y40533800D03*
X24519320Y40533800D03*
D21*
X20660360Y14334040D03*
X20660360Y17234040D03*
D22*
X15740400Y40538400D03*
X15740400Y39268400D03*
X15740400Y37998400D03*
X15740400Y36728400D03*
X15740400Y35458400D03*
X15740400Y34188400D03*
X15740400Y32918400D03*
X21140400Y32918400D03*
X21140400Y34188400D03*
X21140400Y35458400D03*
X21140400Y36728400D03*
X21140400Y37998400D03*
X21140400Y39268400D03*
X21140400Y40538400D03*
D23*
X66040000Y35560000D03*
X15240000Y50800000D03*
X66040000Y7620000D03*
X13970000Y2540000D03*
D13*
X25093360Y27368980D03*
X23593360Y27368980D03*
D17*
X23223960Y31140880D03*
X25333960Y31140880D03*
D18*
X25166320Y33022980D03*
X25166320Y34922980D03*
X23167340Y33972980D03*
D19*
X21777960Y31141580D03*
X21777960Y29641580D03*
D11*
X25093360Y29159680D03*
X23593360Y29159680D03*
D24*
X27940000Y30454600D03*
X30480000Y30454600D03*
X33020000Y30454600D03*
X35560000Y30454600D03*
X38100000Y30454600D03*
X40640000Y30454600D03*
X43180000Y30454600D03*
X45720000Y30454600D03*
X48260000Y30454600D03*
X50800000Y30454600D03*
X53340000Y30454600D03*
X55880000Y30454600D03*
X58420000Y30454600D03*
X60960000Y30454600D03*
X27940000Y32994600D03*
X30480000Y32994600D03*
X33020000Y32994600D03*
X35560000Y32994600D03*
X38100000Y32994600D03*
X40640000Y32994600D03*
X43180000Y32994600D03*
X45720000Y32994600D03*
X48260000Y32994600D03*
X50800000Y32994600D03*
X53340000Y32994600D03*
X55880000Y32994600D03*
X58420000Y32994600D03*
X60960000Y32994600D03*
X27940000Y35534600D03*
X30480000Y35534600D03*
X33020000Y35534600D03*
X35560000Y35534600D03*
X38100000Y35534600D03*
X40640000Y35534600D03*
X43180000Y35534600D03*
X45720000Y35534600D03*
X48260000Y35534600D03*
X50800000Y35534600D03*
X53340000Y35534600D03*
X55880000Y35534600D03*
X58420000Y35534600D03*
X60960000Y35534600D03*
X27940000Y38074600D03*
X30480000Y38074600D03*
X33020000Y38074600D03*
X35560000Y38074600D03*
X38100000Y38074600D03*
X40640000Y38074600D03*
X43180000Y38074600D03*
X45720000Y38074600D03*
X48260000Y38074600D03*
X50800000Y38074600D03*
X53340000Y38074600D03*
X55880000Y38074600D03*
X58420000Y38074600D03*
X60960000Y38074600D03*
X27940000Y15801340D03*
X30480000Y15801340D03*
X33020000Y15801340D03*
X35560000Y15801340D03*
X38100000Y15801340D03*
X40640000Y15801340D03*
X43180000Y15801340D03*
X45720000Y15801340D03*
X48260000Y15801340D03*
X50800000Y15801340D03*
X53340000Y15801340D03*
X55880000Y15801340D03*
X58420000Y15801340D03*
X60960000Y15801340D03*
X27940000Y18341340D03*
X30480000Y18341340D03*
X33020000Y18341340D03*
X35560000Y18341340D03*
X38100000Y18341340D03*
X40640000Y18341340D03*
X43180000Y18341340D03*
X45720000Y18341340D03*
X48260000Y18341340D03*
X50800000Y18341340D03*
X53340000Y18341340D03*
X55880000Y18341340D03*
X58420000Y18341340D03*
X60960000Y18341340D03*
X27940000Y20881340D03*
X30480000Y20881340D03*
X33020000Y20881340D03*
X35560000Y20881340D03*
X38100000Y20881340D03*
X40640000Y20881340D03*
X43180000Y20881340D03*
X45720000Y20881340D03*
X48260000Y20881340D03*
X50800000Y20881340D03*
X53340000Y20881340D03*
X55880000Y20881340D03*
X58420000Y20881340D03*
X60960000Y20881340D03*
X27940000Y23421340D03*
X30480000Y23421340D03*
X33020000Y23421340D03*
X35560000Y23421340D03*
X38100000Y23421340D03*
X40640000Y23421340D03*
X43180000Y23421340D03*
X45720000Y23421340D03*
X48260000Y23421340D03*
X50800000Y23421340D03*
X53340000Y23421340D03*
X55880000Y23421340D03*
X58420000Y23421340D03*
X60960000Y23421340D03*
D25*
X45720000Y47701200D03*
X48260000Y47701200D03*
X50800000Y47701200D03*
X53340000Y47701200D03*
X55880000Y47701200D03*
X58420000Y47701200D03*
X60960000Y47701200D03*
X63500000Y47701200D03*
X27940000Y5638800D03*
X30480000Y5638800D03*
X33020000Y5638800D03*
X35560000Y5638800D03*
X38100000Y5638800D03*
X40640000Y5638800D03*
X43180000Y5638800D03*
X45720000Y5638800D03*
X45720000Y50800000D03*
X48260000Y50800000D03*
X50800000Y50800000D03*
X53340000Y50800000D03*
X55880000Y50800000D03*
X58420000Y50800000D03*
X60960000Y50800000D03*
X63500000Y50800000D03*
X27940000Y2540000D03*
X30480000Y2540000D03*
X33020000Y2540000D03*
X35560000Y2540000D03*
X38100000Y2540000D03*
X40640000Y2540000D03*
X43180000Y2540000D03*
X45720000Y2540000D03*
X18796000Y47713900D03*
X21336000Y47713900D03*
X23876000Y47713900D03*
X26416000Y47713900D03*
X28956000Y47713900D03*
X31496000Y47713900D03*
X34036000Y47713900D03*
X36576000Y47713900D03*
X39116000Y47713900D03*
X41656000Y47713900D03*
X18796000Y50787300D03*
X21336000Y50787300D03*
X23876000Y50787300D03*
X26416000Y50787300D03*
X28956000Y50787300D03*
X31496000Y50787300D03*
X34036000Y50787300D03*
X36576000Y50787300D03*
X39116000Y50787300D03*
X41656000Y50787300D03*
X50800000Y5638800D03*
X53340000Y5638800D03*
X55880000Y5638800D03*
X58420000Y5638800D03*
X60960000Y5638800D03*
X63500000Y5638800D03*
X50800000Y2540000D03*
X53340000Y2540000D03*
X55880000Y2540000D03*
X58420000Y2540000D03*
X60960000Y2540000D03*
X63500000Y2540000D03*
D26*
X3921760Y32123860D03*
D27*
X3921760Y43993280D03*
D28*
X10271760Y42507380D03*
D29*
X12811760Y41237380D03*
X10271760Y39967380D03*
X12811760Y38697380D03*
X10271760Y37427380D03*
X12811760Y36157380D03*
X10271760Y34887380D03*
X12811760Y33617380D03*
D26*
X3909060Y9340060D03*
D27*
X3909060Y21209480D03*
D28*
X10259060Y19723580D03*
D29*
X12799060Y18453580D03*
X10259060Y17183580D03*
X12799060Y15913580D03*
X10259060Y14643580D03*
X12799060Y13373580D03*
X10259060Y12103580D03*
X12799060Y10833580D03*
D30*
X27940000Y12298680D03*
D25*
X30480000Y12298680D03*
X33020000Y12298680D03*
X35560000Y12298680D03*
X38100000Y12298680D03*
X40640000Y12298680D03*
X43180000Y12298680D03*
X45720000Y12298680D03*
X48260000Y12298680D03*
X50800000Y12298680D03*
X53340000Y12298680D03*
X55880000Y12298680D03*
X58420000Y12298680D03*
X60960000Y12298680D03*
D30*
X27940000Y41602660D03*
D25*
X30480000Y41602660D03*
X33020000Y41602660D03*
X35560000Y41602660D03*
X38100000Y41602660D03*
X40640000Y41602660D03*
X43180000Y41602660D03*
X45720000Y41602660D03*
X48260000Y41602660D03*
X50800000Y41602660D03*
X53340000Y41602660D03*
X55880000Y41602660D03*
X58420000Y41602660D03*
X60960000Y41602660D03*
D30*
X27940000Y26951940D03*
D25*
X30480000Y26951940D03*
X33020000Y26951940D03*
X35560000Y26951940D03*
X38100000Y26951940D03*
X40640000Y26951940D03*
X43180000Y26951940D03*
X45720000Y26951940D03*
X48260000Y26951940D03*
X50800000Y26951940D03*
X53340000Y26951940D03*
X55880000Y26951940D03*
X58420000Y26951940D03*
X60960000Y26951940D03*
D31*
X63019940Y8987000D03*
X38094920Y8987000D03*
X22679660Y724380D03*
X22679660Y17231840D03*
D32*
X26121360Y34938180D03*
X26413460Y52260980D03*
X20063460Y52260980D03*
X20063460Y44564780D03*
X16253460Y31161200D03*
X17645380Y34188880D03*
X14272260Y34887380D03*
X14272260Y42520080D03*
X25575260Y40538880D03*
X25575260Y45060080D03*
X7287260Y13373580D03*
X7287260Y36157380D03*
X9116060Y18453580D03*
X9116060Y41237380D03*
X19060160Y40919880D03*
X19060160Y36728880D03*
X7896860Y39967380D03*
X7896860Y17183580D03*
X18412460Y39903880D03*
X18412460Y34188880D03*
X8506460Y19723580D03*
X8506460Y42507380D03*
X19784060Y41719980D03*
X21041360Y43439560D03*
X19786600Y37998400D03*
X19339560Y33083980D03*
X17601356Y35170664D03*
X17612360Y45669680D03*
X16984550Y36728784D03*
X16990060Y32788860D03*
X16990060Y46279280D03*
D33*
X11541760Y44399680D03*
X6512560Y14643580D03*
X6512560Y37427380D03*
D34*
X38094920Y8987000D02*
X63019940Y8987000D01*
X60960000Y41602660D02*
X58420000Y41602660D01*
X58420000Y41602660D02*
X55880000Y41602660D01*
X55880000Y41602660D02*
X53340000Y41602660D01*
X53340000Y41602660D02*
X50800000Y41602660D01*
X50800000Y41602660D02*
X48260000Y41602660D01*
X48260000Y41602660D02*
X45720000Y41602660D01*
X45720000Y41602660D02*
X43180000Y41602660D01*
X43180000Y41602660D02*
X40640000Y41602660D01*
X40640000Y41602660D02*
X38100000Y41602660D01*
X38100000Y41602660D02*
X35560000Y41602660D01*
X35560000Y41602660D02*
X33020000Y41602660D01*
X33020000Y41602660D02*
X30480000Y41602660D01*
X30480000Y41602660D02*
X27940000Y41602660D01*
D35*
X19936460Y31141580D02*
X21777960Y31141580D01*
X21777960Y31141580D02*
X23223260Y31141580D01*
X23223260Y31141580D02*
X23223960Y31140880D01*
X24390959Y14341981D02*
X26434260Y12298680D01*
X26434260Y12298680D02*
X27940000Y12298680D01*
X23593360Y29159680D02*
X23593360Y28959680D01*
X23593360Y28959680D02*
X24390959Y28162081D01*
X24390959Y28162081D02*
X24390959Y14341981D01*
X23592660Y29158980D02*
X23593360Y29159680D01*
X24463869Y35700189D02*
X24463869Y31140880D01*
X24463869Y31140880D02*
X24463869Y30784989D01*
X23223960Y31140880D02*
X24463869Y31140880D01*
X24661560Y36652680D02*
X24661560Y35897880D01*
X24661560Y35897880D02*
X24463869Y35700189D01*
X24463869Y30784989D02*
X23593360Y29914480D01*
X23593360Y29914480D02*
X23593360Y29159680D01*
X23898860Y38170180D02*
X23898860Y40533800D01*
X23898860Y38170180D02*
X24661560Y37407480D01*
X24661560Y37407480D02*
X24661560Y36652680D01*
X23898860Y40533800D02*
X23019320Y40533800D01*
X23019320Y40533800D02*
X23019320Y40324160D01*
D34*
X35560000Y5638800D02*
X35560000Y12298680D01*
D35*
X21140400Y39268400D02*
X21140400Y40538400D01*
X23019320Y40533800D02*
X21142940Y40535860D01*
X21142940Y40535860D02*
X21140400Y40538400D01*
D34*
X60960000Y12298680D02*
X58420000Y12298680D01*
X58420000Y12298680D02*
X55880000Y12298680D01*
X55880000Y12298680D02*
X53340000Y12298680D01*
X53340000Y12298680D02*
X50800000Y12298680D01*
X50800000Y12298680D02*
X48260000Y12298680D01*
X48260000Y12298680D02*
X45720000Y12298680D01*
X45720000Y12298680D02*
X43180000Y12298680D01*
X43180000Y12298680D02*
X40640000Y12298680D01*
X40640000Y12298680D02*
X38100000Y12298680D01*
X38100000Y12298680D02*
X35560000Y12298680D01*
X35560000Y12298680D02*
X33020000Y12298680D01*
X33020000Y12298680D02*
X30480000Y12298680D01*
X30480000Y12298680D02*
X27940000Y12298680D01*
X22679660Y724380D02*
X44056780Y724380D01*
X44056780Y724380D02*
X45720000Y2387600D01*
X45720000Y2387600D02*
X45720000Y2540000D01*
X20660360Y17234040D02*
X22677460Y17234040D01*
X22677460Y17234040D02*
X22679660Y17231840D01*
X20660360Y17234040D02*
X20660360Y18275780D01*
X20660360Y18275780D02*
X21311300Y18926720D01*
X21311300Y18926720D02*
X21311300Y18992060D01*
X21038820Y22959540D02*
X21038820Y21227260D01*
X21311300Y20954780D02*
X21311300Y18992060D01*
X21038820Y21227260D02*
X21311300Y20954780D01*
D35*
X21777960Y29641580D02*
X21977960Y29641580D01*
X21977960Y29641580D02*
X23593360Y28026180D01*
X23593360Y28026180D02*
X23593360Y27368980D01*
X25166320Y34922980D02*
X26106160Y34922980D01*
X26106160Y34922980D02*
X26121360Y34938180D01*
X25166320Y34922980D02*
X25171360Y34922980D01*
X18694400Y44031600D02*
X19530280Y44031600D01*
X20063460Y52260980D02*
X26413460Y52260980D01*
X19530280Y44031600D02*
X20063460Y44564780D01*
X19811300Y18992060D02*
X19811300Y20498980D01*
X19811300Y20498980D02*
X17350740Y22959540D01*
X17350740Y22959540D02*
X16639540Y22959540D01*
X15740400Y34188400D02*
X17644900Y34188400D01*
X16253460Y31161200D02*
X15488700Y31161200D01*
X17644900Y34188400D02*
X17645380Y34188880D01*
X15488700Y31161200D02*
X15488220Y31160720D01*
X15488220Y31160720D02*
X15488220Y32059660D01*
X15740400Y32311840D02*
X15740400Y32918400D01*
X15488220Y32059660D02*
X15740400Y32311840D01*
D34*
X60960000Y26951940D02*
X58420000Y26951940D01*
X58420000Y26951940D02*
X55880000Y26951940D01*
X55880000Y26951940D02*
X53340000Y26951940D01*
X53340000Y26951940D02*
X50800000Y26951940D01*
X50800000Y26951940D02*
X48260000Y26951940D01*
X48260000Y26951940D02*
X45720000Y26951940D01*
X45720000Y26951940D02*
X43180000Y26951940D01*
X43180000Y26951940D02*
X40640000Y26951940D01*
X40640000Y26951940D02*
X38100000Y26951940D01*
X38100000Y26951940D02*
X35560000Y26951940D01*
X35560000Y26951940D02*
X33020000Y26951940D01*
X33020000Y26951940D02*
X30480000Y26951940D01*
X30480000Y26951940D02*
X27940000Y26951940D01*
D35*
X18694400Y42531600D02*
X22136760Y42531600D01*
X22136760Y42531600D02*
X22184360Y42484000D01*
X17311000Y42519600D02*
X18682400Y42519600D01*
X18682400Y42519600D02*
X18694400Y42531600D01*
X16802800Y44399200D02*
X16802800Y43573000D01*
X17311000Y43064800D02*
X17311000Y42519600D01*
X16802800Y43573000D02*
X17311000Y43064800D01*
D34*
X20660360Y14334040D02*
X20656100Y14338300D01*
X20656100Y14338300D02*
X16855440Y14338300D01*
D35*
X19936460Y28461180D02*
X19936460Y29641580D01*
X17218660Y26967660D02*
X19931380Y26967660D01*
X19931380Y26967660D02*
X19936460Y26962580D01*
X15201000Y42519600D02*
X14272740Y42519600D01*
X14272260Y34887380D02*
X10271760Y34887380D01*
X14272740Y42519600D02*
X14272260Y42520080D01*
X22760040Y38638480D02*
X17406620Y38638480D01*
X16776700Y39268400D02*
X15740400Y39268400D01*
X17406620Y38638480D02*
X16776700Y39268400D01*
X25575260Y45060080D02*
X60858880Y45060080D01*
X60858880Y45060080D02*
X63500000Y47701200D01*
X24519320Y40533800D02*
X24519320Y39575520D01*
X24870040Y39224800D02*
X24870040Y38638480D01*
X24519320Y39575520D02*
X24870040Y39224800D01*
X25575260Y40538880D02*
X24519320Y40533800D01*
X13873226Y36157380D02*
X12811760Y36157380D01*
X18079532Y36070869D02*
X13959737Y36070869D01*
X21140400Y35458400D02*
X18692001Y35458400D01*
X13959737Y36070869D02*
X13873226Y36157380D01*
X18692001Y35458400D02*
X18079532Y36070869D01*
X12811760Y36157380D02*
X7287260Y36157380D01*
X7287260Y13373580D02*
X12799060Y13373580D01*
X12811760Y41237380D02*
X9116060Y41237380D01*
X9116060Y18453580D02*
X12799060Y18453580D01*
X21140400Y36728400D02*
X19060640Y36728400D01*
X19060640Y36728400D02*
X19060160Y36728880D01*
X12811760Y41237380D02*
X17917160Y41237380D01*
X17917160Y41237380D02*
X18234660Y40919880D01*
X18234660Y40919880D02*
X19060160Y40919880D01*
X22666960Y41554880D02*
X23591480Y42479400D01*
X19060160Y40919880D02*
X19860260Y40919880D01*
X19860260Y40919880D02*
X20495260Y41554880D01*
X20495260Y41554880D02*
X22666960Y41554880D01*
X23591480Y42479400D02*
X23891240Y42479400D01*
X23578780Y42479400D02*
X23891240Y42479400D01*
X20708140Y36728400D02*
X21140400Y36728400D01*
X23891240Y42479400D02*
X23586400Y42479400D01*
X10271760Y39967380D02*
X7896860Y39967380D01*
X7896860Y17183580D02*
X10259060Y17183580D01*
X21140400Y34188400D02*
X18412940Y34188400D01*
X18412460Y39903880D02*
X10335260Y39903880D01*
X18412940Y34188400D02*
X18412460Y34188880D01*
X10335260Y39903880D02*
X10271760Y39967380D01*
D36*
X21139920Y34188880D02*
X21140400Y34188400D01*
D35*
X10271760Y42507380D02*
X8506460Y42507380D01*
X8506460Y19723580D02*
X10259060Y19723580D01*
X10271760Y42507380D02*
X13167360Y42507380D01*
X13954760Y41719980D02*
X19784060Y41719980D01*
X13167360Y42507380D02*
X13954760Y41719980D01*
X20185380Y43434000D02*
X21035800Y43434000D01*
X21035800Y43434000D02*
X21041360Y43439560D01*
X20185860Y43434480D02*
X21041360Y43439560D01*
X20185860Y43434480D02*
X20185380Y43434000D01*
X21140400Y37998400D02*
X19786600Y37998400D01*
X18168660Y28966640D02*
X18168660Y31913080D01*
X18168660Y31913080D02*
X19339560Y33083980D01*
X15740400Y35458400D02*
X17313620Y35458400D01*
X17313620Y35458400D02*
X17601356Y35170664D01*
X17612360Y45669680D02*
X58928480Y45669680D01*
X58928480Y45669680D02*
X60960000Y47701200D01*
X16984166Y36728400D02*
X16984550Y36728784D01*
X15740400Y36728400D02*
X16984166Y36728400D01*
X16990060Y46279280D02*
X56998080Y46279280D01*
X56998080Y46279280D02*
X58420000Y47701200D01*
X16988220Y31160720D02*
X16988220Y32787020D01*
X16988220Y32787020D02*
X16990060Y32788860D01*
X22184360Y44384000D02*
X23886640Y44384000D01*
X23886640Y44384000D02*
X23891240Y44379400D01*
X23891240Y44379400D02*
X23616960Y44379400D01*
D37*
X11541760Y44399680D02*
X15302320Y44399680D01*
X15302320Y44399680D02*
X15302800Y44399200D01*
D34*
X10271760Y37427380D02*
X6512560Y37427380D01*
X6512560Y14643580D02*
X10259060Y14643580D01*
X12799060Y15913580D02*
X14780260Y15913580D01*
X14780260Y15913580D02*
X16855440Y17988760D01*
X16855440Y17988760D02*
X16855440Y18336260D01*
X10259060Y14643580D02*
X11529060Y14643580D01*
X11529060Y14643580D02*
X12799060Y15913580D01*
X10271760Y37427380D02*
X11541760Y37427380D01*
X11541760Y37427380D02*
X12811760Y38697380D01*
D35*
X15302800Y44595960D02*
X15302800Y44399200D01*
X25093360Y29159680D02*
X25093360Y29914480D01*
X25093360Y29914480D02*
X25333960Y30155080D01*
X25333960Y30155080D02*
X25333960Y31140880D01*
X25093360Y29159680D02*
X25093360Y27368980D01*
X25333960Y31140880D02*
X25333960Y32855340D01*
X25333960Y32855340D02*
X25166320Y33022980D01*
X23161560Y36652680D02*
X23161560Y36852680D01*
X22624960Y37389280D02*
X17404320Y37389280D01*
X23161560Y36852680D02*
X22624960Y37389280D01*
X17404320Y37389280D02*
X16795200Y37998400D01*
X16795200Y37998400D02*
X15740400Y37998400D01*
X23167340Y33972980D02*
X23167340Y36646900D01*
X23167340Y36646900D02*
X23161560Y36652680D01*
D38*
G36*
X13410756Y52024572D02*
X13081376Y51231336D01*
X13080626Y50372433D01*
X13408622Y49578623D01*
X14015428Y48970756D01*
X14808664Y48641376D01*
X15667567Y48640626D01*
X16461377Y48968622D01*
X17069244Y49575428D01*
X17361640Y50279597D01*
X17411474Y50029066D01*
X17736330Y49542885D01*
X18173765Y49250600D01*
X17736330Y48958315D01*
X17411474Y48472134D01*
X17297400Y47898645D01*
X17297400Y47529155D01*
X17376559Y47131195D01*
X17176859Y47214118D01*
X16804893Y47214442D01*
X16461117Y47072397D01*
X16197868Y46809607D01*
X16055222Y46466079D01*
X16054898Y46094113D01*
X16196943Y45750337D01*
X16459733Y45487088D01*
X16472925Y45481610D01*
X16317483Y45452362D01*
X16101359Y45313290D01*
X16053666Y45243489D01*
X16016890Y45300641D01*
X15804690Y45445631D01*
X15552800Y45496640D01*
X15052800Y45496640D01*
X14817483Y45452362D01*
X14601359Y45313290D01*
X14541156Y45225180D01*
X12250783Y45225180D01*
X12157165Y45318962D01*
X11758527Y45484491D01*
X11326887Y45484868D01*
X10927960Y45320034D01*
X10622478Y45015085D01*
X10456949Y44616447D01*
X10456572Y44184807D01*
X10572025Y43905390D01*
X9521190Y43905390D01*
X9285873Y43861112D01*
X9069749Y43722040D01*
X8924759Y43509840D01*
X8894171Y43358792D01*
X8693259Y43442218D01*
X8321293Y43442542D01*
X7977517Y43300497D01*
X7714268Y43037707D01*
X7571622Y42694179D01*
X7571298Y42322213D01*
X7713343Y41978437D01*
X7976133Y41715188D01*
X8254127Y41599754D01*
X8181222Y41424179D01*
X8180898Y41052213D01*
X8275849Y40822413D01*
X8083659Y40902218D01*
X7711693Y40902542D01*
X7367917Y40760497D01*
X7104668Y40497707D01*
X6962022Y40154179D01*
X6961698Y39782213D01*
X7103743Y39438437D01*
X7366533Y39175188D01*
X7710061Y39032542D01*
X8082027Y39032218D01*
X8425803Y39174263D01*
X8431530Y39179980D01*
X9100003Y39179980D01*
X9485873Y38793436D01*
X9717141Y38697405D01*
X9487923Y38602694D01*
X9201109Y38316380D01*
X7158194Y38316380D01*
X7127965Y38346662D01*
X6729327Y38512191D01*
X6297687Y38512568D01*
X5898760Y38347734D01*
X5593278Y38042785D01*
X5427749Y37644147D01*
X5427372Y37212507D01*
X5592206Y36813580D01*
X5897155Y36508098D01*
X6295793Y36342569D01*
X6352421Y36342520D01*
X6352098Y35972213D01*
X6494143Y35628437D01*
X6756933Y35365188D01*
X7100461Y35222542D01*
X7472427Y35222218D01*
X7816203Y35364263D01*
X7821930Y35369980D01*
X8971880Y35369980D01*
X8886431Y35164196D01*
X8885950Y34612982D01*
X9096446Y34103543D01*
X9485873Y33713436D01*
X9994944Y33502051D01*
X10546158Y33501570D01*
X11055597Y33712066D01*
X11444188Y34099980D01*
X11512812Y34099980D01*
X11413993Y33822346D01*
X11441955Y33271842D01*
X11598829Y32893115D01*
X11839830Y32825055D01*
X12632155Y33617380D01*
X12618013Y33631522D01*
X12797618Y33811127D01*
X12811760Y33796985D01*
X12825903Y33811127D01*
X13005508Y33631522D01*
X12991365Y33617380D01*
X13783690Y32825055D01*
X14024691Y32893115D01*
X14209527Y33412414D01*
X14182096Y33952458D01*
X14405014Y33952264D01*
X14355400Y33902650D01*
X14355400Y33762090D01*
X14441842Y33553400D01*
X14355400Y33344710D01*
X14355400Y33204150D01*
X14514150Y33045400D01*
X15613400Y33045400D01*
X15613400Y34061400D01*
X15593400Y34061400D01*
X15593400Y34315400D01*
X15613400Y34315400D01*
X15613400Y34335400D01*
X15867400Y34335400D01*
X15867400Y34315400D01*
X16966650Y34315400D01*
X17050394Y34399144D01*
X17071029Y34378472D01*
X17414557Y34235826D01*
X17477500Y34235771D01*
X17477298Y34003713D01*
X17619343Y33659937D01*
X17882133Y33396688D01*
X18225661Y33254042D01*
X18395922Y33253894D01*
X17925056Y32783028D01*
X17925222Y32974027D01*
X17783177Y33317803D01*
X17520387Y33581052D01*
X17176859Y33723698D01*
X17109522Y33723757D01*
X17125400Y33762090D01*
X17125400Y33902650D01*
X16966650Y34061400D01*
X15867400Y34061400D01*
X15867400Y33045400D01*
X15887400Y33045400D01*
X15887400Y32791400D01*
X15867400Y32791400D01*
X15867400Y32771400D01*
X15613400Y32771400D01*
X15613400Y32791400D01*
X14514150Y32791400D01*
X14355400Y32632650D01*
X14355400Y32492090D01*
X14452073Y32258701D01*
X14630702Y32080073D01*
X14757165Y32027690D01*
X14699893Y31970419D01*
X14603220Y31737030D01*
X14603220Y31446470D01*
X14761970Y31287720D01*
X15363220Y31287720D01*
X15363220Y31307720D01*
X15613220Y31307720D01*
X15613220Y31287720D01*
X15635220Y31287720D01*
X15635220Y31033720D01*
X15613220Y31033720D01*
X15613220Y30234470D01*
X15771970Y30075720D01*
X15864529Y30075720D01*
X16097918Y30172393D01*
X16239156Y30313630D01*
X16274130Y30259279D01*
X16486330Y30114289D01*
X16738220Y30063280D01*
X17238220Y30063280D01*
X17381260Y30090195D01*
X17381260Y29872021D01*
X17317169Y29830780D01*
X17221683Y29691031D01*
X17207037Y29726389D01*
X17028408Y29905017D01*
X16795019Y30001690D01*
X16554410Y30001690D01*
X16395660Y29842940D01*
X16395660Y29093640D01*
X16415660Y29093640D01*
X16415660Y28839640D01*
X16395660Y28839640D01*
X16395660Y28090340D01*
X16541817Y27944183D01*
X16367169Y27831800D01*
X16222179Y27619600D01*
X16171170Y27367710D01*
X16171170Y26567610D01*
X16215448Y26332293D01*
X16354520Y26116169D01*
X16566720Y25971179D01*
X16818610Y25920170D01*
X17618710Y25920170D01*
X17854027Y25964448D01*
X18070151Y26103520D01*
X18122585Y26180260D01*
X19029897Y26180260D01*
X19073590Y26112359D01*
X19285790Y25967369D01*
X19537680Y25916360D01*
X20335240Y25916360D01*
X20570557Y25960638D01*
X20786681Y26099710D01*
X20931671Y26311910D01*
X20982680Y26563800D01*
X20982680Y27083230D01*
X22558360Y27083230D01*
X22558360Y26867670D01*
X22655033Y26634281D01*
X22833662Y26455653D01*
X23067051Y26358980D01*
X23307610Y26358980D01*
X23466360Y26517730D01*
X23466360Y27241980D01*
X22717110Y27241980D01*
X22558360Y27083230D01*
X20982680Y27083230D01*
X20982680Y27361360D01*
X20938402Y27596677D01*
X20864275Y27711873D01*
X20931671Y27810510D01*
X20982680Y28062400D01*
X20982680Y28847280D01*
X21201650Y28756580D01*
X21492210Y28756580D01*
X21650960Y28915330D01*
X21650960Y29516580D01*
X21630960Y29516580D01*
X21630960Y29766580D01*
X21650960Y29766580D01*
X21650960Y29788580D01*
X21904960Y29788580D01*
X21904960Y29766580D01*
X21924960Y29766580D01*
X21924960Y29516580D01*
X21904960Y29516580D01*
X21904960Y28915330D01*
X22063710Y28756580D01*
X22354270Y28756580D01*
X22587659Y28853253D01*
X22695920Y28961515D01*
X22695920Y28709680D01*
X22740198Y28474363D01*
X22857444Y28292158D01*
X22833662Y28282307D01*
X22655033Y28103679D01*
X22558360Y27870290D01*
X22558360Y27654730D01*
X22717110Y27495980D01*
X23466360Y27495980D01*
X23466360Y27515980D01*
X23603559Y27515980D01*
X23603559Y17640665D01*
X23536396Y17803212D01*
X23252526Y18087577D01*
X22881443Y18241664D01*
X22479640Y18242015D01*
X22316928Y18174784D01*
X22221975Y18239662D01*
X22307731Y18365170D01*
X22358740Y18617060D01*
X22358740Y19367060D01*
X22314462Y19602377D01*
X22200300Y19779790D01*
X22200300Y20954780D01*
X22132629Y21294986D01*
X21987625Y21512000D01*
X22538690Y21512000D01*
X22774007Y21556278D01*
X22990131Y21695350D01*
X23135121Y21907550D01*
X23186130Y22159440D01*
X23186130Y23759640D01*
X23141852Y23994957D01*
X23002780Y24211081D01*
X22790580Y24356071D01*
X22538690Y24407080D01*
X19538950Y24407080D01*
X19303633Y24362802D01*
X19087509Y24223730D01*
X18942519Y24011530D01*
X18891510Y23759640D01*
X18891510Y22159440D01*
X18935788Y21924123D01*
X19074860Y21707999D01*
X19287060Y21563009D01*
X19538950Y21512000D01*
X20149820Y21512000D01*
X20149820Y21227260D01*
X20217491Y20887054D01*
X20370261Y20658418D01*
X20410202Y20598642D01*
X20422300Y20586544D01*
X20422300Y19966980D01*
X20337609Y20002060D01*
X20097050Y20002060D01*
X19938300Y19843310D01*
X19938300Y19119060D01*
X19958300Y19119060D01*
X19958300Y18865060D01*
X19938300Y18865060D01*
X19938300Y18845060D01*
X19684300Y18845060D01*
X19684300Y18865060D01*
X18935050Y18865060D01*
X18776300Y18706310D01*
X18776300Y18490750D01*
X18872973Y18257361D01*
X18973087Y18157247D01*
X18958919Y18148130D01*
X18813929Y17935930D01*
X18762920Y17684040D01*
X18762920Y16784040D01*
X18807198Y16548723D01*
X18946270Y16332599D01*
X19158470Y16187609D01*
X19410360Y16136600D01*
X21910360Y16136600D01*
X22145677Y16180878D01*
X22314824Y16289721D01*
X22477877Y16222016D01*
X22879680Y16221665D01*
X23251032Y16375104D01*
X23535397Y16658974D01*
X23603559Y16823126D01*
X23603559Y14341981D01*
X23663496Y14040656D01*
X23834183Y13785205D01*
X25877484Y11741904D01*
X26132935Y11571217D01*
X26428960Y11512334D01*
X26428960Y11282680D01*
X26473238Y11047363D01*
X26612310Y10831239D01*
X26824510Y10686249D01*
X27076400Y10635240D01*
X28803600Y10635240D01*
X29038917Y10679518D01*
X29255041Y10818590D01*
X29400031Y11030790D01*
X29408400Y11072119D01*
X29420330Y11054265D01*
X29906511Y10729409D01*
X30480000Y10615335D01*
X31053489Y10729409D01*
X31539670Y11054265D01*
X31750000Y11369046D01*
X31960330Y11054265D01*
X32446511Y10729409D01*
X33020000Y10615335D01*
X33593489Y10729409D01*
X34079670Y11054265D01*
X34290000Y11369046D01*
X34500330Y11054265D01*
X34671000Y10940227D01*
X34671000Y6997253D01*
X34500330Y6883215D01*
X34290000Y6568434D01*
X34079670Y6883215D01*
X33593489Y7208071D01*
X33020000Y7322145D01*
X32446511Y7208071D01*
X31960330Y6883215D01*
X31750000Y6568434D01*
X31539670Y6883215D01*
X31053489Y7208071D01*
X30480000Y7322145D01*
X29906511Y7208071D01*
X29420330Y6883215D01*
X29210000Y6568434D01*
X28999670Y6883215D01*
X28513489Y7208071D01*
X27940000Y7322145D01*
X27366511Y7208071D01*
X26880330Y6883215D01*
X26555474Y6397034D01*
X26441400Y5823545D01*
X26441400Y5454055D01*
X26555474Y4880566D01*
X26880330Y4394385D01*
X27336772Y4089400D01*
X26880330Y3784415D01*
X26555474Y3298234D01*
X26441400Y2724745D01*
X26441400Y2355255D01*
X26555474Y1781766D01*
X26667986Y1613380D01*
X23172420Y1613380D01*
X22881443Y1734204D01*
X22479640Y1734555D01*
X22108288Y1581116D01*
X21823923Y1297246D01*
X21669836Y926163D01*
X21669647Y710000D01*
X15192757Y710000D01*
X15799244Y1315428D01*
X16128624Y2108664D01*
X16129374Y2967567D01*
X15801378Y3761377D01*
X15194572Y4369244D01*
X14401336Y4698624D01*
X13542433Y4699374D01*
X12748623Y4371378D01*
X12140756Y3764572D01*
X11811376Y2971336D01*
X11810626Y2112433D01*
X12138622Y1318623D01*
X12745428Y710756D01*
X12747249Y710000D01*
X710000Y710000D01*
X710000Y8887539D01*
X1623664Y8887539D01*
X1970802Y8047402D01*
X2613021Y7404061D01*
X3452551Y7055457D01*
X4361581Y7054664D01*
X5201718Y7401802D01*
X5845059Y8044021D01*
X6193663Y8883551D01*
X6194456Y9792581D01*
X6165918Y9861650D01*
X12006735Y9861650D01*
X12074795Y9620649D01*
X12594094Y9435813D01*
X13144598Y9463775D01*
X13523325Y9620649D01*
X13591385Y9861650D01*
X12799060Y10653975D01*
X12006735Y9861650D01*
X6165918Y9861650D01*
X5847318Y10632718D01*
X5349257Y11131650D01*
X9466735Y11131650D01*
X9534795Y10890649D01*
X10054094Y10705813D01*
X10604598Y10733775D01*
X10983325Y10890649D01*
X11025091Y11038546D01*
X11401293Y11038546D01*
X11429255Y10488042D01*
X11586129Y10109315D01*
X11827130Y10041255D01*
X12619455Y10833580D01*
X12978665Y10833580D01*
X13770990Y10041255D01*
X14011991Y10109315D01*
X14196827Y10628614D01*
X14168865Y11179118D01*
X14011991Y11557845D01*
X13770990Y11625905D01*
X12978665Y10833580D01*
X12619455Y10833580D01*
X11827130Y11625905D01*
X11586129Y11557845D01*
X11401293Y11038546D01*
X11025091Y11038546D01*
X11051385Y11131650D01*
X10259060Y11923975D01*
X9466735Y11131650D01*
X5349257Y11131650D01*
X5205099Y11276059D01*
X4365569Y11624663D01*
X3456539Y11625456D01*
X2616402Y11278318D01*
X1973061Y10636099D01*
X1624457Y9796569D01*
X1623664Y8887539D01*
X710000Y8887539D01*
X710000Y14428707D01*
X5427372Y14428707D01*
X5592206Y14029780D01*
X5897155Y13724298D01*
X6295793Y13558769D01*
X6352421Y13558720D01*
X6352098Y13188413D01*
X6494143Y12844637D01*
X6756933Y12581388D01*
X7100461Y12438742D01*
X7472427Y12438418D01*
X7816203Y12580463D01*
X7821930Y12586180D01*
X8960112Y12586180D01*
X8861293Y12308546D01*
X8889255Y11758042D01*
X9046129Y11379315D01*
X9287130Y11311255D01*
X10079455Y12103580D01*
X10065313Y12117722D01*
X10244918Y12297327D01*
X10259060Y12283185D01*
X10273203Y12297327D01*
X10452808Y12117722D01*
X10438665Y12103580D01*
X11230990Y11311255D01*
X11471991Y11379315D01*
X11656827Y11898614D01*
X11628865Y12449118D01*
X11572092Y12586180D01*
X11627303Y12586180D01*
X12013173Y12199636D01*
X12228556Y12110201D01*
X12074795Y12046511D01*
X12006735Y11805510D01*
X12799060Y11013185D01*
X13591385Y11805510D01*
X13523325Y12046511D01*
X13358020Y12105349D01*
X13582897Y12198266D01*
X13973004Y12587693D01*
X14184389Y13096764D01*
X14184870Y13647978D01*
X13974374Y14157417D01*
X13584947Y14547524D01*
X13353679Y14643555D01*
X13582897Y14738266D01*
X13869711Y15024580D01*
X14780260Y15024580D01*
X15120466Y15092251D01*
X15307570Y15217270D01*
X15307570Y13088620D01*
X15351848Y12853303D01*
X15490920Y12637179D01*
X15703120Y12492189D01*
X15955010Y12441180D01*
X17755870Y12441180D01*
X17991187Y12485458D01*
X18207311Y12624530D01*
X18352301Y12836730D01*
X18403310Y13088620D01*
X18403310Y13449300D01*
X18935523Y13449300D01*
X18946270Y13432599D01*
X19158470Y13287609D01*
X19410360Y13236600D01*
X21910360Y13236600D01*
X22145677Y13280878D01*
X22361801Y13419950D01*
X22506791Y13632150D01*
X22557800Y13884040D01*
X22557800Y14784040D01*
X22513522Y15019357D01*
X22374450Y15235481D01*
X22162250Y15380471D01*
X21910360Y15431480D01*
X19410360Y15431480D01*
X19175043Y15387202D01*
X18958919Y15248130D01*
X18944686Y15227300D01*
X18403310Y15227300D01*
X18403310Y15587980D01*
X18359032Y15823297D01*
X18219960Y16039421D01*
X18007760Y16184411D01*
X17755870Y16235420D01*
X16359336Y16235420D01*
X16563056Y16439140D01*
X17755870Y16439140D01*
X17991187Y16483418D01*
X18207311Y16622490D01*
X18352301Y16834690D01*
X18403310Y17086580D01*
X18403310Y19493370D01*
X18776300Y19493370D01*
X18776300Y19277810D01*
X18935050Y19119060D01*
X19684300Y19119060D01*
X19684300Y19843310D01*
X19525550Y20002060D01*
X19284991Y20002060D01*
X19051602Y19905387D01*
X18872973Y19726759D01*
X18776300Y19493370D01*
X18403310Y19493370D01*
X18403310Y19585940D01*
X18359032Y19821257D01*
X18219960Y20037381D01*
X18007760Y20182371D01*
X17755870Y20233380D01*
X15955010Y20233380D01*
X15719693Y20189102D01*
X15503569Y20050030D01*
X15358579Y19837830D01*
X15307570Y19585940D01*
X15307570Y17698126D01*
X14412024Y16802580D01*
X13869394Y16802580D01*
X13584947Y17087524D01*
X13353679Y17183555D01*
X13582897Y17278266D01*
X13973004Y17667693D01*
X14184389Y18176764D01*
X14184870Y18727978D01*
X13974374Y19237417D01*
X13584947Y19627524D01*
X13075876Y19838909D01*
X12524662Y19839390D01*
X12015223Y19628894D01*
X11657070Y19271365D01*
X11657070Y20474150D01*
X11612792Y20709467D01*
X11473720Y20925591D01*
X11261520Y21070581D01*
X11009630Y21121590D01*
X9508490Y21121590D01*
X9273173Y21077312D01*
X9057049Y20938240D01*
X8912059Y20726040D01*
X8882456Y20579856D01*
X8693259Y20658418D01*
X8321293Y20658742D01*
X7977517Y20516697D01*
X7714268Y20253907D01*
X7571622Y19910379D01*
X7571298Y19538413D01*
X7713343Y19194637D01*
X7976133Y18931388D01*
X8254127Y18815954D01*
X8181222Y18640379D01*
X8180898Y18268413D01*
X8275849Y18038613D01*
X8083659Y18118418D01*
X7711693Y18118742D01*
X7367917Y17976697D01*
X7104668Y17713907D01*
X6962022Y17370379D01*
X6961698Y16998413D01*
X7103743Y16654637D01*
X7366533Y16391388D01*
X7710061Y16248742D01*
X8082027Y16248418D01*
X8425803Y16390463D01*
X8431530Y16396180D01*
X9087303Y16396180D01*
X9473173Y16009636D01*
X9704441Y15913605D01*
X9475223Y15818894D01*
X9188409Y15532580D01*
X7158194Y15532580D01*
X7127965Y15562862D01*
X6729327Y15728391D01*
X6297687Y15728768D01*
X5898760Y15563934D01*
X5593278Y15258985D01*
X5427749Y14860347D01*
X5427372Y14428707D01*
X710000Y14428707D01*
X710000Y20766861D01*
X1673673Y20766861D01*
X2013215Y19945108D01*
X2641381Y19315844D01*
X3462541Y18974869D01*
X4351679Y18974093D01*
X5173432Y19313635D01*
X5802696Y19941801D01*
X6143671Y20762961D01*
X6144447Y21652099D01*
X5804905Y22473852D01*
X5605316Y22673790D01*
X14504670Y22673790D01*
X14504670Y22033130D01*
X14601343Y21799741D01*
X14779972Y21621113D01*
X15013361Y21524440D01*
X16353790Y21524440D01*
X16512540Y21683190D01*
X16512540Y22832540D01*
X16766540Y22832540D01*
X16766540Y21683190D01*
X16925290Y21524440D01*
X18265719Y21524440D01*
X18499108Y21621113D01*
X18677737Y21799741D01*
X18774410Y22033130D01*
X18774410Y22673790D01*
X18615660Y22832540D01*
X16766540Y22832540D01*
X16512540Y22832540D01*
X14663420Y22832540D01*
X14504670Y22673790D01*
X5605316Y22673790D01*
X5176739Y23103116D01*
X4355579Y23444091D01*
X3466441Y23444867D01*
X2644688Y23105325D01*
X2015424Y22477159D01*
X1674449Y21655999D01*
X1673673Y20766861D01*
X710000Y20766861D01*
X710000Y23885950D01*
X14504670Y23885950D01*
X14504670Y23245290D01*
X14663420Y23086540D01*
X16512540Y23086540D01*
X16512540Y24235890D01*
X16766540Y24235890D01*
X16766540Y23086540D01*
X18615660Y23086540D01*
X18774410Y23245290D01*
X18774410Y23885950D01*
X18677737Y24119339D01*
X18499108Y24297967D01*
X18265719Y24394640D01*
X16925290Y24394640D01*
X16766540Y24235890D01*
X16512540Y24235890D01*
X16353790Y24394640D01*
X15013361Y24394640D01*
X14779972Y24297967D01*
X14601343Y24119339D01*
X14504670Y23885950D01*
X710000Y23885950D01*
X710000Y28680890D01*
X15233610Y28680890D01*
X15233610Y28440280D01*
X15330283Y28206891D01*
X15508912Y28028263D01*
X15742301Y27931590D01*
X15982910Y27931590D01*
X16141660Y28090340D01*
X16141660Y28839640D01*
X15392360Y28839640D01*
X15233610Y28680890D01*
X710000Y28680890D01*
X710000Y29493000D01*
X15233610Y29493000D01*
X15233610Y29252390D01*
X15392360Y29093640D01*
X16141660Y29093640D01*
X16141660Y29842940D01*
X15982910Y30001690D01*
X15742301Y30001690D01*
X15508912Y29905017D01*
X15330283Y29726389D01*
X15233610Y29493000D01*
X710000Y29493000D01*
X710000Y31671339D01*
X1636364Y31671339D01*
X1983502Y30831202D01*
X2625721Y30187861D01*
X3465251Y29839257D01*
X4374281Y29838464D01*
X5214418Y30185602D01*
X5857759Y30827821D01*
X5877337Y30874970D01*
X14603220Y30874970D01*
X14603220Y30584410D01*
X14699893Y30351021D01*
X14878522Y30172393D01*
X15111911Y30075720D01*
X15204470Y30075720D01*
X15363220Y30234470D01*
X15363220Y31033720D01*
X14761970Y31033720D01*
X14603220Y30874970D01*
X5877337Y30874970D01*
X6206363Y31667351D01*
X6207156Y32576381D01*
X6178618Y32645450D01*
X12019435Y32645450D01*
X12087495Y32404449D01*
X12606794Y32219613D01*
X13157298Y32247575D01*
X13536025Y32404449D01*
X13604085Y32645450D01*
X12811760Y33437775D01*
X12019435Y32645450D01*
X6178618Y32645450D01*
X5860018Y33416518D01*
X5217799Y34059859D01*
X4378269Y34408463D01*
X3469239Y34409256D01*
X2629102Y34062118D01*
X1985761Y33419899D01*
X1637157Y32580369D01*
X1636364Y31671339D01*
X710000Y31671339D01*
X710000Y43550661D01*
X1686373Y43550661D01*
X2025915Y42728908D01*
X2654081Y42099644D01*
X3475241Y41758669D01*
X4364379Y41757893D01*
X5186132Y42097435D01*
X5815396Y42725601D01*
X6156371Y43546761D01*
X6157147Y44435899D01*
X5817605Y45257652D01*
X5189439Y45886916D01*
X4368279Y46227891D01*
X3479141Y46228667D01*
X2657388Y45889125D01*
X2028124Y45260959D01*
X1687149Y44439799D01*
X1686373Y43550661D01*
X710000Y43550661D01*
X710000Y52630000D01*
X14017243Y52630000D01*
X13410756Y52024572D01*
X13410756Y52024572D01*
G37*
X13410756Y52024572D02*
X13081376Y51231336D01*
X13080626Y50372433D01*
X13408622Y49578623D01*
X14015428Y48970756D01*
X14808664Y48641376D01*
X15667567Y48640626D01*
X16461377Y48968622D01*
X17069244Y49575428D01*
X17361640Y50279597D01*
X17411474Y50029066D01*
X17736330Y49542885D01*
X18173765Y49250600D01*
X17736330Y48958315D01*
X17411474Y48472134D01*
X17297400Y47898645D01*
X17297400Y47529155D01*
X17376559Y47131195D01*
X17176859Y47214118D01*
X16804893Y47214442D01*
X16461117Y47072397D01*
X16197868Y46809607D01*
X16055222Y46466079D01*
X16054898Y46094113D01*
X16196943Y45750337D01*
X16459733Y45487088D01*
X16472925Y45481610D01*
X16317483Y45452362D01*
X16101359Y45313290D01*
X16053666Y45243489D01*
X16016890Y45300641D01*
X15804690Y45445631D01*
X15552800Y45496640D01*
X15052800Y45496640D01*
X14817483Y45452362D01*
X14601359Y45313290D01*
X14541156Y45225180D01*
X12250783Y45225180D01*
X12157165Y45318962D01*
X11758527Y45484491D01*
X11326887Y45484868D01*
X10927960Y45320034D01*
X10622478Y45015085D01*
X10456949Y44616447D01*
X10456572Y44184807D01*
X10572025Y43905390D01*
X9521190Y43905390D01*
X9285873Y43861112D01*
X9069749Y43722040D01*
X8924759Y43509840D01*
X8894171Y43358792D01*
X8693259Y43442218D01*
X8321293Y43442542D01*
X7977517Y43300497D01*
X7714268Y43037707D01*
X7571622Y42694179D01*
X7571298Y42322213D01*
X7713343Y41978437D01*
X7976133Y41715188D01*
X8254127Y41599754D01*
X8181222Y41424179D01*
X8180898Y41052213D01*
X8275849Y40822413D01*
X8083659Y40902218D01*
X7711693Y40902542D01*
X7367917Y40760497D01*
X7104668Y40497707D01*
X6962022Y40154179D01*
X6961698Y39782213D01*
X7103743Y39438437D01*
X7366533Y39175188D01*
X7710061Y39032542D01*
X8082027Y39032218D01*
X8425803Y39174263D01*
X8431530Y39179980D01*
X9100003Y39179980D01*
X9485873Y38793436D01*
X9717141Y38697405D01*
X9487923Y38602694D01*
X9201109Y38316380D01*
X7158194Y38316380D01*
X7127965Y38346662D01*
X6729327Y38512191D01*
X6297687Y38512568D01*
X5898760Y38347734D01*
X5593278Y38042785D01*
X5427749Y37644147D01*
X5427372Y37212507D01*
X5592206Y36813580D01*
X5897155Y36508098D01*
X6295793Y36342569D01*
X6352421Y36342520D01*
X6352098Y35972213D01*
X6494143Y35628437D01*
X6756933Y35365188D01*
X7100461Y35222542D01*
X7472427Y35222218D01*
X7816203Y35364263D01*
X7821930Y35369980D01*
X8971880Y35369980D01*
X8886431Y35164196D01*
X8885950Y34612982D01*
X9096446Y34103543D01*
X9485873Y33713436D01*
X9994944Y33502051D01*
X10546158Y33501570D01*
X11055597Y33712066D01*
X11444188Y34099980D01*
X11512812Y34099980D01*
X11413993Y33822346D01*
X11441955Y33271842D01*
X11598829Y32893115D01*
X11839830Y32825055D01*
X12632155Y33617380D01*
X12618013Y33631522D01*
X12797618Y33811127D01*
X12811760Y33796985D01*
X12825903Y33811127D01*
X13005508Y33631522D01*
X12991365Y33617380D01*
X13783690Y32825055D01*
X14024691Y32893115D01*
X14209527Y33412414D01*
X14182096Y33952458D01*
X14405014Y33952264D01*
X14355400Y33902650D01*
X14355400Y33762090D01*
X14441842Y33553400D01*
X14355400Y33344710D01*
X14355400Y33204150D01*
X14514150Y33045400D01*
X15613400Y33045400D01*
X15613400Y34061400D01*
X15593400Y34061400D01*
X15593400Y34315400D01*
X15613400Y34315400D01*
X15613400Y34335400D01*
X15867400Y34335400D01*
X15867400Y34315400D01*
X16966650Y34315400D01*
X17050394Y34399144D01*
X17071029Y34378472D01*
X17414557Y34235826D01*
X17477500Y34235771D01*
X17477298Y34003713D01*
X17619343Y33659937D01*
X17882133Y33396688D01*
X18225661Y33254042D01*
X18395922Y33253894D01*
X17925056Y32783028D01*
X17925222Y32974027D01*
X17783177Y33317803D01*
X17520387Y33581052D01*
X17176859Y33723698D01*
X17109522Y33723757D01*
X17125400Y33762090D01*
X17125400Y33902650D01*
X16966650Y34061400D01*
X15867400Y34061400D01*
X15867400Y33045400D01*
X15887400Y33045400D01*
X15887400Y32791400D01*
X15867400Y32791400D01*
X15867400Y32771400D01*
X15613400Y32771400D01*
X15613400Y32791400D01*
X14514150Y32791400D01*
X14355400Y32632650D01*
X14355400Y32492090D01*
X14452073Y32258701D01*
X14630702Y32080073D01*
X14757165Y32027690D01*
X14699893Y31970419D01*
X14603220Y31737030D01*
X14603220Y31446470D01*
X14761970Y31287720D01*
X15363220Y31287720D01*
X15363220Y31307720D01*
X15613220Y31307720D01*
X15613220Y31287720D01*
X15635220Y31287720D01*
X15635220Y31033720D01*
X15613220Y31033720D01*
X15613220Y30234470D01*
X15771970Y30075720D01*
X15864529Y30075720D01*
X16097918Y30172393D01*
X16239156Y30313630D01*
X16274130Y30259279D01*
X16486330Y30114289D01*
X16738220Y30063280D01*
X17238220Y30063280D01*
X17381260Y30090195D01*
X17381260Y29872021D01*
X17317169Y29830780D01*
X17221683Y29691031D01*
X17207037Y29726389D01*
X17028408Y29905017D01*
X16795019Y30001690D01*
X16554410Y30001690D01*
X16395660Y29842940D01*
X16395660Y29093640D01*
X16415660Y29093640D01*
X16415660Y28839640D01*
X16395660Y28839640D01*
X16395660Y28090340D01*
X16541817Y27944183D01*
X16367169Y27831800D01*
X16222179Y27619600D01*
X16171170Y27367710D01*
X16171170Y26567610D01*
X16215448Y26332293D01*
X16354520Y26116169D01*
X16566720Y25971179D01*
X16818610Y25920170D01*
X17618710Y25920170D01*
X17854027Y25964448D01*
X18070151Y26103520D01*
X18122585Y26180260D01*
X19029897Y26180260D01*
X19073590Y26112359D01*
X19285790Y25967369D01*
X19537680Y25916360D01*
X20335240Y25916360D01*
X20570557Y25960638D01*
X20786681Y26099710D01*
X20931671Y26311910D01*
X20982680Y26563800D01*
X20982680Y27083230D01*
X22558360Y27083230D01*
X22558360Y26867670D01*
X22655033Y26634281D01*
X22833662Y26455653D01*
X23067051Y26358980D01*
X23307610Y26358980D01*
X23466360Y26517730D01*
X23466360Y27241980D01*
X22717110Y27241980D01*
X22558360Y27083230D01*
X20982680Y27083230D01*
X20982680Y27361360D01*
X20938402Y27596677D01*
X20864275Y27711873D01*
X20931671Y27810510D01*
X20982680Y28062400D01*
X20982680Y28847280D01*
X21201650Y28756580D01*
X21492210Y28756580D01*
X21650960Y28915330D01*
X21650960Y29516580D01*
X21630960Y29516580D01*
X21630960Y29766580D01*
X21650960Y29766580D01*
X21650960Y29788580D01*
X21904960Y29788580D01*
X21904960Y29766580D01*
X21924960Y29766580D01*
X21924960Y29516580D01*
X21904960Y29516580D01*
X21904960Y28915330D01*
X22063710Y28756580D01*
X22354270Y28756580D01*
X22587659Y28853253D01*
X22695920Y28961515D01*
X22695920Y28709680D01*
X22740198Y28474363D01*
X22857444Y28292158D01*
X22833662Y28282307D01*
X22655033Y28103679D01*
X22558360Y27870290D01*
X22558360Y27654730D01*
X22717110Y27495980D01*
X23466360Y27495980D01*
X23466360Y27515980D01*
X23603559Y27515980D01*
X23603559Y17640665D01*
X23536396Y17803212D01*
X23252526Y18087577D01*
X22881443Y18241664D01*
X22479640Y18242015D01*
X22316928Y18174784D01*
X22221975Y18239662D01*
X22307731Y18365170D01*
X22358740Y18617060D01*
X22358740Y19367060D01*
X22314462Y19602377D01*
X22200300Y19779790D01*
X22200300Y20954780D01*
X22132629Y21294986D01*
X21987625Y21512000D01*
X22538690Y21512000D01*
X22774007Y21556278D01*
X22990131Y21695350D01*
X23135121Y21907550D01*
X23186130Y22159440D01*
X23186130Y23759640D01*
X23141852Y23994957D01*
X23002780Y24211081D01*
X22790580Y24356071D01*
X22538690Y24407080D01*
X19538950Y24407080D01*
X19303633Y24362802D01*
X19087509Y24223730D01*
X18942519Y24011530D01*
X18891510Y23759640D01*
X18891510Y22159440D01*
X18935788Y21924123D01*
X19074860Y21707999D01*
X19287060Y21563009D01*
X19538950Y21512000D01*
X20149820Y21512000D01*
X20149820Y21227260D01*
X20217491Y20887054D01*
X20370261Y20658418D01*
X20410202Y20598642D01*
X20422300Y20586544D01*
X20422300Y19966980D01*
X20337609Y20002060D01*
X20097050Y20002060D01*
X19938300Y19843310D01*
X19938300Y19119060D01*
X19958300Y19119060D01*
X19958300Y18865060D01*
X19938300Y18865060D01*
X19938300Y18845060D01*
X19684300Y18845060D01*
X19684300Y18865060D01*
X18935050Y18865060D01*
X18776300Y18706310D01*
X18776300Y18490750D01*
X18872973Y18257361D01*
X18973087Y18157247D01*
X18958919Y18148130D01*
X18813929Y17935930D01*
X18762920Y17684040D01*
X18762920Y16784040D01*
X18807198Y16548723D01*
X18946270Y16332599D01*
X19158470Y16187609D01*
X19410360Y16136600D01*
X21910360Y16136600D01*
X22145677Y16180878D01*
X22314824Y16289721D01*
X22477877Y16222016D01*
X22879680Y16221665D01*
X23251032Y16375104D01*
X23535397Y16658974D01*
X23603559Y16823126D01*
X23603559Y14341981D01*
X23663496Y14040656D01*
X23834183Y13785205D01*
X25877484Y11741904D01*
X26132935Y11571217D01*
X26428960Y11512334D01*
X26428960Y11282680D01*
X26473238Y11047363D01*
X26612310Y10831239D01*
X26824510Y10686249D01*
X27076400Y10635240D01*
X28803600Y10635240D01*
X29038917Y10679518D01*
X29255041Y10818590D01*
X29400031Y11030790D01*
X29408400Y11072119D01*
X29420330Y11054265D01*
X29906511Y10729409D01*
X30480000Y10615335D01*
X31053489Y10729409D01*
X31539670Y11054265D01*
X31750000Y11369046D01*
X31960330Y11054265D01*
X32446511Y10729409D01*
X33020000Y10615335D01*
X33593489Y10729409D01*
X34079670Y11054265D01*
X34290000Y11369046D01*
X34500330Y11054265D01*
X34671000Y10940227D01*
X34671000Y6997253D01*
X34500330Y6883215D01*
X34290000Y6568434D01*
X34079670Y6883215D01*
X33593489Y7208071D01*
X33020000Y7322145D01*
X32446511Y7208071D01*
X31960330Y6883215D01*
X31750000Y6568434D01*
X31539670Y6883215D01*
X31053489Y7208071D01*
X30480000Y7322145D01*
X29906511Y7208071D01*
X29420330Y6883215D01*
X29210000Y6568434D01*
X28999670Y6883215D01*
X28513489Y7208071D01*
X27940000Y7322145D01*
X27366511Y7208071D01*
X26880330Y6883215D01*
X26555474Y6397034D01*
X26441400Y5823545D01*
X26441400Y5454055D01*
X26555474Y4880566D01*
X26880330Y4394385D01*
X27336772Y4089400D01*
X26880330Y3784415D01*
X26555474Y3298234D01*
X26441400Y2724745D01*
X26441400Y2355255D01*
X26555474Y1781766D01*
X26667986Y1613380D01*
X23172420Y1613380D01*
X22881443Y1734204D01*
X22479640Y1734555D01*
X22108288Y1581116D01*
X21823923Y1297246D01*
X21669836Y926163D01*
X21669647Y710000D01*
X15192757Y710000D01*
X15799244Y1315428D01*
X16128624Y2108664D01*
X16129374Y2967567D01*
X15801378Y3761377D01*
X15194572Y4369244D01*
X14401336Y4698624D01*
X13542433Y4699374D01*
X12748623Y4371378D01*
X12140756Y3764572D01*
X11811376Y2971336D01*
X11810626Y2112433D01*
X12138622Y1318623D01*
X12745428Y710756D01*
X12747249Y710000D01*
X710000Y710000D01*
X710000Y8887539D01*
X1623664Y8887539D01*
X1970802Y8047402D01*
X2613021Y7404061D01*
X3452551Y7055457D01*
X4361581Y7054664D01*
X5201718Y7401802D01*
X5845059Y8044021D01*
X6193663Y8883551D01*
X6194456Y9792581D01*
X6165918Y9861650D01*
X12006735Y9861650D01*
X12074795Y9620649D01*
X12594094Y9435813D01*
X13144598Y9463775D01*
X13523325Y9620649D01*
X13591385Y9861650D01*
X12799060Y10653975D01*
X12006735Y9861650D01*
X6165918Y9861650D01*
X5847318Y10632718D01*
X5349257Y11131650D01*
X9466735Y11131650D01*
X9534795Y10890649D01*
X10054094Y10705813D01*
X10604598Y10733775D01*
X10983325Y10890649D01*
X11025091Y11038546D01*
X11401293Y11038546D01*
X11429255Y10488042D01*
X11586129Y10109315D01*
X11827130Y10041255D01*
X12619455Y10833580D01*
X12978665Y10833580D01*
X13770990Y10041255D01*
X14011991Y10109315D01*
X14196827Y10628614D01*
X14168865Y11179118D01*
X14011991Y11557845D01*
X13770990Y11625905D01*
X12978665Y10833580D01*
X12619455Y10833580D01*
X11827130Y11625905D01*
X11586129Y11557845D01*
X11401293Y11038546D01*
X11025091Y11038546D01*
X11051385Y11131650D01*
X10259060Y11923975D01*
X9466735Y11131650D01*
X5349257Y11131650D01*
X5205099Y11276059D01*
X4365569Y11624663D01*
X3456539Y11625456D01*
X2616402Y11278318D01*
X1973061Y10636099D01*
X1624457Y9796569D01*
X1623664Y8887539D01*
X710000Y8887539D01*
X710000Y14428707D01*
X5427372Y14428707D01*
X5592206Y14029780D01*
X5897155Y13724298D01*
X6295793Y13558769D01*
X6352421Y13558720D01*
X6352098Y13188413D01*
X6494143Y12844637D01*
X6756933Y12581388D01*
X7100461Y12438742D01*
X7472427Y12438418D01*
X7816203Y12580463D01*
X7821930Y12586180D01*
X8960112Y12586180D01*
X8861293Y12308546D01*
X8889255Y11758042D01*
X9046129Y11379315D01*
X9287130Y11311255D01*
X10079455Y12103580D01*
X10065313Y12117722D01*
X10244918Y12297327D01*
X10259060Y12283185D01*
X10273203Y12297327D01*
X10452808Y12117722D01*
X10438665Y12103580D01*
X11230990Y11311255D01*
X11471991Y11379315D01*
X11656827Y11898614D01*
X11628865Y12449118D01*
X11572092Y12586180D01*
X11627303Y12586180D01*
X12013173Y12199636D01*
X12228556Y12110201D01*
X12074795Y12046511D01*
X12006735Y11805510D01*
X12799060Y11013185D01*
X13591385Y11805510D01*
X13523325Y12046511D01*
X13358020Y12105349D01*
X13582897Y12198266D01*
X13973004Y12587693D01*
X14184389Y13096764D01*
X14184870Y13647978D01*
X13974374Y14157417D01*
X13584947Y14547524D01*
X13353679Y14643555D01*
X13582897Y14738266D01*
X13869711Y15024580D01*
X14780260Y15024580D01*
X15120466Y15092251D01*
X15307570Y15217270D01*
X15307570Y13088620D01*
X15351848Y12853303D01*
X15490920Y12637179D01*
X15703120Y12492189D01*
X15955010Y12441180D01*
X17755870Y12441180D01*
X17991187Y12485458D01*
X18207311Y12624530D01*
X18352301Y12836730D01*
X18403310Y13088620D01*
X18403310Y13449300D01*
X18935523Y13449300D01*
X18946270Y13432599D01*
X19158470Y13287609D01*
X19410360Y13236600D01*
X21910360Y13236600D01*
X22145677Y13280878D01*
X22361801Y13419950D01*
X22506791Y13632150D01*
X22557800Y13884040D01*
X22557800Y14784040D01*
X22513522Y15019357D01*
X22374450Y15235481D01*
X22162250Y15380471D01*
X21910360Y15431480D01*
X19410360Y15431480D01*
X19175043Y15387202D01*
X18958919Y15248130D01*
X18944686Y15227300D01*
X18403310Y15227300D01*
X18403310Y15587980D01*
X18359032Y15823297D01*
X18219960Y16039421D01*
X18007760Y16184411D01*
X17755870Y16235420D01*
X16359336Y16235420D01*
X16563056Y16439140D01*
X17755870Y16439140D01*
X17991187Y16483418D01*
X18207311Y16622490D01*
X18352301Y16834690D01*
X18403310Y17086580D01*
X18403310Y19493370D01*
X18776300Y19493370D01*
X18776300Y19277810D01*
X18935050Y19119060D01*
X19684300Y19119060D01*
X19684300Y19843310D01*
X19525550Y20002060D01*
X19284991Y20002060D01*
X19051602Y19905387D01*
X18872973Y19726759D01*
X18776300Y19493370D01*
X18403310Y19493370D01*
X18403310Y19585940D01*
X18359032Y19821257D01*
X18219960Y20037381D01*
X18007760Y20182371D01*
X17755870Y20233380D01*
X15955010Y20233380D01*
X15719693Y20189102D01*
X15503569Y20050030D01*
X15358579Y19837830D01*
X15307570Y19585940D01*
X15307570Y17698126D01*
X14412024Y16802580D01*
X13869394Y16802580D01*
X13584947Y17087524D01*
X13353679Y17183555D01*
X13582897Y17278266D01*
X13973004Y17667693D01*
X14184389Y18176764D01*
X14184870Y18727978D01*
X13974374Y19237417D01*
X13584947Y19627524D01*
X13075876Y19838909D01*
X12524662Y19839390D01*
X12015223Y19628894D01*
X11657070Y19271365D01*
X11657070Y20474150D01*
X11612792Y20709467D01*
X11473720Y20925591D01*
X11261520Y21070581D01*
X11009630Y21121590D01*
X9508490Y21121590D01*
X9273173Y21077312D01*
X9057049Y20938240D01*
X8912059Y20726040D01*
X8882456Y20579856D01*
X8693259Y20658418D01*
X8321293Y20658742D01*
X7977517Y20516697D01*
X7714268Y20253907D01*
X7571622Y19910379D01*
X7571298Y19538413D01*
X7713343Y19194637D01*
X7976133Y18931388D01*
X8254127Y18815954D01*
X8181222Y18640379D01*
X8180898Y18268413D01*
X8275849Y18038613D01*
X8083659Y18118418D01*
X7711693Y18118742D01*
X7367917Y17976697D01*
X7104668Y17713907D01*
X6962022Y17370379D01*
X6961698Y16998413D01*
X7103743Y16654637D01*
X7366533Y16391388D01*
X7710061Y16248742D01*
X8082027Y16248418D01*
X8425803Y16390463D01*
X8431530Y16396180D01*
X9087303Y16396180D01*
X9473173Y16009636D01*
X9704441Y15913605D01*
X9475223Y15818894D01*
X9188409Y15532580D01*
X7158194Y15532580D01*
X7127965Y15562862D01*
X6729327Y15728391D01*
X6297687Y15728768D01*
X5898760Y15563934D01*
X5593278Y15258985D01*
X5427749Y14860347D01*
X5427372Y14428707D01*
X710000Y14428707D01*
X710000Y20766861D01*
X1673673Y20766861D01*
X2013215Y19945108D01*
X2641381Y19315844D01*
X3462541Y18974869D01*
X4351679Y18974093D01*
X5173432Y19313635D01*
X5802696Y19941801D01*
X6143671Y20762961D01*
X6144447Y21652099D01*
X5804905Y22473852D01*
X5605316Y22673790D01*
X14504670Y22673790D01*
X14504670Y22033130D01*
X14601343Y21799741D01*
X14779972Y21621113D01*
X15013361Y21524440D01*
X16353790Y21524440D01*
X16512540Y21683190D01*
X16512540Y22832540D01*
X16766540Y22832540D01*
X16766540Y21683190D01*
X16925290Y21524440D01*
X18265719Y21524440D01*
X18499108Y21621113D01*
X18677737Y21799741D01*
X18774410Y22033130D01*
X18774410Y22673790D01*
X18615660Y22832540D01*
X16766540Y22832540D01*
X16512540Y22832540D01*
X14663420Y22832540D01*
X14504670Y22673790D01*
X5605316Y22673790D01*
X5176739Y23103116D01*
X4355579Y23444091D01*
X3466441Y23444867D01*
X2644688Y23105325D01*
X2015424Y22477159D01*
X1674449Y21655999D01*
X1673673Y20766861D01*
X710000Y20766861D01*
X710000Y23885950D01*
X14504670Y23885950D01*
X14504670Y23245290D01*
X14663420Y23086540D01*
X16512540Y23086540D01*
X16512540Y24235890D01*
X16766540Y24235890D01*
X16766540Y23086540D01*
X18615660Y23086540D01*
X18774410Y23245290D01*
X18774410Y23885950D01*
X18677737Y24119339D01*
X18499108Y24297967D01*
X18265719Y24394640D01*
X16925290Y24394640D01*
X16766540Y24235890D01*
X16512540Y24235890D01*
X16353790Y24394640D01*
X15013361Y24394640D01*
X14779972Y24297967D01*
X14601343Y24119339D01*
X14504670Y23885950D01*
X710000Y23885950D01*
X710000Y28680890D01*
X15233610Y28680890D01*
X15233610Y28440280D01*
X15330283Y28206891D01*
X15508912Y28028263D01*
X15742301Y27931590D01*
X15982910Y27931590D01*
X16141660Y28090340D01*
X16141660Y28839640D01*
X15392360Y28839640D01*
X15233610Y28680890D01*
X710000Y28680890D01*
X710000Y29493000D01*
X15233610Y29493000D01*
X15233610Y29252390D01*
X15392360Y29093640D01*
X16141660Y29093640D01*
X16141660Y29842940D01*
X15982910Y30001690D01*
X15742301Y30001690D01*
X15508912Y29905017D01*
X15330283Y29726389D01*
X15233610Y29493000D01*
X710000Y29493000D01*
X710000Y31671339D01*
X1636364Y31671339D01*
X1983502Y30831202D01*
X2625721Y30187861D01*
X3465251Y29839257D01*
X4374281Y29838464D01*
X5214418Y30185602D01*
X5857759Y30827821D01*
X5877337Y30874970D01*
X14603220Y30874970D01*
X14603220Y30584410D01*
X14699893Y30351021D01*
X14878522Y30172393D01*
X15111911Y30075720D01*
X15204470Y30075720D01*
X15363220Y30234470D01*
X15363220Y31033720D01*
X14761970Y31033720D01*
X14603220Y30874970D01*
X5877337Y30874970D01*
X6206363Y31667351D01*
X6207156Y32576381D01*
X6178618Y32645450D01*
X12019435Y32645450D01*
X12087495Y32404449D01*
X12606794Y32219613D01*
X13157298Y32247575D01*
X13536025Y32404449D01*
X13604085Y32645450D01*
X12811760Y33437775D01*
X12019435Y32645450D01*
X6178618Y32645450D01*
X5860018Y33416518D01*
X5217799Y34059859D01*
X4378269Y34408463D01*
X3469239Y34409256D01*
X2629102Y34062118D01*
X1985761Y33419899D01*
X1637157Y32580369D01*
X1636364Y31671339D01*
X710000Y31671339D01*
X710000Y43550661D01*
X1686373Y43550661D01*
X2025915Y42728908D01*
X2654081Y42099644D01*
X3475241Y41758669D01*
X4364379Y41757893D01*
X5186132Y42097435D01*
X5815396Y42725601D01*
X6156371Y43546761D01*
X6157147Y44435899D01*
X5817605Y45257652D01*
X5189439Y45886916D01*
X4368279Y46227891D01*
X3479141Y46228667D01*
X2657388Y45889125D01*
X2028124Y45260959D01*
X1687149Y44439799D01*
X1686373Y43550661D01*
X710000Y43550661D01*
X710000Y52630000D01*
X14017243Y52630000D01*
X13410756Y52024572D01*
G36*
X65330000Y51521909D02*
X65330000Y40386000D01*
X65384046Y40114295D01*
X65537954Y39883954D01*
X67870000Y37551909D01*
X67870000Y36782757D01*
X67264572Y37389244D01*
X66471336Y37718624D01*
X65612433Y37719374D01*
X64818623Y37391378D01*
X64210756Y36784572D01*
X63881376Y35991336D01*
X63880626Y35132433D01*
X64208622Y34338623D01*
X64815428Y33730756D01*
X65608664Y33401376D01*
X66467567Y33400626D01*
X67261377Y33728622D01*
X67869244Y34335428D01*
X67870000Y34337249D01*
X67870000Y8842757D01*
X67264572Y9449244D01*
X66471336Y9778624D01*
X65612433Y9779374D01*
X64818623Y9451378D01*
X64210756Y8844572D01*
X63881376Y8051336D01*
X63880673Y7246424D01*
X63500000Y7322145D01*
X62926511Y7208071D01*
X62440330Y6883215D01*
X62230000Y6568434D01*
X62019670Y6883215D01*
X61533489Y7208071D01*
X60960000Y7322145D01*
X60386511Y7208071D01*
X59900330Y6883215D01*
X59690000Y6568434D01*
X59479670Y6883215D01*
X58993489Y7208071D01*
X58420000Y7322145D01*
X57846511Y7208071D01*
X57360330Y6883215D01*
X57150000Y6568434D01*
X56939670Y6883215D01*
X56453489Y7208071D01*
X55880000Y7322145D01*
X55306511Y7208071D01*
X54820330Y6883215D01*
X54610000Y6568434D01*
X54399670Y6883215D01*
X53913489Y7208071D01*
X53340000Y7322145D01*
X52766511Y7208071D01*
X52280330Y6883215D01*
X52070000Y6568434D01*
X51859670Y6883215D01*
X51373489Y7208071D01*
X50800000Y7322145D01*
X50226511Y7208071D01*
X49740330Y6883215D01*
X49415474Y6397034D01*
X49301400Y5823545D01*
X49301400Y5454055D01*
X49415474Y4880566D01*
X49740330Y4394385D01*
X50196772Y4089400D01*
X49740330Y3784415D01*
X49415474Y3298234D01*
X49301400Y2724745D01*
X49301400Y2355255D01*
X49415474Y1781766D01*
X49740330Y1295585D01*
X50226511Y970729D01*
X50800000Y856655D01*
X51373489Y970729D01*
X51859670Y1295585D01*
X52070000Y1610366D01*
X52280330Y1295585D01*
X52766511Y970729D01*
X53340000Y856655D01*
X53913489Y970729D01*
X54399670Y1295585D01*
X54610000Y1610366D01*
X54820330Y1295585D01*
X55306511Y970729D01*
X55880000Y856655D01*
X56453489Y970729D01*
X56939670Y1295585D01*
X57150000Y1610366D01*
X57360330Y1295585D01*
X57846511Y970729D01*
X58420000Y856655D01*
X58993489Y970729D01*
X59479670Y1295585D01*
X59690000Y1610366D01*
X59900330Y1295585D01*
X60386511Y970729D01*
X60960000Y856655D01*
X61533489Y970729D01*
X62019670Y1295585D01*
X62230000Y1610366D01*
X62440330Y1295585D01*
X62926511Y970729D01*
X63500000Y856655D01*
X64073489Y970729D01*
X64559670Y1295585D01*
X64884526Y1781766D01*
X64998600Y2355255D01*
X64998600Y2724745D01*
X64884526Y3298234D01*
X64559670Y3784415D01*
X64103228Y4089400D01*
X64559670Y4394385D01*
X64884526Y4880566D01*
X64998600Y5454055D01*
X64998600Y5714696D01*
X65608664Y5461376D01*
X66467567Y5460626D01*
X67261377Y5788622D01*
X67869244Y6395428D01*
X67870000Y6397249D01*
X67870000Y5374091D01*
X65537954Y3042046D01*
X65384046Y2811705D01*
X65330000Y2540000D01*
X65330000Y710000D01*
X45299636Y710000D01*
X45491702Y902066D01*
X45720000Y856655D01*
X46293489Y970729D01*
X46779670Y1295585D01*
X47104526Y1781766D01*
X47218600Y2355255D01*
X47218600Y2724745D01*
X47104526Y3298234D01*
X46779670Y3784415D01*
X46323228Y4089400D01*
X46779670Y4394385D01*
X47104526Y4880566D01*
X47218600Y5454055D01*
X47218600Y5823545D01*
X47104526Y6397034D01*
X46779670Y6883215D01*
X46293489Y7208071D01*
X45720000Y7322145D01*
X45146511Y7208071D01*
X44660330Y6883215D01*
X44453539Y6573731D01*
X44082036Y6989532D01*
X43554791Y7243509D01*
X43539026Y7246158D01*
X43307000Y7125017D01*
X43307000Y5765800D01*
X43327000Y5765800D01*
X43327000Y5511800D01*
X43307000Y5511800D01*
X43307000Y4152583D01*
X43428017Y4089400D01*
X43307000Y4026217D01*
X43307000Y2667000D01*
X43327000Y2667000D01*
X43327000Y2413000D01*
X43307000Y2413000D01*
X43307000Y2393000D01*
X43053000Y2393000D01*
X43053000Y2413000D01*
X40767000Y2413000D01*
X40767000Y2393000D01*
X40513000Y2393000D01*
X40513000Y2413000D01*
X40493000Y2413000D01*
X40493000Y2667000D01*
X40513000Y2667000D01*
X40513000Y4026217D01*
X40391983Y4089400D01*
X40513000Y4152583D01*
X40513000Y5511800D01*
X40767000Y5511800D01*
X40767000Y4152583D01*
X40888017Y4089400D01*
X40767000Y4026217D01*
X40767000Y2667000D01*
X43053000Y2667000D01*
X43053000Y4026217D01*
X42931983Y4089400D01*
X43053000Y4152583D01*
X43053000Y5511800D01*
X40767000Y5511800D01*
X40513000Y5511800D01*
X40493000Y5511800D01*
X40493000Y5765800D01*
X40513000Y5765800D01*
X40513000Y7125017D01*
X40767000Y7125017D01*
X40767000Y5765800D01*
X43053000Y5765800D01*
X43053000Y7125017D01*
X42820974Y7246158D01*
X42805209Y7243509D01*
X42277964Y6989532D01*
X41910000Y6577692D01*
X41542036Y6989532D01*
X41014791Y7243509D01*
X40999026Y7246158D01*
X40767000Y7125017D01*
X40513000Y7125017D01*
X40280974Y7246158D01*
X40265209Y7243509D01*
X39737964Y6989532D01*
X39366461Y6573731D01*
X39159670Y6883215D01*
X38673489Y7208071D01*
X38100000Y7322145D01*
X37526511Y7208071D01*
X37040330Y6883215D01*
X36830000Y6568434D01*
X36619670Y6883215D01*
X36449000Y6997253D01*
X36449000Y8786980D01*
X37084745Y8786980D01*
X37238184Y8415628D01*
X37522054Y8131263D01*
X37893137Y7977176D01*
X38294940Y7976825D01*
X38588207Y8098000D01*
X62527180Y8098000D01*
X62818157Y7977176D01*
X63219960Y7976825D01*
X63591312Y8130264D01*
X63875677Y8414134D01*
X64029764Y8785217D01*
X64030115Y9187020D01*
X63876676Y9558372D01*
X63592806Y9842737D01*
X63221723Y9996824D01*
X62819920Y9997175D01*
X62526653Y9876000D01*
X38587680Y9876000D01*
X38296703Y9996824D01*
X37894900Y9997175D01*
X37523548Y9843736D01*
X37239183Y9559866D01*
X37085096Y9188783D01*
X37084745Y8786980D01*
X36449000Y8786980D01*
X36449000Y10940227D01*
X36619670Y11054265D01*
X36830000Y11369046D01*
X37040330Y11054265D01*
X37526511Y10729409D01*
X38100000Y10615335D01*
X38673489Y10729409D01*
X39159670Y11054265D01*
X39370000Y11369046D01*
X39580330Y11054265D01*
X40066511Y10729409D01*
X40640000Y10615335D01*
X41213489Y10729409D01*
X41699670Y11054265D01*
X41910000Y11369046D01*
X42120330Y11054265D01*
X42606511Y10729409D01*
X43180000Y10615335D01*
X43753489Y10729409D01*
X44239670Y11054265D01*
X44450000Y11369046D01*
X44660330Y11054265D01*
X45146511Y10729409D01*
X45720000Y10615335D01*
X46293489Y10729409D01*
X46779670Y11054265D01*
X46990000Y11369046D01*
X47200330Y11054265D01*
X47686511Y10729409D01*
X48260000Y10615335D01*
X48833489Y10729409D01*
X49319670Y11054265D01*
X49530000Y11369046D01*
X49740330Y11054265D01*
X50226511Y10729409D01*
X50800000Y10615335D01*
X51373489Y10729409D01*
X51859670Y11054265D01*
X52070000Y11369046D01*
X52280330Y11054265D01*
X52766511Y10729409D01*
X53340000Y10615335D01*
X53913489Y10729409D01*
X54399670Y11054265D01*
X54610000Y11369046D01*
X54820330Y11054265D01*
X55306511Y10729409D01*
X55880000Y10615335D01*
X56453489Y10729409D01*
X56939670Y11054265D01*
X57150000Y11369046D01*
X57360330Y11054265D01*
X57846511Y10729409D01*
X58420000Y10615335D01*
X58993489Y10729409D01*
X59479670Y11054265D01*
X59690000Y11369046D01*
X59900330Y11054265D01*
X60386511Y10729409D01*
X60960000Y10615335D01*
X61533489Y10729409D01*
X62019670Y11054265D01*
X62344526Y11540446D01*
X62458600Y12113935D01*
X62458600Y12483425D01*
X62344526Y13056914D01*
X62019670Y13543095D01*
X61533489Y13867951D01*
X60960000Y13982025D01*
X60386511Y13867951D01*
X59900330Y13543095D01*
X59690000Y13228314D01*
X59479670Y13543095D01*
X58993489Y13867951D01*
X58420000Y13982025D01*
X57846511Y13867951D01*
X57360330Y13543095D01*
X57150000Y13228314D01*
X56939670Y13543095D01*
X56453489Y13867951D01*
X55880000Y13982025D01*
X55306511Y13867951D01*
X54820330Y13543095D01*
X54610000Y13228314D01*
X54399670Y13543095D01*
X53913489Y13867951D01*
X53340000Y13982025D01*
X52766511Y13867951D01*
X52280330Y13543095D01*
X52070000Y13228314D01*
X51859670Y13543095D01*
X51373489Y13867951D01*
X50800000Y13982025D01*
X50226511Y13867951D01*
X49740330Y13543095D01*
X49530000Y13228314D01*
X49319670Y13543095D01*
X48833489Y13867951D01*
X48260000Y13982025D01*
X47686511Y13867951D01*
X47200330Y13543095D01*
X46990000Y13228314D01*
X46779670Y13543095D01*
X46293489Y13867951D01*
X45720000Y13982025D01*
X45146511Y13867951D01*
X44660330Y13543095D01*
X44450000Y13228314D01*
X44239670Y13543095D01*
X43753489Y13867951D01*
X43180000Y13982025D01*
X42606511Y13867951D01*
X42120330Y13543095D01*
X41910000Y13228314D01*
X41699670Y13543095D01*
X41213489Y13867951D01*
X40640000Y13982025D01*
X40066511Y13867951D01*
X39580330Y13543095D01*
X39370000Y13228314D01*
X39159670Y13543095D01*
X38673489Y13867951D01*
X38100000Y13982025D01*
X37526511Y13867951D01*
X37040330Y13543095D01*
X36830000Y13228314D01*
X36619670Y13543095D01*
X36133489Y13867951D01*
X35560000Y13982025D01*
X34986511Y13867951D01*
X34500330Y13543095D01*
X34290000Y13228314D01*
X34079670Y13543095D01*
X33593489Y13867951D01*
X33020000Y13982025D01*
X32446511Y13867951D01*
X31960330Y13543095D01*
X31750000Y13228314D01*
X31539670Y13543095D01*
X31053489Y13867951D01*
X30480000Y13982025D01*
X29906511Y13867951D01*
X29420330Y13543095D01*
X29410757Y13528767D01*
X29406762Y13549997D01*
X29267690Y13766121D01*
X29055490Y13911111D01*
X28803600Y13962120D01*
X27076400Y13962120D01*
X26841083Y13917842D01*
X26624959Y13778770D01*
X26479969Y13566570D01*
X26446281Y13400211D01*
X25178359Y14668133D01*
X25178359Y23094377D01*
X26288714Y23094377D01*
X26539534Y22487345D01*
X26875132Y22151161D01*
X26541166Y21817777D01*
X26289287Y21211185D01*
X26288714Y20554377D01*
X26539534Y19947345D01*
X26875132Y19611161D01*
X26541166Y19277777D01*
X26289287Y18671185D01*
X26288714Y18014377D01*
X26539534Y17407345D01*
X26875132Y17071161D01*
X26541166Y16737777D01*
X26289287Y16131185D01*
X26288714Y15474377D01*
X26539534Y14867345D01*
X27003563Y14402506D01*
X27610155Y14150627D01*
X28266963Y14150054D01*
X28873995Y14400874D01*
X29210179Y14736472D01*
X29543563Y14402506D01*
X30150155Y14150627D01*
X30806963Y14150054D01*
X31413995Y14400874D01*
X31750179Y14736472D01*
X32083563Y14402506D01*
X32690155Y14150627D01*
X33346963Y14150054D01*
X33953995Y14400874D01*
X34290179Y14736472D01*
X34623563Y14402506D01*
X35230155Y14150627D01*
X35886963Y14150054D01*
X36493995Y14400874D01*
X36830179Y14736472D01*
X37163563Y14402506D01*
X37770155Y14150627D01*
X38426963Y14150054D01*
X39033995Y14400874D01*
X39370179Y14736472D01*
X39703563Y14402506D01*
X40310155Y14150627D01*
X40966963Y14150054D01*
X41573995Y14400874D01*
X41910179Y14736472D01*
X42243563Y14402506D01*
X42850155Y14150627D01*
X43506963Y14150054D01*
X44113995Y14400874D01*
X44450179Y14736472D01*
X44783563Y14402506D01*
X45390155Y14150627D01*
X46046963Y14150054D01*
X46653995Y14400874D01*
X46990179Y14736472D01*
X47323563Y14402506D01*
X47930155Y14150627D01*
X48586963Y14150054D01*
X49193995Y14400874D01*
X49530179Y14736472D01*
X49863563Y14402506D01*
X50470155Y14150627D01*
X51126963Y14150054D01*
X51733995Y14400874D01*
X52070179Y14736472D01*
X52403563Y14402506D01*
X53010155Y14150627D01*
X53666963Y14150054D01*
X54273995Y14400874D01*
X54610179Y14736472D01*
X54943563Y14402506D01*
X55550155Y14150627D01*
X56206963Y14150054D01*
X56813995Y14400874D01*
X57150179Y14736472D01*
X57483563Y14402506D01*
X58090155Y14150627D01*
X58746963Y14150054D01*
X59353995Y14400874D01*
X59690179Y14736472D01*
X60023563Y14402506D01*
X60630155Y14150627D01*
X61286963Y14150054D01*
X61893995Y14400874D01*
X62358834Y14864903D01*
X62610713Y15471495D01*
X62611286Y16128303D01*
X62360466Y16735335D01*
X62024868Y17071519D01*
X62358834Y17404903D01*
X62610713Y18011495D01*
X62611286Y18668303D01*
X62360466Y19275335D01*
X62024868Y19611519D01*
X62358834Y19944903D01*
X62610713Y20551495D01*
X62611286Y21208303D01*
X62360466Y21815335D01*
X62024868Y22151519D01*
X62358834Y22484903D01*
X62610713Y23091495D01*
X62611286Y23748303D01*
X62360466Y24355335D01*
X61896437Y24820174D01*
X61289845Y25072053D01*
X60633037Y25072626D01*
X60026005Y24821806D01*
X59689821Y24486208D01*
X59356437Y24820174D01*
X58749845Y25072053D01*
X58093037Y25072626D01*
X57486005Y24821806D01*
X57149821Y24486208D01*
X56816437Y24820174D01*
X56209845Y25072053D01*
X55553037Y25072626D01*
X54946005Y24821806D01*
X54609821Y24486208D01*
X54276437Y24820174D01*
X53669845Y25072053D01*
X53013037Y25072626D01*
X52406005Y24821806D01*
X52069821Y24486208D01*
X51736437Y24820174D01*
X51129845Y25072053D01*
X50473037Y25072626D01*
X49866005Y24821806D01*
X49529821Y24486208D01*
X49196437Y24820174D01*
X48589845Y25072053D01*
X47933037Y25072626D01*
X47326005Y24821806D01*
X46989821Y24486208D01*
X46656437Y24820174D01*
X46049845Y25072053D01*
X45393037Y25072626D01*
X44786005Y24821806D01*
X44449821Y24486208D01*
X44116437Y24820174D01*
X43509845Y25072053D01*
X42853037Y25072626D01*
X42246005Y24821806D01*
X41909821Y24486208D01*
X41576437Y24820174D01*
X40969845Y25072053D01*
X40313037Y25072626D01*
X39706005Y24821806D01*
X39369821Y24486208D01*
X39036437Y24820174D01*
X38429845Y25072053D01*
X37773037Y25072626D01*
X37166005Y24821806D01*
X36829821Y24486208D01*
X36496437Y24820174D01*
X35889845Y25072053D01*
X35233037Y25072626D01*
X34626005Y24821806D01*
X34289821Y24486208D01*
X33956437Y24820174D01*
X33349845Y25072053D01*
X32693037Y25072626D01*
X32086005Y24821806D01*
X31749821Y24486208D01*
X31416437Y24820174D01*
X30809845Y25072053D01*
X30153037Y25072626D01*
X29546005Y24821806D01*
X29209821Y24486208D01*
X28876437Y24820174D01*
X28269845Y25072053D01*
X27613037Y25072626D01*
X27006005Y24821806D01*
X26541166Y24357777D01*
X26289287Y23751185D01*
X26288714Y23094377D01*
X25178359Y23094377D01*
X25178359Y26346540D01*
X25493360Y26346540D01*
X25728677Y26390818D01*
X25944801Y26529890D01*
X26037930Y26666190D01*
X26441400Y26666190D01*
X26441400Y25809631D01*
X26538073Y25576242D01*
X26716701Y25397613D01*
X26950090Y25300940D01*
X27654250Y25300940D01*
X27813000Y25459690D01*
X27813000Y26824940D01*
X28067000Y26824940D01*
X28067000Y25459690D01*
X28225750Y25300940D01*
X28929910Y25300940D01*
X29163299Y25397613D01*
X29341927Y25576242D01*
X29423759Y25773801D01*
X29577964Y25601208D01*
X30105209Y25347231D01*
X30120974Y25344582D01*
X30353000Y25465723D01*
X30353000Y26824940D01*
X30607000Y26824940D01*
X30607000Y25465723D01*
X30839026Y25344582D01*
X30854791Y25347231D01*
X31382036Y25601208D01*
X31750000Y26013048D01*
X32117964Y25601208D01*
X32645209Y25347231D01*
X32660974Y25344582D01*
X32893000Y25465723D01*
X32893000Y26824940D01*
X33147000Y26824940D01*
X33147000Y25465723D01*
X33379026Y25344582D01*
X33394791Y25347231D01*
X33922036Y25601208D01*
X34290000Y26013048D01*
X34657964Y25601208D01*
X35185209Y25347231D01*
X35200974Y25344582D01*
X35433000Y25465723D01*
X35433000Y26824940D01*
X35687000Y26824940D01*
X35687000Y25465723D01*
X35919026Y25344582D01*
X35934791Y25347231D01*
X36462036Y25601208D01*
X36830000Y26013048D01*
X37197964Y25601208D01*
X37725209Y25347231D01*
X37740974Y25344582D01*
X37973000Y25465723D01*
X37973000Y26824940D01*
X38227000Y26824940D01*
X38227000Y25465723D01*
X38459026Y25344582D01*
X38474791Y25347231D01*
X39002036Y25601208D01*
X39370000Y26013048D01*
X39737964Y25601208D01*
X40265209Y25347231D01*
X40280974Y25344582D01*
X40513000Y25465723D01*
X40513000Y26824940D01*
X40767000Y26824940D01*
X40767000Y25465723D01*
X40999026Y25344582D01*
X41014791Y25347231D01*
X41542036Y25601208D01*
X41910000Y26013048D01*
X42277964Y25601208D01*
X42805209Y25347231D01*
X42820974Y25344582D01*
X43053000Y25465723D01*
X43053000Y26824940D01*
X43307000Y26824940D01*
X43307000Y25465723D01*
X43539026Y25344582D01*
X43554791Y25347231D01*
X44082036Y25601208D01*
X44450000Y26013048D01*
X44817964Y25601208D01*
X45345209Y25347231D01*
X45360974Y25344582D01*
X45593000Y25465723D01*
X45593000Y26824940D01*
X45847000Y26824940D01*
X45847000Y25465723D01*
X46079026Y25344582D01*
X46094791Y25347231D01*
X46622036Y25601208D01*
X46990000Y26013048D01*
X47357964Y25601208D01*
X47885209Y25347231D01*
X47900974Y25344582D01*
X48133000Y25465723D01*
X48133000Y26824940D01*
X48387000Y26824940D01*
X48387000Y25465723D01*
X48619026Y25344582D01*
X48634791Y25347231D01*
X49162036Y25601208D01*
X49530000Y26013048D01*
X49897964Y25601208D01*
X50425209Y25347231D01*
X50440974Y25344582D01*
X50673000Y25465723D01*
X50673000Y26824940D01*
X50927000Y26824940D01*
X50927000Y25465723D01*
X51159026Y25344582D01*
X51174791Y25347231D01*
X51702036Y25601208D01*
X52070000Y26013048D01*
X52437964Y25601208D01*
X52965209Y25347231D01*
X52980974Y25344582D01*
X53213000Y25465723D01*
X53213000Y26824940D01*
X53467000Y26824940D01*
X53467000Y25465723D01*
X53699026Y25344582D01*
X53714791Y25347231D01*
X54242036Y25601208D01*
X54610000Y26013048D01*
X54977964Y25601208D01*
X55505209Y25347231D01*
X55520974Y25344582D01*
X55753000Y25465723D01*
X55753000Y26824940D01*
X56007000Y26824940D01*
X56007000Y25465723D01*
X56239026Y25344582D01*
X56254791Y25347231D01*
X56782036Y25601208D01*
X57150000Y26013048D01*
X57517964Y25601208D01*
X58045209Y25347231D01*
X58060974Y25344582D01*
X58293000Y25465723D01*
X58293000Y26824940D01*
X58547000Y26824940D01*
X58547000Y25465723D01*
X58779026Y25344582D01*
X58794791Y25347231D01*
X59322036Y25601208D01*
X59690000Y26013048D01*
X60057964Y25601208D01*
X60585209Y25347231D01*
X60600974Y25344582D01*
X60833000Y25465723D01*
X60833000Y26824940D01*
X61087000Y26824940D01*
X61087000Y25465723D01*
X61319026Y25344582D01*
X61334791Y25347231D01*
X61862036Y25601208D01*
X62251954Y26037620D01*
X62445184Y26590027D01*
X62300924Y26824940D01*
X61087000Y26824940D01*
X60833000Y26824940D01*
X58547000Y26824940D01*
X58293000Y26824940D01*
X56007000Y26824940D01*
X55753000Y26824940D01*
X53467000Y26824940D01*
X53213000Y26824940D01*
X50927000Y26824940D01*
X50673000Y26824940D01*
X48387000Y26824940D01*
X48133000Y26824940D01*
X45847000Y26824940D01*
X45593000Y26824940D01*
X43307000Y26824940D01*
X43053000Y26824940D01*
X40767000Y26824940D01*
X40513000Y26824940D01*
X38227000Y26824940D01*
X37973000Y26824940D01*
X35687000Y26824940D01*
X35433000Y26824940D01*
X33147000Y26824940D01*
X32893000Y26824940D01*
X30607000Y26824940D01*
X30353000Y26824940D01*
X28067000Y26824940D01*
X27813000Y26824940D01*
X26600150Y26824940D01*
X26441400Y26666190D01*
X26037930Y26666190D01*
X26089791Y26742090D01*
X26140800Y26993980D01*
X26140800Y27743980D01*
X26096522Y27979297D01*
X26022553Y28094249D01*
X26441400Y28094249D01*
X26441400Y27237690D01*
X26600150Y27078940D01*
X27813000Y27078940D01*
X27813000Y28444190D01*
X28067000Y28444190D01*
X28067000Y27078940D01*
X30353000Y27078940D01*
X30353000Y28438157D01*
X30607000Y28438157D01*
X30607000Y27078940D01*
X32893000Y27078940D01*
X32893000Y28438157D01*
X33147000Y28438157D01*
X33147000Y27078940D01*
X35433000Y27078940D01*
X35433000Y28438157D01*
X35687000Y28438157D01*
X35687000Y27078940D01*
X37973000Y27078940D01*
X37973000Y28438157D01*
X38227000Y28438157D01*
X38227000Y27078940D01*
X40513000Y27078940D01*
X40513000Y28438157D01*
X40767000Y28438157D01*
X40767000Y27078940D01*
X43053000Y27078940D01*
X43053000Y28438157D01*
X43307000Y28438157D01*
X43307000Y27078940D01*
X45593000Y27078940D01*
X45593000Y28438157D01*
X45847000Y28438157D01*
X45847000Y27078940D01*
X48133000Y27078940D01*
X48133000Y28438157D01*
X48387000Y28438157D01*
X48387000Y27078940D01*
X50673000Y27078940D01*
X50673000Y28438157D01*
X50927000Y28438157D01*
X50927000Y27078940D01*
X53213000Y27078940D01*
X53213000Y28438157D01*
X53467000Y28438157D01*
X53467000Y27078940D01*
X55753000Y27078940D01*
X55753000Y28438157D01*
X56007000Y28438157D01*
X56007000Y27078940D01*
X58293000Y27078940D01*
X58293000Y28438157D01*
X58547000Y28438157D01*
X58547000Y27078940D01*
X60833000Y27078940D01*
X60833000Y28438157D01*
X61087000Y28438157D01*
X61087000Y27078940D01*
X62300924Y27078940D01*
X62445184Y27313853D01*
X62251954Y27866260D01*
X61862036Y28302672D01*
X61334791Y28556649D01*
X61319026Y28559298D01*
X61087000Y28438157D01*
X60833000Y28438157D01*
X60600974Y28559298D01*
X60585209Y28556649D01*
X60057964Y28302672D01*
X59690000Y27890832D01*
X59322036Y28302672D01*
X58794791Y28556649D01*
X58779026Y28559298D01*
X58547000Y28438157D01*
X58293000Y28438157D01*
X58060974Y28559298D01*
X58045209Y28556649D01*
X57517964Y28302672D01*
X57150000Y27890832D01*
X56782036Y28302672D01*
X56254791Y28556649D01*
X56239026Y28559298D01*
X56007000Y28438157D01*
X55753000Y28438157D01*
X55520974Y28559298D01*
X55505209Y28556649D01*
X54977964Y28302672D01*
X54610000Y27890832D01*
X54242036Y28302672D01*
X53714791Y28556649D01*
X53699026Y28559298D01*
X53467000Y28438157D01*
X53213000Y28438157D01*
X52980974Y28559298D01*
X52965209Y28556649D01*
X52437964Y28302672D01*
X52070000Y27890832D01*
X51702036Y28302672D01*
X51174791Y28556649D01*
X51159026Y28559298D01*
X50927000Y28438157D01*
X50673000Y28438157D01*
X50440974Y28559298D01*
X50425209Y28556649D01*
X49897964Y28302672D01*
X49530000Y27890832D01*
X49162036Y28302672D01*
X48634791Y28556649D01*
X48619026Y28559298D01*
X48387000Y28438157D01*
X48133000Y28438157D01*
X47900974Y28559298D01*
X47885209Y28556649D01*
X47357964Y28302672D01*
X46990000Y27890832D01*
X46622036Y28302672D01*
X46094791Y28556649D01*
X46079026Y28559298D01*
X45847000Y28438157D01*
X45593000Y28438157D01*
X45360974Y28559298D01*
X45345209Y28556649D01*
X44817964Y28302672D01*
X44450000Y27890832D01*
X44082036Y28302672D01*
X43554791Y28556649D01*
X43539026Y28559298D01*
X43307000Y28438157D01*
X43053000Y28438157D01*
X42820974Y28559298D01*
X42805209Y28556649D01*
X42277964Y28302672D01*
X41910000Y27890832D01*
X41542036Y28302672D01*
X41014791Y28556649D01*
X40999026Y28559298D01*
X40767000Y28438157D01*
X40513000Y28438157D01*
X40280974Y28559298D01*
X40265209Y28556649D01*
X39737964Y28302672D01*
X39370000Y27890832D01*
X39002036Y28302672D01*
X38474791Y28556649D01*
X38459026Y28559298D01*
X38227000Y28438157D01*
X37973000Y28438157D01*
X37740974Y28559298D01*
X37725209Y28556649D01*
X37197964Y28302672D01*
X36830000Y27890832D01*
X36462036Y28302672D01*
X35934791Y28556649D01*
X35919026Y28559298D01*
X35687000Y28438157D01*
X35433000Y28438157D01*
X35200974Y28559298D01*
X35185209Y28556649D01*
X34657964Y28302672D01*
X34290000Y27890832D01*
X33922036Y28302672D01*
X33394791Y28556649D01*
X33379026Y28559298D01*
X33147000Y28438157D01*
X32893000Y28438157D01*
X32660974Y28559298D01*
X32645209Y28556649D01*
X32117964Y28302672D01*
X31750000Y27890832D01*
X31382036Y28302672D01*
X30854791Y28556649D01*
X30839026Y28559298D01*
X30607000Y28438157D01*
X30353000Y28438157D01*
X30120974Y28559298D01*
X30105209Y28556649D01*
X29577964Y28302672D01*
X29423759Y28130079D01*
X29341927Y28327638D01*
X29163299Y28506267D01*
X28929910Y28602940D01*
X28225750Y28602940D01*
X28067000Y28444190D01*
X27813000Y28444190D01*
X27654250Y28602940D01*
X26950090Y28602940D01*
X26716701Y28506267D01*
X26538073Y28327638D01*
X26441400Y28094249D01*
X26022553Y28094249D01*
X25957450Y28195421D01*
X25880760Y28247821D01*
X25880760Y28371395D01*
X25939791Y28457790D01*
X25990800Y28709680D01*
X25990800Y29609680D01*
X25970483Y29717654D01*
X26061423Y29853755D01*
X26121360Y30155080D01*
X26121360Y30511736D01*
X26225391Y30663990D01*
X26276400Y30915880D01*
X26276400Y31365880D01*
X26232122Y31601197D01*
X26121360Y31773326D01*
X26121360Y32310389D01*
X26162801Y32371040D01*
X26213810Y32622930D01*
X26213810Y33423030D01*
X26169532Y33658347D01*
X26030460Y33874471D01*
X25890711Y33969957D01*
X25926069Y33984603D01*
X26104697Y34163232D01*
X26201370Y34396621D01*
X26201370Y34637230D01*
X26042620Y34795980D01*
X25293320Y34795980D01*
X25293320Y34775980D01*
X25251269Y34775980D01*
X25251269Y35069980D01*
X25293320Y35069980D01*
X25293320Y35049980D01*
X26042620Y35049980D01*
X26201370Y35208730D01*
X26201370Y35449339D01*
X26104697Y35682728D01*
X25926069Y35861357D01*
X25692680Y35958030D01*
X25509457Y35958030D01*
X25559000Y36202680D01*
X25559000Y37102680D01*
X25514722Y37337997D01*
X25439541Y37454831D01*
X25389023Y37708805D01*
X25363077Y37747637D01*
X26288714Y37747637D01*
X26539534Y37140605D01*
X26875132Y36804421D01*
X26541166Y36471037D01*
X26289287Y35864445D01*
X26288714Y35207637D01*
X26539534Y34600605D01*
X26875132Y34264421D01*
X26541166Y33931037D01*
X26289287Y33324445D01*
X26288714Y32667637D01*
X26539534Y32060605D01*
X26875132Y31724421D01*
X26541166Y31391037D01*
X26289287Y30784445D01*
X26288714Y30127637D01*
X26539534Y29520605D01*
X27003563Y29055766D01*
X27610155Y28803887D01*
X28266963Y28803314D01*
X28873995Y29054134D01*
X29210179Y29389732D01*
X29543563Y29055766D01*
X30150155Y28803887D01*
X30806963Y28803314D01*
X31413995Y29054134D01*
X31750179Y29389732D01*
X32083563Y29055766D01*
X32690155Y28803887D01*
X33346963Y28803314D01*
X33953995Y29054134D01*
X34290179Y29389732D01*
X34623563Y29055766D01*
X35230155Y28803887D01*
X35886963Y28803314D01*
X36493995Y29054134D01*
X36830179Y29389732D01*
X37163563Y29055766D01*
X37770155Y28803887D01*
X38426963Y28803314D01*
X39033995Y29054134D01*
X39370179Y29389732D01*
X39703563Y29055766D01*
X40310155Y28803887D01*
X40966963Y28803314D01*
X41573995Y29054134D01*
X41910179Y29389732D01*
X42243563Y29055766D01*
X42850155Y28803887D01*
X43506963Y28803314D01*
X44113995Y29054134D01*
X44450179Y29389732D01*
X44783563Y29055766D01*
X45390155Y28803887D01*
X46046963Y28803314D01*
X46653995Y29054134D01*
X46990179Y29389732D01*
X47323563Y29055766D01*
X47930155Y28803887D01*
X48586963Y28803314D01*
X49193995Y29054134D01*
X49530179Y29389732D01*
X49863563Y29055766D01*
X50470155Y28803887D01*
X51126963Y28803314D01*
X51733995Y29054134D01*
X52070179Y29389732D01*
X52403563Y29055766D01*
X53010155Y28803887D01*
X53666963Y28803314D01*
X54273995Y29054134D01*
X54610179Y29389732D01*
X54943563Y29055766D01*
X55550155Y28803887D01*
X56206963Y28803314D01*
X56813995Y29054134D01*
X57150179Y29389732D01*
X57483563Y29055766D01*
X58090155Y28803887D01*
X58746963Y28803314D01*
X59353995Y29054134D01*
X59690179Y29389732D01*
X60023563Y29055766D01*
X60630155Y28803887D01*
X61286963Y28803314D01*
X61893995Y29054134D01*
X62358834Y29518163D01*
X62610713Y30124755D01*
X62611286Y30781563D01*
X62360466Y31388595D01*
X62024868Y31724779D01*
X62358834Y32058163D01*
X62610713Y32664755D01*
X62611286Y33321563D01*
X62360466Y33928595D01*
X62024868Y34264779D01*
X62358834Y34598163D01*
X62610713Y35204755D01*
X62611286Y35861563D01*
X62360466Y36468595D01*
X62024868Y36804779D01*
X62358834Y37138163D01*
X62610713Y37744755D01*
X62611286Y38401563D01*
X62360466Y39008595D01*
X61896437Y39473434D01*
X61289845Y39725313D01*
X60633037Y39725886D01*
X60026005Y39475066D01*
X59689821Y39139468D01*
X59356437Y39473434D01*
X58749845Y39725313D01*
X58093037Y39725886D01*
X57486005Y39475066D01*
X57149821Y39139468D01*
X56816437Y39473434D01*
X56209845Y39725313D01*
X55553037Y39725886D01*
X54946005Y39475066D01*
X54609821Y39139468D01*
X54276437Y39473434D01*
X53669845Y39725313D01*
X53013037Y39725886D01*
X52406005Y39475066D01*
X52069821Y39139468D01*
X51736437Y39473434D01*
X51129845Y39725313D01*
X50473037Y39725886D01*
X49866005Y39475066D01*
X49529821Y39139468D01*
X49196437Y39473434D01*
X48589845Y39725313D01*
X47933037Y39725886D01*
X47326005Y39475066D01*
X46989821Y39139468D01*
X46656437Y39473434D01*
X46049845Y39725313D01*
X45393037Y39725886D01*
X44786005Y39475066D01*
X44449821Y39139468D01*
X44116437Y39473434D01*
X43509845Y39725313D01*
X42853037Y39725886D01*
X42246005Y39475066D01*
X41909821Y39139468D01*
X41576437Y39473434D01*
X40969845Y39725313D01*
X40313037Y39725886D01*
X39706005Y39475066D01*
X39369821Y39139468D01*
X39036437Y39473434D01*
X38429845Y39725313D01*
X37773037Y39725886D01*
X37166005Y39475066D01*
X36829821Y39139468D01*
X36496437Y39473434D01*
X35889845Y39725313D01*
X35233037Y39725886D01*
X34626005Y39475066D01*
X34289821Y39139468D01*
X33956437Y39473434D01*
X33349845Y39725313D01*
X32693037Y39725886D01*
X32086005Y39475066D01*
X31749821Y39139468D01*
X31416437Y39473434D01*
X30809845Y39725313D01*
X30153037Y39725886D01*
X29546005Y39475066D01*
X29209821Y39139468D01*
X28876437Y39473434D01*
X28269845Y39725313D01*
X27613037Y39725886D01*
X27006005Y39475066D01*
X26541166Y39011037D01*
X26289287Y38404445D01*
X26288714Y37747637D01*
X25363077Y37747637D01*
X25330035Y37797086D01*
X25400357Y37810318D01*
X25616481Y37949390D01*
X25761471Y38161590D01*
X25812480Y38413480D01*
X25812480Y38863480D01*
X25768202Y39098797D01*
X25644160Y39291564D01*
X25597503Y39526125D01*
X25545532Y39603905D01*
X25760427Y39603718D01*
X26104203Y39745763D01*
X26367452Y40008553D01*
X26495455Y40316817D01*
X26612310Y40135219D01*
X26824510Y39990229D01*
X27076400Y39939220D01*
X28803600Y39939220D01*
X29038917Y39983498D01*
X29255041Y40122570D01*
X29400031Y40334770D01*
X29408400Y40376099D01*
X29420330Y40358245D01*
X29906511Y40033389D01*
X30480000Y39919315D01*
X31053489Y40033389D01*
X31539670Y40358245D01*
X31750000Y40673026D01*
X31960330Y40358245D01*
X32446511Y40033389D01*
X33020000Y39919315D01*
X33593489Y40033389D01*
X34079670Y40358245D01*
X34290000Y40673026D01*
X34500330Y40358245D01*
X34986511Y40033389D01*
X35560000Y39919315D01*
X36133489Y40033389D01*
X36619670Y40358245D01*
X36830000Y40673026D01*
X37040330Y40358245D01*
X37526511Y40033389D01*
X38100000Y39919315D01*
X38673489Y40033389D01*
X39159670Y40358245D01*
X39370000Y40673026D01*
X39580330Y40358245D01*
X40066511Y40033389D01*
X40640000Y39919315D01*
X41213489Y40033389D01*
X41699670Y40358245D01*
X41910000Y40673026D01*
X42120330Y40358245D01*
X42606511Y40033389D01*
X43180000Y39919315D01*
X43753489Y40033389D01*
X44239670Y40358245D01*
X44450000Y40673026D01*
X44660330Y40358245D01*
X45146511Y40033389D01*
X45720000Y39919315D01*
X46293489Y40033389D01*
X46779670Y40358245D01*
X46990000Y40673026D01*
X47200330Y40358245D01*
X47686511Y40033389D01*
X48260000Y39919315D01*
X48833489Y40033389D01*
X49319670Y40358245D01*
X49530000Y40673026D01*
X49740330Y40358245D01*
X50226511Y40033389D01*
X50800000Y39919315D01*
X51373489Y40033389D01*
X51859670Y40358245D01*
X52070000Y40673026D01*
X52280330Y40358245D01*
X52766511Y40033389D01*
X53340000Y39919315D01*
X53913489Y40033389D01*
X54399670Y40358245D01*
X54610000Y40673026D01*
X54820330Y40358245D01*
X55306511Y40033389D01*
X55880000Y39919315D01*
X56453489Y40033389D01*
X56939670Y40358245D01*
X57150000Y40673026D01*
X57360330Y40358245D01*
X57846511Y40033389D01*
X58420000Y39919315D01*
X58993489Y40033389D01*
X59479670Y40358245D01*
X59690000Y40673026D01*
X59900330Y40358245D01*
X60386511Y40033389D01*
X60960000Y39919315D01*
X61533489Y40033389D01*
X62019670Y40358245D01*
X62344526Y40844426D01*
X62458600Y41417915D01*
X62458600Y41787405D01*
X62344526Y42360894D01*
X62019670Y42847075D01*
X61533489Y43171931D01*
X60960000Y43286005D01*
X60386511Y43171931D01*
X59900330Y42847075D01*
X59690000Y42532294D01*
X59479670Y42847075D01*
X58993489Y43171931D01*
X58420000Y43286005D01*
X57846511Y43171931D01*
X57360330Y42847075D01*
X57150000Y42532294D01*
X56939670Y42847075D01*
X56453489Y43171931D01*
X55880000Y43286005D01*
X55306511Y43171931D01*
X54820330Y42847075D01*
X54610000Y42532294D01*
X54399670Y42847075D01*
X53913489Y43171931D01*
X53340000Y43286005D01*
X52766511Y43171931D01*
X52280330Y42847075D01*
X52070000Y42532294D01*
X51859670Y42847075D01*
X51373489Y43171931D01*
X50800000Y43286005D01*
X50226511Y43171931D01*
X49740330Y42847075D01*
X49530000Y42532294D01*
X49319670Y42847075D01*
X48833489Y43171931D01*
X48260000Y43286005D01*
X47686511Y43171931D01*
X47200330Y42847075D01*
X46990000Y42532294D01*
X46779670Y42847075D01*
X46293489Y43171931D01*
X45720000Y43286005D01*
X45146511Y43171931D01*
X44660330Y42847075D01*
X44450000Y42532294D01*
X44239670Y42847075D01*
X43753489Y43171931D01*
X43180000Y43286005D01*
X42606511Y43171931D01*
X42120330Y42847075D01*
X41910000Y42532294D01*
X41699670Y42847075D01*
X41213489Y43171931D01*
X40640000Y43286005D01*
X40066511Y43171931D01*
X39580330Y42847075D01*
X39370000Y42532294D01*
X39159670Y42847075D01*
X38673489Y43171931D01*
X38100000Y43286005D01*
X37526511Y43171931D01*
X37040330Y42847075D01*
X36830000Y42532294D01*
X36619670Y42847075D01*
X36133489Y43171931D01*
X35560000Y43286005D01*
X34986511Y43171931D01*
X34500330Y42847075D01*
X34290000Y42532294D01*
X34079670Y42847075D01*
X33593489Y43171931D01*
X33020000Y43286005D01*
X32446511Y43171931D01*
X31960330Y42847075D01*
X31750000Y42532294D01*
X31539670Y42847075D01*
X31053489Y43171931D01*
X30480000Y43286005D01*
X29906511Y43171931D01*
X29420330Y42847075D01*
X29410757Y42832747D01*
X29406762Y42853977D01*
X29267690Y43070101D01*
X29055490Y43215091D01*
X28803600Y43266100D01*
X27076400Y43266100D01*
X26841083Y43221822D01*
X26624959Y43082750D01*
X26479969Y42870550D01*
X26428960Y42618660D01*
X26428960Y40921201D01*
X26368377Y41067823D01*
X26105587Y41331072D01*
X25762059Y41473718D01*
X25390093Y41474042D01*
X25246595Y41414750D01*
X25233410Y41435241D01*
X25021210Y41580231D01*
X24898942Y41604991D01*
X24992681Y41665310D01*
X25137671Y41877510D01*
X25188680Y42129400D01*
X25188680Y42829400D01*
X25144402Y43064717D01*
X25005330Y43280841D01*
X24793130Y43425831D01*
X24780043Y43428481D01*
X24992681Y43565310D01*
X25137671Y43777510D01*
X25188680Y44029400D01*
X25188680Y44208199D01*
X25388461Y44125242D01*
X25760427Y44124918D01*
X26104203Y44266963D01*
X26109930Y44272680D01*
X60858880Y44272680D01*
X61160205Y44332617D01*
X61415656Y44503304D01*
X63024742Y46112390D01*
X63500000Y46017855D01*
X64073489Y46131929D01*
X64559670Y46456785D01*
X64884526Y46942966D01*
X64998600Y47516455D01*
X64998600Y47885945D01*
X64884526Y48459434D01*
X64559670Y48945615D01*
X64103228Y49250600D01*
X64559670Y49555585D01*
X64884526Y50041766D01*
X64998600Y50615255D01*
X64998600Y50984745D01*
X64884526Y51558234D01*
X64559670Y52044415D01*
X64073489Y52369271D01*
X63500000Y52483345D01*
X62926511Y52369271D01*
X62440330Y52044415D01*
X62230000Y51729634D01*
X62019670Y52044415D01*
X61533489Y52369271D01*
X60960000Y52483345D01*
X60386511Y52369271D01*
X59900330Y52044415D01*
X59690000Y51729634D01*
X59479670Y52044415D01*
X58993489Y52369271D01*
X58420000Y52483345D01*
X57846511Y52369271D01*
X57360330Y52044415D01*
X57150000Y51729634D01*
X56939670Y52044415D01*
X56453489Y52369271D01*
X55880000Y52483345D01*
X55306511Y52369271D01*
X54820330Y52044415D01*
X54610000Y51729634D01*
X54399670Y52044415D01*
X53913489Y52369271D01*
X53340000Y52483345D01*
X52766511Y52369271D01*
X52280330Y52044415D01*
X52070000Y51729634D01*
X51859670Y52044415D01*
X51373489Y52369271D01*
X50800000Y52483345D01*
X50226511Y52369271D01*
X49740330Y52044415D01*
X49530000Y51729634D01*
X49319670Y52044415D01*
X48833489Y52369271D01*
X48260000Y52483345D01*
X47686511Y52369271D01*
X47200330Y52044415D01*
X46990000Y51729634D01*
X46779670Y52044415D01*
X46293489Y52369271D01*
X45720000Y52483345D01*
X45146511Y52369271D01*
X44660330Y52044415D01*
X44335474Y51558234D01*
X44221400Y50984745D01*
X44221400Y50615255D01*
X44335474Y50041766D01*
X44660330Y49555585D01*
X45116772Y49250600D01*
X44660330Y48945615D01*
X44335474Y48459434D01*
X44221400Y47885945D01*
X44221400Y47516455D01*
X44310866Y47066680D01*
X43062608Y47066680D01*
X43154600Y47529155D01*
X43154600Y47898645D01*
X43040526Y48472134D01*
X42715670Y48958315D01*
X42278235Y49250600D01*
X42715670Y49542885D01*
X43040526Y50029066D01*
X43154600Y50602555D01*
X43154600Y50972045D01*
X43040526Y51545534D01*
X42715670Y52031715D01*
X42229489Y52356571D01*
X41656000Y52470645D01*
X41082511Y52356571D01*
X40596330Y52031715D01*
X40386000Y51716934D01*
X40175670Y52031715D01*
X39689489Y52356571D01*
X39116000Y52470645D01*
X38542511Y52356571D01*
X38056330Y52031715D01*
X37846000Y51716934D01*
X37635670Y52031715D01*
X37149489Y52356571D01*
X36576000Y52470645D01*
X36002511Y52356571D01*
X35516330Y52031715D01*
X35306000Y51716934D01*
X35095670Y52031715D01*
X34609489Y52356571D01*
X34036000Y52470645D01*
X33462511Y52356571D01*
X32976330Y52031715D01*
X32766000Y51716934D01*
X32555670Y52031715D01*
X32069489Y52356571D01*
X31496000Y52470645D01*
X30922511Y52356571D01*
X30436330Y52031715D01*
X30226000Y51716934D01*
X30015670Y52031715D01*
X29529489Y52356571D01*
X28956000Y52470645D01*
X28382511Y52356571D01*
X27896330Y52031715D01*
X27689539Y51722231D01*
X27318036Y52138032D01*
X26790791Y52392009D01*
X26775026Y52394658D01*
X26543000Y52273517D01*
X26543000Y50914300D01*
X26563000Y50914300D01*
X26563000Y50660300D01*
X26543000Y50660300D01*
X26543000Y49301083D01*
X26639692Y49250600D01*
X26543000Y49200117D01*
X26543000Y47840900D01*
X26563000Y47840900D01*
X26563000Y47586900D01*
X26543000Y47586900D01*
X26543000Y47566900D01*
X26289000Y47566900D01*
X26289000Y47586900D01*
X26269000Y47586900D01*
X26269000Y47840900D01*
X26289000Y47840900D01*
X26289000Y49200117D01*
X26192308Y49250600D01*
X26289000Y49301083D01*
X26289000Y50660300D01*
X26269000Y50660300D01*
X26269000Y50914300D01*
X26289000Y50914300D01*
X26289000Y52273517D01*
X26056974Y52394658D01*
X26041209Y52392009D01*
X25513964Y52138032D01*
X25142461Y51722231D01*
X24935670Y52031715D01*
X24449489Y52356571D01*
X23876000Y52470645D01*
X23302511Y52356571D01*
X22816330Y52031715D01*
X22606000Y51716934D01*
X22395670Y52031715D01*
X21909489Y52356571D01*
X21336000Y52470645D01*
X20762511Y52356571D01*
X20276330Y52031715D01*
X20066000Y51716934D01*
X19855670Y52031715D01*
X19369489Y52356571D01*
X18796000Y52470645D01*
X18222511Y52356571D01*
X17736330Y52031715D01*
X17411474Y51545534D01*
X17364848Y51311127D01*
X17071378Y52021377D01*
X16464572Y52629244D01*
X16462751Y52630000D01*
X64221908Y52630000D01*
X65330000Y51521909D01*
X65330000Y51521909D01*
G37*
X65330000Y51521909D02*
X65330000Y40386000D01*
X65384046Y40114295D01*
X65537954Y39883954D01*
X67870000Y37551909D01*
X67870000Y36782757D01*
X67264572Y37389244D01*
X66471336Y37718624D01*
X65612433Y37719374D01*
X64818623Y37391378D01*
X64210756Y36784572D01*
X63881376Y35991336D01*
X63880626Y35132433D01*
X64208622Y34338623D01*
X64815428Y33730756D01*
X65608664Y33401376D01*
X66467567Y33400626D01*
X67261377Y33728622D01*
X67869244Y34335428D01*
X67870000Y34337249D01*
X67870000Y8842757D01*
X67264572Y9449244D01*
X66471336Y9778624D01*
X65612433Y9779374D01*
X64818623Y9451378D01*
X64210756Y8844572D01*
X63881376Y8051336D01*
X63880673Y7246424D01*
X63500000Y7322145D01*
X62926511Y7208071D01*
X62440330Y6883215D01*
X62230000Y6568434D01*
X62019670Y6883215D01*
X61533489Y7208071D01*
X60960000Y7322145D01*
X60386511Y7208071D01*
X59900330Y6883215D01*
X59690000Y6568434D01*
X59479670Y6883215D01*
X58993489Y7208071D01*
X58420000Y7322145D01*
X57846511Y7208071D01*
X57360330Y6883215D01*
X57150000Y6568434D01*
X56939670Y6883215D01*
X56453489Y7208071D01*
X55880000Y7322145D01*
X55306511Y7208071D01*
X54820330Y6883215D01*
X54610000Y6568434D01*
X54399670Y6883215D01*
X53913489Y7208071D01*
X53340000Y7322145D01*
X52766511Y7208071D01*
X52280330Y6883215D01*
X52070000Y6568434D01*
X51859670Y6883215D01*
X51373489Y7208071D01*
X50800000Y7322145D01*
X50226511Y7208071D01*
X49740330Y6883215D01*
X49415474Y6397034D01*
X49301400Y5823545D01*
X49301400Y5454055D01*
X49415474Y4880566D01*
X49740330Y4394385D01*
X50196772Y4089400D01*
X49740330Y3784415D01*
X49415474Y3298234D01*
X49301400Y2724745D01*
X49301400Y2355255D01*
X49415474Y1781766D01*
X49740330Y1295585D01*
X50226511Y970729D01*
X50800000Y856655D01*
X51373489Y970729D01*
X51859670Y1295585D01*
X52070000Y1610366D01*
X52280330Y1295585D01*
X52766511Y970729D01*
X53340000Y856655D01*
X53913489Y970729D01*
X54399670Y1295585D01*
X54610000Y1610366D01*
X54820330Y1295585D01*
X55306511Y970729D01*
X55880000Y856655D01*
X56453489Y970729D01*
X56939670Y1295585D01*
X57150000Y1610366D01*
X57360330Y1295585D01*
X57846511Y970729D01*
X58420000Y856655D01*
X58993489Y970729D01*
X59479670Y1295585D01*
X59690000Y1610366D01*
X59900330Y1295585D01*
X60386511Y970729D01*
X60960000Y856655D01*
X61533489Y970729D01*
X62019670Y1295585D01*
X62230000Y1610366D01*
X62440330Y1295585D01*
X62926511Y970729D01*
X63500000Y856655D01*
X64073489Y970729D01*
X64559670Y1295585D01*
X64884526Y1781766D01*
X64998600Y2355255D01*
X64998600Y2724745D01*
X64884526Y3298234D01*
X64559670Y3784415D01*
X64103228Y4089400D01*
X64559670Y4394385D01*
X64884526Y4880566D01*
X64998600Y5454055D01*
X64998600Y5714696D01*
X65608664Y5461376D01*
X66467567Y5460626D01*
X67261377Y5788622D01*
X67869244Y6395428D01*
X67870000Y6397249D01*
X67870000Y5374091D01*
X65537954Y3042046D01*
X65384046Y2811705D01*
X65330000Y2540000D01*
X65330000Y710000D01*
X45299636Y710000D01*
X45491702Y902066D01*
X45720000Y856655D01*
X46293489Y970729D01*
X46779670Y1295585D01*
X47104526Y1781766D01*
X47218600Y2355255D01*
X47218600Y2724745D01*
X47104526Y3298234D01*
X46779670Y3784415D01*
X46323228Y4089400D01*
X46779670Y4394385D01*
X47104526Y4880566D01*
X47218600Y5454055D01*
X47218600Y5823545D01*
X47104526Y6397034D01*
X46779670Y6883215D01*
X46293489Y7208071D01*
X45720000Y7322145D01*
X45146511Y7208071D01*
X44660330Y6883215D01*
X44453539Y6573731D01*
X44082036Y6989532D01*
X43554791Y7243509D01*
X43539026Y7246158D01*
X43307000Y7125017D01*
X43307000Y5765800D01*
X43327000Y5765800D01*
X43327000Y5511800D01*
X43307000Y5511800D01*
X43307000Y4152583D01*
X43428017Y4089400D01*
X43307000Y4026217D01*
X43307000Y2667000D01*
X43327000Y2667000D01*
X43327000Y2413000D01*
X43307000Y2413000D01*
X43307000Y2393000D01*
X43053000Y2393000D01*
X43053000Y2413000D01*
X40767000Y2413000D01*
X40767000Y2393000D01*
X40513000Y2393000D01*
X40513000Y2413000D01*
X40493000Y2413000D01*
X40493000Y2667000D01*
X40513000Y2667000D01*
X40513000Y4026217D01*
X40391983Y4089400D01*
X40513000Y4152583D01*
X40513000Y5511800D01*
X40767000Y5511800D01*
X40767000Y4152583D01*
X40888017Y4089400D01*
X40767000Y4026217D01*
X40767000Y2667000D01*
X43053000Y2667000D01*
X43053000Y4026217D01*
X42931983Y4089400D01*
X43053000Y4152583D01*
X43053000Y5511800D01*
X40767000Y5511800D01*
X40513000Y5511800D01*
X40493000Y5511800D01*
X40493000Y5765800D01*
X40513000Y5765800D01*
X40513000Y7125017D01*
X40767000Y7125017D01*
X40767000Y5765800D01*
X43053000Y5765800D01*
X43053000Y7125017D01*
X42820974Y7246158D01*
X42805209Y7243509D01*
X42277964Y6989532D01*
X41910000Y6577692D01*
X41542036Y6989532D01*
X41014791Y7243509D01*
X40999026Y7246158D01*
X40767000Y7125017D01*
X40513000Y7125017D01*
X40280974Y7246158D01*
X40265209Y7243509D01*
X39737964Y6989532D01*
X39366461Y6573731D01*
X39159670Y6883215D01*
X38673489Y7208071D01*
X38100000Y7322145D01*
X37526511Y7208071D01*
X37040330Y6883215D01*
X36830000Y6568434D01*
X36619670Y6883215D01*
X36449000Y6997253D01*
X36449000Y8786980D01*
X37084745Y8786980D01*
X37238184Y8415628D01*
X37522054Y8131263D01*
X37893137Y7977176D01*
X38294940Y7976825D01*
X38588207Y8098000D01*
X62527180Y8098000D01*
X62818157Y7977176D01*
X63219960Y7976825D01*
X63591312Y8130264D01*
X63875677Y8414134D01*
X64029764Y8785217D01*
X64030115Y9187020D01*
X63876676Y9558372D01*
X63592806Y9842737D01*
X63221723Y9996824D01*
X62819920Y9997175D01*
X62526653Y9876000D01*
X38587680Y9876000D01*
X38296703Y9996824D01*
X37894900Y9997175D01*
X37523548Y9843736D01*
X37239183Y9559866D01*
X37085096Y9188783D01*
X37084745Y8786980D01*
X36449000Y8786980D01*
X36449000Y10940227D01*
X36619670Y11054265D01*
X36830000Y11369046D01*
X37040330Y11054265D01*
X37526511Y10729409D01*
X38100000Y10615335D01*
X38673489Y10729409D01*
X39159670Y11054265D01*
X39370000Y11369046D01*
X39580330Y11054265D01*
X40066511Y10729409D01*
X40640000Y10615335D01*
X41213489Y10729409D01*
X41699670Y11054265D01*
X41910000Y11369046D01*
X42120330Y11054265D01*
X42606511Y10729409D01*
X43180000Y10615335D01*
X43753489Y10729409D01*
X44239670Y11054265D01*
X44450000Y11369046D01*
X44660330Y11054265D01*
X45146511Y10729409D01*
X45720000Y10615335D01*
X46293489Y10729409D01*
X46779670Y11054265D01*
X46990000Y11369046D01*
X47200330Y11054265D01*
X47686511Y10729409D01*
X48260000Y10615335D01*
X48833489Y10729409D01*
X49319670Y11054265D01*
X49530000Y11369046D01*
X49740330Y11054265D01*
X50226511Y10729409D01*
X50800000Y10615335D01*
X51373489Y10729409D01*
X51859670Y11054265D01*
X52070000Y11369046D01*
X52280330Y11054265D01*
X52766511Y10729409D01*
X53340000Y10615335D01*
X53913489Y10729409D01*
X54399670Y11054265D01*
X54610000Y11369046D01*
X54820330Y11054265D01*
X55306511Y10729409D01*
X55880000Y10615335D01*
X56453489Y10729409D01*
X56939670Y11054265D01*
X57150000Y11369046D01*
X57360330Y11054265D01*
X57846511Y10729409D01*
X58420000Y10615335D01*
X58993489Y10729409D01*
X59479670Y11054265D01*
X59690000Y11369046D01*
X59900330Y11054265D01*
X60386511Y10729409D01*
X60960000Y10615335D01*
X61533489Y10729409D01*
X62019670Y11054265D01*
X62344526Y11540446D01*
X62458600Y12113935D01*
X62458600Y12483425D01*
X62344526Y13056914D01*
X62019670Y13543095D01*
X61533489Y13867951D01*
X60960000Y13982025D01*
X60386511Y13867951D01*
X59900330Y13543095D01*
X59690000Y13228314D01*
X59479670Y13543095D01*
X58993489Y13867951D01*
X58420000Y13982025D01*
X57846511Y13867951D01*
X57360330Y13543095D01*
X57150000Y13228314D01*
X56939670Y13543095D01*
X56453489Y13867951D01*
X55880000Y13982025D01*
X55306511Y13867951D01*
X54820330Y13543095D01*
X54610000Y13228314D01*
X54399670Y13543095D01*
X53913489Y13867951D01*
X53340000Y13982025D01*
X52766511Y13867951D01*
X52280330Y13543095D01*
X52070000Y13228314D01*
X51859670Y13543095D01*
X51373489Y13867951D01*
X50800000Y13982025D01*
X50226511Y13867951D01*
X49740330Y13543095D01*
X49530000Y13228314D01*
X49319670Y13543095D01*
X48833489Y13867951D01*
X48260000Y13982025D01*
X47686511Y13867951D01*
X47200330Y13543095D01*
X46990000Y13228314D01*
X46779670Y13543095D01*
X46293489Y13867951D01*
X45720000Y13982025D01*
X45146511Y13867951D01*
X44660330Y13543095D01*
X44450000Y13228314D01*
X44239670Y13543095D01*
X43753489Y13867951D01*
X43180000Y13982025D01*
X42606511Y13867951D01*
X42120330Y13543095D01*
X41910000Y13228314D01*
X41699670Y13543095D01*
X41213489Y13867951D01*
X40640000Y13982025D01*
X40066511Y13867951D01*
X39580330Y13543095D01*
X39370000Y13228314D01*
X39159670Y13543095D01*
X38673489Y13867951D01*
X38100000Y13982025D01*
X37526511Y13867951D01*
X37040330Y13543095D01*
X36830000Y13228314D01*
X36619670Y13543095D01*
X36133489Y13867951D01*
X35560000Y13982025D01*
X34986511Y13867951D01*
X34500330Y13543095D01*
X34290000Y13228314D01*
X34079670Y13543095D01*
X33593489Y13867951D01*
X33020000Y13982025D01*
X32446511Y13867951D01*
X31960330Y13543095D01*
X31750000Y13228314D01*
X31539670Y13543095D01*
X31053489Y13867951D01*
X30480000Y13982025D01*
X29906511Y13867951D01*
X29420330Y13543095D01*
X29410757Y13528767D01*
X29406762Y13549997D01*
X29267690Y13766121D01*
X29055490Y13911111D01*
X28803600Y13962120D01*
X27076400Y13962120D01*
X26841083Y13917842D01*
X26624959Y13778770D01*
X26479969Y13566570D01*
X26446281Y13400211D01*
X25178359Y14668133D01*
X25178359Y23094377D01*
X26288714Y23094377D01*
X26539534Y22487345D01*
X26875132Y22151161D01*
X26541166Y21817777D01*
X26289287Y21211185D01*
X26288714Y20554377D01*
X26539534Y19947345D01*
X26875132Y19611161D01*
X26541166Y19277777D01*
X26289287Y18671185D01*
X26288714Y18014377D01*
X26539534Y17407345D01*
X26875132Y17071161D01*
X26541166Y16737777D01*
X26289287Y16131185D01*
X26288714Y15474377D01*
X26539534Y14867345D01*
X27003563Y14402506D01*
X27610155Y14150627D01*
X28266963Y14150054D01*
X28873995Y14400874D01*
X29210179Y14736472D01*
X29543563Y14402506D01*
X30150155Y14150627D01*
X30806963Y14150054D01*
X31413995Y14400874D01*
X31750179Y14736472D01*
X32083563Y14402506D01*
X32690155Y14150627D01*
X33346963Y14150054D01*
X33953995Y14400874D01*
X34290179Y14736472D01*
X34623563Y14402506D01*
X35230155Y14150627D01*
X35886963Y14150054D01*
X36493995Y14400874D01*
X36830179Y14736472D01*
X37163563Y14402506D01*
X37770155Y14150627D01*
X38426963Y14150054D01*
X39033995Y14400874D01*
X39370179Y14736472D01*
X39703563Y14402506D01*
X40310155Y14150627D01*
X40966963Y14150054D01*
X41573995Y14400874D01*
X41910179Y14736472D01*
X42243563Y14402506D01*
X42850155Y14150627D01*
X43506963Y14150054D01*
X44113995Y14400874D01*
X44450179Y14736472D01*
X44783563Y14402506D01*
X45390155Y14150627D01*
X46046963Y14150054D01*
X46653995Y14400874D01*
X46990179Y14736472D01*
X47323563Y14402506D01*
X47930155Y14150627D01*
X48586963Y14150054D01*
X49193995Y14400874D01*
X49530179Y14736472D01*
X49863563Y14402506D01*
X50470155Y14150627D01*
X51126963Y14150054D01*
X51733995Y14400874D01*
X52070179Y14736472D01*
X52403563Y14402506D01*
X53010155Y14150627D01*
X53666963Y14150054D01*
X54273995Y14400874D01*
X54610179Y14736472D01*
X54943563Y14402506D01*
X55550155Y14150627D01*
X56206963Y14150054D01*
X56813995Y14400874D01*
X57150179Y14736472D01*
X57483563Y14402506D01*
X58090155Y14150627D01*
X58746963Y14150054D01*
X59353995Y14400874D01*
X59690179Y14736472D01*
X60023563Y14402506D01*
X60630155Y14150627D01*
X61286963Y14150054D01*
X61893995Y14400874D01*
X62358834Y14864903D01*
X62610713Y15471495D01*
X62611286Y16128303D01*
X62360466Y16735335D01*
X62024868Y17071519D01*
X62358834Y17404903D01*
X62610713Y18011495D01*
X62611286Y18668303D01*
X62360466Y19275335D01*
X62024868Y19611519D01*
X62358834Y19944903D01*
X62610713Y20551495D01*
X62611286Y21208303D01*
X62360466Y21815335D01*
X62024868Y22151519D01*
X62358834Y22484903D01*
X62610713Y23091495D01*
X62611286Y23748303D01*
X62360466Y24355335D01*
X61896437Y24820174D01*
X61289845Y25072053D01*
X60633037Y25072626D01*
X60026005Y24821806D01*
X59689821Y24486208D01*
X59356437Y24820174D01*
X58749845Y25072053D01*
X58093037Y25072626D01*
X57486005Y24821806D01*
X57149821Y24486208D01*
X56816437Y24820174D01*
X56209845Y25072053D01*
X55553037Y25072626D01*
X54946005Y24821806D01*
X54609821Y24486208D01*
X54276437Y24820174D01*
X53669845Y25072053D01*
X53013037Y25072626D01*
X52406005Y24821806D01*
X52069821Y24486208D01*
X51736437Y24820174D01*
X51129845Y25072053D01*
X50473037Y25072626D01*
X49866005Y24821806D01*
X49529821Y24486208D01*
X49196437Y24820174D01*
X48589845Y25072053D01*
X47933037Y25072626D01*
X47326005Y24821806D01*
X46989821Y24486208D01*
X46656437Y24820174D01*
X46049845Y25072053D01*
X45393037Y25072626D01*
X44786005Y24821806D01*
X44449821Y24486208D01*
X44116437Y24820174D01*
X43509845Y25072053D01*
X42853037Y25072626D01*
X42246005Y24821806D01*
X41909821Y24486208D01*
X41576437Y24820174D01*
X40969845Y25072053D01*
X40313037Y25072626D01*
X39706005Y24821806D01*
X39369821Y24486208D01*
X39036437Y24820174D01*
X38429845Y25072053D01*
X37773037Y25072626D01*
X37166005Y24821806D01*
X36829821Y24486208D01*
X36496437Y24820174D01*
X35889845Y25072053D01*
X35233037Y25072626D01*
X34626005Y24821806D01*
X34289821Y24486208D01*
X33956437Y24820174D01*
X33349845Y25072053D01*
X32693037Y25072626D01*
X32086005Y24821806D01*
X31749821Y24486208D01*
X31416437Y24820174D01*
X30809845Y25072053D01*
X30153037Y25072626D01*
X29546005Y24821806D01*
X29209821Y24486208D01*
X28876437Y24820174D01*
X28269845Y25072053D01*
X27613037Y25072626D01*
X27006005Y24821806D01*
X26541166Y24357777D01*
X26289287Y23751185D01*
X26288714Y23094377D01*
X25178359Y23094377D01*
X25178359Y26346540D01*
X25493360Y26346540D01*
X25728677Y26390818D01*
X25944801Y26529890D01*
X26037930Y26666190D01*
X26441400Y26666190D01*
X26441400Y25809631D01*
X26538073Y25576242D01*
X26716701Y25397613D01*
X26950090Y25300940D01*
X27654250Y25300940D01*
X27813000Y25459690D01*
X27813000Y26824940D01*
X28067000Y26824940D01*
X28067000Y25459690D01*
X28225750Y25300940D01*
X28929910Y25300940D01*
X29163299Y25397613D01*
X29341927Y25576242D01*
X29423759Y25773801D01*
X29577964Y25601208D01*
X30105209Y25347231D01*
X30120974Y25344582D01*
X30353000Y25465723D01*
X30353000Y26824940D01*
X30607000Y26824940D01*
X30607000Y25465723D01*
X30839026Y25344582D01*
X30854791Y25347231D01*
X31382036Y25601208D01*
X31750000Y26013048D01*
X32117964Y25601208D01*
X32645209Y25347231D01*
X32660974Y25344582D01*
X32893000Y25465723D01*
X32893000Y26824940D01*
X33147000Y26824940D01*
X33147000Y25465723D01*
X33379026Y25344582D01*
X33394791Y25347231D01*
X33922036Y25601208D01*
X34290000Y26013048D01*
X34657964Y25601208D01*
X35185209Y25347231D01*
X35200974Y25344582D01*
X35433000Y25465723D01*
X35433000Y26824940D01*
X35687000Y26824940D01*
X35687000Y25465723D01*
X35919026Y25344582D01*
X35934791Y25347231D01*
X36462036Y25601208D01*
X36830000Y26013048D01*
X37197964Y25601208D01*
X37725209Y25347231D01*
X37740974Y25344582D01*
X37973000Y25465723D01*
X37973000Y26824940D01*
X38227000Y26824940D01*
X38227000Y25465723D01*
X38459026Y25344582D01*
X38474791Y25347231D01*
X39002036Y25601208D01*
X39370000Y26013048D01*
X39737964Y25601208D01*
X40265209Y25347231D01*
X40280974Y25344582D01*
X40513000Y25465723D01*
X40513000Y26824940D01*
X40767000Y26824940D01*
X40767000Y25465723D01*
X40999026Y25344582D01*
X41014791Y25347231D01*
X41542036Y25601208D01*
X41910000Y26013048D01*
X42277964Y25601208D01*
X42805209Y25347231D01*
X42820974Y25344582D01*
X43053000Y25465723D01*
X43053000Y26824940D01*
X43307000Y26824940D01*
X43307000Y25465723D01*
X43539026Y25344582D01*
X43554791Y25347231D01*
X44082036Y25601208D01*
X44450000Y26013048D01*
X44817964Y25601208D01*
X45345209Y25347231D01*
X45360974Y25344582D01*
X45593000Y25465723D01*
X45593000Y26824940D01*
X45847000Y26824940D01*
X45847000Y25465723D01*
X46079026Y25344582D01*
X46094791Y25347231D01*
X46622036Y25601208D01*
X46990000Y26013048D01*
X47357964Y25601208D01*
X47885209Y25347231D01*
X47900974Y25344582D01*
X48133000Y25465723D01*
X48133000Y26824940D01*
X48387000Y26824940D01*
X48387000Y25465723D01*
X48619026Y25344582D01*
X48634791Y25347231D01*
X49162036Y25601208D01*
X49530000Y26013048D01*
X49897964Y25601208D01*
X50425209Y25347231D01*
X50440974Y25344582D01*
X50673000Y25465723D01*
X50673000Y26824940D01*
X50927000Y26824940D01*
X50927000Y25465723D01*
X51159026Y25344582D01*
X51174791Y25347231D01*
X51702036Y25601208D01*
X52070000Y26013048D01*
X52437964Y25601208D01*
X52965209Y25347231D01*
X52980974Y25344582D01*
X53213000Y25465723D01*
X53213000Y26824940D01*
X53467000Y26824940D01*
X53467000Y25465723D01*
X53699026Y25344582D01*
X53714791Y25347231D01*
X54242036Y25601208D01*
X54610000Y26013048D01*
X54977964Y25601208D01*
X55505209Y25347231D01*
X55520974Y25344582D01*
X55753000Y25465723D01*
X55753000Y26824940D01*
X56007000Y26824940D01*
X56007000Y25465723D01*
X56239026Y25344582D01*
X56254791Y25347231D01*
X56782036Y25601208D01*
X57150000Y26013048D01*
X57517964Y25601208D01*
X58045209Y25347231D01*
X58060974Y25344582D01*
X58293000Y25465723D01*
X58293000Y26824940D01*
X58547000Y26824940D01*
X58547000Y25465723D01*
X58779026Y25344582D01*
X58794791Y25347231D01*
X59322036Y25601208D01*
X59690000Y26013048D01*
X60057964Y25601208D01*
X60585209Y25347231D01*
X60600974Y25344582D01*
X60833000Y25465723D01*
X60833000Y26824940D01*
X61087000Y26824940D01*
X61087000Y25465723D01*
X61319026Y25344582D01*
X61334791Y25347231D01*
X61862036Y25601208D01*
X62251954Y26037620D01*
X62445184Y26590027D01*
X62300924Y26824940D01*
X61087000Y26824940D01*
X60833000Y26824940D01*
X58547000Y26824940D01*
X58293000Y26824940D01*
X56007000Y26824940D01*
X55753000Y26824940D01*
X53467000Y26824940D01*
X53213000Y26824940D01*
X50927000Y26824940D01*
X50673000Y26824940D01*
X48387000Y26824940D01*
X48133000Y26824940D01*
X45847000Y26824940D01*
X45593000Y26824940D01*
X43307000Y26824940D01*
X43053000Y26824940D01*
X40767000Y26824940D01*
X40513000Y26824940D01*
X38227000Y26824940D01*
X37973000Y26824940D01*
X35687000Y26824940D01*
X35433000Y26824940D01*
X33147000Y26824940D01*
X32893000Y26824940D01*
X30607000Y26824940D01*
X30353000Y26824940D01*
X28067000Y26824940D01*
X27813000Y26824940D01*
X26600150Y26824940D01*
X26441400Y26666190D01*
X26037930Y26666190D01*
X26089791Y26742090D01*
X26140800Y26993980D01*
X26140800Y27743980D01*
X26096522Y27979297D01*
X26022553Y28094249D01*
X26441400Y28094249D01*
X26441400Y27237690D01*
X26600150Y27078940D01*
X27813000Y27078940D01*
X27813000Y28444190D01*
X28067000Y28444190D01*
X28067000Y27078940D01*
X30353000Y27078940D01*
X30353000Y28438157D01*
X30607000Y28438157D01*
X30607000Y27078940D01*
X32893000Y27078940D01*
X32893000Y28438157D01*
X33147000Y28438157D01*
X33147000Y27078940D01*
X35433000Y27078940D01*
X35433000Y28438157D01*
X35687000Y28438157D01*
X35687000Y27078940D01*
X37973000Y27078940D01*
X37973000Y28438157D01*
X38227000Y28438157D01*
X38227000Y27078940D01*
X40513000Y27078940D01*
X40513000Y28438157D01*
X40767000Y28438157D01*
X40767000Y27078940D01*
X43053000Y27078940D01*
X43053000Y28438157D01*
X43307000Y28438157D01*
X43307000Y27078940D01*
X45593000Y27078940D01*
X45593000Y28438157D01*
X45847000Y28438157D01*
X45847000Y27078940D01*
X48133000Y27078940D01*
X48133000Y28438157D01*
X48387000Y28438157D01*
X48387000Y27078940D01*
X50673000Y27078940D01*
X50673000Y28438157D01*
X50927000Y28438157D01*
X50927000Y27078940D01*
X53213000Y27078940D01*
X53213000Y28438157D01*
X53467000Y28438157D01*
X53467000Y27078940D01*
X55753000Y27078940D01*
X55753000Y28438157D01*
X56007000Y28438157D01*
X56007000Y27078940D01*
X58293000Y27078940D01*
X58293000Y28438157D01*
X58547000Y28438157D01*
X58547000Y27078940D01*
X60833000Y27078940D01*
X60833000Y28438157D01*
X61087000Y28438157D01*
X61087000Y27078940D01*
X62300924Y27078940D01*
X62445184Y27313853D01*
X62251954Y27866260D01*
X61862036Y28302672D01*
X61334791Y28556649D01*
X61319026Y28559298D01*
X61087000Y28438157D01*
X60833000Y28438157D01*
X60600974Y28559298D01*
X60585209Y28556649D01*
X60057964Y28302672D01*
X59690000Y27890832D01*
X59322036Y28302672D01*
X58794791Y28556649D01*
X58779026Y28559298D01*
X58547000Y28438157D01*
X58293000Y28438157D01*
X58060974Y28559298D01*
X58045209Y28556649D01*
X57517964Y28302672D01*
X57150000Y27890832D01*
X56782036Y28302672D01*
X56254791Y28556649D01*
X56239026Y28559298D01*
X56007000Y28438157D01*
X55753000Y28438157D01*
X55520974Y28559298D01*
X55505209Y28556649D01*
X54977964Y28302672D01*
X54610000Y27890832D01*
X54242036Y28302672D01*
X53714791Y28556649D01*
X53699026Y28559298D01*
X53467000Y28438157D01*
X53213000Y28438157D01*
X52980974Y28559298D01*
X52965209Y28556649D01*
X52437964Y28302672D01*
X52070000Y27890832D01*
X51702036Y28302672D01*
X51174791Y28556649D01*
X51159026Y28559298D01*
X50927000Y28438157D01*
X50673000Y28438157D01*
X50440974Y28559298D01*
X50425209Y28556649D01*
X49897964Y28302672D01*
X49530000Y27890832D01*
X49162036Y28302672D01*
X48634791Y28556649D01*
X48619026Y28559298D01*
X48387000Y28438157D01*
X48133000Y28438157D01*
X47900974Y28559298D01*
X47885209Y28556649D01*
X47357964Y28302672D01*
X46990000Y27890832D01*
X46622036Y28302672D01*
X46094791Y28556649D01*
X46079026Y28559298D01*
X45847000Y28438157D01*
X45593000Y28438157D01*
X45360974Y28559298D01*
X45345209Y28556649D01*
X44817964Y28302672D01*
X44450000Y27890832D01*
X44082036Y28302672D01*
X43554791Y28556649D01*
X43539026Y28559298D01*
X43307000Y28438157D01*
X43053000Y28438157D01*
X42820974Y28559298D01*
X42805209Y28556649D01*
X42277964Y28302672D01*
X41910000Y27890832D01*
X41542036Y28302672D01*
X41014791Y28556649D01*
X40999026Y28559298D01*
X40767000Y28438157D01*
X40513000Y28438157D01*
X40280974Y28559298D01*
X40265209Y28556649D01*
X39737964Y28302672D01*
X39370000Y27890832D01*
X39002036Y28302672D01*
X38474791Y28556649D01*
X38459026Y28559298D01*
X38227000Y28438157D01*
X37973000Y28438157D01*
X37740974Y28559298D01*
X37725209Y28556649D01*
X37197964Y28302672D01*
X36830000Y27890832D01*
X36462036Y28302672D01*
X35934791Y28556649D01*
X35919026Y28559298D01*
X35687000Y28438157D01*
X35433000Y28438157D01*
X35200974Y28559298D01*
X35185209Y28556649D01*
X34657964Y28302672D01*
X34290000Y27890832D01*
X33922036Y28302672D01*
X33394791Y28556649D01*
X33379026Y28559298D01*
X33147000Y28438157D01*
X32893000Y28438157D01*
X32660974Y28559298D01*
X32645209Y28556649D01*
X32117964Y28302672D01*
X31750000Y27890832D01*
X31382036Y28302672D01*
X30854791Y28556649D01*
X30839026Y28559298D01*
X30607000Y28438157D01*
X30353000Y28438157D01*
X30120974Y28559298D01*
X30105209Y28556649D01*
X29577964Y28302672D01*
X29423759Y28130079D01*
X29341927Y28327638D01*
X29163299Y28506267D01*
X28929910Y28602940D01*
X28225750Y28602940D01*
X28067000Y28444190D01*
X27813000Y28444190D01*
X27654250Y28602940D01*
X26950090Y28602940D01*
X26716701Y28506267D01*
X26538073Y28327638D01*
X26441400Y28094249D01*
X26022553Y28094249D01*
X25957450Y28195421D01*
X25880760Y28247821D01*
X25880760Y28371395D01*
X25939791Y28457790D01*
X25990800Y28709680D01*
X25990800Y29609680D01*
X25970483Y29717654D01*
X26061423Y29853755D01*
X26121360Y30155080D01*
X26121360Y30511736D01*
X26225391Y30663990D01*
X26276400Y30915880D01*
X26276400Y31365880D01*
X26232122Y31601197D01*
X26121360Y31773326D01*
X26121360Y32310389D01*
X26162801Y32371040D01*
X26213810Y32622930D01*
X26213810Y33423030D01*
X26169532Y33658347D01*
X26030460Y33874471D01*
X25890711Y33969957D01*
X25926069Y33984603D01*
X26104697Y34163232D01*
X26201370Y34396621D01*
X26201370Y34637230D01*
X26042620Y34795980D01*
X25293320Y34795980D01*
X25293320Y34775980D01*
X25251269Y34775980D01*
X25251269Y35069980D01*
X25293320Y35069980D01*
X25293320Y35049980D01*
X26042620Y35049980D01*
X26201370Y35208730D01*
X26201370Y35449339D01*
X26104697Y35682728D01*
X25926069Y35861357D01*
X25692680Y35958030D01*
X25509457Y35958030D01*
X25559000Y36202680D01*
X25559000Y37102680D01*
X25514722Y37337997D01*
X25439541Y37454831D01*
X25389023Y37708805D01*
X25363077Y37747637D01*
X26288714Y37747637D01*
X26539534Y37140605D01*
X26875132Y36804421D01*
X26541166Y36471037D01*
X26289287Y35864445D01*
X26288714Y35207637D01*
X26539534Y34600605D01*
X26875132Y34264421D01*
X26541166Y33931037D01*
X26289287Y33324445D01*
X26288714Y32667637D01*
X26539534Y32060605D01*
X26875132Y31724421D01*
X26541166Y31391037D01*
X26289287Y30784445D01*
X26288714Y30127637D01*
X26539534Y29520605D01*
X27003563Y29055766D01*
X27610155Y28803887D01*
X28266963Y28803314D01*
X28873995Y29054134D01*
X29210179Y29389732D01*
X29543563Y29055766D01*
X30150155Y28803887D01*
X30806963Y28803314D01*
X31413995Y29054134D01*
X31750179Y29389732D01*
X32083563Y29055766D01*
X32690155Y28803887D01*
X33346963Y28803314D01*
X33953995Y29054134D01*
X34290179Y29389732D01*
X34623563Y29055766D01*
X35230155Y28803887D01*
X35886963Y28803314D01*
X36493995Y29054134D01*
X36830179Y29389732D01*
X37163563Y29055766D01*
X37770155Y28803887D01*
X38426963Y28803314D01*
X39033995Y29054134D01*
X39370179Y29389732D01*
X39703563Y29055766D01*
X40310155Y28803887D01*
X40966963Y28803314D01*
X41573995Y29054134D01*
X41910179Y29389732D01*
X42243563Y29055766D01*
X42850155Y28803887D01*
X43506963Y28803314D01*
X44113995Y29054134D01*
X44450179Y29389732D01*
X44783563Y29055766D01*
X45390155Y28803887D01*
X46046963Y28803314D01*
X46653995Y29054134D01*
X46990179Y29389732D01*
X47323563Y29055766D01*
X47930155Y28803887D01*
X48586963Y28803314D01*
X49193995Y29054134D01*
X49530179Y29389732D01*
X49863563Y29055766D01*
X50470155Y28803887D01*
X51126963Y28803314D01*
X51733995Y29054134D01*
X52070179Y29389732D01*
X52403563Y29055766D01*
X53010155Y28803887D01*
X53666963Y28803314D01*
X54273995Y29054134D01*
X54610179Y29389732D01*
X54943563Y29055766D01*
X55550155Y28803887D01*
X56206963Y28803314D01*
X56813995Y29054134D01*
X57150179Y29389732D01*
X57483563Y29055766D01*
X58090155Y28803887D01*
X58746963Y28803314D01*
X59353995Y29054134D01*
X59690179Y29389732D01*
X60023563Y29055766D01*
X60630155Y28803887D01*
X61286963Y28803314D01*
X61893995Y29054134D01*
X62358834Y29518163D01*
X62610713Y30124755D01*
X62611286Y30781563D01*
X62360466Y31388595D01*
X62024868Y31724779D01*
X62358834Y32058163D01*
X62610713Y32664755D01*
X62611286Y33321563D01*
X62360466Y33928595D01*
X62024868Y34264779D01*
X62358834Y34598163D01*
X62610713Y35204755D01*
X62611286Y35861563D01*
X62360466Y36468595D01*
X62024868Y36804779D01*
X62358834Y37138163D01*
X62610713Y37744755D01*
X62611286Y38401563D01*
X62360466Y39008595D01*
X61896437Y39473434D01*
X61289845Y39725313D01*
X60633037Y39725886D01*
X60026005Y39475066D01*
X59689821Y39139468D01*
X59356437Y39473434D01*
X58749845Y39725313D01*
X58093037Y39725886D01*
X57486005Y39475066D01*
X57149821Y39139468D01*
X56816437Y39473434D01*
X56209845Y39725313D01*
X55553037Y39725886D01*
X54946005Y39475066D01*
X54609821Y39139468D01*
X54276437Y39473434D01*
X53669845Y39725313D01*
X53013037Y39725886D01*
X52406005Y39475066D01*
X52069821Y39139468D01*
X51736437Y39473434D01*
X51129845Y39725313D01*
X50473037Y39725886D01*
X49866005Y39475066D01*
X49529821Y39139468D01*
X49196437Y39473434D01*
X48589845Y39725313D01*
X47933037Y39725886D01*
X47326005Y39475066D01*
X46989821Y39139468D01*
X46656437Y39473434D01*
X46049845Y39725313D01*
X45393037Y39725886D01*
X44786005Y39475066D01*
X44449821Y39139468D01*
X44116437Y39473434D01*
X43509845Y39725313D01*
X42853037Y39725886D01*
X42246005Y39475066D01*
X41909821Y39139468D01*
X41576437Y39473434D01*
X40969845Y39725313D01*
X40313037Y39725886D01*
X39706005Y39475066D01*
X39369821Y39139468D01*
X39036437Y39473434D01*
X38429845Y39725313D01*
X37773037Y39725886D01*
X37166005Y39475066D01*
X36829821Y39139468D01*
X36496437Y39473434D01*
X35889845Y39725313D01*
X35233037Y39725886D01*
X34626005Y39475066D01*
X34289821Y39139468D01*
X33956437Y39473434D01*
X33349845Y39725313D01*
X32693037Y39725886D01*
X32086005Y39475066D01*
X31749821Y39139468D01*
X31416437Y39473434D01*
X30809845Y39725313D01*
X30153037Y39725886D01*
X29546005Y39475066D01*
X29209821Y39139468D01*
X28876437Y39473434D01*
X28269845Y39725313D01*
X27613037Y39725886D01*
X27006005Y39475066D01*
X26541166Y39011037D01*
X26289287Y38404445D01*
X26288714Y37747637D01*
X25363077Y37747637D01*
X25330035Y37797086D01*
X25400357Y37810318D01*
X25616481Y37949390D01*
X25761471Y38161590D01*
X25812480Y38413480D01*
X25812480Y38863480D01*
X25768202Y39098797D01*
X25644160Y39291564D01*
X25597503Y39526125D01*
X25545532Y39603905D01*
X25760427Y39603718D01*
X26104203Y39745763D01*
X26367452Y40008553D01*
X26495455Y40316817D01*
X26612310Y40135219D01*
X26824510Y39990229D01*
X27076400Y39939220D01*
X28803600Y39939220D01*
X29038917Y39983498D01*
X29255041Y40122570D01*
X29400031Y40334770D01*
X29408400Y40376099D01*
X29420330Y40358245D01*
X29906511Y40033389D01*
X30480000Y39919315D01*
X31053489Y40033389D01*
X31539670Y40358245D01*
X31750000Y40673026D01*
X31960330Y40358245D01*
X32446511Y40033389D01*
X33020000Y39919315D01*
X33593489Y40033389D01*
X34079670Y40358245D01*
X34290000Y40673026D01*
X34500330Y40358245D01*
X34986511Y40033389D01*
X35560000Y39919315D01*
X36133489Y40033389D01*
X36619670Y40358245D01*
X36830000Y40673026D01*
X37040330Y40358245D01*
X37526511Y40033389D01*
X38100000Y39919315D01*
X38673489Y40033389D01*
X39159670Y40358245D01*
X39370000Y40673026D01*
X39580330Y40358245D01*
X40066511Y40033389D01*
X40640000Y39919315D01*
X41213489Y40033389D01*
X41699670Y40358245D01*
X41910000Y40673026D01*
X42120330Y40358245D01*
X42606511Y40033389D01*
X43180000Y39919315D01*
X43753489Y40033389D01*
X44239670Y40358245D01*
X44450000Y40673026D01*
X44660330Y40358245D01*
X45146511Y40033389D01*
X45720000Y39919315D01*
X46293489Y40033389D01*
X46779670Y40358245D01*
X46990000Y40673026D01*
X47200330Y40358245D01*
X47686511Y40033389D01*
X48260000Y39919315D01*
X48833489Y40033389D01*
X49319670Y40358245D01*
X49530000Y40673026D01*
X49740330Y40358245D01*
X50226511Y40033389D01*
X50800000Y39919315D01*
X51373489Y40033389D01*
X51859670Y40358245D01*
X52070000Y40673026D01*
X52280330Y40358245D01*
X52766511Y40033389D01*
X53340000Y39919315D01*
X53913489Y40033389D01*
X54399670Y40358245D01*
X54610000Y40673026D01*
X54820330Y40358245D01*
X55306511Y40033389D01*
X55880000Y39919315D01*
X56453489Y40033389D01*
X56939670Y40358245D01*
X57150000Y40673026D01*
X57360330Y40358245D01*
X57846511Y40033389D01*
X58420000Y39919315D01*
X58993489Y40033389D01*
X59479670Y40358245D01*
X59690000Y40673026D01*
X59900330Y40358245D01*
X60386511Y40033389D01*
X60960000Y39919315D01*
X61533489Y40033389D01*
X62019670Y40358245D01*
X62344526Y40844426D01*
X62458600Y41417915D01*
X62458600Y41787405D01*
X62344526Y42360894D01*
X62019670Y42847075D01*
X61533489Y43171931D01*
X60960000Y43286005D01*
X60386511Y43171931D01*
X59900330Y42847075D01*
X59690000Y42532294D01*
X59479670Y42847075D01*
X58993489Y43171931D01*
X58420000Y43286005D01*
X57846511Y43171931D01*
X57360330Y42847075D01*
X57150000Y42532294D01*
X56939670Y42847075D01*
X56453489Y43171931D01*
X55880000Y43286005D01*
X55306511Y43171931D01*
X54820330Y42847075D01*
X54610000Y42532294D01*
X54399670Y42847075D01*
X53913489Y43171931D01*
X53340000Y43286005D01*
X52766511Y43171931D01*
X52280330Y42847075D01*
X52070000Y42532294D01*
X51859670Y42847075D01*
X51373489Y43171931D01*
X50800000Y43286005D01*
X50226511Y43171931D01*
X49740330Y42847075D01*
X49530000Y42532294D01*
X49319670Y42847075D01*
X48833489Y43171931D01*
X48260000Y43286005D01*
X47686511Y43171931D01*
X47200330Y42847075D01*
X46990000Y42532294D01*
X46779670Y42847075D01*
X46293489Y43171931D01*
X45720000Y43286005D01*
X45146511Y43171931D01*
X44660330Y42847075D01*
X44450000Y42532294D01*
X44239670Y42847075D01*
X43753489Y43171931D01*
X43180000Y43286005D01*
X42606511Y43171931D01*
X42120330Y42847075D01*
X41910000Y42532294D01*
X41699670Y42847075D01*
X41213489Y43171931D01*
X40640000Y43286005D01*
X40066511Y43171931D01*
X39580330Y42847075D01*
X39370000Y42532294D01*
X39159670Y42847075D01*
X38673489Y43171931D01*
X38100000Y43286005D01*
X37526511Y43171931D01*
X37040330Y42847075D01*
X36830000Y42532294D01*
X36619670Y42847075D01*
X36133489Y43171931D01*
X35560000Y43286005D01*
X34986511Y43171931D01*
X34500330Y42847075D01*
X34290000Y42532294D01*
X34079670Y42847075D01*
X33593489Y43171931D01*
X33020000Y43286005D01*
X32446511Y43171931D01*
X31960330Y42847075D01*
X31750000Y42532294D01*
X31539670Y42847075D01*
X31053489Y43171931D01*
X30480000Y43286005D01*
X29906511Y43171931D01*
X29420330Y42847075D01*
X29410757Y42832747D01*
X29406762Y42853977D01*
X29267690Y43070101D01*
X29055490Y43215091D01*
X28803600Y43266100D01*
X27076400Y43266100D01*
X26841083Y43221822D01*
X26624959Y43082750D01*
X26479969Y42870550D01*
X26428960Y42618660D01*
X26428960Y40921201D01*
X26368377Y41067823D01*
X26105587Y41331072D01*
X25762059Y41473718D01*
X25390093Y41474042D01*
X25246595Y41414750D01*
X25233410Y41435241D01*
X25021210Y41580231D01*
X24898942Y41604991D01*
X24992681Y41665310D01*
X25137671Y41877510D01*
X25188680Y42129400D01*
X25188680Y42829400D01*
X25144402Y43064717D01*
X25005330Y43280841D01*
X24793130Y43425831D01*
X24780043Y43428481D01*
X24992681Y43565310D01*
X25137671Y43777510D01*
X25188680Y44029400D01*
X25188680Y44208199D01*
X25388461Y44125242D01*
X25760427Y44124918D01*
X26104203Y44266963D01*
X26109930Y44272680D01*
X60858880Y44272680D01*
X61160205Y44332617D01*
X61415656Y44503304D01*
X63024742Y46112390D01*
X63500000Y46017855D01*
X64073489Y46131929D01*
X64559670Y46456785D01*
X64884526Y46942966D01*
X64998600Y47516455D01*
X64998600Y47885945D01*
X64884526Y48459434D01*
X64559670Y48945615D01*
X64103228Y49250600D01*
X64559670Y49555585D01*
X64884526Y50041766D01*
X64998600Y50615255D01*
X64998600Y50984745D01*
X64884526Y51558234D01*
X64559670Y52044415D01*
X64073489Y52369271D01*
X63500000Y52483345D01*
X62926511Y52369271D01*
X62440330Y52044415D01*
X62230000Y51729634D01*
X62019670Y52044415D01*
X61533489Y52369271D01*
X60960000Y52483345D01*
X60386511Y52369271D01*
X59900330Y52044415D01*
X59690000Y51729634D01*
X59479670Y52044415D01*
X58993489Y52369271D01*
X58420000Y52483345D01*
X57846511Y52369271D01*
X57360330Y52044415D01*
X57150000Y51729634D01*
X56939670Y52044415D01*
X56453489Y52369271D01*
X55880000Y52483345D01*
X55306511Y52369271D01*
X54820330Y52044415D01*
X54610000Y51729634D01*
X54399670Y52044415D01*
X53913489Y52369271D01*
X53340000Y52483345D01*
X52766511Y52369271D01*
X52280330Y52044415D01*
X52070000Y51729634D01*
X51859670Y52044415D01*
X51373489Y52369271D01*
X50800000Y52483345D01*
X50226511Y52369271D01*
X49740330Y52044415D01*
X49530000Y51729634D01*
X49319670Y52044415D01*
X48833489Y52369271D01*
X48260000Y52483345D01*
X47686511Y52369271D01*
X47200330Y52044415D01*
X46990000Y51729634D01*
X46779670Y52044415D01*
X46293489Y52369271D01*
X45720000Y52483345D01*
X45146511Y52369271D01*
X44660330Y52044415D01*
X44335474Y51558234D01*
X44221400Y50984745D01*
X44221400Y50615255D01*
X44335474Y50041766D01*
X44660330Y49555585D01*
X45116772Y49250600D01*
X44660330Y48945615D01*
X44335474Y48459434D01*
X44221400Y47885945D01*
X44221400Y47516455D01*
X44310866Y47066680D01*
X43062608Y47066680D01*
X43154600Y47529155D01*
X43154600Y47898645D01*
X43040526Y48472134D01*
X42715670Y48958315D01*
X42278235Y49250600D01*
X42715670Y49542885D01*
X43040526Y50029066D01*
X43154600Y50602555D01*
X43154600Y50972045D01*
X43040526Y51545534D01*
X42715670Y52031715D01*
X42229489Y52356571D01*
X41656000Y52470645D01*
X41082511Y52356571D01*
X40596330Y52031715D01*
X40386000Y51716934D01*
X40175670Y52031715D01*
X39689489Y52356571D01*
X39116000Y52470645D01*
X38542511Y52356571D01*
X38056330Y52031715D01*
X37846000Y51716934D01*
X37635670Y52031715D01*
X37149489Y52356571D01*
X36576000Y52470645D01*
X36002511Y52356571D01*
X35516330Y52031715D01*
X35306000Y51716934D01*
X35095670Y52031715D01*
X34609489Y52356571D01*
X34036000Y52470645D01*
X33462511Y52356571D01*
X32976330Y52031715D01*
X32766000Y51716934D01*
X32555670Y52031715D01*
X32069489Y52356571D01*
X31496000Y52470645D01*
X30922511Y52356571D01*
X30436330Y52031715D01*
X30226000Y51716934D01*
X30015670Y52031715D01*
X29529489Y52356571D01*
X28956000Y52470645D01*
X28382511Y52356571D01*
X27896330Y52031715D01*
X27689539Y51722231D01*
X27318036Y52138032D01*
X26790791Y52392009D01*
X26775026Y52394658D01*
X26543000Y52273517D01*
X26543000Y50914300D01*
X26563000Y50914300D01*
X26563000Y50660300D01*
X26543000Y50660300D01*
X26543000Y49301083D01*
X26639692Y49250600D01*
X26543000Y49200117D01*
X26543000Y47840900D01*
X26563000Y47840900D01*
X26563000Y47586900D01*
X26543000Y47586900D01*
X26543000Y47566900D01*
X26289000Y47566900D01*
X26289000Y47586900D01*
X26269000Y47586900D01*
X26269000Y47840900D01*
X26289000Y47840900D01*
X26289000Y49200117D01*
X26192308Y49250600D01*
X26289000Y49301083D01*
X26289000Y50660300D01*
X26269000Y50660300D01*
X26269000Y50914300D01*
X26289000Y50914300D01*
X26289000Y52273517D01*
X26056974Y52394658D01*
X26041209Y52392009D01*
X25513964Y52138032D01*
X25142461Y51722231D01*
X24935670Y52031715D01*
X24449489Y52356571D01*
X23876000Y52470645D01*
X23302511Y52356571D01*
X22816330Y52031715D01*
X22606000Y51716934D01*
X22395670Y52031715D01*
X21909489Y52356571D01*
X21336000Y52470645D01*
X20762511Y52356571D01*
X20276330Y52031715D01*
X20066000Y51716934D01*
X19855670Y52031715D01*
X19369489Y52356571D01*
X18796000Y52470645D01*
X18222511Y52356571D01*
X17736330Y52031715D01*
X17411474Y51545534D01*
X17364848Y51311127D01*
X17071378Y52021377D01*
X16464572Y52629244D01*
X16462751Y52630000D01*
X64221908Y52630000D01*
X65330000Y51521909D01*
G36*
X18821400Y44158600D02*
X18841400Y44158600D01*
X18841400Y43904600D01*
X18821400Y43904600D01*
X18821400Y43884600D01*
X18567400Y43884600D01*
X18567400Y43904600D01*
X18547400Y43904600D01*
X18547400Y44158600D01*
X18567400Y44158600D01*
X18567400Y44178600D01*
X18821400Y44178600D01*
X18821400Y44158600D01*
X18821400Y44158600D01*
G37*
X18821400Y44158600D02*
X18841400Y44158600D01*
X18841400Y43904600D01*
X18821400Y43904600D01*
X18821400Y43884600D01*
X18567400Y43884600D01*
X18567400Y43904600D01*
X18547400Y43904600D01*
X18547400Y44158600D01*
X18567400Y44158600D01*
X18567400Y44178600D01*
X18821400Y44178600D01*
X18821400Y44158600D01*
G36*
X21136870Y44784050D02*
X21136870Y44374478D01*
X20919006Y44374667D01*
X20837320Y44430481D01*
X20585430Y44481490D01*
X19785330Y44481490D01*
X19704400Y44466262D01*
X19704400Y44557909D01*
X19607727Y44791298D01*
X19516746Y44882280D01*
X21156762Y44882280D01*
X21136870Y44784050D01*
X21136870Y44784050D01*
G37*
X21136870Y44784050D02*
X21136870Y44374478D01*
X20919006Y44374667D01*
X20837320Y44430481D01*
X20585430Y44481490D01*
X19785330Y44481490D01*
X19704400Y44466262D01*
X19704400Y44557909D01*
X19607727Y44791298D01*
X19516746Y44882280D01*
X21156762Y44882280D01*
X21136870Y44784050D01*
M02*
