G04 #@! TF.FileFunction,Other,Fab,Top*
%FSLAX46Y46*%
G04 Gerber Fmt 4.6, Leading zero omitted, Abs format (unit mm)*
G04 Created by KiCad (PCBNEW 4.0.7) date Fri May 18 16:22:30 2018*
%MOMM*%
%LPD*%
G01*
G04 APERTURE LIST*
%ADD10C,0.100000*%
%ADD11C,0.150000*%
G04 APERTURE END LIST*
D10*
D11*
X-1571097Y35602618D02*
X-1523478Y35554999D01*
X-1475859Y35412142D01*
X-1475859Y35316904D01*
X-1523478Y35174046D01*
X-1618716Y35078808D01*
X-1713954Y35031189D01*
X-1904430Y34983570D01*
X-2047288Y34983570D01*
X-2237764Y35031189D01*
X-2333002Y35078808D01*
X-2428240Y35174046D01*
X-2475859Y35316904D01*
X-2475859Y35412142D01*
X-2428240Y35554999D01*
X-2380621Y35602618D01*
X-1571097Y36602618D02*
X-1523478Y36554999D01*
X-1475859Y36412142D01*
X-1475859Y36316904D01*
X-1523478Y36174046D01*
X-1618716Y36078808D01*
X-1713954Y36031189D01*
X-1904430Y35983570D01*
X-2047288Y35983570D01*
X-2237764Y36031189D01*
X-2333002Y36078808D01*
X-2428240Y36174046D01*
X-2475859Y36316904D01*
X-2475859Y36412142D01*
X-2428240Y36554999D01*
X-2380621Y36602618D01*
X-1380621Y36793094D02*
X-1380621Y37554999D01*
X-1475859Y37793094D02*
X-2475859Y37793094D01*
X-1475859Y38364523D01*
X-2475859Y38364523D01*
X-1999669Y38840713D02*
X-1999669Y39174047D01*
X-1475859Y39316904D02*
X-1475859Y38840713D01*
X-2475859Y38840713D01*
X-2475859Y39316904D01*
X-2475859Y39650237D02*
X-1475859Y40316904D01*
X-2475859Y40316904D02*
X-1475859Y39650237D01*
X-2475859Y40554999D02*
X-2475859Y41126428D01*
X-1475859Y40840713D02*
X-2475859Y40840713D01*
X-1583797Y12890247D02*
X-1536178Y12842628D01*
X-1488559Y12699771D01*
X-1488559Y12604533D01*
X-1536178Y12461675D01*
X-1631416Y12366437D01*
X-1726654Y12318818D01*
X-1917130Y12271199D01*
X-2059988Y12271199D01*
X-2250464Y12318818D01*
X-2345702Y12366437D01*
X-2440940Y12461675D01*
X-2488559Y12604533D01*
X-2488559Y12699771D01*
X-2440940Y12842628D01*
X-2393321Y12890247D01*
X-1583797Y13890247D02*
X-1536178Y13842628D01*
X-1488559Y13699771D01*
X-1488559Y13604533D01*
X-1536178Y13461675D01*
X-1631416Y13366437D01*
X-1726654Y13318818D01*
X-1917130Y13271199D01*
X-2059988Y13271199D01*
X-2250464Y13318818D01*
X-2345702Y13366437D01*
X-2440940Y13461675D01*
X-2488559Y13604533D01*
X-2488559Y13699771D01*
X-2440940Y13842628D01*
X-2393321Y13890247D01*
X-1393321Y14080723D02*
X-1393321Y14842628D01*
X-1488559Y15080723D02*
X-2488559Y15080723D01*
X-1774273Y15414057D01*
X-2488559Y15747390D01*
X-1488559Y15747390D01*
X-1774273Y16175961D02*
X-1774273Y16652152D01*
X-1488559Y16080723D02*
X-2488559Y16414056D01*
X-1488559Y16747390D01*
X-1488559Y17080723D02*
X-2488559Y17080723D01*
X-1488559Y17556913D02*
X-2488559Y17556913D01*
X-1488559Y18128342D01*
X-2488559Y18128342D01*
M02*
