M48
;DRILL file {KiCad no-vcs-found-product} date Sat 17 Oct 2015 11:50:24 AM BRT
;FORMAT={-:-/ absolute / inch / decimal}
FMAT,2
INCH,TZ
T1C0.012
T2C0.015
T3C0.018
T4C0.035
T5C0.040
T6C0.062
T7C0.120
T8C0.130
%
G90
G05
M72
T1
X0.262Y-0.392
X0.262Y-2.5904
X0.262Y-4.7889
X0.547Y-0.414
X0.547Y-2.6124
X0.547Y-4.8109
X0.549Y-0.548
X0.549Y-2.7464
X0.549Y-4.9448
X0.675Y-0.759
X0.675Y-2.9574
X0.675Y-5.1559
X3.0604Y-0.392
X3.0604Y-2.5904
X3.0604Y-4.7889
X3.3454Y-0.414
X3.3454Y-2.6124
X3.3454Y-4.8109
X3.3474Y-0.548
X3.3474Y-2.7464
X3.3474Y-4.9448
X3.4734Y-0.759
X3.4734Y-2.9574
X3.4734Y-5.1559
T2
X0.08Y-0.091
X0.08Y-2.2894
X0.08Y-4.4878
X0.128Y-0.54
X0.128Y-0.687
X0.128Y-2.7384
X0.128Y-2.8854
X0.128Y-4.9368
X0.128Y-5.0838
X0.14Y-1.361
X0.14Y-3.5594
X0.14Y-5.7578
X0.196Y-1.814
X0.196Y-2.029
X0.196Y-4.0124
X0.196Y-4.2274
X0.196Y-6.2108
X0.196Y-6.4258
X0.199Y-1.054
X0.199Y-3.2524
X0.199Y-5.4508
X0.245Y-0.164
X0.245Y-2.3624
X0.245Y-4.5609
X0.2805Y-0.8625
X0.2805Y-3.0609
X0.2805Y-5.2593
X0.322Y-1.696
X0.322Y-3.8944
X0.322Y-6.0928
X0.3725Y-0.284
X0.3725Y-2.4824
X0.3725Y-4.6808
X0.423Y-0.349
X0.423Y-2.5474
X0.423Y-4.7458
X0.426Y-0.651
X0.426Y-2.8494
X0.426Y-5.0478
X0.543Y-0.765
X0.543Y-2.9634
X0.543Y-5.1619
X0.597Y-1.034
X0.597Y-3.2324
X0.597Y-5.4308
X0.634Y-1.216
X0.634Y-3.4144
X0.634Y-5.6128
X0.646Y-1.769
X0.646Y-3.9674
X0.646Y-6.1658
X0.6535Y-0.311
X0.6535Y-2.5094
X0.6535Y-4.7078
X0.674Y-0.804
X0.674Y-3.0024
X0.674Y-5.2008
X0.687Y-2.044
X0.687Y-4.2424
X0.687Y-6.4409
X0.699Y-0.624
X0.699Y-2.8224
X0.699Y-5.0209
X0.756Y-1.011
X0.756Y-3.2094
X0.756Y-5.4078
X0.827Y-0.986
X0.827Y-3.1844
X0.827Y-5.3828
X2.8784Y-0.091
X2.8784Y-2.2894
X2.8784Y-4.4878
X2.9264Y-0.54
X2.9264Y-0.687
X2.9264Y-2.7384
X2.9264Y-2.8854
X2.9264Y-4.9368
X2.9264Y-5.0838
X2.9384Y-1.361
X2.9384Y-3.5594
X2.9384Y-5.7578
X2.9944Y-1.814
X2.9944Y-2.029
X2.9944Y-4.0124
X2.9944Y-4.2274
X2.9944Y-6.2108
X2.9944Y-6.4258
X2.9974Y-1.054
X2.9974Y-3.2524
X2.9974Y-5.4508
X3.0434Y-0.164
X3.0434Y-2.3624
X3.0434Y-4.5609
X3.0789Y-0.8625
X3.0789Y-3.0609
X3.0789Y-5.2593
X3.1204Y-1.696
X3.1204Y-3.8944
X3.1204Y-6.0928
X3.1709Y-0.284
X3.1709Y-2.4824
X3.1709Y-4.6808
X3.2214Y-0.349
X3.2214Y-2.5474
X3.2214Y-4.7458
X3.2244Y-0.651
X3.2244Y-2.8494
X3.2244Y-5.0478
X3.3414Y-0.765
X3.3414Y-2.9634
X3.3414Y-5.1619
X3.3954Y-1.034
X3.3954Y-3.2324
X3.3954Y-5.4308
X3.4324Y-1.216
X3.4324Y-3.4144
X3.4324Y-5.6128
X3.4444Y-1.769
X3.4444Y-3.9674
X3.4444Y-6.1658
X3.4519Y-0.311
X3.4519Y-2.5094
X3.4519Y-4.7078
X3.4724Y-0.804
X3.4724Y-3.0024
X3.4724Y-5.2008
X3.4854Y-2.044
X3.4854Y-4.2424
X3.4854Y-6.4409
X3.4974Y-0.624
X3.4974Y-2.8224
X3.4974Y-5.0209
X3.5544Y-1.011
X3.5544Y-3.2094
X3.5544Y-5.4078
X3.6254Y-0.986
X3.6254Y-3.1844
X3.6254Y-5.3828
T3
X0.054Y-0.62
X0.054Y-2.8184
X0.054Y-5.0168
X0.484Y-0.111
X0.484Y-0.209
X0.484Y-2.3094
X0.484Y-2.4074
X0.484Y-4.5078
X0.484Y-4.6059
X0.538Y-1.392
X0.538Y-3.5904
X0.538Y-5.7889
X0.734Y-1.806
X0.734Y-4.0044
X0.734Y-6.2028
X0.772Y-0.604
X0.772Y-0.654
X0.772Y-0.704
X0.772Y-0.754
X0.772Y-2.8024
X0.772Y-2.8524
X0.772Y-2.9024
X0.772Y-2.9524
X0.772Y-5.0008
X0.772Y-5.0508
X0.772Y-5.1008
X0.772Y-5.1509
X0.776Y-0.53
X0.776Y-2.7284
X0.776Y-4.9268
X2.8524Y-0.62
X2.8524Y-2.8184
X2.8524Y-5.0168
X3.2824Y-0.111
X3.2824Y-0.209
X3.2824Y-2.3094
X3.2824Y-2.4074
X3.2824Y-4.5078
X3.2824Y-4.6059
X3.3364Y-1.392
X3.3364Y-3.5904
X3.3364Y-5.7889
X3.5324Y-1.806
X3.5324Y-4.0044
X3.5324Y-6.2028
X3.5704Y-0.604
X3.5704Y-0.654
X3.5704Y-0.704
X3.5704Y-0.754
X3.5704Y-2.8024
X3.5704Y-2.8524
X3.5704Y-2.9024
X3.5704Y-2.9524
X3.5704Y-5.0008
X3.5704Y-5.0508
X3.5704Y-5.1008
X3.5704Y-5.1509
X3.5744Y-0.53
X3.5744Y-2.7284
X3.5744Y-4.9268
T4
X0.262Y-0.5388
X0.262Y-0.6188
X0.262Y-0.6988
X0.262Y-0.7788
X0.262Y-1.3612
X0.262Y-1.4412
X0.262Y-1.5212
X0.262Y-1.6012
X0.262Y-2.7372
X0.262Y-2.8172
X0.262Y-2.8972
X0.262Y-2.9772
X0.262Y-3.5596
X0.262Y-3.6396
X0.262Y-3.7196
X0.262Y-3.7996
X0.262Y-4.9357
X0.262Y-5.0157
X0.262Y-5.0957
X0.262Y-5.1757
X0.262Y-5.758
X0.262Y-5.838
X0.262Y-5.918
X0.262Y-5.998
X0.332Y-0.4988
X0.332Y-0.5788
X0.332Y-0.6588
X0.332Y-0.7388
X0.332Y-1.3212
X0.332Y-1.4012
X0.332Y-1.4812
X0.332Y-1.5612
X0.332Y-2.6972
X0.332Y-2.7772
X0.332Y-2.8572
X0.332Y-2.9372
X0.332Y-3.5196
X0.332Y-3.5996
X0.332Y-3.6796
X0.332Y-3.7596
X0.332Y-4.8957
X0.332Y-4.9757
X0.332Y-5.0557
X0.332Y-5.1357
X0.332Y-5.718
X0.332Y-5.798
X0.332Y-5.878
X0.332Y-5.958
X0.522Y-0.3688
X0.522Y-0.4588
X0.522Y-0.8188
X0.522Y-0.9088
X0.522Y-1.1912
X0.522Y-1.2812
X0.522Y-1.6412
X0.522Y-1.7312
X0.522Y-2.5672
X0.522Y-2.6572
X0.522Y-3.0172
X0.522Y-3.1072
X0.522Y-3.3896
X0.522Y-3.4796
X0.522Y-3.8396
X0.522Y-3.9296
X0.522Y-4.7657
X0.522Y-4.8557
X0.522Y-5.2157
X0.522Y-5.3057
X0.522Y-5.588
X0.522Y-5.678
X0.522Y-6.038
X0.522Y-6.128
X3.0604Y-0.5388
X3.0604Y-0.6188
X3.0604Y-0.6988
X3.0604Y-0.7788
X3.0604Y-1.3612
X3.0604Y-1.4412
X3.0604Y-1.5212
X3.0604Y-1.6012
X3.0604Y-2.7372
X3.0604Y-2.8172
X3.0604Y-2.8972
X3.0604Y-2.9772
X3.0604Y-3.5596
X3.0604Y-3.6396
X3.0604Y-3.7196
X3.0604Y-3.7996
X3.0604Y-4.9357
X3.0604Y-5.0157
X3.0604Y-5.0957
X3.0604Y-5.1757
X3.0604Y-5.758
X3.0604Y-5.838
X3.0604Y-5.918
X3.0604Y-5.998
X3.1304Y-0.4988
X3.1304Y-0.5788
X3.1304Y-0.6588
X3.1304Y-0.7388
X3.1304Y-1.3212
X3.1304Y-1.4012
X3.1304Y-1.4812
X3.1304Y-1.5612
X3.1304Y-2.6972
X3.1304Y-2.7772
X3.1304Y-2.8572
X3.1304Y-2.9372
X3.1304Y-3.5196
X3.1304Y-3.5996
X3.1304Y-3.6796
X3.1304Y-3.7596
X3.1304Y-4.8957
X3.1304Y-4.9757
X3.1304Y-5.0557
X3.1304Y-5.1357
X3.1304Y-5.718
X3.1304Y-5.798
X3.1304Y-5.878
X3.1304Y-5.958
X3.3204Y-0.3688
X3.3204Y-0.4588
X3.3204Y-0.8188
X3.3204Y-0.9088
X3.3204Y-1.1912
X3.3204Y-1.2812
X3.3204Y-1.6412
X3.3204Y-1.7312
X3.3204Y-2.5672
X3.3204Y-2.6572
X3.3204Y-3.0172
X3.3204Y-3.1072
X3.3204Y-3.3896
X3.3204Y-3.4796
X3.3204Y-3.8396
X3.3204Y-3.9296
X3.3204Y-4.7657
X3.3204Y-4.8557
X3.3204Y-5.2157
X3.3204Y-5.3057
X3.3204Y-5.588
X3.3204Y-5.678
X3.3204Y-6.038
X3.3204Y-6.128
T5
X0.74Y-0.1005
X0.74Y-0.2215
X0.74Y-2.2989
X0.74Y-2.4199
X0.74Y-4.4973
X0.74Y-4.6183
X0.84Y-0.1005
X0.84Y-0.2215
X0.84Y-2.2989
X0.84Y-2.4199
X0.84Y-4.4973
X0.84Y-4.6183
X0.94Y-0.1005
X0.94Y-0.2215
X0.94Y-2.2989
X0.94Y-2.4199
X0.94Y-4.4973
X0.94Y-4.6183
X1.04Y-0.1005
X1.04Y-0.2215
X1.04Y-2.2989
X1.04Y-2.4199
X1.04Y-4.4973
X1.04Y-4.6183
X1.052Y-0.54
X1.052Y-0.678
X1.052Y-0.816
X1.052Y-0.954
X1.052Y-1.092
X1.052Y-1.23
X1.052Y-1.368
X1.052Y-1.506
X1.052Y-1.644
X1.052Y-2.7384
X1.052Y-2.8764
X1.052Y-3.0144
X1.052Y-3.1524
X1.052Y-3.2904
X1.052Y-3.4284
X1.052Y-3.5664
X1.052Y-3.7044
X1.052Y-3.8424
X1.052Y-4.9368
X1.052Y-5.0748
X1.052Y-5.2128
X1.052Y-5.3508
X1.052Y-5.4889
X1.052Y-5.6269
X1.052Y-5.7649
X1.052Y-5.9028
X1.052Y-6.0408
X1.1Y-1.878
X1.1Y-2.
X1.1Y-4.0764
X1.1Y-4.1984
X1.1Y-6.2748
X1.1Y-6.3968
X1.14Y-0.1005
X1.14Y-0.2215
X1.14Y-2.2989
X1.14Y-2.4199
X1.14Y-4.4973
X1.14Y-4.6183
X1.152Y-0.54
X1.152Y-0.678
X1.152Y-0.816
X1.152Y-0.954
X1.152Y-1.092
X1.152Y-1.23
X1.152Y-1.368
X1.152Y-1.506
X1.152Y-1.644
X1.152Y-2.7384
X1.152Y-2.8764
X1.152Y-3.0144
X1.152Y-3.1524
X1.152Y-3.2904
X1.152Y-3.4284
X1.152Y-3.5664
X1.152Y-3.7044
X1.152Y-3.8424
X1.152Y-4.9368
X1.152Y-5.0748
X1.152Y-5.2128
X1.152Y-5.3508
X1.152Y-5.4889
X1.152Y-5.6269
X1.152Y-5.7649
X1.152Y-5.9028
X1.152Y-6.0408
X1.2Y-1.878
X1.2Y-2.
X1.2Y-4.0764
X1.2Y-4.1984
X1.2Y-6.2748
X1.2Y-6.3968
X1.24Y-0.1005
X1.24Y-0.2215
X1.24Y-2.2989
X1.24Y-2.4199
X1.24Y-4.4973
X1.24Y-4.6183
X1.252Y-0.54
X1.252Y-0.678
X1.252Y-0.816
X1.252Y-0.954
X1.252Y-1.092
X1.252Y-1.23
X1.252Y-1.368
X1.252Y-1.506
X1.252Y-1.644
X1.252Y-2.7384
X1.252Y-2.8764
X1.252Y-3.0144
X1.252Y-3.1524
X1.252Y-3.2904
X1.252Y-3.4284
X1.252Y-3.5664
X1.252Y-3.7044
X1.252Y-3.8424
X1.252Y-4.9368
X1.252Y-5.0748
X1.252Y-5.2128
X1.252Y-5.3508
X1.252Y-5.4889
X1.252Y-5.6269
X1.252Y-5.7649
X1.252Y-5.9028
X1.252Y-6.0408
X1.3Y-1.878
X1.3Y-2.
X1.3Y-4.0764
X1.3Y-4.1984
X1.3Y-6.2748
X1.3Y-6.3968
X1.34Y-0.1005
X1.34Y-0.2215
X1.34Y-2.2989
X1.34Y-2.4199
X1.34Y-4.4973
X1.34Y-4.6183
X1.352Y-0.54
X1.352Y-0.678
X1.352Y-0.816
X1.352Y-0.954
X1.352Y-1.092
X1.352Y-1.23
X1.352Y-1.368
X1.352Y-1.506
X1.352Y-1.644
X1.352Y-2.7384
X1.352Y-2.8764
X1.352Y-3.0144
X1.352Y-3.1524
X1.352Y-3.2904
X1.352Y-3.4284
X1.352Y-3.5664
X1.352Y-3.7044
X1.352Y-3.8424
X1.352Y-4.9368
X1.352Y-5.0748
X1.352Y-5.2128
X1.352Y-5.3508
X1.352Y-5.4889
X1.352Y-5.6269
X1.352Y-5.7649
X1.352Y-5.9028
X1.352Y-6.0408
X1.4Y-1.878
X1.4Y-2.
X1.4Y-4.0764
X1.4Y-4.1984
X1.4Y-6.2748
X1.4Y-6.3968
X1.44Y-0.1005
X1.44Y-0.2215
X1.44Y-2.2989
X1.44Y-2.4199
X1.44Y-4.4973
X1.44Y-4.6183
X1.452Y-0.54
X1.452Y-0.678
X1.452Y-0.816
X1.452Y-0.954
X1.452Y-1.092
X1.452Y-1.23
X1.452Y-1.368
X1.452Y-1.506
X1.452Y-1.644
X1.452Y-2.7384
X1.452Y-2.8764
X1.452Y-3.0144
X1.452Y-3.1524
X1.452Y-3.2904
X1.452Y-3.4284
X1.452Y-3.5664
X1.452Y-3.7044
X1.452Y-3.8424
X1.452Y-4.9368
X1.452Y-5.0748
X1.452Y-5.2128
X1.452Y-5.3508
X1.452Y-5.4889
X1.452Y-5.6269
X1.452Y-5.7649
X1.452Y-5.9028
X1.452Y-6.0408
X1.5Y-1.878
X1.5Y-2.
X1.5Y-4.0764
X1.5Y-4.1984
X1.5Y-6.2748
X1.5Y-6.3968
X1.54Y-0.1005
X1.54Y-0.2215
X1.54Y-2.2989
X1.54Y-2.4199
X1.54Y-4.4973
X1.54Y-4.6183
X1.552Y-0.54
X1.552Y-0.678
X1.552Y-0.816
X1.552Y-0.954
X1.552Y-1.092
X1.552Y-1.23
X1.552Y-1.368
X1.552Y-1.506
X1.552Y-1.644
X1.552Y-2.7384
X1.552Y-2.8764
X1.552Y-3.0144
X1.552Y-3.1524
X1.552Y-3.2904
X1.552Y-3.4284
X1.552Y-3.5664
X1.552Y-3.7044
X1.552Y-3.8424
X1.552Y-4.9368
X1.552Y-5.0748
X1.552Y-5.2128
X1.552Y-5.3508
X1.552Y-5.4889
X1.552Y-5.6269
X1.552Y-5.7649
X1.552Y-5.9028
X1.552Y-6.0408
X1.6Y-1.878
X1.6Y-2.
X1.6Y-4.0764
X1.6Y-4.1984
X1.6Y-6.2748
X1.6Y-6.3968
X1.64Y-0.1005
X1.64Y-0.2215
X1.64Y-2.2989
X1.64Y-2.4199
X1.64Y-4.4973
X1.64Y-4.6183
X1.652Y-0.54
X1.652Y-0.678
X1.652Y-0.816
X1.652Y-0.954
X1.652Y-1.092
X1.652Y-1.23
X1.652Y-1.368
X1.652Y-1.506
X1.652Y-1.644
X1.652Y-2.7384
X1.652Y-2.8764
X1.652Y-3.0144
X1.652Y-3.1524
X1.652Y-3.2904
X1.652Y-3.4284
X1.652Y-3.5664
X1.652Y-3.7044
X1.652Y-3.8424
X1.652Y-4.9368
X1.652Y-5.0748
X1.652Y-5.2128
X1.652Y-5.3508
X1.652Y-5.4889
X1.652Y-5.6269
X1.652Y-5.7649
X1.652Y-5.9028
X1.652Y-6.0408
X1.7Y-1.878
X1.7Y-2.
X1.7Y-4.0764
X1.7Y-4.1984
X1.7Y-6.2748
X1.7Y-6.3968
X1.752Y-0.54
X1.752Y-0.678
X1.752Y-0.816
X1.752Y-0.954
X1.752Y-1.092
X1.752Y-1.23
X1.752Y-1.368
X1.752Y-1.506
X1.752Y-1.644
X1.752Y-2.7384
X1.752Y-2.8764
X1.752Y-3.0144
X1.752Y-3.1524
X1.752Y-3.2904
X1.752Y-3.4284
X1.752Y-3.5664
X1.752Y-3.7044
X1.752Y-3.8424
X1.752Y-4.9368
X1.752Y-5.0748
X1.752Y-5.2128
X1.752Y-5.3508
X1.752Y-5.4889
X1.752Y-5.6269
X1.752Y-5.7649
X1.752Y-5.9028
X1.752Y-6.0408
X1.8Y-0.1
X1.8Y-0.222
X1.8Y-1.878
X1.8Y-2.
X1.8Y-2.2984
X1.8Y-2.4204
X1.8Y-4.0764
X1.8Y-4.1984
X1.8Y-4.4969
X1.8Y-4.6189
X1.8Y-6.2748
X1.8Y-6.3968
X1.852Y-0.54
X1.852Y-0.678
X1.852Y-0.816
X1.852Y-0.954
X1.852Y-1.092
X1.852Y-1.23
X1.852Y-1.368
X1.852Y-1.506
X1.852Y-1.644
X1.852Y-2.7384
X1.852Y-2.8764
X1.852Y-3.0144
X1.852Y-3.1524
X1.852Y-3.2904
X1.852Y-3.4284
X1.852Y-3.5664
X1.852Y-3.7044
X1.852Y-3.8424
X1.852Y-4.9368
X1.852Y-5.0748
X1.852Y-5.2128
X1.852Y-5.3508
X1.852Y-5.4889
X1.852Y-5.6269
X1.852Y-5.7649
X1.852Y-5.9028
X1.852Y-6.0408
X1.9Y-0.1
X1.9Y-0.222
X1.9Y-2.2984
X1.9Y-2.4204
X1.9Y-4.4969
X1.9Y-4.6189
X1.952Y-0.54
X1.952Y-0.678
X1.952Y-0.816
X1.952Y-0.954
X1.952Y-1.092
X1.952Y-1.23
X1.952Y-1.368
X1.952Y-1.506
X1.952Y-1.644
X1.952Y-2.7384
X1.952Y-2.8764
X1.952Y-3.0144
X1.952Y-3.1524
X1.952Y-3.2904
X1.952Y-3.4284
X1.952Y-3.5664
X1.952Y-3.7044
X1.952Y-3.8424
X1.952Y-4.9368
X1.952Y-5.0748
X1.952Y-5.2128
X1.952Y-5.3508
X1.952Y-5.4889
X1.952Y-5.6269
X1.952Y-5.7649
X1.952Y-5.9028
X1.952Y-6.0408
X2.Y-0.1
X2.Y-0.222
X2.Y-1.878
X2.Y-2.
X2.Y-2.2984
X2.Y-2.4204
X2.Y-4.0764
X2.Y-4.1984
X2.Y-4.4969
X2.Y-4.6189
X2.Y-6.2748
X2.Y-6.3968
X2.052Y-0.54
X2.052Y-0.678
X2.052Y-0.816
X2.052Y-0.954
X2.052Y-1.092
X2.052Y-1.23
X2.052Y-1.368
X2.052Y-1.506
X2.052Y-1.644
X2.052Y-2.7384
X2.052Y-2.8764
X2.052Y-3.0144
X2.052Y-3.1524
X2.052Y-3.2904
X2.052Y-3.4284
X2.052Y-3.5664
X2.052Y-3.7044
X2.052Y-3.8424
X2.052Y-4.9368
X2.052Y-5.0748
X2.052Y-5.2128
X2.052Y-5.3508
X2.052Y-5.4889
X2.052Y-5.6269
X2.052Y-5.7649
X2.052Y-5.9028
X2.052Y-6.0408
X2.1Y-0.1
X2.1Y-0.222
X2.1Y-1.878
X2.1Y-2.
X2.1Y-2.2984
X2.1Y-2.4204
X2.1Y-4.0764
X2.1Y-4.1984
X2.1Y-4.4969
X2.1Y-4.6189
X2.1Y-6.2748
X2.1Y-6.3968
X2.152Y-0.54
X2.152Y-0.678
X2.152Y-0.816
X2.152Y-0.954
X2.152Y-1.092
X2.152Y-1.23
X2.152Y-1.368
X2.152Y-1.506
X2.152Y-1.644
X2.152Y-2.7384
X2.152Y-2.8764
X2.152Y-3.0144
X2.152Y-3.1524
X2.152Y-3.2904
X2.152Y-3.4284
X2.152Y-3.5664
X2.152Y-3.7044
X2.152Y-3.8424
X2.152Y-4.9368
X2.152Y-5.0748
X2.152Y-5.2128
X2.152Y-5.3508
X2.152Y-5.4889
X2.152Y-5.6269
X2.152Y-5.7649
X2.152Y-5.9028
X2.152Y-6.0408
X2.2Y-0.1
X2.2Y-0.222
X2.2Y-1.878
X2.2Y-2.
X2.2Y-2.2984
X2.2Y-2.4204
X2.2Y-4.0764
X2.2Y-4.1984
X2.2Y-4.4969
X2.2Y-4.6189
X2.2Y-6.2748
X2.2Y-6.3968
X2.252Y-0.54
X2.252Y-0.678
X2.252Y-0.816
X2.252Y-0.954
X2.252Y-1.092
X2.252Y-1.23
X2.252Y-1.368
X2.252Y-1.506
X2.252Y-1.644
X2.252Y-2.7384
X2.252Y-2.8764
X2.252Y-3.0144
X2.252Y-3.1524
X2.252Y-3.2904
X2.252Y-3.4284
X2.252Y-3.5664
X2.252Y-3.7044
X2.252Y-3.8424
X2.252Y-4.9368
X2.252Y-5.0748
X2.252Y-5.2128
X2.252Y-5.3508
X2.252Y-5.4889
X2.252Y-5.6269
X2.252Y-5.7649
X2.252Y-5.9028
X2.252Y-6.0408
X2.3Y-0.1
X2.3Y-0.222
X2.3Y-1.878
X2.3Y-2.
X2.3Y-2.2984
X2.3Y-2.4204
X2.3Y-4.0764
X2.3Y-4.1984
X2.3Y-4.4969
X2.3Y-4.6189
X2.3Y-6.2748
X2.3Y-6.3968
X2.352Y-0.54
X2.352Y-0.678
X2.352Y-0.816
X2.352Y-0.954
X2.352Y-1.092
X2.352Y-1.23
X2.352Y-1.368
X2.352Y-1.506
X2.352Y-1.644
X2.352Y-2.7384
X2.352Y-2.8764
X2.352Y-3.0144
X2.352Y-3.1524
X2.352Y-3.2904
X2.352Y-3.4284
X2.352Y-3.5664
X2.352Y-3.7044
X2.352Y-3.8424
X2.352Y-4.9368
X2.352Y-5.0748
X2.352Y-5.2128
X2.352Y-5.3508
X2.352Y-5.4889
X2.352Y-5.6269
X2.352Y-5.7649
X2.352Y-5.9028
X2.352Y-6.0408
X2.4Y-0.1
X2.4Y-0.222
X2.4Y-1.878
X2.4Y-2.
X2.4Y-2.2984
X2.4Y-2.4204
X2.4Y-4.0764
X2.4Y-4.1984
X2.4Y-4.4969
X2.4Y-4.6189
X2.4Y-6.2748
X2.4Y-6.3968
X2.5Y-0.1
X2.5Y-0.222
X2.5Y-1.878
X2.5Y-2.
X2.5Y-2.2984
X2.5Y-2.4204
X2.5Y-4.0764
X2.5Y-4.1984
X2.5Y-4.4969
X2.5Y-4.6189
X2.5Y-6.2748
X2.5Y-6.3968
X3.5384Y-0.1005
X3.5384Y-0.2215
X3.5384Y-2.2989
X3.5384Y-2.4199
X3.5384Y-4.4973
X3.5384Y-4.6183
X3.6384Y-0.1005
X3.6384Y-0.2215
X3.6384Y-2.2989
X3.6384Y-2.4199
X3.6384Y-4.4973
X3.6384Y-4.6183
X3.7384Y-0.1005
X3.7384Y-0.2215
X3.7384Y-2.2989
X3.7384Y-2.4199
X3.7384Y-4.4973
X3.7384Y-4.6183
X3.8384Y-0.1005
X3.8384Y-0.2215
X3.8384Y-2.2989
X3.8384Y-2.4199
X3.8384Y-4.4973
X3.8384Y-4.6183
X3.8504Y-0.54
X3.8504Y-0.678
X3.8504Y-0.816
X3.8504Y-0.954
X3.8504Y-1.092
X3.8504Y-1.23
X3.8504Y-1.368
X3.8504Y-1.506
X3.8504Y-1.644
X3.8504Y-2.7384
X3.8504Y-2.8764
X3.8504Y-3.0144
X3.8504Y-3.1524
X3.8504Y-3.2904
X3.8504Y-3.4284
X3.8504Y-3.5664
X3.8504Y-3.7044
X3.8504Y-3.8424
X3.8504Y-4.9368
X3.8504Y-5.0748
X3.8504Y-5.2128
X3.8504Y-5.3508
X3.8504Y-5.4889
X3.8504Y-5.6269
X3.8504Y-5.7649
X3.8504Y-5.9028
X3.8504Y-6.0408
X3.8984Y-1.878
X3.8984Y-2.
X3.8984Y-4.0764
X3.8984Y-4.1984
X3.8984Y-6.2748
X3.8984Y-6.3968
X3.9384Y-0.1005
X3.9384Y-0.2215
X3.9384Y-2.2989
X3.9384Y-2.4199
X3.9384Y-4.4973
X3.9384Y-4.6183
X3.9504Y-0.54
X3.9504Y-0.678
X3.9504Y-0.816
X3.9504Y-0.954
X3.9504Y-1.092
X3.9504Y-1.23
X3.9504Y-1.368
X3.9504Y-1.506
X3.9504Y-1.644
X3.9504Y-2.7384
X3.9504Y-2.8764
X3.9504Y-3.0144
X3.9504Y-3.1524
X3.9504Y-3.2904
X3.9504Y-3.4284
X3.9504Y-3.5664
X3.9504Y-3.7044
X3.9504Y-3.8424
X3.9504Y-4.9368
X3.9504Y-5.0748
X3.9504Y-5.2128
X3.9504Y-5.3508
X3.9504Y-5.4889
X3.9504Y-5.6269
X3.9504Y-5.7649
X3.9504Y-5.9028
X3.9504Y-6.0408
X3.9984Y-1.878
X3.9984Y-2.
X3.9984Y-4.0764
X3.9984Y-4.1984
X3.9984Y-6.2748
X3.9984Y-6.3968
X4.0384Y-0.1005
X4.0384Y-0.2215
X4.0384Y-2.2989
X4.0384Y-2.4199
X4.0384Y-4.4973
X4.0384Y-4.6183
X4.0504Y-0.54
X4.0504Y-0.678
X4.0504Y-0.816
X4.0504Y-0.954
X4.0504Y-1.092
X4.0504Y-1.23
X4.0504Y-1.368
X4.0504Y-1.506
X4.0504Y-1.644
X4.0504Y-2.7384
X4.0504Y-2.8764
X4.0504Y-3.0144
X4.0504Y-3.1524
X4.0504Y-3.2904
X4.0504Y-3.4284
X4.0504Y-3.5664
X4.0504Y-3.7044
X4.0504Y-3.8424
X4.0504Y-4.9368
X4.0504Y-5.0748
X4.0504Y-5.2128
X4.0504Y-5.3508
X4.0504Y-5.4889
X4.0504Y-5.6269
X4.0504Y-5.7649
X4.0504Y-5.9028
X4.0504Y-6.0408
X4.0984Y-1.878
X4.0984Y-2.
X4.0984Y-4.0764
X4.0984Y-4.1984
X4.0984Y-6.2748
X4.0984Y-6.3968
X4.1384Y-0.1005
X4.1384Y-0.2215
X4.1384Y-2.2989
X4.1384Y-2.4199
X4.1384Y-4.4973
X4.1384Y-4.6183
X4.1504Y-0.54
X4.1504Y-0.678
X4.1504Y-0.816
X4.1504Y-0.954
X4.1504Y-1.092
X4.1504Y-1.23
X4.1504Y-1.368
X4.1504Y-1.506
X4.1504Y-1.644
X4.1504Y-2.7384
X4.1504Y-2.8764
X4.1504Y-3.0144
X4.1504Y-3.1524
X4.1504Y-3.2904
X4.1504Y-3.4284
X4.1504Y-3.5664
X4.1504Y-3.7044
X4.1504Y-3.8424
X4.1504Y-4.9368
X4.1504Y-5.0748
X4.1504Y-5.2128
X4.1504Y-5.3508
X4.1504Y-5.4889
X4.1504Y-5.6269
X4.1504Y-5.7649
X4.1504Y-5.9028
X4.1504Y-6.0408
X4.1984Y-1.878
X4.1984Y-2.
X4.1984Y-4.0764
X4.1984Y-4.1984
X4.1984Y-6.2748
X4.1984Y-6.3968
X4.2384Y-0.1005
X4.2384Y-0.2215
X4.2384Y-2.2989
X4.2384Y-2.4199
X4.2384Y-4.4973
X4.2384Y-4.6183
X4.2504Y-0.54
X4.2504Y-0.678
X4.2504Y-0.816
X4.2504Y-0.954
X4.2504Y-1.092
X4.2504Y-1.23
X4.2504Y-1.368
X4.2504Y-1.506
X4.2504Y-1.644
X4.2504Y-2.7384
X4.2504Y-2.8764
X4.2504Y-3.0144
X4.2504Y-3.1524
X4.2504Y-3.2904
X4.2504Y-3.4284
X4.2504Y-3.5664
X4.2504Y-3.7044
X4.2504Y-3.8424
X4.2504Y-4.9368
X4.2504Y-5.0748
X4.2504Y-5.2128
X4.2504Y-5.3508
X4.2504Y-5.4889
X4.2504Y-5.6269
X4.2504Y-5.7649
X4.2504Y-5.9028
X4.2504Y-6.0408
X4.2984Y-1.878
X4.2984Y-2.
X4.2984Y-4.0764
X4.2984Y-4.1984
X4.2984Y-6.2748
X4.2984Y-6.3968
X4.3384Y-0.1005
X4.3384Y-0.2215
X4.3384Y-2.2989
X4.3384Y-2.4199
X4.3384Y-4.4973
X4.3384Y-4.6183
X4.3504Y-0.54
X4.3504Y-0.678
X4.3504Y-0.816
X4.3504Y-0.954
X4.3504Y-1.092
X4.3504Y-1.23
X4.3504Y-1.368
X4.3504Y-1.506
X4.3504Y-1.644
X4.3504Y-2.7384
X4.3504Y-2.8764
X4.3504Y-3.0144
X4.3504Y-3.1524
X4.3504Y-3.2904
X4.3504Y-3.4284
X4.3504Y-3.5664
X4.3504Y-3.7044
X4.3504Y-3.8424
X4.3504Y-4.9368
X4.3504Y-5.0748
X4.3504Y-5.2128
X4.3504Y-5.3508
X4.3504Y-5.4889
X4.3504Y-5.6269
X4.3504Y-5.7649
X4.3504Y-5.9028
X4.3504Y-6.0408
X4.3984Y-1.878
X4.3984Y-2.
X4.3984Y-4.0764
X4.3984Y-4.1984
X4.3984Y-6.2748
X4.3984Y-6.3968
X4.4384Y-0.1005
X4.4384Y-0.2215
X4.4384Y-2.2989
X4.4384Y-2.4199
X4.4384Y-4.4973
X4.4384Y-4.6183
X4.4504Y-0.54
X4.4504Y-0.678
X4.4504Y-0.816
X4.4504Y-0.954
X4.4504Y-1.092
X4.4504Y-1.23
X4.4504Y-1.368
X4.4504Y-1.506
X4.4504Y-1.644
X4.4504Y-2.7384
X4.4504Y-2.8764
X4.4504Y-3.0144
X4.4504Y-3.1524
X4.4504Y-3.2904
X4.4504Y-3.4284
X4.4504Y-3.5664
X4.4504Y-3.7044
X4.4504Y-3.8424
X4.4504Y-4.9368
X4.4504Y-5.0748
X4.4504Y-5.2128
X4.4504Y-5.3508
X4.4504Y-5.4889
X4.4504Y-5.6269
X4.4504Y-5.7649
X4.4504Y-5.9028
X4.4504Y-6.0408
X4.4984Y-1.878
X4.4984Y-2.
X4.4984Y-4.0764
X4.4984Y-4.1984
X4.4984Y-6.2748
X4.4984Y-6.3968
X4.5504Y-0.54
X4.5504Y-0.678
X4.5504Y-0.816
X4.5504Y-0.954
X4.5504Y-1.092
X4.5504Y-1.23
X4.5504Y-1.368
X4.5504Y-1.506
X4.5504Y-1.644
X4.5504Y-2.7384
X4.5504Y-2.8764
X4.5504Y-3.0144
X4.5504Y-3.1524
X4.5504Y-3.2904
X4.5504Y-3.4284
X4.5504Y-3.5664
X4.5504Y-3.7044
X4.5504Y-3.8424
X4.5504Y-4.9368
X4.5504Y-5.0748
X4.5504Y-5.2128
X4.5504Y-5.3508
X4.5504Y-5.4889
X4.5504Y-5.6269
X4.5504Y-5.7649
X4.5504Y-5.9028
X4.5504Y-6.0408
X4.5984Y-0.1
X4.5984Y-0.222
X4.5984Y-1.878
X4.5984Y-2.
X4.5984Y-2.2984
X4.5984Y-2.4204
X4.5984Y-4.0764
X4.5984Y-4.1984
X4.5984Y-4.4969
X4.5984Y-4.6189
X4.5984Y-6.2748
X4.5984Y-6.3968
X4.6504Y-0.54
X4.6504Y-0.678
X4.6504Y-0.816
X4.6504Y-0.954
X4.6504Y-1.092
X4.6504Y-1.23
X4.6504Y-1.368
X4.6504Y-1.506
X4.6504Y-1.644
X4.6504Y-2.7384
X4.6504Y-2.8764
X4.6504Y-3.0144
X4.6504Y-3.1524
X4.6504Y-3.2904
X4.6504Y-3.4284
X4.6504Y-3.5664
X4.6504Y-3.7044
X4.6504Y-3.8424
X4.6504Y-4.9368
X4.6504Y-5.0748
X4.6504Y-5.2128
X4.6504Y-5.3508
X4.6504Y-5.4889
X4.6504Y-5.6269
X4.6504Y-5.7649
X4.6504Y-5.9028
X4.6504Y-6.0408
X4.6984Y-0.1
X4.6984Y-0.222
X4.6984Y-2.2984
X4.6984Y-2.4204
X4.6984Y-4.4969
X4.6984Y-4.6189
X4.7504Y-0.54
X4.7504Y-0.678
X4.7504Y-0.816
X4.7504Y-0.954
X4.7504Y-1.092
X4.7504Y-1.23
X4.7504Y-1.368
X4.7504Y-1.506
X4.7504Y-1.644
X4.7504Y-2.7384
X4.7504Y-2.8764
X4.7504Y-3.0144
X4.7504Y-3.1524
X4.7504Y-3.2904
X4.7504Y-3.4284
X4.7504Y-3.5664
X4.7504Y-3.7044
X4.7504Y-3.8424
X4.7504Y-4.9368
X4.7504Y-5.0748
X4.7504Y-5.2128
X4.7504Y-5.3508
X4.7504Y-5.4889
X4.7504Y-5.6269
X4.7504Y-5.7649
X4.7504Y-5.9028
X4.7504Y-6.0408
X4.7984Y-0.1
X4.7984Y-0.222
X4.7984Y-1.878
X4.7984Y-2.
X4.7984Y-2.2984
X4.7984Y-2.4204
X4.7984Y-4.0764
X4.7984Y-4.1984
X4.7984Y-4.4969
X4.7984Y-4.6189
X4.7984Y-6.2748
X4.7984Y-6.3968
X4.8504Y-0.54
X4.8504Y-0.678
X4.8504Y-0.816
X4.8504Y-0.954
X4.8504Y-1.092
X4.8504Y-1.23
X4.8504Y-1.368
X4.8504Y-1.506
X4.8504Y-1.644
X4.8504Y-2.7384
X4.8504Y-2.8764
X4.8504Y-3.0144
X4.8504Y-3.1524
X4.8504Y-3.2904
X4.8504Y-3.4284
X4.8504Y-3.5664
X4.8504Y-3.7044
X4.8504Y-3.8424
X4.8504Y-4.9368
X4.8504Y-5.0748
X4.8504Y-5.2128
X4.8504Y-5.3508
X4.8504Y-5.4889
X4.8504Y-5.6269
X4.8504Y-5.7649
X4.8504Y-5.9028
X4.8504Y-6.0408
X4.8984Y-0.1
X4.8984Y-0.222
X4.8984Y-1.878
X4.8984Y-2.
X4.8984Y-2.2984
X4.8984Y-2.4204
X4.8984Y-4.0764
X4.8984Y-4.1984
X4.8984Y-4.4969
X4.8984Y-4.6189
X4.8984Y-6.2748
X4.8984Y-6.3968
X4.9504Y-0.54
X4.9504Y-0.678
X4.9504Y-0.816
X4.9504Y-0.954
X4.9504Y-1.092
X4.9504Y-1.23
X4.9504Y-1.368
X4.9504Y-1.506
X4.9504Y-1.644
X4.9504Y-2.7384
X4.9504Y-2.8764
X4.9504Y-3.0144
X4.9504Y-3.1524
X4.9504Y-3.2904
X4.9504Y-3.4284
X4.9504Y-3.5664
X4.9504Y-3.7044
X4.9504Y-3.8424
X4.9504Y-4.9368
X4.9504Y-5.0748
X4.9504Y-5.2128
X4.9504Y-5.3508
X4.9504Y-5.4889
X4.9504Y-5.6269
X4.9504Y-5.7649
X4.9504Y-5.9028
X4.9504Y-6.0408
X4.9984Y-0.1
X4.9984Y-0.222
X4.9984Y-1.878
X4.9984Y-2.
X4.9984Y-2.2984
X4.9984Y-2.4204
X4.9984Y-4.0764
X4.9984Y-4.1984
X4.9984Y-4.4969
X4.9984Y-4.6189
X4.9984Y-6.2748
X4.9984Y-6.3968
X5.0504Y-0.54
X5.0504Y-0.678
X5.0504Y-0.816
X5.0504Y-0.954
X5.0504Y-1.092
X5.0504Y-1.23
X5.0504Y-1.368
X5.0504Y-1.506
X5.0504Y-1.644
X5.0504Y-2.7384
X5.0504Y-2.8764
X5.0504Y-3.0144
X5.0504Y-3.1524
X5.0504Y-3.2904
X5.0504Y-3.4284
X5.0504Y-3.5664
X5.0504Y-3.7044
X5.0504Y-3.8424
X5.0504Y-4.9368
X5.0504Y-5.0748
X5.0504Y-5.2128
X5.0504Y-5.3508
X5.0504Y-5.4889
X5.0504Y-5.6269
X5.0504Y-5.7649
X5.0504Y-5.9028
X5.0504Y-6.0408
X5.0984Y-0.1
X5.0984Y-0.222
X5.0984Y-1.878
X5.0984Y-2.
X5.0984Y-2.2984
X5.0984Y-2.4204
X5.0984Y-4.0764
X5.0984Y-4.1984
X5.0984Y-4.4969
X5.0984Y-4.6189
X5.0984Y-6.2748
X5.0984Y-6.3968
X5.1504Y-0.54
X5.1504Y-0.678
X5.1504Y-0.816
X5.1504Y-0.954
X5.1504Y-1.092
X5.1504Y-1.23
X5.1504Y-1.368
X5.1504Y-1.506
X5.1504Y-1.644
X5.1504Y-2.7384
X5.1504Y-2.8764
X5.1504Y-3.0144
X5.1504Y-3.1524
X5.1504Y-3.2904
X5.1504Y-3.4284
X5.1504Y-3.5664
X5.1504Y-3.7044
X5.1504Y-3.8424
X5.1504Y-4.9368
X5.1504Y-5.0748
X5.1504Y-5.2128
X5.1504Y-5.3508
X5.1504Y-5.4889
X5.1504Y-5.6269
X5.1504Y-5.7649
X5.1504Y-5.9028
X5.1504Y-6.0408
X5.1984Y-0.1
X5.1984Y-0.222
X5.1984Y-1.878
X5.1984Y-2.
X5.1984Y-2.2984
X5.1984Y-2.4204
X5.1984Y-4.0764
X5.1984Y-4.1984
X5.1984Y-4.4969
X5.1984Y-4.6189
X5.1984Y-6.2748
X5.1984Y-6.3968
X5.2984Y-0.1
X5.2984Y-0.222
X5.2984Y-1.878
X5.2984Y-2.
X5.2984Y-2.2984
X5.2984Y-2.4204
X5.2984Y-4.0764
X5.2984Y-4.1984
X5.2984Y-4.4969
X5.2984Y-4.6189
X5.2984Y-6.2748
X5.2984Y-6.3968
T6
X0.297Y-0.3188
X0.297Y-0.9588
X0.297Y-1.1412
X0.297Y-1.7812
X0.297Y-2.5172
X0.297Y-3.1572
X0.297Y-3.3396
X0.297Y-3.9796
X0.297Y-4.7157
X0.297Y-5.3557
X0.297Y-5.538
X0.297Y-6.178
X3.0954Y-0.3188
X3.0954Y-0.9588
X3.0954Y-1.1412
X3.0954Y-1.7812
X3.0954Y-2.5172
X3.0954Y-3.1572
X3.0954Y-3.3396
X3.0954Y-3.9796
X3.0954Y-4.7157
X3.0954Y-5.3557
X3.0954Y-5.538
X3.0954Y-6.178
T7
X0.55Y-2.
X0.55Y-4.1984
X0.55Y-6.3968
X0.6Y-0.1
X0.6Y-2.2984
X0.6Y-4.4969
X2.6Y-0.7
X2.6Y-1.8
X2.6Y-2.8984
X2.6Y-3.9984
X2.6Y-5.0968
X2.6Y-6.1968
X3.3484Y-2.
X3.3484Y-4.1984
X3.3484Y-6.3968
X3.3984Y-0.1
X3.3984Y-2.2984
X3.3984Y-4.4969
X5.3984Y-0.7
X5.3984Y-1.8
X5.3984Y-2.8984
X5.3984Y-3.9984
X5.3984Y-5.0968
X5.3984Y-6.1968
T8
X0.162Y-0.3888
X0.162Y-0.8888
X0.162Y-1.2112
X0.162Y-1.7112
X0.162Y-2.5872
X0.162Y-3.0872
X0.162Y-3.4096
X0.162Y-3.9096
X0.162Y-4.7857
X0.162Y-5.2857
X0.162Y-5.608
X0.162Y-6.108
X2.9604Y-0.3888
X2.9604Y-0.8888
X2.9604Y-1.2112
X2.9604Y-1.7112
X2.9604Y-2.5872
X2.9604Y-3.0872
X2.9604Y-3.4096
X2.9604Y-3.9096
X2.9604Y-4.7857
X2.9604Y-5.2857
X2.9604Y-5.608
X2.9604Y-6.108
T0
M30
