M48
;DRILL file {KiCad 4.0.1-stable} date Tue 12 Jul 2016 11:04:58 AM CEST
;FORMAT={-:-/ absolute / inch / decimal}
FMAT,2
INCH,TZ
T1C0.012
T2C0.015
T3C0.018
T4C0.035
T5C0.040
T6C0.120
T7C0.126
T8C0.130
%
G90
G05
M72
T1
X0.2869Y1.4235
X0.2869Y0.5265
X0.3109Y1.5735
X0.3109Y0.6765
X0.3349Y1.6735
X0.3349Y0.7765
X0.3589Y1.6235
X0.3589Y0.7265
X0.5619Y1.674
X0.5619Y1.3735
X0.6399Y1.2268
X0.6689Y1.822
X0.6689Y1.446
X0.6689Y1.2909
X0.6934Y1.798
X0.6934Y1.396
X0.6944Y1.3125
X0.6947Y1.346
X0.7249Y1.571
X0.7249Y1.346
X0.7504Y1.611
X0.7504Y1.446
X0.7774Y1.421
X0.7774Y1.3125
X0.7789Y1.6425
X0.779Y1.496
X0.7899Y2.0575
X0.7899Y1.7545
X0.8284Y1.7102
X0.9409Y1.4492
X0.9882Y0.319
X1.0069Y1.774
X1.0069Y1.596
X1.0399Y2.0575
X1.1002Y0.3193
T2
X1.017Y0.0283
X1.0171Y0.6784
X1.4998Y0.3538
X2.4811Y0.3538
T3
X0.2564Y1.4735
X0.2564Y0.5765
X0.4544Y1.748
T4
X0.4039Y0.7765
X0.4039Y0.6765
X0.4039Y0.5765
X0.4039Y0.4765
X0.4044Y1.6735
X0.4044Y1.5735
X0.4044Y1.4735
X0.4044Y1.3735
X0.5039Y0.7265
X0.5039Y0.6265
X0.5039Y0.5265
X0.5039Y0.4265
X0.5044Y1.6235
X0.5044Y1.5235
X0.5044Y1.4235
X0.5044Y1.3235
T5
X0.74Y1.9995
X0.74Y1.8785
X0.84Y1.9995
X0.84Y1.8785
X0.94Y1.9995
X0.94Y1.8785
X1.04Y1.9995
X1.04Y1.8785
X1.0995Y1.199
X1.1Y1.6379
X1.1Y1.499
X1.1Y1.399
X1.1Y1.299
X1.1Y1.0611
X1.1Y0.9221
X1.1Y0.8221
X1.1Y0.7221
X1.1Y0.6221
X1.1Y0.4842
X1.1Y0.222
X1.1Y0.1
X1.14Y1.9995
X1.14Y1.8785
X1.2Y1.6379
X1.2Y1.499
X1.2Y1.399
X1.2Y1.299
X1.2Y1.199
X1.2Y1.0611
X1.2Y0.9221
X1.2Y0.8221
X1.2Y0.7221
X1.2Y0.6221
X1.2Y0.4842
X1.2Y0.222
X1.2Y0.1
X1.24Y1.9995
X1.24Y1.8785
X1.3Y1.6379
X1.3Y1.499
X1.3Y1.399
X1.3Y1.299
X1.3Y1.199
X1.3Y1.0611
X1.3Y0.9221
X1.3Y0.8221
X1.3Y0.7221
X1.3Y0.6221
X1.3Y0.4842
X1.3Y0.222
X1.3Y0.1
X1.34Y1.9995
X1.34Y1.8785
X1.4Y1.6379
X1.4Y1.499
X1.4Y1.399
X1.4Y1.299
X1.4Y1.199
X1.4Y1.0611
X1.4Y0.9221
X1.4Y0.8221
X1.4Y0.7221
X1.4Y0.6221
X1.4Y0.4842
X1.4Y0.222
X1.4Y0.1
X1.44Y1.9995
X1.44Y1.8785
X1.5Y1.6379
X1.5Y1.499
X1.5Y1.399
X1.5Y1.299
X1.5Y1.199
X1.5Y1.0611
X1.5Y0.9221
X1.5Y0.8221
X1.5Y0.7221
X1.5Y0.6221
X1.5Y0.4842
X1.5Y0.222
X1.5Y0.1
X1.54Y1.9995
X1.54Y1.8785
X1.6Y1.6379
X1.6Y1.499
X1.6Y1.399
X1.6Y1.299
X1.6Y1.199
X1.6Y1.0611
X1.6Y0.9221
X1.6Y0.8221
X1.6Y0.7221
X1.6Y0.6221
X1.6Y0.4842
X1.6Y0.222
X1.6Y0.1
X1.64Y1.9995
X1.64Y1.8785
X1.7Y1.6379
X1.7Y1.499
X1.7Y1.399
X1.7Y1.299
X1.7Y1.199
X1.7Y1.0611
X1.7Y0.9221
X1.7Y0.8221
X1.7Y0.7221
X1.7Y0.6221
X1.7Y0.4842
X1.7Y0.222
X1.7Y0.1
X1.8Y2.
X1.8Y1.878
X1.8Y1.6379
X1.8Y1.499
X1.8Y1.399
X1.8Y1.299
X1.8Y1.199
X1.8Y1.0611
X1.8Y0.9221
X1.8Y0.8221
X1.8Y0.7221
X1.8Y0.6221
X1.8Y0.4842
X1.8Y0.222
X1.8Y0.1
X1.9Y2.
X1.9Y1.878
X1.9Y1.6379
X1.9Y1.499
X1.9Y1.399
X1.9Y1.299
X1.9Y1.199
X1.9Y1.0611
X1.9Y0.9221
X1.9Y0.8221
X1.9Y0.7221
X1.9Y0.6221
X1.9Y0.4842
X2.Y2.
X2.Y1.878
X2.Y1.6379
X2.Y1.499
X2.Y1.399
X2.Y1.299
X2.Y1.199
X2.Y1.0611
X2.Y0.9221
X2.Y0.8221
X2.Y0.7221
X2.Y0.6221
X2.Y0.4842
X2.Y0.222
X2.Y0.1
X2.1Y2.
X2.1Y1.878
X2.1Y1.6379
X2.1Y1.499
X2.1Y1.399
X2.1Y1.299
X2.1Y1.199
X2.1Y1.0611
X2.1Y0.9221
X2.1Y0.8221
X2.1Y0.7221
X2.1Y0.6221
X2.1Y0.4842
X2.1Y0.222
X2.1Y0.1
X2.2Y2.
X2.2Y1.878
X2.2Y1.6379
X2.2Y1.499
X2.2Y1.399
X2.2Y1.299
X2.2Y1.199
X2.2Y1.0611
X2.2Y0.9221
X2.2Y0.8221
X2.2Y0.7221
X2.2Y0.6221
X2.2Y0.4842
X2.2Y0.222
X2.2Y0.1
X2.3Y2.
X2.3Y1.878
X2.3Y1.6379
X2.3Y1.499
X2.3Y1.399
X2.3Y1.299
X2.3Y1.199
X2.3Y1.0611
X2.3Y0.9221
X2.3Y0.8221
X2.3Y0.7221
X2.3Y0.6221
X2.3Y0.4842
X2.3Y0.222
X2.3Y0.1
X2.4Y2.
X2.4Y1.878
X2.4Y1.6379
X2.4Y1.499
X2.4Y1.399
X2.4Y1.299
X2.4Y1.199
X2.4Y1.0611
X2.4Y0.9221
X2.4Y0.8221
X2.4Y0.7221
X2.4Y0.6221
X2.4Y0.4842
X2.4Y0.222
X2.4Y0.1
X2.5Y2.
X2.5Y1.878
X2.5Y0.222
X2.5Y0.1
T6
X0.55Y0.1
X0.6Y2.
X2.6Y1.4
X2.6Y0.3
T7
X0.1539Y0.835
X0.1544Y1.732
T8
X0.1539Y0.3677
X0.1544Y1.2647
T0
M30
