M48
;DRILL file {KiCad no-vcs-found-product} date Sat 17 Oct 2015 02:14:02 PM BRT
;FORMAT={-:-/ absolute / inch / decimal}
FMAT,2
INCH,TZ
T1C0.012
T2C0.015
T3C0.018
T4C0.035
T5C0.040
T6C0.062
T7C0.120
T8C0.130
%
G90
G05
M72
T1
X0.762Y-0.892
X0.762Y-3.0904
X0.762Y-5.2889
X1.047Y-0.914
X1.047Y-3.1124
X1.047Y-5.3109
X1.049Y-1.048
X1.049Y-3.2464
X1.049Y-5.4448
X1.1115Y-0.7605
X1.1115Y-2.9589
X1.1115Y-5.1574
X1.175Y-1.259
X1.175Y-3.4574
X1.175Y-5.6559
X1.3715Y-0.889
X1.3715Y-3.0874
X1.3715Y-5.2858
X1.4058Y-0.8469
X1.4058Y-3.0453
X1.4058Y-5.2437
X1.4495Y-0.889
X1.4495Y-3.0874
X1.4495Y-5.2858
X3.5604Y-0.892
X3.5604Y-3.0904
X3.5604Y-5.2889
X3.8454Y-0.914
X3.8454Y-3.1124
X3.8454Y-5.3109
X3.8474Y-1.048
X3.8474Y-3.2464
X3.8474Y-5.4448
X3.9099Y-0.7605
X3.9099Y-2.9589
X3.9099Y-5.1574
X3.9734Y-1.259
X3.9734Y-3.4574
X3.9734Y-5.6559
X4.1699Y-0.889
X4.1699Y-3.0874
X4.1699Y-5.2858
X4.2042Y-0.8469
X4.2042Y-3.0453
X4.2042Y-5.2437
X4.2479Y-0.889
X4.2479Y-3.0874
X4.2479Y-5.2858
T2
X0.58Y-0.591
X0.58Y-2.7894
X0.58Y-4.9878
X0.628Y-1.04
X0.628Y-1.187
X0.628Y-3.2384
X0.628Y-3.3854
X0.628Y-5.4368
X0.628Y-5.5838
X0.64Y-1.861
X0.64Y-4.0594
X0.64Y-6.2578
X0.696Y-2.314
X0.696Y-2.529
X0.696Y-4.5124
X0.696Y-4.7274
X0.696Y-6.7108
X0.696Y-6.9258
X0.699Y-1.554
X0.699Y-3.7524
X0.699Y-5.9508
X0.745Y-0.664
X0.745Y-2.8624
X0.745Y-5.0609
X0.7805Y-1.3625
X0.7805Y-3.5609
X0.7805Y-5.7593
X0.822Y-2.196
X0.822Y-4.3944
X0.822Y-6.5928
X0.8725Y-0.784
X0.8725Y-2.9824
X0.8725Y-5.1808
X0.923Y-0.849
X0.923Y-3.0474
X0.923Y-5.2458
X0.926Y-1.151
X0.926Y-3.3494
X0.926Y-5.5478
X1.043Y-1.265
X1.043Y-3.4634
X1.043Y-5.6619
X1.097Y-1.534
X1.097Y-3.7324
X1.097Y-5.9308
X1.134Y-1.716
X1.134Y-3.9144
X1.134Y-6.1128
X1.146Y-2.269
X1.146Y-4.4674
X1.146Y-6.6658
X1.1535Y-0.811
X1.1535Y-3.0094
X1.1535Y-5.2078
X1.174Y-1.304
X1.174Y-3.5024
X1.174Y-5.7008
X1.187Y-2.544
X1.187Y-4.7424
X1.187Y-6.9409
X1.199Y-1.124
X1.199Y-3.3224
X1.199Y-5.5209
X1.256Y-1.511
X1.256Y-3.7094
X1.256Y-5.9078
X1.327Y-1.486
X1.327Y-3.6844
X1.327Y-5.8828
X3.3784Y-0.591
X3.3784Y-2.7894
X3.3784Y-4.9878
X3.4264Y-1.04
X3.4264Y-1.187
X3.4264Y-3.2384
X3.4264Y-3.3854
X3.4264Y-5.4368
X3.4264Y-5.5838
X3.4384Y-1.861
X3.4384Y-4.0594
X3.4384Y-6.2578
X3.4944Y-2.314
X3.4944Y-2.529
X3.4944Y-4.5124
X3.4944Y-4.7274
X3.4944Y-6.7108
X3.4944Y-6.9258
X3.4974Y-1.554
X3.4974Y-3.7524
X3.4974Y-5.9508
X3.5434Y-0.664
X3.5434Y-2.8624
X3.5434Y-5.0609
X3.5789Y-1.3625
X3.5789Y-3.5609
X3.5789Y-5.7593
X3.6204Y-2.196
X3.6204Y-4.3944
X3.6204Y-6.5928
X3.6709Y-0.784
X3.6709Y-2.9824
X3.6709Y-5.1808
X3.7214Y-0.849
X3.7214Y-3.0474
X3.7214Y-5.2458
X3.7244Y-1.151
X3.7244Y-3.3494
X3.7244Y-5.5478
X3.8414Y-1.265
X3.8414Y-3.4634
X3.8414Y-5.6619
X3.8954Y-1.534
X3.8954Y-3.7324
X3.8954Y-5.9308
X3.9324Y-1.716
X3.9324Y-3.9144
X3.9324Y-6.1128
X3.9444Y-2.269
X3.9444Y-4.4674
X3.9444Y-6.6658
X3.9519Y-0.811
X3.9519Y-3.0094
X3.9519Y-5.2078
X3.9724Y-1.304
X3.9724Y-3.5024
X3.9724Y-5.7008
X3.9854Y-2.544
X3.9854Y-4.7424
X3.9854Y-6.9409
X3.9974Y-1.124
X3.9974Y-3.3224
X3.9974Y-5.5209
X4.0544Y-1.511
X4.0544Y-3.7094
X4.0544Y-5.9078
X4.1254Y-1.486
X4.1254Y-3.6844
X4.1254Y-5.8828
T3
X0.554Y-1.12
X0.554Y-3.3184
X0.554Y-5.5168
X0.984Y-0.611
X0.984Y-0.709
X0.984Y-2.8094
X0.984Y-2.9074
X0.984Y-5.0078
X0.984Y-5.1059
X1.038Y-1.892
X1.038Y-4.0904
X1.038Y-6.2889
X1.234Y-2.306
X1.234Y-4.5044
X1.234Y-6.7028
X1.272Y-1.104
X1.272Y-1.154
X1.272Y-1.204
X1.272Y-1.254
X1.272Y-3.3024
X1.272Y-3.3524
X1.272Y-3.4024
X1.272Y-3.4524
X1.272Y-5.5008
X1.272Y-5.5508
X1.272Y-5.6008
X1.272Y-5.6509
X1.276Y-1.03
X1.276Y-3.2284
X1.276Y-5.4268
X3.3524Y-1.12
X3.3524Y-3.3184
X3.3524Y-5.5168
X3.7824Y-0.611
X3.7824Y-0.709
X3.7824Y-2.8094
X3.7824Y-2.9074
X3.7824Y-5.0078
X3.7824Y-5.1059
X3.8364Y-1.892
X3.8364Y-4.0904
X3.8364Y-6.2889
X4.0324Y-2.306
X4.0324Y-4.5044
X4.0324Y-6.7028
X4.0704Y-1.104
X4.0704Y-1.154
X4.0704Y-1.204
X4.0704Y-1.254
X4.0704Y-3.3024
X4.0704Y-3.3524
X4.0704Y-3.4024
X4.0704Y-3.4524
X4.0704Y-5.5008
X4.0704Y-5.5508
X4.0704Y-5.6008
X4.0704Y-5.6509
X4.0744Y-1.03
X4.0744Y-3.2284
X4.0744Y-5.4268
T4
X0.762Y-1.0388
X0.762Y-1.1188
X0.762Y-1.1988
X0.762Y-1.2788
X0.762Y-1.8612
X0.762Y-1.9412
X0.762Y-2.0212
X0.762Y-2.1012
X0.762Y-3.2372
X0.762Y-3.3172
X0.762Y-3.3972
X0.762Y-3.4772
X0.762Y-4.0596
X0.762Y-4.1396
X0.762Y-4.2196
X0.762Y-4.2996
X0.762Y-5.4357
X0.762Y-5.5157
X0.762Y-5.5957
X0.762Y-5.6757
X0.762Y-6.258
X0.762Y-6.338
X0.762Y-6.418
X0.762Y-6.498
X0.832Y-0.9988
X0.832Y-1.0788
X0.832Y-1.1588
X0.832Y-1.2388
X0.832Y-1.8212
X0.832Y-1.9012
X0.832Y-1.9812
X0.832Y-2.0612
X0.832Y-3.1972
X0.832Y-3.2772
X0.832Y-3.3572
X0.832Y-3.4372
X0.832Y-4.0196
X0.832Y-4.0996
X0.832Y-4.1796
X0.832Y-4.2596
X0.832Y-5.3957
X0.832Y-5.4757
X0.832Y-5.5557
X0.832Y-5.6357
X0.832Y-6.218
X0.832Y-6.298
X0.832Y-6.378
X0.832Y-6.458
X1.022Y-0.8688
X1.022Y-0.9588
X1.022Y-1.3188
X1.022Y-1.4088
X1.022Y-1.6912
X1.022Y-1.7812
X1.022Y-2.1412
X1.022Y-2.2312
X1.022Y-3.0672
X1.022Y-3.1572
X1.022Y-3.5172
X1.022Y-3.6072
X1.022Y-3.8896
X1.022Y-3.9796
X1.022Y-4.3396
X1.022Y-4.4296
X1.022Y-5.2657
X1.022Y-5.3557
X1.022Y-5.7157
X1.022Y-5.8057
X1.022Y-6.088
X1.022Y-6.178
X1.022Y-6.538
X1.022Y-6.628
X3.5604Y-1.0388
X3.5604Y-1.1188
X3.5604Y-1.1988
X3.5604Y-1.2788
X3.5604Y-1.8612
X3.5604Y-1.9412
X3.5604Y-2.0212
X3.5604Y-2.1012
X3.5604Y-3.2372
X3.5604Y-3.3172
X3.5604Y-3.3972
X3.5604Y-3.4772
X3.5604Y-4.0596
X3.5604Y-4.1396
X3.5604Y-4.2196
X3.5604Y-4.2996
X3.5604Y-5.4357
X3.5604Y-5.5157
X3.5604Y-5.5957
X3.5604Y-5.6757
X3.5604Y-6.258
X3.5604Y-6.338
X3.5604Y-6.418
X3.5604Y-6.498
X3.6304Y-0.9988
X3.6304Y-1.0788
X3.6304Y-1.1588
X3.6304Y-1.2388
X3.6304Y-1.8212
X3.6304Y-1.9012
X3.6304Y-1.9812
X3.6304Y-2.0612
X3.6304Y-3.1972
X3.6304Y-3.2772
X3.6304Y-3.3572
X3.6304Y-3.4372
X3.6304Y-4.0196
X3.6304Y-4.0996
X3.6304Y-4.1796
X3.6304Y-4.2596
X3.6304Y-5.3957
X3.6304Y-5.4757
X3.6304Y-5.5557
X3.6304Y-5.6357
X3.6304Y-6.218
X3.6304Y-6.298
X3.6304Y-6.378
X3.6304Y-6.458
X3.8204Y-0.8688
X3.8204Y-0.9588
X3.8204Y-1.3188
X3.8204Y-1.4088
X3.8204Y-1.6912
X3.8204Y-1.7812
X3.8204Y-2.1412
X3.8204Y-2.2312
X3.8204Y-3.0672
X3.8204Y-3.1572
X3.8204Y-3.5172
X3.8204Y-3.6072
X3.8204Y-3.8896
X3.8204Y-3.9796
X3.8204Y-4.3396
X3.8204Y-4.4296
X3.8204Y-5.2657
X3.8204Y-5.3557
X3.8204Y-5.7157
X3.8204Y-5.8057
X3.8204Y-6.088
X3.8204Y-6.178
X3.8204Y-6.538
X3.8204Y-6.628
T5
X1.24Y-0.6005
X1.24Y-0.7215
X1.24Y-2.7989
X1.24Y-2.9199
X1.24Y-4.9973
X1.24Y-5.1183
X1.34Y-0.6005
X1.34Y-0.7215
X1.34Y-2.7989
X1.34Y-2.9199
X1.34Y-4.9973
X1.34Y-5.1183
X1.44Y-0.6005
X1.44Y-0.7215
X1.44Y-2.7989
X1.44Y-2.9199
X1.44Y-4.9973
X1.44Y-5.1183
X1.54Y-0.6005
X1.54Y-0.7215
X1.54Y-2.7989
X1.54Y-2.9199
X1.54Y-4.9973
X1.54Y-5.1183
X1.552Y-1.04
X1.552Y-1.178
X1.552Y-1.316
X1.552Y-1.454
X1.552Y-1.592
X1.552Y-1.73
X1.552Y-1.868
X1.552Y-2.006
X1.552Y-2.144
X1.552Y-3.2384
X1.552Y-3.3764
X1.552Y-3.5144
X1.552Y-3.6524
X1.552Y-3.7904
X1.552Y-3.9284
X1.552Y-4.0664
X1.552Y-4.2044
X1.552Y-4.3424
X1.552Y-5.4368
X1.552Y-5.5748
X1.552Y-5.7128
X1.552Y-5.8508
X1.552Y-5.9889
X1.552Y-6.1269
X1.552Y-6.2649
X1.552Y-6.4028
X1.552Y-6.5408
X1.6Y-2.378
X1.6Y-2.5
X1.6Y-4.5764
X1.6Y-4.6984
X1.6Y-6.7748
X1.6Y-6.8968
X1.64Y-0.6005
X1.64Y-0.7215
X1.64Y-2.7989
X1.64Y-2.9199
X1.64Y-4.9973
X1.64Y-5.1183
X1.652Y-1.04
X1.652Y-1.178
X1.652Y-1.316
X1.652Y-1.454
X1.652Y-1.592
X1.652Y-1.73
X1.652Y-1.868
X1.652Y-2.006
X1.652Y-2.144
X1.652Y-3.2384
X1.652Y-3.3764
X1.652Y-3.5144
X1.652Y-3.6524
X1.652Y-3.7904
X1.652Y-3.9284
X1.652Y-4.0664
X1.652Y-4.2044
X1.652Y-4.3424
X1.652Y-5.4368
X1.652Y-5.5748
X1.652Y-5.7128
X1.652Y-5.8508
X1.652Y-5.9889
X1.652Y-6.1269
X1.652Y-6.2649
X1.652Y-6.4028
X1.652Y-6.5408
X1.7Y-2.378
X1.7Y-2.5
X1.7Y-4.5764
X1.7Y-4.6984
X1.7Y-6.7748
X1.7Y-6.8968
X1.74Y-0.6005
X1.74Y-0.7215
X1.74Y-2.7989
X1.74Y-2.9199
X1.74Y-4.9973
X1.74Y-5.1183
X1.752Y-1.04
X1.752Y-1.178
X1.752Y-1.316
X1.752Y-1.454
X1.752Y-1.592
X1.752Y-1.73
X1.752Y-1.868
X1.752Y-2.006
X1.752Y-2.144
X1.752Y-3.2384
X1.752Y-3.3764
X1.752Y-3.5144
X1.752Y-3.6524
X1.752Y-3.7904
X1.752Y-3.9284
X1.752Y-4.0664
X1.752Y-4.2044
X1.752Y-4.3424
X1.752Y-5.4368
X1.752Y-5.5748
X1.752Y-5.7128
X1.752Y-5.8508
X1.752Y-5.9889
X1.752Y-6.1269
X1.752Y-6.2649
X1.752Y-6.4028
X1.752Y-6.5408
X1.8Y-2.378
X1.8Y-2.5
X1.8Y-4.5764
X1.8Y-4.6984
X1.8Y-6.7748
X1.8Y-6.8968
X1.84Y-0.6005
X1.84Y-0.7215
X1.84Y-2.7989
X1.84Y-2.9199
X1.84Y-4.9973
X1.84Y-5.1183
X1.852Y-1.04
X1.852Y-1.178
X1.852Y-1.316
X1.852Y-1.454
X1.852Y-1.592
X1.852Y-1.73
X1.852Y-1.868
X1.852Y-2.006
X1.852Y-2.144
X1.852Y-3.2384
X1.852Y-3.3764
X1.852Y-3.5144
X1.852Y-3.6524
X1.852Y-3.7904
X1.852Y-3.9284
X1.852Y-4.0664
X1.852Y-4.2044
X1.852Y-4.3424
X1.852Y-5.4368
X1.852Y-5.5748
X1.852Y-5.7128
X1.852Y-5.8508
X1.852Y-5.9889
X1.852Y-6.1269
X1.852Y-6.2649
X1.852Y-6.4028
X1.852Y-6.5408
X1.9Y-2.378
X1.9Y-2.5
X1.9Y-4.5764
X1.9Y-4.6984
X1.9Y-6.7748
X1.9Y-6.8968
X1.94Y-0.6005
X1.94Y-0.7215
X1.94Y-2.7989
X1.94Y-2.9199
X1.94Y-4.9973
X1.94Y-5.1183
X1.952Y-1.04
X1.952Y-1.178
X1.952Y-1.316
X1.952Y-1.454
X1.952Y-1.592
X1.952Y-1.73
X1.952Y-1.868
X1.952Y-2.006
X1.952Y-2.144
X1.952Y-3.2384
X1.952Y-3.3764
X1.952Y-3.5144
X1.952Y-3.6524
X1.952Y-3.7904
X1.952Y-3.9284
X1.952Y-4.0664
X1.952Y-4.2044
X1.952Y-4.3424
X1.952Y-5.4368
X1.952Y-5.5748
X1.952Y-5.7128
X1.952Y-5.8508
X1.952Y-5.9889
X1.952Y-6.1269
X1.952Y-6.2649
X1.952Y-6.4028
X1.952Y-6.5408
X2.Y-2.378
X2.Y-2.5
X2.Y-4.5764
X2.Y-4.6984
X2.Y-6.7748
X2.Y-6.8968
X2.04Y-0.6005
X2.04Y-0.7215
X2.04Y-2.7989
X2.04Y-2.9199
X2.04Y-4.9973
X2.04Y-5.1183
X2.052Y-1.04
X2.052Y-1.178
X2.052Y-1.316
X2.052Y-1.454
X2.052Y-1.592
X2.052Y-1.73
X2.052Y-1.868
X2.052Y-2.006
X2.052Y-2.144
X2.052Y-3.2384
X2.052Y-3.3764
X2.052Y-3.5144
X2.052Y-3.6524
X2.052Y-3.7904
X2.052Y-3.9284
X2.052Y-4.0664
X2.052Y-4.2044
X2.052Y-4.3424
X2.052Y-5.4368
X2.052Y-5.5748
X2.052Y-5.7128
X2.052Y-5.8508
X2.052Y-5.9889
X2.052Y-6.1269
X2.052Y-6.2649
X2.052Y-6.4028
X2.052Y-6.5408
X2.1Y-2.378
X2.1Y-2.5
X2.1Y-4.5764
X2.1Y-4.6984
X2.1Y-6.7748
X2.1Y-6.8968
X2.14Y-0.6005
X2.14Y-0.7215
X2.14Y-2.7989
X2.14Y-2.9199
X2.14Y-4.9973
X2.14Y-5.1183
X2.152Y-1.04
X2.152Y-1.178
X2.152Y-1.316
X2.152Y-1.454
X2.152Y-1.592
X2.152Y-1.73
X2.152Y-1.868
X2.152Y-2.006
X2.152Y-2.144
X2.152Y-3.2384
X2.152Y-3.3764
X2.152Y-3.5144
X2.152Y-3.6524
X2.152Y-3.7904
X2.152Y-3.9284
X2.152Y-4.0664
X2.152Y-4.2044
X2.152Y-4.3424
X2.152Y-5.4368
X2.152Y-5.5748
X2.152Y-5.7128
X2.152Y-5.8508
X2.152Y-5.9889
X2.152Y-6.1269
X2.152Y-6.2649
X2.152Y-6.4028
X2.152Y-6.5408
X2.2Y-2.378
X2.2Y-2.5
X2.2Y-4.5764
X2.2Y-4.6984
X2.2Y-6.7748
X2.2Y-6.8968
X2.252Y-1.04
X2.252Y-1.178
X2.252Y-1.316
X2.252Y-1.454
X2.252Y-1.592
X2.252Y-1.73
X2.252Y-1.868
X2.252Y-2.006
X2.252Y-2.144
X2.252Y-3.2384
X2.252Y-3.3764
X2.252Y-3.5144
X2.252Y-3.6524
X2.252Y-3.7904
X2.252Y-3.9284
X2.252Y-4.0664
X2.252Y-4.2044
X2.252Y-4.3424
X2.252Y-5.4368
X2.252Y-5.5748
X2.252Y-5.7128
X2.252Y-5.8508
X2.252Y-5.9889
X2.252Y-6.1269
X2.252Y-6.2649
X2.252Y-6.4028
X2.252Y-6.5408
X2.3Y-0.6
X2.3Y-0.722
X2.3Y-2.378
X2.3Y-2.5
X2.3Y-2.7984
X2.3Y-2.9204
X2.3Y-4.5764
X2.3Y-4.6984
X2.3Y-4.9969
X2.3Y-5.1189
X2.3Y-6.7748
X2.3Y-6.8968
X2.352Y-1.04
X2.352Y-1.178
X2.352Y-1.316
X2.352Y-1.454
X2.352Y-1.592
X2.352Y-1.73
X2.352Y-1.868
X2.352Y-2.006
X2.352Y-2.144
X2.352Y-3.2384
X2.352Y-3.3764
X2.352Y-3.5144
X2.352Y-3.6524
X2.352Y-3.7904
X2.352Y-3.9284
X2.352Y-4.0664
X2.352Y-4.2044
X2.352Y-4.3424
X2.352Y-5.4368
X2.352Y-5.5748
X2.352Y-5.7128
X2.352Y-5.8508
X2.352Y-5.9889
X2.352Y-6.1269
X2.352Y-6.2649
X2.352Y-6.4028
X2.352Y-6.5408
X2.4Y-0.6
X2.4Y-0.722
X2.4Y-2.7984
X2.4Y-2.9204
X2.4Y-4.9969
X2.4Y-5.1189
X2.452Y-1.04
X2.452Y-1.178
X2.452Y-1.316
X2.452Y-1.454
X2.452Y-1.592
X2.452Y-1.73
X2.452Y-1.868
X2.452Y-2.006
X2.452Y-2.144
X2.452Y-3.2384
X2.452Y-3.3764
X2.452Y-3.5144
X2.452Y-3.6524
X2.452Y-3.7904
X2.452Y-3.9284
X2.452Y-4.0664
X2.452Y-4.2044
X2.452Y-4.3424
X2.452Y-5.4368
X2.452Y-5.5748
X2.452Y-5.7128
X2.452Y-5.8508
X2.452Y-5.9889
X2.452Y-6.1269
X2.452Y-6.2649
X2.452Y-6.4028
X2.452Y-6.5408
X2.5Y-0.6
X2.5Y-0.722
X2.5Y-2.378
X2.5Y-2.5
X2.5Y-2.7984
X2.5Y-2.9204
X2.5Y-4.5764
X2.5Y-4.6984
X2.5Y-4.9969
X2.5Y-5.1189
X2.5Y-6.7748
X2.5Y-6.8968
X2.552Y-1.04
X2.552Y-1.178
X2.552Y-1.316
X2.552Y-1.454
X2.552Y-1.592
X2.552Y-1.73
X2.552Y-1.868
X2.552Y-2.006
X2.552Y-2.144
X2.552Y-3.2384
X2.552Y-3.3764
X2.552Y-3.5144
X2.552Y-3.6524
X2.552Y-3.7904
X2.552Y-3.9284
X2.552Y-4.0664
X2.552Y-4.2044
X2.552Y-4.3424
X2.552Y-5.4368
X2.552Y-5.5748
X2.552Y-5.7128
X2.552Y-5.8508
X2.552Y-5.9889
X2.552Y-6.1269
X2.552Y-6.2649
X2.552Y-6.4028
X2.552Y-6.5408
X2.6Y-0.6
X2.6Y-0.722
X2.6Y-2.378
X2.6Y-2.5
X2.6Y-2.7984
X2.6Y-2.9204
X2.6Y-4.5764
X2.6Y-4.6984
X2.6Y-4.9969
X2.6Y-5.1189
X2.6Y-6.7748
X2.6Y-6.8968
X2.652Y-1.04
X2.652Y-1.178
X2.652Y-1.316
X2.652Y-1.454
X2.652Y-1.592
X2.652Y-1.73
X2.652Y-1.868
X2.652Y-2.006
X2.652Y-2.144
X2.652Y-3.2384
X2.652Y-3.3764
X2.652Y-3.5144
X2.652Y-3.6524
X2.652Y-3.7904
X2.652Y-3.9284
X2.652Y-4.0664
X2.652Y-4.2044
X2.652Y-4.3424
X2.652Y-5.4368
X2.652Y-5.5748
X2.652Y-5.7128
X2.652Y-5.8508
X2.652Y-5.9889
X2.652Y-6.1269
X2.652Y-6.2649
X2.652Y-6.4028
X2.652Y-6.5408
X2.7Y-0.6
X2.7Y-0.722
X2.7Y-2.378
X2.7Y-2.5
X2.7Y-2.7984
X2.7Y-2.9204
X2.7Y-4.5764
X2.7Y-4.6984
X2.7Y-4.9969
X2.7Y-5.1189
X2.7Y-6.7748
X2.7Y-6.8968
X2.752Y-1.04
X2.752Y-1.178
X2.752Y-1.316
X2.752Y-1.454
X2.752Y-1.592
X2.752Y-1.73
X2.752Y-1.868
X2.752Y-2.006
X2.752Y-2.144
X2.752Y-3.2384
X2.752Y-3.3764
X2.752Y-3.5144
X2.752Y-3.6524
X2.752Y-3.7904
X2.752Y-3.9284
X2.752Y-4.0664
X2.752Y-4.2044
X2.752Y-4.3424
X2.752Y-5.4368
X2.752Y-5.5748
X2.752Y-5.7128
X2.752Y-5.8508
X2.752Y-5.9889
X2.752Y-6.1269
X2.752Y-6.2649
X2.752Y-6.4028
X2.752Y-6.5408
X2.8Y-0.6
X2.8Y-0.722
X2.8Y-2.378
X2.8Y-2.5
X2.8Y-2.7984
X2.8Y-2.9204
X2.8Y-4.5764
X2.8Y-4.6984
X2.8Y-4.9969
X2.8Y-5.1189
X2.8Y-6.7748
X2.8Y-6.8968
X2.852Y-1.04
X2.852Y-1.178
X2.852Y-1.316
X2.852Y-1.454
X2.852Y-1.592
X2.852Y-1.73
X2.852Y-1.868
X2.852Y-2.006
X2.852Y-2.144
X2.852Y-3.2384
X2.852Y-3.3764
X2.852Y-3.5144
X2.852Y-3.6524
X2.852Y-3.7904
X2.852Y-3.9284
X2.852Y-4.0664
X2.852Y-4.2044
X2.852Y-4.3424
X2.852Y-5.4368
X2.852Y-5.5748
X2.852Y-5.7128
X2.852Y-5.8508
X2.852Y-5.9889
X2.852Y-6.1269
X2.852Y-6.2649
X2.852Y-6.4028
X2.852Y-6.5408
X2.9Y-0.6
X2.9Y-0.722
X2.9Y-2.378
X2.9Y-2.5
X2.9Y-2.7984
X2.9Y-2.9204
X2.9Y-4.5764
X2.9Y-4.6984
X2.9Y-4.9969
X2.9Y-5.1189
X2.9Y-6.7748
X2.9Y-6.8968
X3.Y-0.6
X3.Y-0.722
X3.Y-2.378
X3.Y-2.5
X3.Y-2.7984
X3.Y-2.9204
X3.Y-4.5764
X3.Y-4.6984
X3.Y-4.9969
X3.Y-5.1189
X3.Y-6.7748
X3.Y-6.8968
X4.0384Y-0.6005
X4.0384Y-0.7215
X4.0384Y-2.7989
X4.0384Y-2.9199
X4.0384Y-4.9973
X4.0384Y-5.1183
X4.1384Y-0.6005
X4.1384Y-0.7215
X4.1384Y-2.7989
X4.1384Y-2.9199
X4.1384Y-4.9973
X4.1384Y-5.1183
X4.2384Y-0.6005
X4.2384Y-0.7215
X4.2384Y-2.7989
X4.2384Y-2.9199
X4.2384Y-4.9973
X4.2384Y-5.1183
X4.3384Y-0.6005
X4.3384Y-0.7215
X4.3384Y-2.7989
X4.3384Y-2.9199
X4.3384Y-4.9973
X4.3384Y-5.1183
X4.3504Y-1.04
X4.3504Y-1.178
X4.3504Y-1.316
X4.3504Y-1.454
X4.3504Y-1.592
X4.3504Y-1.73
X4.3504Y-1.868
X4.3504Y-2.006
X4.3504Y-2.144
X4.3504Y-3.2384
X4.3504Y-3.3764
X4.3504Y-3.5144
X4.3504Y-3.6524
X4.3504Y-3.7904
X4.3504Y-3.9284
X4.3504Y-4.0664
X4.3504Y-4.2044
X4.3504Y-4.3424
X4.3504Y-5.4368
X4.3504Y-5.5748
X4.3504Y-5.7128
X4.3504Y-5.8508
X4.3504Y-5.9889
X4.3504Y-6.1269
X4.3504Y-6.2649
X4.3504Y-6.4028
X4.3504Y-6.5408
X4.3984Y-2.378
X4.3984Y-2.5
X4.3984Y-4.5764
X4.3984Y-4.6984
X4.3984Y-6.7748
X4.3984Y-6.8968
X4.4384Y-0.6005
X4.4384Y-0.7215
X4.4384Y-2.7989
X4.4384Y-2.9199
X4.4384Y-4.9973
X4.4384Y-5.1183
X4.4504Y-1.04
X4.4504Y-1.178
X4.4504Y-1.316
X4.4504Y-1.454
X4.4504Y-1.592
X4.4504Y-1.73
X4.4504Y-1.868
X4.4504Y-2.006
X4.4504Y-2.144
X4.4504Y-3.2384
X4.4504Y-3.3764
X4.4504Y-3.5144
X4.4504Y-3.6524
X4.4504Y-3.7904
X4.4504Y-3.9284
X4.4504Y-4.0664
X4.4504Y-4.2044
X4.4504Y-4.3424
X4.4504Y-5.4368
X4.4504Y-5.5748
X4.4504Y-5.7128
X4.4504Y-5.8508
X4.4504Y-5.9889
X4.4504Y-6.1269
X4.4504Y-6.2649
X4.4504Y-6.4028
X4.4504Y-6.5408
X4.4984Y-2.378
X4.4984Y-2.5
X4.4984Y-4.5764
X4.4984Y-4.6984
X4.4984Y-6.7748
X4.4984Y-6.8968
X4.5384Y-0.6005
X4.5384Y-0.7215
X4.5384Y-2.7989
X4.5384Y-2.9199
X4.5384Y-4.9973
X4.5384Y-5.1183
X4.5504Y-1.04
X4.5504Y-1.178
X4.5504Y-1.316
X4.5504Y-1.454
X4.5504Y-1.592
X4.5504Y-1.73
X4.5504Y-1.868
X4.5504Y-2.006
X4.5504Y-2.144
X4.5504Y-3.2384
X4.5504Y-3.3764
X4.5504Y-3.5144
X4.5504Y-3.6524
X4.5504Y-3.7904
X4.5504Y-3.9284
X4.5504Y-4.0664
X4.5504Y-4.2044
X4.5504Y-4.3424
X4.5504Y-5.4368
X4.5504Y-5.5748
X4.5504Y-5.7128
X4.5504Y-5.8508
X4.5504Y-5.9889
X4.5504Y-6.1269
X4.5504Y-6.2649
X4.5504Y-6.4028
X4.5504Y-6.5408
X4.5984Y-2.378
X4.5984Y-2.5
X4.5984Y-4.5764
X4.5984Y-4.6984
X4.5984Y-6.7748
X4.5984Y-6.8968
X4.6384Y-0.6005
X4.6384Y-0.7215
X4.6384Y-2.7989
X4.6384Y-2.9199
X4.6384Y-4.9973
X4.6384Y-5.1183
X4.6504Y-1.04
X4.6504Y-1.178
X4.6504Y-1.316
X4.6504Y-1.454
X4.6504Y-1.592
X4.6504Y-1.73
X4.6504Y-1.868
X4.6504Y-2.006
X4.6504Y-2.144
X4.6504Y-3.2384
X4.6504Y-3.3764
X4.6504Y-3.5144
X4.6504Y-3.6524
X4.6504Y-3.7904
X4.6504Y-3.9284
X4.6504Y-4.0664
X4.6504Y-4.2044
X4.6504Y-4.3424
X4.6504Y-5.4368
X4.6504Y-5.5748
X4.6504Y-5.7128
X4.6504Y-5.8508
X4.6504Y-5.9889
X4.6504Y-6.1269
X4.6504Y-6.2649
X4.6504Y-6.4028
X4.6504Y-6.5408
X4.6984Y-2.378
X4.6984Y-2.5
X4.6984Y-4.5764
X4.6984Y-4.6984
X4.6984Y-6.7748
X4.6984Y-6.8968
X4.7384Y-0.6005
X4.7384Y-0.7215
X4.7384Y-2.7989
X4.7384Y-2.9199
X4.7384Y-4.9973
X4.7384Y-5.1183
X4.7504Y-1.04
X4.7504Y-1.178
X4.7504Y-1.316
X4.7504Y-1.454
X4.7504Y-1.592
X4.7504Y-1.73
X4.7504Y-1.868
X4.7504Y-2.006
X4.7504Y-2.144
X4.7504Y-3.2384
X4.7504Y-3.3764
X4.7504Y-3.5144
X4.7504Y-3.6524
X4.7504Y-3.7904
X4.7504Y-3.9284
X4.7504Y-4.0664
X4.7504Y-4.2044
X4.7504Y-4.3424
X4.7504Y-5.4368
X4.7504Y-5.5748
X4.7504Y-5.7128
X4.7504Y-5.8508
X4.7504Y-5.9889
X4.7504Y-6.1269
X4.7504Y-6.2649
X4.7504Y-6.4028
X4.7504Y-6.5408
X4.7984Y-2.378
X4.7984Y-2.5
X4.7984Y-4.5764
X4.7984Y-4.6984
X4.7984Y-6.7748
X4.7984Y-6.8968
X4.8384Y-0.6005
X4.8384Y-0.7215
X4.8384Y-2.7989
X4.8384Y-2.9199
X4.8384Y-4.9973
X4.8384Y-5.1183
X4.8504Y-1.04
X4.8504Y-1.178
X4.8504Y-1.316
X4.8504Y-1.454
X4.8504Y-1.592
X4.8504Y-1.73
X4.8504Y-1.868
X4.8504Y-2.006
X4.8504Y-2.144
X4.8504Y-3.2384
X4.8504Y-3.3764
X4.8504Y-3.5144
X4.8504Y-3.6524
X4.8504Y-3.7904
X4.8504Y-3.9284
X4.8504Y-4.0664
X4.8504Y-4.2044
X4.8504Y-4.3424
X4.8504Y-5.4368
X4.8504Y-5.5748
X4.8504Y-5.7128
X4.8504Y-5.8508
X4.8504Y-5.9889
X4.8504Y-6.1269
X4.8504Y-6.2649
X4.8504Y-6.4028
X4.8504Y-6.5408
X4.8984Y-2.378
X4.8984Y-2.5
X4.8984Y-4.5764
X4.8984Y-4.6984
X4.8984Y-6.7748
X4.8984Y-6.8968
X4.9384Y-0.6005
X4.9384Y-0.7215
X4.9384Y-2.7989
X4.9384Y-2.9199
X4.9384Y-4.9973
X4.9384Y-5.1183
X4.9504Y-1.04
X4.9504Y-1.178
X4.9504Y-1.316
X4.9504Y-1.454
X4.9504Y-1.592
X4.9504Y-1.73
X4.9504Y-1.868
X4.9504Y-2.006
X4.9504Y-2.144
X4.9504Y-3.2384
X4.9504Y-3.3764
X4.9504Y-3.5144
X4.9504Y-3.6524
X4.9504Y-3.7904
X4.9504Y-3.9284
X4.9504Y-4.0664
X4.9504Y-4.2044
X4.9504Y-4.3424
X4.9504Y-5.4368
X4.9504Y-5.5748
X4.9504Y-5.7128
X4.9504Y-5.8508
X4.9504Y-5.9889
X4.9504Y-6.1269
X4.9504Y-6.2649
X4.9504Y-6.4028
X4.9504Y-6.5408
X4.9984Y-2.378
X4.9984Y-2.5
X4.9984Y-4.5764
X4.9984Y-4.6984
X4.9984Y-6.7748
X4.9984Y-6.8968
X5.0504Y-1.04
X5.0504Y-1.178
X5.0504Y-1.316
X5.0504Y-1.454
X5.0504Y-1.592
X5.0504Y-1.73
X5.0504Y-1.868
X5.0504Y-2.006
X5.0504Y-2.144
X5.0504Y-3.2384
X5.0504Y-3.3764
X5.0504Y-3.5144
X5.0504Y-3.6524
X5.0504Y-3.7904
X5.0504Y-3.9284
X5.0504Y-4.0664
X5.0504Y-4.2044
X5.0504Y-4.3424
X5.0504Y-5.4368
X5.0504Y-5.5748
X5.0504Y-5.7128
X5.0504Y-5.8508
X5.0504Y-5.9889
X5.0504Y-6.1269
X5.0504Y-6.2649
X5.0504Y-6.4028
X5.0504Y-6.5408
X5.0984Y-0.6
X5.0984Y-0.722
X5.0984Y-2.378
X5.0984Y-2.5
X5.0984Y-2.7984
X5.0984Y-2.9204
X5.0984Y-4.5764
X5.0984Y-4.6984
X5.0984Y-4.9969
X5.0984Y-5.1189
X5.0984Y-6.7748
X5.0984Y-6.8968
X5.1504Y-1.04
X5.1504Y-1.178
X5.1504Y-1.316
X5.1504Y-1.454
X5.1504Y-1.592
X5.1504Y-1.73
X5.1504Y-1.868
X5.1504Y-2.006
X5.1504Y-2.144
X5.1504Y-3.2384
X5.1504Y-3.3764
X5.1504Y-3.5144
X5.1504Y-3.6524
X5.1504Y-3.7904
X5.1504Y-3.9284
X5.1504Y-4.0664
X5.1504Y-4.2044
X5.1504Y-4.3424
X5.1504Y-5.4368
X5.1504Y-5.5748
X5.1504Y-5.7128
X5.1504Y-5.8508
X5.1504Y-5.9889
X5.1504Y-6.1269
X5.1504Y-6.2649
X5.1504Y-6.4028
X5.1504Y-6.5408
X5.1984Y-0.6
X5.1984Y-0.722
X5.1984Y-2.7984
X5.1984Y-2.9204
X5.1984Y-4.9969
X5.1984Y-5.1189
X5.2504Y-1.04
X5.2504Y-1.178
X5.2504Y-1.316
X5.2504Y-1.454
X5.2504Y-1.592
X5.2504Y-1.73
X5.2504Y-1.868
X5.2504Y-2.006
X5.2504Y-2.144
X5.2504Y-3.2384
X5.2504Y-3.3764
X5.2504Y-3.5144
X5.2504Y-3.6524
X5.2504Y-3.7904
X5.2504Y-3.9284
X5.2504Y-4.0664
X5.2504Y-4.2044
X5.2504Y-4.3424
X5.2504Y-5.4368
X5.2504Y-5.5748
X5.2504Y-5.7128
X5.2504Y-5.8508
X5.2504Y-5.9889
X5.2504Y-6.1269
X5.2504Y-6.2649
X5.2504Y-6.4028
X5.2504Y-6.5408
X5.2984Y-0.6
X5.2984Y-0.722
X5.2984Y-2.378
X5.2984Y-2.5
X5.2984Y-2.7984
X5.2984Y-2.9204
X5.2984Y-4.5764
X5.2984Y-4.6984
X5.2984Y-4.9969
X5.2984Y-5.1189
X5.2984Y-6.7748
X5.2984Y-6.8968
X5.3504Y-1.04
X5.3504Y-1.178
X5.3504Y-1.316
X5.3504Y-1.454
X5.3504Y-1.592
X5.3504Y-1.73
X5.3504Y-1.868
X5.3504Y-2.006
X5.3504Y-2.144
X5.3504Y-3.2384
X5.3504Y-3.3764
X5.3504Y-3.5144
X5.3504Y-3.6524
X5.3504Y-3.7904
X5.3504Y-3.9284
X5.3504Y-4.0664
X5.3504Y-4.2044
X5.3504Y-4.3424
X5.3504Y-5.4368
X5.3504Y-5.5748
X5.3504Y-5.7128
X5.3504Y-5.8508
X5.3504Y-5.9889
X5.3504Y-6.1269
X5.3504Y-6.2649
X5.3504Y-6.4028
X5.3504Y-6.5408
X5.3984Y-0.6
X5.3984Y-0.722
X5.3984Y-2.378
X5.3984Y-2.5
X5.3984Y-2.7984
X5.3984Y-2.9204
X5.3984Y-4.5764
X5.3984Y-4.6984
X5.3984Y-4.9969
X5.3984Y-5.1189
X5.3984Y-6.7748
X5.3984Y-6.8968
X5.4504Y-1.04
X5.4504Y-1.178
X5.4504Y-1.316
X5.4504Y-1.454
X5.4504Y-1.592
X5.4504Y-1.73
X5.4504Y-1.868
X5.4504Y-2.006
X5.4504Y-2.144
X5.4504Y-3.2384
X5.4504Y-3.3764
X5.4504Y-3.5144
X5.4504Y-3.6524
X5.4504Y-3.7904
X5.4504Y-3.9284
X5.4504Y-4.0664
X5.4504Y-4.2044
X5.4504Y-4.3424
X5.4504Y-5.4368
X5.4504Y-5.5748
X5.4504Y-5.7128
X5.4504Y-5.8508
X5.4504Y-5.9889
X5.4504Y-6.1269
X5.4504Y-6.2649
X5.4504Y-6.4028
X5.4504Y-6.5408
X5.4984Y-0.6
X5.4984Y-0.722
X5.4984Y-2.378
X5.4984Y-2.5
X5.4984Y-2.7984
X5.4984Y-2.9204
X5.4984Y-4.5764
X5.4984Y-4.6984
X5.4984Y-4.9969
X5.4984Y-5.1189
X5.4984Y-6.7748
X5.4984Y-6.8968
X5.5504Y-1.04
X5.5504Y-1.178
X5.5504Y-1.316
X5.5504Y-1.454
X5.5504Y-1.592
X5.5504Y-1.73
X5.5504Y-1.868
X5.5504Y-2.006
X5.5504Y-2.144
X5.5504Y-3.2384
X5.5504Y-3.3764
X5.5504Y-3.5144
X5.5504Y-3.6524
X5.5504Y-3.7904
X5.5504Y-3.9284
X5.5504Y-4.0664
X5.5504Y-4.2044
X5.5504Y-4.3424
X5.5504Y-5.4368
X5.5504Y-5.5748
X5.5504Y-5.7128
X5.5504Y-5.8508
X5.5504Y-5.9889
X5.5504Y-6.1269
X5.5504Y-6.2649
X5.5504Y-6.4028
X5.5504Y-6.5408
X5.5984Y-0.6
X5.5984Y-0.722
X5.5984Y-2.378
X5.5984Y-2.5
X5.5984Y-2.7984
X5.5984Y-2.9204
X5.5984Y-4.5764
X5.5984Y-4.6984
X5.5984Y-4.9969
X5.5984Y-5.1189
X5.5984Y-6.7748
X5.5984Y-6.8968
X5.6504Y-1.04
X5.6504Y-1.178
X5.6504Y-1.316
X5.6504Y-1.454
X5.6504Y-1.592
X5.6504Y-1.73
X5.6504Y-1.868
X5.6504Y-2.006
X5.6504Y-2.144
X5.6504Y-3.2384
X5.6504Y-3.3764
X5.6504Y-3.5144
X5.6504Y-3.6524
X5.6504Y-3.7904
X5.6504Y-3.9284
X5.6504Y-4.0664
X5.6504Y-4.2044
X5.6504Y-4.3424
X5.6504Y-5.4368
X5.6504Y-5.5748
X5.6504Y-5.7128
X5.6504Y-5.8508
X5.6504Y-5.9889
X5.6504Y-6.1269
X5.6504Y-6.2649
X5.6504Y-6.4028
X5.6504Y-6.5408
X5.6984Y-0.6
X5.6984Y-0.722
X5.6984Y-2.378
X5.6984Y-2.5
X5.6984Y-2.7984
X5.6984Y-2.9204
X5.6984Y-4.5764
X5.6984Y-4.6984
X5.6984Y-4.9969
X5.6984Y-5.1189
X5.6984Y-6.7748
X5.6984Y-6.8968
X5.7984Y-0.6
X5.7984Y-0.722
X5.7984Y-2.378
X5.7984Y-2.5
X5.7984Y-2.7984
X5.7984Y-2.9204
X5.7984Y-4.5764
X5.7984Y-4.6984
X5.7984Y-4.9969
X5.7984Y-5.1189
X5.7984Y-6.7748
X5.7984Y-6.8968
T6
X0.797Y-0.8188
X0.797Y-1.4588
X0.797Y-1.6412
X0.797Y-2.2812
X0.797Y-3.0172
X0.797Y-3.6572
X0.797Y-3.8396
X0.797Y-4.4796
X0.797Y-5.2157
X0.797Y-5.8557
X0.797Y-6.038
X0.797Y-6.678
X3.5954Y-0.8188
X3.5954Y-1.4588
X3.5954Y-1.6412
X3.5954Y-2.2812
X3.5954Y-3.0172
X3.5954Y-3.6572
X3.5954Y-3.8396
X3.5954Y-4.4796
X3.5954Y-5.2157
X3.5954Y-5.8557
X3.5954Y-6.038
X3.5954Y-6.678
T7
X1.05Y-2.5
X1.05Y-4.6984
X1.05Y-6.8968
X1.1Y-0.6
X1.1Y-2.7984
X1.1Y-4.9969
X3.1Y-1.2
X3.1Y-2.3
X3.1Y-3.3984
X3.1Y-4.4984
X3.1Y-5.5968
X3.1Y-6.6968
X3.8484Y-2.5
X3.8484Y-4.6984
X3.8484Y-6.8968
X3.8984Y-0.6
X3.8984Y-2.7984
X3.8984Y-4.9969
X5.8984Y-1.2
X5.8984Y-2.3
X5.8984Y-3.3984
X5.8984Y-4.4984
X5.8984Y-5.5968
X5.8984Y-6.6968
T8
X0.662Y-0.8888
X0.662Y-1.3888
X0.662Y-1.7112
X0.662Y-2.2112
X0.662Y-3.0872
X0.662Y-3.5872
X0.662Y-3.9096
X0.662Y-4.4096
X0.662Y-5.2857
X0.662Y-5.7857
X0.662Y-6.108
X0.662Y-6.608
X3.4604Y-0.8888
X3.4604Y-1.3888
X3.4604Y-1.7112
X3.4604Y-2.2112
X3.4604Y-3.0872
X3.4604Y-3.5872
X3.4604Y-3.9096
X3.4604Y-4.4096
X3.4604Y-5.2857
X3.4604Y-5.7857
X3.4604Y-6.108
X3.4604Y-6.608
T0
M30
