G04 #@! TF.FileFunction,Soldermask,Top*
%FSLAX46Y46*%
G04 Gerber Fmt 4.6, Leading zero omitted, Abs format (unit mm)*
G04 Created by KiCad (PCBNEW 4.0.1-stable) date Tue 12 Jul 2016 11:05:00 AM CEST*
%MOMM*%
G01*
G04 APERTURE LIST*
%ADD10C,0.100000*%
%ADD11R,2.999740X1.600200*%
%ADD12O,1.727200X2.032000*%
%ADD13R,0.800000X0.750000*%
%ADD14R,0.750000X0.800000*%
%ADD15R,1.800860X2.499360*%
%ADD16R,0.797560X0.797560*%
%ADD17R,0.590000X0.450000*%
%ADD18R,0.800100X0.800100*%
%ADD19R,0.500000X0.900000*%
%ADD20R,1.300000X0.700000*%
%ADD21R,2.500000X0.900000*%
%ADD22R,1.500000X0.600000*%
%ADD23R,1.727200X2.032000*%
%ADD24C,3.048000*%
%ADD25C,2.032000*%
%ADD26C,3.300000*%
%ADD27C,3.200000*%
%ADD28R,1.501140X1.501140*%
%ADD29C,1.501140*%
G04 APERTURE END LIST*
D10*
D11*
X21038820Y22959540D03*
X16639540Y22959540D03*
D12*
X27940000Y2540000D03*
X30480000Y2540000D03*
X33020000Y2540000D03*
X35560000Y2540000D03*
X38100000Y2540000D03*
X40640000Y2540000D03*
X43180000Y2540000D03*
X45720000Y2540000D03*
X50800000Y2540000D03*
X53340000Y2540000D03*
X55880000Y2540000D03*
X58420000Y2540000D03*
X60960000Y2540000D03*
X63500000Y2540000D03*
X18796000Y50787300D03*
X21336000Y50787300D03*
X23876000Y50787300D03*
X26416000Y50787300D03*
X28956000Y50787300D03*
X31496000Y50787300D03*
X34036000Y50787300D03*
X36576000Y50787300D03*
X39116000Y50787300D03*
X41656000Y50787300D03*
X45720000Y50800000D03*
X48260000Y50800000D03*
X50800000Y50800000D03*
X53340000Y50800000D03*
X55880000Y50800000D03*
X58420000Y50800000D03*
X60960000Y50800000D03*
X63500000Y50800000D03*
D13*
X21311300Y18992060D03*
X19811300Y18992060D03*
D14*
X18694400Y42531600D03*
X18694400Y44031600D03*
D15*
X16855440Y14338300D03*
X16855440Y18336260D03*
D16*
X30553660Y43922160D03*
X29055060Y43922160D03*
D17*
X15201000Y42519600D03*
X17311000Y42519600D03*
X22760040Y38638480D03*
X24870040Y38638480D03*
D18*
X10833140Y49263780D03*
X8933140Y49263780D03*
X9883140Y47264800D03*
X22184360Y42484000D03*
X22184360Y44384000D03*
X20185380Y43434000D03*
D19*
X33455040Y43922160D03*
X31955040Y43922160D03*
X15302800Y44399200D03*
X16802800Y44399200D03*
D20*
X23891240Y44379400D03*
X23891240Y42479400D03*
D19*
X15488220Y31160720D03*
X16988220Y31160720D03*
X23019320Y40533800D03*
X24519320Y40533800D03*
D21*
X20660360Y14334040D03*
X20660360Y17234040D03*
D22*
X15740400Y40538400D03*
X15740400Y39268400D03*
X15740400Y37998400D03*
X15740400Y36728400D03*
X15740400Y35458400D03*
X15740400Y34188400D03*
X15740400Y32918400D03*
X21140400Y32918400D03*
X21140400Y34188400D03*
X21140400Y35458400D03*
X21140400Y36728400D03*
X21140400Y37998400D03*
X21140400Y39268400D03*
X21140400Y40538400D03*
D23*
X27940000Y12298680D03*
D12*
X30480000Y12298680D03*
X33020000Y12298680D03*
X35560000Y12298680D03*
X38100000Y12298680D03*
X40640000Y12298680D03*
X43180000Y12298680D03*
X45720000Y12298680D03*
X48260000Y12298680D03*
X50800000Y12298680D03*
X53340000Y12298680D03*
X55880000Y12298680D03*
X58420000Y12298680D03*
X60960000Y12298680D03*
D23*
X27940000Y41602660D03*
D12*
X30480000Y41602660D03*
X33020000Y41602660D03*
X35560000Y41602660D03*
X38100000Y41602660D03*
X40640000Y41602660D03*
X43180000Y41602660D03*
X45720000Y41602660D03*
X48260000Y41602660D03*
X50800000Y41602660D03*
X53340000Y41602660D03*
X55880000Y41602660D03*
X58420000Y41602660D03*
X60960000Y41602660D03*
D23*
X27940000Y26951940D03*
D12*
X30480000Y26951940D03*
X33020000Y26951940D03*
X35560000Y26951940D03*
X38100000Y26951940D03*
X40640000Y26951940D03*
X43180000Y26951940D03*
X45720000Y26951940D03*
X48260000Y26951940D03*
X50800000Y26951940D03*
X53340000Y26951940D03*
X55880000Y26951940D03*
X58420000Y26951940D03*
X60960000Y26951940D03*
X27940000Y5638800D03*
X30480000Y5638800D03*
X33020000Y5638800D03*
X35560000Y5638800D03*
X38100000Y5638800D03*
X40640000Y5638800D03*
X43180000Y5638800D03*
X45720000Y5638800D03*
X50800000Y5638800D03*
X53340000Y5638800D03*
X55880000Y5638800D03*
X58420000Y5638800D03*
X60960000Y5638800D03*
X63500000Y5638800D03*
X18796000Y47713900D03*
X21336000Y47713900D03*
X23876000Y47713900D03*
X26416000Y47713900D03*
X28956000Y47713900D03*
X31496000Y47713900D03*
X34036000Y47713900D03*
X36576000Y47713900D03*
X39116000Y47713900D03*
X41656000Y47713900D03*
X45720000Y47701200D03*
X48260000Y47701200D03*
X50800000Y47701200D03*
X53340000Y47701200D03*
X55880000Y47701200D03*
X58420000Y47701200D03*
X60960000Y47701200D03*
X63500000Y47701200D03*
D24*
X66040000Y35560000D03*
X15240000Y50800000D03*
X66040000Y7620000D03*
X13970000Y2540000D03*
D25*
X27940000Y15801340D03*
X30480000Y15801340D03*
X33020000Y15801340D03*
X35560000Y15801340D03*
X38100000Y15801340D03*
X40640000Y15801340D03*
X43180000Y15801340D03*
X45720000Y15801340D03*
X48260000Y15801340D03*
X50800000Y15801340D03*
X53340000Y15801340D03*
X55880000Y15801340D03*
X58420000Y15801340D03*
X60960000Y15801340D03*
X27940000Y18341340D03*
X30480000Y18341340D03*
X33020000Y18341340D03*
X35560000Y18341340D03*
X38100000Y18341340D03*
X40640000Y18341340D03*
X43180000Y18341340D03*
X45720000Y18341340D03*
X48260000Y18341340D03*
X50800000Y18341340D03*
X53340000Y18341340D03*
X55880000Y18341340D03*
X58420000Y18341340D03*
X60960000Y18341340D03*
X27940000Y20881340D03*
X30480000Y20881340D03*
X33020000Y20881340D03*
X35560000Y20881340D03*
X38100000Y20881340D03*
X40640000Y20881340D03*
X43180000Y20881340D03*
X45720000Y20881340D03*
X48260000Y20881340D03*
X50800000Y20881340D03*
X53340000Y20881340D03*
X55880000Y20881340D03*
X58420000Y20881340D03*
X60960000Y20881340D03*
X27940000Y23421340D03*
X30480000Y23421340D03*
X33020000Y23421340D03*
X35560000Y23421340D03*
X38100000Y23421340D03*
X40640000Y23421340D03*
X43180000Y23421340D03*
X45720000Y23421340D03*
X48260000Y23421340D03*
X50800000Y23421340D03*
X53340000Y23421340D03*
X55880000Y23421340D03*
X58420000Y23421340D03*
X60960000Y23421340D03*
X27927300Y30454600D03*
X30480000Y30454600D03*
X33020000Y30454600D03*
X35560000Y30454600D03*
X38100000Y30454600D03*
X40640000Y30454600D03*
X43180000Y30454600D03*
X45720000Y30454600D03*
X48260000Y30454600D03*
X50800000Y30454600D03*
X53340000Y30454600D03*
X55880000Y30454600D03*
X58420000Y30454600D03*
X60960000Y30454600D03*
X27940000Y32994600D03*
X30480000Y32994600D03*
X33020000Y32994600D03*
X35560000Y32994600D03*
X38100000Y32994600D03*
X40640000Y32994600D03*
X43180000Y32994600D03*
X45720000Y32994600D03*
X48260000Y32994600D03*
X50800000Y32994600D03*
X53340000Y32994600D03*
X55880000Y32994600D03*
X58420000Y32994600D03*
X60960000Y32994600D03*
X27940000Y35534600D03*
X30480000Y35534600D03*
X33020000Y35534600D03*
X35560000Y35534600D03*
X38100000Y35534600D03*
X40640000Y35534600D03*
X43180000Y35534600D03*
X45720000Y35534600D03*
X48260000Y35534600D03*
X50800000Y35534600D03*
X53340000Y35534600D03*
X55880000Y35534600D03*
X58420000Y35534600D03*
X60960000Y35534600D03*
X27940000Y38074600D03*
X30480000Y38074600D03*
X33020000Y38074600D03*
X35560000Y38074600D03*
X38100000Y38074600D03*
X40640000Y38074600D03*
X43180000Y38074600D03*
X45720000Y38074600D03*
X48260000Y38074600D03*
X50800000Y38074600D03*
X53340000Y38074600D03*
X55880000Y38074600D03*
X58420000Y38074600D03*
X60960000Y38074600D03*
D26*
X3909060Y9340060D03*
D27*
X3909060Y21209480D03*
D28*
X10259060Y19723580D03*
D29*
X12799060Y18453580D03*
X10259060Y17183580D03*
X12799060Y15913580D03*
X10259060Y14643580D03*
X12799060Y13373580D03*
X10259060Y12103580D03*
X12799060Y10833580D03*
D26*
X3921760Y32123860D03*
D27*
X3921760Y43993280D03*
D28*
X10271760Y42507380D03*
D29*
X12811760Y41237380D03*
X10271760Y39967380D03*
X12811760Y38697380D03*
X10271760Y37427380D03*
X12811760Y36157380D03*
X10271760Y34887380D03*
X12811760Y33617380D03*
M02*
