G04 #@! TF.FileFunction,Profile,NP*
%FSLAX46Y46*%
G04 Gerber Fmt 4.6, Leading zero omitted, Abs format (unit mm)*
G04 Created by KiCad (PCBNEW no-vcs-found-product) date Sat 17 Oct 2015 11:56:58 AM BRT*
%MOMM*%
G01*
G04 APERTURE LIST*
%ADD10C,0.100000*%
%ADD11C,0.254000*%
G04 APERTURE END LIST*
D10*
D11*
X78740000Y-66040000D02*
X78740000Y-63500000D01*
X78740000Y-63500000D02*
X81280000Y-60960000D01*
X81280000Y-28194000D02*
X78740000Y-25654000D01*
X78740000Y-25654000D02*
X78740000Y-14224000D01*
X78740000Y-14224000D02*
X77216000Y-12700000D01*
X78740000Y-70063995D02*
X77216000Y-68539995D01*
X78740000Y-81493995D02*
X78740000Y-70063995D01*
X81280000Y-84033995D02*
X78740000Y-81493995D01*
X78740000Y-119339995D02*
X81280000Y-116799995D01*
X78740000Y-121879995D02*
X78740000Y-119339995D01*
X78740000Y-125903990D02*
X77216000Y-124379990D01*
X78740000Y-137333990D02*
X78740000Y-125903990D01*
X81280000Y-139873990D02*
X78740000Y-137333990D01*
X78740000Y-175179990D02*
X81280000Y-172639990D01*
X78740000Y-177719990D02*
X78740000Y-175179990D01*
X149819995Y-14224000D02*
X148295995Y-12700000D01*
X149819995Y-25654000D02*
X149819995Y-14224000D01*
X152359995Y-28194000D02*
X149819995Y-25654000D01*
X149819995Y-63500000D02*
X152359995Y-60960000D01*
X149819995Y-66040000D02*
X149819995Y-63500000D01*
X149819995Y-70063995D02*
X148295995Y-68539995D01*
X149819995Y-81493995D02*
X149819995Y-70063995D01*
X152359995Y-84033995D02*
X149819995Y-81493995D01*
X149819995Y-119339995D02*
X152359995Y-116799995D01*
X149819995Y-121879995D02*
X149819995Y-119339995D01*
X149819995Y-125903990D02*
X148295995Y-124379990D01*
X149819995Y-137333990D02*
X149819995Y-125903990D01*
X152359995Y-139873990D02*
X149819995Y-137333990D01*
X149819995Y-175179990D02*
X152359995Y-172639990D01*
X149819995Y-177719990D02*
X149819995Y-175179990D01*
X12700000Y-12700000D02*
X77216000Y-12700000D01*
X78740000Y-177718720D02*
X12700000Y-177718720D01*
X12700000Y-12700000D02*
X12700000Y-66040000D01*
X12700000Y-68539360D02*
X12700000Y-121879360D01*
X12700000Y-124378720D02*
X12700000Y-177718720D01*
X152359360Y-116799360D02*
X152359360Y-84033360D01*
X152359360Y-172638720D02*
X152359360Y-139872720D01*
X148295360Y-12700000D02*
X83779360Y-12700000D01*
X83779360Y-12700000D02*
X83779360Y-38267640D01*
X83779360Y-38267640D02*
X81280000Y-38267640D01*
X83779360Y-40446960D02*
X83779360Y-66040000D01*
X83779360Y-40446960D02*
X81280000Y-40446960D01*
X81280000Y-28194000D02*
X81280000Y-38267640D01*
X81280000Y-60960000D02*
X81280000Y-40446960D01*
X152359360Y-28194000D02*
X152359360Y-60960000D01*
X81280000Y-116794280D02*
X81280000Y-96281240D01*
X81280000Y-84028280D02*
X81280000Y-94101920D01*
X83779360Y-96281240D02*
X81280000Y-96281240D01*
X83779360Y-96281240D02*
X83779360Y-121874280D01*
X83779360Y-94101920D02*
X81280000Y-94101920D01*
X83779360Y-68534280D02*
X83779360Y-94101920D01*
X83769200Y-124378720D02*
X83769200Y-149946360D01*
X83769200Y-149946360D02*
X81280000Y-149946360D01*
X83769200Y-152125680D02*
X83769200Y-177718720D01*
X83769200Y-152125680D02*
X81280000Y-152125680D01*
X81280000Y-139872720D02*
X81280000Y-149946360D01*
X81280000Y-172638720D02*
X81280000Y-152125680D01*
X83769200Y-177718720D02*
X149819360Y-177718720D01*
X12700000Y-66040000D02*
X48260000Y-66040000D01*
X48260000Y-66040000D02*
X48260000Y-68539360D01*
X12700000Y-68539360D02*
X48260000Y-68539360D01*
X50444400Y-66040000D02*
X50444400Y-68539360D01*
X50444400Y-66040000D02*
X78740000Y-66040000D01*
X77216000Y-68539360D02*
X50444400Y-68539360D01*
X148295360Y-68539360D02*
X121523760Y-68539360D01*
X121523760Y-66040000D02*
X149819360Y-66040000D01*
X121523760Y-66040000D02*
X121523760Y-68539360D01*
X83779360Y-68539360D02*
X119339360Y-68539360D01*
X119339360Y-66040000D02*
X119339360Y-68539360D01*
X83779360Y-66040000D02*
X119339360Y-66040000D01*
X83779360Y-121879360D02*
X119339360Y-121879360D01*
X119339360Y-121879360D02*
X119339360Y-124378720D01*
X83779360Y-124378720D02*
X119339360Y-124378720D01*
X121523760Y-121879360D02*
X121523760Y-124378720D01*
X121523760Y-121879360D02*
X149819360Y-121879360D01*
X148295360Y-124378720D02*
X121523760Y-124378720D01*
X77216000Y-124378720D02*
X50444400Y-124378720D01*
X50444400Y-121879360D02*
X78740000Y-121879360D01*
X50444400Y-121879360D02*
X50444400Y-124378720D01*
X12700000Y-124378720D02*
X48260000Y-124378720D01*
X48260000Y-121879360D02*
X48260000Y-124378720D01*
X12700000Y-121879360D02*
X48260000Y-121879360D01*
M02*
